<?xml version="1.0" standalone="no"?>
<!DOCTYPE svg PUBLIC "-//W3C//DTD SVG 1.1//EN" "http://www.w3.org/Graphics/SVG/1.1/DTD/svg11.dtd" >
<svg xmlns="http://www.w3.org/2000/svg" xmlns:xlink="http://www.w3.org/1999/xlink" version="1.1">
<metadata>
Created by FontForge 20201107 at Sat Sep 21 04:19:15 2024
 By 
Copyright (c) LyonsType, 2021-2024. All rights reserved.
</metadata>
<defs>
<font id="LTMuseum-LightItalic" horiz-adv-x="688" >
  <font-face 
    font-family="LT Museum Light"
    font-weight="300"
    font-style="italic"
    font-stretch="normal"
    units-per-em="1000"
    panose-1="0 0 0 0 0 0 0 0 0 0"
    ascent="800"
    descent="-200"
    x-height="484"
    cap-height="700"
    bbox="-95 -212 1140.57 939"
    underline-thickness="50"
    underline-position="-125"
    unicode-range="U+000D-FB04"
  />
<missing-glyph horiz-adv-x="250" 
 />
    <glyph glyph-name="f_f" unicode="ff" horiz-adv-x="608" 
d="M546 484h113l-9 -55h-113l-88 -496q-11 -66 -57 -104t-116 -38q-41 0 -82 17l13 75q18 -20 35 -28.5t37 -8.5t34.5 7.5t24.5 18.5t15.5 25t8.5 28l89 504h-203l-88 -496q-11 -66 -57 -104t-116 -38q-41 0 -82 17l13 75q18 -20 35 -28.5t37 -8.5t34.5 7.5t24.5 18.5
t15.5 25t8.5 28l89 504h-55l9 55h56l18 103q11 66 57 104t116 38q41 0 82 -17l-14 -75q-17 20 -34 28.5t-37 8.5t-35 -7.5t-24.5 -18.5t-15.5 -25t-8 -28l-20 -111h204l18 103q11 66 57 104t116 38q41 0 82 -17l-14 -75q-17 20 -34 28.5t-37 8.5t-35 -7.5t-24.5 -18.5
t-15.5 -25t-8 -28z" />
    <glyph glyph-name="fi" unicode="fi" horiz-adv-x="531" 
d="M257 484h113l-9 -55h-113l-88 -496q-11 -66 -57 -104t-116 -38q-41 0 -82 17l13 75q18 -20 35 -28.5t37 -8.5t34.5 7.5t24.5 18.5t15.5 25t8.5 28l89 504h-55l9 55h56l18 103q11 66 51 104t100 38q18 0 35 -4t39 -13l-14 -75q-17 20 -30.5 28.5t-28.5 8.5t-26 -7.5
t-19 -18.5t-13 -25t-7 -28zM452 392q4 20 -1.5 33.5t-17.5 28.5l127 30q-5 -9 -7.5 -16.5t-4.5 -19.5l-61 -347q-3 -17 5.5 -31t25.5 -36l-82 -45q-22 30 -32 51t-5 52zM474 613q5 23 24.5 39.5t45.5 16.5q24 0 38.5 -16.5t9.5 -39.5q-4 -23 -24 -39.5t-44 -16.5
q-26 0 -40 16.5t-10 39.5z" />
    <glyph glyph-name="fl" unicode="fl" horiz-adv-x="531" 
d="M257 484h113l-9 -55h-113l-88 -496q-11 -66 -57 -104t-116 -38q-41 0 -82 17l13 75q18 -20 35 -28.5t37 -8.5t34.5 7.5t24.5 18.5t15.5 25t8.5 28l89 504h-55l9 55h56l18 103q11 66 51 104t100 38q18 0 35 -4t39 -13l-14 -75q-17 20 -30.5 28.5t-28.5 8.5t-26 -7.5
t-19 -18.5t-13 -25t-7 -28zM494 627q3 20 -2.5 33.5t-17.5 28.5l128 30q-5 -9 -8 -16.5t-5 -19.5l-102 -582q-3 -17 5.5 -31t25.5 -36l-82 -45q-22 30 -32 51t-5 52z" />
    <glyph glyph-name="f_f_i" unicode="ffi" horiz-adv-x="819" 
d="M545 484h113l-9 -55h-113l-88 -496q-11 -66 -57 -104t-116 -38q-41 0 -82 17l13 75q18 -20 35 -28.5t37 -8.5t34.5 7.5t24.5 18.5t15.5 25t8.5 28l89 504h-202l-88 -496q-11 -66 -57 -104t-116 -38q-41 0 -82 17l13 75q18 -20 35 -28.5t37 -8.5t34.5 7.5t24.5 18.5
t15.5 25t8.5 28l89 504h-55l9 55h56l18 103q11 66 57 104t116 38q41 0 82 -17l-14 -75q-17 20 -34 28.5t-37 8.5t-35 -7.5t-24.5 -18.5t-15.5 -25t-8 -28l-20 -111h203l18 103q11 66 51 104t100 38q18 0 35 -4t39 -13l-14 -75q-17 20 -30.5 28.5t-28.5 8.5t-26 -7.5
t-19 -18.5t-13 -25t-7 -28zM740 392q4 20 -1.5 33.5t-17.5 28.5l127 30q-5 -9 -7.5 -16.5t-4.5 -19.5l-61 -347q-3 -17 5.5 -31t25.5 -36l-82 -45q-22 30 -32 51t-5 52zM762 613q5 23 24.5 39.5t45.5 16.5q24 0 38.5 -16.5t9.5 -39.5q-4 -23 -24 -39.5t-44 -16.5
q-26 0 -40 16.5t-10 39.5z" />
    <glyph glyph-name="f_f_l" unicode="ffl" horiz-adv-x="820" 
d="M116 484h56l18 103q11 66 57 104t116 38q41 0 82 -17l-14 -75q-17 20 -34 28.5t-37 8.5t-35 -7.5t-24.5 -18.5t-15.5 -25t-8 -28l-20 -111h204l18 103q11 66 51 104t100 38q18 0 35 -4t39 -13l-14 -75q-17 20 -30.5 28.5t-28.5 8.5t-26 -7.5t-19 -18.5t-13 -25t-7 -28
l-20 -111h113l-9 -55h-113l-88 -496q-11 -66 -57 -104t-116 -38q-41 0 -82 17l13 75q18 -20 35 -28.5t37 -8.5t34.5 7.5t24.5 18.5t15.5 25t8.5 28l89 504h-203l-88 -496q-11 -66 -57 -104t-116 -38q-41 0 -82 17l13 75q18 -20 35 -28.5t37 -8.5t34.5 7.5t24.5 18.5t15.5 25
t8.5 28l89 504h-55zM783 627q3 20 -2.5 33.5t-17.5 28.5l128 30q-5 -9 -8 -16.5t-5 -19.5l-102 -582q-3 -17 5.5 -31t25.5 -36l-82 -45q-22 30 -32 51t-5 52z" />
    <glyph glyph-name=".notdef" horiz-adv-x="250" 
 />
    <glyph glyph-name=".null" horiz-adv-x="0" 
 />
    <glyph glyph-name=".null" horiz-adv-x="0" 
 />
    <glyph glyph-name="uni000D" unicode="&#xd;" horiz-adv-x="250" 
 />
    <glyph glyph-name="space" unicode=" " horiz-adv-x="188" 
 />
    <glyph glyph-name="exclam" unicode="!" horiz-adv-x="218" 
d="M173 625q4 26 0.5 42t-13.5 33h125q-5 -11 -8 -22t-5 -22l-99 -468h-62zM58 46q4 23 24 39t45 16q24 0 38.5 -16t10.5 -39q-5 -24 -25 -40.5t-44 -16.5q-25 0 -39.5 16.5t-9.5 40.5z" />
    <glyph glyph-name="quotedbl" unicode="&#x22;" horiz-adv-x="349" 
d="M181 700h77l-45 -212h-61zM338 700h77l-45 -212h-61z" />
    <glyph glyph-name="numbersign" unicode="#" horiz-adv-x="637" 
d="M177 461h130l109 238h44l-109 -238h162l109 238h44l-110 -238h109l-8 -51h-124l-55 -120h117l-9 -50h-131l-109 -239h-44l109 239h-162l-109 -239h-43l109 239h-109l9 50h123l55 120h-116zM434 290l56 120h-162l-56 -120h162z" />
    <glyph glyph-name="dollar" unicode="$" horiz-adv-x="509" 
d="M432 809l-16 -91q32 -2 64.5 -9.5t64.5 -18.5l-25 -101q-22 26 -51.5 42.5t-64.5 21.5l-44 -248q30 -17 58.5 -37t49 -45.5t30.5 -59t2 -78.5q-6 -37 -23.5 -70t-44.5 -59.5t-63.5 -45t-82.5 -25.5l-17 -94h-67l16 90q-49 2 -91 13.5t-75 31.5l13 106q35 -36 76 -58.5
t89 -27.5l50 282q-30 17 -59 35.5t-50 41.5t-31.5 53.5t-3.5 71.5q6 35 24 66.5t45.5 56t63.5 41t79 22.5l17 93h67zM404 159q8 47 -11.5 77.5t-52.5 54.5l-43 -241q45 10 72 38t35 71zM233 555q-7 -38 13 -64.5t54 -48.5l37 209q-43 -8 -70.5 -34t-33.5 -62z" />
    <glyph glyph-name="percent" unicode="%" horiz-adv-x="800" 
d="M136 524q8 42 24.5 79.5t39.5 65.5t52.5 44t62.5 16q34 0 57.5 -16t37 -44t17 -65.5t-4.5 -79.5q-7 -42 -23.5 -79.5t-40 -65.5t-53 -44t-63.5 -16q-33 0 -56.5 16t-37 44t-16.5 65.5t4 79.5zM199 524q-6 -35 -5.5 -66t6.5 -54t18.5 -36t30.5 -13q19 0 36 13t31.5 36
t25.5 54t17 66t6 66t-6.5 54t-19 36.5t-31.5 13.5q-18 0 -35 -13.5t-31 -36.5t-25.5 -54t-17.5 -66zM791 195q-7 -42 -24 -79.5t-40 -65.5t-52.5 -44t-62.5 -16t-57 16t-38 44t-17 65.5t4 79.5q8 42 24.5 79.5t40 65.5t53.5 44t63 16t56.5 -16t37 -44t17 -65.5t-4.5 -79.5z
M727 195q6 35 6 66t-6 54t-18.5 36t-30.5 13q-19 0 -36 -13t-31.5 -36t-25.5 -54t-17 -66t-6 -66t6 -54t18.5 -36.5t31.5 -13.5q18 0 35.5 13.5t31.5 36.5t25 54t17 66zM190 0l499 719h48l-499 -719h-48z" />
    <glyph glyph-name="ampersand" unicode="&#x26;" horiz-adv-x="758" 
d="M583 0l-76 93q-21 -21 -48.5 -39t-59 -31.5t-65.5 -21t-68 -7.5q-40 0 -80 11.5t-70 35.5t-45.5 61t-6.5 88q7 39 26 71.5t45 59t57.5 48t63.5 38.5q-16 19 -29.5 37.5t-23 38.5t-13 42.5t1.5 49.5q8 42 30 69.5t50 44t58 23t53 6.5q27 0 53 -8t45 -24t28.5 -41t3.5 -60
q-5 -27 -18 -50t-32.5 -43t-44.5 -38.5t-54 -37.5l165 -205q26 40 43.5 81t22.5 68q2 12 2 29.5t-6 26.5h93q-6 -32 -18 -65.5t-28 -66t-33.5 -61.5t-34.5 -53q12 -16 30.5 -39.5t41 -47.5t49.5 -46.5t56 -36.5h-164zM281 586q-3 -20 0.5 -38t11 -34.5t18.5 -30.5t22 -27
q14 6 30.5 17t31.5 27.5t27 36.5t16 44q6 33 -8.5 58.5t-56.5 25.5q-38 0 -62 -22.5t-30 -56.5zM159 199q-6 -34 2.5 -61.5t27.5 -46.5t47 -29.5t61 -10.5q45 0 90 20t84 62l-183 231q-30 -14 -52.5 -34t-38 -42.5t-25 -45.5t-13.5 -43z" />
    <glyph glyph-name="quotesingle" unicode="'" horiz-adv-x="192" 
d="M181 700h77l-45 -212h-61z" />
    <glyph glyph-name="parenleft" unicode="(" horiz-adv-x="291" 
d="M181 244q-11 -62 -13 -124.5t4 -121.5t20.5 -111.5t36.5 -94.5h-39q-72 103 -93 214t2 238q22 125 82 235.5t169 218.5h39q-38 -43 -71 -96.5t-60 -112.5t-46.5 -121t-30.5 -124z" />
    <glyph glyph-name="parenright" unicode=")" horiz-adv-x="291" 
d="M196 244q11 62 13.5 124.5t-3.5 121.5t-20.5 112.5t-37.5 97.5h41q71 -108 92 -219t-2 -238q-23 -126 -82.5 -237t-167.5 -215h-41q38 42 71 95t60 111.5t46.5 121.5t30.5 125z" />
    <glyph glyph-name="asterisk" unicode="*" horiz-adv-x="384" 
d="M148 525l125 35l-113 36l37 53l89 -77l-1 128h59l-45 -128l116 77l18 -53l-124 -36l111 -35l-36 -54l-89 78v-127h-59l46 127l-117 -78z" />
    <glyph glyph-name="plus" unicode="+" horiz-adv-x="467" 
d="M111 372h170l30 171h37l-30 -171h169l-8 -44h-168l-31 -172h-37l30 172h-169z" />
    <glyph glyph-name="comma" unicode="," horiz-adv-x="221" 
d="M58 43q5 25 25.5 41.5t45.5 16.5q24 0 37.5 -18t7.5 -53q-4 -24 -16.5 -49t-30.5 -47.5t-40 -41.5t-44 -32h-39q29 24 57 56t36 66q-20 6 -31.5 22.5t-7.5 38.5z" />
    <glyph glyph-name="hyphen" unicode="-" horiz-adv-x="303" 
d="M99 300h212l-8 -44h-212z" />
    <glyph glyph-name="period" unicode="." horiz-adv-x="221" 
d="M59 46q4 23 24.5 39t45.5 16q24 0 38 -16t10 -39q-5 -24 -24.5 -40.5t-43.5 -16.5q-25 0 -40 16.5t-10 40.5z" />
    <glyph glyph-name="slash" unicode="/" horiz-adv-x="340" 
d="M462 698l-462 -906h-35l461 906h36z" />
    <glyph glyph-name="zero" unicode="0" horiz-adv-x="598" 
d="M106 351q14 76 43 143t70.5 117t94 79t111.5 29q60 0 102 -29t66.5 -79t30.5 -117t-8 -143q-13 -76 -42.5 -143.5t-71.5 -118t-94.5 -79.5t-112.5 -29q-59 0 -101 29t-66 79.5t-29.5 118t7.5 143.5zM203 351q-11 -63 -9 -117.5t15.5 -95t38.5 -64t59 -23.5q35 0 68 23.5
t61.5 64t50 95t32.5 117.5t8.5 117.5t-16.5 95t-38.5 63.5t-59.5 23q-34 0 -67.5 -23t-61.5 -63.5t-49 -95t-32 -117.5z" />
    <glyph glyph-name="one" unicode="1" horiz-adv-x="316" 
d="M253 75q-5 -25 1.5 -41t20.5 -34h-164q20 18 31.5 34t16.5 41l94 531q-71 -66 -129 -72l13 71q35 8 74 32.5t81 62.5h80q-8 -17 -12.5 -32.5t-8.5 -38.5z" />
    <glyph glyph-name="two" unicode="2" horiz-adv-x="542" 
d="M207 206q50 52 93 93.5t76.5 79t56 75t29.5 80.5q10 57 -13.5 86.5t-82.5 29.5q-45 0 -88.5 -16t-85.5 -45l17 100q46 14 85.5 22t80.5 8q101 0 152 -47t37 -130q-9 -51 -39 -98.5t-70.5 -92t-86.5 -87t-86 -83.5l-109 -110h205q48 0 73 9.5t41 26.5l-19 -107h-430l8 43z
" />
    <glyph glyph-name="three" unicode="3" horiz-adv-x="537" 
d="M209 353l11 59h69q33 0 62 9t51 25t36.5 37t18.5 46q5 25 0.5 47t-16.5 38.5t-31 26t-43 9.5q-49 0 -95.5 -16t-92.5 -45l17 100q47 14 88.5 22t84.5 8q51 0 90 -14t63.5 -38t34.5 -56.5t3 -70.5q-9 -52 -49 -94.5t-102 -64.5q69 -23 99.5 -75t19.5 -117q-7 -43 -31 -81
t-60.5 -66t-85 -44.5t-105.5 -16.5q-58 0 -105.5 13.5t-88.5 35.5l16 112q44 -44 89 -69t105 -25q30 0 58 12t50 33t37 49.5t21 60.5q5 31 -2.5 58.5t-26.5 47.5t-48.5 32t-67.5 12h-74z" />
    <glyph glyph-name="four" unicode="4" horiz-adv-x="563" 
d="M567 700q-8 -21 -12.5 -39t-9.5 -45l-63 -353h7q31 0 52 3.5t46 11.5l-31 -77h-85l-20 -115q-5 -29 0.5 -47t19.5 -39h-164q21 21 33 39t17 47l20 115h-312l6 30l366 469h130zM388 263l65 367l-282 -367h217z" />
    <glyph glyph-name="five" unicode="5" horiz-adv-x="549" 
d="M249 52q40 0 73 14t58.5 38t42 56.5t23.5 69.5q11 65 -19 107t-100 42q-41 0 -83 -15t-73 -43l-37 13l68 281q8 27 10 45.5t4 39.5h359l-16 -95q-26 13 -45.5 19.5t-47.5 6.5h-190l-53 -213q29 14 61 20.5t63 6.5q54 0 94 -17t65 -47t34.5 -70t1.5 -86
q-9 -50 -34.5 -94.5t-64.5 -77.5t-91 -52.5t-114 -19.5q-54 0 -100 13.5t-87 35.5l16 112q42 -42 85.5 -66t96.5 -24z" />
    <glyph glyph-name="six" unicode="6" horiz-adv-x="591" 
d="M465 650q-49 0 -90.5 -21.5t-74.5 -59.5t-56.5 -90t-36.5 -112q46 39 93.5 60.5t92.5 21.5q54 0 94 -18.5t64.5 -50t33 -74t-0.5 -91.5q-9 -48 -33 -90.5t-61.5 -74.5t-86.5 -50.5t-106 -18.5q-59 0 -101.5 29t-66.5 79t-29.5 117t7.5 142q14 77 45 145t78 118t109 79
t138 29q35 0 72.5 -6.5t66.5 -17.5l-19 -103q-20 27 -55 42.5t-77 15.5zM377 379q-47 0 -93.5 -23t-87.5 -65q-4 -51 2 -95t21 -76.5t39 -50.5t56 -18q34 0 62.5 12.5t51 35t37.5 53t21 65.5q6 34 2 63.5t-18 51.5t-37.5 34.5t-55.5 12.5z" />
    <glyph glyph-name="seven" unicode="7" horiz-adv-x="532" 
d="M96 0l405 602h-274q-26 0 -44 -9.5t-41 -26.5l23 134h448l-5 -32l-407 -668h-105z" />
    <glyph glyph-name="eight" unicode="8" horiz-adv-x="562" 
d="M77 188q11 66 59 118t123 75q-53 21 -76 64t-13 97q6 37 26.5 69t52 56t73.5 38t92 14t87 -14t60 -38t32 -56t3 -69q-10 -54 -48.5 -97t-98.5 -64q66 -23 95.5 -75t18.5 -118q-7 -43 -30.5 -80.5t-60 -65.5t-84.5 -44.5t-104 -16.5q-57 0 -99 16.5t-68.5 44.5t-36.5 65.5
t-3 80.5zM176 200q-5 -31 0.5 -58t21.5 -47t40.5 -32t56.5 -12q33 0 62 12t52 32t38.5 47t20.5 58q6 30 0 57t-22 47t-41 31.5t-58 11.5q-32 0 -61 -11.5t-51.5 -31.5t-37.5 -47t-21 -57zM263 532q-9 -51 17 -85t79 -34q54 0 92.5 34t47.5 85q8 50 -18.5 83.5t-80.5 33.5
q-26 0 -49.5 -9t-41.5 -24.5t-30 -37t-16 -46.5z" />
    <glyph glyph-name="nine" unicode="9" horiz-adv-x="591" 
d="M258 50q47 0 87.5 21.5t72 60t54.5 90t35 111.5q-45 -39 -93 -60.5t-93 -21.5q-54 0 -93.5 18.5t-64 50t-33 74t0.5 91.5q8 48 32.5 90.5t62 74.5t86.5 50.5t106 18.5q60 0 102 -29t66 -79t30 -117t-8 -143q-13 -77 -44 -144.5t-77 -117.5t-107.5 -79t-136.5 -29
q-44 0 -83 9t-75 23l21 109q36 -34 72 -53t80 -19zM338 321q48 0 94 23t86 65q4 52 -2 96t-21.5 76t-39 50t-55.5 18q-34 0 -62.5 -12.5t-51 -35t-37.5 -53t-21 -65.5q-6 -34 -1.5 -63.5t18.5 -51.5t37.5 -34.5t55.5 -12.5z" />
    <glyph glyph-name="colon" unicode=":" horiz-adv-x="221" 
d="M59 46q4 23 24.5 39t45.5 16q24 0 38 -16t10 -39q-5 -24 -24.5 -40.5t-43.5 -16.5q-25 0 -40 16.5t-10 40.5zM126 426q5 23 25 39.5t45 16.5q24 0 38.5 -16.5t9.5 -39.5q-5 -24 -24.5 -40t-43.5 -16q-25 0 -40 16t-10 40z" />
    <glyph glyph-name="semicolon" unicode=";" horiz-adv-x="221" 
d="M126 426q5 23 25 39.5t45 16.5q24 0 38.5 -16.5t9.5 -39.5q-5 -24 -24.5 -40t-43.5 -16q-25 0 -40 16t-10 40zM58 43q5 25 25.5 41.5t45.5 16.5q24 0 37.5 -18t7.5 -53q-4 -24 -16.5 -49t-30.5 -47.5t-40 -41.5t-44 -32h-39q29 24 57 56t36 66q-20 6 -31.5 22.5
t-7.5 38.5z" />
    <glyph glyph-name="less" unicode="&#x3c;" horiz-adv-x="469" 
d="M111 379l402 133l-7 -45l-359 -117l317 -117l-8 -45l-355 133z" />
    <glyph glyph-name="equal" unicode="=" horiz-adv-x="469" 
d="M125 456h379l-9 -49h-379zM96 293h379l-9 -49h-379z" />
    <glyph glyph-name="greater" unicode="&#x3e;" horiz-adv-x="469" 
d="M77 188l8 45l359 117l-317 117l8 45l355 -133l-10 -58z" />
    <glyph glyph-name="question" unicode="?" horiz-adv-x="380" 
d="M98 188q-2 21 -2 39.5t1 34.5q2 44 17.5 76t37.5 57t47.5 45t48.5 39.5t40 41.5t22 50q6 37 -14 58.5t-62 21.5q-38 0 -82.5 -17.5t-87.5 -49.5l18 102q46 16 85 24.5t74 8.5q42 0 75 -12.5t54.5 -33.5t31 -49t3.5 -60q-5 -32 -23.5 -58t-42.5 -48.5t-51.5 -43t-52 -42
t-42.5 -46.5t-23 -55q-3 -17 -5 -38t-4 -45h-63zM44 46q4 23 24.5 39t45.5 16q24 0 38.5 -16t10.5 -39q-5 -24 -25 -40.5t-44 -16.5q-25 0 -40 16.5t-10 40.5z" />
    <glyph glyph-name="at" unicode="@" horiz-adv-x="792" 
d="M610 105q27 0 48 12t36.5 33t26 49.5t16.5 60.5q11 65 -0.5 120t-43 96t-82 64t-117.5 23q-64 0 -122.5 -23.5t-105 -65.5t-78.5 -101.5t-45 -131.5q-12 -71 0.5 -130.5t46.5 -102.5t88 -66.5t125 -23.5q54 0 109 17t91 48l-14 -77q-38 -21 -89.5 -32.5t-105.5 -11.5
q-84 0 -149.5 28t-107.5 78.5t-58 120t-1 152.5q15 84 54 153t95.5 118.5t127.5 76.5t149 27q80 0 141.5 -27t101 -75t54.5 -113.5t1 -142.5q-10 -57 -29.5 -96t-46 -64t-58 -36t-65.5 -11q-92 0 -110 60q-17 -28 -47.5 -44t-72.5 -16q-30 0 -52 9t-36 25t-19 36.5t-1 43.5
q5 29 23 54.5t48.5 45t73.5 30.5t97 11l3 14q3 14 2.5 28.5t-7 26.5t-20.5 19.5t-39 7.5q-19 0 -49 -6.5t-63 -32.5l11 61q35 16 67.5 21.5t58.5 5.5q67 0 96.5 -33t20.5 -86l-29 -160q-10 -67 51 -67zM403 106q42 0 59.5 20t22.5 52l15 87q-66 -5 -108 -28t-50 -62
q-2 -11 -0.5 -23t8 -22.5t19.5 -17t34 -6.5z" />
    <glyph glyph-name="A" unicode="A" 
d="M176 82q-12 -25 -8.5 -46.5t18.5 -35.5h-166q24 14 41 30.5t32 45.5l280 544q8 17 8.5 40.5t-18.5 39.5h155l102 -621q5 -26 16.5 -42.5t31.5 -36.5h-184q23 15 32.5 33.5t4.5 47.5l-22 152h-247zM490 298l-47 320l-159 -320h206z" />
    <glyph glyph-name="B" unicode="B" horiz-adv-x="547" 
d="M189 647q3 17 -4.5 28t-22.5 25h231q53 0 89 -13t57 -35t27.5 -51.5t0.5 -63.5q-9 -51 -48 -94t-109 -60q43 -9 72 -28t45.5 -44.5t21.5 -56.5t-1 -64q-7 -40 -26.5 -75t-51.5 -60.5t-76.5 -40t-101.5 -14.5h-253q20 17 32 31t15 33zM180 64h98q40 0 70 10.5t51.5 29
t34.5 43.5t18 53q5 29 0 54.5t-22.5 44.5t-48 30t-75.5 11h-77zM316 408q74 0 112.5 33t46.5 80q4 23 0.5 44t-16 37t-35.5 25.5t-57 9.5h-86l-40 -229h75z" />
    <glyph glyph-name="C" unicode="C" horiz-adv-x="592" 
d="M580 23q-45 -20 -98 -31t-105 -11q-84 0 -144 29t-95 79.5t-46 118t2 143.5q14 76 48.5 143t87.5 117t122.5 79t152.5 29q54 0 103 -12t89 -32l-36 -107q-23 40 -63.5 63.5t-99.5 23.5q-58 0 -108.5 -23.5t-91 -65t-68 -97t-38.5 -118.5t-3 -118.5t34 -97t70.5 -65
t105.5 -23.5t116.5 23t93.5 61z" />
    <glyph glyph-name="D" unicode="D" horiz-adv-x="642" 
d="M269 61q68 0 120 22.5t89.5 61.5t61 92t34.5 114q11 60 6.5 113t-26.5 92t-64 61.5t-108 22.5h-100l-102 -579h89zM40 0q20 17 31.5 32.5t16.5 38.5l98 558q4 23 -3 38.5t-21 32.5h232q87 0 146 -27.5t92.5 -75t43 -111.5t-3.5 -136t-44.5 -135.5t-81.5 -111.5
t-119 -75.5t-156 -27.5h-231z" />
    <glyph glyph-name="E" unicode="E" horiz-adv-x="473" 
d="M179 59h173q38 0 66 9.5t60 26.5l-33 -95h-405q20 17 31.5 32t16.5 39l98 558q4 23 -3 38.5t-21 32.5h392l-16 -95q-13 17 -25 26.5t-33 9.5h-198l-45 -253h156q26 0 44 5t41 24l-21 -114q-17 14 -32 22t-41 8h-156z" />
    <glyph glyph-name="F" unicode="F" horiz-adv-x="467" 
d="M40 0q20 17 31.5 32.5t16.5 38.5l98 558q4 23 -3 38.5t-21 32.5h392l-16 -95q-13 17 -25 26.5t-33 9.5h-198l-45 -253h146q26 0 44 5t41 24l-21 -115q-16 19 -31.5 24.5t-41.5 5.5h-146l-46 -261q-5 -23 1.5 -38.5t20.5 -32.5h-164z" />
    <glyph glyph-name="G" unicode="G" horiz-adv-x="668" 
d="M611 40q-62 -28 -116 -43.5t-115 -15.5q-85 0 -145.5 29t-96 79.5t-46.5 118t2 143.5q14 76 48.5 143t88 117t123.5 79t155 29q54 0 104 -12t90 -32l-36 -107q-23 40 -63.5 63.5t-100.5 23.5q-59 0 -110.5 -23.5t-92.5 -65t-69 -97t-39 -118.5t-3 -118.5t34 -97t71 -65
t107 -23.5q63 0 121 23l41 231q5 23 -2 38.5t-21 32.5h166q-20 -17 -32 -32.5t-17 -38.5z" />
    <glyph glyph-name="H" unicode="H" horiz-adv-x="635" 
d="M182 71q-5 -23 1.5 -38.5t20.5 -32.5h-164q20 17 31.5 32.5t16.5 38.5l98 558q4 23 -3 38.5t-21 32.5h166q-20 -17 -32 -32.5t-16 -38.5l-40 -229h302l40 229q4 23 -3 38.5t-21 32.5h165q-20 -17 -32 -32.5t-16 -38.5l-98 -558q-5 -23 1.5 -38.5t20.5 -32.5h-163
q20 17 31.5 32.5t16.5 38.5l48 272h-302z" />
    <glyph glyph-name="I" unicode="I" horiz-adv-x="243" 
d="M182 71q-5 -23 1.5 -38.5t20.5 -32.5h-164q20 17 31.5 32.5t16.5 38.5l98 558q4 23 -3 38.5t-21 32.5h166q-20 -17 -32 -32.5t-16 -38.5z" />
    <glyph glyph-name="J" unicode="J" horiz-adv-x="265" 
d="M207 625q5 25 -2 41t-21 34h166q-20 -18 -32 -34t-17 -41l-94 -533q-12 -67 -37.5 -115t-57.5 -79t-68 -45.5t-69 -14.5q-23 0 -34.5 12.5t-16.5 37.5q81 0 125.5 49.5t61.5 142.5z" />
    <glyph glyph-name="K" unicode="K" horiz-adv-x="582" 
d="M182 71q-5 -23 1.5 -38.5t20.5 -32.5h-164q20 17 31.5 32.5t16.5 38.5l98 558q4 23 -3 38.5t-21 32.5h166q-20 -17 -32 -32.5t-16 -38.5l-42 -237l227 222q28 27 45.5 48t15.5 38h144q-42 -22 -71.5 -46t-53.5 -47l-192 -184l154 -338q10 -22 27.5 -43.5t43.5 -41.5h-172
q11 20 8.5 38.5t-10.5 38.5l-119 281l-64 -61z" />
    <glyph glyph-name="L" unicode="L" horiz-adv-x="472" 
d="M352 59q38 0 66 9.5t60 26.5l-33 -95h-405q20 17 31.5 32t16.5 39l98 558q4 23 -3.5 38.5t-21.5 32.5h167q-20 -17 -32 -32.5t-16 -38.5l-101 -570h173z" />
    <glyph glyph-name="M" unicode="M" horiz-adv-x="806" 
d="M163 80q-5 -26 1 -43.5t21 -36.5h-145q21 18 33 34t17 41l97 550q5 24 -2.5 40.5t-22.5 34.5h125l125 -431q9 -31 17 -64t16 -65q18 29 35.5 60t35.5 62l261 438h113q-20 -18 -32 -34.5t-17 -40.5l-97 -550q-5 -25 1.5 -41t20.5 -34h-164q21 20 32.5 37t16.5 44l75 421
q-30 -51 -60.5 -104.5t-63.5 -110.5l-169 -287h-51l-94 337q-13 45 -24.5 90.5t-23.5 87.5z" />
    <glyph glyph-name="N" unicode="N" horiz-adv-x="663" 
d="M40 0q21 17 32.5 32.5t16.5 38.5l98 558q4 23 -3 38.5t-22 32.5h117l208 -376q17 -29 32 -58.5t31 -59.5l75 423q4 23 -3 38.5t-21 32.5h147q-21 -17 -32.5 -32.5t-15.5 -38.5l-111 -629h-33l-231 398q-20 37 -39 74t-39 75l-83 -476q-5 -23 2 -38.5t21 -32.5h-147z" />
    <glyph glyph-name="O" unicode="O" horiz-adv-x="738" 
d="M94 351q14 76 49 143t87 117t119.5 79t145.5 29q79 0 136.5 -29t92.5 -79t46.5 -117t-2.5 -143q-13 -76 -48.5 -143.5t-88 -118t-120 -79.5t-146.5 -29q-78 0 -135 29t-92 79.5t-46 118t2 143.5zM192 351q-11 -64 -4 -119.5t31 -96.5t64 -64.5t94 -23.5t102 23.5t87 64.5
t66 96.5t38 119.5q11 63 3.5 118.5t-31.5 97t-64 65t-94 23.5t-102 -23.5t-86.5 -65t-65.5 -97t-38 -118.5z" />
    <glyph glyph-name="P" unicode="P" horiz-adv-x="521" 
d="M186 629q4 23 -3 38.5t-21 32.5h212q63 0 106 -16t68 -43.5t33.5 -64.5t0.5 -80q-8 -46 -32.5 -86.5t-66.5 -71.5t-102 -49t-139 -18h-25l-35 -200q-5 -23 1.5 -38.5t20.5 -32.5h-164q20 17 31.5 32.5t16.5 38.5zM249 335q56 0 97.5 12.5t70.5 34.5t46 51.5t23 63.5
q5 30 0.5 55.5t-20.5 44t-45 29.5t-72 11h-68l-53 -302h21z" />
    <glyph glyph-name="Q" unicode="Q" horiz-adv-x="739" 
d="M94 351q14 76 49 143t87 117t119.5 79t145.5 29q79 0 136.5 -29t92.5 -79t46.5 -117t-2.5 -143q-12 -65 -39 -123.5t-67.5 -106t-92.5 -81t-113 -48.5q37 -60 88 -87t113 -27q22 0 44 3q-12 -30 -38 -43.5t-61 -13.5q-33 0 -69.5 11.5t-71 32t-65 49.5t-51.5 65
q-73 4 -126 34.5t-85.5 80t-42.5 115t3 139.5zM192 351q-11 -64 -4 -119.5t31 -96.5t64 -64.5t94 -23.5t102 23.5t87 64.5t66 96.5t38 119.5q11 63 3.5 118.5t-31.5 97t-64 65t-94 23.5t-102 -23.5t-86.5 -65t-65.5 -97t-38 -118.5z" />
    <glyph glyph-name="R" unicode="R" horiz-adv-x="587" 
d="M186 629q4 23 -3 38.5t-21 32.5h220q56 0 95 -15t61.5 -41t29.5 -61t0 -75q-11 -59 -48 -107t-104 -75l90 -247q16 -44 62 -79h-161q13 20 11.5 37t-6.5 36l-82 232q-14 -2 -29 -3t-32 -1h-47l-42 -236q-4 -23 3 -36t21 -29h-164q20 17 31.5 32.5t16.5 38.5zM274 365
q45 0 79.5 11.5t59 31.5t39 47t20.5 58q5 27 1.5 49.5t-16 39t-35 26t-57.5 9.5h-84l-48 -272h41z" />
    <glyph glyph-name="S" unicode="S" horiz-adv-x="515" 
d="M65 132q39 -41 85.5 -64t101.5 -23q63 0 103 31t50 86q8 48 -11 79.5t-52 54.5t-73 43t-72.5 45t-51 59.5t-9.5 86.5q7 40 28.5 74.5t55 60t77.5 40t96 14.5q38 0 76 -7.5t76 -21.5l-25 -101q-26 31 -63 48.5t-82 17.5q-59 0 -97 -28.5t-46 -74.5q-7 -40 13 -67t53 -48.5
t72.5 -42t71.5 -48t50 -65.5t8 -96q-7 -42 -28.5 -79.5t-56 -65t-81 -43.5t-105.5 -16q-52 0 -97 12.5t-80 32.5z" />
    <glyph glyph-name="T" unicode="T" horiz-adv-x="585" 
d="M211 0q20 17 31.5 32t15.5 38l101 570h-150q-21 0 -36 -9.5t-34 -26.5l16 96h521l-16 -96q-13 17 -25 26.5t-33 9.5h-150l-101 -570q-4 -24 2.5 -38t20.5 -32h-163z" />
    <glyph glyph-name="U" unicode="U" horiz-adv-x="645" 
d="M193 227q-5 -28 -4 -57.5t13 -53.5t39 -39.5t73 -15.5q42 0 87.5 15t99.5 50l89 503q4 23 -3 38.5t-21 32.5h166q-20 -17 -32 -32.5t-16 -38.5l-98 -558q-5 -23 1.5 -38.5t20.5 -32.5h-124q2 18 3.5 33.5t4.5 33.5q-54 -42 -104.5 -60t-105.5 -18q-61 0 -100 19.5
t-60 52.5t-26 77t4 93l70 398q4 23 -3 38.5t-21 32.5h166q-20 -17 -32 -32.5t-16 -38.5z" />
    <glyph glyph-name="V" unicode="V" 
d="M359 262q8 -36 13 -71.5t11 -70.5q17 35 34.5 70.5t34.5 71.5l184 357q14 24 10.5 45.5t-17.5 35.5h162q-23 -14 -39 -30.5t-31 -45.5l-323 -624h-78l-132 621q-5 26 -15 42.5t-30 36.5h178q-19 -15 -30 -33.5t-5 -47.5z" />
    <glyph glyph-name="W" unicode="W" horiz-adv-x="954" 
d="M320 285q5 -37 8 -73t7 -73q16 37 31 73t31 73l182 415h58l49 -415q5 -37 8 -73t6 -74q17 38 32 74t31 73l149 338q20 47 -12 77h157q-20 -14 -33.5 -30.5t-27.5 -45.5l-293 -624h-64l-52 433q-4 24 -6.5 48.5t-5.5 49.5q-11 -25 -22.5 -49t-22.5 -49l-189 -433h-68
l-94 621q-3 26 -11 42.5t-25 36.5h168q-16 -14 -25.5 -31.5t-5.5 -45.5z" />
    <glyph glyph-name="X" unicode="X" horiz-adv-x="656" 
d="M408 441l173 205q23 27 20 54h147q-20 -8 -34.5 -17t-28.5 -25l-246 -289l154 -323q7 -16 16.5 -25t29.5 -21h-173q8 9 11.5 24t-3.5 30l-102 227l-190 -227q-24 -27 -21 -54h-144q20 6 32 14t23 22l269 317l-144 300q-8 16 -18.5 26t-31.5 21h175q-8 -9 -10.5 -24
t4.5 -30z" />
    <glyph glyph-name="Y" unicode="Y" horiz-adv-x="622" 
d="M352 432q8 -25 14.5 -47t14.5 -50q17 27 33.5 51.5t29.5 45.5l131 199q11 17 15.5 35t-2.5 34h145q-22 -12 -36.5 -26t-31.5 -37l-260 -372l-34 -190q-5 -25 1.5 -41t20.5 -34h-164q20 18 31.5 34t16.5 41l31 175l-126 380q-8 23 -17.5 38t-29.5 32h162
q-13 -10 -17 -30.5t4 -39.5z" />
    <glyph glyph-name="Z" unicode="Z" horiz-adv-x="540" 
d="M40 43l466 597h-287q-21 0 -36 -9.5t-34 -26.5l16 96h470l-7 -43l-466 -596h290q21 0 36 9.5t34 26.5l-17 -97h-473z" />
    <glyph glyph-name="bracketleft" unicode="[" horiz-adv-x="319" 
d="M199 700h214l-9 -50h-118l-143 -809h118l-9 -50h-213z" />
    <glyph glyph-name="backslash" unicode="\" horiz-adv-x="340" 
d="M303 -209h-38l-142 909h38z" />
    <glyph glyph-name="bracketright" unicode="]" horiz-adv-x="319" 
d="M-7 -209l9 50h118l143 809h-118l9 50h213l-160 -909h-214z" />
    <glyph glyph-name="asciicircum" unicode="^" horiz-adv-x="500" 
d="M338 699h72l130 -278h-59l-119 217l-192 -217h-60z" />
    <glyph glyph-name="underscore" unicode="_" horiz-adv-x="479" 
d="M-27 -156h478l-10 -56h-478z" />
    <glyph glyph-name="grave" unicode="`" horiz-adv-x="241" 
d="M216 598l-77 102h87l51 -102h-61z" />
    <glyph glyph-name="a" unicode="a" horiz-adv-x="506" 
d="M458 81q-2 -12 7.5 -22t27.5 -25l-82 -45q-17 17 -27 30.5t-13 27.5q-30 -27 -65.5 -42.5t-76.5 -15.5q-46 0 -79.5 20t-53 54.5t-25 81t3.5 98.5t32.5 98t58 80t79 54t95.5 20q57 0 103 -24l93 19q-5 -9 -7.5 -16.5t-4.5 -19.5zM265 45q32 0 60.5 16t51.5 44l54 309
q-41 26 -90 26q-34 0 -63 -15.5t-52.5 -42t-39.5 -62t-23 -76.5t-3.5 -77.5t16.5 -63.5t35.5 -42.5t53.5 -15.5z" />
    <glyph glyph-name="b" unicode="b" horiz-adv-x="511" 
d="M35 0q17 15 26.5 28.5t13.5 34.5l100 564q3 20 -2.5 33.5t-17.5 28.5l128 30q-5 -9 -8 -16.5t-5 -19.5l-40 -230q32 20 65.5 31t68.5 11q45 0 78 -18.5t53 -50.5t26 -75.5t-3 -93.5q-9 -52 -32.5 -98.5t-58.5 -82t-81.5 -56t-102.5 -20.5h-208zM160 55h76q41 0 73.5 16
t56.5 43t40 63t23 75q7 41 3.5 75.5t-16.5 59t-35 38.5t-52 14q-28 0 -55.5 -11.5t-53.5 -30.5z" />
    <glyph glyph-name="c" unicode="c" horiz-adv-x="446" 
d="M411 27q-31 -18 -67 -28t-75 -10q-55 0 -96 20t-65.5 54.5t-33 81t0.5 98.5t34 98t63 80t87.5 54t107.5 20q37 0 70 -8t60 -22l-26 -76q-18 21 -46 33t-63 12q-41 0 -74.5 -16t-59 -42.5t-42.5 -61t-23 -71.5q-7 -37 -2.5 -72t21 -62t44 -43t67.5 -16q38 0 73.5 15.5
t67.5 41.5z" />
    <glyph glyph-name="d" unicode="d" horiz-adv-x="513" 
d="M458 81q-2 -12 7.5 -22t27.5 -25l-82 -45q-17 17 -27 30.5t-13 27.5q-30 -27 -65.5 -42.5t-76.5 -15.5q-46 0 -79.5 20t-53 54.5t-25 81t3.5 98.5t32.5 98t58 80t79 54t95.5 20q55 0 101 -23l28 155q3 20 -2.5 33.5t-17.5 28.5l128 30q-5 -9 -8 -16.5t-5 -19.5zM265 45
q32 0 60.5 16t51.5 44l54 309q-41 26 -90 26q-34 0 -63 -15.5t-52.5 -42t-39.5 -62t-23 -76.5t-3.5 -77.5t16.5 -63.5t35.5 -42.5t53.5 -15.5z" />
    <glyph glyph-name="e" unicode="e" horiz-adv-x="487" 
d="M166 219q-2 -36 5.5 -67t24.5 -53.5t44 -35.5t63 -13q41 0 77.5 15.5t68.5 41.5l-24 -80q-31 -18 -68.5 -28t-78.5 -10q-57 0 -99.5 20t-68.5 55t-35 82t1 102q9 50 31 95t55.5 79t76.5 53.5t93 19.5q48 0 83 -18.5t56 -51.5t27.5 -79t-3.5 -101l-4 -26h-325zM403 278
q5 33 3 61.5t-12.5 49.5t-28.5 33t-44 12q-27 0 -50.5 -12.5t-42 -34t-32 -50t-21.5 -59.5h228z" />
    <glyph glyph-name="f" unicode="f" horiz-adv-x="319" 
d="M257 484h113l-9 -55h-113l-88 -496q-11 -66 -57 -104t-116 -38q-41 0 -82 17l13 75q18 -20 35 -28.5t37 -8.5t34.5 7.5t24.5 18.5t15.5 25t8.5 28l89 504h-55l9 55h56l18 103q11 66 57 104t116 38q41 0 82 -17l-14 -75q-17 20 -34 28.5t-37 8.5t-35 -7.5t-24.5 -18.5
t-15.5 -25t-8 -28z" />
    <glyph glyph-name="g" unicode="g" horiz-adv-x="505" 
d="M440 -25q-8 -43 -28.5 -77t-52 -58t-71.5 -36.5t-87 -12.5q-40 0 -72.5 9t-54 26t-31 40t-4.5 52q9 57 74 69q-5 -11 -7 -19.5t-4 -16.5q-7 -45 23.5 -68.5t81.5 -23.5q61 0 99 31.5t48 84.5l17 99q-29 -21 -63 -33t-72 -12q-46 0 -79.5 18.5t-54 50t-26.5 74.5t2 91
q9 48 31.5 90.5t56.5 74t78.5 49.5t95.5 18q57 0 103 -24l93 19q-5 -9 -7.5 -16.5t-4.5 -19.5zM272 85q32 0 59.5 13t50.5 35l49 278q-21 12 -44 19t-46 10q-34 -2 -63.5 -17t-52 -39t-38 -55t-21.5 -67q-6 -37 -2 -69t17.5 -56t36.5 -38t54 -14z" />
    <glyph glyph-name="h" unicode="h" horiz-adv-x="507" 
d="M161 63q-4 -21 1.5 -34.5t16.5 -28.5h-144q17 15 26.5 28.5t13.5 34.5l100 564q3 20 -2.5 33.5t-17.5 28.5l128 30q-5 -9 -8 -16.5t-5 -19.5l-46 -260q51 38 94 55t81 17q33 0 57 -12t38 -32.5t18 -48t-1 -57.5l-43 -244q-3 -17 5.5 -31t25.5 -36l-82 -45q-22 30 -32 51
t-5 52l44 250q3 16 2.5 32t-7.5 29.5t-20.5 22t-37.5 8.5q-28 0 -64 -13.5t-81 -45.5z" />
    <glyph glyph-name="i" unicode="i" horiz-adv-x="212" 
d="M155 613q5 23 24.5 39.5t45.5 16.5q24 0 38.5 -16.5t9.5 -39.5q-4 -23 -24 -39.5t-44 -16.5q-26 0 -40 16.5t-10 39.5zM133 392q4 20 -1.5 33.5t-17.5 28.5l127 30q-5 -9 -7.5 -16.5t-4.5 -19.5l-61 -347q-3 -17 5.5 -31t25.5 -36l-82 -45q-22 30 -32 51t-5 52z" />
    <glyph glyph-name="j" unicode="j" horiz-adv-x="220" 
d="M147 -62q-7 -38 -25.5 -65t-42 -45t-48 -26.5t-43.5 -8.5q-26 0 -40.5 14t-9.5 43q56 -6 86 17t38 71l80 454q4 20 -1.5 33.5t-17.5 28.5l127 30q-5 -9 -8 -16.5t-5 -19.5zM164 613q5 23 24.5 39.5t44.5 16.5q24 0 39 -16.5t10 -39.5q-4 -23 -24.5 -39.5t-44.5 -16.5
q-25 0 -39 16.5t-10 39.5z" />
    <glyph glyph-name="k" unicode="k" horiz-adv-x="462" 
d="M161 63q-4 -21 1.5 -34.5t16.5 -28.5h-144q17 15 26.5 28.5t13.5 34.5l100 564q3 20 -2.5 33.5t-17.5 28.5l128 30q-5 -9 -8 -16.5t-5 -19.5l-70 -402l158 152q11 11 17.5 24.5t4.5 28.5h122q-22 -11 -44.5 -29.5t-42.5 -39.5l-105 -102l86 -214q8 -19 15.5 -32t15.5 -23
t17.5 -18.5t19.5 -18.5l-26 -8q-28 -9 -48 -9q-18 0 -29.5 7t-20.5 21t-17 34t-17 45l-55 155l-68 -65z" />
    <glyph glyph-name="l" unicode="l" horiz-adv-x="212" 
d="M175 627q3 20 -2.5 33.5t-17.5 28.5l128 30q-5 -9 -8 -16.5t-5 -19.5l-102 -582q-3 -17 5.5 -31t25.5 -36l-82 -45q-22 30 -32 51t-5 52z" />
    <glyph glyph-name="m" unicode="m" horiz-adv-x="754" 
d="M161 63q-4 -21 1.5 -34.5t16.5 -28.5h-144q17 15 26.5 28.5t13.5 34.5l58 329q4 20 -1.5 33.5t-17.5 28.5l106 30q2 -17 3 -33t-1 -35q48 42 88.5 60.5t75.5 18.5q41 0 65 -21.5t32 -56.5q50 42 92.5 60t78.5 18q32 0 54 -12t34.5 -32.5t16 -48t-1.5 -57.5l-43 -244
q-3 -17 5.5 -31t25.5 -36l-82 -45q-22 30 -32 51t-5 52l44 250q3 16 2.5 32t-6.5 29.5t-18.5 22t-33.5 8.5q-24 0 -56.5 -13t-70.5 -44q0 -15 -3 -32l-50 -282q-4 -21 1.5 -34.5t16.5 -28.5h-144q17 15 26.5 28.5t13.5 34.5l49 279q3 16 3 32t-5.5 29.5t-17 22t-31.5 8.5
q-24 0 -56.5 -14.5t-74.5 -49.5z" />
    <glyph glyph-name="n" unicode="n" horiz-adv-x="507" 
d="M161 63q-4 -21 1.5 -34.5t16.5 -28.5h-144q17 15 26.5 28.5t13.5 34.5l58 329q4 20 -1.5 33.5t-17.5 28.5l106 30q2 -17 3 -31.5t-1 -31.5q51 39 95 56.5t82 17.5q33 0 57 -12t38 -32.5t18 -48t-1 -57.5l-43 -244q-3 -17 5.5 -31t25.5 -36l-82 -45q-22 30 -32 51t-5 52
l44 250q3 16 2.5 32t-7.5 29.5t-21 22t-38 8.5q-27 0 -63 -13.5t-81 -45.5z" />
    <glyph glyph-name="o" unicode="o" horiz-adv-x="537" 
d="M75 243q9 52 33.5 98t61 80t84 54t101.5 20q55 0 95.5 -20t65 -54t33 -80t-0.5 -98t-34 -98.5t-61.5 -81t-84 -54.5t-102.5 -20q-54 0 -94.5 20t-65 54.5t-32.5 81t1 98.5zM163 243q-7 -38 -2.5 -73t19 -61.5t39 -42.5t57.5 -16q34 0 64.5 16t55 42.5t41 61.5t23.5 73
q6 37 1.5 71.5t-19 61t-39.5 42.5t-59 16q-33 0 -63 -16t-54 -42.5t-41 -61t-23 -71.5z" />
    <glyph glyph-name="p" unicode="p" horiz-adv-x="513" 
d="M5 -209q12 14 19 25.5t10 29.5l96 546q4 20 -1 33.5t-17 28.5l102 30q0 -12 1.5 -23t1.5 -25q30 28 66.5 43.5t77.5 15.5q46 0 79.5 -20t53 -54.5t25 -80.5t-3.5 -99q-9 -52 -32.5 -98t-58 -80t-79 -54t-95.5 -20q-58 0 -101 23l-27 -154q-4 -22 1.5 -36t16.5 -31h-135z
M325 439q-32 0 -60 -16t-51 -44q-1 -1 -1 -3l-54 -306q41 -26 91 -26q33 0 62 15.5t52 42t39 62t23 76.5q8 41 4.5 77.5t-16.5 63.5t-35.5 42.5t-53.5 15.5z" />
    <glyph glyph-name="q" unicode="q" horiz-adv-x="513" 
d="M368 44q-29 -26 -64.5 -40.5t-74.5 -14.5q-46 0 -79.5 20t-53 54.5t-25 81t3.5 98.5t32.5 98t58 80t79 54t95.5 20q58 0 104 -24l96 13q-7 -15 -11.5 -28.5t-8.5 -33.5l-99 -563q-4 -23 1 -37t16 -31h-135q12 14 19.5 25.5t10.5 29.5zM265 45q32 0 61.5 17t52.5 46
l54 305q-40 27 -92 27q-34 0 -63 -15.5t-52.5 -42t-39.5 -62t-23 -76.5t-3.5 -77.5t16.5 -63.5t35.5 -42.5t53.5 -15.5z" />
    <glyph glyph-name="r" unicode="r" horiz-adv-x="351" 
d="M161 63q-4 -21 1.5 -34.5t16.5 -28.5h-144q17 15 26.5 28.5t13.5 34.5l58 329q4 20 -1.5 33.5t-17.5 28.5l106 30q2 -18 3 -34t-1 -36q36 42 68 61.5t65 19.5q30 0 41 -14t8 -34q-2 -11 -7.5 -22.5t-15.5 -21.5q-4 12 -13.5 19t-29.5 7q-25 0 -54.5 -13t-67.5 -44z" />
    <glyph glyph-name="s" unicode="s" horiz-adv-x="374" 
d="M180 371q-6 -34 13 -52t56 -36q19 -9 41.5 -20.5t40.5 -29.5t28 -43t4 -61q-6 -31 -22.5 -57t-42.5 -44.5t-59.5 -28.5t-72.5 -10q-35 0 -63.5 8t-57.5 22l9 91q29 -29 59 -46t71 -17q40 0 64.5 17.5t30.5 52.5q3 21 -2 36t-17 27t-30 22.5t-40 21.5q-16 8 -34.5 18
t-33.5 25.5t-23 38t-2 55.5q11 62 62 98t127 36q35 0 62.5 -8t55.5 -22l-29 -79q-15 24 -43.5 37.5t-62.5 13.5q-38 0 -60.5 -17t-28.5 -49z" />
    <glyph glyph-name="t" unicode="t" horiz-adv-x="354" 
d="M201 574q27 5 49 15.5t44 24.5l-23 -130h128l-9 -55h-128l-51 -286q-3 -15 -2.5 -31t6.5 -29t17.5 -21.5t31.5 -8.5q18 0 38.5 8.5t43.5 29.5l-14 -77q-33 -14 -58 -19.5t-45 -5.5q-31 0 -53.5 11.5t-35.5 31.5t-17 46.5t1 55.5l52 295h-68l9 55h68z" />
    <glyph glyph-name="u" unicode="u" horiz-adv-x="519" 
d="M132 392q4 20 -1 33.5t-17 28.5l127 30q-8 -15 -11 -28.5t-7 -33.5l-49 -280q-3 -16 -2 -32t7.5 -29.5t20 -22t37.5 -8.5q27 0 63 13.5t82 45.5l50 283q4 20 -1.5 33.5t-17.5 28.5l127 30q-5 -9 -7.5 -16.5t-4.5 -19.5l-61 -347q-3 -17 5.5 -31t25.5 -36l-82 -45
q-17 23 -26.5 39.5t-11.5 35.5q-51 -40 -96 -57.5t-83 -17.5q-33 0 -57 12t-37.5 32.5t-18 48t1.5 57.5z" />
    <glyph glyph-name="v" unicode="v" horiz-adv-x="498" 
d="M438 411q11 21 14.5 38t-4.5 35h123q-20 -17 -32 -32t-24 -38l-230 -414h-62l-94 414q-5 23 -11.5 38t-20.5 32h133q-12 -17 -13 -35.5t2 -37.5l34 -161q7 -34 12.5 -67.5t13.5 -66.5q17 33 34.5 66.5t35.5 67.5z" />
    <glyph glyph-name="w" unicode="w" horiz-adv-x="701" 
d="M437 484h27l29 -237q3 -30 8 -60t10 -59q12 29 25.5 59t29.5 60l82 164q11 21 13.5 38t-4.5 35h117q-17 -17 -28 -32t-22 -38l-214 -414h-54l-41 251q-2 12 -3 26.5t-3 26.5l-15 -30t-14 -30l-123 -244h-58l-74 414q-5 23 -10.5 38t-17.5 32h129q-11 -17 -12.5 -35.5
t0.5 -37.5l27 -164q4 -30 9.5 -60t10.5 -59q14 29 28.5 58l30.5 61z" />
    <glyph glyph-name="x" unicode="x" horiz-adv-x="483" 
d="M396 101q8 -19 16 -32t16 -23t17 -18.5t19 -18.5l-26 -8q-28 -9 -46 -9t-29.5 7.5t-20.5 21.5t-17 33.5t-19 44.5l-37 87l-90 -117q-5 -6 -11 -14t-10 -17t-4 -18.5t6 -19.5h-141q24 14 50 38t49 52l124 150l-71 154q-12 28 -27.5 52t-35.5 38h147q-10 -10 -13.5 -19.5
t-2 -18.5t5 -17t6.5 -14l50 -110l84 110q5 6 11 14t9.5 17t4 18.5t-5.5 19.5h141q-24 -14 -50 -38t-49 -52l-118 -143z" />
    <glyph glyph-name="y" unicode="y" horiz-adv-x="501" 
d="M441 411q11 21 14.5 38t-4.5 35h123q-20 -17 -32 -32t-24 -38l-223 -410q-58 -104 -113.5 -158.5t-100.5 -54.5q-26 0 -48 18t-22 53q19 -11 40 -11q15 0 33.5 7.5t39.5 25t44 46.5t47 72l-86 412q-5 23 -11.5 38t-20.5 32h133q-12 -17 -13 -35.5t2 -37.5l35 -164
q7 -35 13 -69.5t14 -69.5q17 35 35 69.5t37 69.5z" />
    <glyph glyph-name="z" unicode="z" horiz-adv-x="386" 
d="M126 74q21 3 42 3q25 0 49.5 -2.5t49.5 -2.5q32 0 61.5 7.5t55.5 27.5l-19 -107q-34 -7 -70 -7q-51 0 -99 8t-97 8q-20 0 -38.5 -2t-38.5 -7l7 38l304 372h-153q-26 0 -43 -7t-34 -21l18 102h316l-6 -38z" />
    <glyph glyph-name="braceleft" unicode="{" horiz-adv-x="371" 
d="M219 526q15 87 54.5 132t118.5 45q25 0 52 -3l9 -52q-28 5 -47 5q-34 0 -56 -26t-30 -74l-35 -193q-8 -49 -30.5 -74.5t-73.5 -39.5q46 -15 59.5 -40t4.5 -74l-34 -194q-8 -48 4.5 -74t46.5 -26q11 0 23 1.5t26 3.5l-27 -52q-28 -3 -53 -3q-79 0 -102.5 45t-8.5 132
l29 166q9 49 -12 67t-67 18l10 59q46 0 73.5 18t35.5 67z" />
    <glyph glyph-name="bar" unicode="|" horiz-adv-x="157" 
d="M220 700l-160 -909h-37l160 909h37z" />
    <glyph glyph-name="braceright" unicode="}" horiz-adv-x="371" 
d="M308 360q-8 -49 12.5 -67t66.5 -18l-10 -59q-46 0 -73 -18t-36 -67l-29 -166q-15 -87 -54.5 -132t-118.5 -45q-24 0 -53 3l-9 52q14 -2 25 -3.5t22 -1.5q34 0 56.5 26t30.5 74l34 194q5 24 12 42t19 31.5t30 23.5t43 17q-45 14 -58.5 39.5t-5.5 74.5l35 193q8 48 -5 74
t-47 26q-11 0 -23 -1.5t-26 -3.5l27 52q30 3 54 3q79 0 102.5 -45t8.5 -132z" />
    <glyph glyph-name="asciitilde" unicode="~" horiz-adv-x="548" 
d="M232 345q-32 0 -66 -17.5t-65 -51.5l14 79q35 32 72.5 47t72.5 15q33 0 54.5 -11t39.5 -23.5t37 -23.5t47 -11q32 0 66.5 17.5t65.5 51.5l-14 -79q-35 -32 -72.5 -47t-72.5 -15q-33 0 -54.5 11t-40 23.5t-37.5 23.5t-47 11z" />
    <glyph glyph-name="exclamdown" unicode="&#xa1;" horiz-adv-x="215" 
d="M155.011 75.0381q-4 -25.998 -0.5 -41.9971t13.499 -32.998h-124.992q5 10.999 7.99902 21.998q3 11 5 21.999l98.9941 467.972h61.9961zM270.004 654.003q-4 -22.999 -23.999 -38.998t-44.9971 -15.999q-23.999 0 -38.498 15.999t-10.499 38.998
q5 23.998 24.998 40.4971q19.999 16.499 43.998 16.499q24.998 0 39.4971 -16.499t9.5 -40.4971z" />
    <glyph glyph-name="cent" unicode="&#xa2;" horiz-adv-x="446" 
d="M417 602l-19 -108q56 -6 99 -29l-26 -76q-31 35 -84 43l-67 -380q31 5 59.5 19t54.5 36l-23 -80q-46 -27 -102 -35l-18 -103h-67l18 101q-48 5 -83.5 27t-57 55.5t-28.5 77.5t2 93q8 48 30 91t55 76t76.5 55t94.5 28l19 109h67zM163 243q-6 -32 -3.5 -62.5t14 -56
t31.5 -43.5t48 -26l66 374q-32 -7 -58 -25.5t-46 -43.5t-33 -55t-19 -62z" />
    <glyph glyph-name="sterling" unicode="&#xa3;" horiz-adv-x="574" 
d="M183 77q46 41 67.5 75.5t26.5 63.5t-0.5 58t-13.5 61h-97l9 52h77q-4 25 -4 53.5t5 61.5q10 54 33.5 95t57 68t76.5 41t92 14q39 0 75.5 -8.5t78.5 -24.5l-18 -102q-33 32 -70 49.5t-82 17.5q-57 0 -97 -33t-54 -108q-6 -35 -4.5 -65.5t6.5 -58.5h181l-9 -52h-161
q7 -30 11.5 -58t-0.5 -57q-4 -24 -13.5 -44.5t-22 -38.5t-27 -34t-28.5 -31h192q52 0 78.5 9.5t43.5 26.5l-19 -108h-435l8 44z" />
    <glyph glyph-name="yen" unicode="&#xa5;" horiz-adv-x="622" 
d="M352 432q8 -25 14.5 -47t14.5 -50q17 27 33.5 51.5t29.5 45.5l131 199q11 17 15.5 35t-2.5 34h145q-22 -12 -36.5 -26t-31.5 -37l-231 -330h121l-11 -61h-142l-11 -62h142l-10 -62h-144l-8 -47q-5 -25 1.5 -41t20.5 -34h-164q20 18 31.5 34t16.5 41l8 47h-143l10 62h144
l11 62h-144l11 61h115l-107 323q-8 23 -17.5 38t-29.5 32h162q-13 -10 -17 -30.5t4 -39.5z" />
    <glyph glyph-name="brokenbar" unicode="&#xa6;" horiz-adv-x="157" 
d="M89 163h37l-66 -372h-37zM221 701l-66 -371h-37l66 371h37z" />
    <glyph glyph-name="section" unicode="&#xa7;" horiz-adv-x="503" 
d="M282 597q-5 -31 12.5 -51.5t46.5 -37t64 -31t64 -33.5t46 -44.5t10 -64.5t-36.5 -69.5t-83.5 -45.5q17 -18 25.5 -41.5t3.5 -55.5q-5 -29 -21 -54.5t-41 -44t-59 -29t-76 -10.5q-35 0 -63.5 8t-56.5 23l9 91q14 -13 27 -24t27.5 -18t31 -11t38.5 -4q86 0 97 59
q5 30 -12.5 51t-47 37.5t-64 32.5t-63 36.5t-45 48t-9.5 68.5t35.5 70.5t78.5 44.5q-15 17 -22 39.5t-2 51.5q11 59 62 94.5t127 35.5q35 0 62 -8t54 -22l-28 -80q-23 21 -45 33.5t-57 12.5q-40 0 -62 -15.5t-27 -42.5zM200 397q-4 -27 7.5 -45.5t32.5 -33.5t48 -27.5
t54 -26.5l1 1q40 0 61 14.5t26 40.5t-8.5 44t-36.5 33t-52.5 28t-56.5 29q-67 -3 -76 -57z" />
    <glyph glyph-name="dieresis" unicode="&#xa8;" horiz-adv-x="391" 
d="M163 651q3 17 20 32.5t43 15.5q25 0 36 -15.5t8 -32.5q-3 -18 -20 -33.5t-41 -15.5q-26 0 -37.5 15.5t-8.5 33.5zM352 651q3 17 19.5 32.5t42.5 15.5q25 0 36.5 -15.5t8.5 -32.5q-3 -18 -20 -33.5t-42 -15.5t-36.5 15.5t-8.5 33.5z" />
    <glyph glyph-name="copyright" unicode="&#xa9;" horiz-adv-x="794" 
d="M98 350q12 72 47 138.5t89.5 117.5t127.5 81.5t161 30.5q89 0 151.5 -30.5t99.5 -81.5t48.5 -117.5t-1.5 -138.5t-48 -138.5t-90 -118t-128 -82t-162 -30.5q-88 0 -150 30.5t-98.5 81.5t-48 118t1.5 139zM163 350q-11 -65 -1.5 -122.5t40 -101t80.5 -69t120 -25.5
q71 0 130.5 25.5t105.5 69t76 101t42 122.5q11 65 1 122.5t-40.5 101t-81 69t-121.5 25.5q-70 0 -129 -25.5t-104.5 -69t-75.5 -101t-42 -122.5zM540 177q-20 -9 -49.5 -15.5t-58.5 -6.5q-45 0 -75.5 16t-48.5 43t-23 62.5t2 73.5q6 38 23.5 73t45 62t64.5 43t83 16
q29 0 55 -6t45 -16l-19 -53q-11 16 -32.5 25t-45.5 9q-30 0 -55.5 -12t-46 -33t-34 -48.5t-19.5 -59.5q-6 -31 -2 -59t17 -49t35.5 -33.5t53.5 -12.5q27 0 54 9t44 23z" />
    <glyph glyph-name="ordfeminine" unicode="&#xaa;" horiz-adv-x="321" 
d="M70 271h264l-9 -47h-264zM345 398q-2 -8 5 -13.5t21 -14.5l-58 -32q-15 13 -23.5 23.5t-10.5 22.5q-17 -21 -41 -33.5t-53 -12.5q-25 0 -42.5 8.5t-28.5 23t-14.5 33t0.5 38.5q10 54 66 90t144 38l4 21q2 12 1.5 23.5t-5.5 21t-16 15t-30 5.5q-21 0 -47.5 -8.5
t-55.5 -28.5l10 56q29 14 57 20t53 6q59 0 82.5 -31t15.5 -79zM222 385q22 0 38 11.5t25 29.5l19 105q-55 -6 -90 -26.5t-42 -56.5q-2 -10 -0.5 -21.5t7 -20.5t16 -15t27.5 -6z" />
    <glyph glyph-name="guillemotleft" unicode="&#xab;" horiz-adv-x="445" 
d="M109 363l205 157l15 -11l-132 -159l76 -159l-19 -11l-149 158zM268 363l206 157l15 -11l-133 -159l77 -159l-19 -11l-151 158z" />
    <glyph glyph-name="logicalnot" unicode="&#xac;" horiz-adv-x="505" 
d="M111 375h416l-39 -220h-46l30 170h-370z" />
    <glyph glyph-name="registered" unicode="&#xae;" horiz-adv-x="801" 
d="M97 351q13 72 48 138.5t89.5 117.5t127.5 81.5t161 30.5q89 0 151.5 -30.5t99 -81.5t48.5 -117.5t-1 -138.5q-13 -73 -48 -140t-90 -118t-128 -81.5t-162 -30.5q-88 0 -150 30.5t-99 81.5t-48.5 118t1.5 140zM163 351q-12 -65 -2 -123t40.5 -101.5t81 -69t119.5 -25.5
q71 0 130.5 25.5t105 69t75.5 101.5t42 123q11 65 1.5 122.5t-40 100.5t-81 68.5t-121.5 25.5q-70 0 -129 -25.5t-105 -68.5t-76 -100.5t-41 -122.5zM365 497q2 15 -2 25.5t-13 21.5h129q65 0 90 -31.5t17 -79.5q-6 -32 -25.5 -60t-57.5 -43l47 -131q5 -11 12.5 -22
t21.5 -21h-103q7 11 6 21t-4 21l-40 120h-12h-29l-20 -115q-3 -16 0.5 -26t13.5 -21h-113q12 11 19.5 21t10.5 26zM430 371q23 0 39 5.5t26.5 14.5t16 20.5t7.5 23.5q5 26 -6 41.5t-43 15.5h-37l-22 -121h19z" />
    <glyph glyph-name="macron" unicode="&#xaf;" horiz-adv-x="355" 
d="M165 680h265l-9 -50h-265z" />
    <glyph glyph-name="degree" unicode="&#xb0;" horiz-adv-x="365" 
d="M115 524q7 38 24 69.5t42.5 54.5t57 36t67.5 13q35 0 62.5 -13t45 -36.5t24 -55t0.5 -68.5q-7 -38 -24.5 -70t-43.5 -55.5t-58 -36.5t-68 -13q-35 0 -62 13.5t-44.5 36.5t-23.5 55.5t1 69.5zM168 524q-10 -56 13 -91.5t71 -35.5q49 0 85 35.5t46 91.5q9 54 -14.5 90
t-72.5 36q-24 0 -45 -9.5t-38 -26.5t-28.5 -40t-16.5 -50z" />
    <glyph glyph-name="plusminus" unicode="&#xb1;" horiz-adv-x="472" 
d="M115 396h169l30 170h45l-30 -170h168l-9 -50h-168l-30 -171h-45l30 171h-169zM45 1l9 50h382l-9 -50h-382z" />
    <glyph glyph-name="acute" unicode="&#xb4;" horiz-adv-x="242" 
d="M262 700h88l-114 -102h-61z" />
    <glyph glyph-name="paragraph" unicode="&#xb6;" horiz-adv-x="578" 
d="M481 -124q-5 -29 0.5 -47t19.5 -39h-295q21 20 33 38t17 48l72 410h-23q-56 0 -93.5 17.5t-59 47t-27 68t1.5 80.5q8 44 28.5 80.5t54 63.5t81 42t108.5 15h263q-21 -21 -33.5 -39.5t-17.5 -46.5zM338 -139q-2 -18 4.5 -26.5t17.5 -8.5t21 8.5t12 26.5l136 768
q4 17 -3 25t-18 8t-20.5 -8t-13.5 -25z" />
    <glyph glyph-name="periodcentered" unicode="&#xb7;" horiz-adv-x="224" 
d="M113 351q4 23 24 38t46 15q25 0 40 -15t11 -38q-5 -23 -25 -38.5t-45 -15.5q-26 0 -41 15.5t-10 38.5z" />
    <glyph glyph-name="cedilla" unicode="&#xb8;" horiz-adv-x="152" 
d="M-2 -180q28 17 49 37.5t26 43.5q2 11 0 20.5t-10 19.5h79q5 -10 8 -18.5t1 -18.5q-9 -51 -131 -113z" />
    <glyph glyph-name="ordmasculine" unicode="&#xba;" horiz-adv-x="377" 
d="M114 520q6 37 23.5 70t43.5 57.5t59 38.5t72 14t67.5 -14t46.5 -38.5t24 -57.5t0 -70q-7 -37 -24.5 -70.5t-44 -58t-60 -39t-72.5 -14.5t-67.5 14.5t-45.5 39t-23 58t1 70.5zM188 520q-5 -28 -3 -52.5t11 -42.5t24 -28.5t36 -10.5t40 10.5t34.5 28.5t26.5 42.5t16 52.5
t2.5 52t-11.5 42t-24.5 28t-36.5 10t-40 -10t-34 -28t-25.5 -42t-15.5 -52zM105 271h264l-9 -47h-264z" />
    <glyph glyph-name="guillemotright" unicode="&#xbb;" horiz-adv-x="445" 
d="M253 180l-15 11l131 159l-75 159l19 11l149 -157l-4 -25zM93 180l-15 11l131 159l-75 159l19 11l149 -157l-4 -25z" />
    <glyph glyph-name="questiondown" unicode="&#xbf;" horiz-adv-x="431" 
d="M461.006 520.012q2 -20.999 2 -39.498t-1 -34.498q-2 -43.9971 -17.499 -75.9951t-37.4971 -56.9961q-21.999 -24.999 -47.498 -44.9971q-25.498 -19.999 -48.4961 -39.498q-22.999 -19.499 -39.998 -41.4971q-16.999 -21.999 -21.999 -49.9971
q-5.99902 -36.998 13.999 -58.4971q19.999 -21.498 61.9971 -21.498q37.9971 0 82.4941 17.499q44.498 17.498 87.4951 49.4961l-17.999 -101.993q-45.9971 -15.999 -84.9951 -24.499q-38.9971 -8.49902 -73.9951 -8.49902q-41.9971 0 -74.9951 12.499t-54.4971 33.498
t-30.998 48.9971t-3.5 59.9961q5 31.998 23.499 57.9971q18.499 25.998 42.4971 48.4971q23.999 22.498 51.4971 42.9971t51.9971 41.9971q24.498 21.499 42.4971 46.4971q17.999 24.999 22.999 54.9971q2.99902 16.999 4.99902 37.998q2 20.998 4 44.9971h62.9961z
M515.003 662.003q-4 -22.999 -24.499 -38.998q-20.498 -15.999 -45.4971 -15.999q-23.998 0 -38.4971 15.999q-14.5 15.999 -10.5 38.998q5 23.998 24.999 40.4971q19.998 16.499 43.9971 16.499q24.998 0 39.9971 -16.499t10 -40.4971z" />
    <glyph glyph-name="Agrave" unicode="&#xc0;" 
d="M176 82q-12 -25 -8.5 -46.5t18.5 -35.5h-166q24 14 41 30.5t32 45.5l280 544q8 17 8.5 40.5t-18.5 39.5h155l102 -621q5 -26 16.5 -42.5t31.5 -36.5h-184q23 15 32.5 33.5t4.5 47.5l-22 152h-247zM490 298l-47 320l-159 -320h206zM502 798l-77 102h87l51 -102h-61z" />
    <glyph glyph-name="Aacute" unicode="&#xc1;" 
d="M176 82q-12 -25 -8.5 -46.5t18.5 -35.5h-166q24 14 41 30.5t32 45.5l280 544q8 17 8.5 40.5t-18.5 39.5h155l102 -621q5 -26 16.5 -42.5t31.5 -36.5h-184q23 15 32.5 33.5t4.5 47.5l-22 152h-247zM490 298l-47 320l-159 -320h206zM493 900h88l-114 -102h-61z" />
    <glyph glyph-name="Acircumflex" unicode="&#xc2;" 
d="M176 82q-12 -25 -8.5 -46.5t18.5 -35.5h-166q24 14 41 30.5t32 45.5l280 544q8 17 8.5 40.5t-18.5 39.5h155l102 -621q5 -26 16.5 -42.5t31.5 -36.5h-184q23 15 32.5 33.5t4.5 47.5l-22 152h-247zM490 298l-47 320l-159 -320h206zM465 899h74l72 -101h-65l-53 52l-71 -52
h-64z" />
    <glyph glyph-name="Atilde" unicode="&#xc3;" 
d="M176 82q-12 -25 -8.5 -46.5t18.5 -35.5h-166q24 14 41 30.5t32 45.5l280 544q8 17 8.5 40.5t-18.5 39.5h155l102 -621q5 -26 16.5 -42.5t31.5 -36.5h-184q23 15 32.5 33.5t4.5 47.5l-22 152h-247zM490 298l-47 320l-159 -320h206zM429 843q-39 0 -79 -46l10 57
q22 22 44.5 32t43.5 10q20 0 33 -7t24 -16t22.5 -16t27.5 -7q20 0 40.5 11.5t39.5 34.5l-11 -58q-20 -21 -43.5 -31t-44.5 -10q-20 0 -33 7t-23.5 16t-22 16t-28.5 7z" />
    <glyph glyph-name="Adieresis" unicode="&#xc4;" 
d="M176 82q-12 -25 -8.5 -46.5t18.5 -35.5h-166q24 14 41 30.5t32 45.5l280 544q8 17 8.5 40.5t-18.5 39.5h155l102 -621q5 -26 16.5 -42.5t31.5 -36.5h-184q23 15 32.5 33.5t4.5 47.5l-22 152h-247zM490 298l-47 320l-159 -320h206zM346 851q3 17 20 32.5t43 15.5
q25 0 36 -15.5t8 -32.5q-3 -18 -20 -33.5t-41 -15.5q-26 0 -37.5 15.5t-8.5 33.5zM535 851q3 17 19.5 32.5t42.5 15.5q25 0 36.5 -15.5t8.5 -32.5q-3 -18 -20 -33.5t-42 -15.5t-36.5 15.5t-8.5 33.5z" />
    <glyph glyph-name="Aring" unicode="&#xc5;" 
d="M176 82q-12 -25 -8.5 -46.5t18.5 -35.5h-166q24 14 41 30.5t32 45.5l280 544q8 17 8.5 40.5t-18.5 39.5h155l102 -621q5 -26 16.5 -42.5t31.5 -36.5h-184q23 15 32.5 33.5t4.5 47.5l-22 152h-247zM490 298l-47 320l-159 -320h206zM413 856q3 17 12 32t22.5 26t29.5 18
t33 7q35 0 54.5 -25t14.5 -58q-6 -35 -34.5 -59.5t-63.5 -24.5q-34 0 -54 24.5t-14 59.5zM451 855q-3 -18 8 -32t28 -14q18 0 33.5 14t18.5 32q4 19 -6.5 32.5t-28.5 13.5q-17 0 -33 -13.5t-20 -32.5z" />
    <glyph glyph-name="AE" unicode="&#xc6;" horiz-adv-x="891" 
d="M195 99q-10 -12 -15.5 -26.5t-7 -28t1 -25.5t8.5 -19h-162q19 14 40 35.5t37 40.5l430 544q14 17 20.5 40.5t-7.5 39.5h433l-16 -95q-13 17 -25 26.5t-33 9.5h-198l-45 -253h156q26 0 44.5 10t41.5 29l-23 -134q-17 19 -31.5 29.5t-40.5 10.5h-156l-49 -274h173
q38 0 66 9.5t60 26.5l-33 -95h-405q20 17 31.5 32t16.5 39l28 162h-237zM605 631l-257 -333h199z" />
    <glyph glyph-name="Ccedilla" unicode="&#xc7;" horiz-adv-x="592" 
d="M585 23q-45 -20 -98 -31t-105 -11q-84 0 -144 29t-95 79.5t-46 118t2 143.5q14 76 48.5 143t87.5 117t122.5 79t152.5 29q54 0 103 -12t89 -32l-36 -107q-23 40 -63.5 63.5t-99.5 23.5q-58 0 -108.5 -23.5t-91 -65t-68 -97t-38.5 -118.5t-3 -118.5t34 -97t70.5 -65
t105.5 -23.5t116.5 23t93.5 61zM240 -180q28 17 49 37.5t26 43.5q2 11 0 20.5t-10 19.5h79q5 -10 8 -18.5t1 -18.5q-9 -51 -131 -113z" />
    <glyph glyph-name="Egrave" unicode="&#xc8;" horiz-adv-x="473" 
d="M179 59h173q38 0 66 9.5t60 26.5l-33 -95h-405q20 17 31.5 32t16.5 39l98 558q4 23 -3 38.5t-21 32.5h392l-16 -95q-13 17 -25 26.5t-33 9.5h-198l-45 -253h156q26 0 44 5t41 24l-21 -114q-17 14 -32 22t-41 8h-156zM395 798l-77 102h87l51 -102h-61z" />
    <glyph glyph-name="Eacute" unicode="&#xc9;" horiz-adv-x="473" 
d="M179 59h173q38 0 66 9.5t60 26.5l-33 -95h-405q20 17 31.5 32t16.5 39l98 558q4 23 -3 38.5t-21 32.5h392l-16 -95q-13 17 -25 26.5t-33 9.5h-198l-45 -253h156q26 0 44 5t41 24l-21 -114q-17 14 -32 22t-41 8h-156zM386 900h88l-114 -102h-61z" />
    <glyph glyph-name="Ecircumflex" unicode="&#xca;" horiz-adv-x="473" 
d="M179 59h173q38 0 66 9.5t60 26.5l-33 -95h-405q20 17 31.5 32t16.5 39l98 558q4 23 -3 38.5t-21 32.5h392l-16 -95q-13 17 -25 26.5t-33 9.5h-198l-45 -253h156q26 0 44 5t41 24l-21 -114q-17 14 -32 22t-41 8h-156zM357 899h74l72 -101h-65l-53 52l-71 -52h-64z" />
    <glyph glyph-name="Edieresis" unicode="&#xcb;" horiz-adv-x="473" 
d="M179 59h173q38 0 66 9.5t60 26.5l-33 -95h-405q20 17 31.5 32t16.5 39l98 558q4 23 -3 38.5t-21 32.5h392l-16 -95q-13 17 -25 26.5t-33 9.5h-198l-45 -253h156q26 0 44 5t41 24l-21 -114q-17 14 -32 22t-41 8h-156zM239 851q3 17 20 32.5t43 15.5q25 0 36 -15.5t8 -32.5
q-3 -18 -20 -33.5t-41 -15.5q-26 0 -37.5 15.5t-8.5 33.5zM428 851q3 17 19.5 32.5t42.5 15.5q25 0 36.5 -15.5t8.5 -32.5q-3 -18 -20 -33.5t-42 -15.5t-36.5 15.5t-8.5 33.5z" />
    <glyph glyph-name="Igrave" unicode="&#xcc;" horiz-adv-x="243" 
d="M182 71q-5 -23 1.5 -38.5t20.5 -32.5h-164q20 17 31.5 32.5t16.5 38.5l98 558q4 23 -3 38.5t-21 32.5h166q-20 -17 -32 -32.5t-16 -38.5zM279 798l-77 102h87l51 -102h-61z" />
    <glyph glyph-name="Iacute" unicode="&#xcd;" horiz-adv-x="243" 
d="M182 71q-5 -23 1.5 -38.5t20.5 -32.5h-164q20 17 31.5 32.5t16.5 38.5l98 558q4 23 -3 38.5t-21 32.5h166q-20 -17 -32 -32.5t-16 -38.5zM270 900h88l-114 -102h-61z" />
    <glyph glyph-name="Icircumflex" unicode="&#xce;" horiz-adv-x="243" 
d="M182 71q-5 -23 1.5 -38.5t20.5 -32.5h-164q20 17 31.5 32.5t16.5 38.5l98 558q4 23 -3 38.5t-21 32.5h166q-20 -17 -32 -32.5t-16 -38.5zM242 899h74l72 -101h-65l-53 52l-71 -52h-64z" />
    <glyph glyph-name="Idieresis" unicode="&#xcf;" horiz-adv-x="243" 
d="M182 71q-5 -23 1.5 -38.5t20.5 -32.5h-164q20 17 31.5 32.5t16.5 38.5l98 558q4 23 -3 38.5t-21 32.5h166q-20 -17 -32 -32.5t-16 -38.5zM123 851q3 17 20 32.5t43 15.5q25 0 36 -15.5t8 -32.5q-3 -18 -20 -33.5t-41 -15.5q-26 0 -37.5 15.5t-8.5 33.5zM312 851
q3 17 19.5 32.5t42.5 15.5q25 0 36.5 -15.5t8.5 -32.5q-3 -18 -20 -33.5t-42 -15.5t-36.5 15.5t-8.5 33.5z" />
    <glyph glyph-name="Eth" unicode="&#xd0;" horiz-adv-x="740" 
d="M153 374h86l45 255q4 23 -3 38.5t-21 32.5h232q87 0 146 -27.5t92.5 -75t43 -111.5t-3.5 -136t-44.5 -135.5t-81.5 -111.5t-119 -75.5t-156 -27.5h-231q20 17 31.5 32.5t16.5 38.5l45 256h-86zM368 61q68 0 119.5 22.5t89 61.5t61 92t34.5 114q11 60 6.5 113t-26.5 92
t-64 61.5t-108 22.5h-100l-47 -266h163l-8 -47h-163l-47 -266h90z" />
    <glyph glyph-name="Ntilde" unicode="&#xd1;" horiz-adv-x="663" 
d="M40 0q21 17 32.5 32.5t16.5 38.5l98 558q4 23 -3 38.5t-22 32.5h117l208 -376q17 -29 32 -58.5t31 -59.5l75 423q4 23 -3 38.5t-21 32.5h147q-21 -17 -32.5 -32.5t-15.5 -38.5l-111 -629h-33l-231 398q-20 37 -39 74t-39 75l-83 -476q-5 -23 2 -38.5t21 -32.5h-147z
M417 843q-39 0 -79 -46l10 57q22 22 44.5 32t43.5 10q20 0 33 -7t24 -16t22.5 -16t27.5 -7q20 0 40.5 11.5t39.5 34.5l-11 -58q-20 -21 -43.5 -31t-44.5 -10q-20 0 -33 7t-23.5 16t-22 16t-28.5 7z" />
    <glyph glyph-name="Ograve" unicode="&#xd2;" horiz-adv-x="738" 
d="M99 351q14 76 49 143t87 117t119.5 79t145.5 29q79 0 136.5 -29t92.5 -79t46.5 -117t-2.5 -143q-13 -76 -48.5 -143.5t-88 -118t-120 -79.5t-146.5 -29q-78 0 -135 29t-92 79.5t-46 118t2 143.5zM197 351q-11 -64 -4 -119.5t31 -96.5t64 -64.5t94 -23.5t102 23.5t87 64.5
t66 96.5t38 119.5q11 63 3.5 118.5t-31.5 97t-64 65t-94 23.5t-102 -23.5t-86.5 -65t-65.5 -97t-38 -118.5zM532 798l-77 102h87l51 -102h-61z" />
    <glyph glyph-name="Oacute" unicode="&#xd3;" horiz-adv-x="738" 
d="M99 351q14 76 49 143t87 117t119.5 79t145.5 29q79 0 136.5 -29t92.5 -79t46.5 -117t-2.5 -143q-13 -76 -48.5 -143.5t-88 -118t-120 -79.5t-146.5 -29q-78 0 -135 29t-92 79.5t-46 118t2 143.5zM197 351q-11 -64 -4 -119.5t31 -96.5t64 -64.5t94 -23.5t102 23.5t87 64.5
t66 96.5t38 119.5q11 63 3.5 118.5t-31.5 97t-64 65t-94 23.5t-102 -23.5t-86.5 -65t-65.5 -97t-38 -118.5zM523 900h88l-114 -102h-61z" />
    <glyph glyph-name="Ocircumflex" unicode="&#xd4;" horiz-adv-x="738" 
d="M99 351q14 76 49 143t87 117t119.5 79t145.5 29q79 0 136.5 -29t92.5 -79t46.5 -117t-2.5 -143q-13 -76 -48.5 -143.5t-88 -118t-120 -79.5t-146.5 -29q-78 0 -135 29t-92 79.5t-46 118t2 143.5zM197 351q-11 -64 -4 -119.5t31 -96.5t64 -64.5t94 -23.5t102 23.5t87 64.5
t66 96.5t38 119.5q11 63 3.5 118.5t-31.5 97t-64 65t-94 23.5t-102 -23.5t-86.5 -65t-65.5 -97t-38 -118.5zM494 899h74l72 -101h-65l-53 52l-71 -52h-64z" />
    <glyph glyph-name="Otilde" unicode="&#xd5;" horiz-adv-x="738" 
d="M99 351q14 76 49 143t87 117t119.5 79t145.5 29q79 0 136.5 -29t92.5 -79t46.5 -117t-2.5 -143q-13 -76 -48.5 -143.5t-88 -118t-120 -79.5t-146.5 -29q-78 0 -135 29t-92 79.5t-46 118t2 143.5zM197 351q-11 -64 -4 -119.5t31 -96.5t64 -64.5t94 -23.5t102 23.5t87 64.5
t66 96.5t38 119.5q11 63 3.5 118.5t-31.5 97t-64 65t-94 23.5t-102 -23.5t-86.5 -65t-65.5 -97t-38 -118.5zM459 843q-39 0 -79 -46l10 57q22 22 44.5 32t43.5 10q20 0 33 -7t24 -16t22.5 -16t27.5 -7q20 0 40.5 11.5t39.5 34.5l-11 -58q-20 -21 -43.5 -31t-44.5 -10
q-20 0 -33 7t-23.5 16t-22 16t-28.5 7z" />
    <glyph glyph-name="Odieresis" unicode="&#xd6;" horiz-adv-x="738" 
d="M99 351q14 76 49 143t87 117t119.5 79t145.5 29q79 0 136.5 -29t92.5 -79t46.5 -117t-2.5 -143q-13 -76 -48.5 -143.5t-88 -118t-120 -79.5t-146.5 -29q-78 0 -135 29t-92 79.5t-46 118t2 143.5zM197 351q-11 -64 -4 -119.5t31 -96.5t64 -64.5t94 -23.5t102 23.5t87 64.5
t66 96.5t38 119.5q11 63 3.5 118.5t-31.5 97t-64 65t-94 23.5t-102 -23.5t-86.5 -65t-65.5 -97t-38 -118.5zM376 851q3 17 20 32.5t43 15.5q25 0 36 -15.5t8 -32.5q-3 -18 -20 -33.5t-41 -15.5q-26 0 -37.5 15.5t-8.5 33.5zM565 851q3 17 19.5 32.5t42.5 15.5
q25 0 36.5 -15.5t8.5 -32.5q-3 -18 -20 -33.5t-42 -15.5t-36.5 15.5t-8.5 33.5z" />
    <glyph glyph-name="multiply" unicode="&#xd7;" horiz-adv-x="466" 
d="M204 504l98 -120l139 120l28 -35l-140 -119l97 -120l-39 -35l-97 121l-141 -121l-28 34l140 121l-98 120z" />
    <glyph glyph-name="Oslash" unicode="&#xd8;" horiz-adv-x="738" 
d="M816 687l-88 -83q32 -50 42.5 -114.5t-2.5 -138.5q-13 -76 -48.5 -143.5t-88 -117.5t-120 -79t-146.5 -29q-69 0 -121 22t-87 62l-86 -82l-30 29l91 86q-32 50 -41.5 114.5t3.5 137.5q14 76 49 143t87 117t119.5 79t145.5 29q68 0 120 -22t87 -60l84 80zM191 351
q-9 -53 -5.5 -99.5t17.5 -84.5l434 409q-25 38 -63 59t-89 21q-54 0 -102.5 -24t-87.5 -65t-66 -97t-38 -119zM670 351q9 53 5.5 100.5t-18.5 85.5l-434 -409q25 -38 63.5 -60t90.5 -22q54 0 102.5 24t87 65t65.5 96.5t38 119.5z" />
    <glyph glyph-name="Ugrave" unicode="&#xd9;" horiz-adv-x="659" 
d="M143 227q-5 -28 -4 -57.5t13 -53.5t39 -39.5t73 -15.5q42 0 87.5 15t99.5 50l89 503q4 23 -3 38.5t-21 32.5h166q-20 -17 -32 -32.5t-16 -38.5l-98 -558q-5 -23 1.5 -38.5t20.5 -32.5h-124q2 18 3.5 33.5t4.5 33.5q-54 -42 -104.5 -60t-105.5 -18q-61 0 -100 19.5
t-60 52.5t-26 77t4 93l70 398q4 23 -3 38.5t-21 32.5h166q-20 -17 -32 -32.5t-16 -38.5zM491 798l-77 102h87l51 -102h-61z" />
    <glyph glyph-name="Uacute" unicode="&#xda;" horiz-adv-x="659" 
d="M143 227q-5 -28 -4 -57.5t13 -53.5t39 -39.5t73 -15.5q42 0 87.5 15t99.5 50l89 503q4 23 -3 38.5t-21 32.5h166q-20 -17 -32 -32.5t-16 -38.5l-98 -558q-5 -23 1.5 -38.5t20.5 -32.5h-124q2 18 3.5 33.5t4.5 33.5q-54 -42 -104.5 -60t-105.5 -18q-61 0 -100 19.5
t-60 52.5t-26 77t4 93l70 398q4 23 -3 38.5t-21 32.5h166q-20 -17 -32 -32.5t-16 -38.5zM481 900h88l-114 -102h-61z" />
    <glyph glyph-name="Ucircumflex" unicode="&#xdb;" horiz-adv-x="659" 
d="M143 227q-5 -28 -4 -57.5t13 -53.5t39 -39.5t73 -15.5q42 0 87.5 15t99.5 50l89 503q4 23 -3 38.5t-21 32.5h166q-20 -17 -32 -32.5t-16 -38.5l-98 -558q-5 -23 1.5 -38.5t20.5 -32.5h-124q2 18 3.5 33.5t4.5 33.5q-54 -42 -104.5 -60t-105.5 -18q-61 0 -100 19.5
t-60 52.5t-26 77t4 93l70 398q4 23 -3 38.5t-21 32.5h166q-20 -17 -32 -32.5t-16 -38.5zM454 899h74l72 -101h-65l-53 52l-71 -52h-64z" />
    <glyph glyph-name="Udieresis" unicode="&#xdc;" horiz-adv-x="659" 
d="M143 227q-5 -28 -4 -57.5t13 -53.5t39 -39.5t73 -15.5q42 0 87.5 15t99.5 50l89 503q4 23 -3 38.5t-21 32.5h166q-20 -17 -32 -32.5t-16 -38.5l-98 -558q-5 -23 1.5 -38.5t20.5 -32.5h-124q2 18 3.5 33.5t4.5 33.5q-54 -42 -104.5 -60t-105.5 -18q-61 0 -100 19.5
t-60 52.5t-26 77t4 93l70 398q4 23 -3 38.5t-21 32.5h166q-20 -17 -32 -32.5t-16 -38.5zM336 851q3 17 20 32.5t43 15.5q25 0 36 -15.5t8 -32.5q-3 -18 -20 -33.5t-41 -15.5q-26 0 -37.5 15.5t-8.5 33.5zM525 851q3 17 19.5 32.5t42.5 15.5q25 0 36.5 -15.5t8.5 -32.5
q-3 -18 -20 -33.5t-42 -15.5t-36.5 15.5t-8.5 33.5z" />
    <glyph glyph-name="Yacute" unicode="&#xdd;" horiz-adv-x="622" 
d="M352 432q8 -25 14.5 -47t14.5 -50q17 27 33.5 51.5t29.5 45.5l131 199q11 17 15.5 35t-2.5 34h145q-22 -12 -36.5 -26t-31.5 -37l-260 -372l-34 -190q-5 -25 1.5 -41t20.5 -34h-164q20 18 31.5 34t16.5 41l31 175l-126 380q-8 23 -17.5 38t-29.5 32h162
q-13 -10 -17 -30.5t4 -39.5zM459 900h88l-114 -102h-61z" />
    <glyph glyph-name="Thorn" unicode="&#xde;" horiz-adv-x="521" 
d="M328 700q-20 -19 -32 -35t-17 -40l-10 -60h82q63 0 106 -16t68 -43.5t33 -64.5t0 -79q-8 -46 -32.5 -87t-66.5 -72t-102 -49t-139 -18h-25l-11 -60q-5 -26 1.5 -41.5t20.5 -34.5h-164q20 17 31.5 32.5t16.5 38.5l98 558q4 23 -3 38.5t-21 32.5h166zM225 200
q56 0 97.5 12.5t70.5 34.5t46 51.5t23 63.5q5 30 0.5 55.5t-20.5 44t-44.5 29.5t-71.5 11h-68l-54 -302h21z" />
    <glyph glyph-name="germandbls" unicode="&#xdf;" horiz-adv-x="610" 
d="M116 484h59l10 57q16 90 72.5 139t141.5 49q36 0 65.5 -9t49.5 -26t29 -40.5t4 -53.5q-6 -36 -28.5 -65.5t-47.5 -55.5t-46 -50t-25 -48q-3 -15 3 -27.5t18.5 -23t30.5 -19.5t39 -19q19 -9 39.5 -20.5t36.5 -28.5t24.5 -42t2.5 -60q-12 -68 -66 -110t-134 -42
q-37 0 -68 9t-63 25l8 91q32 -29 62 -45t74 -16q47 0 72 18t31 50q7 41 -22 66t-88 52q-11 5 -27 13.5t-30.5 23t-22.5 36t-3 51.5q6 36 27 62t45 50t45 51t28 64q4 23 0 39t-14 26t-24 14t-31 4q-30 0 -51 -11.5t-35 -29.5t-22 -40.5t-12 -43.5l-109 -615q-11 -66 -57 -104
t-116 -38q-41 0 -82 17l13 75q18 -20 35 -28.5t37 -8.5t34.5 7.5t24.5 18.5t15.5 25t8.5 28l88 504h-58z" />
    <glyph glyph-name="agrave" unicode="&#xe0;" horiz-adv-x="504" 
d="M461 81q-2 -12 7.5 -22t27.5 -25l-82 -45q-17 17 -27 30.5t-13 27.5q-30 -27 -65.5 -42.5t-76.5 -15.5q-46 0 -79.5 20t-53 54.5t-25 81t3.5 98.5t32.5 98t58 80t79 54t95.5 20q57 0 103 -24l93 19q-5 -9 -7.5 -16.5t-4.5 -19.5zM268 45q32 0 60.5 16t51.5 44l54 309
q-41 26 -90 26q-34 0 -63 -15.5t-52.5 -42t-39.5 -62t-23 -76.5t-3.5 -77.5t16.5 -63.5t35.5 -42.5t53.5 -15.5zM378 598l-77 102h87l51 -102h-61z" />
    <glyph glyph-name="aacute" unicode="&#xe1;" horiz-adv-x="504" 
d="M461 81q-2 -12 7.5 -22t27.5 -25l-82 -45q-17 17 -27 30.5t-13 27.5q-30 -27 -65.5 -42.5t-76.5 -15.5q-46 0 -79.5 20t-53 54.5t-25 81t3.5 98.5t32.5 98t58 80t79 54t95.5 20q57 0 103 -24l93 19q-5 -9 -7.5 -16.5t-4.5 -19.5zM268 45q32 0 60.5 16t51.5 44l54 309
q-41 26 -90 26q-34 0 -63 -15.5t-52.5 -42t-39.5 -62t-23 -76.5t-3.5 -77.5t16.5 -63.5t35.5 -42.5t53.5 -15.5zM369 700h88l-114 -102h-61z" />
    <glyph glyph-name="acircumflex" unicode="&#xe2;" horiz-adv-x="504" 
d="M461 81q-2 -12 7.5 -22t27.5 -25l-82 -45q-17 17 -27 30.5t-13 27.5q-30 -27 -65.5 -42.5t-76.5 -15.5q-46 0 -79.5 20t-53 54.5t-25 81t3.5 98.5t32.5 98t58 80t79 54t95.5 20q57 0 103 -24l93 19q-5 -9 -7.5 -16.5t-4.5 -19.5zM268 45q32 0 60.5 16t51.5 44l54 309
q-41 26 -90 26q-34 0 -63 -15.5t-52.5 -42t-39.5 -62t-23 -76.5t-3.5 -77.5t16.5 -63.5t35.5 -42.5t53.5 -15.5zM341 699h74l72 -101h-65l-53 52l-71 -52h-64z" />
    <glyph glyph-name="atilde" unicode="&#xe3;" horiz-adv-x="504" 
d="M461 81q-2 -12 7.5 -22t27.5 -25l-82 -45q-17 17 -27 30.5t-13 27.5q-30 -27 -65.5 -42.5t-76.5 -15.5q-46 0 -79.5 20t-53 54.5t-25 81t3.5 98.5t32.5 98t58 80t79 54t95.5 20q57 0 103 -24l93 19q-5 -9 -7.5 -16.5t-4.5 -19.5zM268 45q32 0 60.5 16t51.5 44l54 309
q-41 26 -90 26q-34 0 -63 -15.5t-52.5 -42t-39.5 -62t-23 -76.5t-3.5 -77.5t16.5 -63.5t35.5 -42.5t53.5 -15.5zM306 643q-39 0 -79 -46l10 57q22 22 44.5 32t43.5 10q20 0 33 -7t24 -16t22.5 -16t27.5 -7q20 0 40.5 11.5t39.5 34.5l-11 -58q-20 -21 -43.5 -31t-44.5 -10
q-20 0 -33 7t-23.5 16t-22 16t-28.5 7z" />
    <glyph glyph-name="adieresis" unicode="&#xe4;" horiz-adv-x="504" 
d="M461 81q-2 -12 7.5 -22t27.5 -25l-82 -45q-17 17 -27 30.5t-13 27.5q-30 -27 -65.5 -42.5t-76.5 -15.5q-46 0 -79.5 20t-53 54.5t-25 81t3.5 98.5t32.5 98t58 80t79 54t95.5 20q57 0 103 -24l93 19q-5 -9 -7.5 -16.5t-4.5 -19.5zM268 45q32 0 60.5 16t51.5 44l54 309
q-41 26 -90 26q-34 0 -63 -15.5t-52.5 -42t-39.5 -62t-23 -76.5t-3.5 -77.5t16.5 -63.5t35.5 -42.5t53.5 -15.5zM222 651q3 17 20 32.5t43 15.5q25 0 36 -15.5t8 -32.5q-3 -18 -20 -33.5t-41 -15.5q-26 0 -37.5 15.5t-8.5 33.5zM411 651q3 17 19.5 32.5t42.5 15.5
q25 0 36.5 -15.5t8.5 -32.5q-3 -18 -20 -33.5t-42 -15.5t-36.5 15.5t-8.5 33.5z" />
    <glyph glyph-name="aring" unicode="&#xe5;" horiz-adv-x="504" 
d="M461 81q-2 -12 7.5 -22t27.5 -25l-82 -45q-17 17 -27 30.5t-13 27.5q-30 -27 -65.5 -42.5t-76.5 -15.5q-46 0 -79.5 20t-53 54.5t-25 81t3.5 98.5t32.5 98t58 80t79 54t95.5 20q57 0 103 -24l93 19q-5 -9 -7.5 -16.5t-4.5 -19.5zM268 45q32 0 60.5 16t51.5 44l54 309
q-41 26 -90 26q-34 0 -63 -15.5t-52.5 -42t-39.5 -62t-23 -76.5t-3.5 -77.5t16.5 -63.5t35.5 -42.5t53.5 -15.5zM288 656q3 17 12 32t22.5 26t29.5 18t33 7q35 0 54.5 -25t14.5 -58q-6 -35 -34.5 -59.5t-63.5 -24.5q-34 0 -54 24.5t-14 59.5zM326 655q-3 -18 8 -32t28 -14
q18 0 33.5 14t18.5 32q4 19 -6.5 32.5t-28.5 13.5q-17 0 -33 -13.5t-20 -32.5z" />
    <glyph glyph-name="ae" unicode="&#xe6;" horiz-adv-x="769" 
d="M324 495q53 0 86 -18t47 -49q32 31 72 49t88 18q47 0 82 -18.5t55.5 -51.5t27 -79t-3.5 -101l-4 -26h-325q-2 -36 5.5 -67t25 -53.5t44.5 -35.5t63 -13q40 0 76.5 15.5t68.5 41.5l-23 -80q-31 -18 -69 -28t-78 -10q-66 0 -111.5 27t-68.5 75q-23 -45 -67.5 -73.5
t-103.5 -28.5q-39 0 -67.5 12t-46 32.5t-24 47.5t-1.5 56q7 37 31 68.5t63 54.5t91 37t115 15l5 26q3 18 2.5 36t-8 31.5t-23 22t-42.5 8.5q-30 0 -68 -12.5t-80 -43.5l14 79q42 19 80 27.5t72 8.5zM238 50q40 0 68.5 27t35.5 66l21 119q-84 -4 -139 -33.5t-64 -83.5
q-3 -16 -1 -33t11 -30.5t25.5 -22.5t42.5 -9zM686 278q5 33 3 61.5t-11.5 49.5t-27.5 33t-45 12t-50.5 -12.5t-42.5 -34t-32.5 -50t-21.5 -59.5h228zM453 254q-2 -8 -2 -12l4 22q-2 -6 -2 -10z" />
    <glyph glyph-name="ccedilla" unicode="&#xe7;" horiz-adv-x="446" 
d="M415 27q-31 -18 -67 -28t-75 -10q-55 0 -96 20t-65.5 54.5t-33 81t0.5 98.5t34 98t63 80t87.5 54t107.5 20q37 0 70 -8t60 -22l-26 -76q-18 21 -46 33t-63 12q-41 0 -74.5 -16t-59 -42.5t-42.5 -61t-23 -71.5q-7 -37 -2.5 -72t21 -62t44 -43t67.5 -16q38 0 73.5 15.5
t67.5 41.5zM167 -180q28 17 49 37.5t26 43.5q2 11 0 20.5t-10 19.5h79q5 -10 8 -18.5t1 -18.5q-9 -51 -131 -113z" />
    <glyph glyph-name="egrave" unicode="&#xe8;" horiz-adv-x="487" 
d="M170 219q-2 -36 5.5 -67t24.5 -53.5t44 -35.5t63 -13q41 0 77.5 15.5t68.5 41.5l-24 -80q-31 -18 -68.5 -28t-78.5 -10q-57 0 -99.5 20t-68.5 55t-35 82t1 102q9 50 31 95t55.5 79t76.5 53.5t93 19.5q48 0 83 -18.5t56 -51.5t27.5 -79t-3.5 -101l-4 -26h-325zM407 278
q5 33 3 61.5t-12.5 49.5t-28.5 33t-44 12q-27 0 -50.5 -12.5t-42 -34t-32 -50t-21.5 -59.5h228zM371 598l-77 102h87l51 -102h-61z" />
    <glyph glyph-name="eacute" unicode="&#xe9;" horiz-adv-x="487" 
d="M170 219q-2 -36 5.5 -67t24.5 -53.5t44 -35.5t63 -13q41 0 77.5 15.5t68.5 41.5l-24 -80q-31 -18 -68.5 -28t-78.5 -10q-57 0 -99.5 20t-68.5 55t-35 82t1 102q9 50 31 95t55.5 79t76.5 53.5t93 19.5q48 0 83 -18.5t56 -51.5t27.5 -79t-3.5 -101l-4 -26h-325zM407 278
q5 33 3 61.5t-12.5 49.5t-28.5 33t-44 12q-27 0 -50.5 -12.5t-42 -34t-32 -50t-21.5 -59.5h228zM362 700h88l-114 -102h-61z" />
    <glyph glyph-name="ecircumflex" unicode="&#xea;" horiz-adv-x="487" 
d="M170 219q-2 -36 5.5 -67t24.5 -53.5t44 -35.5t63 -13q41 0 77.5 15.5t68.5 41.5l-24 -80q-31 -18 -68.5 -28t-78.5 -10q-57 0 -99.5 20t-68.5 55t-35 82t1 102q9 50 31 95t55.5 79t76.5 53.5t93 19.5q48 0 83 -18.5t56 -51.5t27.5 -79t-3.5 -101l-4 -26h-325zM407 278
q5 33 3 61.5t-12.5 49.5t-28.5 33t-44 12q-27 0 -50.5 -12.5t-42 -34t-32 -50t-21.5 -59.5h228zM333 699h74l72 -101h-65l-53 52l-71 -52h-64z" />
    <glyph glyph-name="edieresis" unicode="&#xeb;" horiz-adv-x="487" 
d="M170 219q-2 -36 5.5 -67t24.5 -53.5t44 -35.5t63 -13q41 0 77.5 15.5t68.5 41.5l-24 -80q-31 -18 -68.5 -28t-78.5 -10q-57 0 -99.5 20t-68.5 55t-35 82t1 102q9 50 31 95t55.5 79t76.5 53.5t93 19.5q48 0 83 -18.5t56 -51.5t27.5 -79t-3.5 -101l-4 -26h-325zM407 278
q5 33 3 61.5t-12.5 49.5t-28.5 33t-44 12q-27 0 -50.5 -12.5t-42 -34t-32 -50t-21.5 -59.5h228zM215 651q3 17 20 32.5t43 15.5q25 0 36 -15.5t8 -32.5q-3 -18 -20 -33.5t-41 -15.5q-26 0 -37.5 15.5t-8.5 33.5zM404 651q3 17 19.5 32.5t42.5 15.5q25 0 36.5 -15.5
t8.5 -32.5q-3 -18 -20 -33.5t-42 -15.5t-36.5 15.5t-8.5 33.5z" />
    <glyph glyph-name="igrave" unicode="&#xec;" horiz-adv-x="212" 
d="M161 63q-4 -21 1.5 -34.5t16.5 -28.5h-144q17 15 26.5 28.5t13.5 34.5l63 359q4 20 -1.5 33.5t-17.5 28.5h122q-5 -9 -7.5 -16.5t-4.5 -19.5zM230 598l-77 102h87l51 -102h-61z" />
    <glyph glyph-name="iacute" unicode="&#xed;" horiz-adv-x="212" 
d="M161 63q-4 -21 1.5 -34.5t16.5 -28.5h-144q17 15 26.5 28.5t13.5 34.5l63 359q4 20 -1.5 33.5t-17.5 28.5h122q-5 -9 -7.5 -16.5t-4.5 -19.5zM219 700h88l-114 -102h-61z" />
    <glyph glyph-name="icircumflex" unicode="&#xee;" horiz-adv-x="212" 
d="M161 63q-4 -21 1.5 -34.5t16.5 -28.5h-144q17 15 26.5 28.5t13.5 34.5l63 359q4 20 -1.5 33.5t-17.5 28.5h122q-5 -9 -7.5 -16.5t-4.5 -19.5zM192 699h74l72 -101h-65l-53 52l-71 -52h-64z" />
    <glyph glyph-name="idieresis" unicode="&#xef;" horiz-adv-x="212" 
d="M161 63q-4 -21 1.5 -34.5t16.5 -28.5h-144q17 15 26.5 28.5t13.5 34.5l63 359q4 20 -1.5 33.5t-17.5 28.5h122q-5 -9 -7.5 -16.5t-4.5 -19.5zM73 651q3 17 20 32.5t43 15.5q25 0 36 -15.5t8 -32.5q-3 -18 -20 -33.5t-41 -15.5q-26 0 -37.5 15.5t-8.5 33.5zM262 651
q3 17 19.5 32.5t42.5 15.5q25 0 36.5 -15.5t8.5 -32.5q-3 -18 -20 -33.5t-42 -15.5t-36.5 15.5t-8.5 33.5z" />
    <glyph glyph-name="eth" unicode="&#xf0;" horiz-adv-x="531" 
d="M276 586l106 56q-15 18 -31.5 35t-36.5 34l73 18q16 -12 30 -26t27 -28l96 50l17 -42l-84 -45q51 -72 72 -164.5t3 -195.5q-12 -66 -37.5 -119t-62.5 -91t-84 -58.5t-101 -20.5t-93.5 20t-63.5 54.5t-32 81t1 98.5t33.5 98t59.5 80t80 54t94 20q45 0 75.5 -17t53.5 -51
q0 42 -15.5 87t-46.5 91l-115 -61zM163 243q-7 -38 -2.5 -73t18.5 -61.5t38 -42.5t56 -16q34 0 64 16t53.5 42.5t40 61.5t23.5 73q6 37 2 71.5t-18.5 61t-38.5 42.5t-58 16q-32 0 -61.5 -16t-53.5 -42.5t-40.5 -61t-22.5 -71.5z" />
    <glyph glyph-name="ntilde" unicode="&#xf1;" horiz-adv-x="507" 
d="M161 63q-4 -21 1.5 -34.5t16.5 -28.5h-144q17 15 26.5 28.5t13.5 34.5l58 329q4 20 -1.5 33.5t-17.5 28.5l106 30q2 -17 3 -31.5t-1 -31.5q51 39 95 56.5t82 17.5q33 0 57 -12t38 -32.5t18 -48t-1 -57.5l-43 -244q-3 -17 5.5 -31t25.5 -36l-82 -45q-22 30 -32 51t-5 52
l44 250q3 16 2.5 32t-7.5 29.5t-21 22t-38 8.5q-27 0 -63 -13.5t-81 -45.5zM305 643q-39 0 -79 -46l10 57q22 22 44.5 32t43.5 10q20 0 33 -7t24 -16t22.5 -16t27.5 -7q20 0 40.5 11.5t39.5 34.5l-11 -58q-20 -21 -43.5 -31t-44.5 -10q-20 0 -33 7t-23.5 16t-22 16t-28.5 7z
" />
    <glyph glyph-name="ograve" unicode="&#xf2;" horiz-adv-x="537" 
d="M79 243q9 52 33.5 98t61 80t84 54t101.5 20q55 0 95.5 -20t65 -54t33 -80t-0.5 -98t-34 -98.5t-61.5 -81t-84 -54.5t-102.5 -20q-54 0 -94.5 20t-65 54.5t-32.5 81t1 98.5zM167 243q-7 -38 -2.5 -73t19 -61.5t39 -42.5t57.5 -16q34 0 64.5 16t55 42.5t41 61.5t23.5 73
q6 37 1.5 71.5t-19 61t-39.5 42.5t-59 16q-33 0 -63 -16t-54 -42.5t-41 -61t-23 -71.5zM396 598l-77 102h87l51 -102h-61z" />
    <glyph glyph-name="oacute" unicode="&#xf3;" horiz-adv-x="537" 
d="M79 243q9 52 33.5 98t61 80t84 54t101.5 20q55 0 95.5 -20t65 -54t33 -80t-0.5 -98t-34 -98.5t-61.5 -81t-84 -54.5t-102.5 -20q-54 0 -94.5 20t-65 54.5t-32.5 81t1 98.5zM167 243q-7 -38 -2.5 -73t19 -61.5t39 -42.5t57.5 -16q34 0 64.5 16t55 42.5t41 61.5t23.5 73
q6 37 1.5 71.5t-19 61t-39.5 42.5t-59 16q-33 0 -63 -16t-54 -42.5t-41 -61t-23 -71.5zM387 700h88l-114 -102h-61z" />
    <glyph glyph-name="ocircumflex" unicode="&#xf4;" horiz-adv-x="537" 
d="M79 243q9 52 33.5 98t61 80t84 54t101.5 20q55 0 95.5 -20t65 -54t33 -80t-0.5 -98t-34 -98.5t-61.5 -81t-84 -54.5t-102.5 -20q-54 0 -94.5 20t-65 54.5t-32.5 81t1 98.5zM167 243q-7 -38 -2.5 -73t19 -61.5t39 -42.5t57.5 -16q34 0 64.5 16t55 42.5t41 61.5t23.5 73
q6 37 1.5 71.5t-19 61t-39.5 42.5t-59 16q-33 0 -63 -16t-54 -42.5t-41 -61t-23 -71.5zM358 699h74l72 -101h-65l-53 52l-71 -52h-64z" />
    <glyph glyph-name="otilde" unicode="&#xf5;" horiz-adv-x="537" 
d="M79 243q9 52 33.5 98t61 80t84 54t101.5 20q55 0 95.5 -20t65 -54t33 -80t-0.5 -98t-34 -98.5t-61.5 -81t-84 -54.5t-102.5 -20q-54 0 -94.5 20t-65 54.5t-32.5 81t1 98.5zM167 243q-7 -38 -2.5 -73t19 -61.5t39 -42.5t57.5 -16q34 0 64.5 16t55 42.5t41 61.5t23.5 73
q6 37 1.5 71.5t-19 61t-39.5 42.5t-59 16q-33 0 -63 -16t-54 -42.5t-41 -61t-23 -71.5zM323 643q-39 0 -79 -46l10 57q22 22 44.5 32t43.5 10q20 0 33 -7t24 -16t22.5 -16t27.5 -7q20 0 40.5 11.5t39.5 34.5l-11 -58q-20 -21 -43.5 -31t-44.5 -10q-20 0 -33 7t-23.5 16
t-22 16t-28.5 7z" />
    <glyph glyph-name="odieresis" unicode="&#xf6;" horiz-adv-x="537" 
d="M79 243q9 52 33.5 98t61 80t84 54t101.5 20q55 0 95.5 -20t65 -54t33 -80t-0.5 -98t-34 -98.5t-61.5 -81t-84 -54.5t-102.5 -20q-54 0 -94.5 20t-65 54.5t-32.5 81t1 98.5zM167 243q-7 -38 -2.5 -73t19 -61.5t39 -42.5t57.5 -16q34 0 64.5 16t55 42.5t41 61.5t23.5 73
q6 37 1.5 71.5t-19 61t-39.5 42.5t-59 16q-33 0 -63 -16t-54 -42.5t-41 -61t-23 -71.5zM240 651q3 17 20 32.5t43 15.5q25 0 36 -15.5t8 -32.5q-3 -18 -20 -33.5t-41 -15.5q-26 0 -37.5 15.5t-8.5 33.5zM429 651q3 17 19.5 32.5t42.5 15.5q25 0 36.5 -15.5t8.5 -32.5
q-3 -18 -20 -33.5t-42 -15.5t-36.5 15.5t-8.5 33.5z" />
    <glyph glyph-name="divide" unicode="&#xf7;" horiz-adv-x="635" 
d="M287 173q5 27 27 42.5t45 15.5q21 0 38 -15t12 -43q-5 -29 -27 -43.5t-44 -14.5t-39 15t-12 43zM350 529q5 27 27 42t44 15q11 0 21 -4t17.5 -11t11 -17.5t1.5 -24.5q-5 -29 -27.5 -44.5t-43.5 -15.5q-23 0 -39.5 15.5t-11.5 44.5zM113 375h542l-9 -50h-542z" />
    <glyph glyph-name="oslash" unicode="&#xf8;" horiz-adv-x="532" 
d="M575 466l-56 -53q21 -34 28 -77.5t-2 -92.5q-9 -52 -34 -98.5t-61.5 -81t-84 -54.5t-102.5 -20q-45 0 -79 13.5t-59 36.5l-53 -50l-30 30l56 53q-43 71 -26 171q9 52 33.5 98t61.5 80t84 54t102 20q45 0 79.5 -13.5t59.5 -36.5l53 50zM160 243q-10 -58 5 -108l267 253
q-15 22 -38 34.5t-54 12.5q-33 0 -63 -16t-54 -43t-40.5 -61.5t-22.5 -71.5zM457 243q11 58 -5 106l-268 -254q15 -21 37 -33.5t51 -12.5q35 0 65.5 16t55 43t41.5 62t23 73z" />
    <glyph glyph-name="ugrave" unicode="&#xf9;" horiz-adv-x="519" 
d="M134 392q4 20 -1 33.5t-17 28.5l127 30q-8 -15 -11 -28.5t-7 -33.5l-49 -280q-3 -16 -2 -32t7.5 -29.5t20 -22t37.5 -8.5q27 0 63 13.5t82 45.5l50 283q4 20 -1.5 33.5t-17.5 28.5l127 30q-5 -9 -7.5 -16.5t-4.5 -19.5l-61 -347q-3 -17 5.5 -31t25.5 -36l-82 -45
q-17 23 -26.5 39.5t-11.5 35.5q-51 -40 -96 -57.5t-83 -17.5q-33 0 -57 12t-37.5 32.5t-18 48t1.5 57.5zM385 598l-77 102h87l51 -102h-61z" />
    <glyph glyph-name="uacute" unicode="&#xfa;" horiz-adv-x="519" 
d="M134 392q4 20 -1 33.5t-17 28.5l127 30q-8 -15 -11 -28.5t-7 -33.5l-49 -280q-3 -16 -2 -32t7.5 -29.5t20 -22t37.5 -8.5q27 0 63 13.5t82 45.5l50 283q4 20 -1.5 33.5t-17.5 28.5l127 30q-5 -9 -7.5 -16.5t-4.5 -19.5l-61 -347q-3 -17 5.5 -31t25.5 -36l-82 -45
q-17 23 -26.5 39.5t-11.5 35.5q-51 -40 -96 -57.5t-83 -17.5q-33 0 -57 12t-37.5 32.5t-18 48t1.5 57.5zM375 700h88l-114 -102h-61z" />
    <glyph glyph-name="ucircumflex" unicode="&#xfb;" horiz-adv-x="519" 
d="M134 392q4 20 -1 33.5t-17 28.5l127 30q-8 -15 -11 -28.5t-7 -33.5l-49 -280q-3 -16 -2 -32t7.5 -29.5t20 -22t37.5 -8.5q27 0 63 13.5t82 45.5l50 283q4 20 -1.5 33.5t-17.5 28.5l127 30q-5 -9 -7.5 -16.5t-4.5 -19.5l-61 -347q-3 -17 5.5 -31t25.5 -36l-82 -45
q-17 23 -26.5 39.5t-11.5 35.5q-51 -40 -96 -57.5t-83 -17.5q-33 0 -57 12t-37.5 32.5t-18 48t1.5 57.5zM348 699h74l72 -101h-65l-53 52l-71 -52h-64z" />
    <glyph glyph-name="udieresis" unicode="&#xfc;" horiz-adv-x="519" 
d="M134 392q4 20 -1 33.5t-17 28.5l127 30q-8 -15 -11 -28.5t-7 -33.5l-49 -280q-3 -16 -2 -32t7.5 -29.5t20 -22t37.5 -8.5q27 0 63 13.5t82 45.5l50 283q4 20 -1.5 33.5t-17.5 28.5l127 30q-5 -9 -7.5 -16.5t-4.5 -19.5l-61 -347q-3 -17 5.5 -31t25.5 -36l-82 -45
q-17 23 -26.5 39.5t-11.5 35.5q-51 -40 -96 -57.5t-83 -17.5q-33 0 -57 12t-37.5 32.5t-18 48t1.5 57.5zM229 651q3 17 20 32.5t43 15.5q25 0 36 -15.5t8 -32.5q-3 -18 -20 -33.5t-41 -15.5q-26 0 -37.5 15.5t-8.5 33.5zM418 651q3 17 19.5 32.5t42.5 15.5q25 0 36.5 -15.5
t8.5 -32.5q-3 -18 -20 -33.5t-42 -15.5t-36.5 15.5t-8.5 33.5z" />
    <glyph glyph-name="yacute" unicode="&#xfd;" horiz-adv-x="501" 
d="M441 411q11 21 14.5 38t-4.5 35h123q-20 -17 -32 -32t-24 -38l-223 -410q-58 -104 -113.5 -158.5t-100.5 -54.5q-26 0 -48 18t-22 53q19 -11 40 -11q15 0 33.5 7.5t39.5 25t44 46.5t47 72l-86 412q-5 23 -11.5 38t-20.5 32h133q-12 -17 -13 -35.5t2 -37.5l35 -164
q7 -35 13 -69.5t14 -69.5q17 35 35 69.5t37 69.5zM365 700h88l-114 -102h-61z" />
    <glyph glyph-name="thorn" unicode="&#xfe;" horiz-adv-x="513" 
d="M9 -209q11 15 17 28.5t10 33.5l142 804q4 20 -2 33.5t-17 28.5h123q-5 -9 -8.5 -16.5t-5.5 -19.5l-42 -240q29 25 63 38.5t72 13.5q46 0 79.5 -20t53 -54.5t25 -80.5t-3.5 -99q-9 -52 -32.5 -98t-58 -80t-79 -54t-95.5 -20q-56 0 -100 22l-26 -145q-4 -25 1.5 -41
t16.5 -34h-133zM325 439q-32 0 -59.5 -15.5t-50.5 -43.5l-55 -311q42 -25 90 -25q33 0 62 15.5t52 42t39 62t23 76.5q8 41 4.5 77.5t-16.5 63.5t-35.5 42.5t-53.5 15.5z" />
    <glyph glyph-name="ydieresis" unicode="&#xff;" horiz-adv-x="501" 
d="M441 411q11 21 14.5 38t-4.5 35h123q-20 -17 -32 -32t-24 -38l-223 -410q-58 -104 -113.5 -158.5t-100.5 -54.5q-26 0 -48 18t-22 53q19 -11 40 -11q15 0 33.5 7.5t39.5 25t44 46.5t47 72l-86 412q-5 23 -11.5 38t-20.5 32h133q-12 -17 -13 -35.5t2 -37.5l35 -164
q7 -35 13 -69.5t14 -69.5q17 35 35 69.5t37 69.5zM218 651q3 17 20 32.5t43 15.5q25 0 36 -15.5t8 -32.5q-3 -18 -20 -33.5t-41 -15.5q-26 0 -37.5 15.5t-8.5 33.5zM407 651q3 17 19.5 32.5t42.5 15.5q25 0 36.5 -15.5t8.5 -32.5q-3 -18 -20 -33.5t-42 -15.5t-36.5 15.5
t-8.5 33.5z" />
    <glyph glyph-name="Amacron" unicode="&#x100;" 
d="M176 82q-12 -25 -8.5 -46.5t18.5 -35.5h-166q24 14 41 30.5t32 45.5l280 544q8 17 8.5 40.5t-18.5 39.5h155l102 -621q5 -26 16.5 -42.5t31.5 -36.5h-184q23 15 32.5 33.5t4.5 47.5l-22 152h-247zM490 298l-47 320l-159 -320h206zM367 880h265l-9 -50h-265z" />
    <glyph glyph-name="amacron" unicode="&#x101;" horiz-adv-x="504" 
d="M461 81q-2 -12 7.5 -22t27.5 -25l-82 -45q-17 17 -27 30.5t-13 27.5q-30 -27 -65.5 -42.5t-76.5 -15.5q-46 0 -79.5 20t-53 54.5t-25 81t3.5 98.5t32.5 98t58 80t79 54t95.5 20q57 0 103 -24l93 19q-5 -9 -7.5 -16.5t-4.5 -19.5zM268 45q32 0 60.5 16t51.5 44l54 309
q-41 26 -90 26q-34 0 -63 -15.5t-52.5 -42t-39.5 -62t-23 -76.5t-3.5 -77.5t16.5 -63.5t35.5 -42.5t53.5 -15.5zM243 680h265l-9 -50h-265z" />
    <glyph glyph-name="Abreve" unicode="&#x102;" 
d="M176 82q-12 -25 -8.5 -46.5t18.5 -35.5h-166q24 14 41 30.5t32 45.5l280 544q8 17 8.5 40.5t-18.5 39.5h155l102 -621q5 -26 16.5 -42.5t31.5 -36.5h-184q23 15 32.5 33.5t4.5 47.5l-22 152h-247zM490 298l-47 320l-159 -320h206zM614 899q-8 -48 -44 -80.5t-87 -32.5
q-25 0 -44.5 9t-31.5 24t-16 35.5t0 44.5h36q-5 -23 13 -38t53 -15q33 0 57 15t28 38h36z" />
    <glyph glyph-name="abreve" unicode="&#x103;" horiz-adv-x="504" 
d="M461 81q-2 -12 7.5 -22t27.5 -25l-82 -45q-17 17 -27 30.5t-13 27.5q-30 -27 -65.5 -42.5t-76.5 -15.5q-46 0 -79.5 20t-53 54.5t-25 81t3.5 98.5t32.5 98t58 80t79 54t95.5 20q57 0 103 -24l93 19q-5 -9 -7.5 -16.5t-4.5 -19.5zM268 45q32 0 60.5 16t51.5 44l54 309
q-41 26 -90 26q-34 0 -63 -15.5t-52.5 -42t-39.5 -62t-23 -76.5t-3.5 -77.5t16.5 -63.5t35.5 -42.5t53.5 -15.5zM490 699q-8 -48 -44 -80.5t-87 -32.5q-25 0 -44.5 9t-31.5 24t-16 35.5t0 44.5h36q-5 -23 13 -38t53 -15q33 0 57 15t28 38h36z" />
    <glyph glyph-name="Aogonek" unicode="&#x104;" 
d="M176 82q-12 -25 -8.5 -46.5t18.5 -35.5h-166q24 14 41 30.5t32 45.5l280 544q8 17 8.5 40.5t-18.5 39.5h155l102 -621q5 -26 16.5 -42.5t31.5 -36.5h-184q23 15 32.5 33.5t4.5 47.5l-22 152h-247zM490 298l-47 320l-159 -320h206zM638 -170q-35 -13 -69 -13
q-14 0 -27.5 4.5t-23.5 14t-14.5 24.5t-0.5 35q4 22 19 47.5t45 57.5h36q-21 -26 -27.5 -43.5t-8.5 -27.5q-2 -12 -2 -25t5 -23t16.5 -16.5t30.5 -6.5q12 0 27 3z" />
    <glyph glyph-name="aogonek" unicode="&#x105;" horiz-adv-x="504" 
d="M461 81q-2 -12 7.5 -22t27.5 -25l-82 -45q-17 17 -27 30.5t-13 27.5q-30 -27 -65.5 -42.5t-76.5 -15.5q-46 0 -79.5 20t-53 54.5t-25 81t3.5 98.5t32.5 98t58 80t79 54t95.5 20q57 0 103 -24l93 19q-5 -9 -7.5 -16.5t-4.5 -19.5zM268 45q32 0 60.5 16t51.5 44l54 309
q-41 26 -90 26q-34 0 -63 -15.5t-52.5 -42t-39.5 -62t-23 -76.5t-3.5 -77.5t16.5 -63.5t35.5 -42.5t53.5 -15.5zM472 -160q-35 -13 -69 -13q-14 0 -27.5 4.5t-23.5 14t-14.5 24.5t-0.5 35q4 22 19 47.5t45 57.5h36q-21 -26 -27.5 -43.5t-8.5 -27.5q-2 -12 -2 -25t5 -23
t16.5 -16.5t30.5 -6.5q12 0 27 3z" />
    <glyph glyph-name="Cacute" unicode="&#x106;" horiz-adv-x="592" 
d="M585 23q-45 -20 -98 -31t-105 -11q-84 0 -144 29t-95 79.5t-46 118t2 143.5q14 76 48.5 143t87.5 117t122.5 79t152.5 29q54 0 103 -12t89 -32l-36 -107q-23 40 -63.5 63.5t-99.5 23.5q-58 0 -108.5 -23.5t-91 -65t-68 -97t-38.5 -118.5t-3 -118.5t34 -97t70.5 -65
t105.5 -23.5t116.5 23t93.5 61zM450 900h88l-114 -102h-61z" />
    <glyph glyph-name="cacute" unicode="&#x107;" horiz-adv-x="446" 
d="M415 27q-31 -18 -67 -28t-75 -10q-55 0 -96 20t-65.5 54.5t-33 81t0.5 98.5t34 98t63 80t87.5 54t107.5 20q37 0 70 -8t60 -22l-26 -76q-18 21 -46 33t-63 12q-41 0 -74.5 -16t-59 -42.5t-42.5 -61t-23 -71.5q-7 -37 -2.5 -72t21 -62t44 -43t67.5 -16q38 0 73.5 15.5
t67.5 41.5zM341 700h88l-114 -102h-61z" />
    <glyph glyph-name="Ccaron" unicode="&#x10c;" horiz-adv-x="592" 
d="M585 23q-45 -20 -98 -31t-105 -11q-84 0 -144 29t-95 79.5t-46 118t2 143.5q14 76 48.5 143t87.5 117t122.5 79t152.5 29q54 0 103 -12t89 -32l-36 -107q-23 40 -63.5 63.5t-99.5 23.5q-58 0 -108.5 -23.5t-91 -65t-68 -97t-38.5 -118.5t-3 -118.5t34 -97t70.5 -65
t105.5 -23.5t116.5 23t93.5 61zM333 899h64l53 -52l71 52h65l-108 -101h-73z" />
    <glyph glyph-name="ccaron" unicode="&#x10d;" horiz-adv-x="446" 
d="M415 27q-31 -18 -67 -28t-75 -10q-55 0 -96 20t-65.5 54.5t-33 81t0.5 98.5t34 98t63 80t87.5 54t107.5 20q37 0 70 -8t60 -22l-26 -76q-18 21 -46 33t-63 12q-41 0 -74.5 -16t-59 -42.5t-42.5 -61t-23 -71.5q-7 -37 -2.5 -72t21 -62t44 -43t67.5 -16q38 0 73.5 15.5
t67.5 41.5zM224 699h64l53 -52l71 52h65l-108 -101h-73z" />
    <glyph glyph-name="Dcaron" unicode="&#x10e;" horiz-adv-x="642" 
d="M269 61q68 0 120 22.5t89.5 61.5t61 92t34.5 114q11 60 6.5 113t-26.5 92t-64 61.5t-108 22.5h-100l-102 -579h89zM40 0q20 17 31.5 32.5t16.5 38.5l98 558q4 23 -3 38.5t-21 32.5h232q87 0 146 -27.5t92.5 -75t43 -111.5t-3.5 -136t-44.5 -135.5t-81.5 -111.5
t-119 -75.5t-156 -27.5h-231zM353 899h64l53 -52l71 52h65l-108 -101h-73z" />
    <glyph glyph-name="dcaron" unicode="&#x10f;" horiz-adv-x="734" 
d="M461 81q-2 -12 7.5 -22t27.5 -25l-82 -45q-17 17 -27 30.5t-13 27.5q-30 -27 -65.5 -42.5t-76.5 -15.5q-46 0 -79.5 20t-53 54.5t-25 81t3.5 98.5t32.5 98t58 80t79 54t95.5 20q55 0 101 -23l28 155q3 20 -2.5 33.5t-17.5 28.5l128 30q-5 -9 -8 -16.5t-5 -19.5zM268 45
q32 0 60.5 16t51.5 44l54 309q-41 26 -90 26q-34 0 -63 -15.5t-52.5 -42t-39.5 -62t-23 -76.5t-3.5 -77.5t16.5 -63.5t35.5 -42.5t53.5 -15.5zM683 660q5 26 25.5 42.5t45.5 16.5q24 0 37.5 -18t7.5 -53q-4 -24 -16.5 -49t-30.5 -47.5t-40 -41.5t-44 -32h-39q29 24 57 56
t36 65q-20 6 -31.5 22.5t-7.5 38.5z" />
    <glyph glyph-name="Dcroat" unicode="&#x110;" horiz-adv-x="685" 
d="M153 374h86l45 255q4 23 -3 38.5t-21 32.5h232q87 0 146 -27.5t92.5 -75t43 -111.5t-3.5 -136t-44.5 -135.5t-81.5 -111.5t-119 -75.5t-156 -27.5h-231q20 17 31.5 32.5t16.5 38.5l45 256h-86zM368 61q68 0 119.5 22.5t89 61.5t61 92t34.5 114q11 60 6.5 113t-26.5 92
t-64 61.5t-108 22.5h-100l-47 -266h163l-8 -47h-163l-47 -266h90z" />
    <glyph glyph-name="dcroat" unicode="&#x111;" horiz-adv-x="513" 
d="M461 81q-2 -12 7.5 -22t27.5 -25l-82 -45q-17 17 -27 30.5t-13 27.5q-30 -27 -65.5 -42.5t-76.5 -15.5q-46 0 -79.5 20t-53 54.5t-25 81t3.5 98.5t32.5 98t58 80t79 54t95.5 20q55 0 101 -23l28 155q3 20 -2.5 33.5t-17.5 28.5l128 30q-5 -9 -8 -16.5t-5 -19.5zM268 45
q32 0 60.5 16t51.5 44l54 309q-41 26 -90 26q-34 0 -63 -15.5t-52.5 -42t-39.5 -62t-23 -76.5t-3.5 -77.5t16.5 -63.5t35.5 -42.5t53.5 -15.5zM372 630h265l-9 -50h-265z" />
    <glyph glyph-name="Emacron" unicode="&#x112;" horiz-adv-x="473" 
d="M179 59h173q38 0 66 9.5t60 26.5l-33 -95h-405q20 17 31.5 32t16.5 39l98 558q4 23 -3 38.5t-21 32.5h392l-16 -95q-13 17 -25 26.5t-33 9.5h-198l-45 -253h156q26 0 44 5t41 24l-21 -114q-17 14 -32 22t-41 8h-156zM259 880h265l-9 -50h-265z" />
    <glyph glyph-name="emacron" unicode="&#x113;" horiz-adv-x="487" 
d="M170 219q-2 -36 5.5 -67t24.5 -53.5t44 -35.5t63 -13q41 0 77.5 15.5t68.5 41.5l-24 -80q-31 -18 -68.5 -28t-78.5 -10q-57 0 -99.5 20t-68.5 55t-35 82t1 102q9 50 31 95t55.5 79t76.5 53.5t93 19.5q48 0 83 -18.5t56 -51.5t27.5 -79t-3.5 -101l-4 -26h-325zM407 278
q5 33 3 61.5t-12.5 49.5t-28.5 33t-44 12q-27 0 -50.5 -12.5t-42 -34t-32 -50t-21.5 -59.5h228zM235 680h265l-9 -50h-265z" />
    <glyph glyph-name="Edotaccent" unicode="&#x116;" horiz-adv-x="473" 
d="M179 59h173q38 0 66 9.5t60 26.5l-33 -95h-405q20 17 31.5 32t16.5 39l98 558q4 23 -3 38.5t-21 32.5h392l-16 -95q-13 17 -25 26.5t-33 9.5h-198l-45 -253h156q26 0 44 5t41 24l-21 -114q-17 14 -32 22t-41 8h-156zM333 849q4 23 23 36.5t39 13.5t34.5 -13.5t10.5 -36.5
q-5 -24 -24.5 -37.5t-38.5 -13.5t-33.5 13.5t-10.5 37.5z" />
    <glyph glyph-name="edotaccent" unicode="&#x117;" horiz-adv-x="487" 
d="M170 219q-2 -36 5.5 -67t24.5 -53.5t44 -35.5t63 -13q41 0 77.5 15.5t68.5 41.5l-24 -80q-31 -18 -68.5 -28t-78.5 -10q-57 0 -99.5 20t-68.5 55t-35 82t1 102q9 50 31 95t55.5 79t76.5 53.5t93 19.5q48 0 83 -18.5t56 -51.5t27.5 -79t-3.5 -101l-4 -26h-325zM407 278
q5 33 3 61.5t-12.5 49.5t-28.5 33t-44 12q-27 0 -50.5 -12.5t-42 -34t-32 -50t-21.5 -59.5h228zM309 649q4 23 23 36.5t39 13.5t34.5 -13.5t10.5 -36.5q-5 -24 -24.5 -37.5t-38.5 -13.5t-33.5 13.5t-10.5 37.5z" />
    <glyph glyph-name="Eogonek" unicode="&#x118;" horiz-adv-x="473" 
d="M179 59h173q38 0 66 9.5t60 26.5l-33 -95h-405q20 17 31.5 32t16.5 39l98 558q4 23 -3 38.5t-21 32.5h392l-16 -95q-13 17 -25 26.5t-33 9.5h-198l-45 -253h156q26 0 44 5t41 24l-21 -114q-17 14 -32 22t-41 8h-156zM464 -170q-35 -13 -69 -13q-14 0 -27.5 4.5t-23.5 14
t-14.5 24.5t-0.5 35q4 22 19 47.5t45 57.5h36q-21 -26 -27.5 -43.5t-8.5 -27.5q-2 -12 -2 -25t5 -23t16.5 -16.5t30.5 -6.5q12 0 27 3z" />
    <glyph glyph-name="eogonek" unicode="&#x119;" horiz-adv-x="487" 
d="M170 219q-2 -36 5.5 -67t24.5 -53.5t44 -35.5t63 -13q41 0 77.5 15.5t68.5 41.5l-24 -80q-31 -18 -68.5 -28t-78.5 -10q-57 0 -99.5 20t-68.5 55t-35 82t1 102q9 50 31 95t55.5 79t76.5 53.5t93 19.5q48 0 83 -18.5t56 -51.5t27.5 -79t-3.5 -101l-4 -26h-325zM407 278
q5 33 3 61.5t-12.5 49.5t-28.5 33t-44 12q-27 0 -50.5 -12.5t-42 -34t-32 -50t-21.5 -59.5h228zM376 -170q-35 -13 -69 -13q-14 0 -27.5 4.5t-23.5 14t-14.5 24.5t-0.5 35q4 22 19 47.5t45 57.5h36q-21 -26 -27.5 -43.5t-8.5 -27.5q-2 -12 -2 -25t5 -23t16.5 -16.5
t30.5 -6.5q12 0 27 3z" />
    <glyph glyph-name="Ecaron" unicode="&#x11a;" horiz-adv-x="473" 
d="M179 59h173q38 0 66 9.5t60 26.5l-33 -95h-405q20 17 31.5 32t16.5 39l98 558q4 23 -3 38.5t-21 32.5h392l-16 -95q-13 17 -25 26.5t-33 9.5h-198l-45 -253h156q26 0 44 5t41 24l-21 -114q-17 14 -32 22t-41 8h-156zM269 899h64l53 -52l71 52h65l-108 -101h-73z" />
    <glyph glyph-name="ecaron" unicode="&#x11b;" horiz-adv-x="487" 
d="M170 219q-2 -36 5.5 -67t24.5 -53.5t44 -35.5t63 -13q41 0 77.5 15.5t68.5 41.5l-24 -80q-31 -18 -68.5 -28t-78.5 -10q-57 0 -99.5 20t-68.5 55t-35 82t1 102q9 50 31 95t55.5 79t76.5 53.5t93 19.5q48 0 83 -18.5t56 -51.5t27.5 -79t-3.5 -101l-4 -26h-325zM407 278
q5 33 3 61.5t-12.5 49.5t-28.5 33t-44 12q-27 0 -50.5 -12.5t-42 -34t-32 -50t-21.5 -59.5h228zM245 699h64l53 -52l71 52h65l-108 -101h-73z" />
    <glyph glyph-name="Gbreve" unicode="&#x11e;" horiz-adv-x="668" 
d="M616 40q-62 -28 -116 -43.5t-115 -15.5q-85 0 -145.5 29t-96 79.5t-46.5 118t2 143.5q14 76 48.5 143t88 117t123.5 79t155 29q54 0 104 -12t90 -32l-36 -107q-23 40 -63.5 63.5t-100.5 23.5q-59 0 -110.5 -23.5t-92.5 -65t-69 -97t-39 -118.5t-3 -118.5t34 -97t71 -65
t107 -23.5q63 0 121 23l41 231q5 23 -2 38.5t-21 32.5h166q-20 -17 -32 -32.5t-17 -38.5zM609 899q-8 -48 -44 -80.5t-87 -32.5q-25 0 -44.5 9t-31.5 24t-16 35.5t0 44.5h36q-5 -23 13 -38t53 -15q33 0 57 15t28 38h36z" />
    <glyph glyph-name="gbreve" unicode="&#x11f;" horiz-adv-x="505" 
d="M443 -25q-8 -43 -28.5 -77t-52 -58t-71.5 -36.5t-87 -12.5q-40 0 -72.5 9t-54 26t-31 40t-4.5 52q9 57 74 69q-5 -11 -7 -19.5t-4 -16.5q-7 -45 23.5 -68.5t81.5 -23.5q61 0 99 31.5t48 84.5l17 99q-29 -21 -63 -33t-72 -12q-46 0 -79.5 18.5t-54 50t-26.5 74.5t2 91
q9 48 31.5 90.5t56.5 74t78.5 49.5t95.5 18q57 0 103 -24l93 19q-5 -9 -7.5 -16.5t-4.5 -19.5zM275 85q32 0 59.5 13t50.5 35l49 278q-21 12 -44 19t-46 10q-34 -2 -63.5 -17t-52 -39t-38 -55t-21.5 -67q-6 -37 -2 -69t17.5 -56t36.5 -38t54 -14zM474 699q-8 -48 -44 -80.5
t-87 -32.5q-25 0 -44.5 9t-31.5 24t-16 35.5t0 44.5h36q-5 -23 13 -38t53 -15q33 0 57 15t28 38h36z" />
    <glyph glyph-name="uni0122" unicode="&#x122;" horiz-adv-x="668" 
d="M616 40q-62 -28 -116 -43.5t-115 -15.5q-85 0 -145.5 29t-96 79.5t-46.5 118t2 143.5q14 76 48.5 143t88 117t123.5 79t155 29q54 0 104 -12t90 -32l-36 -107q-23 40 -63.5 63.5t-100.5 23.5q-59 0 -110.5 -23.5t-92.5 -65t-69 -97t-39 -118.5t-3 -118.5t34 -97t71 -65
t107 -23.5q63 0 121 23l41 231q5 23 -2 38.5t-21 32.5h166q-20 -17 -32 -32.5t-17 -38.5zM238 -180q28 17 49 37.5t26 43.5q2 11 0 20.5t-10 19.5h79q5 -10 8 -18.5t1 -18.5q-9 -51 -131 -113z" />
    <glyph glyph-name="uni0123" unicode="&#x123;" horiz-adv-x="505" 
d="M443 -25q-8 -43 -28.5 -77t-52 -58t-71.5 -36.5t-87 -12.5q-40 0 -72.5 9t-54 26t-31 40t-4.5 52q9 57 74 69q-5 -11 -7 -19.5t-4 -16.5q-7 -45 23.5 -68.5t81.5 -23.5q61 0 99 31.5t48 84.5l17 99q-29 -21 -63 -33t-72 -12q-46 0 -79.5 18.5t-54 50t-26.5 74.5t2 91
q9 48 31.5 90.5t56.5 74t78.5 49.5t95.5 18q57 0 103 -24l93 19q-5 -9 -7.5 -16.5t-4.5 -19.5zM275 85q32 0 59.5 13t50.5 35l49 278q-21 12 -44 19t-46 10q-34 -2 -63.5 -17t-52 -39t-38 -55t-21.5 -67q-6 -37 -2 -69t17.5 -56t36.5 -38t54 -14zM394.903 590.781
q-3.92285 -18.8799 -23.2119 -31.3408t-44.2891 -12.4609q-24 0 -38.7969 13.9717q-14.7969 13.9707 -10.3057 40.4023q2.96582 18.124 14.9102 36.627q11.9443 18.502 28.9746 35.4932q17.0303 16.9922 37.7119 31.3408t42.1211 24.166h40
q-28.9658 -18.125 -55.5869 -42.291t-33.1562 -49.8418q21.2588 -4.53125 32.9697 -16.9922t8.65918 -29.0742z" />
    <glyph glyph-name="Imacron" unicode="&#x12a;" horiz-adv-x="243" 
d="M182 71q-5 -23 1.5 -38.5t20.5 -32.5h-164q20 17 31.5 32.5t16.5 38.5l98 558q4 23 -3 38.5t-21 32.5h166q-20 -17 -32 -32.5t-16 -38.5zM144 880h265l-9 -50h-265z" />
    <glyph glyph-name="imacron" unicode="&#x12b;" horiz-adv-x="212" 
d="M161 63q-4 -21 1.5 -34.5t16.5 -28.5h-144q17 15 26.5 28.5t13.5 34.5l63 359q4 20 -1.5 33.5t-17.5 28.5h122q-5 -9 -7.5 -16.5t-4.5 -19.5zM94 680h265l-9 -50h-265z" />
    <glyph glyph-name="Iogonek" unicode="&#x12e;" horiz-adv-x="243" 
d="M184 71q-5 -23 1.5 -38.5t20.5 -32.5h-164q20 17 31.5 32.5t16.5 38.5l98 558q4 23 -3 38.5t-21 32.5h166q-20 -17 -32 -32.5t-16 -38.5zM177 -170q-35 -13 -69 -13q-14 0 -27.5 4.5t-23.5 14t-14.5 24.5t-0.5 35q4 22 19 47.5t45 57.5h36q-21 -26 -27.5 -43.5
t-8.5 -27.5q-2 -12 -2 -25t5 -23t16.5 -16.5t30.5 -6.5q12 0 27 3z" />
    <glyph glyph-name="iogonek" unicode="&#x12f;" horiz-adv-x="212" 
d="M157 613q5 23 24.5 39.5t45.5 16.5q24 0 38.5 -16.5t9.5 -39.5q-4 -23 -24 -39.5t-44 -16.5q-26 0 -40 16.5t-10 39.5zM135 392q4 20 -1.5 33.5t-17.5 28.5l127 30q-5 -9 -7.5 -16.5t-4.5 -19.5l-61 -347q-3 -17 5.5 -31t25.5 -36l-82 -45q-22 30 -32 51t-5 52zM191 -160
q-35 -13 -69 -13q-14 0 -27.5 4.5t-23.5 14t-14.5 24.5t-0.5 35q4 22 19 47.5t45 57.5h36q-21 -26 -27.5 -43.5t-8.5 -27.5q-2 -12 -2 -25t5 -23t16.5 -16.5t30.5 -6.5q12 0 27 3z" />
    <glyph glyph-name="Idotaccent" unicode="&#x130;" horiz-adv-x="243" 
d="M182 71q-5 -23 1.5 -38.5t20.5 -32.5h-164q20 17 31.5 32.5t16.5 38.5l98 558q4 23 -3 38.5t-21 32.5h166q-20 -17 -32 -32.5t-16 -38.5zM218 849q4 23 23 36.5t39 13.5t34.5 -13.5t10.5 -36.5q-5 -24 -24.5 -37.5t-38.5 -13.5t-33.5 13.5t-10.5 37.5z" />
    <glyph glyph-name="dotlessi" unicode="&#x131;" horiz-adv-x="212" 
d="M161 63q-4 -21 1.5 -34.5t16.5 -28.5h-144q17 15 26.5 28.5t13.5 34.5l63 359q4 20 -1.5 33.5t-17.5 28.5h122q-5 -9 -7.5 -16.5t-4.5 -19.5z" />
    <glyph glyph-name="uni0136" unicode="&#x136;" horiz-adv-x="582" 
d="M182 71q-5 -23 1.5 -38.5t20.5 -32.5h-164q20 17 31.5 32.5t16.5 38.5l98 558q4 23 -3 38.5t-21 32.5h166q-20 -17 -32 -32.5t-16 -38.5l-42 -237l227 222q28 27 45.5 48t15.5 38h144q-42 -22 -71.5 -46t-53.5 -47l-192 -184l154 -338q10 -22 27.5 -43.5t43.5 -41.5h-172
q11 20 8.5 38.5t-10.5 38.5l-119 281l-64 -61zM190 -180q28 17 49 37.5t26 43.5q2 11 0 20.5t-10 19.5h79q5 -10 8 -18.5t1 -18.5q-9 -51 -131 -113z" />
    <glyph glyph-name="uni0137" unicode="&#x137;" horiz-adv-x="481" 
d="M161 63q-4 -21 1.5 -34.5t16.5 -28.5h-144q17 15 26.5 28.5t13.5 34.5l100 564q3 20 -2.5 33.5t-17.5 28.5l128 30q-5 -9 -8 -16.5t-5 -19.5l-70 -402l158 152q11 11 17.5 24.5t4.5 28.5h122q-22 -11 -44.5 -29.5t-42.5 -39.5l-105 -102l86 -214q8 -19 15.5 -32t15.5 -23
t17.5 -18.5t19.5 -18.5l-26 -8q-28 -9 -48 -9q-18 0 -29.5 7t-20.5 21t-17 34t-17 45l-55 155l-68 -65zM140 -180q28 17 49 37.5t26 43.5q2 11 0 20.5t-10 19.5h79q5 -10 8 -18.5t1 -18.5q-9 -51 -131 -113z" />
    <glyph glyph-name="Lacute" unicode="&#x139;" horiz-adv-x="472" 
d="M352 59q38 0 66 9.5t60 26.5l-33 -95h-405q20 17 31.5 32t16.5 39l98 558q4 23 -3.5 38.5t-21.5 32.5h167q-20 -17 -32 -32.5t-16 -38.5l-101 -570h173zM385 900h88l-114 -102h-61z" />
    <glyph glyph-name="lacute" unicode="&#x13a;" horiz-adv-x="212" 
d="M178 627q3 20 -2.5 33.5t-17.5 28.5l128 30q-5 -9 -8 -16.5t-5 -19.5l-102 -582q-3 -17 5.5 -31t25.5 -36l-82 -45q-22 30 -32 51t-5 52zM250 899h88l-114 -102h-61z" />
    <glyph glyph-name="uni013B" unicode="&#x13b;" horiz-adv-x="472" 
d="M352 59q38 0 66 9.5t60 26.5l-33 -95h-405q20 17 31.5 32t16.5 39l98 558q4 23 -3.5 38.5t-21.5 32.5h167q-20 -17 -32 -32.5t-16 -38.5l-101 -570h173zM135 -180q28 17 49 37.5t26 43.5q2 11 0 20.5t-10 19.5h79q5 -10 8 -18.5t1 -18.5q-9 -51 -131 -113z" />
    <glyph glyph-name="uni013C" unicode="&#x13c;" horiz-adv-x="212" 
d="M175 627q3 20 -2.5 33.5t-17.5 28.5l128 30q-5 -9 -8 -16.5t-5 -19.5l-102 -582q-3 -17 5.5 -31t25.5 -36l-82 -45q-22 30 -32 51t-5 52zM5 -180q28 17 49 37.5t26 43.5q2 11 0 20.5t-10 19.5h79q5 -10 8 -18.5t1 -18.5q-9 -51 -131 -113z" />
    <glyph glyph-name="Lcaron" unicode="&#x13d;" horiz-adv-x="504" 
d="M352 59q38 0 66 9.5t60 26.5l-33 -95h-405q20 17 31.5 32t16.5 39l98 558q4 23 -3.5 38.5t-21.5 32.5h167q-20 -17 -32 -32.5t-16 -38.5l-101 -570h173zM472 641q5 26 25.5 42.5t45.5 16.5q24 0 37.5 -18t7.5 -53q-4 -24 -16.5 -49t-30.5 -47.5t-40 -41.5t-44 -32h-39
q29 24 57 56t36 65q-20 6 -31.5 22.5t-7.5 38.5z" />
    <glyph glyph-name="lcaron" unicode="&#x13e;" horiz-adv-x="433" 
d="M178 627q3 20 -2.5 33.5t-17.5 28.5l128 30q-5 -9 -8 -16.5t-5 -19.5l-102 -582q-3 -17 5.5 -31t25.5 -36l-82 -45q-22 30 -32 51t-5 52zM382 660q5 26 25.5 42.5t45.5 16.5q24 0 37.5 -18t7.5 -53q-4 -24 -16.5 -49t-30.5 -47.5t-40 -41.5t-44 -32h-39q29 24 57 56
t36 65q-20 6 -31.5 22.5t-7.5 38.5z" />
    <glyph glyph-name="Lslash" unicode="&#x141;" horiz-adv-x="487" 
d="M39 266l110 70l52 293q4 23 -3 38.5t-21 32.5h166q-20 -17 -32 -32.5t-16 -38.5l-40 -227l124 78l24 -46l-160 -100l-49 -275h174q38 0 66 9.5t60 26.5l-34 -95h-404q20 17 31 32t16 39l35 197l-75 -47z" />
    <glyph glyph-name="lslash" unicode="&#x142;" horiz-adv-x="336" 
d="M48 266l142 89l53 301q4 20 -2 34t-18 28h122q-5 -8 -8 -15t-5 -20l-47 -269l103 65l23 -45l-138 -87l-50 -285q-4 -20 1 -33.5t17 -28.5h-143q17 15 26.5 28.5t13.5 33.5l40 225l-106 -67z" />
    <glyph glyph-name="Nacute" unicode="&#x143;" horiz-adv-x="663" 
d="M40 0q21 17 32.5 32.5t16.5 38.5l98 558q4 23 -3 38.5t-22 32.5h117l208 -376q17 -29 32 -58.5t31 -59.5l75 423q4 23 -3 38.5t-21 32.5h147q-21 -17 -32.5 -32.5t-15.5 -38.5l-111 -629h-33l-231 398q-20 37 -39 74t-39 75l-83 -476q-5 -23 2 -38.5t21 -32.5h-147z
M480 900h88l-114 -102h-61z" />
    <glyph glyph-name="nacute" unicode="&#x144;" horiz-adv-x="507" 
d="M161 63q-4 -21 1.5 -34.5t16.5 -28.5h-144q17 15 26.5 28.5t13.5 34.5l58 329q4 20 -1.5 33.5t-17.5 28.5l106 30q2 -17 3 -31.5t-1 -31.5q51 39 95 56.5t82 17.5q33 0 57 -12t38 -32.5t18 -48t-1 -57.5l-43 -244q-3 -17 5.5 -31t25.5 -36l-82 -45q-22 30 -32 51t-5 52
l44 250q3 16 2.5 32t-7.5 29.5t-21 22t-38 8.5q-27 0 -63 -13.5t-81 -45.5zM367 700h88l-114 -102h-61z" />
    <glyph glyph-name="uni0145" unicode="&#x145;" horiz-adv-x="663" 
d="M40 0q21 17 32.5 32.5t16.5 38.5l98 558q4 23 -3 38.5t-22 32.5h117l208 -376q17 -29 32 -58.5t31 -59.5l75 423q4 23 -3 38.5t-21 32.5h147q-21 -17 -32.5 -32.5t-15.5 -38.5l-111 -629h-33l-231 398q-20 37 -39 74t-39 75l-83 -476q-5 -23 2 -38.5t21 -32.5h-147z
M231 -180q28 17 49 37.5t26 43.5q2 11 0 20.5t-10 19.5h79q5 -10 8 -18.5t1 -18.5q-9 -51 -131 -113z" />
    <glyph glyph-name="uni0146" unicode="&#x146;" horiz-adv-x="507" 
d="M161 63q-4 -21 1.5 -34.5t16.5 -28.5h-144q17 15 26.5 28.5t13.5 34.5l58 329q4 20 -1.5 33.5t-17.5 28.5l106 30q2 -17 3 -31.5t-1 -31.5q51 39 95 56.5t82 17.5q33 0 57 -12t38 -32.5t18 -48t-1 -57.5l-43 -244q-3 -17 5.5 -31t25.5 -36l-82 -45q-22 30 -32 51t-5 52
l44 250q3 16 2.5 32t-7.5 29.5t-21 22t-38 8.5q-27 0 -63 -13.5t-81 -45.5zM153 -180q28 17 49 37.5t26 43.5q2 11 0 20.5t-10 19.5h79q5 -10 8 -18.5t1 -18.5q-9 -51 -131 -113z" />
    <glyph glyph-name="Ncaron" unicode="&#x147;" horiz-adv-x="663" 
d="M40 0q21 17 32.5 32.5t16.5 38.5l98 558q4 23 -3 38.5t-22 32.5h117l208 -376q17 -29 32 -58.5t31 -59.5l75 423q4 23 -3 38.5t-21 32.5h147q-21 -17 -32.5 -32.5t-15.5 -38.5l-111 -629h-33l-231 398q-20 37 -39 74t-39 75l-83 -476q-5 -23 2 -38.5t21 -32.5h-147z
M364 899h64l53 -52l71 52h65l-108 -101h-73z" />
    <glyph glyph-name="ncaron" unicode="&#x148;" horiz-adv-x="507" 
d="M161 63q-4 -21 1.5 -34.5t16.5 -28.5h-144q17 15 26.5 28.5t13.5 34.5l58 329q4 20 -1.5 33.5t-17.5 28.5l106 30q2 -17 3 -31.5t-1 -31.5q51 39 95 56.5t82 17.5q33 0 57 -12t38 -32.5t18 -48t-1 -57.5l-43 -244q-3 -17 5.5 -31t25.5 -36l-82 -45q-22 30 -32 51t-5 52
l44 250q3 16 2.5 32t-7.5 29.5t-21 22t-38 8.5q-27 0 -63 -13.5t-81 -45.5zM251 699h64l53 -52l71 52h65l-108 -101h-73z" />
    <glyph glyph-name="Omacron" unicode="&#x14c;" horiz-adv-x="738" 
d="M99 351q14 76 49 143t87 117t119.5 79t145.5 29q79 0 136.5 -29t92.5 -79t46.5 -117t-2.5 -143q-13 -76 -48.5 -143.5t-88 -118t-120 -79.5t-146.5 -29q-78 0 -135 29t-92 79.5t-46 118t2 143.5zM197 351q-11 -64 -4 -119.5t31 -96.5t64 -64.5t94 -23.5t102 23.5t87 64.5
t66 96.5t38 119.5q11 63 3.5 118.5t-31.5 97t-64 65t-94 23.5t-102 -23.5t-86.5 -65t-65.5 -97t-38 -118.5zM397 880h265l-9 -50h-265z" />
    <glyph glyph-name="omacron" unicode="&#x14d;" horiz-adv-x="537" 
d="M79 243q9 52 33.5 98t61 80t84 54t101.5 20q55 0 95.5 -20t65 -54t33 -80t-0.5 -98t-34 -98.5t-61.5 -81t-84 -54.5t-102.5 -20q-54 0 -94.5 20t-65 54.5t-32.5 81t1 98.5zM167 243q-7 -38 -2.5 -73t19 -61.5t39 -42.5t57.5 -16q34 0 64.5 16t55 42.5t41 61.5t23.5 73
q6 37 1.5 71.5t-19 61t-39.5 42.5t-59 16q-33 0 -63 -16t-54 -42.5t-41 -61t-23 -71.5zM260 680h265l-9 -50h-265z" />
    <glyph glyph-name="Ohungarumlaut" unicode="&#x150;" horiz-adv-x="738" 
d="M99 351q14 76 49 143t87 117t119.5 79t145.5 29q79 0 136.5 -29t92.5 -79t46.5 -117t-2.5 -143q-13 -76 -48.5 -143.5t-88 -118t-120 -79.5t-146.5 -29q-78 0 -135 29t-92 79.5t-46 118t2 143.5zM197 351q-11 -64 -4 -119.5t31 -96.5t64 -64.5t94 -23.5t102 23.5t87 64.5
t66 96.5t38 119.5q11 63 3.5 118.5t-31.5 97t-64 65t-94 23.5t-102 -23.5t-86.5 -65t-65.5 -97t-38 -118.5zM443 899h87l-112 -101h-61zM603 899h86l-113 -101h-61z" />
    <glyph glyph-name="ohungarumlaut" unicode="&#x151;" horiz-adv-x="537" 
d="M79 243q9 52 33.5 98t61 80t84 54t101.5 20q55 0 95.5 -20t65 -54t33 -80t-0.5 -98t-34 -98.5t-61.5 -81t-84 -54.5t-102.5 -20q-54 0 -94.5 20t-65 54.5t-32.5 81t1 98.5zM167 243q-7 -38 -2.5 -73t19 -61.5t39 -42.5t57.5 -16q34 0 64.5 16t55 42.5t41 61.5t23.5 73
q6 37 1.5 71.5t-19 61t-39.5 42.5t-59 16q-33 0 -63 -16t-54 -42.5t-41 -61t-23 -71.5zM307 699h87l-112 -101h-61zM467 699h86l-113 -101h-61z" />
    <glyph glyph-name="OE" unicode="&#x152;" horiz-adv-x="857" 
d="M371 0q-87 0 -146 27.5t-92.5 75.5t-42.5 111.5t4 135.5t44.5 136t81.5 111.5t118.5 75t155.5 27.5h445l-16 -95q-13 17 -25 26.5t-33 9.5h-199l-45 -253h157q26 0 44 7.5t41 21.5l-21 -114q-17 14 -32 22t-41 8h-157l-49 -274h174q38 0 66 9.5t60 26.5l-33 -95h-459z
M471 61l102 579h-87q-66 0 -116 -22.5t-86 -61.5t-58.5 -92t-33.5 -113q-11 -61 -6 -114t29 -92t68 -61.5t112 -22.5h76z" />
    <glyph glyph-name="oe" unicode="&#x153;" horiz-adv-x="862" 
d="M75 243q9 52 33.5 98t61 80t84 54t101.5 20q63 0 106.5 -25.5t66.5 -68.5q34 43 80 68.5t103 25.5q47 0 81.5 -18.5t55 -51.5t27 -79t-3.5 -101l-4 -26h-324q-1 -2 -1 -2.5t-1 -2.5q-1 -35 7 -65t25.5 -52t44 -34.5t62.5 -12.5q40 0 76.5 15.5t68.5 41.5l-23 -80
q-31 -18 -69 -28t-77 -10q-66 0 -110.5 27t-67.5 74q-39 -46 -93 -73.5t-119 -27.5q-54 0 -94.5 20t-65 54.5t-32.5 81t1 98.5zM163 243q-7 -38 -2.5 -73t19 -61.5t39 -42.5t57.5 -16q34 0 64.5 16t55 42.5t41 61.5t23.5 73q6 37 1.5 71.5t-19 61t-39.5 42.5t-59 16
q-33 0 -63 -16t-54 -42.5t-41 -61t-23 -71.5zM780 278q5 33 3 61.5t-12 49.5t-28 33t-45 12t-50 -12t-41.5 -32.5t-32.5 -48t-22 -57.5v-6h228z" />
    <glyph glyph-name="Racute" unicode="&#x154;" horiz-adv-x="587" 
d="M186 629q4 23 -3 38.5t-21 32.5h220q56 0 95 -15t61.5 -41t29.5 -61t0 -75q-11 -59 -48 -107t-104 -75l90 -247q16 -44 62 -79h-161q13 20 11.5 37t-6.5 36l-82 232q-14 -2 -29 -3t-32 -1h-47l-42 -236q-4 -23 3 -36t21 -29h-164q20 17 31.5 32.5t16.5 38.5zM274 365
q45 0 79.5 11.5t59 31.5t39 47t20.5 58q5 27 1.5 49.5t-16 39t-35 26t-57.5 9.5h-84l-48 -272h41zM442 900h88l-114 -102h-61z" />
    <glyph glyph-name="racute" unicode="&#x155;" horiz-adv-x="351" 
d="M161 63q-4 -21 1.5 -34.5t16.5 -28.5h-144q17 15 26.5 28.5t13.5 34.5l58 329q4 20 -1.5 33.5t-17.5 28.5l106 30q2 -18 3 -34t-1 -36q36 42 68 61.5t65 19.5q30 0 41 -14t8 -34q-2 -11 -7.5 -22.5t-15.5 -21.5q-4 12 -13.5 19t-29.5 7q-25 0 -54.5 -13t-67.5 -44z
M289 700h88l-114 -102h-61z" />
    <glyph glyph-name="uni0156" unicode="&#x156;" horiz-adv-x="587" 
d="M186 629q4 23 -3 38.5t-21 32.5h220q56 0 95 -15t61.5 -41t29.5 -61t0 -75q-11 -59 -48 -107t-104 -75l90 -247q16 -44 62 -79h-161q13 20 11.5 37t-6.5 36l-82 232q-14 -2 -29 -3t-32 -1h-47l-42 -236q-4 -23 3 -36t21 -29h-164q20 17 31.5 32.5t16.5 38.5zM274 365
q45 0 79.5 11.5t59 31.5t39 47t20.5 58q5 27 1.5 49.5t-16 39t-35 26t-57.5 9.5h-84l-48 -272h41zM193 -180q28 17 49 37.5t26 43.5q2 11 0 20.5t-10 19.5h79q5 -10 8 -18.5t1 -18.5q-9 -51 -131 -113z" />
    <glyph glyph-name="uni0157" unicode="&#x157;" horiz-adv-x="351" 
d="M161 63q-4 -21 1.5 -34.5t16.5 -28.5h-144q17 15 26.5 28.5t13.5 34.5l58 329q4 20 -1.5 33.5t-17.5 28.5l106 30q2 -18 3 -34t-1 -36q36 42 68 61.5t65 19.5q30 0 41 -14t8 -34q-2 -11 -7.5 -22.5t-15.5 -21.5q-4 12 -13.5 19t-29.5 7q-25 0 -54.5 -13t-67.5 -44z
M75 -180q28 17 49 37.5t26 43.5q2 11 0 20.5t-10 19.5h79q5 -10 8 -18.5t1 -18.5q-9 -51 -131 -113z" />
    <glyph glyph-name="Rcaron" unicode="&#x158;" horiz-adv-x="587" 
d="M186 629q4 23 -3 38.5t-21 32.5h220q56 0 95 -15t61.5 -41t29.5 -61t0 -75q-11 -59 -48 -107t-104 -75l90 -247q16 -44 62 -79h-161q13 20 11.5 37t-6.5 36l-82 232q-14 -2 -29 -3t-32 -1h-47l-42 -236q-4 -23 3 -36t21 -29h-164q20 17 31.5 32.5t16.5 38.5zM274 365
q45 0 79.5 11.5t59 31.5t39 47t20.5 58q5 27 1.5 49.5t-16 39t-35 26t-57.5 9.5h-84l-48 -272h41zM326 899h64l53 -52l71 52h65l-108 -101h-73z" />
    <glyph glyph-name="rcaron" unicode="&#x159;" horiz-adv-x="351" 
d="M161 63q-4 -21 1.5 -34.5t16.5 -28.5h-144q17 15 26.5 28.5t13.5 34.5l58 329q4 20 -1.5 33.5t-17.5 28.5l106 30q2 -18 3 -34t-1 -36q36 42 68 61.5t65 19.5q30 0 41 -14t8 -34q-2 -11 -7.5 -22.5t-15.5 -21.5q-4 12 -13.5 19t-29.5 7q-25 0 -54.5 -13t-67.5 -44z
M173 699h64l53 -52l71 52h65l-108 -101h-73z" />
    <glyph glyph-name="Sacute" unicode="&#x15a;" horiz-adv-x="515" 
d="M65 132q39 -41 85.5 -64t101.5 -23q63 0 103 31t50 86q8 48 -11 79.5t-52 54.5t-73 43t-72.5 45t-51 59.5t-9.5 86.5q7 40 28.5 74.5t55 60t77.5 40t96 14.5q38 0 76 -7.5t76 -21.5l-25 -101q-26 31 -63 48.5t-82 17.5q-59 0 -97 -28.5t-46 -74.5q-7 -40 13 -67t53 -48.5
t72.5 -42t71.5 -48t50 -65.5t8 -96q-7 -42 -28.5 -79.5t-56 -65t-81 -43.5t-105.5 -16q-52 0 -97 12.5t-80 32.5zM406 900h88l-114 -102h-61z" />
    <glyph glyph-name="sacute" unicode="&#x15b;" horiz-adv-x="374" 
d="M180 371q-6 -34 13 -52t56 -36q19 -9 41.5 -20.5t40.5 -29.5t28 -43t4 -61q-6 -31 -22.5 -57t-42.5 -44.5t-59.5 -28.5t-72.5 -10q-35 0 -63.5 8t-57.5 22l9 91q29 -29 59 -46t71 -17q40 0 64.5 17.5t30.5 52.5q3 21 -2 36t-17 27t-30 22.5t-40 21.5q-16 8 -34.5 18
t-33.5 25.5t-23 38t-2 55.5q11 62 62 98t127 36q35 0 62.5 -8t55.5 -22l-29 -79q-15 24 -43.5 37.5t-62.5 13.5q-38 0 -60.5 -17t-28.5 -49zM301 700h88l-114 -102h-61z" />
    <glyph glyph-name="Scedilla" unicode="&#x15e;" horiz-adv-x="515" 
d="M65 132q39 -41 85.5 -64t101.5 -23q63 0 103 31t50 86q8 48 -11 79.5t-52 54.5t-73 43t-72.5 45t-51 59.5t-9.5 86.5q7 40 28.5 74.5t55 60t77.5 40t96 14.5q38 0 76 -7.5t76 -21.5l-25 -101q-26 31 -63 48.5t-82 17.5q-59 0 -97 -28.5t-46 -74.5q-7 -40 13 -67t53 -48.5
t72.5 -42t71.5 -48t50 -65.5t8 -96q-7 -42 -28.5 -79.5t-56 -65t-81 -43.5t-105.5 -16q-52 0 -97 12.5t-80 32.5zM157 -180q28 17 49 37.5t26 43.5q2 11 0 20.5t-10 19.5h79q5 -10 8 -18.5t1 -18.5q-9 -51 -131 -113z" />
    <glyph glyph-name="scedilla" unicode="&#x15f;" horiz-adv-x="374" 
d="M180 371q-6 -34 13 -52t56 -36q19 -9 41.5 -20.5t40.5 -29.5t28 -43t4 -61q-6 -31 -22.5 -57t-42.5 -44.5t-59.5 -28.5t-72.5 -10q-35 0 -63.5 8t-57.5 22l9 91q29 -29 59 -46t71 -17q40 0 64.5 17.5t30.5 52.5q3 21 -2 36t-17 27t-30 22.5t-40 21.5q-16 8 -34.5 18
t-33.5 25.5t-23 38t-2 55.5q11 62 62 98t127 36q35 0 62.5 -8t55.5 -22l-29 -79q-15 24 -43.5 37.5t-62.5 13.5q-38 0 -60.5 -17t-28.5 -49zM86 -180q28 17 49 37.5t26 43.5q2 11 0 20.5t-10 19.5h79q5 -10 8 -18.5t1 -18.5q-9 -51 -131 -113z" />
    <glyph glyph-name="Scaron" unicode="&#x160;" horiz-adv-x="515" 
d="M65 132q39 -41 85.5 -64t101.5 -23q63 0 103 31t50 86q8 48 -11 79.5t-52 54.5t-73 43t-72.5 45t-51 59.5t-9.5 86.5q7 40 28.5 74.5t55 60t77.5 40t96 14.5q38 0 76 -7.5t76 -21.5l-25 -101q-26 31 -63 48.5t-82 17.5q-59 0 -97 -28.5t-46 -74.5q-7 -40 13 -67t53 -48.5
t72.5 -42t71.5 -48t50 -65.5t8 -96q-7 -42 -28.5 -79.5t-56 -65t-81 -43.5t-105.5 -16q-52 0 -97 12.5t-80 32.5zM289 899h64l53 -52l71 52h65l-108 -101h-73z" />
    <glyph glyph-name="scaron" unicode="&#x161;" horiz-adv-x="374" 
d="M180 371q-6 -34 13 -52t56 -36q19 -9 41.5 -20.5t40.5 -29.5t28 -43t4 -61q-6 -31 -22.5 -57t-42.5 -44.5t-59.5 -28.5t-72.5 -10q-35 0 -63.5 8t-57.5 22l9 91q29 -29 59 -46t71 -17q40 0 64.5 17.5t30.5 52.5q3 21 -2 36t-17 27t-30 22.5t-40 21.5q-16 8 -34.5 18
t-33.5 25.5t-23 38t-2 55.5q11 62 62 98t127 36q35 0 62.5 -8t55.5 -22l-29 -79q-15 24 -43.5 37.5t-62.5 13.5q-38 0 -60.5 -17t-28.5 -49zM184 699h64l53 -52l71 52h65l-108 -101h-73z" />
    <glyph glyph-name="Tcaron" unicode="&#x164;" horiz-adv-x="585" 
d="M211 0q20 17 31.5 32t15.5 38l101 570h-150q-21 0 -36 -9.5t-34 -26.5l16 96h521l-16 -96q-13 17 -25 26.5t-33 9.5h-150l-101 -570q-4 -24 2.5 -38t20.5 -32h-163zM325 899h64l53 -52l71 52h65l-108 -101h-73z" />
    <glyph glyph-name="tcaron" unicode="&#x165;" horiz-adv-x="575" 
d="M201 574q27 5 49 15.5t44 24.5l-23 -130h128l-9 -55h-128l-51 -286q-3 -15 -2.5 -31t6.5 -29t17.5 -21.5t31.5 -8.5q18 0 38.5 8.5t43.5 29.5l-14 -77q-33 -14 -58 -19.5t-45 -5.5q-31 0 -53.5 11.5t-35.5 31.5t-17 46.5t1 55.5l52 295h-68l9 55h68zM521 660
q5 26 25.5 42.5t45.5 16.5q24 0 37.5 -18t7.5 -53q-4 -24 -16.5 -49t-30.5 -47.5t-40 -41.5t-44 -32h-39q29 24 57 56t36 65q-20 6 -31.5 22.5t-7.5 38.5z" />
    <glyph glyph-name="Umacron" unicode="&#x16a;" horiz-adv-x="660" 
d="M143 227q-5 -28 -4 -57.5t13 -53.5t39 -39.5t73 -15.5q42 0 87.5 15t99.5 50l89 503q4 23 -3 38.5t-21 32.5h166q-20 -17 -32 -32.5t-16 -38.5l-98 -558q-5 -23 1.5 -38.5t20.5 -32.5h-124q2 18 3.5 33.5t4.5 33.5q-54 -42 -104.5 -60t-105.5 -18q-61 0 -100 19.5
t-60 52.5t-26 77t4 93l70 398q4 23 -3 38.5t-21 32.5h166q-20 -17 -32 -32.5t-16 -38.5zM356 880h265l-9 -50h-265z" />
    <glyph glyph-name="umacron" unicode="&#x16b;" horiz-adv-x="519" 
d="M134 392q4 20 -1 33.5t-17 28.5l127 30q-8 -15 -11 -28.5t-7 -33.5l-49 -280q-3 -16 -2 -32t7.5 -29.5t20 -22t37.5 -8.5q27 0 63 13.5t82 45.5l50 283q4 20 -1.5 33.5t-17.5 28.5l127 30q-5 -9 -7.5 -16.5t-4.5 -19.5l-61 -347q-3 -17 5.5 -31t25.5 -36l-82 -45
q-17 23 -26.5 39.5t-11.5 35.5q-51 -40 -96 -57.5t-83 -17.5q-33 0 -57 12t-37.5 32.5t-18 48t1.5 57.5zM249 680h265l-9 -50h-265z" />
    <glyph glyph-name="Uring" unicode="&#x16e;" horiz-adv-x="660" 
d="M143 227q-5 -28 -4 -57.5t13 -53.5t39 -39.5t73 -15.5q42 0 87.5 15t99.5 50l89 503q4 23 -3 38.5t-21 32.5h166q-20 -17 -32 -32.5t-16 -38.5l-98 -558q-5 -23 1.5 -38.5t20.5 -32.5h-124q2 18 3.5 33.5t4.5 33.5q-54 -42 -104.5 -60t-105.5 -18q-61 0 -100 19.5
t-60 52.5t-26 77t4 93l70 398q4 23 -3 38.5t-21 32.5h166q-20 -17 -32 -32.5t-16 -38.5zM401 856q3 17 12 32t22.5 26t29.5 18t33 7q35 0 54.5 -25t14.5 -58q-6 -35 -34.5 -59.5t-63.5 -24.5q-34 0 -54 24.5t-14 59.5zM439 855q-3 -18 8 -32t28 -14q18 0 33.5 14t18.5 32
q4 19 -6.5 32.5t-28.5 13.5q-17 0 -33 -13.5t-20 -32.5z" />
    <glyph glyph-name="uring" unicode="&#x16f;" horiz-adv-x="519" 
d="M134 392q4 20 -1 33.5t-17 28.5l127 30q-8 -15 -11 -28.5t-7 -33.5l-49 -280q-3 -16 -2 -32t7.5 -29.5t20 -22t37.5 -8.5q27 0 63 13.5t82 45.5l50 283q4 20 -1.5 33.5t-17.5 28.5l127 30q-5 -9 -7.5 -16.5t-4.5 -19.5l-61 -347q-3 -17 5.5 -31t25.5 -36l-82 -45
q-17 23 -26.5 39.5t-11.5 35.5q-51 -40 -96 -57.5t-83 -17.5q-33 0 -57 12t-37.5 32.5t-18 48t1.5 57.5zM295 656q3 17 12 32t22.5 26t29.5 18t33 7q35 0 54.5 -25t14.5 -58q-6 -35 -34.5 -59.5t-63.5 -24.5q-34 0 -54 24.5t-14 59.5zM333 655q-3 -18 8 -32t28 -14
q18 0 33.5 14t18.5 32q4 19 -6.5 32.5t-28.5 13.5q-17 0 -33 -13.5t-20 -32.5z" />
    <glyph glyph-name="Uhungarumlaut" unicode="&#x170;" horiz-adv-x="660" 
d="M143 227q-5 -28 -4 -57.5t13 -53.5t39 -39.5t73 -15.5q42 0 87.5 15t99.5 50l89 503q4 23 -3 38.5t-21 32.5h166q-20 -17 -32 -32.5t-16 -38.5l-98 -558q-5 -23 1.5 -38.5t20.5 -32.5h-124q2 18 3.5 33.5t4.5 33.5q-54 -42 -104.5 -60t-105.5 -18q-61 0 -100 19.5
t-60 52.5t-26 77t4 93l70 398q4 23 -3 38.5t-21 32.5h166q-20 -17 -32 -32.5t-16 -38.5zM402 899h87l-112 -101h-61zM562 899h86l-113 -101h-61z" />
    <glyph glyph-name="uhungarumlaut" unicode="&#x171;" horiz-adv-x="519" 
d="M134 392q4 20 -1 33.5t-17 28.5l127 30q-8 -15 -11 -28.5t-7 -33.5l-49 -280q-3 -16 -2 -32t7.5 -29.5t20 -22t37.5 -8.5q27 0 63 13.5t82 45.5l50 283q4 20 -1.5 33.5t-17.5 28.5l127 30q-5 -9 -7.5 -16.5t-4.5 -19.5l-61 -347q-3 -17 5.5 -31t25.5 -36l-82 -45
q-17 23 -26.5 39.5t-11.5 35.5q-51 -40 -96 -57.5t-83 -17.5q-33 0 -57 12t-37.5 32.5t-18 48t1.5 57.5zM296 699h87l-112 -101h-61zM456 699h86l-113 -101h-61z" />
    <glyph glyph-name="Uogonek" unicode="&#x172;" horiz-adv-x="660" 
d="M143 227q-5 -28 -4 -57.5t13 -53.5t39 -39.5t73 -15.5q42 0 87.5 15t99.5 50l89 503q4 23 -3 38.5t-21 32.5h166q-20 -17 -32 -32.5t-16 -38.5l-98 -558q-5 -23 1.5 -38.5t20.5 -32.5h-124q2 18 3.5 33.5t4.5 33.5q-54 -42 -104.5 -60t-105.5 -18q-61 0 -100 19.5
t-60 52.5t-26 77t4 93l70 398q4 23 -3 38.5t-21 32.5h166q-20 -17 -32 -32.5t-16 -38.5zM598 -170q-35 -13 -69 -13q-14 0 -27.5 4.5t-23.5 14t-14.5 24.5t-0.5 35q4 22 19 47.5t45 57.5h36q-21 -26 -27.5 -43.5t-8.5 -27.5q-2 -12 -2 -25t5 -23t16.5 -16.5t30.5 -6.5
q12 0 27 3z" />
    <glyph glyph-name="uogonek" unicode="&#x173;" horiz-adv-x="519" 
d="M134 392q4 20 -1 33.5t-17 28.5l127 30q-8 -15 -11 -28.5t-7 -33.5l-49 -280q-3 -16 -2 -32t7.5 -29.5t20 -22t37.5 -8.5q27 0 63 13.5t82 45.5l50 283q4 20 -1.5 33.5t-17.5 28.5l127 30q-5 -9 -7.5 -16.5t-4.5 -19.5l-61 -347q-3 -17 5.5 -31t25.5 -36l-82 -45
q-17 23 -26.5 39.5t-11.5 35.5q-51 -40 -96 -57.5t-83 -17.5q-33 0 -57 12t-37.5 32.5t-18 48t1.5 57.5zM481 -160q-35 -13 -69 -13q-14 0 -27.5 4.5t-23.5 14t-14.5 24.5t-0.5 35q4 22 19 47.5t45 57.5h36q-21 -26 -27.5 -43.5t-8.5 -27.5q-2 -12 -2 -25t5 -23t16.5 -16.5
t30.5 -6.5q12 0 27 3z" />
    <glyph glyph-name="Wcircumflex" unicode="&#x174;" horiz-adv-x="954" 
d="M320 285q5 -37 8 -73t7 -73q16 37 31 73t31 73l182 415h58l49 -415q5 -37 8 -73t6 -74q17 38 32 74t31 73l149 338q20 47 -12 77h157q-20 -14 -33.5 -30.5t-27.5 -45.5l-293 -624h-64l-52 433q-4 24 -6.5 48.5t-5.5 49.5q-11 -25 -22.5 -49t-22.5 -49l-189 -433h-68
l-94 621q-3 26 -11 42.5t-25 36.5h168q-16 -14 -25.5 -31.5t-5.5 -45.5zM598 899h74l72 -101h-65l-53 52l-71 -52h-64z" />
    <glyph glyph-name="wcircumflex" unicode="&#x175;" horiz-adv-x="701" 
d="M437 484h27l29 -237q3 -30 8 -60t10 -59q12 29 25.5 59t29.5 60l82 164q11 21 13.5 38t-4.5 35h117q-17 -17 -28 -32t-22 -38l-214 -414h-54l-41 251q-2 12 -3 26.5t-3 26.5l-15 -30t-14 -30l-123 -244h-58l-74 414q-5 23 -10.5 38t-17.5 32h129q-11 -17 -12.5 -35.5
t0.5 -37.5l27 -164q4 -30 9.5 -60t10.5 -59q14 29 28.5 58l30.5 61zM437 699h74l72 -101h-65l-53 52l-71 -52h-64z" />
    <glyph glyph-name="Ycircumflex" unicode="&#x176;" horiz-adv-x="622" 
d="M352 432q8 -25 14.5 -47t14.5 -50q17 27 33.5 51.5t29.5 45.5l131 199q11 17 15.5 35t-2.5 34h145q-22 -12 -36.5 -26t-31.5 -37l-260 -372l-34 -190q-5 -25 1.5 -41t20.5 -34h-164q20 18 31.5 34t16.5 41l31 175l-126 380q-8 23 -17.5 38t-29.5 32h162
q-13 -10 -17 -30.5t4 -39.5zM432 899h74l72 -101h-65l-53 52l-71 -52h-64z" />
    <glyph glyph-name="ycircumflex" unicode="&#x177;" horiz-adv-x="501" 
d="M441 411q11 21 14.5 38t-4.5 35h123q-20 -17 -32 -32t-24 -38l-223 -410q-58 -104 -113.5 -158.5t-100.5 -54.5q-26 0 -48 18t-22 53q19 -11 40 -11q15 0 33.5 7.5t39.5 25t44 46.5t47 72l-86 412q-5 23 -11.5 38t-20.5 32h133q-12 -17 -13 -35.5t2 -37.5l35 -164
q7 -35 13 -69.5t14 -69.5q17 35 35 69.5t37 69.5zM337 699h74l72 -101h-65l-53 52l-71 -52h-64z" />
    <glyph glyph-name="Ydieresis" unicode="&#x178;" horiz-adv-x="622" 
d="M352 432q8 -25 14.5 -47t14.5 -50q17 27 33.5 51.5t29.5 45.5l131 199q11 17 15.5 35t-2.5 34h145q-22 -12 -36.5 -26t-31.5 -37l-260 -372l-34 -190q-5 -25 1.5 -41t20.5 -34h-164q20 18 31.5 34t16.5 41l31 175l-126 380q-8 23 -17.5 38t-29.5 32h162
q-13 -10 -17 -30.5t4 -39.5zM314 851q3 17 20 32.5t43 15.5q25 0 36 -15.5t8 -32.5q-3 -18 -20 -33.5t-41 -15.5q-26 0 -37.5 15.5t-8.5 33.5zM503 851q3 17 19.5 32.5t42.5 15.5q25 0 36.5 -15.5t8.5 -32.5q-3 -18 -20 -33.5t-42 -15.5t-36.5 15.5t-8.5 33.5z" />
    <glyph glyph-name="Zacute" unicode="&#x179;" horiz-adv-x="540" 
d="M40 43l466 597h-287q-21 0 -36 -9.5t-34 -26.5l16 96h470l-7 -43l-466 -596h290q21 0 36 9.5t34 26.5l-17 -97h-473zM419 900h88l-114 -102h-61z" />
    <glyph glyph-name="zacute" unicode="&#x17a;" horiz-adv-x="386" 
d="M126 74q21 3 42 3q25 0 49.5 -2.5t49.5 -2.5q32 0 61.5 7.5t55.5 27.5l-19 -107q-34 -7 -70 -7q-51 0 -99 8t-97 8q-20 0 -38.5 -2t-38.5 -7l7 38l304 372h-153q-26 0 -43 -7t-34 -21l18 102h316l-6 -38zM307 700h88l-114 -102h-61z" />
    <glyph glyph-name="Zdotaccent" unicode="&#x17b;" horiz-adv-x="540" 
d="M40 43l466 597h-287q-21 0 -36 -9.5t-34 -26.5l16 96h470l-7 -43l-466 -596h290q21 0 36 9.5t34 26.5l-17 -97h-473zM366 849q4 23 23 36.5t39 13.5t34.5 -13.5t10.5 -36.5q-5 -24 -24.5 -37.5t-38.5 -13.5t-33.5 13.5t-10.5 37.5z" />
    <glyph glyph-name="zdotaccent" unicode="&#x17c;" horiz-adv-x="386" 
d="M126 74q21 3 42 3q25 0 49.5 -2.5t49.5 -2.5q32 0 61.5 7.5t55.5 27.5l-19 -107q-34 -7 -70 -7q-51 0 -99 8t-97 8q-20 0 -38.5 -2t-38.5 -7l7 38l304 372h-153q-26 0 -43 -7t-34 -21l18 102h316l-6 -38zM254 649q4 23 23 36.5t39 13.5t34.5 -13.5t10.5 -36.5
q-5 -24 -24.5 -37.5t-38.5 -13.5t-33.5 13.5t-10.5 37.5z" />
    <glyph glyph-name="Zcaron" unicode="&#x17d;" horiz-adv-x="540" 
d="M40 43l466 597h-287q-21 0 -36 -9.5t-34 -26.5l16 96h470l-7 -43l-466 -596h290q21 0 36 9.5t34 26.5l-17 -97h-473zM302 899h64l53 -52l71 52h65l-108 -101h-73z" />
    <glyph glyph-name="zcaron" unicode="&#x17e;" horiz-adv-x="386" 
d="M126 74q21 3 42 3q25 0 49.5 -2.5t49.5 -2.5q32 0 61.5 7.5t55.5 27.5l-19 -107q-34 -7 -70 -7q-51 0 -99 8t-97 8q-20 0 -38.5 -2t-38.5 -7l7 38l304 372h-153q-26 0 -43 -7t-34 -21l18 102h316l-6 -38zM190 699h64l53 -52l71 52h65l-108 -101h-73z" />
    <glyph glyph-name="florin" unicode="&#x192;" horiz-adv-x="448" 
d="M336 390h109l-10 -54h-109l-71 -403q-11 -66 -57 -104t-116 -38q-41 0 -82 17l13 75q18 -20 35 -28.5t37 -8.5t34.5 7.5t24.5 18.5t15.5 25t8.5 28l73 411h-60l10 54h59l35 197q11 66 57 104t116 38q41 0 82 -17l-14 -75q-17 20 -34 28.5t-37 8.5t-35 -7.5t-24.5 -18.5
t-15.5 -25t-8 -28z" />
    <glyph glyph-name="uni0218" unicode="&#x218;" horiz-adv-x="515" 
d="M65 132q39 -41 85.5 -64t101.5 -23q63 0 103 31t50 86q8 48 -11 79.5t-52 54.5t-73 43t-72.5 45t-51 59.5t-9.5 86.5q7 40 28.5 74.5t55 60t77.5 40t96 14.5q38 0 76 -7.5t76 -21.5l-25 -101q-26 31 -63 48.5t-82 17.5q-59 0 -97 -28.5t-46 -74.5q-7 -40 13 -67t53 -48.5
t72.5 -42t71.5 -48t50 -65.5t8 -96q-7 -42 -28.5 -79.5t-56 -65t-81 -43.5t-105.5 -16q-52 0 -97 12.5t-80 32.5zM157 -180q28 17 49 37.5t26 43.5q2 11 0 20.5t-10 19.5h79q5 -10 8 -18.5t1 -18.5q-9 -51 -131 -113z" />
    <glyph glyph-name="uni0219" unicode="&#x219;" horiz-adv-x="374" 
d="M180 371q-6 -34 13 -52t56 -36q19 -9 41.5 -20.5t40.5 -29.5t28 -43t4 -61q-6 -31 -22.5 -57t-42.5 -44.5t-59.5 -28.5t-72.5 -10q-35 0 -63.5 8t-57.5 22l9 91q29 -29 59 -46t71 -17q40 0 64.5 17.5t30.5 52.5q3 21 -2 36t-17 27t-30 22.5t-40 21.5q-16 8 -34.5 18
t-33.5 25.5t-23 38t-2 55.5q11 62 62 98t127 36q35 0 62.5 -8t55.5 -22l-29 -79q-15 24 -43.5 37.5t-62.5 13.5q-38 0 -60.5 -17t-28.5 -49zM86 -180q28 17 49 37.5t26 43.5q2 11 0 20.5t-10 19.5h79q5 -10 8 -18.5t1 -18.5q-9 -51 -131 -113z" />
    <glyph glyph-name="uni021A" unicode="&#x21a;" horiz-adv-x="585" 
d="M211 0q20 17 31.5 32t15.5 38l101 570h-150q-21 0 -36 -9.5t-34 -26.5l16 96h521l-16 -96q-13 17 -25 26.5t-33 9.5h-150l-101 -570q-4 -24 2.5 -38t20.5 -32h-163zM192 -180q28 17 49 37.5t26 43.5q2 11 0 20.5t-10 19.5h79q5 -10 8 -18.5t1 -18.5q-9 -51 -131 -113z
" />
    <glyph glyph-name="uni021B" unicode="&#x21b;" horiz-adv-x="354" 
d="M201 574q27 5 49 15.5t44 24.5l-23 -130h128l-9 -55h-128l-51 -286q-3 -15 -2.5 -31t6.5 -29t17.5 -21.5t31.5 -8.5q18 0 38.5 8.5t43.5 29.5l-14 -77q-33 -14 -58 -19.5t-45 -5.5q-31 0 -53.5 11.5t-35.5 31.5t-17 46.5t1 55.5l52 295h-68l9 55h68zM76 -180
q28 17 49 37.5t26 43.5q2 11 0 20.5t-10 19.5h79q5 -10 8 -18.5t1 -18.5q-9 -51 -131 -113z" />
    <glyph glyph-name="circumflex" unicode="&#x2c6;" horiz-adv-x="353" 
d="M262 699h74l72 -101h-65l-53 52l-71 -52h-64z" />
    <glyph glyph-name="caron" unicode="&#x2c7;" horiz-adv-x="353" 
d="M173 699h64l53 -52l71 52h65l-108 -101h-73z" />
    <glyph glyph-name="uni02C9" unicode="&#x2c9;" horiz-adv-x="361" 
d="M165 680h271l-9 -56h-271z" />
    <glyph glyph-name="breve" unicode="&#x2d8;" horiz-adv-x="294" 
d="M382 699q-8 -48 -44 -80.5t-87 -32.5q-25 0 -44.5 9t-31.5 24t-16 35.5t0 44.5h36q-5 -23 13 -38t53 -15q33 0 57 15t28 38h36z" />
    <glyph glyph-name="dotaccent" unicode="&#x2d9;" horiz-adv-x="195" 
d="M159 649q4 23 23 36.5t39 13.5t34.5 -13.5t10.5 -36.5q-5 -24 -24.5 -37.5t-38.5 -13.5t-33.5 13.5t-10.5 37.5z" />
    <glyph glyph-name="ring" unicode="&#x2da;" horiz-adv-x="228" 
d="M147 656q3 17 12 32t22.5 26t29.5 18t33 7q35 0 54.5 -25t14.5 -58q-6 -35 -34.5 -59.5t-63.5 -24.5q-34 0 -54 24.5t-14 59.5zM185 655q-3 -18 8 -32t28 -14q18 0 33.5 14t18.5 32q4 19 -6.5 32.5t-28.5 13.5q-17 0 -33 -13.5t-20 -32.5z" />
    <glyph glyph-name="ogonek" unicode="&#x2db;" horiz-adv-x="184" 
d="M143 -170q-35 -13 -69 -13q-14 0 -27.5 4.5t-23.5 14t-14.5 24.5t-0.5 35q4 22 19 47.5t45 57.5h36q-21 -26 -27.5 -43.5t-8.5 -27.5q-2 -12 -2 -25t5 -23t16.5 -16.5t30.5 -6.5q12 0 27 3z" />
    <glyph glyph-name="tilde" unicode="&#x2dc;" horiz-adv-x="347" 
d="M224 643q-39 0 -79 -46l10 57q22 22 44.5 32t43.5 10q20 0 33 -7t24 -16t22.5 -16t27.5 -7q20 0 40.5 11.5t39.5 34.5l-11 -58q-20 -21 -43.5 -31t-44.5 -10q-20 0 -33 7t-23.5 16t-22 16t-28.5 7z" />
    <glyph glyph-name="hungarumlaut" unicode="&#x2dd;" horiz-adv-x="411" 
d="M273 699h87l-112 -101h-61zM433 699h86l-113 -101h-61z" />
    <glyph glyph-name="uni0326" unicode="&#x326;" horiz-adv-x="152" 
d="M-2 -180q28 17 49 37.5t26 43.5q2 11 0 20.5t-10 19.5h79q5 -10 8 -18.5t1 -18.5q-9 -51 -131 -113z" />
    <glyph glyph-name="uni03BC" unicode="&#x3bc;" horiz-adv-x="519" 
d="M437 422q4 20 -1 33.5t-17 28.5h122q-8 -15 -11 -28.5t-7 -33.5l-63 -359q-4 -21 2 -34.5t17 -28.5h-101q-2 17 -2.5 31.5t0.5 31.5q-51 -40 -95 -57t-82 -17q-29 0 -50 9l-25 -140q-4 -22 1.5 -36t16.5 -31h-135q12 14 19 25.5t10 29.5l101 576q4 20 -1 33.5t-17 28.5
h122q-8 -15 -11 -28.5t-7 -33.5l-49 -280q-3 -16 -2 -32t7.5 -29.5t20 -22t37.5 -8.5q28 0 63.5 13.5t81.5 45.5z" />
    <glyph glyph-name="Wgrave" unicode="&#x1e80;" horiz-adv-x="954" 
d="M320 285q5 -37 8 -73t7 -73q16 37 31 73t31 73l182 415h58l49 -415q5 -37 8 -73t6 -74q17 38 32 74t31 73l149 338q20 47 -12 77h157q-20 -14 -33.5 -30.5t-27.5 -45.5l-293 -624h-64l-52 433q-4 24 -6.5 48.5t-5.5 49.5q-11 -25 -22.5 -49t-22.5 -49l-189 -433h-68
l-94 621q-3 26 -11 42.5t-25 36.5h168q-16 -14 -25.5 -31.5t-5.5 -45.5zM635 798l-77 102h87l51 -102h-61z" />
    <glyph glyph-name="wgrave" unicode="&#x1e81;" horiz-adv-x="701" 
d="M437 484h27l29 -237q3 -30 8 -60t10 -59q12 29 25.5 59t29.5 60l82 164q11 21 13.5 38t-4.5 35h117q-17 -17 -28 -32t-22 -38l-214 -414h-54l-41 251q-2 12 -3 26.5t-3 26.5l-15 -30t-14 -30l-123 -244h-58l-74 414q-5 23 -10.5 38t-17.5 32h129q-11 -17 -12.5 -35.5
t0.5 -37.5l27 -164q4 -30 9.5 -60t10.5 -59q14 29 28.5 58l30.5 61zM473 598l-77 102h87l51 -102h-61z" />
    <glyph glyph-name="Wacute" unicode="&#x1e82;" horiz-adv-x="954" 
d="M320 285q5 -37 8 -73t7 -73q16 37 31 73t31 73l182 415h58l49 -415q5 -37 8 -73t6 -74q17 38 32 74t31 73l149 338q20 47 -12 77h157q-20 -14 -33.5 -30.5t-27.5 -45.5l-293 -624h-64l-52 433q-4 24 -6.5 48.5t-5.5 49.5q-11 -25 -22.5 -49t-22.5 -49l-189 -433h-68
l-94 621q-3 26 -11 42.5t-25 36.5h168q-16 -14 -25.5 -31.5t-5.5 -45.5zM626 900h88l-114 -102h-61z" />
    <glyph glyph-name="wacute" unicode="&#x1e83;" horiz-adv-x="701" 
d="M437 484h27l29 -237q3 -30 8 -60t10 -59q12 29 25.5 59t29.5 60l82 164q11 21 13.5 38t-4.5 35h117q-17 -17 -28 -32t-22 -38l-214 -414h-54l-41 251q-2 12 -3 26.5t-3 26.5l-15 -30t-14 -30l-123 -244h-58l-74 414q-5 23 -10.5 38t-17.5 32h129q-11 -17 -12.5 -35.5
t0.5 -37.5l27 -164q4 -30 9.5 -60t10.5 -59q14 29 28.5 58l30.5 61zM464 700h88l-114 -102h-61z" />
    <glyph glyph-name="Wdieresis" unicode="&#x1e84;" horiz-adv-x="954" 
d="M320 285q5 -37 8 -73t7 -73q16 37 31 73t31 73l182 415h58l49 -415q5 -37 8 -73t6 -74q17 38 32 74t31 73l149 338q20 47 -12 77h157q-20 -14 -33.5 -30.5t-27.5 -45.5l-293 -624h-64l-52 433q-4 24 -6.5 48.5t-5.5 49.5q-11 -25 -22.5 -49t-22.5 -49l-189 -433h-68
l-94 621q-3 26 -11 42.5t-25 36.5h168q-16 -14 -25.5 -31.5t-5.5 -45.5zM479 851q3 17 20 32.5t43 15.5q25 0 36 -15.5t8 -32.5q-3 -18 -20 -33.5t-41 -15.5q-26 0 -37.5 15.5t-8.5 33.5zM668 851q3 17 19.5 32.5t42.5 15.5q25 0 36.5 -15.5t8.5 -32.5q-3 -18 -20 -33.5
t-42 -15.5t-36.5 15.5t-8.5 33.5z" />
    <glyph glyph-name="wdieresis" unicode="&#x1e85;" horiz-adv-x="701" 
d="M437 484h27l29 -237q3 -30 8 -60t10 -59q12 29 25.5 59t29.5 60l82 164q11 21 13.5 38t-4.5 35h117q-17 -17 -28 -32t-22 -38l-214 -414h-54l-41 251q-2 12 -3 26.5t-3 26.5l-15 -30t-14 -30l-123 -244h-58l-74 414q-5 23 -10.5 38t-17.5 32h129q-11 -17 -12.5 -35.5
t0.5 -37.5l27 -164q4 -30 9.5 -60t10.5 -59q14 29 28.5 58l30.5 61zM318 651q3 17 20 32.5t43 15.5q25 0 36 -15.5t8 -32.5q-3 -18 -20 -33.5t-41 -15.5q-26 0 -37.5 15.5t-8.5 33.5zM507 651q3 17 19.5 32.5t42.5 15.5q25 0 36.5 -15.5t8.5 -32.5q-3 -18 -20 -33.5
t-42 -15.5t-36.5 15.5t-8.5 33.5z" />
    <glyph glyph-name="Ygrave" unicode="&#x1ef2;" horiz-adv-x="622" 
d="M352 432q8 -25 14.5 -47t14.5 -50q17 27 33.5 51.5t29.5 45.5l131 199q11 17 15.5 35t-2.5 34h145q-22 -12 -36.5 -26t-31.5 -37l-260 -372l-34 -190q-5 -25 1.5 -41t20.5 -34h-164q20 18 31.5 34t16.5 41l31 175l-126 380q-8 23 -17.5 38t-29.5 32h162
q-13 -10 -17 -30.5t4 -39.5zM469 798l-77 102h87l51 -102h-61z" />
    <glyph glyph-name="ygrave" unicode="&#x1ef3;" horiz-adv-x="501" 
d="M441 411q11 21 14.5 38t-4.5 35h123q-20 -17 -32 -32t-24 -38l-223 -410q-58 -104 -113.5 -158.5t-100.5 -54.5q-26 0 -48 18t-22 53q19 -11 40 -11q15 0 33.5 7.5t39.5 25t44 46.5t47 72l-86 412q-5 23 -11.5 38t-20.5 32h133q-12 -17 -13 -35.5t2 -37.5l35 -164
q7 -35 13 -69.5t14 -69.5q17 35 35 69.5t37 69.5zM373 598l-77 102h87l51 -102h-61z" />
    <glyph glyph-name="endash" unicode="&#x2013;" horiz-adv-x="629" 
d="M111 372h538l-8 -44h-537z" />
    <glyph glyph-name="emdash" unicode="&#x2014;" horiz-adv-x="852" 
d="M111 372h761l-7 -44h-761z" />
    <glyph glyph-name="quoteleft" unicode="&#x2018;" horiz-adv-x="221" 
d="M264 536q-5 -25 -25 -41.5t-45 -16.5q-24 0 -38 18.5t-8 53.5q4 24 17 48.5t31 47t39.5 41.5t43.5 32h40q-30 -24 -58 -56t-36 -66q21 -6 32 -22.5t7 -38.5z" />
    <glyph glyph-name="quoteright" unicode="&#x2019;" horiz-adv-x="221" 
d="M167 660q5 26 25.5 42.5t45.5 16.5q24 0 37.5 -18t7.5 -53q-4 -24 -16.5 -49t-30.5 -47.5t-40 -41.5t-44 -32h-39q29 24 57 56t36 65q-20 6 -31.5 22.5t-7.5 38.5z" />
    <glyph glyph-name="quotesinglbase" unicode="&#x201a;" horiz-adv-x="221" 
d="M58 43q5 25 25.5 41.5t45.5 16.5q24 0 37.5 -18t7.5 -53q-4 -24 -16.5 -49t-30.5 -47.5t-40 -41.5t-44 -32h-39q29 24 57 56t36 66q-20 6 -31.5 22.5t-7.5 38.5z" />
    <glyph glyph-name="quotedblleft" unicode="&#x201c;" horiz-adv-x="392" 
d="M264 536q-5 -25 -25 -41.5t-45 -16.5q-24 0 -38 18.5t-8 53.5q4 24 17 48.5t31 47t39.5 41.5t43.5 32h40q-30 -24 -58 -56t-36 -66q21 -6 32 -22.5t7 -38.5zM436 536q-5 -25 -25.5 -41.5t-45.5 -16.5q-24 0 -38 18.5t-8 53.5q4 24 17 48.5t31 47t40 41.5t44 32h39
q-30 -24 -57.5 -56t-35.5 -66q20 -6 31.5 -22.5t7.5 -38.5z" />
    <glyph glyph-name="quotedblright" unicode="&#x201d;" horiz-adv-x="392" 
d="M338 660q5 26 25.5 42.5t45.5 16.5q24 0 38 -18.5t8 -53.5q-4 -24 -17 -48.5t-31 -47t-39.5 -41.5t-43.5 -32h-40q30 24 57.5 56t35.5 65q-20 6 -31.5 22.5t-7.5 38.5zM167 660q5 26 25.5 42.5t45.5 16.5q24 0 37.5 -18t7.5 -53q-4 -24 -16.5 -49t-30.5 -47.5t-40 -41.5
t-44 -32h-39q29 24 57 56t36 65q-20 6 -31.5 22.5t-7.5 38.5z" />
    <glyph glyph-name="quotedblbase" unicode="&#x201e;" horiz-adv-x="392" 
d="M229 43q5 25 25.5 41.5t45.5 16.5q24 0 38 -18.5t8 -53.5q-4 -24 -17 -48.5t-31 -47t-39.5 -41.5t-43.5 -32h-40q30 24 57.5 56t35.5 66q-20 6 -31.5 22.5t-7.5 38.5zM58 43q5 25 25.5 41.5t45.5 16.5q24 0 37.5 -18t7.5 -53q-4 -24 -16.5 -49t-30.5 -47.5t-40 -41.5
t-44 -32h-39q29 24 57 56t36 66q-20 6 -31.5 22.5t-7.5 38.5z" />
    <glyph glyph-name="dagger" unicode="&#x2020;" horiz-adv-x="510" 
d="M123 499l205 -21l-3 221h109l-82 -221l212 21l-13 -75l-204 21l15 -194q-35 -113 -68.5 -229.5t-56.5 -230.5h-37q17 114 24.5 230.5t14.5 229.5l83 194l-212 -21z" />
    <glyph glyph-name="daggerdbl" unicode="&#x2021;" horiz-adv-x="510" 
d="M123 497l205 -21l-3 224h109l-82 -224l211 21l-14 -76l-203 21l14 -197l-83 -196l210 21l-13 -76l-204 20l4 -223h-109l81 223l-212 -20l13 76l206 -21l-16 196l85 197l-213 -21z" />
    <glyph glyph-name="bullet" unicode="&#x2022;" horiz-adv-x="349" 
d="M121 351q4 21 16.5 40t30.5 33.5t40.5 22.5t46.5 8t43.5 -8t32.5 -22.5t19 -33.5t2 -40q-4 -22 -16.5 -41t-30.5 -33t-40.5 -22.5t-46.5 -8.5t-43.5 8.5t-32.5 22.5t-19 33t-2 41z" />
    <glyph glyph-name="ellipsis" unicode="&#x2026;" horiz-adv-x="662" 
d="M59 46q4 23 24.5 39t45.5 16q24 0 38 -16t10 -39q-5 -24 -24.5 -40.5t-43.5 -16.5q-25 0 -40 16.5t-10 40.5zM280 46q4 23 24 39t45 16q24 0 38.5 -16t10.5 -39q-5 -24 -25 -40.5t-44 -16.5q-25 0 -39.5 16.5t-9.5 40.5zM500 46q4 23 24.5 39t45.5 16q24 0 38 -16t10 -39
q-5 -24 -24.5 -40.5t-43.5 -16.5q-25 0 -40 16.5t-10 40.5z" />
    <glyph glyph-name="perthousand" unicode="&#x2030;" horiz-adv-x="1145" 
d="M136 524q8 42 24.5 79.5t39.5 65.5t52.5 44t62.5 16q34 0 57.5 -16t37 -44t17 -65.5t-4.5 -79.5q-7 -42 -23.5 -79.5t-40 -65.5t-53 -44t-63.5 -16q-33 0 -56.5 16t-37 44t-16.5 65.5t4 79.5zM199 524q-6 -35 -5.5 -66t6.5 -54t18.5 -36t30.5 -13q19 0 36 13t31.5 36
t25.5 54t17 66t6 66t-6.5 54t-19 36.5t-31.5 13.5q-18 0 -35 -13.5t-31 -36.5t-25.5 -54t-17.5 -66zM791 195q-7 -42 -24 -79.5t-40 -65.5t-52.5 -44t-62.5 -16t-57 16t-38 44t-17 65.5t4 79.5q8 42 24.5 79.5t40 65.5t53.5 44t63 16t56.5 -16t37 -44t17 -65.5t-4.5 -79.5z
M727 195q6 35 6 66t-6 54t-18.5 36t-30.5 13q-19 0 -36 -13t-31.5 -36t-25.5 -54t-17 -66t-6 -66t6 -54t18.5 -36.5t31.5 -13.5q18 0 35.5 13.5t31.5 36.5t25 54t17 66zM190 0l499 719h48l-499 -719h-48zM1135 195q-7 -42 -23.5 -79.5t-40 -65.5t-53 -44t-62.5 -16t-57 16
t-37.5 44t-16.5 65.5t4 79.5q8 42 24.5 79.5t40 65.5t53 44t62.5 16t56.5 -16t37 -44t17 -65.5t-4.5 -79.5zM1072 195q6 35 6 66t-6.5 54t-19 36t-30.5 13t-35.5 -13t-31.5 -36t-25.5 -54t-17.5 -66t-6 -66t6.5 -54t19 -36.5t30.5 -13.5t35.5 13.5t32 36.5t25.5 54t17 66z
" />
    <glyph glyph-name="guilsinglleft" unicode="&#x2039;" horiz-adv-x="284" 
d="M109 363l205 157l15 -11l-132 -159l76 -159l-19 -11l-149 158z" />
    <glyph glyph-name="guilsinglright" unicode="&#x203a;" horiz-adv-x="284" 
d="M93 180l-15 11l131 159l-75 159l19 11l149 -157l-4 -25z" />
    <glyph glyph-name="Euro" unicode="&#x20ac;" horiz-adv-x="599" 
d="M112 467h80q22 55 54 101t73 79.5t90.5 52.5t106.5 19q45 0 86.5 -12t75.5 -32l-38 -107q-17 40 -48 63.5t-79 23.5q-34 0 -66.5 -14t-60.5 -38.5t-51.5 -59t-41.5 -76.5h204l-10 -58h-214q-18 -57 -21 -118h214l-10 -58h-204q4 -41 16 -75.5t33 -59t50 -38t66 -13.5
q50 0 95.5 23t77.5 61l-27 -108q-40 -20 -84.5 -31t-89.5 -11q-57 0 -100 19t-72.5 52.5t-46 79.5t-19.5 101h-80l10 58h71q2 30 7 59.5t13 58.5h-70z" />
    <glyph glyph-name="trademark" unicode="&#x2122;" horiz-adv-x="659" 
d="M176 397q9 8 14.5 16.5t7.5 20.5l39 226h-57q-11 0 -19 -4t-17 -12l9 56h234l-9 -56q-8 8 -14.5 12t-17.5 4h-57l-39 -226q-2 -13 0 -20t8 -17h-82zM427 436q-2 -13 0 -21.5t8 -17.5h-72q9 9 14.5 16.5t7.5 20.5l40 229q2 12 -1 20t-9 17h73l51 -178q3 -11 6.5 -23
t5.5 -23q6 11 12.5 22t13.5 22l107 180h68q-9 -9 -14.5 -17t-7.5 -20l-40 -229q-2 -13 0.5 -20.5t8.5 -16.5h-83q7 9 11.5 17.5t6.5 22.5l29 163q-11 -19 -21.5 -38.5t-22.5 -40.5l-73 -124h-28l-40 146q-5 17 -10 35t-10 35z" />
    <glyph glyph-name="minus" unicode="&#x2212;" horiz-adv-x="467" 
d="M111 372h376l-8 -44h-375z" />
    <glyph glyph-name="uni0326.salt" horiz-adv-x="152" 
d="M-2 -180q28 17 49 37.5t26 43.5q2 11 0 20.5t-10 19.5h79q5 -10 8 -18.5t1 -18.5q-9 -51 -131 -113z" />
    </font>
</defs>
</svg>
