<?xml version="1.0" standalone="no"?>
<!DOCTYPE svg PUBLIC "-//W3C//DTD SVG 1.1//EN" "http://www.w3.org/Graphics/SVG/1.1/DTD/svg11.dtd" >
<svg xmlns="http://www.w3.org/2000/svg" xmlns:xlink="http://www.w3.org/1999/xlink" version="1.1">
<metadata>
Created by FontForge 20201107 at Fri Jan 10 15:39:06 2025
 By 
Copyright 2019 IBM Corp. All rights reserved.
</metadata>
<defs>
<font id="IBMPlexSansCondensed-SemiBold" horiz-adv-x="540" >
  <font-face 
    font-family="IBM Plex Sans Condensed SemiBold"
    font-weight="600"
    font-stretch="condensed"
    units-per-em="1000"
    panose-1="2 11 5 3 5 2 3 0 2 3"
    ascent="800"
    descent="-200"
    x-height="522"
    cap-height="698"
    bbox="-277 -266 1183 1143"
    underline-thickness="88"
    underline-position="-119"
    unicode-range="U+0020-FFFD"
  />
<missing-glyph horiz-adv-x="424" 
d="M32 0v780h360v-780h-360zM120 88h184v604h-184v-604z" />
    <glyph glyph-name="fi" unicode="fi" horiz-adv-x="571" 
d="M89 0v427h-69v95h69v81q0 70 31.5 103.5t98.5 33.5h85v-97h-95v-121h296v-522h-119v427h-177v-427h-120zM445 604q-38 0 -55 17t-17 44v20q0 29 17 45t55 16q37 0 54 -16t17 -45v-20q0 -27 -17 -44t-54 -17z" />
    <glyph glyph-name=".notdef" horiz-adv-x="424" 
d="M32 0v780h360v-780h-360zM120 88h184v604h-184v-604z" />
    <glyph glyph-name=".null" horiz-adv-x="0" 
 />
    <glyph glyph-name="nonmarkingreturn" horiz-adv-x="333" 
 />
    <glyph glyph-name="space" unicode=" " horiz-adv-x="212" 
 />
    <glyph glyph-name="exclam" unicode="!" horiz-adv-x="282" 
d="M169 206h-55l-37 294v198h128v-198zM141 -12q-40 0 -58 17.5t-18 46.5v26q0 30 18 47.5t58 17.5t58 -17.5t18 -47.5v-26q0 -29 -18 -46.5t-58 -17.5z" />
    <glyph glyph-name="quotedbl" unicode="&#x22;" horiz-adv-x="431" 
d="M172 433h-107v307h107v-307zM366 433h-107v307h107v-307z" />
    <glyph glyph-name="numbersign" unicode="#" horiz-adv-x="583" 
d="M311 0l28 183h-147l-28 -183h-78l29 183h-96v71h107l30 190h-98v71h109l28 183h77l-29 -183h149l28 183h76l-28 -183h95v-71h-106l-30 -190h97v-71h-108l-28 -183h-77zM203 254h147l31 190h-149z" />
    <glyph glyph-name="dollar" unicode="$" horiz-adv-x="536" 
d="M324 -82h-95v129l10 17v570l-10 17v129h95v-129l-10 -17v-570l10 -17v-129zM273 3q-57 0 -102.5 13t-80 37t-58.5 55l77 69q14 -22 39 -40t56.5 -28.5t67.5 -10.5t63 10.5t42.5 33t15.5 57.5q0 27 -9.5 46.5t-29 33t-49.5 20.5l-58 13q-67 17 -111 41.5t-65 61t-21 88.5
q0 62 26.5 104.5t76.5 64.5t122 22q81 0 134.5 -25t85.5 -68l-75 -66q-21 30 -58 47t-85 17q-56 0 -84.5 -20.5t-28.5 -68.5q0 -24 8.5 -42t27 -30t45.5 -19l62 -15q70 -17 113 -41t63.5 -60t20.5 -91q0 -68 -27.5 -115t-79 -70.5t-124.5 -23.5z" />
    <glyph glyph-name="percent" unicode="%" horiz-adv-x="870" 
d="M271 0h-106l434 698h106zM207 314q-51 0 -86 20.5t-53.5 64t-18.5 113.5t18.5 113.5t53.5 64t86 20.5t86 -20.5t53.5 -64t18.5 -113.5t-18.5 -113.5t-53.5 -64t-86 -20.5zM207 385q19 0 30.5 8t17.5 24.5t6 41.5v106q0 25 -6 41.5t-17.5 24.5t-30.5 8q-18 0 -30 -8
t-18 -24.5t-6 -41.5v-106q0 -25 6 -41.5t18 -24.5t30 -8zM663 -12q-51 0 -86 20.5t-53.5 64t-18.5 113.5t18.5 113.5t53.5 64t86 20.5t86 -20.5t53.5 -64t18.5 -113.5t-18.5 -113.5t-53.5 -64t-86 -20.5zM663 59q19 0 30.5 8t17.5 24.5t6 41.5v106q0 25 -6 41.5t-17.5 24.5
t-30.5 8q-18 0 -30 -8t-18 -24.5t-6 -41.5v-106q0 -25 6 -41.5t18 -24.5t30 -8z" />
    <glyph glyph-name="ampersand" unicode="&#x26;" horiz-adv-x="644" 
d="M490 0l-80 105h-13q-5 -30 -24 -57t-52 -43.5t-82 -16.5q-61 0 -103.5 23.5t-64.5 67.5t-22 104q0 45 13.5 79.5t41.5 62.5t72 52q-35 43 -55 87t-20 90q0 50 21 85t61.5 53t96.5 18q58 0 98 -18.5t61.5 -52.5t21.5 -83q0 -43 -17 -78.5t-45.5 -63.5t-64.5 -49l106 -138
q12 34 19 73t8 78h145v-100h-58q-7 -35 -17.5 -68t-24.5 -61l125 -149h-147zM281 617q-29 0 -47 -15t-18 -47v-17q0 -14 6.5 -32t20 -37.5t31.5 -38.5q23 13 39 29.5t24.5 36.5t8.5 42v17q0 21 -8 35t-22.5 20.5t-34.5 6.5zM275 88q22 0 40.5 5.5t33.5 16.5t26 25l-139 177
q-22 -11 -36 -27.5t-21 -36t-7 -44.5v-20q0 -45 27 -70.5t76 -25.5z" />
    <glyph glyph-name="quotesingle" unicode="'" horiz-adv-x="237" 
d="M172 433h-107v307h107v-307z" />
    <glyph glyph-name="parenleft" unicode="(" horiz-adv-x="303" 
d="M42 311q0 104 20.5 189.5t56.5 151t81 108.5h114q-49 -50 -84 -112t-54.5 -132.5t-19.5 -147.5v-114q0 -77 19.5 -147.5t54.5 -132.5t84 -112h-114q-45 44 -81 109t-56.5 151t-20.5 189z" />
    <glyph glyph-name="parenright" unicode=")" horiz-adv-x="303" 
d="M262 311q0 -103 -21 -189t-57 -151t-81 -109h-114q49 50 84.5 112t54.5 132.5t19 147.5v114q0 77 -19 147.5t-54.5 132.5t-84.5 112h114q45 -43 81 -108.5t57 -151t21 -189.5z" />
    <glyph glyph-name="asterisk" unicode="*" horiz-adv-x="514" 
d="M201 747h112l-24 -174l9 -6l158 77l34 -105l-172 -31l-3 -11l121 -126l-91 -66l-82 153h-12l-82 -153l-91 66l121 126l-3 11l-172 31l35 105l157 -77l9 6z" />
    <glyph glyph-name="plus" unicode="+" 
d="M323 90h-106v169h-161v96h161v168h106v-168h161v-96h-161v-169z" />
    <glyph glyph-name="comma" unicode="," horiz-adv-x="273" 
d="M137 144q38 0 56.5 -17.5t18.5 -48.5v-23q0 -54 -25.5 -107.5t-69.5 -88.5h-83q32 32 53 62.5t31 68.5q-29 5 -43 21.5t-14 43.5v23q0 31 19 48.5t57 17.5z" />
    <glyph glyph-name="hyphen" unicode="-" horiz-adv-x="360" 
d="M311 245h-262v120h262v-120z" />
    <glyph glyph-name="period" unicode="." horiz-adv-x="273" 
d="M137 -11q-38 0 -57 18t-19 48v23q0 31 19 48.5t57 17.5t56.5 -17.5t18.5 -48.5v-23q0 -30 -18.5 -48t-56.5 -18z" />
    <glyph glyph-name="slash" unicode="/" horiz-adv-x="400" 
d="M105 -151h-101l262 891h101z" />
    <glyph glyph-name="zero" unicode="0" 
d="M270 -12q-81 0 -133 37t-76.5 116.5t-24.5 207.5t24.5 207.5t76.5 116.5t133 37q82 0 133.5 -37t76 -116.5t24.5 -207.5t-24.5 -207.5t-76 -116.5t-133.5 -37zM270 93q38 0 60 16.5t32 51.5t10 90v196q0 56 -10 90.5t-32 51t-60 16.5q-37 0 -59.5 -16.5t-32.5 -51
t-10 -90.5v-196q0 -55 10 -90t32.5 -51.5t59.5 -16.5z" />
    <glyph glyph-name="one" unicode="1" 
d="M504 0h-426v105h161v504h-8l-112 -138l-81 60l135 167h188v-593h143v-105z" />
    <glyph glyph-name="two" unicode="2" 
d="M493 105v-105h-438v116l197 197q52 51 73.5 90t21.5 81v30q0 43 -23 66.5t-66 23.5q-47 0 -72.5 -30t-34.5 -74l-108 42q13 46 40 84t72 61t113 23q75 0 121 -23.5t67.5 -68.5t21.5 -108q0 -47 -12.5 -85.5t-44 -79.5t-88.5 -96l-145 -144h305z" />
    <glyph glyph-name="three" unicode="3" 
d="M175 412h61q53 0 77.5 27t24.5 60v27q0 38 -23.5 60t-65.5 22q-43 0 -73.5 -21.5t-54.5 -62.5l-80 70q23 37 54.5 62.5t72 39.5t88.5 14q64 0 111.5 -19.5t73 -59.5t25.5 -102q0 -70 -35 -109t-84 -48v-15q38 -5 68 -23t47 -50t17 -83q0 -66 -28 -114t-80 -73.5
t-125 -25.5q-61 0 -104.5 18t-73 47.5t-49.5 63.5l91 69q22 -42 52.5 -69t82.5 -27q50 0 77.5 26.5t27.5 71.5v28q0 44 -30 69.5t-85 25.5h-60v101z" />
    <glyph glyph-name="four" unicode="4" 
d="M427 0h-117v133h-282v107l236 458h163v-466h83v-99h-83v-133zM295 578l-169 -346h184v346h-15z" />
    <glyph glyph-name="five" unicode="5" 
d="M466 698v-109h-281l-16 -241h15q8 31 25 53.5t43.5 34.5t62.5 12q57 0 99 -23.5t65.5 -72t23.5 -123.5q0 -77 -27 -130.5t-79 -82t-130 -28.5q-57 0 -100 17.5t-72.5 46.5t-47.5 64l90 70q21 -44 53.5 -70t76.5 -26q53 0 79 29t26 87v30q0 56 -27 83.5t-76 27.5
q-38 0 -61.5 -17t-36.5 -37l-106 14l24 391h377z" />
    <glyph glyph-name="six" unicode="6" 
d="M273 -12q-78 0 -129.5 31.5t-77.5 92.5t-26 149q0 77 20 143.5t53.5 122.5t73.5 99.5t80 71.5h169q-75 -57 -129.5 -110.5t-88.5 -111.5t-48 -132h15q9 28 27 50.5t45.5 36t65.5 13.5q57 0 97.5 -25t63 -73.5t22.5 -119.5q0 -74 -27 -127.5t-79 -82t-127 -28.5zM273 90
q34 0 56.5 12.5t34 37.5t11.5 62v28q0 37 -11.5 61.5t-34 37.5t-56.5 13q-33 0 -56 -13t-34.5 -37.5t-11.5 -61.5v-28q0 -37 11.5 -62t34.5 -37.5t56 -12.5z" />
    <glyph glyph-name="seven" unicode="7" 
d="M281 0h-131l218 597h-211v-127h-105v228h438v-107z" />
    <glyph glyph-name="eight" unicode="8" 
d="M270 -12q-76 0 -127.5 24.5t-77.5 70.5t-26 108q0 72 35 113.5t91 52.5v14q-47 13 -77 54t-30 105q0 86 53 133t159 47t159 -47t53 -133q0 -64 -30 -105t-77 -54v-14q56 -11 91 -52.5t35 -113.5q0 -62 -26 -108t-77 -70.5t-128 -24.5zM270 85q50 0 76 26t26 73v31
q0 47 -26 73t-76 26q-49 0 -75.5 -26t-26.5 -73v-31q0 -47 26.5 -73t75.5 -26zM270 407q47 0 71 24.5t24 65.5v26q0 41 -24 65.5t-71 24.5t-71 -24.5t-24 -65.5v-26q0 -41 24 -65.5t71 -24.5z" />
    <glyph glyph-name="nine" unicode="9" 
d="M500 437q0 -77 -20 -143.5t-53.5 -122.5t-73 -99.5t-80.5 -71.5h-169q76 58 130 111t88 111.5t48 131.5h-15q-9 -27 -27 -50t-45.5 -36.5t-65.5 -13.5q-56 0 -97 25t-63.5 74t-22.5 119q0 75 27 128t79 81.5t127 28.5q78 0 129.5 -31.5t77.5 -92.5t26 -149zM267 356
q34 0 56.5 13t34 37.5t11.5 61.5v28q0 37 -11.5 62t-34 37.5t-56.5 12.5q-33 0 -56 -12.5t-34.5 -37.5t-11.5 -62v-28q0 -37 11.5 -61.5t34.5 -37.5t56 -13z" />
    <glyph glyph-name="colon" unicode=":" horiz-adv-x="290" 
d="M146 -11q-38 0 -57 18t-19 48v23q0 31 19 48.5t57 17.5t56.5 -17.5t18.5 -48.5v-23q0 -30 -18.5 -48t-56.5 -18zM146 373q-38 0 -57 18t-19 48v23q0 31 19 48.5t57 17.5t56.5 -17.5t18.5 -48.5v-23q0 -30 -18.5 -48t-56.5 -18z" />
    <glyph glyph-name="semicolon" unicode=";" horiz-adv-x="290" 
d="M146 144q38 0 56.5 -17.5t18.5 -48.5v-23q0 -54 -25.5 -107.5t-69.5 -88.5h-83q32 32 53 62.5t31 68.5q-29 5 -43 21.5t-14 43.5v23q0 31 19 48.5t57 17.5zM146 373q-38 0 -57 18t-19 48v23q0 31 19 48.5t57 17.5t56.5 -17.5t18.5 -48.5v-23q0 -30 -18.5 -48t-56.5 -18z
" />
    <glyph glyph-name="less" unicode="&#x3c;" 
d="M452 -6l-364 253v88l364 254v-129l-242 -162v-14l242 -161v-129z" />
    <glyph glyph-name="equal" unicode="=" 
d="M484 365h-428v96h428v-96zM484 153h-428v96h428v-96z" />
    <glyph glyph-name="greater" unicode="&#x3e;" 
d="M88 -6v129l242 161v14l-242 162v129l364 -254v-88z" />
    <glyph glyph-name="question" unicode="?" horiz-adv-x="446" 
d="M260 223h-114v157q74 3 109.5 29.5t35.5 85.5v24q0 43 -21 65t-59 22q-39 0 -63 -26t-34 -72l-100 42q12 44 36 80t65 58t100 22q68 0 113.5 -22.5t68.5 -65.5t23 -108q0 -59 -20.5 -101t-56 -67.5t-83.5 -36.5v-86zM204 -12q-39 0 -57 17.5t-18 46.5v26q0 30 18 47.5
t57 17.5q40 0 58 -17.5t18 -47.5v-26q0 -29 -18 -46.5t-58 -17.5z" />
    <glyph glyph-name="at" unicode="@" horiz-adv-x="811" 
d="M605 -52v-68h-194q-113 0 -194.5 50.5t-125.5 143t-44 219.5q0 128 44 221t126.5 144.5t195.5 51.5q81 0 146 -25t110.5 -73.5t70 -119.5t24.5 -162q0 -82 -20.5 -138t-58.5 -85t-93 -29q-52 0 -80 23.5t-32 60.5h-12q-6 -37 -30.5 -60.5t-65.5 -23.5q-43 0 -75 22.5
t-49.5 69.5t-17.5 120q0 74 17.5 120.5t49.5 69t75 22.5q37 0 58.5 -21t27.5 -55h12v68h94v-283q0 -31 11.5 -44.5t32.5 -13.5q34 0 53.5 35t19.5 113v59q0 88 -33 151.5t-93.5 97t-141.5 33.5q-67 0 -119 -23t-88 -65t-54.5 -100t-18.5 -128v-64q0 -70 18.5 -127.5t54 -99
t87.5 -64.5t118 -23h194zM403 158q20 0 35 8.5t23.5 25t8.5 37.5v125q0 19 -8.5 35t-23.5 24.5t-35 8.5q-36 0 -55 -22.5t-19 -65.5v-88q0 -41 19 -64.5t55 -23.5z" />
    <glyph glyph-name="A" unicode="A" horiz-adv-x="606" 
d="M586 0h-123l-49 182h-225l-49 -182h-120l204 698h158zM384 283l-54 191l-22 111h-14l-22 -111l-53 -191h165z" />
    <glyph glyph-name="B" unicode="B" horiz-adv-x="598" 
d="M72 0v698h297q82 0 123.5 -47.5t41.5 -131.5q0 -58 -17.5 -89.5t-44 -44.5t-53.5 -15v-15q22 0 46.5 -8t45.5 -26t34 -48t13 -73q0 -57 -20 -102.5t-56 -71.5t-85 -26h-325zM197 303v-197h164q21 0 36 7.5t22.5 24t7.5 42.5v49q0 26 -7.5 42.5t-22.5 24t-36 7.5h-164z
M197 592v-185h144q21 0 34.5 7t21.5 22.5t8 39.5v46q0 25 -8 40.5t-21.5 22.5t-34.5 7h-144z" />
    <glyph glyph-name="C" unicode="C" horiz-adv-x="581" 
d="M318 -12q-82 0 -143 35.5t-95 114.5t-34 207q0 130 34 210t95 117.5t143 37.5q93 0 146.5 -39t86.5 -120l-106 -56q-14 48 -40.5 76.5t-86.5 28.5q-65 0 -102 -42t-37 -122v-174q0 -80 37 -122t102 -42q61 0 90 31.5t44 80.5l102 -60q-34 -77 -88.5 -119.5t-147.5 -42.5z
" />
    <glyph glyph-name="D" unicode="D" horiz-adv-x="623" 
d="M72 0v698h238q84 0 143.5 -35.5t91.5 -112.5t32 -201t-32 -201t-91.5 -112.5t-143.5 -35.5h-238zM197 109h113q43 0 72.5 17.5t45.5 53t16 87.5v164q0 53 -16 88t-45.5 52.5t-72.5 17.5h-113v-480z" />
    <glyph glyph-name="E" unicode="E" horiz-adv-x="542" 
d="M491 0h-419v698h419v-109h-294v-182h257v-108h-257v-190h294v-109z" />
    <glyph glyph-name="F" unicode="F" horiz-adv-x="521" 
d="M197 0h-125v698h408v-109h-283v-182h245v-108h-245v-299z" />
    <glyph glyph-name="G" unicode="G" horiz-adv-x="640" 
d="M473 0v106h-14q-9 -51 -50 -84.5t-112 -33.5q-69 0 -125.5 35.5t-91 114.5t-34.5 209t34 210t95 116.5t145 36.5q93 0 153.5 -40.5t94.5 -116.5l-102 -59q-16 49 -51.5 77.5t-94.5 28.5q-43 0 -75 -19t-49 -55.5t-17 -89.5v-174q0 -52 17 -89t49.5 -56t77.5 -19
q38 0 69.5 14.5t49.5 41.5t18 66v51h-122v106h241v-377h-106z" />
    <glyph glyph-name="H" unicode="H" horiz-adv-x="649" 
d="M452 0v299h-255v-299h-125v698h125v-291h255v291h125v-698h-125z" />
    <glyph glyph-name="I" unicode="I" horiz-adv-x="387" 
d="M339 0h-292v99h84v500h-84v99h292v-99h-83v-500h83v-99z" />
    <glyph glyph-name="J" unicode="J" horiz-adv-x="493" 
d="M106 698h319v-518q0 -60 -23.5 -103t-69 -66t-109.5 -23q-92 0 -139 48t-62 133l113 24q8 -50 28 -72.5t59 -22.5q37 0 57.5 21.5t20.5 71.5v405h-194v102z" />
    <glyph glyph-name="K" unicode="K" horiz-adv-x="613" 
d="M455 0l-174 320l-84 -111v-209h-125v698h125v-228l-6 -121h14l79 121l159 228h141l-217 -293l234 -405h-146z" />
    <glyph glyph-name="L" unicode="L" horiz-adv-x="472" 
d="M442 0h-370v698h125v-589h245v-109z" />
    <glyph glyph-name="M" unicode="M" horiz-adv-x="736" 
d="M72 0v698h137l104 -227l51 -143h9l51 143l102 227h137v-698h-118v398l8 118h-14l-46 -114l-126 -269l-125 269l-46 113h-14l8 -117v-398h-118z" />
    <glyph glyph-name="N" unicode="N" horiz-adv-x="649" 
d="M438 0l-193 397l-49 121h-14l8 -125v-393h-118v698h139l193 -397l49 -121h14l-8 125v393h118v-698h-139z" />
    <glyph glyph-name="O" unicode="O" horiz-adv-x="641" 
d="M320 -12q-84 0 -145 36.5t-95 116.5t-34 208q0 129 34 208.5t95 116t145 36.5q85 0 146 -36.5t94.5 -116t33.5 -208.5q0 -128 -33.5 -208t-94.5 -116.5t-146 -36.5zM320 98q46 0 77 19t48 56t17 89v174q0 53 -17 89.5t-48 55.5t-77 19q-44 0 -75.5 -19t-48.5 -55.5
t-17 -89.5v-174q0 -52 17 -89t48.5 -56t75.5 -19z" />
    <glyph glyph-name="P" unicode="P" horiz-adv-x="581" 
d="M197 0h-125v698h289q61 0 102.5 -26t63 -73.5t21.5 -114.5q0 -66 -21.5 -114t-63 -74t-102.5 -26h-164v-270zM197 589v-210h151q22 0 37.5 8t24 24.5t8.5 41.5v62q0 27 -8.5 43t-24 23.5t-37.5 7.5h-151z" />
    <glyph glyph-name="Q" unicode="Q" horiz-adv-x="641" 
d="M482 -75v-101h-92q-66 0 -93.5 30t-27.5 87v51q-69 10 -118.5 50.5t-77 116t-27.5 190.5q0 129 34 208.5t95 116t145 36.5q85 0 146 -36.5t94.5 -116t33.5 -208.5q0 -112 -25 -186t-72 -115.5t-113 -53.5v-69h98zM320 98q46 0 77 19t48 56t17 89v174q0 53 -17 89.5
t-48 55.5t-77 19q-44 0 -75.5 -19t-48.5 -55.5t-17 -89.5v-174q0 -52 17 -89t48.5 -56t75.5 -19z" />
    <glyph glyph-name="R" unicode="R" horiz-adv-x="601" 
d="M197 275v-275h-125v698h289q61 0 102.5 -25.5t63 -72.5t21.5 -114q0 -78 -30 -130t-88 -71l127 -285h-135l-115 275h-110zM197 379h151q22 0 37.5 7.5t24 23.5t8.5 43v62q0 27 -8.5 43.5t-24 23.5t-37.5 7h-151v-210z" />
    <glyph glyph-name="S" unicode="S" horiz-adv-x="547" 
d="M269 -12q-78 0 -137.5 29t-102.5 84l82 79q30 -40 70.5 -62t89.5 -22q56 0 84 25.5t28 76.5q0 27 -9 46t-27.5 31.5t-49.5 18.5l-61 12q-63 13 -104 38.5t-61 66t-20 97.5q0 66 27 111t78 68t124 23q74 0 128 -24.5t92 -76.5l-82 -77q-26 35 -59.5 52.5t-80.5 17.5
q-52 0 -77.5 -21t-25.5 -68q0 -26 9 -44t27.5 -29t46.5 -18l61 -13q68 -14 109 -38.5t60 -63.5t19 -98q0 -71 -28 -120.5t-81 -75t-129 -25.5z" />
    <glyph glyph-name="T" unicode="T" horiz-adv-x="524" 
d="M500 589h-176v-589h-124v589h-176v109h476v-109z" />
    <glyph glyph-name="U" unicode="U" horiz-adv-x="624" 
d="M68 698h125v-453q0 -50 11 -82.5t37.5 -48.5t70.5 -16q45 0 71 16t37.5 48.5t11.5 82.5v453h124v-435q0 -96 -23.5 -157t-77 -89.5t-143.5 -28.5t-143.5 28.5t-77 89.5t-23.5 157v435z" />
    <glyph glyph-name="V" unicode="V" horiz-adv-x="584" 
d="M367 0h-148l-205 698h129l118 -432l26 -154h14l26 154l117 432h125z" />
    <glyph glyph-name="W" unicode="W" horiz-adv-x="862" 
d="M315 0h-147l-143 698h124l74 -405l20 -159h14l20 156l85 408h142l85 -408l20 -156h15l20 159l73 405h120l-150 -698h-144l-86 416l-20 151h-14l-20 -151z" />
    <glyph glyph-name="X" unicode="X" horiz-adv-x="595" 
d="M17 0l199 357l-189 341h143l124 -242h14l126 242h134l-192 -340l202 -358h-144l-136 261h-13l-134 -261h-134z" />
    <glyph glyph-name="Y" unicode="Y" horiz-adv-x="566" 
d="M345 0h-124v267l-214 431h137l135 -300h14l132 300h134l-214 -431v-267z" />
    <glyph glyph-name="Z" unicode="Z" 
d="M505 109v-109h-471v110l320 479h-304v109h446v-110l-320 -479h329z" />
    <glyph glyph-name="bracketleft" unicode="[" horiz-adv-x="297" 
d="M251 -138h-179v898h179v-85h-73v-728h73v-85z" />
    <glyph glyph-name="backslash" unicode="\" horiz-adv-x="400" 
d="M396 -151h-101l-262 891h101z" />
    <glyph glyph-name="bracketright" unicode="]" horiz-adv-x="297" 
d="M47 760h178v-898h-178v85h72v728h-72v85z" />
    <glyph glyph-name="asciicircum" unicode="^" 
d="M506 337l-97 -44l-135 280h-15l-133 -280l-92 44l180 361h112z" />
    <glyph glyph-name="underscore" unicode="_" horiz-adv-x="502" 
d="M475 -180h-448v101h448v-101z" />
    <glyph glyph-name="grave" unicode="`" 
d="M257 581l-119 173l104 51l88 -189z" />
    <glyph glyph-name="a" unicode="a" horiz-adv-x="506" 
d="M479 0h-73q-24 0 -43.5 9t-31 31.5t-11.5 60.5v16l25 -28h-36q-10 -47 -45 -74t-87 -27q-71 0 -107.5 40.5t-36.5 111.5q0 54 23 90.5t67 54t108 17.5h81v45q0 46 -19.5 68t-64.5 22q-37 0 -62 -18t-44 -49l-71 64q28 46 73.5 73t113.5 27q98 0 146.5 -46.5t48.5 -137.5
v-253h46v-97zM312 227h-73q-43 0 -63.5 -17t-20.5 -48v-22q0 -33 18 -48t50 -15q25 0 45 10t32 28t12 43v69z" />
    <glyph glyph-name="b" unicode="b" horiz-adv-x="542" 
d="M65 0v740h122v-304h14q11 44 44.5 71t78.5 27q61 0 100.5 -31.5t59 -92.5t19.5 -149q0 -89 -19.5 -150t-59 -92t-100.5 -31q-45 0 -78.5 27t-44.5 71h-14v-86h-122zM277 88q47 0 73 29.5t26 81.5v124q0 53 -26 82t-73 29q-27 0 -47.5 -9.5t-31.5 -27t-11 -41.5v-189
q0 -25 11 -42.5t31.5 -27t47.5 -9.5z" />
    <glyph glyph-name="c" unicode="c" horiz-adv-x="464" 
d="M251 -12q-105 0 -161 66t-56 207q0 140 56 206.5t161 66.5q76 0 122 -34.5t66 -96.5l-99 -44q-7 38 -28 57.5t-61 19.5q-45 0 -67.5 -27t-22.5 -81v-134q0 -54 22.5 -81t67.5 -27q41 0 63.5 20.5t33.5 61.5l94 -45q-23 -66 -70 -100.5t-121 -34.5z" />
    <glyph glyph-name="d" unicode="d" horiz-adv-x="542" 
d="M356 0v86h-14q-11 -44 -45 -71t-78 -27q-61 0 -101 31t-59.5 92t-19.5 150q0 88 20 149t59.5 92.5t100.5 31.5q44 0 78 -27t45 -71h14v304h121v-740h-121zM265 88q27 0 47.5 9.5t32 27t11.5 42.5v189q0 24 -11.5 41.5t-32 27t-47.5 9.5q-46 0 -72.5 -29t-26.5 -82v-124
q0 -52 26.5 -81.5t72.5 -29.5z" />
    <glyph glyph-name="e" unicode="e" horiz-adv-x="504" 
d="M263 -12q-68 0 -119.5 29.5t-80.5 90t-29 153.5q0 94 26 154.5t75 89.5t118 29q70 0 118 -29t73.5 -89.5t25.5 -154.5v-30h-309v-33q0 -52 29.5 -82.5t79.5 -30.5q43 0 72.5 19.5t50.5 53.5l66 -69q-29 -46 -78 -73.5t-118 -27.5zM253 441q-29 0 -50 -12t-31.5 -36
t-10.5 -60v-27h182v27q0 36 -10 60t-29.5 36t-50.5 12z" />
    <glyph glyph-name="f" unicode="f" horiz-adv-x="327" 
d="M90 0v426h-68v96h68v81q0 70 32 103.5t98 33.5h88v-97h-96v-121h96v-96h-96v-426h-122z" />
    <glyph glyph-name="g" unicode="g" horiz-adv-x="493" 
d="M493 -46q0 -55 -23 -91.5t-77.5 -55.5t-148.5 -19q-83 0 -131 14.5t-68.5 43t-20.5 66.5q0 39 22.5 62.5t62.5 29.5v19q-32 8 -47.5 30.5t-15.5 53.5q0 35 25 55.5t61 27.5v13q-42 21 -63.5 59.5t-21.5 94.5t21.5 95.5t65.5 60.5t110 21q22 0 43 -4t39 -10v19
q0 36 17.5 53.5t50.5 17.5h73v-94h-101v-20q37 -17 56.5 -53.5t19.5 -85.5q0 -55 -21.5 -95t-65 -60.5t-111.5 -20.5q-21 0 -40 2.5t-36 5.5q-13 -6 -20.5 -19.5t-7.5 -28.5q0 -19 13 -29.5t43 -10.5h133q88 0 126 -38.5t38 -108.5zM380 -60q0 27 -18 41t-60 14h-161
q-11 -10 -16.5 -24t-5.5 -32q0 -32 21.5 -49t75.5 -17h59q57 0 81 16.5t24 50.5zM244 265q43 0 63 20.5t20 61.5v22q0 41 -20 61t-63 20q-42 0 -62.5 -20t-20.5 -61v-22q0 -41 20.5 -61.5t62.5 -20.5z" />
    <glyph glyph-name="h" unicode="h" horiz-adv-x="532" 
d="M65 0v740h122v-305h14q13 43 43 71t83 28q70 0 107.5 -47.5t37.5 -135.5v-351h-121v330q0 51 -18.5 77.5t-57.5 26.5q-24 0 -44 -10t-32 -28.5t-12 -45.5v-350h-122z" />
    <glyph glyph-name="i" unicode="i" horiz-adv-x="252" 
d="M126 604q-38 0 -55 17t-17 44v20q0 29 17 45t55 16t55 -16t17 -45v-20q0 -27 -17 -44t-55 -17zM65 0v522h122v-522h-122z" />
    <glyph glyph-name="j" unicode="j" horiz-adv-x="255" 
d="M68 -103v625h121v-600q0 -62 -29 -92t-95 -30h-69v97h72zM129 604q-38 0 -55 17t-17 44v20q0 29 17 45t55 16q37 0 54 -16t17 -45v-20q0 -27 -17 -44t-54 -17z" />
    <glyph glyph-name="k" unicode="k" horiz-adv-x="510" 
d="M65 0v740h122v-345l-8 -108h14l61 96l104 139h137l-163 -205l172 -317h-136l-120 239l-61 -76v-163h-122z" />
    <glyph glyph-name="l" unicode="l" horiz-adv-x="268" 
d="M247 0h-63q-63 0 -91 28.5t-28 87.5v624h122v-643h60v-97z" />
    <glyph glyph-name="m" unicode="m" horiz-adv-x="802" 
d="M187 0h-122v522h122v-87h14q13 43 42 71t81 28q50 0 81.5 -26.5t45.5 -76.5h12q17 53 53 78t86 25q66 0 103 -48t37 -135v-351h-121v330q0 52 -18 78t-55 26q-22 0 -41.5 -10t-31 -28.5t-11.5 -45.5v-350h-121v330q0 52 -18 78t-54 26q-24 0 -43 -10t-30 -28.5t-11 -45.5
v-350z" />
    <glyph glyph-name="n" unicode="n" horiz-adv-x="532" 
d="M187 0h-122v522h122v-87h14q13 43 42.5 71t82.5 28q70 0 108 -47.5t38 -135.5v-351h-121v330q0 51 -18.5 77.5t-57.5 26.5q-24 0 -44 -10t-32 -28.5t-12 -45.5v-350z" />
    <glyph glyph-name="o" unicode="o" horiz-adv-x="507" 
d="M253 -12q-69 0 -118 29.5t-75 90t-26 153.5q0 94 26 154.5t75 89.5t118 29q70 0 119 -29t75 -89.5t26 -154.5q0 -93 -26 -153.5t-75 -90t-119 -29.5zM253 86q45 0 69 27t24 81v134q0 54 -24 81t-69 27q-44 0 -68 -27t-24 -81v-134q0 -54 24 -81t68 -27z" />
    <glyph glyph-name="p" unicode="p" horiz-adv-x="542" 
d="M65 -200v722h122v-86h14q11 44 44.5 71t78.5 27q61 0 100.5 -31.5t59 -92.5t19.5 -149q0 -89 -19.5 -150t-59 -92t-100.5 -31q-45 0 -78.5 27t-44.5 71h-14v-286h-122zM277 88q47 0 73 29.5t26 81.5v124q0 53 -26 82t-73 29q-27 0 -47.5 -9.5t-31.5 -27t-11 -41.5v-189
q0 -25 11 -42.5t31.5 -27t47.5 -9.5z" />
    <glyph glyph-name="q" unicode="q" horiz-adv-x="542" 
d="M356 -200v286h-14q-11 -44 -45 -71t-78 -27q-61 0 -101 31t-59.5 92t-19.5 150q0 88 20 149t59.5 92.5t100.5 31.5q44 0 78 -27t45 -71h14v86h121v-722h-121zM265 88q27 0 47.5 9.5t32 27t11.5 42.5v189q0 24 -11.5 41.5t-32 27t-47.5 9.5q-46 0 -72.5 -29t-26.5 -82
v-124q0 -52 26.5 -81.5t72.5 -29.5z" />
    <glyph glyph-name="r" unicode="r" horiz-adv-x="357" 
d="M187 0h-122v522h122v-107h14q5 30 18 54.5t36.5 38.5t57.5 14h26v-122h-40q-38 0 -62.5 -8.5t-37 -26t-12.5 -48.5v-317z" />
    <glyph glyph-name="s" unicode="s" horiz-adv-x="450" 
d="M224 -12q-65 0 -114.5 24t-85.5 70l74 72q25 -35 56.5 -53t71.5 -18q37 0 56.5 16t19.5 48q0 25 -12.5 39.5t-42.5 19.5l-49 9q-54 11 -88.5 29.5t-51 50t-16.5 76.5q0 82 48 122.5t136 40.5q41 0 73.5 -8.5t60 -26.5t49.5 -44l-71 -71q-20 25 -48 40t-64 15
q-34 0 -52 -15.5t-18 -47.5q0 -26 14 -39t44 -19l50 -9q82 -15 117.5 -50.5t35.5 -99.5q0 -54 -22.5 -92.5t-65.5 -58.5t-105 -20z" />
    <glyph glyph-name="t" unicode="t" horiz-adv-x="335" 
d="M298 0h-88q-62 0 -90.5 28t-28.5 89v309h-69v96h36q26 0 35.5 12t9.5 38v92h109v-142h94v-96h-94v-329h86v-97z" />
    <glyph glyph-name="u" unicode="u" horiz-adv-x="532" 
d="M345 0v88h-14q-13 -43 -43 -71.5t-83 -28.5q-70 0 -107.5 48t-37.5 136v350h121v-330q0 -51 18.5 -77t57.5 -26q25 0 44.5 9.5t31.5 29t12 44.5v350h122v-522h-122z" />
    <glyph glyph-name="v" unicode="v" horiz-adv-x="477" 
d="M315 0h-153l-154 522h122l75 -278l29 -141h14l29 141l75 278h117z" />
    <glyph glyph-name="w" unicode="w" horiz-adv-x="739" 
d="M143 0l-127 522h119l51 -244l25 -168h12l30 168l58 244h122l59 -244l30 -168h12l25 168l53 244h112l-127 -522h-136l-61 254l-23 155h-13l-24 -155l-61 -254h-136z" />
    <glyph glyph-name="x" unicode="x" horiz-adv-x="489" 
d="M15 0l156 267l-154 255h132l92 -168h13l94 168h124l-156 -258l162 -264h-132l-98 176h-13l-96 -176h-124z" />
    <glyph glyph-name="y" unicode="y" horiz-adv-x="483" 
d="M277 241l76 281h121l-199 -631q-11 -36 -28.5 -55.5t-43 -27.5t-63.5 -8h-82v97h103l21 74l-174 551h123l78 -282l28 -137h12z" />
    <glyph glyph-name="z" unicode="z" horiz-adv-x="453" 
d="M418 0h-384v95l241 331h-233v96h370v-94l-242 -331h248v-97z" />
    <glyph glyph-name="braceleft" unicode="{" horiz-adv-x="330" 
d="M283 -138h-99q-37 0 -58 20t-21 62v240q0 39 -23.5 58.5t-63.5 19.5v98q40 0 63.5 20t23.5 58v240q0 43 21 62.5t58 19.5h99v-85h-73v-244q0 -37 -14.5 -62.5t-43 -38t-68.5 -12.5v-14q40 0 68.5 -12.5t43 -37.5t14.5 -63v-244h73v-85z" />
    <glyph glyph-name="bar" unicode="|" horiz-adv-x="346" 
d="M224 -138h-102v898h102v-898z" />
    <glyph glyph-name="braceright" unicode="}" horiz-adv-x="330" 
d="M47 760h99q36 0 57.5 -19.5t21.5 -62.5v-240q0 -38 24 -58t63 -20v-98q-39 0 -63 -19.5t-24 -58.5v-240q0 -42 -21.5 -62t-57.5 -20h-99v85h72v244q0 38 15 63t43.5 37.5t68.5 12.5v14q-40 0 -68.5 12.5t-43.5 38t-15 62.5v244h-72v85z" />
    <glyph glyph-name="asciitilde" unicode="~" 
d="M373 221q-33 0 -58.5 9.5t-55.5 25.5q-25 14 -49.5 25t-48.5 11q-21 0 -37 -7t-35 -22l-42 66q17 26 48.5 43t71.5 17q33 0 58.5 -9.5t55.5 -25.5q25 -14 49.5 -25t48.5 -11q21 0 37 7t35 22l42 -67q-17 -25 -48 -42t-72 -17z" />
    <glyph glyph-name="uni00A0" unicode="&#xa0;" horiz-adv-x="212" 
 />
    <glyph glyph-name="exclamdown" unicode="&#xa1;" horiz-adv-x="282" 
d="M205 -176h-128v197l36 295h55l37 -295v-197zM141 379q-40 0 -58 17.5t-18 46.5v26q0 30 18 47.5t58 17.5t58 -17.5t18 -47.5v-26q0 -29 -18 -46.5t-58 -17.5z" />
    <glyph glyph-name="cent" unicode="&#xa2;" horiz-adv-x="490" 
d="M302 -114h-89v106q-86 13 -131 77.5t-45 188.5t45 189t131 77v106h89v-105q59 -9 96 -40t53 -80l-87 -48q-6 33 -23 53t-48 26v-356q32 7 51 27t28 56l85 -52q-17 -52 -56.5 -82t-98.5 -38v-105zM154 192q0 -46 17 -74t51 -37v354q-34 -9 -51 -36.5t-17 -74.5v-132z" />
    <glyph glyph-name="sterling" unicode="&#xa3;" horiz-adv-x="519" 
d="M484 0h-422v119q35 18 54 48t19 82q0 11 -1.5 22t-3.5 22h-95v99h60q-8 24 -13 51t-5 60q0 67 24.5 112.5t74 70t123.5 24.5t119.5 -29t79.5 -83l-91 -65q-20 34 -44.5 52t-59.5 18q-52 0 -76 -24t-24 -87q0 -26 4.5 -51t10.5 -49h171v-99h-145q2 -11 3.5 -21t1.5 -20
q0 -63 -27 -96.5t-74 -37.5v-13h336v-105z" />
    <glyph glyph-name="currency" unicode="&#xa4;" horiz-adv-x="561" 
d="M280 111q-25 0 -47 3.5t-42 11.5l-64 -109l-89 52l68 117q-24 30 -37.5 71.5t-13.5 91.5q0 51 13.5 92t37.5 71l-68 117l89 52l64 -109q20 8 42 11.5t47 3.5q26 0 48 -3.5t42 -11.5l64 109l89 -52l-69 -117q24 -30 38 -71t14 -92q0 -50 -13.5 -91.5t-38.5 -71.5l69 -117
l-89 -52l-64 109q-20 -8 -42 -11.5t-48 -3.5zM280 206q45 0 71 29t26 85v58q0 56 -26 85t-71 29q-43 0 -69.5 -29t-26.5 -85v-58q0 -56 26.5 -85t69.5 -29z" />
    <glyph glyph-name="yen" unicode="&#xa5;" horiz-adv-x="576" 
d="M501 137h-152v-137h-126v137h-152v78h152v84h-152v78h104l-155 321h138l125 -293h14l125 293h134l-158 -321h103v-78h-152v-84h152v-78z" />
    <glyph glyph-name="brokenbar" unicode="&#xa6;" horiz-adv-x="346" 
d="M224 403h-102v357h102v-357zM224 -138h-102v357h102v-357z" />
    <glyph glyph-name="section" unicode="&#xa7;" horiz-adv-x="515" 
d="M436 9q0 -56 -22.5 -93t-65.5 -56t-103 -19q-50 0 -93.5 15t-79.5 50l60 75q22 -23 49.5 -36t64.5 -13q44 0 65.5 18t21.5 55q0 22 -8 36t-26 24.5t-47 18.5l-67 21q-52 16 -81.5 38t-42 50t-12.5 62q0 47 24 83t73 56v14q-32 22 -50 54t-18 80q0 57 22.5 94t66 55.5
t102.5 18.5q50 0 93.5 -15t80.5 -50l-61 -74q-21 24 -49 36.5t-66 12.5q-43 0 -64.5 -18t-21.5 -55q0 -21 8 -36t26.5 -25t46.5 -19l67 -20q52 -16 82 -38.5t42 -50t12 -61.5q0 -48 -24 -83.5t-73 -55.5v-14q33 -23 50.5 -54.5t17.5 -80.5zM363 262q0 23 -7 40.5t-24 30.5
t-48 22l-66 20q-7 2 -15 5t-15 6q-19 -20 -28 -43.5t-9 -52.5q0 -35 16.5 -57.5t62.5 -36.5l66 -19q8 -2 15.5 -5t14.5 -6q19 20 28 43.5t9 52.5z" />
    <glyph glyph-name="dieresis" unicode="&#xa8;" 
d="M177 607q-36 0 -51 14t-15 39v26q0 24 15 38t51 14t51 -14t15 -38v-26q0 -25 -15 -39t-51 -14zM363 607q-36 0 -51 14t-15 39v26q0 24 15 38t51 14t51 -14t15 -38v-26q0 -25 -15 -39t-51 -14z" />
    <glyph glyph-name="copyright" unicode="&#xa9;" horiz-adv-x="711" 
d="M355 -12q-94 0 -165.5 41.5t-112 122t-40.5 197.5t40.5 197.5t112 122t165.5 41.5t165.5 -41.5t112 -122t40.5 -197.5t-40.5 -197.5t-112 -122t-165.5 -41.5zM355 46q75 0 131 34.5t86.5 94.5t30.5 135v77q0 76 -30.5 135.5t-86.5 94.5t-131 35t-131 -35t-87 -94.5
t-31 -135.5v-77q0 -75 31 -135t87 -94.5t131 -34.5zM361 139q-88 0 -133.5 52.5t-45.5 157.5t45.5 157.5t133.5 52.5q63 0 100 -28.5t55 -74.5l-82 -42q-11 28 -27 44t-46 16q-33 0 -50 -20t-17 -58v-94q0 -37 17 -57.5t50 -20.5q31 0 49.5 17t29.5 44l83 -42
q-18 -43 -56 -73.5t-106 -30.5z" />
    <glyph glyph-name="ordfeminine" unicode="&#xaa;" horiz-adv-x="395" 
d="M357 405v-67h-56q-23 0 -41.5 15.5t-18.5 52.5v14l25 -24h-33q-7 -30 -30.5 -47t-61.5 -17q-48 0 -74 26.5t-26 76.5q0 60 35 85.5t106 25.5h53v32q0 33 -13 47.5t-46 14.5q-27 0 -46 -12t-31 -35l-48 44q20 32 51.5 50.5t83.5 18.5q67 0 101.5 -31.5t34.5 -93.5v-176h35
zM235 494h-51q-30 0 -44.5 -11t-14.5 -32v-19q0 -20 12 -30t36 -10q27 0 44.5 15t17.5 43v44z" />
    <glyph glyph-name="guillemotleft" unicode="&#xab;" horiz-adv-x="495" 
d="M239 157l-36 -77l-169 144v105l169 144l36 -77l-106 -113v-13zM450 157l-36 -77l-169 144v105l169 144l36 -77l-106 -113v-13z" />
    <glyph glyph-name="logicalnot" unicode="&#xac;" 
d="M484 78h-105v181h-323v96h428v-277z" />
    <glyph glyph-name="uni00AD" unicode="&#xad;" horiz-adv-x="0" 
 />
    <glyph glyph-name="registered" unicode="&#xae;" horiz-adv-x="422" 
d="M211 298q-51 0 -93 23t-66.5 69t-24.5 114t24.5 114t66.5 69t93 23q52 0 93.5 -23t66.5 -69t25 -114t-25 -114t-66.5 -69t-93.5 -23zM211 339q42 0 72 17.5t47 49t17 74.5v48q0 43 -17 74.5t-47 49t-72 17.5q-40 0 -71 -17.5t-48 -49t-17 -74.5v-48q0 -43 17 -74.5
t48 -49t71 -17.5zM186 469v-69h-52v208h90q36 0 53 -16.5t17 -52.5q0 -25 -8 -40.5t-25 -22.5l39 -76h-57l-32 69h-25zM186 510h31q12 0 17.5 4.5t5.5 15.5v17q0 11 -5.5 15.5t-17.5 4.5h-31v-57z" />
    <glyph glyph-name="macron" unicode="&#xaf;" 
d="M135 628v92h270v-92h-270z" />
    <glyph glyph-name="degree" unicode="&#xb0;" horiz-adv-x="422" 
d="M211 361q-47 0 -86 22t-61.5 61t-22.5 92t22.5 92t61.5 60.5t86 21.5q48 0 87 -21.5t61.5 -60.5t22.5 -92t-22.5 -92t-61.5 -61t-87 -22zM212 441q25 0 43 11t28 32.5t10 51.5t-10 51t-28 32.5t-43 11.5q-26 0 -44 -11.5t-28.5 -32.5t-10.5 -51t10.5 -51.5t28.5 -32.5
t44 -11z" />
    <glyph glyph-name="plusminus" unicode="&#xb1;" 
d="M323 194h-106v158h-161v95h161v158h106v-158h161v-95h-161v-158zM484 0h-428v93h428v-93z" />
    <glyph glyph-name="twosuperior" unicode="&#xb2;" horiz-adv-x="320" 
d="M290 396v-67h-258v75l103 90q33 30 46 49t13 42v8q0 20 -12.5 30.5t-33.5 10.5q-26 0 -38 -15t-18 -36l-69 26q13 40 43 67.5t90 27.5q66 0 96 -29t30 -82q0 -47 -25 -79t-72 -67l-65 -51h170z" />
    <glyph glyph-name="threesuperior" unicode="&#xb3;" horiz-adv-x="320" 
d="M111 552h33q23 0 35 11t12 26v11q0 16 -12 26.5t-32 10.5q-23 0 -39 -10.5t-30 -31.5l-52 48q23 29 52 45t73 16q60 0 94.5 -24t34.5 -75q0 -35 -20.5 -56t-49.5 -24v-11q34 -3 55 -23.5t21 -58.5q0 -56 -36.5 -82.5t-100.5 -26.5q-53 0 -84 21t-50 49l61 47
q12 -20 28 -35t45 -15q26 0 37 11.5t11 30.5v12q0 19 -11.5 30t-37.5 11h-37v67z" />
    <glyph glyph-name="acute" unicode="&#xb4;" 
d="M402 754l-119 -173l-73 35l88 189z" />
    <glyph glyph-name="mu" unicode="&#xb5;" horiz-adv-x="537" 
d="M181 -200h-120v722h121v-330q0 -51 19 -77t58 -26q24 0 44 9.5t32 29t12 44.5v350h121v-522h-121v88h-14q-8 -48 -31.5 -74t-64.5 -26q-26 0 -46 11.5t-27 33.5h-15l32 -116v-117z" />
    <glyph glyph-name="paragraph" unicode="&#xb6;" horiz-adv-x="603" 
d="M217 -149v426q-57 0 -99 26t-64.5 74t-22.5 110q0 64 23 111t65 73.5t98 26.5h333v-86h-60v-761h-91v761h-91v-761h-91z" />
    <glyph glyph-name="periodcentered" unicode="&#xb7;" horiz-adv-x="316" 
d="M158 227q-38 0 -56.5 17.5t-18.5 47.5v24q0 30 18.5 47.5t56.5 17.5t56.5 -17.5t18.5 -47.5v-24q0 -30 -18.5 -47.5t-56.5 -17.5z" />
    <glyph glyph-name="cedilla" unicode="&#xb8;" 
d="M283 -209q-43 0 -69 12.5t-39 29.5l38 48q9 -10 23.5 -17.5t37.5 -7.5q22 0 31.5 7t9.5 24t-9.5 24t-31.5 7h-49l20 106h58l-17 -93h9q3 8 13 13.5t26 5.5q31 0 47.5 -18t16.5 -52q0 -31 -14 -51t-40 -29t-61 -9z" />
    <glyph glyph-name="onesuperior" unicode="&#xb9;" horiz-adv-x="320" 
d="M296 329h-246v67h86v236h-6l-50 -69l-57 39l70 96h127v-302h76v-67z" />
    <glyph glyph-name="ordmasculine" unicode="&#xba;" horiz-adv-x="383" 
d="M192 332q-72 0 -114.5 43.5t-42.5 143.5t42 143.5t115 43.5q72 0 114 -43.5t42 -143.5t-41.5 -143.5t-114.5 -43.5zM192 399q34 0 50.5 19.5t16.5 54.5v92q0 35 -16.5 54.5t-50.5 19.5t-50.5 -19.5t-16.5 -54.5v-92q0 -35 16.5 -54.5t50.5 -19.5z" />
    <glyph glyph-name="guillemotright" unicode="&#xbb;" horiz-adv-x="495" 
d="M44 157l107 113v13l-107 113l37 77l168 -144v-105l-168 -144zM255 157l107 113v13l-107 113l37 77l168 -144v-105l-168 -144z" />
    <glyph glyph-name="onequarter" unicode="&#xbc;" horiz-adv-x="738" 
d="M296 329h-246v67h86v236h-6l-50 -69l-57 39l70 96h127v-302h76v-67zM184 0h-89l469 698h89zM672 0h-80v71h-156v69l132 229h104v-235h43v-63h-43v-71zM592 134v147h-9l-82 -147h91z" />
    <glyph glyph-name="onehalf" unicode="&#xbd;" horiz-adv-x="760" 
d="M296 329h-246v67h86v236h-6l-50 -69l-57 39l70 96h127v-302h76v-67zM195 0h-89l469 698h89zM730 67v-67h-258v75l103 90q33 30 46 49t13 42v8q0 20 -12.5 30.5t-33.5 10.5q-26 0 -38 -15t-18 -36l-69 26q13 40 43 67.5t90 27.5q66 0 96 -29t30 -82q0 -47 -25 -79t-72 -67
l-65 -51h170z" />
    <glyph glyph-name="threequarters" unicode="&#xbe;" horiz-adv-x="728" 
d="M111 552h33q23 0 35 11t12 26v11q0 16 -12 26.5t-32 10.5q-23 0 -39 -10.5t-30 -31.5l-52 48q23 29 52 45t73 16q60 0 94.5 -24t34.5 -75q0 -35 -20.5 -56t-49.5 -24v-11q34 -3 55 -23.5t21 -58.5q0 -56 -36.5 -82.5t-100.5 -26.5q-53 0 -84 21t-50 49l61 47
q12 -20 28 -35t45 -15q26 0 37 11.5t11 30.5v12q0 19 -11.5 30t-37.5 11h-37v67zM185 0h-89l469 698h89zM662 0h-80v71h-156v69l132 229h104v-235h43v-63h-43v-71zM582 134v147h-9l-82 -147h91z" />
    <glyph glyph-name="questiondown" unicode="&#xbf;" horiz-adv-x="440" 
d="M230 -189q-66 0 -112 23.5t-69 67t-23 105.5t21.5 104.5t58.5 67.5t79 33v86h115v-157q-73 -3 -109.5 -30.5t-36.5 -86.5v-20q0 -43 21.5 -65.5t59.5 -22.5q40 0 63.5 27t31.5 71l101 -42q-10 -42 -34 -79t-64.5 -59.5t-102.5 -22.5zM241 379q-39 0 -57 17.5t-18 46.5v26
q0 30 18 47.5t57 17.5q40 0 58.5 -17.5t18.5 -47.5v-26q0 -29 -18.5 -46.5t-58.5 -17.5z" />
    <glyph glyph-name="Agrave" unicode="&#xc0;" horiz-adv-x="606" 
d="M586 0h-123l-49 182h-225l-49 -182h-120l204 698h158zM384 283l-54 191l-22 111h-14l-22 -111l-53 -191h165zM291 744l-119 173l104 52l88 -190z" />
    <glyph glyph-name="Aacute" unicode="&#xc1;" horiz-adv-x="606" 
d="M586 0h-123l-49 182h-225l-49 -182h-120l204 698h158zM384 283l-54 191l-22 111h-14l-22 -111l-53 -191h165zM436 917l-119 -173l-73 35l88 190z" />
    <glyph glyph-name="Acircumflex" unicode="&#xc2;" horiz-adv-x="606" 
d="M586 0h-123l-49 182h-225l-49 -182h-120l204 698h158zM384 283l-54 191l-22 111h-14l-22 -111l-53 -191h165zM252 950h104l121 -157l-61 -48l-112 118l-112 -118l-61 48z" />
    <glyph glyph-name="Atilde" unicode="&#xc3;" horiz-adv-x="606" 
d="M586 0h-123l-49 182h-225l-49 -182h-120l204 698h158zM384 283l-54 191l-22 111h-14l-22 -111l-53 -191h165zM375 770q-18 0 -32.5 4.5t-41.5 18.5q-26 14 -41 19t-27 5q-17 0 -27.5 -6.5t-24.5 -19.5l-44 56q17 27 42 42.5t54 15.5q18 0 32.5 -4.5t41.5 -18.5
q26 -13 41.5 -19t26.5 -6q17 0 27.5 7t24.5 20l44 -56q-17 -27 -42 -42.5t-54 -15.5z" />
    <glyph glyph-name="Adieresis" unicode="&#xc4;" horiz-adv-x="606" 
d="M586 0h-123l-49 182h-225l-49 -182h-120l204 698h158zM384 283l-54 191l-22 111h-14l-22 -111l-53 -191h165zM211 773q-36 0 -51 14t-15 39v25q0 25 15 39t51 14t51 -14t15 -39v-25q0 -25 -15 -39t-51 -14zM397 773q-36 0 -51 14t-15 39v25q0 25 15 39t51 14t51 -14
t15 -39v-25q0 -25 -15 -39t-51 -14z" />
    <glyph glyph-name="Aring" unicode="&#xc5;" horiz-adv-x="606" 
d="M586 0h-123l-49 182h-225l-49 -182h-120l204 698h158zM384 283l-54 191l-22 111h-14l-22 -111l-53 -191h165zM304 727q-41 0 -71 16.5t-46 47t-16 71.5t16 71.5t46 46.5t71 16t71 -16t46 -46.5t16 -71.5t-16 -71.5t-46 -47t-71 -16.5zM304 792q24 0 38 11.5t14 34.5v48
q0 23 -14 34.5t-38 11.5t-38 -11.5t-14 -34.5v-48q0 -23 14 -34.5t38 -11.5z" />
    <glyph glyph-name="AE" unicode="&#xc6;" horiz-adv-x="859" 
d="M389 0v182h-186l-76 -182h-126l304 698h502v-109h-294v-182h258v-108h-258v-190h294v-109h-418zM389 589h-15l-129 -307h144v307z" />
    <glyph glyph-name="Ccedilla" unicode="&#xc7;" horiz-adv-x="581" 
d="M318 600q-65 0 -102 -42t-37 -122v-174q0 -80 37 -122t102 -42q61 0 90 31.5t44 80.5l102 -60q-34 -76 -86.5 -118t-140.5 -44l-10 -57h9q3 8 13 13.5t26 5.5q32 0 48 -18t16 -52q0 -31 -14 -51t-40 -29t-61 -9q-43 0 -68.5 12.5t-39.5 29.5l38 48q10 -10 24 -17.5
t37 -7.5q22 0 31.5 7t9.5 24t-9.5 24t-31.5 7h-48l14 73q-69 10 -119.5 49.5t-78 114.5t-27.5 190q0 130 34 210t95 117.5t143 37.5q93 0 146.5 -39t86.5 -120l-106 -56q-14 48 -40.5 76.5t-86.5 28.5z" />
    <glyph glyph-name="Egrave" unicode="&#xc8;" horiz-adv-x="542" 
d="M491 0h-419v698h419v-109h-294v-182h257v-108h-257v-190h294v-109zM268 744l-119 173l104 52l88 -190z" />
    <glyph glyph-name="Eacute" unicode="&#xc9;" horiz-adv-x="542" 
d="M491 0h-419v698h419v-109h-294v-182h257v-108h-257v-190h294v-109zM413 917l-119 -173l-73 35l88 190z" />
    <glyph glyph-name="Ecircumflex" unicode="&#xca;" horiz-adv-x="542" 
d="M491 0h-419v698h419v-109h-294v-182h257v-108h-257v-190h294v-109zM229 950h104l121 -157l-61 -48l-112 118l-112 -118l-61 48z" />
    <glyph glyph-name="Edieresis" unicode="&#xcb;" horiz-adv-x="542" 
d="M491 0h-419v698h419v-109h-294v-182h257v-108h-257v-190h294v-109zM188 773q-36 0 -51 14t-15 39v25q0 25 15 39t51 14t51 -14t15 -39v-25q0 -25 -15 -39t-51 -14zM374 773q-36 0 -51 14t-15 39v25q0 25 15 39t51 14t51 -14t15 -39v-25q0 -25 -15 -39t-51 -14z" />
    <glyph glyph-name="Igrave" unicode="&#xcc;" horiz-adv-x="387" 
d="M339 0h-292v99h84v500h-84v99h292v-99h-83v-500h83v-99zM181 744l-119 173l104 52l88 -190z" />
    <glyph glyph-name="Iacute" unicode="&#xcd;" horiz-adv-x="387" 
d="M339 0h-292v99h84v500h-84v99h292v-99h-83v-500h83v-99zM326 917l-119 -173l-73 35l88 190z" />
    <glyph glyph-name="Icircumflex" unicode="&#xce;" horiz-adv-x="387" 
d="M339 0h-292v99h84v500h-84v99h292v-99h-83v-500h83v-99zM142 950h104l121 -157l-61 -48l-112 118l-112 -118l-61 48z" />
    <glyph glyph-name="Idieresis" unicode="&#xcf;" horiz-adv-x="387" 
d="M339 0h-292v99h84v500h-84v99h292v-99h-83v-500h83v-99zM101 773q-36 0 -51 14t-15 39v25q0 25 15 39t51 14t51 -14t15 -39v-25q0 -25 -15 -39t-51 -14zM287 773q-36 0 -51 14t-15 39v25q0 25 15 39t51 14t51 -14t15 -39v-25q0 -25 -15 -39t-51 -14z" />
    <glyph glyph-name="Eth" unicode="&#xd0;" horiz-adv-x="631" 
d="M80 0v312h-65v95h65v291h237q85 0 144.5 -35.5t91.5 -112.5t32 -201t-32 -201t-91.5 -112.5t-144.5 -35.5h-237zM205 109h113q42 0 72 17.5t46 53t16 87.5v164q0 53 -16 88t-46 52.5t-72 17.5h-113v-182h110v-95h-110v-203z" />
    <glyph glyph-name="Ntilde" unicode="&#xd1;" horiz-adv-x="649" 
d="M438 0l-193 397l-49 121h-14l8 -125v-393h-118v698h139l193 -397l49 -121h14l-8 125v393h118v-698h-139zM395 770q-18 0 -32.5 4.5t-41.5 18.5q-26 14 -41 19t-27 5q-17 0 -27.5 -6.5t-24.5 -19.5l-44 56q17 27 42 42.5t54 15.5q18 0 32.5 -4.5t41.5 -18.5
q26 -13 41.5 -19t26.5 -6q17 0 27.5 7t24.5 20l44 -56q-17 -27 -42 -42.5t-54 -15.5z" />
    <glyph glyph-name="Ograve" unicode="&#xd2;" horiz-adv-x="641" 
d="M320 -12q-84 0 -145 36.5t-95 116.5t-34 208q0 129 34 208.5t95 116t145 36.5q85 0 146 -36.5t94.5 -116t33.5 -208.5q0 -128 -33.5 -208t-94.5 -116.5t-146 -36.5zM320 98q46 0 77 19t48 56t17 89v174q0 53 -17 89.5t-48 55.5t-77 19q-44 0 -75.5 -19t-48.5 -55.5
t-17 -89.5v-174q0 -52 17 -89t48.5 -56t75.5 -19zM307 744l-119 173l104 52l88 -190z" />
    <glyph glyph-name="Oacute" unicode="&#xd3;" horiz-adv-x="641" 
d="M320 -12q-84 0 -145 36.5t-95 116.5t-34 208q0 129 34 208.5t95 116t145 36.5q85 0 146 -36.5t94.5 -116t33.5 -208.5q0 -128 -33.5 -208t-94.5 -116.5t-146 -36.5zM320 98q46 0 77 19t48 56t17 89v174q0 53 -17 89.5t-48 55.5t-77 19q-44 0 -75.5 -19t-48.5 -55.5
t-17 -89.5v-174q0 -52 17 -89t48.5 -56t75.5 -19zM452 917l-119 -173l-73 35l88 190z" />
    <glyph glyph-name="Ocircumflex" unicode="&#xd4;" horiz-adv-x="641" 
d="M320 -12q-84 0 -145 36.5t-95 116.5t-34 208q0 129 34 208.5t95 116t145 36.5q85 0 146 -36.5t94.5 -116t33.5 -208.5q0 -128 -33.5 -208t-94.5 -116.5t-146 -36.5zM320 98q46 0 77 19t48 56t17 89v174q0 53 -17 89.5t-48 55.5t-77 19q-44 0 -75.5 -19t-48.5 -55.5
t-17 -89.5v-174q0 -52 17 -89t48.5 -56t75.5 -19zM268 950h104l121 -157l-61 -48l-112 118l-112 -118l-61 48z" />
    <glyph glyph-name="Otilde" unicode="&#xd5;" horiz-adv-x="641" 
d="M320 -12q-84 0 -145 36.5t-95 116.5t-34 208q0 129 34 208.5t95 116t145 36.5q85 0 146 -36.5t94.5 -116t33.5 -208.5q0 -128 -33.5 -208t-94.5 -116.5t-146 -36.5zM320 98q46 0 77 19t48 56t17 89v174q0 53 -17 89.5t-48 55.5t-77 19q-44 0 -75.5 -19t-48.5 -55.5
t-17 -89.5v-174q0 -52 17 -89t48.5 -56t75.5 -19zM391 770q-18 0 -32.5 4.5t-41.5 18.5q-26 14 -41 19t-27 5q-17 0 -27.5 -6.5t-24.5 -19.5l-44 56q17 27 42 42.5t54 15.5q18 0 32.5 -4.5t41.5 -18.5q26 -13 41.5 -19t26.5 -6q17 0 27.5 7t24.5 20l44 -56
q-17 -27 -42 -42.5t-54 -15.5z" />
    <glyph glyph-name="Odieresis" unicode="&#xd6;" horiz-adv-x="641" 
d="M320 -12q-84 0 -145 36.5t-95 116.5t-34 208q0 129 34 208.5t95 116t145 36.5q85 0 146 -36.5t94.5 -116t33.5 -208.5q0 -128 -33.5 -208t-94.5 -116.5t-146 -36.5zM320 98q46 0 77 19t48 56t17 89v174q0 53 -17 89.5t-48 55.5t-77 19q-44 0 -75.5 -19t-48.5 -55.5
t-17 -89.5v-174q0 -52 17 -89t48.5 -56t75.5 -19zM227 773q-36 0 -51 14t-15 39v25q0 25 15 39t51 14t51 -14t15 -39v-25q0 -25 -15 -39t-51 -14zM413 773q-36 0 -51 14t-15 39v25q0 25 15 39t51 14t51 -14t15 -39v-25q0 -25 -15 -39t-51 -14z" />
    <glyph glyph-name="multiply" unicode="&#xd7;" 
d="M409 102l-137 138l-138 -138l-67 67l138 138l-138 137l67 68l138 -137l137 137l68 -68l-137 -137l137 -138z" />
    <glyph glyph-name="Oslash" unicode="&#xd8;" horiz-adv-x="641" 
d="M320 -12q-41 0 -77 9t-66 27l-45 -74l-77 48l54 90q-31 44 -47 108.5t-16 152.5q0 129 34 208.5t95 116t145 36.5q42 0 78 -9t66 -27l45 74l77 -48l-54 -89q30 -43 46 -108t16 -154q0 -128 -33.5 -208t-94.5 -116.5t-146 -36.5zM320 607q-47 0 -79.5 -19.5t-50 -57
t-17.5 -91.5v-142q-2 -24 -3 -56.5t-2 -54.5h15l132 230l98 162q-17 14 -40.5 21.5t-52.5 7.5zM320 91q48 0 80.5 19.5t50 57t17.5 91.5v147q2 25 3 54.5t2 51.5h-15l-132 -230l-99 -162q19 -14 42 -21.5t51 -7.5z" />
    <glyph glyph-name="Ugrave" unicode="&#xd9;" horiz-adv-x="624" 
d="M68 698h125v-453q0 -50 11 -82.5t37.5 -48.5t70.5 -16q45 0 71 16t37.5 48.5t11.5 82.5v453h124v-435q0 -96 -23.5 -157t-77 -89.5t-143.5 -28.5t-143.5 28.5t-77 89.5t-23.5 157v435zM299 744l-119 173l104 52l88 -190z" />
    <glyph glyph-name="Uacute" unicode="&#xda;" horiz-adv-x="624" 
d="M68 698h125v-453q0 -50 11 -82.5t37.5 -48.5t70.5 -16q45 0 71 16t37.5 48.5t11.5 82.5v453h124v-435q0 -96 -23.5 -157t-77 -89.5t-143.5 -28.5t-143.5 28.5t-77 89.5t-23.5 157v435zM444 917l-119 -173l-73 35l88 190z" />
    <glyph glyph-name="Ucircumflex" unicode="&#xdb;" horiz-adv-x="624" 
d="M68 698h125v-453q0 -50 11 -82.5t37.5 -48.5t70.5 -16q45 0 71 16t37.5 48.5t11.5 82.5v453h124v-435q0 -96 -23.5 -157t-77 -89.5t-143.5 -28.5t-143.5 28.5t-77 89.5t-23.5 157v435zM260 950h104l121 -157l-61 -48l-112 118l-112 -118l-61 48z" />
    <glyph glyph-name="Udieresis" unicode="&#xdc;" horiz-adv-x="624" 
d="M68 698h125v-453q0 -50 11 -82.5t37.5 -48.5t70.5 -16q45 0 71 16t37.5 48.5t11.5 82.5v453h124v-435q0 -96 -23.5 -157t-77 -89.5t-143.5 -28.5t-143.5 28.5t-77 89.5t-23.5 157v435zM219 773q-36 0 -51 14t-15 39v25q0 25 15 39t51 14t51 -14t15 -39v-25q0 -25 -15 -39
t-51 -14zM405 773q-36 0 -51 14t-15 39v25q0 25 15 39t51 14t51 -14t15 -39v-25q0 -25 -15 -39t-51 -14z" />
    <glyph glyph-name="Yacute" unicode="&#xdd;" horiz-adv-x="566" 
d="M345 0h-124v267l-214 431h137l135 -300h14l132 300h134l-214 -431v-267zM416 917l-119 -173l-73 35l88 190z" />
    <glyph glyph-name="Thorn" unicode="&#xde;" horiz-adv-x="581" 
d="M197 0h-125v698h125v-128h164q61 0 102.5 -26t63 -73.5t21.5 -114.5t-21.5 -114.5t-63 -73.5t-102.5 -26h-164v-142zM197 461v-210h151q22 0 37.5 7.5t24 24t8.5 42.5v62q0 26 -8.5 42t-24 24t-37.5 8h-151z" />
    <glyph glyph-name="germandbls" unicode="&#xdf;" horiz-adv-x="614" 
d="M594 163q0 -84 -45.5 -129.5t-127.5 -45.5q-57 0 -98.5 20t-67.5 58l68 68q20 -28 44.5 -41t53.5 -13q30 0 45.5 17.5t15.5 49.5q0 28 -16.5 44t-47.5 28l-28 11q-36 14 -59.5 32.5t-35 46.5t-11.5 67q0 63 34 102t99 45v13q0 67 -24 95.5t-79 28.5t-79.5 -28.5
t-24.5 -95.5v-536h-121v426h-69v96h69v18q0 70 25.5 117t75 71t119.5 24q71 0 120 -24t75 -71t26 -117v-96h-61q-26 0 -42.5 -6t-24 -19t-7.5 -34q0 -28 14 -41t45 -25l27 -11q59 -23 86 -56t27 -89z" />
    <glyph glyph-name="agrave" unicode="&#xe0;" horiz-adv-x="506" 
d="M479 0h-73q-24 0 -43.5 9t-31 31.5t-11.5 60.5v16l25 -28h-36q-10 -47 -45 -74t-87 -27q-71 0 -107.5 40.5t-36.5 111.5q0 54 23 90.5t67 54t108 17.5h81v45q0 46 -19.5 68t-64.5 22q-37 0 -62 -18t-44 -49l-71 64q28 46 73.5 73t113.5 27q98 0 146.5 -46.5t48.5 -137.5
v-253h46v-97zM312 227h-73q-43 0 -63.5 -17t-20.5 -48v-22q0 -33 18 -48t50 -15q25 0 45 10t32 28t12 43v69zM226 581l-119 173l104 51l88 -189z" />
    <glyph glyph-name="aacute" unicode="&#xe1;" horiz-adv-x="506" 
d="M479 0h-73q-24 0 -43.5 9t-31 31.5t-11.5 60.5v16l25 -28h-36q-10 -47 -45 -74t-87 -27q-71 0 -107.5 40.5t-36.5 111.5q0 54 23 90.5t67 54t108 17.5h81v45q0 46 -19.5 68t-64.5 22q-37 0 -62 -18t-44 -49l-71 64q28 46 73.5 73t113.5 27q98 0 146.5 -46.5t48.5 -137.5
v-253h46v-97zM312 227h-73q-43 0 -63.5 -17t-20.5 -48v-22q0 -33 18 -48t50 -15q25 0 45 10t32 28t12 43v69zM371 754l-119 -173l-73 35l88 189z" />
    <glyph glyph-name="acircumflex" unicode="&#xe2;" horiz-adv-x="506" 
d="M479 0h-73q-24 0 -43.5 9t-31 31.5t-11.5 60.5v16l25 -28h-36q-10 -47 -45 -74t-87 -27q-71 0 -107.5 40.5t-36.5 111.5q0 54 23 90.5t67 54t108 17.5h81v45q0 46 -19.5 68t-64.5 22q-37 0 -62 -18t-44 -49l-71 64q28 46 73.5 73t113.5 27q98 0 146.5 -46.5t48.5 -137.5
v-253h46v-97zM312 227h-73q-43 0 -63.5 -17t-20.5 -48v-22q0 -33 18 -48t50 -15q25 0 45 10t32 28t12 43v69zM187 787h104l121 -157l-61 -47l-112 118l-112 -118l-61 47z" />
    <glyph glyph-name="atilde" unicode="&#xe3;" horiz-adv-x="506" 
d="M479 0h-73q-24 0 -43.5 9t-31 31.5t-11.5 60.5v16l25 -28h-36q-10 -47 -45 -74t-87 -27q-71 0 -107.5 40.5t-36.5 111.5q0 54 23 90.5t67 54t108 17.5h81v45q0 46 -19.5 68t-64.5 22q-37 0 -62 -18t-44 -49l-71 64q28 46 73.5 73t113.5 27q98 0 146.5 -46.5t48.5 -137.5
v-253h46v-97zM312 227h-73q-43 0 -63.5 -17t-20.5 -48v-22q0 -33 18 -48t50 -15q25 0 45 10t32 28t12 43v69zM310 606q-18 0 -32.5 4.5t-41.5 18.5q-26 14 -41 19t-27 5q-17 0 -27.5 -6t-24.5 -20l-44 56q17 27 42 42.5t54 15.5q18 0 32.5 -4.5t41.5 -18.5q26 -13 41.5 -19
t26.5 -6q17 0 27.5 7t24.5 20l44 -56q-17 -27 -42 -42.5t-54 -15.5z" />
    <glyph glyph-name="adieresis" unicode="&#xe4;" horiz-adv-x="506" 
d="M479 0h-73q-24 0 -43.5 9t-31 31.5t-11.5 60.5v16l25 -28h-36q-10 -47 -45 -74t-87 -27q-71 0 -107.5 40.5t-36.5 111.5q0 54 23 90.5t67 54t108 17.5h81v45q0 46 -19.5 68t-64.5 22q-37 0 -62 -18t-44 -49l-71 64q28 46 73.5 73t113.5 27q98 0 146.5 -46.5t48.5 -137.5
v-253h46v-97zM312 227h-73q-43 0 -63.5 -17t-20.5 -48v-22q0 -33 18 -48t50 -15q25 0 45 10t32 28t12 43v69zM146 607q-36 0 -51 14t-15 39v26q0 24 15 38t51 14t51 -14t15 -38v-26q0 -25 -15 -39t-51 -14zM332 607q-36 0 -51 14t-15 39v26q0 24 15 38t51 14t51 -14t15 -38
v-26q0 -25 -15 -39t-51 -14z" />
    <glyph glyph-name="aring" unicode="&#xe5;" horiz-adv-x="506" 
d="M479 0h-73q-24 0 -43.5 9t-31 31.5t-11.5 60.5v16l25 -28h-36q-10 -47 -45 -74t-87 -27q-71 0 -107.5 40.5t-36.5 111.5q0 54 23 90.5t67 54t108 17.5h81v45q0 46 -19.5 68t-64.5 22q-37 0 -62 -18t-44 -49l-71 64q28 46 73.5 73t113.5 27q98 0 146.5 -46.5t48.5 -137.5
v-253h46v-97zM312 227h-73q-43 0 -63.5 -17t-20.5 -48v-22q0 -33 18 -48t50 -15q25 0 45 10t32 28t12 43v69zM239 563q-41 0 -71 16.5t-46 47t-16 71.5q0 42 16.5 72t46 46.5t70.5 16.5t71 -16.5t46 -46.5t16 -72q0 -41 -16 -71.5t-46 -47t-71 -16.5zM239 628q24 0 38 11.5
t14 34.5v48q0 24 -14 35t-38 11t-38 -11t-14 -35v-48q0 -23 14 -34.5t38 -11.5z" />
    <glyph glyph-name="ae" unicode="&#xe6;" horiz-adv-x="783" 
d="M317 230h-78q-43 0 -63.5 -18.5t-20.5 -49.5v-22q0 -33 18 -48t50 -15q25 0 46.5 10t34.5 28t13 43v72zM439 304h183v29q0 36 -10 60t-30 36t-50 12t-51 -12t-31.5 -36t-10.5 -60v-29zM549 85q43 0 72.5 19.5t50.5 53.5l65 -69q-29 -45 -75.5 -73t-112.5 -28
q-40 0 -76.5 13t-62 37t-33.5 57h-15q-8 -31 -31.5 -55.5t-60.5 -38t-86 -13.5q-75 0 -113 40.5t-38 111.5q0 55 23 91.5t67 54.5t108 18h86v43q0 45 -22 67.5t-67 22.5q-37 0 -62 -18t-44 -49l-71 64q28 45 72 72.5t108 27.5q32 0 61.5 -10.5t51.5 -34t28 -62.5h12
q8 35 29.5 59t54.5 36t71 12q67 0 113.5 -29.5t71 -90.5t24.5 -155v-29h-309v-32q0 -52 29.5 -82.5t80.5 -30.5z" />
    <glyph glyph-name="ccedilla" unicode="&#xe7;" horiz-adv-x="463" 
d="M251 534q76 0 122 -34.5t66 -96.5l-99 -44q-7 38 -28 57.5t-61 19.5q-45 0 -67.5 -27t-22.5 -81v-134q0 -54 22.5 -81t67.5 -27q41 0 63.5 20.5t33.5 61.5l94 -45q-21 -64 -65.5 -98t-113.5 -37l-10 -57h9q3 8 13.5 13.5t25.5 5.5q32 0 48 -18t16 -52q0 -31 -14 -51
t-39.5 -29t-61.5 -9q-42 0 -68 12.5t-40 29.5l39 48q9 -10 23 -17.5t37 -7.5q22 0 31.5 7t9.5 24t-9.5 24t-31.5 7h-48l14 73q-84 13 -128.5 79t-44.5 191q0 140 56 206.5t161 66.5z" />
    <glyph glyph-name="egrave" unicode="&#xe8;" horiz-adv-x="504" 
d="M263 -12q-68 0 -119.5 29.5t-80.5 90t-29 153.5q0 94 26 154.5t75 89.5t118 29q70 0 118 -29t73.5 -89.5t25.5 -154.5v-30h-309v-33q0 -52 29.5 -82.5t79.5 -30.5q43 0 72.5 19.5t50.5 53.5l66 -69q-29 -46 -78 -73.5t-118 -27.5zM253 441q-29 0 -50 -12t-31.5 -36
t-10.5 -60v-27h182v27q0 36 -10 60t-29.5 36t-50.5 12zM240 581l-119 173l104 51l88 -189z" />
    <glyph glyph-name="eacute" unicode="&#xe9;" horiz-adv-x="504" 
d="M263 -12q-68 0 -119.5 29.5t-80.5 90t-29 153.5q0 94 26 154.5t75 89.5t118 29q70 0 118 -29t73.5 -89.5t25.5 -154.5v-30h-309v-33q0 -52 29.5 -82.5t79.5 -30.5q43 0 72.5 19.5t50.5 53.5l66 -69q-29 -46 -78 -73.5t-118 -27.5zM253 441q-29 0 -50 -12t-31.5 -36
t-10.5 -60v-27h182v27q0 36 -10 60t-29.5 36t-50.5 12zM385 754l-119 -173l-73 35l88 189z" />
    <glyph glyph-name="ecircumflex" unicode="&#xea;" horiz-adv-x="504" 
d="M263 -12q-68 0 -119.5 29.5t-80.5 90t-29 153.5q0 94 26 154.5t75 89.5t118 29q70 0 118 -29t73.5 -89.5t25.5 -154.5v-30h-309v-33q0 -52 29.5 -82.5t79.5 -30.5q43 0 72.5 19.5t50.5 53.5l66 -69q-29 -46 -78 -73.5t-118 -27.5zM253 441q-29 0 -50 -12t-31.5 -36
t-10.5 -60v-27h182v27q0 36 -10 60t-29.5 36t-50.5 12zM201 787h104l121 -157l-61 -47l-112 118l-112 -118l-61 47z" />
    <glyph glyph-name="edieresis" unicode="&#xeb;" horiz-adv-x="504" 
d="M263 -12q-68 0 -119.5 29.5t-80.5 90t-29 153.5q0 94 26 154.5t75 89.5t118 29q70 0 118 -29t73.5 -89.5t25.5 -154.5v-30h-309v-33q0 -52 29.5 -82.5t79.5 -30.5q43 0 72.5 19.5t50.5 53.5l66 -69q-29 -46 -78 -73.5t-118 -27.5zM253 441q-29 0 -50 -12t-31.5 -36
t-10.5 -60v-27h182v27q0 36 -10 60t-29.5 36t-50.5 12zM160 607q-36 0 -51 14t-15 39v26q0 24 15 38t51 14t51 -14t15 -38v-26q0 -25 -15 -39t-51 -14zM346 607q-36 0 -51 14t-15 39v26q0 24 15 38t51 14t51 -14t15 -38v-26q0 -25 -15 -39t-51 -14z" />
    <glyph glyph-name="igrave" unicode="&#xec;" horiz-adv-x="252" 
d="M187 0h-122v522h122v-522zM113 581l-119 173l104 51l88 -189z" />
    <glyph glyph-name="iacute" unicode="&#xed;" horiz-adv-x="252" 
d="M187 0h-122v522h122v-522zM258 754l-119 -173l-73 35l88 189z" />
    <glyph glyph-name="icircumflex" unicode="&#xee;" horiz-adv-x="252" 
d="M187 0h-122v522h122v-522zM74 787h104l106 -157l-61 -47l-97 118l-97 -118l-61 47z" />
    <glyph glyph-name="idieresis" unicode="&#xef;" horiz-adv-x="252" 
d="M187 0h-122v522h122v-522zM38 607q-36 0 -51 14t-15 39v26q0 24 15 38t51 14q37 0 52 -14t15 -38v-26q0 -25 -15 -39t-52 -14zM214 607q-37 0 -52 14t-15 39v26q0 24 15 38t52 14q36 0 51 -14t15 -38v-26q0 -25 -15 -39t-51 -14z" />
    <glyph glyph-name="eth" unicode="&#xf0;" horiz-adv-x="532" 
d="M386 752l33 -51l-68 -45q42 -45 72.5 -103t47.5 -131t17 -165q0 -91 -26.5 -150.5t-76.5 -89t-124 -29.5t-124.5 29.5t-76 88t-25.5 144.5q0 83 22 138.5t63 84t96 28.5q51 0 81.5 -24t46.5 -69h14q-12 52 -36 100t-61 91l-90 -57l-33 51l80 51q-29 27 -63 51t-73 45h168
q14 -9 27.5 -19t27.5 -21zM261 86q33 0 55 12.5t33 38.5t11 67v81q0 42 -11 68t-33 38t-55 12q-32 0 -54.5 -12t-33.5 -38t-11 -68v-81q0 -41 11 -67t33.5 -38.5t54.5 -12.5z" />
    <glyph glyph-name="ntilde" unicode="&#xf1;" horiz-adv-x="532" 
d="M187 0h-122v522h122v-87h14q13 43 42.5 71t82.5 28q70 0 108 -47.5t38 -135.5v-351h-121v330q0 51 -18.5 77.5t-57.5 26.5q-24 0 -44 -10t-32 -28.5t-12 -45.5v-350zM340 606q-18 0 -32.5 4.5t-41.5 18.5q-26 14 -41 19t-27 5q-17 0 -27.5 -6t-24.5 -20l-44 56
q17 27 42 42.5t54 15.5q18 0 32.5 -4.5t41.5 -18.5q26 -13 41.5 -19t26.5 -6q17 0 27.5 7t24.5 20l44 -56q-17 -27 -42 -42.5t-54 -15.5z" />
    <glyph glyph-name="ograve" unicode="&#xf2;" horiz-adv-x="507" 
d="M253 -12q-69 0 -118 29.5t-75 90t-26 153.5q0 94 26 154.5t75 89.5t118 29q70 0 119 -29t75 -89.5t26 -154.5q0 -93 -26 -153.5t-75 -90t-119 -29.5zM253 86q45 0 69 27t24 81v134q0 54 -24 81t-69 27q-44 0 -68 -27t-24 -81v-134q0 -54 24 -81t68 -27zM240 581l-119 173
l104 51l88 -189z" />
    <glyph glyph-name="oacute" unicode="&#xf3;" horiz-adv-x="507" 
d="M253 -12q-69 0 -118 29.5t-75 90t-26 153.5q0 94 26 154.5t75 89.5t118 29q70 0 119 -29t75 -89.5t26 -154.5q0 -93 -26 -153.5t-75 -90t-119 -29.5zM253 86q45 0 69 27t24 81v134q0 54 -24 81t-69 27q-44 0 -68 -27t-24 -81v-134q0 -54 24 -81t68 -27zM385 754
l-119 -173l-73 35l88 189z" />
    <glyph glyph-name="ocircumflex" unicode="&#xf4;" horiz-adv-x="507" 
d="M253 -12q-69 0 -118 29.5t-75 90t-26 153.5q0 94 26 154.5t75 89.5t118 29q70 0 119 -29t75 -89.5t26 -154.5q0 -93 -26 -153.5t-75 -90t-119 -29.5zM253 86q45 0 69 27t24 81v134q0 54 -24 81t-69 27q-44 0 -68 -27t-24 -81v-134q0 -54 24 -81t68 -27zM201 787h104
l121 -157l-61 -47l-112 118l-112 -118l-61 47z" />
    <glyph glyph-name="otilde" unicode="&#xf5;" horiz-adv-x="507" 
d="M253 -12q-69 0 -118 29.5t-75 90t-26 153.5q0 94 26 154.5t75 89.5t118 29q70 0 119 -29t75 -89.5t26 -154.5q0 -93 -26 -153.5t-75 -90t-119 -29.5zM253 86q45 0 69 27t24 81v134q0 54 -24 81t-69 27q-44 0 -68 -27t-24 -81v-134q0 -54 24 -81t68 -27zM324 606
q-18 0 -32.5 4.5t-41.5 18.5q-26 14 -41 19t-27 5q-17 0 -27.5 -6t-24.5 -20l-44 56q17 27 42 42.5t54 15.5q18 0 32.5 -4.5t41.5 -18.5q26 -13 41.5 -19t26.5 -6q17 0 27.5 7t24.5 20l44 -56q-17 -27 -42 -42.5t-54 -15.5z" />
    <glyph glyph-name="odieresis" unicode="&#xf6;" horiz-adv-x="507" 
d="M253 -12q-69 0 -118 29.5t-75 90t-26 153.5q0 94 26 154.5t75 89.5t118 29q70 0 119 -29t75 -89.5t26 -154.5q0 -93 -26 -153.5t-75 -90t-119 -29.5zM253 86q45 0 69 27t24 81v134q0 54 -24 81t-69 27q-44 0 -68 -27t-24 -81v-134q0 -54 24 -81t68 -27zM160 607
q-36 0 -51 14t-15 39v26q0 24 15 38t51 14t51 -14t15 -38v-26q0 -25 -15 -39t-51 -14zM346 607q-36 0 -51 14t-15 39v26q0 24 15 38t51 14t51 -14t15 -38v-26q0 -25 -15 -39t-51 -14z" />
    <glyph glyph-name="divide" unicode="&#xf7;" 
d="M484 259h-428v96h428v-96zM270 51q-39 0 -55.5 15.5t-16.5 41.5v23q0 26 16 42t56 16t56 -16t16 -42v-24q0 -25 -16 -40.5t-56 -15.5zM270 425q-39 0 -55.5 16t-16.5 41v24q0 25 16 41t56 16t56 -16t16 -41v-24q0 -25 -16 -41t-56 -16z" />
    <glyph glyph-name="oslash" unicode="&#xf8;" horiz-adv-x="512" 
d="M78 -44l-63 48l57 77q-18 33 -28 78t-10 102q0 94 26 154.5t75 89.5t118 29q38 0 69 -8.5t56 -25.5l51 67l63 -49l-58 -78q19 -32 29 -77t10 -102q0 -93 -26 -153.5t-75 -90t-119 -29.5q-36 0 -67.5 8t-56.5 26zM253 81q48 0 72.5 27t24.5 81v55q2 20 3.5 36t3.5 31.5
t3 35.5h-11l-76 -118l-89 -123q12 -12 29.5 -18.5t39.5 -6.5zM253 441q-46 0 -71 -27t-25 -81v-55q-2 -19 -3.5 -35l-3 -32t-4.5 -36h11l77 118l89 124q-12 12 -29.5 18t-40.5 6z" />
    <glyph glyph-name="ugrave" unicode="&#xf9;" horiz-adv-x="532" 
d="M345 0v88h-14q-13 -43 -43 -71.5t-83 -28.5q-70 0 -107.5 48t-37.5 136v350h121v-330q0 -51 18.5 -77t57.5 -26q25 0 44.5 9.5t31.5 29t12 44.5v350h122v-522h-122zM250 581l-119 173l104 51l88 -189z" />
    <glyph glyph-name="uacute" unicode="&#xfa;" horiz-adv-x="532" 
d="M345 0v88h-14q-13 -43 -43 -71.5t-83 -28.5q-70 0 -107.5 48t-37.5 136v350h121v-330q0 -51 18.5 -77t57.5 -26q25 0 44.5 9.5t31.5 29t12 44.5v350h122v-522h-122zM395 754l-119 -173l-73 35l88 189z" />
    <glyph glyph-name="ucircumflex" unicode="&#xfb;" horiz-adv-x="532" 
d="M345 0v88h-14q-13 -43 -43 -71.5t-83 -28.5q-70 0 -107.5 48t-37.5 136v350h121v-330q0 -51 18.5 -77t57.5 -26q25 0 44.5 9.5t31.5 29t12 44.5v350h122v-522h-122zM211 787h104l121 -157l-61 -47l-112 118l-112 -118l-61 47z" />
    <glyph glyph-name="udieresis" unicode="&#xfc;" horiz-adv-x="532" 
d="M345 0v88h-14q-13 -43 -43 -71.5t-83 -28.5q-70 0 -107.5 48t-37.5 136v350h121v-330q0 -51 18.5 -77t57.5 -26q25 0 44.5 9.5t31.5 29t12 44.5v350h122v-522h-122zM170 607q-36 0 -51 14t-15 39v26q0 24 15 38t51 14t51 -14t15 -38v-26q0 -25 -15 -39t-51 -14zM356 607
q-36 0 -51 14t-15 39v26q0 24 15 38t51 14t51 -14t15 -38v-26q0 -25 -15 -39t-51 -14z" />
    <glyph glyph-name="yacute" unicode="&#xfd;" horiz-adv-x="483" 
d="M277 241l76 281h121l-199 -631q-11 -36 -28.5 -55.5t-43 -27.5t-63.5 -8h-82v97h103l21 74l-174 551h123l78 -282l28 -137h12zM374 754l-119 -173l-73 35l88 189z" />
    <glyph glyph-name="thorn" unicode="&#xfe;" horiz-adv-x="542" 
d="M65 -200v940h122v-304h14q11 44 44.5 71t78.5 27q61 0 100.5 -31.5t59 -92.5t19.5 -149q0 -89 -19.5 -150t-59 -92t-100.5 -31q-45 0 -78.5 27t-44.5 71h-14v-286h-122zM277 88q47 0 73 29.5t26 81.5v124q0 53 -26 82t-73 29q-27 0 -47.5 -9.5t-31.5 -27t-11 -41.5v-189
q0 -25 11 -42.5t31.5 -27t47.5 -9.5z" />
    <glyph glyph-name="ydieresis" unicode="&#xff;" horiz-adv-x="483" 
d="M277 241l76 281h121l-199 -631q-11 -36 -28.5 -55.5t-43 -27.5t-63.5 -8h-82v97h103l21 74l-174 551h123l78 -282l28 -137h12zM149 607q-36 0 -51 14t-15 39v26q0 24 15 38t51 14t51 -14t15 -38v-26q0 -25 -15 -39t-51 -14zM335 607q-36 0 -51 14t-15 39v26q0 24 15 38
t51 14t51 -14t15 -38v-26q0 -25 -15 -39t-51 -14z" />
    <glyph glyph-name="Amacron" unicode="&#x100;" horiz-adv-x="606" 
d="M586 0h-123l-49 182h-225l-49 -182h-120l204 698h158zM384 283l-54 191l-22 111h-14l-22 -111l-53 -191h165zM169 792v92h270v-92h-270z" />
    <glyph glyph-name="amacron" unicode="&#x101;" horiz-adv-x="506" 
d="M479 0h-73q-24 0 -43.5 9t-31 31.5t-11.5 60.5v16l25 -28h-36q-10 -47 -45 -74t-87 -27q-71 0 -107.5 40.5t-36.5 111.5q0 54 23 90.5t67 54t108 17.5h81v45q0 46 -19.5 68t-64.5 22q-37 0 -62 -18t-44 -49l-71 64q28 46 73.5 73t113.5 27q98 0 146.5 -46.5t48.5 -137.5
v-253h46v-97zM312 227h-73q-43 0 -63.5 -17t-20.5 -48v-22q0 -33 18 -48t50 -15q25 0 45 10t32 28t12 43v69zM104 628v92h270v-92h-270z" />
    <glyph glyph-name="Abreve" unicode="&#x102;" horiz-adv-x="606" 
d="M586 0h-123l-49 182h-225l-49 -182h-120l204 698h158zM384 283l-54 191l-22 111h-14l-22 -111l-53 -191h165zM304 748q-31 0 -55 7.5t-43.5 25.5t-36 48.5t-32.5 76.5l66 34l20 -40q19 -40 37 -53t44 -13q27 0 45.5 14t36.5 52l20 40l65 -34q-21 -61 -44.5 -95.5
t-53 -48.5t-69.5 -14z" />
    <glyph glyph-name="abreve" unicode="&#x103;" horiz-adv-x="506" 
d="M479 0h-73q-24 0 -43.5 9t-31 31.5t-11.5 60.5v16l25 -28h-36q-10 -47 -45 -74t-87 -27q-71 0 -107.5 40.5t-36.5 111.5q0 54 23 90.5t67 54t108 17.5h81v45q0 46 -19.5 68t-64.5 22q-37 0 -62 -18t-44 -49l-71 64q28 46 73.5 73t113.5 27q98 0 146.5 -46.5t48.5 -137.5
v-253h46v-97zM312 227h-73q-43 0 -63.5 -17t-20.5 -48v-22q0 -33 18 -48t50 -15q25 0 45 10t32 28t12 43v69zM239 584q-31 0 -55 8t-43.5 26t-36 48.5t-32.5 75.5l66 35l20 -40q19 -40 37 -53.5t44 -13.5q27 0 45.5 14t36.5 53l20 40l65 -35q-16 -45 -33 -75.5t-37 -48.5
t-43.5 -26t-53.5 -8z" />
    <glyph glyph-name="Aogonek" unicode="&#x104;" horiz-adv-x="606" 
d="M20 0l204 698h158l204 -698q-38 -24 -60 -43t-31.5 -35.5t-9.5 -33.5q0 -14 8.5 -23.5t26.5 -9.5q16 0 28 7.5t20 17.5l42 -44q-17 -20 -44 -33.5t-59 -13.5q-34 0 -57.5 9.5t-36.5 27t-13 42.5t14.5 47t41.5 41.5t66 35.5v8h-59l-49 182h-225l-49 -182h-120zM384 283
l-54 191l-22 111h-14l-22 -111l-53 -191h165z" />
    <glyph glyph-name="aogonek" unicode="&#x105;" horiz-adv-x="506" 
d="M479 97v-97q-38 -24 -60 -42.5t-31.5 -35t-9.5 -34.5q0 -15 8.5 -24t25.5 -9q16 0 28 7.5t20 17.5l42 -44q-16 -20 -43 -33.5t-59 -13.5q-34 0 -58 9t-36.5 27t-12.5 43q0 40 33.5 70.5t89.5 53.5l-6 30l28 -22h-32q-24 0 -43.5 9t-31 31.5t-11.5 60.5v16l25 -28h-36
q-10 -47 -45 -74t-87 -27q-71 0 -107.5 40.5t-36.5 111.5q0 54 23 90.5t67 54t108 17.5h81v45q0 46 -19.5 68t-64.5 22q-37 0 -62 -18t-44 -49l-71 64q28 46 73.5 73t113.5 27q98 0 146.5 -46.5t48.5 -137.5v-253h46zM312 227h-73q-43 0 -63.5 -17t-20.5 -48v-22
q0 -33 18 -48t50 -15q25 0 45 10t32 28t12 43v69z" />
    <glyph glyph-name="Cacute" unicode="&#x106;" horiz-adv-x="581" 
d="M318 -12q-82 0 -143 35.5t-95 114.5t-34 207q0 130 34 210t95 117.5t143 37.5q93 0 146.5 -39t86.5 -120l-106 -56q-14 48 -40.5 76.5t-86.5 28.5q-65 0 -102 -42t-37 -122v-174q0 -80 37 -122t102 -42q61 0 90 31.5t44 80.5l102 -60q-34 -77 -88.5 -119.5t-147.5 -42.5z
M450 917l-119 -173l-73 35l88 190z" />
    <glyph glyph-name="cacute" unicode="&#x107;" horiz-adv-x="464" 
d="M251 -12q-105 0 -161 66t-56 207q0 140 56 206.5t161 66.5q76 0 122 -34.5t66 -96.5l-99 -44q-7 38 -28 57.5t-61 19.5q-45 0 -67.5 -27t-22.5 -81v-134q0 -54 22.5 -81t67.5 -27q41 0 63.5 20.5t33.5 61.5l94 -45q-23 -66 -70 -100.5t-121 -34.5zM379 754l-119 -173
l-73 35l88 189z" />
    <glyph glyph-name="Ccircumflex" unicode="&#x108;" horiz-adv-x="581" 
d="M318 -12q-82 0 -143 35.5t-95 114.5t-34 207q0 130 34 210t95 117.5t143 37.5q93 0 146.5 -39t86.5 -120l-106 -56q-14 48 -40.5 76.5t-86.5 28.5q-65 0 -102 -42t-37 -122v-174q0 -80 37 -122t102 -42q61 0 90 31.5t44 80.5l102 -60q-34 -77 -88.5 -119.5t-147.5 -42.5z
M266 950h104l121 -157l-61 -48l-112 118l-112 -118l-61 48z" />
    <glyph glyph-name="ccircumflex" unicode="&#x109;" horiz-adv-x="464" 
d="M251 -12q-105 0 -161 66t-56 207q0 140 56 206.5t161 66.5q76 0 122 -34.5t66 -96.5l-99 -44q-7 38 -28 57.5t-61 19.5q-45 0 -67.5 -27t-22.5 -81v-134q0 -54 22.5 -81t67.5 -27q41 0 63.5 20.5t33.5 61.5l94 -45q-23 -66 -70 -100.5t-121 -34.5zM195 787h104l121 -157
l-61 -47l-112 118l-112 -118l-61 47z" />
    <glyph glyph-name="Cdotaccent" unicode="&#x10a;" horiz-adv-x="581" 
d="M318 -12q-82 0 -143 35.5t-95 114.5t-34 207q0 130 34 210t95 117.5t143 37.5q93 0 146.5 -39t86.5 -120l-106 -56q-14 48 -40.5 76.5t-86.5 28.5q-65 0 -102 -42t-37 -122v-174q0 -80 37 -122t102 -42q61 0 90 31.5t44 80.5l102 -60q-34 -77 -88.5 -119.5t-147.5 -42.5z
M318 773q-37 0 -52.5 14.5t-15.5 39.5v23q0 25 15.5 39.5t52.5 14.5t52.5 -14.5t15.5 -39.5v-23q0 -25 -15.5 -39.5t-52.5 -14.5z" />
    <glyph glyph-name="cdotaccent" unicode="&#x10b;" horiz-adv-x="464" 
d="M251 -12q-105 0 -161 66t-56 207q0 140 56 206.5t161 66.5q76 0 122 -34.5t66 -96.5l-99 -44q-7 38 -28 57.5t-61 19.5q-45 0 -67.5 -27t-22.5 -81v-134q0 -54 22.5 -81t67.5 -27q41 0 63.5 20.5t33.5 61.5l94 -45q-23 -66 -70 -100.5t-121 -34.5zM247 607
q-37 0 -52.5 14.5t-15.5 39.5v23q0 24 15.5 39t52.5 15t52.5 -15t15.5 -39v-23q0 -25 -15.5 -39.5t-52.5 -14.5z" />
    <glyph glyph-name="Ccaron" unicode="&#x10c;" horiz-adv-x="581" 
d="M318 -12q-82 0 -143 35.5t-95 114.5t-34 207q0 130 34 210t95 117.5t143 37.5q93 0 146.5 -39t86.5 -120l-106 -56q-14 48 -40.5 76.5t-86.5 28.5q-65 0 -102 -42t-37 -122v-174q0 -80 37 -122t102 -42q61 0 90 31.5t44 80.5l102 -60q-34 -77 -88.5 -119.5t-147.5 -42.5z
M370 754h-104l-121 157l61 48l112 -118l112 118l61 -48z" />
    <glyph glyph-name="ccaron" unicode="&#x10d;" horiz-adv-x="464" 
d="M251 -12q-105 0 -161 66t-56 207q0 140 56 206.5t161 66.5q76 0 122 -34.5t66 -96.5l-99 -44q-7 38 -28 57.5t-61 19.5q-45 0 -67.5 -27t-22.5 -81v-134q0 -54 22.5 -81t67.5 -27q41 0 63.5 20.5t33.5 61.5l94 -45q-23 -66 -70 -100.5t-121 -34.5zM299 585h-104l-121 157
l61 47l112 -118l112 118l61 -47z" />
    <glyph glyph-name="Dcaron" unicode="&#x10e;" horiz-adv-x="623" 
d="M72 0v698h238q84 0 143.5 -35.5t91.5 -112.5t32 -201t-32 -201t-91.5 -112.5t-143.5 -35.5h-238zM197 109h113q43 0 72.5 17.5t45.5 53t16 87.5v164q0 53 -16 88t-45.5 52.5t-72.5 17.5h-113v-480zM347 754h-104l-121 157l61 48l112 -118l112 118l61 -48z" />
    <glyph glyph-name="dcaron" unicode="&#x10f;" horiz-adv-x="580" 
d="M356 0v86h-14q-11 -44 -45 -71t-78 -27q-61 0 -101 31t-59.5 92t-19.5 150q0 88 20 149t59.5 92.5t100.5 31.5q44 0 78 -27t45 -71h14v304h121v-740h-121zM265 88q27 0 47.5 9.5t32 27t11.5 42.5v189q0 24 -11.5 41.5t-32 27t-47.5 9.5q-46 0 -72.5 -29t-26.5 -82v-124
q0 -52 26.5 -81.5t72.5 -29.5zM658 740l-58 -206h-72l8 206h122z" />
    <glyph glyph-name="Dcroat" unicode="&#x110;" horiz-adv-x="631" 
d="M80 0v312h-65v95h65v291h237q85 0 144.5 -35.5t91.5 -112.5t32 -201t-32 -201t-91.5 -112.5t-144.5 -35.5h-237zM205 109h113q42 0 72 17.5t46 53t16 87.5v164q0 53 -16 88t-46 52.5t-72 17.5h-113v-182h110v-95h-110v-203z" />
    <glyph glyph-name="dcroat" unicode="&#x111;" horiz-adv-x="542" 
d="M356 0v86h-14q-11 -44 -45 -71t-78 -27q-61 0 -101 31t-59.5 92t-19.5 150q0 88 20 149t59.5 92.5t100.5 31.5q44 0 78 -27t45 -71h14v166h-128v75h128v63h121v-63h56v-75h-56v-602h-121zM265 88q27 0 47.5 9.5t32 27t11.5 42.5v189q0 24 -11.5 41.5t-32 27t-47.5 9.5
q-46 0 -72.5 -29t-26.5 -82v-124q0 -52 26.5 -81.5t72.5 -29.5z" />
    <glyph glyph-name="Emacron" unicode="&#x112;" horiz-adv-x="542" 
d="M491 0h-419v698h419v-109h-294v-182h257v-108h-257v-190h294v-109zM146 792v92h270v-92h-270z" />
    <glyph glyph-name="emacron" unicode="&#x113;" horiz-adv-x="504" 
d="M263 -12q-68 0 -119.5 29.5t-80.5 90t-29 153.5q0 94 26 154.5t75 89.5t118 29q70 0 118 -29t73.5 -89.5t25.5 -154.5v-30h-309v-33q0 -52 29.5 -82.5t79.5 -30.5q43 0 72.5 19.5t50.5 53.5l66 -69q-29 -46 -78 -73.5t-118 -27.5zM253 441q-29 0 -50 -12t-31.5 -36
t-10.5 -60v-27h182v27q0 36 -10 60t-29.5 36t-50.5 12zM118 628v92h270v-92h-270z" />
    <glyph glyph-name="Ebreve" unicode="&#x114;" horiz-adv-x="542" 
d="M491 0h-419v698h419v-109h-294v-182h257v-108h-257v-190h294v-109zM281 748q-31 0 -55 7.5t-43.5 25.5t-36 48.5t-32.5 76.5l66 34l20 -40q19 -40 37 -53t44 -13q27 0 45.5 14t36.5 52l20 40l65 -34q-21 -61 -44.5 -95.5t-53 -48.5t-69.5 -14z" />
    <glyph glyph-name="ebreve" unicode="&#x115;" horiz-adv-x="504" 
d="M263 -12q-68 0 -119.5 29.5t-80.5 90t-29 153.5q0 94 26 154.5t75 89.5t118 29q70 0 118 -29t73.5 -89.5t25.5 -154.5v-30h-309v-33q0 -52 29.5 -82.5t79.5 -30.5q43 0 72.5 19.5t50.5 53.5l66 -69q-29 -46 -78 -73.5t-118 -27.5zM253 441q-29 0 -50 -12t-31.5 -36
t-10.5 -60v-27h182v27q0 36 -10 60t-29.5 36t-50.5 12zM253 584q-31 0 -55 8t-43.5 26t-36 48.5t-32.5 75.5l66 35l20 -40q19 -40 37 -53.5t44 -13.5q27 0 45.5 14t36.5 53l20 40l65 -35q-16 -45 -33 -75.5t-37 -48.5t-43.5 -26t-53.5 -8z" />
    <glyph glyph-name="Edotaccent" unicode="&#x116;" horiz-adv-x="542" 
d="M491 0h-419v698h419v-109h-294v-182h257v-108h-257v-190h294v-109zM281 773q-37 0 -52.5 14.5t-15.5 39.5v23q0 25 15.5 39.5t52.5 14.5t52.5 -14.5t15.5 -39.5v-23q0 -25 -15.5 -39.5t-52.5 -14.5z" />
    <glyph glyph-name="edotaccent" unicode="&#x117;" horiz-adv-x="504" 
d="M263 -12q-68 0 -119.5 29.5t-80.5 90t-29 153.5q0 94 26 154.5t75 89.5t118 29q70 0 118 -29t73.5 -89.5t25.5 -154.5v-30h-309v-33q0 -52 29.5 -82.5t79.5 -30.5q43 0 72.5 19.5t50.5 53.5l66 -69q-29 -46 -78 -73.5t-118 -27.5zM253 441q-29 0 -50 -12t-31.5 -36
t-10.5 -60v-27h182v27q0 36 -10 60t-29.5 36t-50.5 12zM253 607q-37 0 -52.5 14.5t-15.5 39.5v23q0 24 15.5 39t52.5 15t52.5 -15t15.5 -39v-23q0 -25 -15.5 -39.5t-52.5 -14.5z" />
    <glyph glyph-name="Eogonek" unicode="&#x118;" horiz-adv-x="542" 
d="M72 0v698h419v-109h-294v-182h257v-108h-257v-190h294v-109q-38 -24 -60 -43t-31.5 -35.5t-9.5 -33.5q0 -14 8.5 -23.5t26.5 -9.5q16 0 27.5 7.5t19.5 17.5l42 -44q-16 -20 -43.5 -33.5t-58.5 -13.5q-34 0 -58 9.5t-36.5 27t-12.5 42.5q0 38 32 69t91 55l-2 8h-354z" />
    <glyph glyph-name="eogonek" unicode="&#x119;" horiz-adv-x="504" 
d="M287 -211q-34 0 -58 9t-36.5 27t-12.5 43q0 23 12 43t39.5 38.5t70.5 35.5l-1 7q-9 -2 -18 -3t-20 -1q-68 0 -119.5 29.5t-80.5 90t-29 153.5q0 94 26 154.5t75 89.5t118 29q70 0 118 -29t73.5 -89.5t25.5 -154.5v-30h-309v-33q0 -52 29.5 -82.5t79.5 -30.5
q43 0 72.5 19.5t50.5 53.5l66 -69q-13 -19 -32 -36.5t-50 -39.5q-31 -24 -53 -42.5t-35 -32.5t-18.5 -26t-5.5 -24q0 -15 8.5 -24t25.5 -9q16 0 28 7.5t20 17.5l42 -44q-16 -20 -43.5 -33.5t-58.5 -13.5zM161 306h182v27q0 36 -10 60t-29.5 36t-50.5 12q-29 0 -50 -12
t-31.5 -36t-10.5 -60v-27z" />
    <glyph glyph-name="Ecaron" unicode="&#x11a;" horiz-adv-x="542" 
d="M491 0h-419v698h419v-109h-294v-182h257v-108h-257v-190h294v-109zM333 754h-104l-121 157l61 48l112 -118l112 118l61 -48z" />
    <glyph glyph-name="ecaron" unicode="&#x11b;" horiz-adv-x="504" 
d="M263 -12q-68 0 -119.5 29.5t-80.5 90t-29 153.5q0 94 26 154.5t75 89.5t118 29q70 0 118 -29t73.5 -89.5t25.5 -154.5v-30h-309v-33q0 -52 29.5 -82.5t79.5 -30.5q43 0 72.5 19.5t50.5 53.5l66 -69q-29 -46 -78 -73.5t-118 -27.5zM253 441q-29 0 -50 -12t-31.5 -36
t-10.5 -60v-27h182v27q0 36 -10 60t-29.5 36t-50.5 12zM305 585h-104l-121 157l61 47l112 -118l112 118l61 -47z" />
    <glyph glyph-name="Gcircumflex" unicode="&#x11c;" horiz-adv-x="640" 
d="M473 0v106h-14q-9 -51 -50 -84.5t-112 -33.5q-69 0 -125.5 35.5t-91 114.5t-34.5 209t34 210t95 116.5t145 36.5q93 0 153.5 -40.5t94.5 -116.5l-102 -59q-16 49 -51.5 77.5t-94.5 28.5q-43 0 -75 -19t-49 -55.5t-17 -89.5v-174q0 -52 17 -89t49.5 -56t77.5 -19
q38 0 69.5 14.5t49.5 41.5t18 66v51h-122v106h241v-377h-106zM271 950h104l121 -157l-61 -48l-112 118l-112 -118l-61 48z" />
    <glyph glyph-name="gcircumflex" unicode="&#x11d;" horiz-adv-x="500" 
d="M493 -46q0 -55 -23 -91.5t-77.5 -55.5t-148.5 -19q-83 0 -131 14.5t-68.5 43t-20.5 66.5q0 39 22.5 62.5t62.5 29.5v19q-32 8 -47.5 30.5t-15.5 53.5q0 35 25 55.5t61 27.5v13q-42 21 -63.5 59.5t-21.5 94.5t21.5 95.5t65.5 60.5t110 21q23 0 45 -2.5t41 -9.5h154v-85
h-131v-12q43 -2 65 -26.5t22 -60.5q0 -46 -21.5 -81.5t-64.5 -55.5t-110 -20q-21 0 -40 2.5t-36 5.5q-13 -6 -20.5 -19.5t-7.5 -28.5q0 -19 13 -29.5t43 -10.5h133q88 0 126 -38.5t38 -108.5zM244 265q43 0 63 20.5t20 61.5v22q0 41 -20 61t-63 20q-42 0 -62.5 -20
t-20.5 -61v-22q0 -41 20.5 -61.5t62.5 -20.5zM380 -60q0 27 -18 41t-60 14h-161q-11 -10 -16.5 -24t-5.5 -32q0 -32 21.5 -49t75.5 -17h59q57 0 81 16.5t24 50.5zM199 787h104l121 -157l-61 -47l-112 118l-112 -118l-61 47z" />
    <glyph glyph-name="Gbreve" unicode="&#x11e;" horiz-adv-x="640" 
d="M473 0v106h-14q-9 -51 -50 -84.5t-112 -33.5q-69 0 -125.5 35.5t-91 114.5t-34.5 209t34 210t95 116.5t145 36.5q93 0 153.5 -40.5t94.5 -116.5l-102 -59q-16 49 -51.5 77.5t-94.5 28.5q-43 0 -75 -19t-49 -55.5t-17 -89.5v-174q0 -52 17 -89t49.5 -56t77.5 -19
q38 0 69.5 14.5t49.5 41.5t18 66v51h-122v106h241v-377h-106zM323 748q-31 0 -55 7.5t-43.5 25.5t-36 48.5t-32.5 76.5l66 34l20 -40q19 -40 37 -53t44 -13q27 0 45.5 14t36.5 52l20 40l65 -34q-21 -61 -44.5 -95.5t-53 -48.5t-69.5 -14z" />
    <glyph glyph-name="gbreve" unicode="&#x11f;" horiz-adv-x="500" 
d="M493 -46q0 -55 -23 -91.5t-77.5 -55.5t-148.5 -19q-83 0 -131 14.5t-68.5 43t-20.5 66.5q0 39 22.5 62.5t62.5 29.5v19q-32 8 -47.5 30.5t-15.5 53.5q0 35 25 55.5t61 27.5v13q-42 21 -63.5 59.5t-21.5 94.5t21.5 95.5t65.5 60.5t110 21q23 0 45 -2.5t41 -9.5h154v-85
h-131v-12q43 -2 65 -26.5t22 -60.5q0 -46 -21.5 -81.5t-64.5 -55.5t-110 -20q-21 0 -40 2.5t-36 5.5q-13 -6 -20.5 -19.5t-7.5 -28.5q0 -19 13 -29.5t43 -10.5h133q88 0 126 -38.5t38 -108.5zM244 265q43 0 63 20.5t20 61.5v22q0 41 -20 61t-63 20q-42 0 -62.5 -20
t-20.5 -61v-22q0 -41 20.5 -61.5t62.5 -20.5zM380 -60q0 27 -18 41t-60 14h-161q-11 -10 -16.5 -24t-5.5 -32q0 -32 21.5 -49t75.5 -17h59q57 0 81 16.5t24 50.5zM251 584q-31 0 -55 8t-43.5 26t-36 48.5t-32.5 75.5l66 35l20 -40q19 -40 37 -53.5t44 -13.5q27 0 45.5 14
t36.5 53l20 40l65 -35q-16 -45 -33 -75.5t-37 -48.5t-43.5 -26t-53.5 -8z" />
    <glyph glyph-name="Gdotaccent" unicode="&#x120;" horiz-adv-x="640" 
d="M473 0v106h-14q-9 -51 -50 -84.5t-112 -33.5q-69 0 -125.5 35.5t-91 114.5t-34.5 209t34 210t95 116.5t145 36.5q93 0 153.5 -40.5t94.5 -116.5l-102 -59q-16 49 -51.5 77.5t-94.5 28.5q-43 0 -75 -19t-49 -55.5t-17 -89.5v-174q0 -52 17 -89t49.5 -56t77.5 -19
q38 0 69.5 14.5t49.5 41.5t18 66v51h-122v106h241v-377h-106zM323 773q-37 0 -52.5 14.5t-15.5 39.5v23q0 25 15.5 39.5t52.5 14.5t52.5 -14.5t15.5 -39.5v-23q0 -25 -15.5 -39.5t-52.5 -14.5z" />
    <glyph glyph-name="gdotaccent" unicode="&#x121;" horiz-adv-x="500" 
d="M493 -46q0 -55 -23 -91.5t-77.5 -55.5t-148.5 -19q-83 0 -131 14.5t-68.5 43t-20.5 66.5q0 39 22.5 62.5t62.5 29.5v19q-32 8 -47.5 30.5t-15.5 53.5q0 35 25 55.5t61 27.5v13q-42 21 -63.5 59.5t-21.5 94.5t21.5 95.5t65.5 60.5t110 21q23 0 45 -2.5t41 -9.5h154v-85
h-131v-12q43 -2 65 -26.5t22 -60.5q0 -46 -21.5 -81.5t-64.5 -55.5t-110 -20q-21 0 -40 2.5t-36 5.5q-13 -6 -20.5 -19.5t-7.5 -28.5q0 -19 13 -29.5t43 -10.5h133q88 0 126 -38.5t38 -108.5zM244 265q43 0 63 20.5t20 61.5v22q0 41 -20 61t-63 20q-42 0 -62.5 -20
t-20.5 -61v-22q0 -41 20.5 -61.5t62.5 -20.5zM380 -60q0 27 -18 41t-60 14h-161q-11 -10 -16.5 -24t-5.5 -32q0 -32 21.5 -49t75.5 -17h59q57 0 81 16.5t24 50.5zM251 607q-37 0 -52.5 14.5t-15.5 39.5v23q0 24 15.5 39t52.5 15t52.5 -15t15.5 -39v-23q0 -25 -15.5 -39.5
t-52.5 -14.5z" />
    <glyph glyph-name="Gcommaaccent" unicode="&#x122;" horiz-adv-x="640" 
d="M473 0v106h-14q-9 -51 -50 -84.5t-112 -33.5q-69 0 -125.5 35.5t-91 114.5t-34.5 209t34 210t95 116.5t145 36.5q93 0 153.5 -40.5t94.5 -116.5l-102 -59q-16 49 -51.5 77.5t-94.5 28.5q-43 0 -75 -19t-49 -55.5t-17 -89.5v-174q0 -52 17 -89t49.5 -56t77.5 -19
q38 0 69.5 14.5t49.5 41.5t18 66v51h-122v106h241v-377h-106zM320 -50q30 0 47 -13t17 -39v-20q0 -44 -18.5 -82t-45.5 -62h-74q23 22 37 43.5t20 48.5q-25 2 -36 15t-11 37v20q0 26 17 39t47 13z" />
    <glyph glyph-name="gcommaaccent" unicode="&#x123;" horiz-adv-x="500" 
d="M493 -46q0 -55 -23 -91.5t-77.5 -55.5t-148.5 -19q-83 0 -131 14.5t-68.5 43t-20.5 66.5q0 39 22.5 62.5t62.5 29.5v19q-32 8 -47.5 30.5t-15.5 53.5q0 35 25 55.5t61 27.5v13q-42 21 -63.5 59.5t-21.5 94.5t21.5 95.5t65.5 60.5t110 21q23 0 45 -2.5t41 -9.5h154v-85
h-131v-12q43 -2 65 -26.5t22 -60.5q0 -46 -21.5 -81.5t-64.5 -55.5t-110 -20q-21 0 -40 2.5t-36 5.5q-13 -6 -20.5 -19.5t-7.5 -28.5q0 -19 13 -29.5t43 -10.5h133q88 0 126 -38.5t38 -108.5zM244 265q43 0 63 20.5t20 61.5v22q0 41 -20 61t-63 20q-42 0 -62.5 -20
t-20.5 -61v-22q0 -41 20.5 -61.5t62.5 -20.5zM380 -60q0 27 -18 41t-60 14h-161q-11 -10 -16.5 -24t-5.5 -32q0 -32 21.5 -49t75.5 -17h59q57 0 81 16.5t24 50.5zM251 582q-31 0 -47.5 13t-16.5 40v19q0 45 19 82.5t45 62.5h74q-22 -22 -36 -43.5t-21 -49.5q26 -1 36.5 -14
t10.5 -38v-19q0 -27 -16.5 -40t-47.5 -13z" />
    <glyph glyph-name="Hcircumflex" unicode="&#x124;" horiz-adv-x="649" 
d="M452 0v299h-255v-299h-125v698h125v-291h255v291h125v-698h-125zM273 950h104l121 -157l-61 -48l-112 118l-112 -118l-61 48z" />
    <glyph glyph-name="hcircumflex" unicode="&#x125;" horiz-adv-x="532" 
d="M65 0v740h122v-305h14q13 43 43 71t83 28q70 0 107.5 -47.5t37.5 -135.5v-351h-121v330q0 51 -18.5 77.5t-57.5 26.5q-24 0 -44 -10t-32 -28.5t-12 -45.5v-350h-122zM74 945h104l121 -157l-61 -47l-112 118l-112 -118l-61 47z" />
    <glyph glyph-name="Hbar" unicode="&#x126;" horiz-adv-x="664" 
d="M459 0v299h-254v-299h-125v518h-65v80h65v100h125v-100h254v100h125v-100h65v-80h-65v-518h-125zM205 407h254v111h-254v-111z" />
    <glyph glyph-name="hbar" unicode="&#x127;" horiz-adv-x="531" 
d="M187 0h-122v602h-56v75h56v63h122v-63h127v-75h-127v-167h14q13 43 43 71t83 28q70 0 107.5 -47.5t37.5 -135.5v-351h-121v330q0 51 -18.5 77.5t-57.5 26.5q-24 0 -44 -10t-32 -28.5t-12 -45.5v-350z" />
    <glyph glyph-name="Itilde" unicode="&#x128;" horiz-adv-x="387" 
d="M339 0h-292v99h84v500h-84v99h292v-99h-83v-500h83v-99zM265 770q-18 0 -32.5 4.5t-41.5 18.5q-26 14 -41 19t-27 5q-17 0 -27.5 -6.5t-24.5 -19.5l-44 56q17 27 42 42.5t54 15.5q18 0 32.5 -4.5t41.5 -18.5q26 -13 41.5 -19t26.5 -6q17 0 27.5 7t24.5 20l44 -56
q-17 -27 -42 -42.5t-54 -15.5z" />
    <glyph glyph-name="itilde" unicode="&#x129;" horiz-adv-x="252" 
d="M187 0h-122v522h122v-522zM186 609q-18 0 -34 6.5t-31 15.5q-14 8 -28.5 14t-24.5 6q-13 0 -22.5 -5.5t-21.5 -17.5l-42 56q18 28 38 41t46 13q19 0 34.5 -6.5t30.5 -14.5q14 -9 29 -14.5t24 -5.5q13 0 22.5 5t21.5 17l42 -56q-18 -28 -38 -41t-46 -13z" />
    <glyph glyph-name="Imacron" unicode="&#x12a;" horiz-adv-x="387" 
d="M339 0h-292v99h84v500h-84v99h292v-99h-83v-500h83v-99zM59 792v92h270v-92h-270z" />
    <glyph glyph-name="imacron" unicode="&#x12b;" horiz-adv-x="252" 
d="M187 0h-122v522h122v-522zM-4 628v92h260v-92h-260z" />
    <glyph glyph-name="Ibreve" unicode="&#x12c;" horiz-adv-x="387" 
d="M339 0h-292v99h84v500h-84v99h292v-99h-83v-500h83v-99zM194 748q-31 0 -55 7.5t-43.5 25.5t-36 48.5t-32.5 76.5l66 34l20 -40q19 -40 37 -53t44 -13q27 0 45.5 14t36.5 52l20 40l65 -34q-21 -61 -44.5 -95.5t-53 -48.5t-69.5 -14z" />
    <glyph glyph-name="ibreve" unicode="&#x12d;" horiz-adv-x="252" 
d="M187 0h-122v522h122v-522zM126 584q-30 0 -53.5 8.5t-41.5 27.5t-32 50.5t-26 77.5l66 28l17 -43q13 -35 28 -49t42 -14t43 15t28 48l16 43l66 -28q-12 -46 -26.5 -77.5t-32.5 -50.5t-41 -27.5t-53 -8.5z" />
    <glyph glyph-name="Iogonek" unicode="&#x12e;" horiz-adv-x="387" 
d="M47 0v99h84v500h-84v99h292v-99h-83v-500h83v-99q-38 -24 -60 -43t-31.5 -35.5t-9.5 -33.5q0 -14 8.5 -23.5t26.5 -9.5q16 0 28 7.5t20 17.5l42 -44q-17 -20 -44 -33.5t-58 -13.5q-34 0 -58 9.5t-36.5 27t-12.5 42.5q0 38 32 69t91 55l-1 8h-229z" />
    <glyph glyph-name="iogonek" unicode="&#x12f;" horiz-adv-x="252" 
d="M65 522h122v-522q-39 -24 -61 -43t-31 -35.5t-9 -33.5q0 -14 8 -23.5t26 -9.5q16 0 28 7.5t20 17.5l42 -44q-16 -20 -43 -33.5t-59 -13.5q-34 0 -58 9.5t-36.5 27t-12.5 42.5t14.5 46.5t42 41.5t68.5 36l-1 8h-60v522zM126 604q-38 0 -55 17t-17 44v20q0 29 17 45t55 16
t55 -16t17 -45v-20q0 -27 -17 -44t-55 -17z" />
    <glyph glyph-name="Idotaccent" unicode="&#x130;" horiz-adv-x="387" 
d="M339 0h-292v99h84v500h-84v99h292v-99h-83v-500h83v-99zM194 773q-37 0 -52.5 14.5t-15.5 39.5v23q0 25 15.5 39.5t52.5 14.5t52.5 -14.5t15.5 -39.5v-23q0 -25 -15.5 -39.5t-52.5 -14.5z" />
    <glyph glyph-name="dotlessi" unicode="&#x131;" horiz-adv-x="252" 
d="M187 0h-122v522h122v-522z" />
    <glyph glyph-name="IJ" unicode="&#x132;" horiz-adv-x="588" 
d="M296 -11q-101 0 -153.5 48.5t-66.5 134.5l115 24q8 -51 34 -74.5t70 -23.5q43 0 72 23t29 78v397h-91v102h215v-509q0 -62 -26 -107.5t-76 -69t-122 -23.5zM70 301v397h125v-397h-125z" />
    <glyph glyph-name="ij" unicode="&#x133;" horiz-adv-x="507" 
d="M126 604q-38 0 -55 17t-17 44v20q0 29 17 45t55 16t55 -16t17 -45v-20q0 -27 -17 -44t-55 -17zM65 0v522h122v-522h-122zM320 -103v625h121v-600q0 -62 -29 -92t-95 -30h-69v97h72zM381 604q-38 0 -55 17t-17 44v20q0 29 17 45t55 16q37 0 54 -16t17 -45v-20
q0 -27 -17 -44t-54 -17z" />
    <glyph glyph-name="Jcircumflex" unicode="&#x134;" horiz-adv-x="493" 
d="M106 698h319v-518q0 -60 -23.5 -103t-69 -66t-109.5 -23q-92 0 -139 48t-62 133l113 24q8 -50 28 -72.5t59 -22.5q37 0 57.5 21.5t20.5 71.5v405h-194v102zM214 950h104l121 -157l-61 -48l-112 118l-112 -118l-61 48z" />
    <glyph glyph-name="jcircumflex" unicode="&#x135;" horiz-adv-x="255" 
d="M-4 -200v97h72v625h121v-600q0 -62 -29 -92t-95 -30h-69zM77 787h104l106 -157l-61 -47l-97 118l-97 -118l-61 47z" />
    <glyph glyph-name="Kcommaaccent" unicode="&#x136;" horiz-adv-x="613" 
d="M455 0l-174 320l-84 -111v-209h-125v698h125v-228l-6 -121h14l79 121l159 228h141l-217 -293l234 -405h-146zM319 -50q30 0 47 -13t17 -39v-20q0 -44 -18.5 -82t-45.5 -62h-74q23 22 37 43.5t20 48.5q-25 2 -36 15t-11 37v20q0 26 17 39t47 13z" />
    <glyph glyph-name="kcommaaccent" unicode="&#x137;" horiz-adv-x="510" 
d="M65 0v740h122v-345l-8 -108h14l61 96l104 139h137l-163 -205l172 -317h-136l-120 239l-61 -76v-163h-122zM270 -50q30 0 47 -13t17 -39v-20q0 -44 -18.5 -82t-45.5 -62h-74q23 22 37 43.5t20 48.5q-25 2 -36 15t-11 37v20q0 26 17 39t47 13z" />
    <glyph glyph-name="kgreenlandic" unicode="&#x138;" horiz-adv-x="510" 
d="M368 0l-120 239l-61 -76v-163h-122v522h122v-126l-8 -108h14l61 96l104 138h137l-163 -205l172 -317h-136z" />
    <glyph glyph-name="Lacute" unicode="&#x139;" horiz-adv-x="472" 
d="M442 0h-370v698h125v-589h245v-109zM267 917l-119 -173l-73 35l88 190z" />
    <glyph glyph-name="lacute" unicode="&#x13a;" horiz-adv-x="268" 
d="M247 0h-63q-63 0 -91 28.5t-28 87.5v624h122v-643h60v-97zM258 954l-119 -173l-73 35l88 189z" />
    <glyph glyph-name="Lcommaaccent" unicode="&#x13b;" horiz-adv-x="472" 
d="M442 0h-370v698h125v-589h245v-109zM260 -50q30 0 47 -13t17 -39v-20q0 -44 -18.5 -82t-45.5 -62h-74q23 22 37 43.5t20 48.5q-25 2 -36 15t-11 37v20q0 26 17 39t47 13z" />
    <glyph glyph-name="lcommaaccent" unicode="&#x13c;" horiz-adv-x="268" 
d="M247 0h-63q-63 0 -91 28.5t-28 87.5v624h122v-643h60v-97zM155 -50q30 0 47 -13t17 -39v-20q0 -44 -18.5 -82t-45.5 -62h-74q23 22 37 43.5t20 48.5q-25 2 -36 15t-11 37v20q0 26 17 39t47 13z" />
    <glyph glyph-name="Lcaron" unicode="&#x13d;" horiz-adv-x="472" 
d="M442 0h-370v698h125v-589h245v-109zM392 740l-58 -206h-72l8 206h122z" />
    <glyph glyph-name="lcaron" unicode="&#x13e;" horiz-adv-x="293" 
d="M247 0h-63q-63 0 -91 28.5t-28 87.5v624h122v-643h60v-97zM368 740l-58 -206h-72l8 206h122z" />
    <glyph glyph-name="Ldot" unicode="&#x13f;" horiz-adv-x="472" 
d="M442 0h-370v698h125v-589h245v-109zM364 307q-37 0 -52.5 14.5t-15.5 39.5v23q0 24 15.5 39t52.5 15t52.5 -15t15.5 -39v-23q0 -25 -15.5 -39.5t-52.5 -14.5z" />
    <glyph glyph-name="ldot" unicode="&#x140;" horiz-adv-x="376" 
d="M247 0h-63q-63 0 -91 28.5t-28 87.5v624h122v-643h60v-97zM312 271q-37 0 -52.5 14.5t-15.5 39.5v23q0 24 15.5 39t52.5 15t52.5 -15t15.5 -39v-23q0 -25 -15.5 -39.5t-52.5 -14.5z" />
    <glyph glyph-name="Lslash" unicode="&#x141;" horiz-adv-x="480" 
d="M450 109v-109h-370v254l-79 -28v89l79 29v354h125v-310l144 51v-90l-144 -51v-189h245z" />
    <glyph glyph-name="lslash" unicode="&#x142;" horiz-adv-x="276" 
d="M248 97v-97h-64q-64 0 -91.5 28.5t-27.5 87.5v192l-67 -23v90l67 23v342h121v-299l86 30v-90l-86 -30v-254h62z" />
    <glyph glyph-name="Nacute" unicode="&#x143;" horiz-adv-x="649" 
d="M438 0l-193 397l-49 121h-14l8 -125v-393h-118v698h139l193 -397l49 -121h14l-8 125v393h118v-698h-139zM456 917l-119 -173l-73 35l88 190z" />
    <glyph glyph-name="nacute" unicode="&#x144;" horiz-adv-x="532" 
d="M187 0h-122v522h122v-87h14q13 43 42.5 71t82.5 28q70 0 108 -47.5t38 -135.5v-351h-121v330q0 51 -18.5 77.5t-57.5 26.5q-24 0 -44 -10t-32 -28.5t-12 -45.5v-350zM401 754l-119 -173l-73 35l88 189z" />
    <glyph glyph-name="Ncommaaccent" unicode="&#x145;" horiz-adv-x="649" 
d="M438 0l-193 397l-49 121h-14l8 -125v-393h-118v698h139l193 -397l49 -121h14l-8 125v393h118v-698h-139zM323 -50q30 0 47 -13t17 -39v-20q0 -44 -18.5 -82t-45.5 -62h-74q23 22 37 43.5t20 48.5q-25 2 -36 15t-11 37v20q0 26 17 39t47 13z" />
    <glyph glyph-name="ncommaaccent" unicode="&#x146;" horiz-adv-x="532" 
d="M187 0h-122v522h122v-87h14q13 43 42.5 71t82.5 28q70 0 108 -47.5t38 -135.5v-351h-121v330q0 51 -18.5 77.5t-57.5 26.5q-24 0 -44 -10t-32 -28.5t-12 -45.5v-350zM268 -50q30 0 47 -13t17 -39v-20q0 -44 -18.5 -82t-45.5 -62h-74q23 22 37 43.5t20 48.5q-25 2 -36 15
t-11 37v20q0 26 17 39t47 13z" />
    <glyph glyph-name="Ncaron" unicode="&#x147;" horiz-adv-x="649" 
d="M438 0l-193 397l-49 121h-14l8 -125v-393h-118v698h139l193 -397l49 -121h14l-8 125v393h118v-698h-139zM376 754h-104l-121 157l61 48l112 -118l112 118l61 -48z" />
    <glyph glyph-name="ncaron" unicode="&#x148;" horiz-adv-x="532" 
d="M187 0h-122v522h122v-87h14q13 43 42.5 71t82.5 28q70 0 108 -47.5t38 -135.5v-351h-121v330q0 51 -18.5 77.5t-57.5 26.5q-24 0 -44 -10t-32 -28.5t-12 -45.5v-350zM321 585h-104l-121 157l61 47l112 -118l112 118l61 -47z" />
    <glyph glyph-name="napostrophe" unicode="&#x149;" horiz-adv-x="805" 
d="M138 749q38 0 56 -18t18 -48v-23q0 -52 -26 -102.5t-70 -85.5h-79q31 30 52 60t31 66q-29 5 -42.5 20.5t-13.5 41.5v23q0 30 18.5 48t55.5 18zM460 0h-122v522h122v-87h14q13 43 42.5 71t82.5 28q70 0 108 -47.5t38 -135.5v-351h-121v330q0 51 -18.5 77.5t-57.5 26.5
q-24 0 -44 -10t-32 -28.5t-12 -45.5v-350z" />
    <glyph glyph-name="Eng" unicode="&#x14a;" horiz-adv-x="648" 
d="M190 0h-118v698h139l192 -397l49 -121h14l-7 121v397h117v-776q0 -62 -29 -92t-96 -30h-68v97h76v103h-22l-192 397l-49 121h-14l8 -121v-397z" />
    <glyph glyph-name="eng" unicode="&#x14b;" horiz-adv-x="531" 
d="M279 -200v97h72v433q0 52 -18.5 78t-57.5 26q-24 0 -44 -10t-32 -28.5t-12 -45.5v-350h-122v522h122v-87h14q13 43 42.5 71t82.5 28q70 0 108 -47.5t38 -135.5v-429q0 -62 -29 -92t-95 -30h-69z" />
    <glyph glyph-name="Omacron" unicode="&#x14c;" horiz-adv-x="641" 
d="M320 -12q-84 0 -145 36.5t-95 116.5t-34 208q0 129 34 208.5t95 116t145 36.5q85 0 146 -36.5t94.5 -116t33.5 -208.5q0 -128 -33.5 -208t-94.5 -116.5t-146 -36.5zM320 98q46 0 77 19t48 56t17 89v174q0 53 -17 89.5t-48 55.5t-77 19q-44 0 -75.5 -19t-48.5 -55.5
t-17 -89.5v-174q0 -52 17 -89t48.5 -56t75.5 -19zM185 792v92h270v-92h-270z" />
    <glyph glyph-name="omacron" unicode="&#x14d;" horiz-adv-x="507" 
d="M253 -12q-69 0 -118 29.5t-75 90t-26 153.5q0 94 26 154.5t75 89.5t118 29q70 0 119 -29t75 -89.5t26 -154.5q0 -93 -26 -153.5t-75 -90t-119 -29.5zM253 86q45 0 69 27t24 81v134q0 54 -24 81t-69 27q-44 0 -68 -27t-24 -81v-134q0 -54 24 -81t68 -27zM118 628v92h270
v-92h-270z" />
    <glyph glyph-name="Obreve" unicode="&#x14e;" horiz-adv-x="641" 
d="M320 -12q-84 0 -145 36.5t-95 116.5t-34 208q0 129 34 208.5t95 116t145 36.5q85 0 146 -36.5t94.5 -116t33.5 -208.5q0 -128 -33.5 -208t-94.5 -116.5t-146 -36.5zM320 98q46 0 77 19t48 56t17 89v174q0 53 -17 89.5t-48 55.5t-77 19q-44 0 -75.5 -19t-48.5 -55.5
t-17 -89.5v-174q0 -52 17 -89t48.5 -56t75.5 -19zM320 748q-31 0 -55 7.5t-43.5 25.5t-36 48.5t-32.5 76.5l66 34l20 -40q19 -40 37 -53t44 -13q27 0 45.5 14t36.5 52l20 40l65 -34q-21 -61 -44.5 -95.5t-53 -48.5t-69.5 -14z" />
    <glyph glyph-name="obreve" unicode="&#x14f;" horiz-adv-x="507" 
d="M253 -12q-69 0 -118 29.5t-75 90t-26 153.5q0 94 26 154.5t75 89.5t118 29q70 0 119 -29t75 -89.5t26 -154.5q0 -93 -26 -153.5t-75 -90t-119 -29.5zM253 86q45 0 69 27t24 81v134q0 54 -24 81t-69 27q-44 0 -68 -27t-24 -81v-134q0 -54 24 -81t68 -27zM253 584
q-31 0 -55 8t-43.5 26t-36 48.5t-32.5 75.5l66 35l20 -40q19 -40 37 -53.5t44 -13.5q27 0 45.5 14t36.5 53l20 40l65 -35q-16 -45 -33 -75.5t-37 -48.5t-43.5 -26t-53.5 -8z" />
    <glyph glyph-name="Ohungarumlaut" unicode="&#x150;" horiz-adv-x="641" 
d="M320 -12q-84 0 -145 36.5t-95 116.5t-34 208q0 129 34 208.5t95 116t145 36.5q85 0 146 -36.5t94.5 -116t33.5 -208.5q0 -128 -33.5 -208t-94.5 -116.5t-146 -36.5zM320 98q46 0 77 19t48 56t17 89v174q0 53 -17 89.5t-48 55.5t-77 19q-44 0 -75.5 -19t-48.5 -55.5
t-17 -89.5v-174q0 -52 17 -89t48.5 -56t75.5 -19zM360 918l-119 -173l-67 32l89 189zM536 918l-118 -173l-67 32l89 189z" />
    <glyph glyph-name="ohungarumlaut" unicode="&#x151;" horiz-adv-x="507" 
d="M253 -12q-69 0 -118 29.5t-75 90t-26 153.5q0 94 26 154.5t75 89.5t118 29q70 0 119 -29t75 -89.5t26 -154.5q0 -93 -26 -153.5t-75 -90t-119 -29.5zM253 86q45 0 69 27t24 81v134q0 54 -24 81t-69 27q-44 0 -68 -27t-24 -81v-134q0 -54 24 -81t68 -27zM293 754
l-119 -173l-67 32l89 189zM469 754l-118 -173l-67 32l89 189z" />
    <glyph glyph-name="OE" unicode="&#x152;" horiz-adv-x="895" 
d="M844 0h-409q-25 -7 -53.5 -9.5t-55.5 -2.5q-86 0 -148.5 36.5t-97 116.5t-34.5 208q0 129 34.5 208.5t97 116t148.5 36.5q27 0 55.5 -2.5t53.5 -9.5h409v-109h-294v-182h257v-108h-257v-190h294v-109zM326 98q32 0 56 3t43 11v474q-19 8 -43 11t-56 3q-70 0 -108.5 -42.5
t-38.5 -121.5v-174q0 -79 38.5 -121.5t108.5 -42.5z" />
    <glyph glyph-name="oe" unicode="&#x153;" horiz-adv-x="816" 
d="M253 86q45 0 69 27t24 81v134q0 54 -24 81t-69 27q-44 0 -68 -27t-24 -81v-134q0 -54 24 -81t68 -27zM473 306h182v27q0 36 -10 60t-29.5 36t-49.5 12t-51 -12t-31.5 -36t-10.5 -60v-27zM582 -12q-36 0 -70.5 12t-60 35.5t-35.5 57.5h-13q-11 -52 -55 -78.5t-102 -26.5
q-66 0 -113.5 29.5t-73 90t-25.5 153.5q0 94 25.5 154.5t73 89.5t113.5 29q58 0 102 -26.5t55 -77.5h13q11 51 54.5 77.5t102.5 26.5q67 0 113.5 -29t71 -89.5t24.5 -154.5v-30h-309v-33q0 -52 29.5 -82.5t79.5 -30.5q43 0 72.5 19.5t50.5 53.5l66 -69q-29 -45 -75.5 -73
t-113.5 -28z" />
    <glyph glyph-name="Racute" unicode="&#x154;" horiz-adv-x="601" 
d="M197 275v-275h-125v698h289q61 0 102.5 -25.5t63 -72.5t21.5 -114q0 -78 -30 -130t-88 -71l127 -285h-135l-115 275h-110zM197 379h151q22 0 37.5 7.5t24 23.5t8.5 43v62q0 27 -8.5 43.5t-24 23.5t-37.5 7h-151v-210zM420 917l-119 -173l-73 35l88 190z" />
    <glyph glyph-name="racute" unicode="&#x155;" horiz-adv-x="357" 
d="M187 0h-122v522h122v-107h14q5 30 18 54.5t36.5 38.5t57.5 14h26v-122h-40q-38 0 -62.5 -8.5t-37 -26t-12.5 -48.5v-317zM332 754l-119 -173l-73 35l88 189z" />
    <glyph glyph-name="Rcommaaccent" unicode="&#x156;" horiz-adv-x="601" 
d="M197 275v-275h-125v698h289q61 0 102.5 -25.5t63 -72.5t21.5 -114q0 -78 -30 -130t-88 -71l127 -285h-135l-115 275h-110zM197 379h151q22 0 37.5 7.5t24 23.5t8.5 43v62q0 27 -8.5 43.5t-24 23.5t-37.5 7h-151v-210zM291 -50q30 0 47 -13t17 -39v-20q0 -44 -18.5 -82
t-45.5 -62h-74q23 22 37 43.5t20 48.5q-25 2 -36 15t-11 37v20q0 26 17 39t47 13z" />
    <glyph glyph-name="rcommaaccent" unicode="&#x157;" horiz-adv-x="357" 
d="M187 0h-122v522h122v-107h14q5 30 18 54.5t36.5 38.5t57.5 14h26v-122h-40q-38 0 -62.5 -8.5t-37 -26t-12.5 -48.5v-317zM125 -50q30 0 47 -13t17 -39v-20q0 -44 -18.5 -82t-45.5 -62h-74q23 22 37 43.5t20 48.5q-25 2 -36 15t-11 37v20q0 26 17 39t47 13z" />
    <glyph glyph-name="Rcaron" unicode="&#x158;" horiz-adv-x="601" 
d="M197 275v-275h-125v698h289q61 0 102.5 -25.5t63 -72.5t21.5 -114q0 -78 -30 -130t-88 -71l127 -285h-135l-115 275h-110zM197 379h151q22 0 37.5 7.5t24 23.5t8.5 43v62q0 27 -8.5 43.5t-24 23.5t-37.5 7h-151v-210zM340 754h-104l-121 157l61 48l112 -118l112 118
l61 -48z" />
    <glyph glyph-name="rcaron" unicode="&#x159;" horiz-adv-x="357" 
d="M187 0h-122v522h122v-107h14q5 30 18 54.5t36.5 38.5t57.5 14h26v-122h-40q-38 0 -62.5 -8.5t-37 -26t-12.5 -48.5v-317zM252 585h-104l-121 157l61 47l112 -118l112 118l61 -47z" />
    <glyph glyph-name="Sacute" unicode="&#x15a;" horiz-adv-x="547" 
d="M269 -12q-78 0 -137.5 29t-102.5 84l82 79q30 -40 70.5 -62t89.5 -22q56 0 84 25.5t28 76.5q0 27 -9 46t-27.5 31.5t-49.5 18.5l-61 12q-63 13 -104 38.5t-61 66t-20 97.5q0 66 27 111t78 68t124 23q74 0 128 -24.5t92 -76.5l-82 -77q-26 35 -59.5 52.5t-80.5 17.5
q-52 0 -77.5 -21t-25.5 -68q0 -26 9 -44t27.5 -29t46.5 -18l61 -13q68 -14 109 -38.5t60 -63.5t19 -98q0 -71 -28 -120.5t-81 -75t-129 -25.5zM410 917l-119 -173l-73 35l88 190z" />
    <glyph glyph-name="sacute" unicode="&#x15b;" horiz-adv-x="450" 
d="M224 -12q-65 0 -114.5 24t-85.5 70l74 72q25 -35 56.5 -53t71.5 -18q37 0 56.5 16t19.5 48q0 25 -12.5 39.5t-42.5 19.5l-49 9q-54 11 -88.5 29.5t-51 50t-16.5 76.5q0 82 48 122.5t136 40.5q41 0 73.5 -8.5t60 -26.5t49.5 -44l-71 -71q-20 25 -48 40t-64 15
q-34 0 -52 -15.5t-18 -47.5q0 -26 14 -39t44 -19l50 -9q82 -15 117.5 -50.5t35.5 -99.5q0 -54 -22.5 -92.5t-65.5 -58.5t-105 -20zM358 754l-119 -173l-73 35l88 189z" />
    <glyph glyph-name="Scircumflex" unicode="&#x15c;" horiz-adv-x="547" 
d="M269 -12q-78 0 -137.5 29t-102.5 84l82 79q30 -40 70.5 -62t89.5 -22q56 0 84 25.5t28 76.5q0 27 -9 46t-27.5 31.5t-49.5 18.5l-61 12q-63 13 -104 38.5t-61 66t-20 97.5q0 66 27 111t78 68t124 23q74 0 128 -24.5t92 -76.5l-82 -77q-26 35 -59.5 52.5t-80.5 17.5
q-52 0 -77.5 -21t-25.5 -68q0 -26 9 -44t27.5 -29t46.5 -18l61 -13q68 -14 109 -38.5t60 -63.5t19 -98q0 -71 -28 -120.5t-81 -75t-129 -25.5zM226 950h104l121 -157l-61 -48l-112 118l-112 -118l-61 48z" />
    <glyph glyph-name="scircumflex" unicode="&#x15d;" horiz-adv-x="450" 
d="M224 -12q-65 0 -114.5 24t-85.5 70l74 72q25 -35 56.5 -53t71.5 -18q37 0 56.5 16t19.5 48q0 25 -12.5 39.5t-42.5 19.5l-49 9q-54 11 -88.5 29.5t-51 50t-16.5 76.5q0 82 48 122.5t136 40.5q41 0 73.5 -8.5t60 -26.5t49.5 -44l-71 -71q-20 25 -48 40t-64 15
q-34 0 -52 -15.5t-18 -47.5q0 -26 14 -39t44 -19l50 -9q82 -15 117.5 -50.5t35.5 -99.5q0 -54 -22.5 -92.5t-65.5 -58.5t-105 -20zM174 787h104l121 -157l-61 -47l-112 118l-112 -118l-61 47z" />
    <glyph glyph-name="Scedilla" unicode="&#x15e;" horiz-adv-x="554" 
d="M281 602q-53 0 -78 -21t-25 -68q0 -26 8.5 -44t27.5 -29t47 -18l61 -13q68 -14 109 -38.5t60 -63.5t19 -98q0 -101 -55.5 -157.5t-157.5 -62.5l-10 -58h9q3 8 13 13.5t26 5.5q32 0 48 -18t16 -52q0 -31 -14 -51t-39.5 -29t-61.5 -9q-43 0 -68.5 12.5t-39.5 29.5l38 48
q10 -10 24 -17.5t37 -7.5q22 0 31.5 7t9.5 24t-9.5 24t-31.5 7h-48l13 71q-66 5 -118 33.5t-90 78.5l82 79q30 -40 70.5 -62t89.5 -22q56 0 84 25.5t28 76.5q0 27 -9 46t-27.5 31.5t-49.5 18.5l-61 12q-63 13 -104 38.5t-61 66t-20 97.5q0 66 27 111t78 68t124 23
q74 0 128 -24.5t92 -76.5l-82 -77q-26 35 -59.5 52.5t-80.5 17.5z" />
    <glyph glyph-name="scedilla" unicode="&#x15f;" horiz-adv-x="450" 
d="M235 -209q-43 0 -69 12.5t-39 29.5l38 48q9 -10 23.5 -17.5t37.5 -7.5q22 0 31.5 7t9.5 24t-9.5 24t-31.5 7h-49l14 72q-53 5 -94 28.5t-73 63.5l74 72q25 -35 56.5 -53t71.5 -18q37 0 56.5 16t19.5 48q0 25 -12.5 39.5t-42.5 19.5l-49 9q-54 11 -88.5 29.5t-51 50
t-16.5 76.5q0 82 48 122.5t136 40.5q41 0 73.5 -8.5t60 -26.5t49.5 -44l-71 -71q-20 25 -48 40t-64 15q-34 0 -52 -15.5t-18 -47.5q0 -26 14 -39t44 -19l50 -9q82 -15 117.5 -50.5t35.5 -99.5q0 -75 -44 -119.5t-125 -50.5l-10 -58h9q3 8 13 13.5t26 5.5q31 0 47 -18t16 -52
q0 -31 -14 -51t-39.5 -29t-60.5 -9z" />
    <glyph glyph-name="Scaron" unicode="&#x160;" horiz-adv-x="547" 
d="M269 -12q-78 0 -137.5 29t-102.5 84l82 79q30 -40 70.5 -62t89.5 -22q56 0 84 25.5t28 76.5q0 27 -9 46t-27.5 31.5t-49.5 18.5l-61 12q-63 13 -104 38.5t-61 66t-20 97.5q0 66 27 111t78 68t124 23q74 0 128 -24.5t92 -76.5l-82 -77q-26 35 -59.5 52.5t-80.5 17.5
q-52 0 -77.5 -21t-25.5 -68q0 -26 9 -44t27.5 -29t46.5 -18l61 -13q68 -14 109 -38.5t60 -63.5t19 -98q0 -71 -28 -120.5t-81 -75t-129 -25.5zM330 754h-104l-121 157l61 48l112 -118l112 118l61 -48z" />
    <glyph glyph-name="scaron" unicode="&#x161;" horiz-adv-x="450" 
d="M224 -12q-65 0 -114.5 24t-85.5 70l74 72q25 -35 56.5 -53t71.5 -18q37 0 56.5 16t19.5 48q0 25 -12.5 39.5t-42.5 19.5l-49 9q-54 11 -88.5 29.5t-51 50t-16.5 76.5q0 82 48 122.5t136 40.5q41 0 73.5 -8.5t60 -26.5t49.5 -44l-71 -71q-20 25 -48 40t-64 15
q-34 0 -52 -15.5t-18 -47.5q0 -26 14 -39t44 -19l50 -9q82 -15 117.5 -50.5t35.5 -99.5q0 -54 -22.5 -92.5t-65.5 -58.5t-105 -20zM278 585h-104l-121 157l61 47l112 -118l112 118l61 -47z" />
    <glyph glyph-name="uni0162" unicode="&#x162;" horiz-adv-x="524" 
d="M275 -209q-43 0 -68.5 12.5t-39.5 29.5l38 48q10 -10 24 -17.5t37 -7.5q22 0 31.5 7t9.5 24t-9.5 24t-31.5 7h-48l15 82h-33v589h-176v109h476v-109h-176v-589h-34l-12 -69h9q3 8 13 13.5t26 5.5q32 0 48 -18t16 -52q0 -31 -14 -51t-39.5 -29t-61.5 -9z" />
    <glyph glyph-name="uni0163" unicode="&#x163;" horiz-adv-x="335" 
d="M209 -209q-43 0 -69 12.5t-40 29.5l39 48q9 -10 23.5 -17.5t36.5 -7.5q23 0 32.5 7t9.5 24t-9.5 24t-32.5 7h-48l21 114l42 -32h-4q-62 0 -90.5 28t-28.5 89v309h-69v96h36q26 0 35.5 12t9.5 38v92h109v-142h94v-96h-94v-329h86v-97h-74l-13 -69h10q3 8 13 13.5t26 5.5
q31 0 47 -18t16 -52q0 -31 -14 -51t-39.5 -29t-60.5 -9z" />
    <glyph glyph-name="Tcaron" unicode="&#x164;" horiz-adv-x="524" 
d="M500 589h-176v-589h-124v589h-176v109h476v-109zM314 754h-104l-121 157l61 48l112 -118l112 118l61 -48z" />
    <glyph glyph-name="tcaron" unicode="&#x165;" horiz-adv-x="335" 
d="M298 0h-88q-62 0 -90.5 28t-28.5 89v309h-69v96h36q26 0 35.5 12t9.5 38v92h109v-142h94v-96h-94v-329h86v-97zM393 779l-58 -206h-72l8 206h122z" />
    <glyph glyph-name="Tbar" unicode="&#x166;" horiz-adv-x="530" 
d="M448 298h-124v-298h-124v298h-125v95h125v196h-176v109h476v-109h-176v-196h124v-95z" />
    <glyph glyph-name="tbar" unicode="&#x167;" horiz-adv-x="346" 
d="M298 97v-97h-88q-62 0 -90.5 28t-28.5 89v122h-56v75h56v112h-69v96h36q26 0 35.5 12t9.5 38v92h109v-142h94v-96h-94v-112h83v-75h-83v-142h86z" />
    <glyph glyph-name="Utilde" unicode="&#x168;" horiz-adv-x="624" 
d="M68 698h125v-453q0 -50 11 -82.5t37.5 -48.5t70.5 -16q45 0 71 16t37.5 48.5t11.5 82.5v453h124v-435q0 -96 -23.5 -157t-77 -89.5t-143.5 -28.5t-143.5 28.5t-77 89.5t-23.5 157v435zM383 770q-18 0 -32.5 4.5t-41.5 18.5q-26 14 -41 19t-27 5q-17 0 -27.5 -6.5
t-24.5 -19.5l-44 56q17 27 42 42.5t54 15.5q18 0 32.5 -4.5t41.5 -18.5q26 -13 41.5 -19t26.5 -6q17 0 27.5 7t24.5 20l44 -56q-17 -27 -42 -42.5t-54 -15.5z" />
    <glyph glyph-name="utilde" unicode="&#x169;" horiz-adv-x="532" 
d="M345 0v88h-14q-13 -43 -43 -71.5t-83 -28.5q-70 0 -107.5 48t-37.5 136v350h121v-330q0 -51 18.5 -77t57.5 -26q25 0 44.5 9.5t31.5 29t12 44.5v350h122v-522h-122zM334 606q-18 0 -32.5 4.5t-41.5 18.5q-26 14 -41 19t-27 5q-17 0 -27.5 -6t-24.5 -20l-44 56
q17 27 42 42.5t54 15.5q18 0 32.5 -4.5t41.5 -18.5q26 -13 41.5 -19t26.5 -6q17 0 27.5 7t24.5 20l44 -56q-17 -27 -42 -42.5t-54 -15.5z" />
    <glyph glyph-name="Umacron" unicode="&#x16a;" horiz-adv-x="624" 
d="M68 698h125v-453q0 -50 11 -82.5t37.5 -48.5t70.5 -16q45 0 71 16t37.5 48.5t11.5 82.5v453h124v-435q0 -96 -23.5 -157t-77 -89.5t-143.5 -28.5t-143.5 28.5t-77 89.5t-23.5 157v435zM177 792v92h270v-92h-270z" />
    <glyph glyph-name="umacron" unicode="&#x16b;" horiz-adv-x="532" 
d="M345 0v88h-14q-13 -43 -43 -71.5t-83 -28.5q-70 0 -107.5 48t-37.5 136v350h121v-330q0 -51 18.5 -77t57.5 -26q25 0 44.5 9.5t31.5 29t12 44.5v350h122v-522h-122zM128 628v92h270v-92h-270z" />
    <glyph glyph-name="Ubreve" unicode="&#x16c;" horiz-adv-x="624" 
d="M68 698h125v-453q0 -50 11 -82.5t37.5 -48.5t70.5 -16q45 0 71 16t37.5 48.5t11.5 82.5v453h124v-435q0 -96 -23.5 -157t-77 -89.5t-143.5 -28.5t-143.5 28.5t-77 89.5t-23.5 157v435zM312 748q-31 0 -55 7.5t-43.5 25.5t-36 48.5t-32.5 76.5l66 34l20 -40q19 -40 37 -53
t44 -13q27 0 45.5 14t36.5 52l20 40l65 -34q-21 -61 -44.5 -95.5t-53 -48.5t-69.5 -14z" />
    <glyph glyph-name="ubreve" unicode="&#x16d;" horiz-adv-x="532" 
d="M345 0v88h-14q-13 -43 -43 -71.5t-83 -28.5q-70 0 -107.5 48t-37.5 136v350h121v-330q0 -51 18.5 -77t57.5 -26q25 0 44.5 9.5t31.5 29t12 44.5v350h122v-522h-122zM263 584q-31 0 -55 8t-43.5 26t-36 48.5t-32.5 75.5l66 35l20 -40q19 -40 37 -53.5t44 -13.5
q27 0 45.5 14t36.5 53l20 40l65 -35q-16 -45 -33 -75.5t-37 -48.5t-43.5 -26t-53.5 -8z" />
    <glyph glyph-name="Uring" unicode="&#x16e;" horiz-adv-x="624" 
d="M68 698h125v-453q0 -50 11 -82.5t37.5 -48.5t70.5 -16q45 0 71 16t37.5 48.5t11.5 82.5v453h124v-435q0 -96 -23.5 -157t-77 -89.5t-143.5 -28.5t-143.5 28.5t-77 89.5t-23.5 157v435zM312 727q-41 0 -71 16.5t-46 47t-16 71.5t16 71.5t46 46.5t71 16t71 -16t46 -46.5
t16 -71.5t-16 -71.5t-46 -47t-71 -16.5zM312 792q24 0 38 11.5t14 34.5v48q0 23 -14 34.5t-38 11.5t-38 -11.5t-14 -34.5v-48q0 -23 14 -34.5t38 -11.5z" />
    <glyph glyph-name="uring" unicode="&#x16f;" horiz-adv-x="532" 
d="M345 0v88h-14q-13 -43 -43 -71.5t-83 -28.5q-70 0 -107.5 48t-37.5 136v350h121v-330q0 -51 18.5 -77t57.5 -26q25 0 44.5 9.5t31.5 29t12 44.5v350h122v-522h-122zM263 563q-41 0 -71 16.5t-46 47t-16 71.5q0 42 16.5 72t46 46.5t70.5 16.5t71 -16.5t46 -46.5t16 -72
q0 -41 -16 -71.5t-46 -47t-71 -16.5zM263 628q24 0 38 11.5t14 34.5v48q0 24 -14 35t-38 11t-38 -11t-14 -35v-48q0 -23 14 -34.5t38 -11.5z" />
    <glyph glyph-name="Uhungarumlaut" unicode="&#x170;" horiz-adv-x="624" 
d="M68 698h125v-453q0 -50 11 -82.5t37.5 -48.5t70.5 -16q45 0 71 16t37.5 48.5t11.5 82.5v453h124v-435q0 -96 -23.5 -157t-77 -89.5t-143.5 -28.5t-143.5 28.5t-77 89.5t-23.5 157v435zM352 918l-119 -173l-67 32l89 189zM528 918l-118 -173l-67 32l89 189z" />
    <glyph glyph-name="uhungarumlaut" unicode="&#x171;" horiz-adv-x="532" 
d="M345 0v88h-14q-13 -43 -43 -71.5t-83 -28.5q-70 0 -107.5 48t-37.5 136v350h121v-330q0 -51 18.5 -77t57.5 -26q25 0 44.5 9.5t31.5 29t12 44.5v350h122v-522h-122zM303 754l-119 -173l-67 32l89 189zM479 754l-118 -173l-67 32l89 189z" />
    <glyph glyph-name="Uogonek" unicode="&#x172;" horiz-adv-x="624" 
d="M68 698h125v-453q0 -50 11 -82.5t37.5 -48.5t70.5 -16q45 0 71 16t37.5 48.5t11.5 82.5v453h124v-435q0 -58 -8.5 -102t-27.5 -77t-49 -58q-46 -39 -71 -64t-35 -42t-10 -34q0 -13 8.5 -22t25.5 -9q16 0 28 7.5t20 17.5l42 -44q-16 -20 -43 -33.5t-59 -13.5
q-52 0 -79.5 20t-27.5 54q0 23 11.5 43t37 40.5t65.5 41.5l-1 8q-16 -4 -33.5 -6t-37.5 -2q-90 0 -143.5 28.5t-77 89.5t-23.5 157v435z" />
    <glyph glyph-name="uogonek" unicode="&#x173;" horiz-adv-x="532" 
d="M467 522v-522q-38 -24 -60 -42.5t-31.5 -35t-9.5 -34.5q0 -15 8.5 -24t25.5 -9q16 0 28 7.5t20 17.5l42 -44q-16 -20 -43 -33.5t-59 -13.5q-34 0 -57.5 9t-36.5 27t-13 43q0 40 34 70.5t92 53.5v8h-62v88h-14q-13 -43 -43 -71.5t-83 -28.5q-70 0 -107.5 48t-37.5 136v350
h121v-330q0 -51 18.5 -77t57.5 -26q25 0 44.5 9.5t31.5 29t12 44.5v350h122z" />
    <glyph glyph-name="Wcircumflex" unicode="&#x174;" horiz-adv-x="862" 
d="M315 0h-147l-143 698h124l74 -405l20 -159h14l20 156l85 408h142l85 -408l20 -156h15l20 159l73 405h120l-150 -698h-144l-86 416l-20 151h-14l-20 -151zM379 950h104l121 -157l-61 -48l-112 118l-112 -118l-61 48z" />
    <glyph glyph-name="wcircumflex" unicode="&#x175;" horiz-adv-x="739" 
d="M143 0l-127 522h119l51 -244l25 -168h12l30 168l58 244h122l59 -244l30 -168h12l25 168l53 244h112l-127 -522h-136l-61 254l-23 155h-13l-24 -155l-61 -254h-136zM318 787h104l121 -157l-61 -47l-112 118l-112 -118l-61 47z" />
    <glyph glyph-name="Ycircumflex" unicode="&#x176;" horiz-adv-x="566" 
d="M345 0h-124v267l-214 431h137l135 -300h14l132 300h134l-214 -431v-267zM232 950h104l121 -157l-61 -48l-112 118l-112 -118l-61 48z" />
    <glyph glyph-name="ycircumflex" unicode="&#x177;" horiz-adv-x="483" 
d="M277 241l76 281h121l-199 -631q-11 -36 -28.5 -55.5t-43 -27.5t-63.5 -8h-82v97h103l21 74l-174 551h123l78 -282l28 -137h12zM190 787h104l121 -157l-61 -47l-112 118l-112 -118l-61 47z" />
    <glyph glyph-name="Ydieresis" unicode="&#x178;" horiz-adv-x="566" 
d="M345 0h-124v267l-214 431h137l135 -300h14l132 300h134l-214 -431v-267zM191 773q-36 0 -51 14t-15 39v25q0 25 15 39t51 14t51 -14t15 -39v-25q0 -25 -15 -39t-51 -14zM377 773q-36 0 -51 14t-15 39v25q0 25 15 39t51 14t51 -14t15 -39v-25q0 -25 -15 -39t-51 -14z" />
    <glyph glyph-name="Zacute" unicode="&#x179;" 
d="M505 109v-109h-471v110l320 479h-304v109h446v-110l-320 -479h329zM404 917l-119 -173l-73 35l88 190z" />
    <glyph glyph-name="zacute" unicode="&#x17a;" horiz-adv-x="453" 
d="M418 0h-384v95l241 331h-233v96h370v-94l-242 -331h248v-97zM358 754l-119 -173l-73 35l88 189z" />
    <glyph glyph-name="Zdotaccent" unicode="&#x17b;" 
d="M505 109v-109h-471v110l320 479h-304v109h446v-110l-320 -479h329zM272 773q-37 0 -52.5 14.5t-15.5 39.5v23q0 25 15.5 39.5t52.5 14.5t52.5 -14.5t15.5 -39.5v-23q0 -25 -15.5 -39.5t-52.5 -14.5z" />
    <glyph glyph-name="zdotaccent" unicode="&#x17c;" horiz-adv-x="453" 
d="M418 0h-384v95l241 331h-233v96h370v-94l-242 -331h248v-97zM226 607q-37 0 -52.5 14.5t-15.5 39.5v23q0 24 15.5 39t52.5 15t52.5 -15t15.5 -39v-23q0 -25 -15.5 -39.5t-52.5 -14.5z" />
    <glyph glyph-name="Zcaron" unicode="&#x17d;" 
d="M505 109v-109h-471v110l320 479h-304v109h446v-110l-320 -479h329zM324 754h-104l-121 157l61 48l112 -118l112 118l61 -48z" />
    <glyph glyph-name="zcaron" unicode="&#x17e;" horiz-adv-x="453" 
d="M418 0h-384v95l241 331h-233v96h370v-94l-242 -331h248v-97zM278 585h-104l-121 157l61 47l112 -118l112 118l61 -47z" />
    <glyph glyph-name="uni017F" unicode="&#x17f;" horiz-adv-x="277" 
d="M90 0v426h-68v96h68v81q0 70 32 103.5t98 33.5h88v-97h-96v-643h-122z" />
    <glyph glyph-name="uni018F" unicode="&#x18f;" horiz-adv-x="642" 
d="M46 386h415v30q0 98 -33.5 141.5t-106.5 43.5q-62 0 -95 -30t-48 -90l-110 39q16 57 48.5 99.5t83 66.5t121.5 24q84 0 146 -36.5t95.5 -116t33.5 -208.5q0 -128 -33.5 -208t-95.5 -116.5t-146 -36.5t-145.5 36.5t-95.5 116.5t-34 208v37zM180 286v-13q0 -60 14.5 -99.5
t46 -58t80.5 -18.5q50 0 81 18.5t45.5 58t14.5 99.5v13h-282z" />
    <glyph glyph-name="florin" unicode="&#x192;" horiz-adv-x="436" 
d="M4 -134l9 97h108l27 309h-101l11 101h101l18 204q5 60 36.5 90.5t99.5 30.5h110l-10 -97h-114l-20 -228h121l-11 -101h-120l-25 -285q-6 -60 -36.5 -90.5t-98.5 -30.5h-105z" />
    <glyph glyph-name="Ohorn" unicode="&#x1a0;" horiz-adv-x="641" 
d="M517 804h99v-104q0 -47 -16.5 -64.5t-67.5 -17.5h-95v-12q56 -6 90.5 -35t50.5 -83.5t16 -138.5q0 -128 -33.5 -208t-94.5 -116.5t-146 -36.5q-84 0 -145 36.5t-95 116.5t-34 208q0 129 34 208.5t95 116t145 36.5q25 0 47.5 -3t42.5 -9h107v106zM320 98q46 0 77 19t48 56
t17 89v174q0 53 -17 89.5t-48 55.5t-77 19q-44 0 -75.5 -19t-48.5 -55.5t-17 -89.5v-174q0 -52 17 -89t48.5 -56t75.5 -19z" />
    <glyph glyph-name="ohorn" unicode="&#x1a1;" horiz-adv-x="507" 
d="M404 627h99v-103q0 -34 -19 -52.5t-64 -18.5h-73v-12q48 -3 75.5 -29.5t39 -67t11.5 -83.5q0 -93 -26 -153.5t-75 -90t-119 -29.5q-69 0 -118 29.5t-75 90t-26 153.5q0 94 26 154.5t75 89.5t118 29q23 0 43 -3t38 -9h70v105zM253 86q45 0 69 27t24 81v134q0 54 -24 81
t-69 27q-44 0 -68 -27t-24 -81v-134q0 -54 24 -81t68 -27z" />
    <glyph glyph-name="Uhorn" unicode="&#x1af;" horiz-adv-x="635" 
d="M68 698h125v-453q0 -50 11 -82.5t37.5 -48.5t70.5 -16q45 0 71 16t37.5 48.5t11.5 82.5v453h102v106h99v-104q0 -28 -6.5 -45t-24 -24.5t-50.5 -7.5h-22l26 30v-390q0 -96 -23.5 -157t-77 -89.5t-143.5 -28.5t-143.5 28.5t-77 89.5t-23.5 157v435z" />
    <glyph glyph-name="uhorn" unicode="&#x1b0;" horiz-adv-x="542" 
d="M467 0h-122v88h-14q-13 -43 -43 -71.5t-83 -28.5q-70 0 -107.5 48t-37.5 136v350h121v-330q0 -51 18.5 -77t57.5 -26q25 0 44.5 9.5t31.5 29t12 44.5v350h101v105h99v-103q0 -26 -6 -43t-23 -25.5t-52 -8.5h-25l28 30v-477z" />
    <glyph glyph-name="uni01CD" unicode="&#x1cd;" horiz-adv-x="606" 
d="M586 0h-123l-49 182h-225l-49 -182h-120l204 698h158zM384 283l-54 191l-22 111h-14l-22 -111l-53 -191h165zM356 754h-104l-121 157l61 48l112 -118l112 118l61 -48z" />
    <glyph glyph-name="uni01CE" unicode="&#x1ce;" horiz-adv-x="506" 
d="M479 0h-73q-24 0 -43.5 9t-31 31.5t-11.5 60.5v16l25 -28h-36q-10 -47 -45 -74t-87 -27q-71 0 -107.5 40.5t-36.5 111.5q0 54 23 90.5t67 54t108 17.5h81v45q0 46 -19.5 68t-64.5 22q-37 0 -62 -18t-44 -49l-71 64q28 46 73.5 73t113.5 27q98 0 146.5 -46.5t48.5 -137.5
v-253h46v-97zM312 227h-73q-43 0 -63.5 -17t-20.5 -48v-22q0 -33 18 -48t50 -15q25 0 45 10t32 28t12 43v69zM291 585h-104l-121 157l61 47l112 -118l112 118l61 -47z" />
    <glyph glyph-name="uni01CF" unicode="&#x1cf;" horiz-adv-x="387" 
d="M339 0h-292v99h84v500h-84v99h292v-99h-83v-500h83v-99zM246 754h-104l-121 157l61 48l112 -118l112 118l61 -48z" />
    <glyph glyph-name="uni01D0" unicode="&#x1d0;" horiz-adv-x="252" 
d="M187 0h-122v522h122v-522zM178 585h-104l-106 157l61 47l97 -118l97 118l61 -47z" />
    <glyph glyph-name="uni01D1" unicode="&#x1d1;" horiz-adv-x="641" 
d="M320 -12q-84 0 -145 36.5t-95 116.5t-34 208q0 129 34 208.5t95 116t145 36.5q85 0 146 -36.5t94.5 -116t33.5 -208.5q0 -128 -33.5 -208t-94.5 -116.5t-146 -36.5zM320 98q46 0 77 19t48 56t17 89v174q0 53 -17 89.5t-48 55.5t-77 19q-44 0 -75.5 -19t-48.5 -55.5
t-17 -89.5v-174q0 -52 17 -89t48.5 -56t75.5 -19zM372 754h-104l-121 157l61 48l112 -118l112 118l61 -48z" />
    <glyph glyph-name="uni01D2" unicode="&#x1d2;" horiz-adv-x="507" 
d="M253 -12q-69 0 -118 29.5t-75 90t-26 153.5q0 94 26 154.5t75 89.5t118 29q70 0 119 -29t75 -89.5t26 -154.5q0 -93 -26 -153.5t-75 -90t-119 -29.5zM253 86q45 0 69 27t24 81v134q0 54 -24 81t-69 27q-44 0 -68 -27t-24 -81v-134q0 -54 24 -81t68 -27zM305 585h-104
l-121 157l61 47l112 -118l112 118l61 -47z" />
    <glyph glyph-name="uni01D3" unicode="&#x1d3;" horiz-adv-x="624" 
d="M68 698h125v-453q0 -50 11 -82.5t37.5 -48.5t70.5 -16q45 0 71 16t37.5 48.5t11.5 82.5v453h124v-435q0 -96 -23.5 -157t-77 -89.5t-143.5 -28.5t-143.5 28.5t-77 89.5t-23.5 157v435zM364 754h-104l-121 157l61 48l112 -118l112 118l61 -48z" />
    <glyph glyph-name="uni01D4" unicode="&#x1d4;" horiz-adv-x="532" 
d="M345 0v88h-14q-13 -43 -43 -71.5t-83 -28.5q-70 0 -107.5 48t-37.5 136v350h121v-330q0 -51 18.5 -77t57.5 -26q25 0 44.5 9.5t31.5 29t12 44.5v350h122v-522h-122zM315 585h-104l-121 157l61 47l112 -118l112 118l61 -47z" />
    <glyph glyph-name="uni01D5" unicode="&#x1d5;" horiz-adv-x="624" 
d="M68 698h125v-453q0 -50 11 -82.5t37.5 -48.5t70.5 -16q45 0 71 16t37.5 48.5t11.5 82.5v453h124v-435q0 -96 -23.5 -157t-77 -89.5t-143.5 -28.5t-143.5 28.5t-77 89.5t-23.5 157v435zM177 938v92h270v-92h-270zM218 754q-37 0 -51.5 13.5t-14.5 37.5v28q0 24 14.5 38
t51.5 14q36 0 51 -14t15 -38v-28q0 -24 -15 -37.5t-51 -13.5zM406 754q-36 0 -51 13.5t-15 37.5v28q0 24 15 38t52 14q36 0 50.5 -14t14.5 -38v-28q0 -24 -15 -37.5t-51 -13.5z" />
    <glyph glyph-name="uni01D6" unicode="&#x1d6;" horiz-adv-x="532" 
d="M345 0v88h-14q-13 -43 -43 -71.5t-83 -28.5q-70 0 -107.5 48t-37.5 136v350h121v-330q0 -51 18.5 -77t57.5 -26q25 0 44.5 9.5t31.5 29t12 44.5v350h122v-522h-122zM128 775v92h270v-92h-270zM169 590q-36 0 -51 14t-15 38v28q0 24 15 37.5t51 13.5t51 -13.5t15 -37.5
v-28q0 -24 -15 -38t-51 -14zM357 590q-36 0 -51 14t-15 38v28q0 24 15 37.5t51 13.5q37 0 51.5 -13.5t14.5 -37.5v-28q0 -24 -14.5 -38t-51.5 -14z" />
    <glyph glyph-name="uni01D7" unicode="&#x1d7;" horiz-adv-x="624" 
d="M68 698h125v-453q0 -50 11 -82.5t37.5 -48.5t70.5 -16q45 0 71 16t37.5 48.5t11.5 82.5v453h124v-435q0 -96 -23.5 -157t-77 -89.5t-143.5 -28.5t-143.5 28.5t-77 89.5t-23.5 157v435zM439 1057l-115 -171l-65 35l84 187zM218 754q-37 0 -51.5 13.5t-14.5 37.5v28
q0 24 14.5 38t51.5 14q36 0 51 -14t15 -38v-28q0 -24 -15 -37.5t-51 -13.5zM406 754q-36 0 -51 13.5t-15 37.5v28q0 24 15 38t52 14q36 0 50.5 -14t14.5 -38v-28q0 -24 -15 -37.5t-51 -13.5z" />
    <glyph glyph-name="uni01D8" unicode="&#x1d8;" horiz-adv-x="532" 
d="M345 0v88h-14q-13 -43 -43 -71.5t-83 -28.5q-70 0 -107.5 48t-37.5 136v350h121v-330q0 -51 18.5 -77t57.5 -26q25 0 44.5 9.5t31.5 29t12 44.5v350h122v-522h-122zM390 894l-115 -171l-65 35l84 186zM169 590q-36 0 -51 14t-15 38v28q0 24 15 37.5t51 13.5t51 -13.5
t15 -37.5v-28q0 -24 -15 -38t-51 -14zM357 590q-36 0 -51 14t-15 38v28q0 24 15 37.5t51 13.5q37 0 51.5 -13.5t14.5 -37.5v-28q0 -24 -14.5 -38t-51.5 -14z" />
    <glyph glyph-name="uni01D9" unicode="&#x1d9;" horiz-adv-x="624" 
d="M68 698h125v-453q0 -50 11 -82.5t37.5 -48.5t70.5 -16q45 0 71 16t37.5 48.5t11.5 82.5v453h124v-435q0 -96 -23.5 -157t-77 -89.5t-143.5 -28.5t-143.5 28.5t-77 89.5t-23.5 157v435zM364 911h-103l-124 148l56 49l120 -116l119 116l57 -49zM218 754q-37 0 -51.5 13.5
t-14.5 37.5v28q0 24 14.5 38t51.5 14q36 0 51 -14t15 -38v-28q0 -24 -15 -37.5t-51 -13.5zM406 754q-36 0 -51 13.5t-15 37.5v28q0 24 15 38t52 14q36 0 50.5 -14t14.5 -38v-28q0 -24 -15 -37.5t-51 -13.5z" />
    <glyph glyph-name="uni01DA" unicode="&#x1da;" horiz-adv-x="532" 
d="M345 0v88h-14q-13 -43 -43 -71.5t-83 -28.5q-70 0 -107.5 48t-37.5 136v350h121v-330q0 -51 18.5 -77t57.5 -26q25 0 44.5 9.5t31.5 29t12 44.5v350h122v-522h-122zM315 748h-103l-124 148l56 49l120 -117l119 117l57 -49zM169 590q-36 0 -51 14t-15 38v28q0 24 15 37.5
t51 13.5t51 -13.5t15 -37.5v-28q0 -24 -15 -38t-51 -14zM357 590q-36 0 -51 14t-15 38v28q0 24 15 37.5t51 13.5q37 0 51.5 -13.5t14.5 -37.5v-28q0 -24 -14.5 -38t-51.5 -14z" />
    <glyph glyph-name="uni01DB" unicode="&#x1db;" horiz-adv-x="624" 
d="M68 698h125v-453q0 -50 11 -82.5t37.5 -48.5t70.5 -16q45 0 71 16t37.5 48.5t11.5 82.5v453h124v-435q0 -96 -23.5 -157t-77 -89.5t-143.5 -28.5t-143.5 28.5t-77 89.5t-23.5 157v435zM300 886l-114 171l96 51l83 -187zM218 754q-37 0 -51.5 13.5t-14.5 37.5v28
q0 24 14.5 38t51.5 14q36 0 51 -14t15 -38v-28q0 -24 -15 -37.5t-51 -13.5zM406 754q-36 0 -51 13.5t-15 37.5v28q0 24 15 38t52 14q36 0 50.5 -14t14.5 -38v-28q0 -24 -15 -37.5t-51 -13.5z" />
    <glyph glyph-name="uni01DC" unicode="&#x1dc;" horiz-adv-x="532" 
d="M345 0v88h-14q-13 -43 -43 -71.5t-83 -28.5q-70 0 -107.5 48t-37.5 136v350h121v-330q0 -51 18.5 -77t57.5 -26q25 0 44.5 9.5t31.5 29t12 44.5v350h122v-522h-122zM251 723l-114 171l96 50l83 -186zM169 590q-36 0 -51 14t-15 38v28q0 24 15 37.5t51 13.5t51 -13.5
t15 -37.5v-28q0 -24 -15 -38t-51 -14zM357 590q-36 0 -51 14t-15 38v28q0 24 15 37.5t51 13.5q37 0 51.5 -13.5t14.5 -37.5v-28q0 -24 -14.5 -38t-51.5 -14z" />
    <glyph glyph-name="Aringacute" unicode="&#x1fa;" horiz-adv-x="606" 
d="M586 0h-123l-49 182h-225l-49 -182h-120l204 698h158zM384 283l-54 191l-22 111h-14l-22 -111l-53 -191h165zM426 1082l-132 -104l-44 42l112 123zM304 728q-62 0 -97.5 31.5t-35.5 87.5t35.5 87t97.5 31t97.5 -31t35.5 -87t-35.5 -87.5t-97.5 -31.5zM304 789
q24 0 39.5 12t15.5 33v26q0 21 -15.5 33t-39.5 12t-39.5 -12t-15.5 -33v-26q0 -21 15.5 -33t39.5 -12z" />
    <glyph glyph-name="aringacute" unicode="&#x1fb;" horiz-adv-x="506" 
d="M479 0h-73q-24 0 -43.5 9t-31 31.5t-11.5 60.5v16l25 -28h-36q-10 -47 -45 -74t-87 -27q-71 0 -107.5 40.5t-36.5 111.5q0 54 23 90.5t67 54t108 17.5h81v45q0 46 -19.5 68t-64.5 22q-37 0 -62 -18t-44 -49l-71 64q28 46 73.5 73t113.5 27q98 0 146.5 -46.5t48.5 -137.5
v-253h46v-97zM312 227h-73q-43 0 -63.5 -17t-20.5 -48v-22q0 -33 18 -48t50 -15q25 0 45 10t32 28t12 43v69zM361 919l-132 -104l-44 41l112 123zM239 565q-62 0 -97.5 31t-35.5 87t35.5 87.5t97.5 31.5t97.5 -31.5t35.5 -87.5t-35.5 -87t-97.5 -31zM239 625q24 0 39.5 12
t15.5 33v26q0 21 -15.5 33t-39.5 12t-39.5 -12t-15.5 -33v-26q0 -21 15.5 -33t39.5 -12z" />
    <glyph glyph-name="AEacute" unicode="&#x1fc;" horiz-adv-x="859" 
d="M389 0v182h-186l-76 -182h-126l304 698h502v-109h-294v-182h258v-108h-258v-190h294v-109h-418zM389 589h-15l-129 -307h144v307zM660 917l-119 -173l-73 35l88 190z" />
    <glyph glyph-name="aeacute" unicode="&#x1fd;" horiz-adv-x="783" 
d="M317 230h-78q-43 0 -63.5 -18.5t-20.5 -49.5v-22q0 -33 18 -48t50 -15q25 0 46.5 10t34.5 28t13 43v72zM439 304h183v29q0 36 -10 60t-30 36t-50 12t-51 -12t-31.5 -36t-10.5 -60v-29zM549 85q43 0 72.5 19.5t50.5 53.5l65 -69q-29 -45 -75.5 -73t-112.5 -28
q-40 0 -76.5 13t-62 37t-33.5 57h-15q-8 -31 -31.5 -55.5t-60.5 -38t-86 -13.5q-75 0 -113 40.5t-38 111.5q0 55 23 91.5t67 54.5t108 18h86v43q0 45 -22 67.5t-67 22.5q-37 0 -62 -18t-44 -49l-71 64q28 45 72 72.5t108 27.5q32 0 61.5 -10.5t51.5 -34t28 -62.5h12
q8 35 29.5 59t54.5 36t71 12q67 0 113.5 -29.5t71 -90.5t24.5 -155v-29h-309v-32q0 -52 29.5 -82.5t80.5 -30.5zM524 754l-119 -173l-73 35l88 189z" />
    <glyph glyph-name="Oslashacute" unicode="&#x1fe;" horiz-adv-x="641" 
d="M320 -12q-41 0 -77 9t-66 27l-45 -74l-77 48l54 90q-31 44 -47 108.5t-16 152.5q0 129 34 208.5t95 116t145 36.5q42 0 78 -9t66 -27l45 74l77 -48l-54 -89q30 -43 46 -108t16 -154q0 -128 -33.5 -208t-94.5 -116.5t-146 -36.5zM320 607q-47 0 -79.5 -19.5t-50 -57
t-17.5 -91.5v-142q-2 -24 -3 -56.5t-2 -54.5h15l132 230l98 162q-17 14 -40.5 21.5t-52.5 7.5zM320 91q48 0 80.5 19.5t50 57t17.5 91.5v147q2 25 3 54.5t2 51.5h-15l-132 -230l-99 -162q19 -14 42 -21.5t51 -7.5zM452 917l-119 -173l-73 35l88 190z" />
    <glyph glyph-name="oslashacute" unicode="&#x1ff;" horiz-adv-x="512" 
d="M78 -44l-63 48l57 77q-18 33 -28 78t-10 102q0 94 26 154.5t75 89.5t118 29q38 0 69 -8.5t56 -25.5l51 67l63 -49l-58 -78q19 -32 29 -77t10 -102q0 -93 -26 -153.5t-75 -90t-119 -29.5q-36 0 -67.5 8t-56.5 26zM253 81q48 0 72.5 27t24.5 81v55q2 20 3.5 36t3.5 31.5
t3 35.5h-11l-76 -118l-89 -123q12 -12 29.5 -18.5t39.5 -6.5zM253 441q-46 0 -71 -27t-25 -81v-55q-2 -19 -3.5 -35l-3 -32t-4.5 -36h11l77 118l89 124q-12 12 -29.5 18t-40.5 6zM388 754l-119 -173l-73 35l88 189z" />
    <glyph glyph-name="Scommaaccent" unicode="&#x218;" horiz-adv-x="547" 
d="M269 -12q-78 0 -137.5 29t-102.5 84l82 79q30 -40 70.5 -62t89.5 -22q56 0 84 25.5t28 76.5q0 27 -9 46t-27.5 31.5t-49.5 18.5l-61 12q-63 13 -104 38.5t-61 66t-20 97.5q0 66 27 111t78 68t124 23q74 0 128 -24.5t92 -76.5l-82 -77q-26 35 -59.5 52.5t-80.5 17.5
q-52 0 -77.5 -21t-25.5 -68q0 -26 9 -44t27.5 -29t46.5 -18l61 -13q68 -14 109 -38.5t60 -63.5t19 -98q0 -71 -28 -120.5t-81 -75t-129 -25.5zM267 -50q30 0 47 -13t17 -39v-20q0 -44 -18.5 -82t-45.5 -62h-74q23 22 37 43.5t20 48.5q-25 2 -36 15t-11 37v20q0 26 17 39
t47 13z" />
    <glyph glyph-name="scommaaccent" unicode="&#x219;" horiz-adv-x="450" 
d="M224 -12q-65 0 -114.5 24t-85.5 70l74 72q25 -35 56.5 -53t71.5 -18q37 0 56.5 16t19.5 48q0 25 -12.5 39.5t-42.5 19.5l-49 9q-54 11 -88.5 29.5t-51 50t-16.5 76.5q0 82 48 122.5t136 40.5q41 0 73.5 -8.5t60 -26.5t49.5 -44l-71 -71q-20 25 -48 40t-64 15
q-34 0 -52 -15.5t-18 -47.5q0 -26 14 -39t44 -19l50 -9q82 -15 117.5 -50.5t35.5 -99.5q0 -54 -22.5 -92.5t-65.5 -58.5t-105 -20zM225 -50q30 0 47 -13t17 -39v-20q0 -44 -18.5 -82t-45.5 -62h-74q23 22 37 43.5t20 48.5q-25 2 -36 15t-11 37v20q0 26 17 39t47 13z" />
    <glyph glyph-name="uni021A" unicode="&#x21a;" horiz-adv-x="524" 
d="M500 589h-176v-589h-124v589h-176v109h476v-109zM261 -50q30 0 47 -13t17 -39v-20q0 -44 -18.5 -82t-45.5 -62h-74q23 22 37 43.5t20 48.5q-25 2 -36 15t-11 37v20q0 26 17 39t47 13z" />
    <glyph glyph-name="uni021B" unicode="&#x21b;" horiz-adv-x="335" 
d="M298 0h-88q-62 0 -90.5 28t-28.5 89v309h-69v96h36q26 0 35.5 12t9.5 38v92h109v-142h94v-96h-94v-329h86v-97zM195 -50q30 0 47 -13t17 -39v-20q0 -44 -18.5 -82t-45.5 -62h-74q23 22 37 43.5t20 48.5q-25 2 -36 15t-11 37v20q0 26 17 39t47 13z" />
    <glyph glyph-name="uni0237" unicode="&#x237;" horiz-adv-x="255" 
d="M-4 -200v97h72v625h121v-600q0 -62 -29 -92t-95 -30h-69z" />
    <glyph glyph-name="uni0259" unicode="&#x259;" horiz-adv-x="504" 
d="M34 291h309v33q0 54 -29 83.5t-80 29.5q-43 0 -72 -19t-51 -54l-65 70q29 46 77.5 73t117.5 27t120.5 -29.5t80 -89.5t28.5 -153q0 -94 -26 -154.5t-75 -90t-118 -29.5t-117.5 29.5t-74 90t-25.5 154.5v29zM161 216v-26q0 -36 10 -60.5t30.5 -36.5t49.5 -12q30 0 50.5 12
t31 36.5t10.5 60.5v26h-182z" />
    <glyph glyph-name="uni02BB" unicode="&#x2bb;" 
d="M270 582q-31 0 -47.5 13t-16.5 40v19q0 45 19 82.5t45 62.5h74q-22 -22 -36 -43.5t-21 -49.5q26 -1 36.5 -14t10.5 -38v-19q0 -27 -16.5 -40t-47.5 -13z" />
    <glyph glyph-name="uni02BC" unicode="&#x2bc;" 
d="M400 740l-58 -206h-72l8 206h122z" />
    <glyph glyph-name="circumflex" unicode="&#x2c6;" 
d="M218 787h104l121 -157l-61 -47l-112 118l-112 -118l-61 47z" />
    <glyph glyph-name="caron" unicode="&#x2c7;" 
d="M322 585h-104l-121 157l61 47l112 -118l112 118l61 -47z" />
    <glyph glyph-name="breve" unicode="&#x2d8;" 
d="M270 584q-31 0 -55 8t-43.5 26t-36 48.5t-32.5 75.5l66 35l20 -40q19 -40 37 -53.5t44 -13.5q27 0 45.5 14t36.5 53l20 40l65 -35q-16 -45 -33 -75.5t-37 -48.5t-43.5 -26t-53.5 -8z" />
    <glyph glyph-name="dotaccent" unicode="&#x2d9;" 
d="M270 607q-37 0 -52.5 14.5t-15.5 39.5v23q0 24 15.5 39t52.5 15t52.5 -15t15.5 -39v-23q0 -25 -15.5 -39.5t-52.5 -14.5z" />
    <glyph glyph-name="ring" unicode="&#x2da;" 
d="M270 563q-41 0 -71 16.5t-46 47t-16 71.5q0 42 16.5 72t46 46.5t70.5 16.5t71 -16.5t46 -46.5t16 -72q0 -41 -16 -71.5t-46 -47t-71 -16.5zM270 628q24 0 38 11.5t14 34.5v48q0 24 -14 35t-38 11t-38 -11t-14 -35v-48q0 -23 14 -34.5t38 -11.5z" />
    <glyph glyph-name="ogonek" unicode="&#x2db;" 
d="M191 -211q-33 0 -57 9t-37 27t-13 43q0 40 32 70.5t84 53.5v30h61l9 -22q-38 -24 -60 -42.5t-31.5 -35t-9.5 -34.5q0 -15 9 -24t26 -9q16 0 27.5 7.5t19.5 17.5l43 -44q-17 -20 -44 -33.5t-59 -13.5z" />
    <glyph glyph-name="tilde" unicode="&#x2dc;" 
d="M341 606q-18 0 -32.5 4.5t-41.5 18.5q-26 14 -41 19t-27 5q-17 0 -27.5 -6t-24.5 -20l-44 56q17 27 42 42.5t54 15.5q18 0 32.5 -4.5t41.5 -18.5q26 -13 41.5 -19t26.5 -6q17 0 27.5 7t24.5 20l44 -56q-17 -27 -42 -42.5t-54 -15.5z" />
    <glyph glyph-name="hungarumlaut" unicode="&#x2dd;" 
d="M310 754l-119 -173l-67 32l89 189zM486 754l-118 -173l-67 32l89 189z" />
    <glyph glyph-name="uni0300" unicode="&#x300;" horiz-adv-x="0" 
d="M-13 581l-119 173l104 51l88 -189z" />
    <glyph glyph-name="uni0301" unicode="&#x301;" horiz-adv-x="0" 
d="M132 754l-119 -173l-73 35l88 189z" />
    <glyph glyph-name="uni0302" unicode="&#x302;" horiz-adv-x="0" 
d="M-52 787h104l121 -157l-61 -47l-112 118l-112 -118l-61 47z" />
    <glyph glyph-name="uni0303" unicode="&#x303;" horiz-adv-x="0" 
d="M71 606q-18 0 -32.5 4.5t-41.5 18.5q-26 14 -41 19t-27 5q-17 0 -27.5 -6t-24.5 -20l-44 56q17 27 42 42.5t54 15.5q18 0 32.5 -4.5t41.5 -18.5q26 -13 41.5 -19t26.5 -6q17 0 27.5 7t24.5 20l44 -56q-17 -27 -42 -42.5t-54 -15.5z" />
    <glyph glyph-name="uni0304" unicode="&#x304;" horiz-adv-x="0" 
d="M-135 628v92h270v-92h-270z" />
    <glyph glyph-name="uni0306" unicode="&#x306;" horiz-adv-x="0" 
d="M0 584q-31 0 -55 8t-43.5 26t-36 48.5t-32.5 75.5l66 35l20 -40q19 -40 37 -53.5t44 -13.5q27 0 45.5 14t36.5 53l20 40l65 -35q-16 -45 -33 -75.5t-37 -48.5t-43.5 -26t-53.5 -8z" />
    <glyph glyph-name="uni0307" unicode="&#x307;" horiz-adv-x="0" 
d="M0 607q-37 0 -52.5 14.5t-15.5 39.5v23q0 24 15.5 39t52.5 15t52.5 -15t15.5 -39v-23q0 -25 -15.5 -39.5t-52.5 -14.5z" />
    <glyph glyph-name="uni0308" unicode="&#x308;" horiz-adv-x="0" 
d="M-93 607q-36 0 -51 14t-15 39v26q0 24 15 38t51 14t51 -14t15 -38v-26q0 -25 -15 -39t-51 -14zM93 607q-36 0 -51 14t-15 39v26q0 24 15 38t51 14t51 -14t15 -38v-26q0 -25 -15 -39t-51 -14z" />
    <glyph glyph-name="uni0309" unicode="&#x309;" horiz-adv-x="0" 
d="M-102 702v89h130q44 0 62.5 -17t18.5 -50q0 -26 -9.5 -47t-30.5 -51l-38 -55l-65 30l45 101h-113z" />
    <glyph glyph-name="uni030A" unicode="&#x30a;" horiz-adv-x="0" 
d="M0 563q-41 0 -71 16.5t-46 47t-16 71.5q0 42 16.5 72t46 46.5t70.5 16.5t71 -16.5t46 -46.5t16 -72q0 -41 -16 -71.5t-46 -47t-71 -16.5zM0 628q24 0 38 11.5t14 34.5v48q0 24 -14 35t-38 11t-38 -11t-14 -35v-48q0 -23 14 -34.5t38 -11.5z" />
    <glyph glyph-name="uni030B" unicode="&#x30b;" horiz-adv-x="0" 
d="M40 754l-119 -173l-67 32l89 189zM216 754l-118 -173l-67 32l89 189z" />
    <glyph glyph-name="uni030C" unicode="&#x30c;" horiz-adv-x="0" 
d="M52 585h-104l-121 157l61 47l112 -118l112 118l61 -47z" />
    <glyph glyph-name="uni0312" unicode="&#x312;" horiz-adv-x="0" 
d="M0 582q-31 0 -47.5 13t-16.5 40v19q0 45 19 82.5t45 62.5h74q-22 -22 -36 -43.5t-21 -49.5q26 -1 36.5 -14t10.5 -38v-19q0 -27 -16.5 -40t-47.5 -13z" />
    <glyph glyph-name="uni0315" unicode="&#x315;" horiz-adv-x="0" 
d="M130 740l-58 -206h-72l8 206h122z" />
    <glyph glyph-name="uni031B" unicode="&#x31b;" horiz-adv-x="0" 
d="M104 627v-103q0 -43 -17 -60t-67 -17h-124v75h109v105h99z" />
    <glyph glyph-name="uni0323" unicode="&#x323;" horiz-adv-x="0" 
d="M0 -189q-37 0 -52.5 14t-15.5 38v26q0 24 15.5 38.5t52.5 14.5t52.5 -14.5t15.5 -38.5v-26q0 -24 -15.5 -38t-52.5 -14z" />
    <glyph glyph-name="uni0326" unicode="&#x326;" horiz-adv-x="0" 
d="M-1 -50q30 0 47 -13t17 -39v-20q0 -44 -18.5 -82t-45.5 -62h-74q23 22 37 43.5t20 48.5q-25 2 -36 15t-11 37v20q0 26 17 39t47 13z" />
    <glyph glyph-name="uni0327" unicode="&#x327;" horiz-adv-x="0" 
d="M13 -209q-43 0 -69 12.5t-39 29.5l38 48q9 -10 23.5 -17.5t37.5 -7.5q22 0 31.5 7t9.5 24t-9.5 24t-31.5 7h-49l20 106h58l-17 -93h9q3 8 13 13.5t26 5.5q31 0 47.5 -18t16.5 -52q0 -31 -14 -51t-40 -29t-61 -9z" />
    <glyph glyph-name="uni0328" unicode="&#x328;" horiz-adv-x="0" 
d="M-79 -211q-33 0 -57 9t-37 27t-13 43q0 40 32 70.5t84 53.5v30h61l9 -22q-38 -24 -60 -42.5t-31.5 -35t-9.5 -34.5q0 -15 9 -24t26 -9q16 0 27.5 7.5t19.5 17.5l43 -44q-17 -20 -44 -33.5t-59 -13.5z" />
    <glyph glyph-name="uni037E" unicode="&#x37e;" horiz-adv-x="290" 
d="M146 144q38 0 56.5 -17.5t18.5 -48.5v-23q0 -54 -25.5 -107.5t-69.5 -88.5h-83q32 32 53 62.5t31 68.5q-29 5 -43 21.5t-14 43.5v23q0 31 19 48.5t57 17.5zM146 373q-38 0 -57 18t-19 48v23q0 31 19 48.5t57 17.5t56.5 -17.5t18.5 -48.5v-23q0 -30 -18.5 -48t-56.5 -18z
" />
    <glyph glyph-name="tonos" unicode="&#x384;" horiz-adv-x="539" 
d="M376 788l-62 -207l-79 12l30 212z" />
    <glyph glyph-name="dieresistonos" unicode="&#x385;" 
d="M418 611q-30 0 -42.5 13t-12.5 37v24q0 24 12.5 37t42.5 13t42.5 -13t12.5 -37v-24q0 -24 -12.5 -37t-42.5 -13zM164 611q-31 0 -43.5 13t-12.5 37v24q0 24 12.5 37t43.5 13q30 0 42.5 -13t12.5 -37v-24q0 -24 -12.5 -37t-42.5 -13zM360 790l-61 -209l-56 10l30 214z" />
    <glyph glyph-name="Alphatonos" unicode="&#x386;" horiz-adv-x="611" 
d="M591 0h-123l-49 182h-225l-49 -182h-120l204 698h158zM389 283l-54 191l-22 111h-14l-22 -111l-53 -191h165zM177 788l-62 -207l-79 12l30 212z" />
    <glyph glyph-name="anoteleia" unicode="&#x387;" horiz-adv-x="276" 
d="M138 373q-38 0 -57 18t-19 48v23q0 31 19 48.5t57 17.5t56.5 -17.5t18.5 -48.5v-23q0 -30 -18.5 -48t-56.5 -18z" />
    <glyph glyph-name="Epsilontonos" unicode="&#x388;" horiz-adv-x="610" 
d="M559 0h-419v698h419v-109h-294v-182h257v-108h-257v-190h294v-109zM124 788l-62 -207l-79 12l30 212z" />
    <glyph glyph-name="Etatonos" unicode="&#x389;" horiz-adv-x="716" 
d="M519 0v299h-255v-299h-125v698h125v-291h255v291h125v-698h-125zM124 788l-62 -207l-79 12l30 212z" />
    <glyph glyph-name="Iotatonos" unicode="&#x38a;" horiz-adv-x="480" 
d="M432 0h-292v99h84v500h-84v99h292v-99h-83v-500h83v-99zM124 788l-62 -207l-79 12l30 212z" />
    <glyph glyph-name="Omicrontonos" unicode="&#x38c;" horiz-adv-x="673" 
d="M352 -12q-84 0 -145 36.5t-95 116.5t-34 208q0 129 34 208.5t95 116t145 36.5q85 0 146 -36.5t94.5 -116t33.5 -208.5q0 -128 -33.5 -208t-94.5 -116.5t-146 -36.5zM352 98q46 0 77 19t48 56t17 89v174q0 53 -17 89.5t-48 55.5t-77 19q-44 0 -75.5 -19t-48.5 -55.5
t-17 -89.5v-174q0 -52 17 -89t48.5 -56t75.5 -19zM124 788l-62 -207l-79 12l30 212z" />
    <glyph glyph-name="Upsilontonos" unicode="&#x38e;" horiz-adv-x="689" 
d="M468 0h-124v267l-214 431h137l135 -300h14l132 300h134l-214 -431v-267zM124 788l-62 -207l-79 12l30 212z" />
    <glyph glyph-name="Omegatonos" unicode="&#x38f;" horiz-adv-x="681" 
d="M124 788l-62 -207l-79 12l30 212zM81 0v101h164v12q-35 11 -64.5 34.5t-51 59.5t-33 83t-11.5 104q0 71 17 129.5t50.5 100t85.5 64t121 22.5q71 0 122.5 -22.5t85 -64t50 -100t16.5 -129.5q0 -57 -11.5 -104t-32.5 -83t-50 -59.5t-65 -34.5v-12h164v-101h-235v153
q20 8 38 23t31.5 36t21.5 46.5t8 54.5v151q0 38 -17 68.5t-49 49t-77 18.5q-44 0 -76 -18.5t-49 -49t-17 -68.5v-151q0 -29 7.5 -54.5t21.5 -46.5t32 -36t38 -23v-153h-235z" />
    <glyph glyph-name="iotadieresistonos" unicode="&#x390;" horiz-adv-x="290" 
d="M274 97v-97h-84q-63 0 -94 30t-31 92v400h122v-425h87zM263 611q-30 0 -42.5 13t-12.5 37v24q0 24 12.5 37t42.5 13t42.5 -13t12.5 -37v-24q0 -24 -12.5 -37t-42.5 -13zM9 611q-31 0 -43.5 13t-12.5 37v24q0 24 12.5 37t43.5 13q30 0 42.5 -13t12.5 -37v-24
q0 -24 -12.5 -37t-42.5 -13zM205 790l-61 -209l-56 10l30 214z" />
    <glyph glyph-name="Alpha" unicode="&#x391;" horiz-adv-x="606" 
d="M586 0h-123l-49 182h-225l-49 -182h-120l204 698h158zM384 283l-54 191l-22 111h-14l-22 -111l-53 -191h165z" />
    <glyph glyph-name="Beta" unicode="&#x392;" horiz-adv-x="598" 
d="M72 0v698h297q82 0 123.5 -47.5t41.5 -131.5q0 -58 -17.5 -89.5t-44 -44.5t-53.5 -15v-15q22 0 46.5 -8t45.5 -26t34 -48t13 -73q0 -57 -20 -102.5t-56 -71.5t-85 -26h-325zM197 303v-197h164q21 0 36 7.5t22.5 24t7.5 42.5v49q0 26 -7.5 42.5t-22.5 24t-36 7.5h-164z
M197 592v-185h144q21 0 34.5 7t21.5 22.5t8 39.5v46q0 25 -8 40.5t-21.5 22.5t-34.5 7h-144z" />
    <glyph glyph-name="Gamma" unicode="&#x393;" horiz-adv-x="463" 
d="M72 0v698h366v-109h-241v-589h-125z" />
    <glyph glyph-name="uni0394" unicode="&#x394;" horiz-adv-x="606" 
d="M45 0v102l176 596h165l177 -596v-102h-518zM431 107l-94 348l-28 131h-14l-28 -131l-93 -348h257z" />
    <glyph glyph-name="Epsilon" unicode="&#x395;" horiz-adv-x="542" 
d="M491 0h-419v698h419v-109h-294v-182h257v-108h-257v-190h294v-109z" />
    <glyph glyph-name="Zeta" unicode="&#x396;" 
d="M505 109v-109h-471v110l320 479h-304v109h446v-110l-320 -479h329z" />
    <glyph glyph-name="Eta" unicode="&#x397;" horiz-adv-x="649" 
d="M452 0v299h-255v-299h-125v698h125v-291h255v291h125v-698h-125z" />
    <glyph glyph-name="Theta" unicode="&#x398;" horiz-adv-x="648" 
d="M324 -12q-85 0 -147.5 36.5t-96.5 116.5t-34 208q0 129 34 208.5t96.5 116t147.5 36.5q86 0 148 -36.5t96 -116t34 -208.5q0 -128 -34 -208t-96 -116.5t-148 -36.5zM324 98q47 0 79 19t49 56t17 89v174q0 53 -17 89.5t-49 55.5t-79 19q-46 0 -78.5 -19t-49.5 -55.5
t-17 -89.5v-174q0 -52 17 -89t49.5 -56t78.5 -19zM420 299h-193v108h193v-108z" />
    <glyph glyph-name="Iota" unicode="&#x399;" horiz-adv-x="387" 
d="M339 0h-292v99h84v500h-84v99h292v-99h-83v-500h83v-99z" />
    <glyph glyph-name="Kappa" unicode="&#x39a;" horiz-adv-x="613" 
d="M455 0l-174 320l-84 -111v-209h-125v698h125v-228l-6 -121h14l79 121l159 228h141l-217 -293l234 -405h-146z" />
    <glyph glyph-name="Lambda" unicode="&#x39b;" horiz-adv-x="599" 
d="M222 698h152l205 -698h-130l-115 432l-30 153h-14l-30 -153l-113 -432h-127z" />
    <glyph glyph-name="Mu" unicode="&#x39c;" horiz-adv-x="736" 
d="M72 0v698h137l104 -227l51 -143h9l51 143l102 227h137v-698h-118v398l8 118h-14l-46 -114l-126 -269l-125 269l-46 113h-14l8 -117v-398h-118z" />
    <glyph glyph-name="Nu" unicode="&#x39d;" horiz-adv-x="649" 
d="M438 0l-193 397l-49 121h-14l8 -125v-393h-118v698h139l193 -397l49 -121h14l-8 125v393h118v-698h-139z" />
    <glyph glyph-name="Xi" unicode="&#x39e;" horiz-adv-x="542" 
d="M51 589v109h439v-109h-439zM102 299v108h337v-108h-337zM51 0v109h439v-109h-439z" />
    <glyph glyph-name="Omicron" unicode="&#x39f;" horiz-adv-x="641" 
d="M320 -12q-84 0 -145 36.5t-95 116.5t-34 208q0 129 34 208.5t95 116t145 36.5q85 0 146 -36.5t94.5 -116t33.5 -208.5q0 -128 -33.5 -208t-94.5 -116.5t-146 -36.5zM320 98q46 0 77 19t48 56t17 89v174q0 53 -17 89.5t-48 55.5t-77 19q-44 0 -75.5 -19t-48.5 -55.5
t-17 -89.5v-174q0 -52 17 -89t48.5 -56t75.5 -19z" />
    <glyph glyph-name="Pi" unicode="&#x3a0;" horiz-adv-x="635" 
d="M72 0v698h490v-698h-124v589h-241v-589h-125z" />
    <glyph glyph-name="Rho" unicode="&#x3a1;" horiz-adv-x="581" 
d="M197 0h-125v698h289q61 0 102.5 -26t63 -73.5t21.5 -114.5q0 -66 -21.5 -114t-63 -74t-102.5 -26h-164v-270zM197 589v-210h151q22 0 37.5 8t24 24.5t8.5 41.5v62q0 27 -8.5 43t-24 23.5t-37.5 7.5h-151z" />
    <glyph glyph-name="Sigma" unicode="&#x3a3;" horiz-adv-x="538" 
d="M489 0h-450v110l204 241l-196 236v111h442v-109h-293l195 -234l-208 -246h306v-109z" />
    <glyph glyph-name="Tau" unicode="&#x3a4;" horiz-adv-x="524" 
d="M500 589h-176v-589h-124v589h-176v109h476v-109z" />
    <glyph glyph-name="Upsilon" unicode="&#x3a5;" horiz-adv-x="566" 
d="M345 0h-124v267l-214 431h137l135 -300h14l132 300h134l-214 -431v-267z" />
    <glyph glyph-name="Phi" unicode="&#x3a6;" horiz-adv-x="766" 
d="M321 -40v72h-9q-84 0 -145 36t-94 107.5t-33 177.5q0 107 33 179t94 108t145 36h9v60h124v-60h9q85 0 145.5 -36t93.5 -108t33 -179q0 -106 -33 -177.5t-93.5 -107.5t-145.5 -36h-9v-72h-124zM323 133v442h-9q-45 0 -77.5 -20t-50 -58.5t-17.5 -93.5v-98
q0 -55 17.5 -93.5t50 -58.5t77.5 -20h9zM442 133h10q44 0 77 20t50.5 58.5t17.5 93.5v98q0 55 -17.5 93.5t-50.5 58.5t-77 20h-10v-442z" />
    <glyph glyph-name="Chi" unicode="&#x3a7;" horiz-adv-x="595" 
d="M17 0l199 357l-189 341h143l124 -242h14l126 242h134l-192 -340l202 -358h-144l-136 261h-13l-134 -261h-134z" />
    <glyph glyph-name="Psi" unicode="&#x3a8;" horiz-adv-x="745" 
d="M310 0v186q-80 0 -136 29.5t-85 89t-29 151.5v242h125v-242q0 -65 14.5 -101.5t43 -51.5t67.5 -15v410h125v-410q40 0 68 15t43 51.5t15 101.5v242h124v-242q0 -92 -29 -151.5t-84.5 -89t-136.5 -29.5v-186h-125z" />
    <glyph glyph-name="uni03A9" unicode="&#x3a9;" horiz-adv-x="643" 
d="M43 0v101h164v12q-35 11 -64.5 34.5t-51 59.5t-33 83t-11.5 104q0 71 17 129.5t50.5 100t85.5 64t121 22.5q71 0 122.5 -22.5t85 -64t50 -100t16.5 -129.5q0 -57 -11.5 -104t-32.5 -83t-50 -59.5t-65 -34.5v-12h164v-101h-235v153q20 8 38 23t31.5 36t21.5 46.5t8 54.5
v151q0 38 -17 68.5t-49 49t-77 18.5q-44 0 -76 -18.5t-49 -49t-17 -68.5v-151q0 -29 7.5 -54.5t21.5 -46.5t32 -36t38 -23v-153h-235z" />
    <glyph glyph-name="Iotadieresis" unicode="&#x3aa;" horiz-adv-x="387" 
d="M339 0h-292v99h84v500h-84v99h292v-99h-83v-500h83v-99zM101 773q-36 0 -51 14t-15 39v25q0 25 15 39t51 14t51 -14t15 -39v-25q0 -25 -15 -39t-51 -14zM287 773q-36 0 -51 14t-15 39v25q0 25 15 39t51 14t51 -14t15 -39v-25q0 -25 -15 -39t-51 -14z" />
    <glyph glyph-name="Upsilondieresis" unicode="&#x3ab;" horiz-adv-x="566" 
d="M345 0h-124v267l-214 431h137l135 -300h14l132 300h134l-214 -431v-267zM191 773q-36 0 -51 14t-15 39v25q0 25 15 39t51 14t51 -14t15 -39v-25q0 -25 -15 -39t-51 -14zM377 773q-36 0 -51 14t-15 39v25q0 25 15 39t51 14t51 -14t15 -39v-25q0 -25 -15 -39t-51 -14z" />
    <glyph glyph-name="alphatonos" unicode="&#x3ac;" horiz-adv-x="595" 
d="M565 97v-97h-57q-48 0 -72.5 20t-29.5 67l-7 76h-14q-11 -61 -30.5 -100t-51 -57t-77.5 -18q-61 0 -103 29.5t-63 90t-21 153.5t21 153.5t63 90t103 29.5q45 0 78 -17.5t54.5 -56t31.5 -101.5h14l15 85l22 78h122l-103 -258l55 -167h50zM235 88q17 0 30.5 8t25 26.5
t20.5 48.5l28 90l-28 90q-9 31 -20.5 49t-25 26t-30.5 8q-33 0 -51 -26.5t-18 -88.5v-116q0 -62 18 -88.5t51 -26.5zM349 788l-62 -207l-79 12l30 212z" />
    <glyph glyph-name="epsilontonos" unicode="&#x3ad;" horiz-adv-x="474" 
d="M387 158l67 -74q-34 -47 -87.5 -71.5t-125.5 -24.5q-94 0 -148.5 43t-54.5 113q0 54 29.5 84.5t83.5 37.5v14q-51 8 -76 34.5t-25 70.5q0 65 51.5 107t142.5 42q47 0 83.5 -10t66 -30t50.5 -49l-72 -72q-13 21 -31.5 35t-41 21.5t-48.5 7.5q-39 0 -58.5 -17.5
t-19.5 -42.5v-11q0 -27 17 -42t50 -15h91v-86h-100q-35 0 -52.5 -14.5t-17.5 -42.5v-12q0 -34 23 -51t71 -17q44 0 77 18.5t55 53.5zM345 788l-62 -207l-79 12l30 212z" />
    <glyph glyph-name="etatonos" unicode="&#x3ae;" horiz-adv-x="542" 
d="M198 0h-122v426h-45v96h74q46 0 69 -23t23 -72v-13l-27 18h41q12 44 42 73t82 29q71 0 109.5 -49.5t38.5 -133.5v-551h-121v530q0 52 -18.5 78t-58.5 26q-24 0 -44 -10t-32 -28.5t-12 -45.5zM359 788l-62 -207l-79 12l30 212z" />
    <glyph glyph-name="iotatonos" unicode="&#x3af;" horiz-adv-x="290" 
d="M274 97v-97h-84q-63 0 -94 30t-31 92v400h122v-425h87zM229 788l-62 -207l-79 12l30 212z" />
    <glyph glyph-name="upsilondieresistonos" unicode="&#x3b0;" horiz-adv-x="523" 
d="M178 522v-318q0 -43 9 -68.5t27.5 -37.5t47.5 -12q28 0 46.5 12t27.5 37.5t9 68.5v318h121v-299q0 -82 -23 -134t-68 -76.5t-113 -24.5q-69 0 -114 24.5t-68 76.5t-23 134v299h121zM394 611q-30 0 -42.5 13t-12.5 37v24q0 24 12.5 37t42.5 13t42.5 -13t12.5 -37v-24
q0 -24 -12.5 -37t-42.5 -13zM140 611q-31 0 -43.5 13t-12.5 37v24q0 24 12.5 37t43.5 13q30 0 42.5 -13t12.5 -37v-24q0 -24 -12.5 -37t-42.5 -13zM336 790l-61 -209l-56 10l30 214z" />
    <glyph glyph-name="alpha" unicode="&#x3b1;" horiz-adv-x="595" 
d="M565 97v-97h-57q-48 0 -72.5 20t-29.5 67l-7 76h-14q-11 -61 -30.5 -100t-51 -57t-77.5 -18q-61 0 -103 29.5t-63 90t-21 153.5t21 153.5t63 90t103 29.5q45 0 78 -17.5t54.5 -56t31.5 -101.5h14l15 85l22 78h122l-103 -258l55 -167h50zM235 88q17 0 30.5 8t25 26.5
t20.5 48.5l28 90l-28 90q-9 31 -20.5 49t-25 26t-30.5 8q-33 0 -51 -26.5t-18 -88.5v-116q0 -62 18 -88.5t51 -26.5z" />
    <glyph glyph-name="beta" unicode="&#x3b2;" horiz-adv-x="544" 
d="M65 -200v698q0 133 52.5 193.5t153.5 60.5q68 0 113.5 -22.5t67.5 -64t22 -99.5q0 -49 -13 -83.5t-38 -55t-58 -27.5v-14q41 -3 72 -22t48.5 -56t17.5 -94q0 -74 -20.5 -124t-61 -76t-99.5 -26q-45 0 -77 26t-44 65h-14v-279h-122zM244 339v96h33q23 0 39.5 9.5t25.5 27
t9 41.5v58q0 26 -9 44.5t-27 28.5t-46 10q-40 0 -61 -26t-21 -79v-390q0 -23 10.5 -39.5t31 -25t50.5 -8.5q31 0 54 12t35 35t12 58v49q0 48 -25.5 73.5t-76.5 25.5h-34z" />
    <glyph glyph-name="gamma" unicode="&#x3b3;" horiz-adv-x="480" 
d="M176 -200v200l-127 426h-44v96h50q49 0 72.5 -18.5t34.5 -62.5l46 -178l25 -134h14l32 134l76 259h118l-175 -522v-200h-122z" />
    <glyph glyph-name="delta" unicode="&#x3b4;" horiz-adv-x="507" 
d="M281 461q-37 -2 -64 -21t-41.5 -52t-14.5 -80v-113q0 -37 10.5 -61t31.5 -36t50 -12q31 0 51.5 12t31 36t10.5 61v79q0 33 -4.5 58t-15 47.5t-29.5 45.5t-48 49l-164 146v120h345v-97h-147l-84 16v-14l111 -86q46 -35 77.5 -67.5t50 -66.5t27 -74t8.5 -90
q0 -93 -26 -153.5t-75 -90t-119 -29.5q-69 0 -118 29.5t-75 88t-26 144.5q0 84 23 138t62 80.5t88 26.5v27z" />
    <glyph glyph-name="epsilon" unicode="&#x3b5;" horiz-adv-x="474" 
d="M387 158l67 -74q-34 -47 -87.5 -71.5t-125.5 -24.5q-94 0 -148.5 43t-54.5 113q0 54 29.5 84.5t83.5 37.5v14q-51 8 -76 34.5t-25 70.5q0 65 51.5 107t142.5 42q47 0 83.5 -10t66 -30t50.5 -49l-72 -72q-13 21 -31.5 35t-41 21.5t-48.5 7.5q-39 0 -58.5 -17.5
t-19.5 -42.5v-11q0 -27 17 -42t50 -15h91v-86h-100q-35 0 -52.5 -14.5t-17.5 -42.5v-12q0 -34 23 -51t71 -17q44 0 77 18.5t55 53.5z" />
    <glyph glyph-name="zeta" unicode="&#x3b6;" horiz-adv-x="392" 
d="M53 643v97h333v-95l-160 -236q-36 -53 -50.5 -93.5t-14.5 -75.5v-29q0 -25 8 -43.5t24 -31.5t41 -22l74 -25q33 -11 51 -32t18 -47q0 -14 -3 -29t-10 -35l-41 -115l-101 35l42 121l-72 25q-58 19 -93 47t-50 65.5t-15 87.5q0 43 9 81t32 80t63 96l128 172v17l-72 -15
h-141z" />
    <glyph glyph-name="eta" unicode="&#x3b7;" horiz-adv-x="542" 
d="M198 0h-122v426h-45v96h74q46 0 69 -23t23 -72v-13l-27 18h41q12 44 42 73t82 29q71 0 109.5 -49.5t38.5 -133.5v-551h-121v530q0 52 -18.5 78t-58.5 26q-24 0 -44 -10t-32 -28.5t-12 -45.5z" />
    <glyph glyph-name="theta" unicode="&#x3b8;" horiz-adv-x="518" 
d="M169 494v-75h180v75q0 62 -10 97t-29.5 49t-50.5 14q-30 0 -50.5 -14t-30 -49t-9.5 -97zM259 752q52 0 92.5 -17t68.5 -59t42 -116.5t14 -189.5t-14 -189.5t-42 -116.5t-68.5 -59t-92.5 -17t-92.5 17t-68.5 59t-42.5 116.5t-14.5 189.5t14.5 189.5t42.5 116.5t68.5 59
t92.5 17zM259 86q31 0 50.5 14t29.5 49t10 97v76h-180v-76q0 -62 9.5 -97t30 -49t50.5 -14z" />
    <glyph glyph-name="iota" unicode="&#x3b9;" horiz-adv-x="290" 
d="M274 97v-97h-84q-63 0 -94 30t-31 92v400h122v-425h87z" />
    <glyph glyph-name="kappa" unicode="&#x3ba;" horiz-adv-x="514" 
d="M363 0l-118 226l-58 -69v-157h-122v522h122v-231h14l47 72l84 113q20 26 40 36t56 10h49v-96h-57l-97 -115l176 -311h-136z" />
    <glyph glyph-name="lambda" unicode="&#x3bb;" horiz-adv-x="483" 
d="M180 522l-35 121h-83v97h89q46 0 69 -17t34 -58l165 -568h58v-97h-63q-45 0 -68.5 17t-34.5 58l-51 175l-22 124h-14l-30 -124l-74 -250h-118z" />
    <glyph glyph-name="uni03BC" unicode="&#x3bc;" horiz-adv-x="549" 
d="M186 -200h-121v722h122v-330q0 -51 18.5 -77t57.5 -26q25 0 44.5 9.5t31.5 29t12 45.5v349h121v-425h46v-97h-58q-52 0 -79.5 25t-27.5 77v15l34 -25h-46q-8 -52 -33.5 -78t-62.5 -26q-32 0 -53.5 16t-33.5 49h-12l40 -147v-106z" />
    <glyph glyph-name="nu" unicode="&#x3bd;" horiz-adv-x="483" 
d="M316 0h-154l-113 426h-44v96h50q49 0 73.5 -18.5t33.5 -62.5l46 -197l26 -140h14l33 140l77 278h117z" />
    <glyph glyph-name="xi" unicode="&#x3be;" horiz-adv-x="403" 
d="M394 643h-121q-27 0 -46.5 -11t-30 -32.5t-10.5 -53.5v-30q0 -40 23.5 -63.5t63.5 -23.5h56v-97h-85q-24 0 -42 -11.5t-27.5 -33t-9.5 -50.5v-33q0 -23 7.5 -40.5t23 -30t41.5 -20.5l72 -24q33 -11 51 -32t18 -47q0 -14 -3 -29t-10 -35l-41 -115l-101 35l42 121l-70 24
q-55 18 -88.5 44.5t-49 64t-15.5 86.5q0 74 35.5 120t99.5 53v13q-57 11 -84 43t-27 82q0 44 20.5 73t54.5 39v14h-109v97h362v-97z" />
    <glyph glyph-name="omicron" unicode="&#x3bf;" horiz-adv-x="507" 
d="M253 -12q-69 0 -118 29.5t-75 90t-26 153.5q0 94 26 154.5t75 89.5t118 29q70 0 119 -29t75 -89.5t26 -154.5q0 -93 -26 -153.5t-75 -90t-119 -29.5zM253 86q45 0 69 27t24 81v134q0 54 -24 81t-69 27q-44 0 -68 -27t-24 -81v-134q0 -54 24 -81t68 -27z" />
    <glyph glyph-name="pi" unicode="&#x3c0;" horiz-adv-x="569" 
d="M473 426v-329h68v-97h-65q-63 0 -94 30t-31 92v304h-139v-426h-121v426h-69v96h520v-96h-69z" />
    <glyph glyph-name="rho" unicode="&#x3c1;" horiz-adv-x="513" 
d="M45 -200v476q0 88 23.5 145t71 85t118.5 28q113 0 164.5 -65t51.5 -207q0 -134 -42 -204t-133 -70q-41 0 -74 26t-45 65h-14v-279h-121zM253 86q44 0 69 30t25 83v129q0 54 -23 81t-67 27q-45 0 -68 -27t-23 -81v-169q0 -23 11 -39.5t30.5 -25t45.5 -8.5z" />
    <glyph glyph-name="sigma1" unicode="&#x3c2;" horiz-adv-x="452" 
d="M242 -134l42 121l-79 26q-61 21 -98.5 52t-55 81.5t-17.5 127.5q0 88 24.5 145.5t72.5 86t117 28.5q74 0 119.5 -34t65.5 -97l-98 -44q-7 38 -28 57.5t-60 19.5q-28 0 -47 -12t-29 -35.5t-10 -60.5v-94q0 -44 21.5 -73.5t71.5 -46.5l74 -25q33 -11 51 -32t18 -47
q0 -14 -3 -29t-10 -35l-41 -115z" />
    <glyph glyph-name="sigma" unicode="&#x3c3;" horiz-adv-x="526" 
d="M507 426h-107v-14q36 -21 54.5 -56.5t18.5 -106.5q0 -87 -26 -145t-75 -87t-119 -29q-69 0 -118 29t-75 88.5t-26 149.5q0 93 26 152t76 87t120 28h251v-96zM304 426h-48q-47 0 -71 -27t-24 -81v-124q0 -54 24 -81t68 -27q45 0 69 27t24 81v124q0 39 -10.5 63.5
t-31.5 44.5z" />
    <glyph glyph-name="tau" unicode="&#x3c4;" horiz-adv-x="447" 
d="M369 0h-94q-63 0 -94 30t-31 92v304h-132v96h402v-96h-149v-329h98v-97z" />
    <glyph glyph-name="upsilon" unicode="&#x3c5;" horiz-adv-x="523" 
d="M178 522v-318q0 -43 9 -68.5t27.5 -37.5t47.5 -12q28 0 46.5 12t27.5 37.5t9 68.5v318h121v-299q0 -82 -23 -134t-68 -76.5t-113 -24.5q-69 0 -114 24.5t-68 76.5t-23 134v299h121z" />
    <glyph glyph-name="phi" unicode="&#x3c6;" horiz-adv-x="685" 
d="M278 -200v188q-71 0 -125 31.5t-84 92.5t-30 147q0 112 32 176.5t90 98.5l76 -77q-39 -26 -55 -63t-16 -86v-91q0 -45 14.5 -74.5t40 -44t57.5 -14.5v229q0 105 43.5 163t136.5 58q63 0 104.5 -25t62 -82t20.5 -153q0 -95 -29 -158.5t-84.5 -95.5t-134.5 -32v-188h-119z
M397 336v-252q56 0 88.5 32t32.5 101v119q0 56 -15 78t-45 22t-45.5 -22t-15.5 -78z" />
    <glyph glyph-name="chi" unicode="&#x3c7;" horiz-adv-x="478" 
d="M14 522h66q46 0 69 -16.5t33 -52.5l57 -188h13l89 257h128l-154 -350l99 -275h61v-97h-67q-45 0 -68 17t-34 53l-60 205h-13l-95 -275h-128l161 368l-96 258h-61v96z" />
    <glyph glyph-name="psi" unicode="&#x3c8;" horiz-adv-x="678" 
d="M279 -200v188q-70 0 -120 26t-76 80.5t-26 141.5v286h121v-308q0 -48 11.5 -76t34 -41t55.5 -13v626h119v-626q34 0 56.5 13t34 41t11.5 76v308h121v-286q0 -87 -26 -141.5t-76 -80.5t-121 -26v-188h-119z" />
    <glyph glyph-name="omega" unicode="&#x3c9;" horiz-adv-x="688" 
d="M405 362v-178q0 -37 6.5 -58t19.5 -30t32 -9q29 0 43.5 21t14.5 76v124q0 48 -16 85t-54 64l76 77q38 -23 65.5 -56.5t41.5 -89t14 -142.5q0 -90 -21 -147.5t-58 -84t-87 -26.5q-57 0 -90 33.5t-41 100.5h-14q-8 -67 -41 -100.5t-90 -33.5q-49 0 -86.5 26.5t-58.5 84
t-21 147.5q0 85 14.5 140.5t42 90t64.5 57.5l76 -77q-38 -26 -54 -63t-16 -86v-124q0 -55 14.5 -76t43.5 -21q19 0 32 9t19.5 30t6.5 58v178h122z" />
    <glyph glyph-name="iotadieresis" unicode="&#x3ca;" horiz-adv-x="290" 
d="M274 97v-97h-84q-63 0 -94 30t-31 92v400h122v-425h87zM38 607q-36 0 -51 14t-15 39v26q0 24 15 38t51 14t51 -14t15 -38v-26q0 -25 -15 -39t-51 -14zM224 607q-36 0 -51 14t-15 39v26q0 24 15 38t51 14t51 -14t15 -38v-26q0 -25 -15 -39t-51 -14z" />
    <glyph glyph-name="upsilondieresis" unicode="&#x3cb;" horiz-adv-x="523" 
d="M178 522v-318q0 -43 9 -68.5t27.5 -37.5t47.5 -12q28 0 46.5 12t27.5 37.5t9 68.5v318h121v-299q0 -82 -23 -134t-68 -76.5t-113 -24.5q-69 0 -114 24.5t-68 76.5t-23 134v299h121zM169 607q-36 0 -51 14t-15 39v26q0 24 15 38t51 14t51 -14t15 -38v-26q0 -25 -15 -39
t-51 -14zM355 607q-36 0 -51 14t-15 39v26q0 24 15 38t51 14t51 -14t15 -38v-26q0 -25 -15 -39t-51 -14z" />
    <glyph glyph-name="omicrontonos" unicode="&#x3cc;" horiz-adv-x="507" 
d="M253 -12q-69 0 -118 29.5t-75 90t-26 153.5q0 94 26 154.5t75 89.5t118 29q70 0 119 -29t75 -89.5t26 -154.5q0 -93 -26 -153.5t-75 -90t-119 -29.5zM253 86q45 0 69 27t24 81v134q0 54 -24 81t-69 27q-44 0 -68 -27t-24 -81v-134q0 -54 24 -81t68 -27zM352 788l-62 -207
l-79 12l30 212z" />
    <glyph glyph-name="upsilontonos" unicode="&#x3cd;" horiz-adv-x="523" 
d="M178 522v-318q0 -43 9 -68.5t27.5 -37.5t47.5 -12q28 0 46.5 12t27.5 37.5t9 68.5v318h121v-299q0 -82 -23 -134t-68 -76.5t-113 -24.5q-69 0 -114 24.5t-68 76.5t-23 134v299h121zM360 788l-62 -207l-79 12l30 212z" />
    <glyph glyph-name="omegatonos" unicode="&#x3ce;" horiz-adv-x="688" 
d="M405 362v-178q0 -37 6.5 -58t19.5 -30t32 -9q29 0 43.5 21t14.5 76v124q0 48 -16 85t-54 64l76 77q38 -23 65.5 -56.5t41.5 -89t14 -142.5q0 -90 -21 -147.5t-58 -84t-87 -26.5q-57 0 -90 33.5t-41 100.5h-14q-8 -67 -41 -100.5t-90 -33.5q-49 0 -86.5 26.5t-58.5 84
t-21 147.5q0 85 14.5 140.5t42 90t64.5 57.5l76 -77q-38 -26 -54 -63t-16 -86v-124q0 -55 14.5 -76t43.5 -21q19 0 32 9t19.5 30t6.5 58v178h122zM442 788l-62 -207l-79 12l30 212z" />
    <glyph glyph-name="uni0400" unicode="&#x400;" horiz-adv-x="542" 
d="M491 0h-419v698h419v-109h-294v-182h257v-108h-257v-190h294v-109zM268 744l-119 173l104 52l88 -190z" />
    <glyph glyph-name="uni0401" unicode="&#x401;" horiz-adv-x="542" 
d="M491 0h-419v698h419v-109h-294v-182h257v-108h-257v-190h294v-109zM188 773q-36 0 -51 14t-15 39v25q0 25 15 39t51 14t51 -14t15 -39v-25q0 -25 -15 -39t-51 -14zM374 773q-36 0 -51 14t-15 39v25q0 25 15 39t51 14t51 -14t15 -39v-25q0 -25 -15 -39t-51 -14z" />
    <glyph glyph-name="uni0402" unicode="&#x402;" horiz-adv-x="718" 
d="M427 -176v113h89q15 21 22 50t7 72v155q0 64 -27 92.5t-84 28.5q-36 0 -62.5 -6.5t-47.5 -15.5v-313h-124v589h-176v109h476v-109h-176v-171h14q22 12 49.5 18t65.5 6q109 0 162.5 -56.5t53.5 -174.5v-156q0 -80 -22.5 -131t-65.5 -75.5t-103 -24.5h-51z" />
    <glyph glyph-name="uni0403" unicode="&#x403;" horiz-adv-x="463" 
d="M72 0v698h366v-109h-241v-589h-125zM387 917l-119 -173l-73 35l88 190z" />
    <glyph glyph-name="uni0404" unicode="&#x404;" horiz-adv-x="598" 
d="M327 -12q-87 0 -150 35.5t-97 114.5t-34 207q0 130 34 210t97 117.5t150 37.5q65 0 109.5 -16.5t75 -50.5t54.5 -87l-105 -58q-14 50 -43 76t-91 26q-49 0 -82 -19t-49.5 -55.5t-16.5 -89.5v-57l-41 28h260v-108h-260l41 34v-71q0 -80 37 -122t111 -42q65 0 96 29.5
t47 79.5l101 -61q-34 -78 -91.5 -118t-152.5 -40z" />
    <glyph glyph-name="uni0405" unicode="&#x405;" horiz-adv-x="547" 
d="M269 -12q-78 0 -137.5 29t-102.5 84l82 79q30 -40 70.5 -62t89.5 -22q56 0 84 25.5t28 76.5q0 27 -9 46t-27.5 31.5t-49.5 18.5l-61 12q-63 13 -104 38.5t-61 66t-20 97.5q0 66 27 111t78 68t124 23q74 0 128 -24.5t92 -76.5l-82 -77q-26 35 -59.5 52.5t-80.5 17.5
q-52 0 -77.5 -21t-25.5 -68q0 -26 9 -44t27.5 -29t46.5 -18l61 -13q68 -14 109 -38.5t60 -63.5t19 -98q0 -71 -28 -120.5t-81 -75t-129 -25.5z" />
    <glyph glyph-name="uni0406" unicode="&#x406;" horiz-adv-x="387" 
d="M339 0h-292v99h84v500h-84v99h292v-99h-83v-500h83v-99z" />
    <glyph glyph-name="uni0407" unicode="&#x407;" horiz-adv-x="387" 
d="M339 0h-292v99h84v500h-84v99h292v-99h-83v-500h83v-99zM101 773q-36 0 -51 14t-15 39v25q0 25 15 39t51 14t51 -14t15 -39v-25q0 -25 -15 -39t-51 -14zM287 773q-36 0 -51 14t-15 39v25q0 25 15 39t51 14t51 -14t15 -39v-25q0 -25 -15 -39t-51 -14z" />
    <glyph glyph-name="uni0408" unicode="&#x408;" horiz-adv-x="493" 
d="M106 698h319v-518q0 -60 -23.5 -103t-69 -66t-109.5 -23q-92 0 -139 48t-62 133l113 24q8 -50 28 -72.5t59 -22.5q37 0 57.5 21.5t20.5 71.5v405h-194v102z" />
    <glyph glyph-name="uni0409" unicode="&#x409;" horiz-adv-x="933" 
d="M15 -4v113h72q16 17 27.5 43t19 65t11.5 96t4 137v248h408v-262h159q61 0 102.5 -27t63 -75.5t21.5 -115.5q0 -68 -21.5 -116.5t-63 -75t-102.5 -26.5h-284v589h-163v-154q0 -88 -5.5 -152.5t-15.5 -110.5t-26 -77t-37 -53q-25 -24 -55.5 -35t-72.5 -11h-42zM557 109h145
q22 0 38 8.5t24.5 25.5t8.5 42v66q0 26 -8.5 42.5t-24.5 25t-38 8.5h-145v-218z" />
    <glyph glyph-name="uni040A" unicode="&#x40a;" horiz-adv-x="934" 
d="M72 0v698h125v-291h236v291h124v-262h159q62 0 103 -27t62.5 -75.5t21.5 -115.5q0 -68 -21.5 -116.5t-62.5 -75t-103 -26.5h-283v299h-236v-299h-125zM557 109h146q22 0 37.5 8.5t24 25.5t8.5 42v66q0 26 -8.5 42.5t-24 25t-37.5 8.5h-146v-218z" />
    <glyph glyph-name="uni040B" unicode="&#x40b;" horiz-adv-x="728" 
d="M200 0v589h-176v109h476v-109h-176v-171h14q22 12 51 18t69 6q112 0 166.5 -56.5t54.5 -174.5v-211h-124v214q0 64 -28 92.5t-88 28.5q-39 0 -66.5 -6.5t-48.5 -15.5v-313h-124z" />
    <glyph glyph-name="uni040C" unicode="&#x40c;" horiz-adv-x="603" 
d="M72 0v698h125v-291h96l102 218q18 39 42.5 56t61.5 17h56v-109h-53l-80 -169q-13 -28 -27 -40t-34 -16v-13q21 -1 36 -14t29 -43l87 -185h56v-109h-68q-35 0 -59 16t-42 55l-107 228h-96v-299h-125zM447 917l-119 -173l-73 35l88 190z" />
    <glyph glyph-name="uni040D" unicode="&#x40d;" horiz-adv-x="650" 
d="M72 0v698h121v-380l-9 -128h13l53 132l213 376h114v-698h-121v380l10 128h-13l-52 -130l-215 -378h-114zM311 744l-119 173l104 52l88 -190z" />
    <glyph glyph-name="uni040E" unicode="&#x40e;" horiz-adv-x="562" 
d="M112 0v109h105l21 59l-226 530h130l103 -254l41 -128h13l37 127l87 255h125l-226 -619q-10 -29 -25.5 -46.5t-37.5 -25t-53 -7.5h-94zM283 744q-56 0 -92 23.5t-56 78.5l-19 49l95 37l32 -101q9 -4 19.5 -5.5t20.5 -1.5q11 0 21.5 1.5t18.5 5.5l32 101l95 -37l-19 -49
q-20 -55 -55.5 -78.5t-92.5 -23.5z" />
    <glyph glyph-name="uni040F" unicode="&#x40f;" horiz-adv-x="635" 
d="M259 -150v150h-187v698h125v-589h241v589h124v-698h-186v-150h-117z" />
    <glyph glyph-name="uni0410" unicode="&#x410;" horiz-adv-x="606" 
d="M586 0h-123l-49 182h-225l-49 -182h-120l204 698h158zM384 283l-54 191l-22 111h-14l-22 -111l-53 -191h165z" />
    <glyph glyph-name="uni0411" unicode="&#x411;" horiz-adv-x="589" 
d="M72 0v698h418v-109h-293v-163h169q60 0 101 -25.5t62 -73.5t21 -114t-21 -114t-62 -73.5t-101 -25.5h-294zM197 109h153q23 0 38 8t23.5 24.5t8.5 40.5v63q0 25 -8.5 41t-23.5 24t-38 8h-153v-209z" />
    <glyph glyph-name="uni0412" unicode="&#x412;" horiz-adv-x="598" 
d="M72 0v698h297q82 0 123.5 -47.5t41.5 -131.5q0 -58 -17.5 -89.5t-44 -44.5t-53.5 -15v-15q22 0 46.5 -8t45.5 -26t34 -48t13 -73q0 -57 -20 -102.5t-56 -71.5t-85 -26h-325zM197 303v-197h164q21 0 36 7.5t22.5 24t7.5 42.5v49q0 26 -7.5 42.5t-22.5 24t-36 7.5h-164z
M197 592v-185h144q21 0 34.5 7t21.5 22.5t8 39.5v46q0 25 -8 40.5t-21.5 22.5t-34.5 7h-144z" />
    <glyph glyph-name="uni0413" unicode="&#x413;" horiz-adv-x="463" 
d="M72 0v698h366v-109h-241v-589h-125z" />
    <glyph glyph-name="uni0414" unicode="&#x414;" horiz-adv-x="715" 
d="M13 -150v259h67q23 30 40 75.5t26 113.5t9 166v234h436v-589h100v-259h-117v150h-444v-150h-117zM221 109h246v481h-193v-141q0 -87 -5.5 -150.5t-17 -109t-30.5 -77.5v-3z" />
    <glyph glyph-name="uni0415" unicode="&#x415;" horiz-adv-x="542" 
d="M491 0h-419v698h419v-109h-294v-182h257v-108h-257v-190h294v-109z" />
    <glyph glyph-name="uni0416" unicode="&#x416;" horiz-adv-x="898" 
d="M34 0v109h56l78 185q14 31 28.5 43t34.5 14v13q-19 4 -33.5 17t-27.5 45l-68 163h-53v109h57q38 0 62.5 -17t40.5 -56l90 -218h87v291h125v-291h88l90 218q16 39 41 56t62 17h57v-109h-54l-67 -163q-13 -32 -28 -45t-34 -17v-13q21 -2 35.5 -14t27.5 -43l78 -185h57v-109
h-68q-37 0 -61 17t-41 57l-95 225h-88v-299h-125v299h-87l-96 -225q-16 -40 -40 -57t-61 -17h-68z" />
    <glyph glyph-name="uni0417" unicode="&#x417;" horiz-adv-x="545" 
d="M260 -12q-83 0 -139.5 28.5t-93.5 81.5l84 81q22 -39 58 -59.5t87 -20.5q40 0 66 10.5t38 31t12 49.5v27q0 39 -23.5 61t-74.5 22h-106v108h100q32 0 52.5 10t30.5 29.5t10 46.5v27q0 39 -25.5 59t-74.5 20q-50 0 -82.5 -18t-54.5 -53l-78 75q33 52 85.5 79t130.5 27
q112 0 171.5 -51t59.5 -140q0 -70 -37 -107t-92 -43v-15q37 -1 69 -18t52 -50t20 -85q0 -65 -29 -113.5t-84 -74t-132 -25.5z" />
    <glyph glyph-name="uni0418" unicode="&#x418;" horiz-adv-x="649" 
d="M72 0v698h121v-380l-9 -128h13l53 132l213 376h114v-698h-121v380l10 128h-13l-52 -130l-215 -378h-114z" />
    <glyph glyph-name="uni0419" unicode="&#x419;" horiz-adv-x="650" 
d="M72 0v698h121v-380l-9 -128h13l53 132l213 376h114v-698h-121v380l10 128h-13l-52 -130l-215 -378h-114zM324 744q-56 0 -92 23.5t-56 78.5l-19 49l95 37l32 -101q9 -4 19.5 -5.5t20.5 -1.5q11 0 21.5 1.5t18.5 5.5l32 101l95 -37l-19 -49q-20 -55 -55.5 -78.5
t-92.5 -23.5z" />
    <glyph glyph-name="uni041A" unicode="&#x41a;" horiz-adv-x="603" 
d="M72 0v698h125v-291h96l102 218q18 39 42.5 56t61.5 17h56v-109h-53l-80 -169q-13 -28 -27 -40t-34 -16v-13q21 -1 36 -14t29 -43l87 -185h56v-109h-68q-35 0 -59 16t-42 55l-107 228h-96v-299h-125z" />
    <glyph glyph-name="uni041B" unicode="&#x41b;" horiz-adv-x="652" 
d="M15 -4v113h72q16 17 27.5 43t19 65t11.5 96t4 137v248h431v-698h-124v589h-187v-154q0 -88 -5.5 -152.5t-15.5 -110.5t-26 -77t-37 -53q-25 -24 -55.5 -35t-72.5 -11h-42z" />
    <glyph glyph-name="uni041C" unicode="&#x41c;" horiz-adv-x="736" 
d="M72 0v698h137l104 -227l51 -143h9l51 143l102 227h137v-698h-118v398l8 118h-14l-46 -114l-126 -269l-125 269l-46 113h-14l8 -117v-398h-118z" />
    <glyph glyph-name="uni041D" unicode="&#x41d;" horiz-adv-x="649" 
d="M452 0v299h-255v-299h-125v698h125v-291h255v291h125v-698h-125z" />
    <glyph glyph-name="uni041E" unicode="&#x41e;" horiz-adv-x="641" 
d="M320 -12q-84 0 -145 36.5t-95 116.5t-34 208q0 129 34 208.5t95 116t145 36.5q85 0 146 -36.5t94.5 -116t33.5 -208.5q0 -128 -33.5 -208t-94.5 -116.5t-146 -36.5zM320 98q46 0 77 19t48 56t17 89v174q0 53 -17 89.5t-48 55.5t-77 19q-44 0 -75.5 -19t-48.5 -55.5
t-17 -89.5v-174q0 -52 17 -89t48.5 -56t75.5 -19z" />
    <glyph glyph-name="uni041F" unicode="&#x41f;" horiz-adv-x="635" 
d="M72 0v698h490v-698h-124v589h-241v-589h-125z" />
    <glyph glyph-name="uni0420" unicode="&#x420;" horiz-adv-x="581" 
d="M197 0h-125v698h289q61 0 102.5 -26t63 -73.5t21.5 -114.5q0 -66 -21.5 -114t-63 -74t-102.5 -26h-164v-270zM197 589v-210h151q22 0 37.5 8t24 24.5t8.5 41.5v62q0 27 -8.5 43t-24 23.5t-37.5 7.5h-151z" />
    <glyph glyph-name="uni0421" unicode="&#x421;" horiz-adv-x="581" 
d="M318 -12q-82 0 -143 35.5t-95 114.5t-34 207q0 130 34 210t95 117.5t143 37.5q93 0 146.5 -39t86.5 -120l-106 -56q-14 48 -40.5 76.5t-86.5 28.5q-65 0 -102 -42t-37 -122v-174q0 -80 37 -122t102 -42q61 0 90 31.5t44 80.5l102 -60q-34 -77 -88.5 -119.5t-147.5 -42.5z
" />
    <glyph glyph-name="uni0422" unicode="&#x422;" horiz-adv-x="524" 
d="M500 589h-176v-589h-124v589h-176v109h476v-109z" />
    <glyph glyph-name="uni0423" unicode="&#x423;" horiz-adv-x="562" 
d="M112 0v109h105l21 59l-226 530h130l103 -254l41 -128h13l37 127l87 255h125l-226 -619q-10 -29 -25.5 -46.5t-37.5 -25t-53 -7.5h-94z" />
    <glyph glyph-name="uni0424" unicode="&#x424;" horiz-adv-x="801" 
d="M338 -40v92h-30q-83 0 -145 35t-95.5 101.5t-33.5 159.5t33.5 159.5t95.5 101.5t145 35h30v92h125v-92h30q84 0 145.5 -35t95 -101.5t33.5 -159.5t-33.5 -159.5t-95 -101.5t-145.5 -35h-30v-92h-125zM308 155h32v386h-32q-36 0 -63 -10t-45.5 -28.5t-27.5 -44t-9 -56.5
v-108q0 -31 9 -56.5t27.5 -44t46 -28.5t62.5 -10zM461 155h32q36 0 63 10t45.5 28.5t27.5 44t9 56.5v108q0 32 -9 57t-27 43.5t-45.5 28.5t-63.5 10h-32v-386z" />
    <glyph glyph-name="uni0425" unicode="&#x425;" horiz-adv-x="595" 
d="M17 0l199 357l-189 341h143l124 -242h14l126 242h134l-192 -340l202 -358h-144l-136 261h-13l-134 -261h-134z" />
    <glyph glyph-name="uni0426" unicode="&#x426;" horiz-adv-x="686" 
d="M546 -150v150h-474v698h125v-589h241v589h124v-589h100v-259h-116z" />
    <glyph glyph-name="uni0427" unicode="&#x427;" horiz-adv-x="601" 
d="M404 0v262h-14q-21 -11 -50 -17.5t-69 -6.5q-112 0 -167 56.5t-55 174.5v229h125v-232q0 -63 28 -92t87 -29q39 0 67.5 6.5t47.5 16.5v330h125v-698h-125z" />
    <glyph glyph-name="uni0428" unicode="&#x428;" horiz-adv-x="913" 
d="M72 0v698h125v-589h197v589h125v-589h197v589h125v-698h-769z" />
    <glyph glyph-name="uni0429" unicode="&#x429;" horiz-adv-x="965" 
d="M824 -150v150h-752v698h125v-589h197v589h125v-589h197v589h125v-589h100v-259h-117z" />
    <glyph glyph-name="uni042A" unicode="&#x42a;" horiz-adv-x="686" 
d="M170 0v589h-146v109h270v-258h172q62 0 104 -26.5t64 -76t22 -117.5t-22 -117.5t-64 -76t-104 -26.5h-296zM294 109h160q22 0 38.5 8.5t25 26t8.5 43.5v67q0 27 -8.5 43.5t-25 25t-38.5 8.5h-160v-222z" />
    <glyph glyph-name="uni042B" unicode="&#x42b;" horiz-adv-x="829" 
d="M72 0v698h125v-258h164q62 0 104 -26.5t63.5 -76t21.5 -117.5t-21.5 -117.5t-63.5 -76t-104 -26.5h-289zM197 109h152q22 0 38 8.5t25 26t9 43.5v67q0 27 -9 43.5t-25 25t-38 8.5h-152v-222zM632 0v698h124v-698h-124z" />
    <glyph glyph-name="uni042C" unicode="&#x42c;" horiz-adv-x="589" 
d="M72 0v698h125v-258h172q62 0 104 -26.5t63.5 -76t21.5 -117.5t-21.5 -117.5t-63.5 -76t-104 -26.5h-297zM197 109h160q22 0 38 8.5t25 26t9 43.5v67q0 27 -9 43.5t-25 25t-38 8.5h-160v-222z" />
    <glyph glyph-name="uni042D" unicode="&#x42d;" horiz-adv-x="598" 
d="M200 299v108h260l-41 -30v61q0 82 -38 122t-110 40q-62 0 -91 -26t-43 -77l-105 59q24 52 55 86.5t75.5 51t108.5 16.5q88 0 150.5 -36t96 -115t33.5 -208q0 -128 -33.5 -208t-96 -117.5t-150.5 -37.5q-95 0 -152 40t-92 118l102 62q16 -51 48 -80.5t94 -29.5
q72 0 110 41.5t38 119.5v75l41 -35h-260z" />
    <glyph glyph-name="uni042E" unicode="&#x42e;" horiz-adv-x="904" 
d="M585 -12q-81 0 -139.5 34.5t-91 103.5t-39.5 173h-118v-299h-125v698h125v-291h120q6 100 38 167t90.5 101.5t139.5 34.5q84 0 144.5 -36.5t94 -115.5t33.5 -209q0 -129 -33.5 -208.5t-94 -116t-144.5 -36.5zM585 98q66 0 103 42.5t37 121.5v174q0 79 -37 121.5
t-103 42.5q-64 0 -101 -42.5t-37 -121.5v-174q0 -79 37 -121.5t101 -42.5z" />
    <glyph glyph-name="uni042F" unicode="&#x42f;" horiz-adv-x="603" 
d="M38 0v109h55l57 122q11 25 24.5 36.5t36.5 13.5v33l32 -20h-18q-80 0 -124.5 48t-44.5 143q0 66 21.5 114t62.5 73.5t101 25.5h289v-698h-124v273h-105l-95 -202q-19 -40 -42.5 -55.5t-58.5 -15.5h-67zM256 379h150v210h-150q-22 0 -37.5 -8t-24 -24.5t-8.5 -41.5v-62
q0 -24 8.5 -40.5t24 -25t37.5 -8.5z" />
    <glyph glyph-name="uni0430" unicode="&#x430;" horiz-adv-x="506" 
d="M479 0h-73q-24 0 -43.5 9t-31 31.5t-11.5 60.5v16l25 -28h-36q-10 -47 -45 -74t-87 -27q-71 0 -107.5 40.5t-36.5 111.5q0 54 23 90.5t67 54t108 17.5h81v45q0 46 -19.5 68t-64.5 22q-37 0 -62 -18t-44 -49l-71 64q28 46 73.5 73t113.5 27q98 0 146.5 -46.5t48.5 -137.5
v-253h46v-97zM312 227h-73q-43 0 -63.5 -17t-20.5 -48v-22q0 -33 18 -48t50 -15q25 0 45 10t32 28t12 43v69z" />
    <glyph glyph-name="uni0431" unicode="&#x431;" horiz-adv-x="510" 
d="M257 -12q-64 0 -113 30.5t-78 96.5q-16 36 -22 82.5t-6 120.5q0 108 14.5 184t45.5 125t78.5 75t114.5 32l152 17v-118l-155 -17q-34 -3 -57 -15t-37 -35t-20.5 -61.5t-8.5 -96.5h14q9 52 41.5 78t80.5 26q53 0 92.5 -25.5t61 -81.5t21.5 -148q0 -93 -25.5 -152.5
t-74.5 -88t-119 -28.5zM259 87q44 0 67.5 26t23.5 78v114q0 54 -23.5 81t-69.5 27q-45 0 -68.5 -25.5t-23.5 -73.5v-120q0 -54 24.5 -80.5t69.5 -26.5z" />
    <glyph glyph-name="uni0432" unicode="&#x432;" horiz-adv-x="516" 
d="M65 0v522h264q63 0 97 -35.5t34 -94.5q0 -48 -24 -75.5t-74 -34.5v-14q58 -4 87 -34.5t29 -82.5q0 -45 -17.5 -79t-49.5 -53t-78 -19h-268zM184 89h118q25 0 39 14t14 40v30q0 25 -14 39.5t-39 14.5h-118v-138zM184 306h104q22 0 35.5 13.5t13.5 37.5v26q0 24 -13.5 37.5
t-36.5 13.5h-103v-128z" />
    <glyph glyph-name="uni0433" unicode="&#x433;" horiz-adv-x="399" 
d="M65 0v522h315v-96h-193v-426h-122z" />
    <glyph glyph-name="uni0434" unicode="&#x434;" horiz-adv-x="579" 
d="M8 -140v237h57q17 28 28.5 66.5t17 90.5t5.5 118v150h367v-425h80v-237h-110v140h-336v-140h-109zM193 97h169v329h-130v-60q0 -106 -11 -170.5t-28 -98.5z" />
    <glyph glyph-name="uni0435" unicode="&#x435;" horiz-adv-x="504" 
d="M263 -12q-68 0 -119.5 29.5t-80.5 90t-29 153.5q0 94 26 154.5t75 89.5t118 29q70 0 118 -29t73.5 -89.5t25.5 -154.5v-30h-309v-33q0 -52 29.5 -82.5t79.5 -30.5q43 0 72.5 19.5t50.5 53.5l66 -69q-29 -46 -78 -73.5t-118 -27.5zM253 441q-29 0 -50 -12t-31.5 -36
t-10.5 -60v-27h182v27q0 36 -10 60t-29.5 36t-50.5 12z" />
    <glyph glyph-name="uni0436" unicode="&#x436;" horiz-adv-x="764" 
d="M39 0v97h48l50 120q9 23 22 34t31 12v13q-16 2 -27 12t-23 37l-43 101h-50v96h53q37 0 60 -16t39 -53l59 -139h63v208h122v-208h63l59 139q16 37 39.5 53t59.5 16h53v-96h-50l-43 -101q-11 -27 -22 -37t-28 -12v-13q18 -1 31 -12t22 -34l50 -120h48v-97h-59
q-35 0 -59.5 16t-40.5 56l-60 146h-63v-218h-122v218h-63l-60 -146q-16 -40 -40.5 -56t-59.5 -16h-59z" />
    <glyph glyph-name="uni0437" unicode="&#x437;" horiz-adv-x="472" 
d="M224 -12q-69 0 -117 25.5t-85 72.5l73 75q22 -36 55 -55.5t75 -19.5q43 0 64.5 18.5t21.5 49.5v11q0 29 -17 43.5t-51 14.5h-96v86h85q33 0 50 14.5t17 41.5v12q0 26 -19 42.5t-57 16.5q-41 0 -71 -18.5t-48 -51.5l-72 68q32 46 81 73t118 27q94 0 143 -38.5t49 -102.5
q0 -48 -23.5 -75t-74.5 -36v-15q54 -7 81.5 -36.5t27.5 -77.5q0 -76 -56 -120.5t-154 -44.5z" />
    <glyph glyph-name="uni0438" unicode="&#x438;" horiz-adv-x="553" 
d="M65 0v522h119v-242l-17 -113h13l49 104l146 251h113v-522h-119v242l17 113h-13l-49 -104l-146 -251h-113z" />
    <glyph glyph-name="uni0439" unicode="&#x439;" horiz-adv-x="553" 
d="M65 0v522h119v-242l-17 -113h13l49 104l146 251h113v-522h-119v242l17 113h-13l-49 -104l-146 -251h-113zM276 584q-56 0 -92.5 24t-56.5 78l-18 49l94 38l33 -102q9 -3 19.5 -4.5t20.5 -1.5q11 0 21.5 1.5t18.5 4.5l33 102l94 -38l-18 -49q-20 -54 -56 -78t-93 -24z" />
    <glyph glyph-name="uni043A" unicode="&#x43a;" horiz-adv-x="528" 
d="M65 0v522h122v-208h73l68 140q19 38 41.5 53t57.5 15h54v-96h-50l-51 -103q-12 -25 -22.5 -35t-27.5 -12v-13q18 -1 30.5 -11.5t23.5 -33.5l57 -121h50v-97h-61q-35 0 -58.5 15.5t-41.5 54.5l-70 148h-73v-218h-122z" />
    <glyph glyph-name="uni043B" unicode="&#x43b;" horiz-adv-x="542" 
d="M12 -4v101h61q13 20 21.5 52t13.5 82t5 126v165h363v-522h-121v426h-126v-73q0 -97 -8.5 -160.5t-23.5 -101.5t-35 -58q-20 -19 -46.5 -28t-66.5 -9h-37z" />
    <glyph glyph-name="uni043C" unicode="&#x43c;" horiz-adv-x="657" 
d="M65 0v522h143l89 -177l27 -76h9l27 76l89 177h143v-522h-118v294l4 71h-13l-29 -66l-107 -214l-107 214l-30 66h-13l4 -71v-294h-118z" />
    <glyph glyph-name="uni043D" unicode="&#x43d;" horiz-adv-x="546" 
d="M65 0v522h122v-207h173v207h121v-522h-121v219h-173v-219h-122z" />
    <glyph glyph-name="uni043E" unicode="&#x43e;" horiz-adv-x="507" 
d="M253 -12q-69 0 -118 29.5t-75 90t-26 153.5q0 94 26 154.5t75 89.5t118 29q70 0 119 -29t75 -89.5t26 -154.5q0 -93 -26 -153.5t-75 -90t-119 -29.5zM253 86q45 0 69 27t24 81v134q0 54 -24 81t-69 27q-44 0 -68 -27t-24 -81v-134q0 -54 24 -81t68 -27z" />
    <glyph glyph-name="uni043F" unicode="&#x43f;" horiz-adv-x="534" 
d="M65 0v522h404v-522h-121v426h-161v-426h-122z" />
    <glyph glyph-name="uni0440" unicode="&#x440;" horiz-adv-x="542" 
d="M65 -200v722h122v-86h14q11 44 44.5 71t78.5 27q61 0 100.5 -31.5t59 -92.5t19.5 -149q0 -89 -19.5 -150t-59 -92t-100.5 -31q-45 0 -78.5 27t-44.5 71h-14v-286h-122zM277 88q47 0 73 29.5t26 81.5v124q0 53 -26 82t-73 29q-27 0 -47.5 -9.5t-31.5 -27t-11 -41.5v-189
q0 -25 11 -42.5t31.5 -27t47.5 -9.5z" />
    <glyph glyph-name="uni0441" unicode="&#x441;" horiz-adv-x="464" 
d="M251 -12q-105 0 -161 66t-56 207q0 140 56 206.5t161 66.5q76 0 122 -34.5t66 -96.5l-99 -44q-7 38 -28 57.5t-61 19.5q-45 0 -67.5 -27t-22.5 -81v-134q0 -54 22.5 -81t67.5 -27q41 0 63.5 20.5t33.5 61.5l94 -45q-23 -66 -70 -100.5t-121 -34.5z" />
    <glyph glyph-name="uni0442" unicode="&#x442;" horiz-adv-x="440" 
d="M159 0v426h-141v96h404v-96h-141v-426h-122z" />
    <glyph glyph-name="uni0443" unicode="&#x443;" horiz-adv-x="483" 
d="M277 241l76 281h121l-199 -631q-11 -36 -28.5 -55.5t-43 -27.5t-63.5 -8h-82v97h103l21 74l-174 551h123l78 -282l28 -137h12z" />
    <glyph glyph-name="uni0444" unicode="&#x444;" horiz-adv-x="714" 
d="M296 -200v257h-13q-10 -32 -36 -50.5t-65 -18.5q-46 0 -78.5 23.5t-49 83t-16.5 166.5q0 108 16.5 167t49 82.5t78.5 23.5q39 0 65 -19t36 -51h13v246h122v-246h14q10 32 35.5 51t64.5 19q46 0 78.5 -23.5t49 -82.5t16.5 -167q0 -107 -16.5 -166.5t-49 -83t-78.5 -23.5
q-39 0 -64.5 18.5t-35.5 50.5h-14v-257h-122zM236 79q21 0 34.5 7.5t20 22.5t6.5 35v234q0 21 -6.5 35.5t-20 22t-34.5 7.5q-35 0 -54 -25t-19 -92v-130q0 -67 19 -92t54 -25zM478 79q36 0 54.5 25t18.5 92v130q0 67 -18.5 92t-54.5 25q-21 0 -34 -7.5t-20 -22t-7 -35.5
v-234q0 -20 7 -35t20 -22.5t34 -7.5z" />
    <glyph glyph-name="uni0445" unicode="&#x445;" horiz-adv-x="489" 
d="M15 0l156 267l-154 255h132l92 -168h13l94 168h124l-156 -258l162 -264h-132l-98 176h-13l-96 -176h-124z" />
    <glyph glyph-name="uni0446" unicode="&#x446;" horiz-adv-x="565" 
d="M439 -140v140h-374v522h122v-425h161v425h121v-425h80v-237h-110z" />
    <glyph glyph-name="uni0447" unicode="&#x447;" horiz-adv-x="513" 
d="M327 0v229h-15q-11 -30 -40.5 -48.5t-75.5 -18.5q-77 0 -114 44.5t-37 132.5v183h121v-176q0 -42 18 -62.5t59 -20.5q40 0 62 16t22 43v200h121v-522h-121z" />
    <glyph glyph-name="uni0448" unicode="&#x448;" horiz-adv-x="752" 
d="M65 0v522h122v-425h129v425h121v-425h129v425h121v-522h-622z" />
    <glyph glyph-name="uni0449" unicode="&#x449;" horiz-adv-x="783" 
d="M657 -140v140h-592v522h122v-425h129v425h121v-425h129v425h121v-425h80v-237h-110z" />
    <glyph glyph-name="uni044A" unicode="&#x44a;" horiz-adv-x="572" 
d="M137 0v426h-119v96h240v-168h116q53 0 91 -20.5t59.5 -60t21.5 -96.5q0 -55 -21 -95t-59.5 -61t-91.5 -21h-237zM258 90h95q34 0 52.5 17t18.5 51v39q0 34 -18.5 50.5t-52.5 16.5h-95v-174z" />
    <glyph glyph-name="uni044B" unicode="&#x44b;" horiz-adv-x="714" 
d="M65 0v522h122v-168h105q53 0 91.5 -20.5t60 -60t21.5 -96.5q0 -55 -21.5 -95t-60 -61t-90.5 -21h-228zM187 90h84q34 0 52.5 17t18.5 51v39q0 34 -18.5 50.5t-52.5 16.5h-84v-174zM527 0v522h122v-522h-122z" />
    <glyph glyph-name="uni044C" unicode="&#x44c;" horiz-adv-x="501" 
d="M65 0v522h122v-168h116q52 0 90.5 -20.5t60 -60t21.5 -96.5q0 -55 -21.5 -95t-60 -61t-90.5 -21h-238zM187 90h94q34 0 52.5 17t18.5 51v39q0 34 -18.5 50.5t-52.5 16.5h-94v-174z" />
    <glyph glyph-name="uni044D" unicode="&#x44d;" horiz-adv-x="476" 
d="M157 222v85h158v21q0 55 -22.5 82t-72.5 27q-45 0 -68.5 -19t-33.5 -59l-94 52q26 62 71.5 92.5t124.5 30.5q110 0 166 -66t56 -207t-56.5 -207t-167.5 -66q-78 0 -122.5 31.5t-71.5 95.5l94 49q11 -40 33.5 -59t66.5 -19q51 0 74 26.5t23 81.5v28h-158z" />
    <glyph glyph-name="uni044E" unicode="&#x44e;" horiz-adv-x="734" 
d="M485 -12q-99 0 -152 60t-61 170h-85v-218h-122v522h122v-208h86q10 104 61.5 162t150.5 58q68 0 116 -29t73.5 -89.5t25.5 -154.5q0 -93 -25.5 -153.5t-73.5 -90t-116 -29.5zM485 86q43 0 65.5 27t22.5 81v134q0 54 -22.5 81t-65.5 27t-65.5 -27t-22.5 -81v-134
q0 -54 22.5 -81t65.5 -27z" />
    <glyph glyph-name="uni044F" unicode="&#x44f;" horiz-adv-x="524" 
d="M43 0v97h51l25 60q8 20 20.5 30t29.5 12v11q-56 5 -87.5 42.5t-31.5 103.5q0 53 20 90t57 56.5t86 19.5h246v-522h-122v189h-82l-48 -117q-17 -40 -40.5 -56t-60.5 -16h-63zM236 279h101v153h-101q-29 0 -46 -15t-17 -45v-33q0 -30 17 -45t46 -15z" />
    <glyph glyph-name="uni0450" unicode="&#x450;" horiz-adv-x="504" 
d="M263 -12q-68 0 -119.5 29.5t-80.5 90t-29 153.5q0 94 26 154.5t75 89.5t118 29q70 0 118 -29t73.5 -89.5t25.5 -154.5v-30h-309v-33q0 -52 29.5 -82.5t79.5 -30.5q43 0 72.5 19.5t50.5 53.5l66 -69q-29 -46 -78 -73.5t-118 -27.5zM253 441q-29 0 -50 -12t-31.5 -36
t-10.5 -60v-27h182v27q0 36 -10 60t-29.5 36t-50.5 12zM240 581l-119 173l104 51l88 -189z" />
    <glyph glyph-name="uni0451" unicode="&#x451;" horiz-adv-x="504" 
d="M263 -12q-68 0 -119.5 29.5t-80.5 90t-29 153.5q0 94 26 154.5t75 89.5t118 29q70 0 118 -29t73.5 -89.5t25.5 -154.5v-30h-309v-33q0 -52 29.5 -82.5t79.5 -30.5q43 0 72.5 19.5t50.5 53.5l66 -69q-29 -46 -78 -73.5t-118 -27.5zM253 441q-29 0 -50 -12t-31.5 -36
t-10.5 -60v-27h182v27q0 36 -10 60t-29.5 36t-50.5 12zM160 607q-36 0 -51 14t-15 39v26q0 24 15 38t51 14t51 -14t15 -38v-26q0 -25 -15 -39t-51 -14zM346 607q-36 0 -51 14t-15 39v26q0 24 15 38t51 14t51 -14t15 -38v-26q0 -25 -15 -39t-51 -14z" />
    <glyph glyph-name="uni0452" unicode="&#x452;" horiz-adv-x="536" 
d="M279 -200v97h72v433q0 51 -18.5 77.5t-58.5 26.5q-23 0 -43.5 -10t-32.5 -28.5t-12 -45.5v-350h-121v601h-56v76h56v63h121v-63h128v-76h-128v-166h14q14 43 43.5 71t83.5 28q69 0 107 -47.5t38 -135.5v-429q0 -62 -29.5 -92t-95.5 -30h-68z" />
    <glyph glyph-name="uni0453" unicode="&#x453;" horiz-adv-x="399" 
d="M65 0v522h315v-96h-193v-426h-122zM349 754l-119 -173l-73 35l88 189z" />
    <glyph glyph-name="uni0454" unicode="&#x454;" horiz-adv-x="476" 
d="M259 -12q-112 0 -168.5 66t-56.5 207q0 140 56.5 206.5t165.5 66.5q81 0 125.5 -31t69.5 -92l-97 -50q-8 38 -30 57t-68 19q-49 0 -72 -27.5t-23 -81.5v-21h158v-85h-158v-28q0 -54 23 -81t75 -27q44 0 67.5 19.5t35.5 60.5l92 -51q-28 -65 -73 -96t-122 -31z" />
    <glyph glyph-name="uni0455" unicode="&#x455;" horiz-adv-x="450" 
d="M224 -12q-65 0 -114.5 24t-85.5 70l74 72q25 -35 56.5 -53t71.5 -18q37 0 56.5 16t19.5 48q0 25 -12.5 39.5t-42.5 19.5l-49 9q-54 11 -88.5 29.5t-51 50t-16.5 76.5q0 82 48 122.5t136 40.5q41 0 73.5 -8.5t60 -26.5t49.5 -44l-71 -71q-20 25 -48 40t-64 15
q-34 0 -52 -15.5t-18 -47.5q0 -26 14 -39t44 -19l50 -9q82 -15 117.5 -50.5t35.5 -99.5q0 -54 -22.5 -92.5t-65.5 -58.5t-105 -20z" />
    <glyph glyph-name="uni0456" unicode="&#x456;" horiz-adv-x="252" 
d="M126 604q-38 0 -55 17t-17 44v20q0 29 17 45t55 16t55 -16t17 -45v-20q0 -27 -17 -44t-55 -17zM65 0v522h122v-522h-122z" />
    <glyph glyph-name="uni0457" unicode="&#x457;" horiz-adv-x="252" 
d="M187 0h-122v522h122v-522zM33 607q-36 0 -51 14t-15 39v26q0 24 15 38t51 14t51 -14t15 -38v-26q0 -25 -15 -39t-51 -14zM219 607q-36 0 -51 14t-15 39v26q0 24 15 38t51 14t51 -14t15 -38v-26q0 -25 -15 -39t-51 -14z" />
    <glyph glyph-name="uni0458" unicode="&#x458;" horiz-adv-x="255" 
d="M68 -103v625h121v-600q0 -62 -29 -92t-95 -30h-69v97h72zM129 604q-38 0 -55 17t-17 44v20q0 29 17 45t55 16q37 0 54 -16t17 -45v-20q0 -27 -17 -44t-54 -17z" />
    <glyph glyph-name="uni0459" unicode="&#x459;" horiz-adv-x="770" 
d="M12 -4v101h61q13 20 21.5 52t13.5 82t5 126v165h353v-168h106q52 0 90.5 -20.5t60 -60t21.5 -96.5q0 -55 -21.5 -95t-60 -61t-90.5 -21h-227v426h-116v-73q0 -97 -8.5 -160.5t-23.5 -101.5t-35 -58q-20 -19 -46.5 -28t-66.5 -9h-37zM466 90h84q35 0 53 17t18 51v39
q0 34 -18 50.5t-53 16.5h-84v-174z" />
    <glyph glyph-name="uni045A" unicode="&#x45a;" horiz-adv-x="779" 
d="M65 0v522h122v-207h166v207h121v-168h106q53 0 91.5 -20.5t60 -60t21.5 -96.5q0 -55 -21.5 -95t-60 -61t-90.5 -21h-228v219h-166v-219h-122zM474 90h85q34 0 52.5 17t18.5 51v39q0 34 -18.5 50.5t-52.5 16.5h-85v-174z" />
    <glyph glyph-name="uni045B" unicode="&#x45b;" horiz-adv-x="531" 
d="M187 0h-122v602h-56v75h56v63h122v-63h127v-75h-127v-167h14q13 43 43 71t83 28q70 0 107.5 -47.5t37.5 -135.5v-351h-121v330q0 51 -18.5 77.5t-57.5 26.5q-24 0 -44 -10t-32 -28.5t-12 -45.5v-350z" />
    <glyph glyph-name="uni045C" unicode="&#x45c;" horiz-adv-x="528" 
d="M65 0v522h122v-208h73l68 140q19 38 41.5 53t57.5 15h54v-96h-50l-51 -103q-12 -25 -22.5 -35t-27.5 -12v-13q18 -1 30.5 -11.5t23.5 -33.5l57 -121h50v-97h-61q-35 0 -58.5 15.5t-41.5 54.5l-70 148h-73v-218h-122zM404 754l-119 -173l-73 35l88 189z" />
    <glyph glyph-name="uni045D" unicode="&#x45d;" horiz-adv-x="553" 
d="M65 0v522h119v-242l-17 -113h13l49 104l146 251h113v-522h-119v242l17 113h-13l-49 -104l-146 -251h-113zM263 581l-119 173l104 51l88 -189z" />
    <glyph glyph-name="uni045E" unicode="&#x45e;" horiz-adv-x="483" 
d="M277 241l76 281h121l-199 -631q-11 -36 -28.5 -55.5t-43 -27.5t-63.5 -8h-82v97h103l21 74l-174 551h123l78 -282l28 -137h12zM242 584q-56 0 -92.5 24t-56.5 78l-18 49l94 38l33 -102q9 -3 19.5 -4.5t20.5 -1.5q11 0 21.5 1.5t18.5 4.5l33 102l94 -38l-18 -49
q-20 -54 -56 -78t-93 -24z" />
    <glyph glyph-name="uni045F" unicode="&#x45f;" horiz-adv-x="535" 
d="M212 -140v140h-147v522h122v-425h161v425h121v-522h-147v-140h-110z" />
    <glyph glyph-name="uni0462" unicode="&#x462;" horiz-adv-x="621" 
d="M104 0v519h-88v102h88v77h124v-77h162v-102h-162v-93h178q60 0 101 -25.5t62 -73.5t21 -113q0 -67 -21 -115t-62 -73.5t-101 -25.5h-302zM228 109h162q23 0 38.5 8t23.5 24.5t8 40.5v63q0 25 -8 41t-23.5 24t-38.5 8h-162v-209z" />
    <glyph glyph-name="uni0463" unicode="&#x463;" horiz-adv-x="508" 
d="M73 0v425h-69v97h69v188h121v-188h130v-97h-130v-83h116q52 0 90.5 -20t60 -58.5t21.5 -92.5t-21.5 -92.5t-60 -58.5t-90.5 -20h-237zM194 90h94q34 0 52.5 17t18.5 51v26q0 34 -18.5 50.5t-52.5 16.5h-94v-161z" />
    <glyph glyph-name="uni046A" unicode="&#x46a;" horiz-adv-x="862" 
d="M12 0l125 277q15 31 29.5 45.5t38.5 18.5v13l-136 236v108h722v-108l-137 -236v-13q24 -5 40.5 -19.5t30.5 -44.5l125 -277h-136l-127 281h-95v-281h-125v281h-95l-127 -281h-133zM319 389h223l108 192v10h-440v-10z" />
    <glyph glyph-name="uni046B" unicode="&#x46b;" horiz-adv-x="726" 
d="M12 0l99 210q10 21 26 33t34 15v5l-104 162v97h592v-97l-104 -162v-5q19 -3 34.5 -14.5t25.5 -33.5l99 -210h-127l-98 207h-66v-207h-121v207h-65l-98 -207h-127zM278 296h170l78 124v6h-326v-6z" />
    <glyph glyph-name="uni0472" unicode="&#x472;" horiz-adv-x="641" 
d="M320 -12q-84 0 -145 36.5t-95 116.5t-34 208q0 129 34 208.5t95 116t145 36.5q85 0 146 -36.5t94.5 -116t33.5 -208.5q0 -128 -33.5 -208t-94.5 -116.5t-146 -36.5zM320 93q49 0 82 19.5t50.5 57t17.5 90.5v75l11 -22q-7 -11 -29 -23.5t-52 -12.5q-22 0 -41 5.5t-46 20.5
q-22 11 -40.5 17t-37.5 6q-26 0 -46 -13t-45 -39l27 54v-68q0 -53 17.5 -90.5t51 -57t80.5 -19.5zM320 605q-47 0 -80.5 -19.5t-51 -56.5t-17.5 -91v-67l-12 22q8 12 30.5 24t51.5 12q22 0 41.5 -5.5t45.5 -20.5q22 -11 40.5 -17t36.5 -6q27 0 47.5 13.5t44.5 38.5l-27 -54
v60q0 54 -17.5 91t-50.5 56.5t-82 19.5z" />
    <glyph glyph-name="uni0473" unicode="&#x473;" horiz-adv-x="507" 
d="M253 -12q-69 0 -118 29.5t-75 90t-26 153.5q0 94 26 154.5t75 89.5t118 29q70 0 119 -29t75 -89.5t26 -154.5q0 -93 -26 -153.5t-75 -90t-119 -29.5zM253 81q48 0 74 27.5t26 83.5v34q-6 -8 -19 -13t-25 -5q-18 0 -31.5 5t-29.5 14q-14 9 -26 13t-24 4t-22.5 -4
t-22.5 -15v-33q0 -56 26.5 -83.5t73.5 -27.5zM153 330v-31q7 8 19.5 13t25.5 5q18 0 31.5 -5t29.5 -14q14 -8 26 -12.5t24 -4.5t22.5 4t21.5 15v30q0 56 -26 83.5t-74 27.5q-47 0 -73.5 -27.5t-26.5 -83.5z" />
    <glyph glyph-name="uni0474" unicode="&#x474;" horiz-adv-x="606" 
d="M367 0h-148l-205 698h129l118 -432l26 -154h14l25 154l84 347q10 44 36 64.5t73 20.5h71v-102h-65z" />
    <glyph glyph-name="uni0475" unicode="&#x475;" horiz-adv-x="493" 
d="M315 0h-153l-154 522h122l75 -278l27 -141h15l25 145l40 184q11 50 36.5 70t74.5 20h57v-96h-59z" />
    <glyph glyph-name="uni0490" unicode="&#x490;" horiz-adv-x="463" 
d="M72 0v698h249v152h117v-261h-241v-589h-125z" />
    <glyph glyph-name="uni0491" unicode="&#x491;" horiz-adv-x="399" 
d="M65 0v522h205v140h110v-236h-193v-426h-122z" />
    <glyph glyph-name="uni0492" unicode="&#x492;" horiz-adv-x="488" 
d="M97 0v304h-79v93h79v301h366v-109h-241v-192h160v-93h-160v-304h-125z" />
    <glyph glyph-name="uni0493" unicode="&#x493;" horiz-adv-x="414" 
d="M81 0v218h-60v77h60v227h314v-96h-193v-131h118v-77h-118v-218h-121z" />
    <glyph glyph-name="uni0494" unicode="&#x494;" horiz-adv-x="591" 
d="M291 -176v113h92q18 22 26 54.5t8 80.5v90q0 66 -26.5 96.5t-82.5 30.5q-37 0 -64 -6t-47 -16v-267h-125v698h366v-109h-241v-216h14q21 11 49 17t66 6q110 0 163 -58t53 -180v-89q0 -85 -24 -139t-68.5 -80t-106.5 -26h-52z" />
    <glyph glyph-name="uni0495" unicode="&#x495;" horiz-adv-x="511" 
d="M249 -200v97h76q11 15 17 39t6 71v102q0 54 -17.5 75.5t-59.5 21.5q-40 0 -62 -16t-22 -43v-147h-122v522h315v-96h-193v-186h14q11 30 39.5 48.5t76.5 18.5q79 0 115.5 -45t36.5 -146v-120q0 -100 -39.5 -148t-120.5 -48h-60z" />
    <glyph glyph-name="uni0496" unicode="&#x496;" horiz-adv-x="919" 
d="M791 -150v188l39 -38h-34q-37 0 -61 17t-41 57l-95 225h-88v-299h-125v299h-87l-96 -225q-16 -40 -40 -57t-61 -17h-68v109h56l78 185q14 31 28.5 43t34.5 14v13q-19 4 -33.5 17t-27.5 45l-68 163h-53v109h57q38 0 62.5 -17t40.5 -56l90 -218h87v291h125v-291h88l90 218
q16 39 41 56t62 17h57v-109h-54l-67 -163q-13 -32 -28 -45t-34 -17v-13q21 -2 36 -14t27 -43l78 -185h101v-259h-117z" />
    <glyph glyph-name="uni0497" unicode="&#x497;" horiz-adv-x="771" 
d="M646 -140v186l46 -46h-26q-35 0 -59.5 16t-40.5 56l-60 146h-63v-218h-122v218h-63l-60 -146q-16 -40 -40.5 -56t-59.5 -16h-59v97h48l50 120q9 23 22 34t31 12v13q-16 2 -27 12t-23 37l-43 101h-50v96h53q37 0 60 -16t39 -53l59 -139h63v208h122v-208h63l59 139
q16 37 39.5 53t59.5 16h53v-96h-50l-43 -101q-11 -27 -22 -37t-28 -12v-13q18 -1 31 -12t22 -34l50 -120h78v-237h-109z" />
    <glyph glyph-name="uni0498" unicode="&#x498;" horiz-adv-x="545" 
d="M199 -150v143q-52 7 -95 31.5t-77 73.5l84 81q22 -39 58 -59.5t87 -20.5q40 0 66 10.5t38 31t12 49.5v27q0 39 -23.5 61t-74.5 22h-106v108h100q32 0 52.5 10t30.5 29.5t10 46.5v27q0 39 -25.5 59t-74.5 20q-50 0 -82.5 -18t-54.5 -53l-78 75q33 52 85.5 79t129.5 27
q110 0 171 -51t61 -140q0 -70 -37 -107t-92 -43v-15q37 -1 69 -18t52 -50t20 -85q0 -92 -53 -144.5t-136 -65.5v-141h-117z" />
    <glyph glyph-name="uni0499" unicode="&#x499;" horiz-adv-x="472" 
d="M169 -140v133q-46 8 -81.5 31t-65.5 62l73 75q22 -36 55 -55.5t75 -19.5q43 0 64.5 18.5t21.5 49.5v11q0 29 -17 43.5t-51 14.5h-96v86h85q33 0 50 14.5t17 41.5v12q0 26 -19 42.5t-57 16.5q-41 0 -71 -18.5t-48 -51.5l-72 68q32 46 81 73t118 27q94 0 143 -38.5
t49 -102.5q0 -48 -23.5 -75t-74.5 -36v-15q54 -7 81.5 -36.5t27.5 -77.5q0 -65 -41 -107t-114 -54v-132h-110z" />
    <glyph glyph-name="uni049A" unicode="&#x49a;" horiz-adv-x="624" 
d="M497 -150v194l42 -44h-38q-35 0 -59 16t-42 55l-107 228h-96v-299h-125v698h125v-291h96l102 218q18 39 42.5 56t61.5 17h56v-109h-53l-80 -169q-13 -28 -27 -40t-34 -16v-13q21 -1 36 -14t29 -43l87 -185h101v-259h-117z" />
    <glyph glyph-name="uni049B" unicode="&#x49b;" horiz-adv-x="536" 
d="M410 -140v186l47 -46h-27q-35 0 -58.5 15.5t-41.5 54.5l-70 148h-73v-218h-122v522h122v-208h73l68 140q19 38 41.5 53t57.5 15h54v-96h-50l-51 -103q-12 -25 -22.5 -35t-27.5 -12v-13q18 -1 30.5 -11.5t23.5 -33.5l57 -121h79v-237h-110z" />
    <glyph glyph-name="uni049C" unicode="&#x49c;" horiz-adv-x="667" 
d="M72 0v698h125v-291h42v142h93v-142h34l90 213q20 40 45.5 59t63.5 19h53v-111h-55l-67 -163q-10 -24 -24.5 -39t-37.5 -21v-13q23 -1 40 -16t29 -45l74 -179h56v-111h-68q-35 0 -60.5 15.5t-44.5 61.5l-94 222h-34v-142h-93v142h-42v-299h-125z" />
    <glyph glyph-name="uni049D" unicode="&#x49d;" horiz-adv-x="591" 
d="M65 0v522h122v-208h40v116h75v-116h29l57 134q17 42 41 58t61 16h55v-96h-51l-44 -103q-10 -25 -21 -35t-28 -12v-13q18 -1 30 -11.5t21 -33.5l51 -121h51v-97h-60q-37 0 -61 16.5t-41 55.5l-61 146h-29v-115h-75v115h-40v-218h-122z" />
    <glyph glyph-name="uni049E" unicode="&#x49e;" horiz-adv-x="634" 
d="M104 0v543h-88v92h88v63h124v-63h114v-92h-114v-136h97l102 218q18 39 42 56t61 17h56v-109h-53l-79 -169q-14 -28 -28 -40t-33 -16v-13q20 -1 35.5 -14t29.5 -43l87 -185h55v-109h-67q-35 0 -59 16t-43 55l-106 228h-97v-299h-124z" />
    <glyph glyph-name="uni049F" unicode="&#x49f;" horiz-adv-x="528" 
d="M65 0v585h-56v76h56v79h121v-79h128v-76h-128v-271h73l69 140q18 38 40.5 53t58.5 15h54v-96h-51l-50 -103q-13 -25 -23 -35t-27 -12v-13q17 -1 30 -11.5t23 -33.5l58 -121h49v-97h-60q-36 0 -59 15.5t-42 54.5l-70 148h-73v-218h-121z" />
    <glyph glyph-name="uni04A0" unicode="&#x4a0;" horiz-adv-x="700" 
d="M170 0v589h-146v109h270v-291h97l102 218q18 39 42 56t61 17h56v-109h-53l-80 -169q-13 -28 -27 -40t-34 -16v-13q21 -1 36.5 -14t29.5 -43l86 -185h56v-109h-67q-35 0 -59 16t-43 55l-106 228h-97v-299h-124z" />
    <glyph glyph-name="uni04A1" unicode="&#x4a1;" horiz-adv-x="600" 
d="M137 0v426h-119v96h240v-208h74l68 140q18 38 40.5 53t58.5 15h54v-96h-50l-51 -103q-12 -25 -22.5 -35t-27.5 -12v-13q17 -1 30 -11.5t24 -33.5l57 -121h50v-97h-61q-35 0 -58.5 15.5t-41.5 54.5l-70 148h-74v-218h-121z" />
    <glyph glyph-name="uni04A2" unicode="&#x4a2;" horiz-adv-x="700" 
d="M560 -150v150h-108v299h-255v-299h-125v698h125v-291h255v291h125v-589h100v-259h-117z" />
    <glyph glyph-name="uni04A3" unicode="&#x4a3;" horiz-adv-x="577" 
d="M451 -140v140h-91v219h-173v-219h-122v522h122v-207h173v207h121v-425h80v-237h-110z" />
    <glyph glyph-name="uni04A4" unicode="&#x4a4;" horiz-adv-x="823" 
d="M72 0v698h125v-291h236v291h365v-109h-240v-589h-125v299h-236v-299h-125z" />
    <glyph glyph-name="uni04A5" unicode="&#x4a5;" horiz-adv-x="686" 
d="M65 0v522h122v-207h166v207h314v-96h-193v-426h-121v219h-166v-219h-122z" />
    <glyph glyph-name="uni04A6" unicode="&#x4a6;" horiz-adv-x="928" 
d="M627 -176v113h92q18 22 26.5 54.5t8.5 80.5v90q0 66 -26.5 97t-78.5 30q-34 1 -59 -5.5t-45 -16.5v-267h-125v589h-223v-589h-125v698h473v-325h14q21 11 47 17t61 6q106 0 158.5 -58t52.5 -180v-89q0 -85 -24 -139t-68.5 -80t-105.5 -26h-53z" />
    <glyph glyph-name="uni04A7" unicode="&#x4a7;" horiz-adv-x="769" 
d="M507 -200v97h76q11 15 17 39t6 71v102q0 55 -16.5 76t-55.5 21q-37 0 -58.5 -16t-21.5 -43v-147h-121v426h-146v-426h-122v522h389v-282h15q11 30 39 48.5t73 18.5q75 0 110.5 -45t35.5 -146v-120q0 -100 -39.5 -148t-120.5 -48h-60z" />
    <glyph glyph-name="uni04A8" unicode="&#x4a8;" horiz-adv-x="812" 
d="M780 62v-106h-51q-57 0 -112.5 15t-101.5 42q-28 -12 -65.5 -18.5t-89.5 -6.5q-95 0 -165.5 39.5t-109.5 122.5t-39 214q0 112 34 189.5t94.5 117t142.5 39.5q14 0 26 -0.5t21 -2.5l-15 -106q-6 2 -15 2.5t-16 0.5q-45 0 -78 -18t-51.5 -53.5t-18.5 -85.5v-167
q0 -63 25 -106.5t67.5 -65.5t97.5 -22q21 0 35 1t24 3q-48 43 -72 108t-24 164q0 104 26.5 166.5t75.5 91t116 28.5t115 -28.5t75 -91.5t27 -166q0 -102 -29 -172t-93 -111q20 -8 44.5 -12.5t52.5 -4.5h47zM445 430v-114q0 -63 21 -109t66 -78q52 28 78 74t26 113v114
q0 54 -25 83.5t-71 29.5t-70.5 -29.5t-24.5 -83.5z" />
    <glyph glyph-name="uni04A9" unicode="&#x4a9;" horiz-adv-x="647" 
d="M626 53v-97h-48q-46 0 -91 12.5t-83 35.5q-19 -7 -47.5 -11.5t-61.5 -4.5q-79 0 -138 31.5t-91 94.5t-32 157q0 87 24.5 145.5t73 88t117.5 29.5q9 0 16.5 -0.5t14.5 -1.5l-10 -93q-5 2 -10.5 2h-12.5q-40 0 -65.5 -28t-25.5 -83v-113q0 -48 17 -81t49 -50t76 -17
q7 0 12.5 0.5t8.5 1.5q-32 34 -49 80t-17 115q0 112 45.5 166.5t131.5 54.5q87 0 132.5 -54.5t45.5 -166.5q0 -65 -24.5 -118.5t-73.5 -85.5q13 -4 31.5 -6.5t36.5 -2.5h48zM372 318v-86q0 -42 13.5 -71.5t40.5 -53.5q33 21 48 52.5t15 72.5v86q0 37 -15.5 57t-43.5 20
q-27 0 -42.5 -20t-15.5 -57z" />
    <glyph glyph-name="uni04AA" unicode="&#x4aa;" horiz-adv-x="581" 
d="M318 -12q-82 0 -143 35.5t-95 114.5t-34 207q0 130 34 210t95 117.5t143 37.5q93 0 146.5 -39t86.5 -120l-106 -56q-14 48 -40.5 76.5t-86.5 28.5q-65 0 -102 -42t-37 -122v-174q0 -80 37 -122t102 -42q61 0 90 31.5t44 80.5l102 -60q-34 -77 -88.5 -119.5t-147.5 -42.5z
M331 -209q-43 0 -69 12.5t-39 29.5l38 48q9 -10 23.5 -17.5t37.5 -7.5q22 0 31.5 7t9.5 24t-9.5 24t-31.5 7h-49l20 106h58l-17 -93h9q3 8 13 13.5t26 5.5q31 0 47.5 -18t16.5 -52q0 -31 -14 -51t-40 -29t-61 -9z" />
    <glyph glyph-name="uni04AB" unicode="&#x4ab;" horiz-adv-x="464" 
d="M251 -12q-105 0 -161 66t-56 207q0 140 56 206.5t161 66.5q76 0 122 -34.5t66 -96.5l-99 -44q-7 38 -28 57.5t-61 19.5q-45 0 -67.5 -27t-22.5 -81v-134q0 -54 22.5 -81t67.5 -27q41 0 63.5 20.5t33.5 61.5l94 -45q-23 -66 -70 -100.5t-121 -34.5zM260 -209
q-43 0 -69 12.5t-39 29.5l38 48q9 -10 23.5 -17.5t37.5 -7.5q22 0 31.5 7t9.5 24t-9.5 24t-31.5 7h-49l20 106h58l-17 -93h9q3 8 13 13.5t26 5.5q31 0 47.5 -18t16.5 -52q0 -31 -14 -51t-40 -29t-61 -9z" />
    <glyph glyph-name="uni04AC" unicode="&#x4ac;" horiz-adv-x="524" 
d="M500 589h-176v-480h100v-259h-117v150h-108v589h-175v109h476v-109z" />
    <glyph glyph-name="uni04AD" unicode="&#x4ad;" horiz-adv-x="440" 
d="M159 0v426h-141v96h404v-96h-141v-329h80v-237h-110v140h-92z" />
    <glyph glyph-name="uni04AE" unicode="&#x4ae;" horiz-adv-x="566" 
d="M345 0h-124v267l-214 431h137l135 -300h14l132 300h134l-214 -431v-267z" />
    <glyph glyph-name="uni04AF" unicode="&#x4af;" horiz-adv-x="477" 
d="M178 -200v200l-170 522h122l68 -231l37 -164h14l35 164l68 231h117l-170 -522v-200h-121z" />
    <glyph glyph-name="uni04B0" unicode="&#x4b0;" horiz-adv-x="566" 
d="M221 0v174h-130v93h130l-214 431h137l135 -300h14l132 300h134l-214 -431h129v-93h-129v-174h-124z" />
    <glyph glyph-name="uni04B1" unicode="&#x4b1;" horiz-adv-x="477" 
d="M178 -200v124h-108v76h108l-170 522h122l68 -231l37 -164h14l35 164l68 231h117l-170 -522h108v-76h-108v-124h-121z" />
    <glyph glyph-name="uni04B2" unicode="&#x4b2;" horiz-adv-x="622" 
d="M497 -150v150h-63l-136 261h-13l-134 -261h-134l199 357l-189 341h143l124 -242h14l126 242h134l-192 -340l141 -249h97v-259h-117z" />
    <glyph glyph-name="uni04B3" unicode="&#x4b3;" horiz-adv-x="505" 
d="M388 -140v140h-42l-98 176h-13l-96 -176h-124l156 267l-154 255h132l92 -168h13l93 168h126l-157 -258l103 -167h79v-237h-110z" />
    <glyph glyph-name="uni04B4" unicode="&#x4b4;" horiz-adv-x="804" 
d="M664 -150v150h-480v589h-160v109h444v-109h-160v-480h248v589h125v-589h100v-259h-117z" />
    <glyph glyph-name="uni04B5" unicode="&#x4b5;" horiz-adv-x="654" 
d="M529 -140v140h-389v426h-122v96h364v-96h-121v-329h176v425h121v-425h80v-237h-109z" />
    <glyph glyph-name="uni04B6" unicode="&#x4b6;" horiz-adv-x="652" 
d="M512 -150v150h-108v262h-14q-21 -11 -50 -17.5t-69 -6.5q-112 0 -167 56.5t-55 174.5v229h125v-232q0 -63 28 -92t87 -29q39 0 67.5 6.5t47.5 16.5v330h125v-589h100v-259h-117z" />
    <glyph glyph-name="uni04B7" unicode="&#x4b7;" horiz-adv-x="544" 
d="M418 -140v140h-91v229h-15q-11 -30 -40.5 -48.5t-75.5 -18.5q-77 0 -114 44.5t-37 132.5v183h121v-176q0 -42 18 -62.5t59 -20.5q40 0 62 16t22 43v200h121v-425h80v-237h-110z" />
    <glyph glyph-name="uni04B8" unicode="&#x4b8;" horiz-adv-x="617" 
d="M420 0v259h-15q-12 -6 -27 -11t-31 -7v-134h-93v131q-103 6 -154 61t-51 170v229h125v-232q0 -56 20.5 -83t59.5 -35v152h93v-154q18 2 36.5 6.5t36.5 12.5v333h124v-698h-124z" />
    <glyph glyph-name="uni04B9" unicode="&#x4b9;" horiz-adv-x="526" 
d="M340 0v217h-11q-5 -11 -15.5 -22.5t-22.5 -19.5v-97h-76v86q-87 0 -128.5 43.5t-41.5 131.5v183h121v-176q0 -36 12.5 -55.5t36.5 -26.5v143h76v-143q21 3 35 18t14 40v200h121v-522h-121z" />
    <glyph glyph-name="uni04BA" unicode="&#x4ba;" horiz-adv-x="601" 
d="M72 0v698h125v-262h14q21 12 50.5 18t68.5 6q112 0 167 -56.5t55 -174.5v-229h-125v232q0 64 -27.5 92.5t-87.5 28.5q-39 0 -67 -6.5t-48 -16.5v-330h-125z" />
    <glyph glyph-name="uni04BB" unicode="&#x4bb;" horiz-adv-x="532" 
d="M65 0v740h122v-305h14q13 43 43 71t83 28q70 0 107.5 -47.5t37.5 -135.5v-351h-121v330q0 51 -18.5 77.5t-57.5 26.5q-24 0 -44 -10t-32 -28.5t-12 -45.5v-350h-122z" />
    <glyph glyph-name="uni04BC" unicode="&#x4bc;" horiz-adv-x="775" 
d="M733 349v-37h-457l42 33v-63q0 -65 15.5 -106t46.5 -60t79 -19q63 0 96 30t48 90l110 -39q-16 -56 -48.5 -99t-83 -67t-122.5 -24q-84 0 -144 35.5t-93 107.5t-37 181h-76q-42 0 -63 20.5t-21 60.5v130h102v-111h59q8 98 40.5 164.5t90.5 100t142 33.5t145.5 -36.5
t95 -116t33.5 -208.5zM459 601q-50 0 -81 -18.5t-45.5 -57.5t-14.5 -100v-43l-42 30h362l-38 -36v49q0 61 -15 100t-46 57.5t-80 18.5z" />
    <glyph glyph-name="uni04BD" unicode="&#x4bd;" horiz-adv-x="628" 
d="M387 -12q-69 0 -118.5 28.5t-77.5 83t-33 131.5h-69q-36 0 -53 21t-17 59v103h96v-108h44q9 108 61.5 168t156.5 60q70 0 118 -29t73.5 -89.5t25.5 -154.5v-30h-310v-33q0 -52 30 -82.5t80 -30.5q43 0 72.5 19.5t50.5 53.5l65 -69q-29 -46 -78 -73.5t-117 -27.5zM377 441
q-30 0 -50.5 -12t-31.5 -36t-11 -60v-27h183v27q0 36 -10 60t-30 36t-50 12z" />
    <glyph glyph-name="uni04BE" unicode="&#x4be;" horiz-adv-x="775" 
d="M733 349v-37h-457l42 33v-63q0 -65 15.5 -106t46.5 -60t79 -19q63 0 96 30t48 90l110 -39q-15 -52 -41.5 -90t-64 -61.5t-85.5 -32.5v-144h-116v142q-67 11 -115 49t-75 105t-31 166h-76q-42 0 -63 20.5t-21 60.5v130h102v-111h59q8 98 40.5 164.5t90.5 100t142 33.5
t145.5 -36.5t95 -116t33.5 -208.5zM459 601q-50 0 -81 -18.5t-45.5 -57.5t-14.5 -100v-43l-42 30h362l-39 -36l1 49q0 61 -14.5 100t-46 57.5t-80.5 18.5z" />
    <glyph glyph-name="uni04BF" unicode="&#x4bf;" horiz-adv-x="628" 
d="M441 -7v-133h-110v134q-72 15 -119 72.5t-54 164.5h-69q-36 0 -53 21t-17 59v103h96v-108h44q9 108 61.5 168t156.5 60q70 0 118 -29t73.5 -89.5t25.5 -154.5v-30h-310v-33q0 -52 30 -82.5t80 -30.5q43 0 72.5 19.5t50.5 53.5l65 -69q-25 -40 -61.5 -64t-79.5 -32z
M377 441q-30 0 -50.5 -12t-31.5 -36t-11 -60v-27h183v27q0 36 -10 60t-30 36t-50 12z" />
    <glyph glyph-name="uni04C0" unicode="&#x4c0;" horiz-adv-x="387" 
d="M339 0h-292v99h84v500h-84v99h292v-99h-83v-500h83v-99z" />
    <glyph glyph-name="uni04C1" unicode="&#x4c1;" horiz-adv-x="898" 
d="M34 0v109h56l78 185q14 31 28.5 43t34.5 14v13q-19 4 -33.5 17t-27.5 45l-68 163h-53v109h57q38 0 62.5 -17t40.5 -56l90 -218h87v291h125v-291h88l90 218q16 39 41 56t62 17h57v-109h-54l-67 -163q-13 -32 -28 -45t-34 -17v-13q21 -2 35.5 -14t27.5 -43l78 -185h57v-109
h-68q-37 0 -61 17t-41 57l-95 225h-88v-299h-125v299h-87l-96 -225q-16 -40 -40 -57t-61 -17h-68zM449 744q-56 0 -92 23.5t-56 78.5l-19 49l95 37l32 -101q9 -4 19.5 -5.5t20.5 -1.5q11 0 21.5 1.5t18.5 5.5l32 101l95 -37l-19 -49q-20 -55 -55.5 -78.5t-92.5 -23.5z" />
    <glyph glyph-name="uni04C2" unicode="&#x4c2;" horiz-adv-x="764" 
d="M39 0v97h48l50 120q9 23 22 34t31 12v13q-16 2 -27 12t-23 37l-43 101h-50v96h53q37 0 60 -16t39 -53l59 -139h63v208h122v-208h63l59 139q16 37 39.5 53t59.5 16h53v-96h-50l-43 -101q-11 -27 -22 -37t-28 -12v-13q18 -1 31 -12t22 -34l50 -120h48v-97h-59
q-35 0 -59.5 16t-40.5 56l-60 146h-63v-218h-122v218h-63l-60 -146q-16 -40 -40.5 -56t-59.5 -16h-59zM382 584q-56 0 -92.5 24t-56.5 78l-18 49l94 38l33 -102q9 -3 19.5 -4.5t20.5 -1.5q11 0 21.5 1.5t18.5 4.5l33 102l94 -38l-18 -49q-20 -54 -56 -78t-93 -24z" />
    <glyph glyph-name="uni04CF" unicode="&#x4cf;" horiz-adv-x="252" 
d="M65 0v740h122v-740h-122z" />
    <glyph glyph-name="uni04D0" unicode="&#x4d0;" horiz-adv-x="606" 
d="M586 0h-123l-49 182h-225l-49 -182h-120l204 698h158zM384 283l-54 191l-22 111h-14l-22 -111l-53 -191h165zM304 744q-56 0 -92 23.5t-56 78.5l-19 49l95 37l32 -101q9 -4 19.5 -5.5t20.5 -1.5q11 0 21.5 1.5t18.5 5.5l32 101l95 -37l-19 -49q-20 -55 -55.5 -78.5
t-92.5 -23.5z" />
    <glyph glyph-name="uni04D1" unicode="&#x4d1;" horiz-adv-x="506" 
d="M479 0h-73q-24 0 -43.5 9t-31 31.5t-11.5 60.5v16l25 -28h-36q-10 -47 -45 -74t-87 -27q-71 0 -107.5 40.5t-36.5 111.5q0 54 23 90.5t67 54t108 17.5h81v45q0 46 -19.5 68t-64.5 22q-37 0 -62 -18t-44 -49l-71 64q28 46 73.5 73t113.5 27q98 0 146.5 -46.5t48.5 -137.5
v-253h46v-97zM312 227h-73q-43 0 -63.5 -17t-20.5 -48v-22q0 -33 18 -48t50 -15q25 0 45 10t32 28t12 43v69zM239 584q-56 0 -92.5 24t-56.5 78l-18 49l94 38l33 -102q9 -3 19.5 -4.5t20.5 -1.5q11 0 21.5 1.5t18.5 4.5l33 102l94 -38l-18 -49q-20 -54 -56 -78t-93 -24z" />
    <glyph glyph-name="uni04D2" unicode="&#x4d2;" horiz-adv-x="606" 
d="M586 0h-123l-49 182h-225l-49 -182h-120l204 698h158zM384 283l-54 191l-22 111h-14l-22 -111l-53 -191h165zM211 773q-36 0 -51 14t-15 39v25q0 25 15 39t51 14t51 -14t15 -39v-25q0 -25 -15 -39t-51 -14zM397 773q-36 0 -51 14t-15 39v25q0 25 15 39t51 14t51 -14
t15 -39v-25q0 -25 -15 -39t-51 -14z" />
    <glyph glyph-name="uni04D3" unicode="&#x4d3;" horiz-adv-x="506" 
d="M479 0h-73q-24 0 -43.5 9t-31 31.5t-11.5 60.5v16l25 -28h-36q-10 -47 -45 -74t-87 -27q-71 0 -107.5 40.5t-36.5 111.5q0 54 23 90.5t67 54t108 17.5h81v45q0 46 -19.5 68t-64.5 22q-37 0 -62 -18t-44 -49l-71 64q28 46 73.5 73t113.5 27q98 0 146.5 -46.5t48.5 -137.5
v-253h46v-97zM312 227h-73q-43 0 -63.5 -17t-20.5 -48v-22q0 -33 18 -48t50 -15q25 0 45 10t32 28t12 43v69zM146 607q-36 0 -51 14t-15 39v26q0 24 15 38t51 14t51 -14t15 -38v-26q0 -25 -15 -39t-51 -14zM332 607q-36 0 -51 14t-15 39v26q0 24 15 38t51 14t51 -14t15 -38
v-26q0 -25 -15 -39t-51 -14z" />
    <glyph glyph-name="uni04D4" unicode="&#x4d4;" horiz-adv-x="859" 
d="M389 0v182h-186l-76 -182h-126l304 698h502v-109h-294v-182h258v-108h-258v-190h294v-109h-418zM389 589h-15l-129 -307h144v307z" />
    <glyph glyph-name="uni04D5" unicode="&#x4d5;" horiz-adv-x="783" 
d="M317 230h-78q-43 0 -63.5 -18.5t-20.5 -49.5v-22q0 -33 18 -48t50 -15q25 0 46.5 10t34.5 28t13 43v72zM439 304h183v29q0 36 -10 60t-30 36t-50 12t-51 -12t-31.5 -36t-10.5 -60v-29zM549 85q43 0 72.5 19.5t50.5 53.5l65 -69q-29 -45 -75.5 -73t-112.5 -28
q-40 0 -76.5 13t-62 37t-33.5 57h-15q-8 -31 -31.5 -55.5t-60.5 -38t-86 -13.5q-75 0 -113 40.5t-38 111.5q0 55 23 91.5t67 54.5t108 18h86v43q0 45 -22 67.5t-67 22.5q-37 0 -62 -18t-44 -49l-71 64q28 45 72 72.5t108 27.5q32 0 61.5 -10.5t51.5 -34t28 -62.5h12
q8 35 29.5 59t54.5 36t71 12q67 0 113.5 -29.5t71 -90.5t24.5 -155v-29h-309v-32q0 -52 29.5 -82.5t80.5 -30.5z" />
    <glyph glyph-name="uni04D6" unicode="&#x4d6;" horiz-adv-x="542" 
d="M491 0h-419v698h419v-109h-294v-182h257v-108h-257v-190h294v-109zM281 744q-56 0 -92 23.5t-56 78.5l-19 49l95 37l32 -101q9 -4 19.5 -5.5t20.5 -1.5q11 0 21.5 1.5t18.5 5.5l32 101l95 -37l-19 -49q-20 -55 -55.5 -78.5t-92.5 -23.5z" />
    <glyph glyph-name="uni04D7" unicode="&#x4d7;" horiz-adv-x="504" 
d="M263 -12q-68 0 -119.5 29.5t-80.5 90t-29 153.5q0 94 26 154.5t75 89.5t118 29q70 0 118 -29t73.5 -89.5t25.5 -154.5v-30h-309v-33q0 -52 29.5 -82.5t79.5 -30.5q43 0 72.5 19.5t50.5 53.5l66 -69q-29 -46 -78 -73.5t-118 -27.5zM253 441q-29 0 -50 -12t-31.5 -36
t-10.5 -60v-27h182v27q0 36 -10 60t-29.5 36t-50.5 12zM253 584q-56 0 -92.5 24t-56.5 78l-18 49l94 38l33 -102q9 -3 19.5 -4.5t20.5 -1.5q11 0 21.5 1.5t18.5 4.5l33 102l94 -38l-18 -49q-20 -54 -56 -78t-93 -24z" />
    <glyph glyph-name="uni04D8" unicode="&#x4d8;" horiz-adv-x="642" 
d="M46 386h415v30q0 98 -33.5 141.5t-106.5 43.5q-62 0 -95 -30t-48 -90l-110 39q16 57 48.5 99.5t83 66.5t121.5 24q84 0 146 -36.5t95.5 -116t33.5 -208.5q0 -128 -33.5 -208t-95.5 -116.5t-146 -36.5t-145.5 36.5t-95.5 116.5t-34 208v37zM180 286v-13q0 -60 14.5 -99.5
t46 -58t80.5 -18.5q50 0 81 18.5t45.5 58t14.5 99.5v13h-282z" />
    <glyph glyph-name="uni04D9" unicode="&#x4d9;" horiz-adv-x="504" 
d="M34 291h309v33q0 54 -29 83.5t-80 29.5q-43 0 -72 -19t-51 -54l-65 70q29 46 77.5 73t117.5 27t120.5 -29.5t80 -89.5t28.5 -153q0 -94 -26 -154.5t-75 -90t-118 -29.5t-117.5 29.5t-74 90t-25.5 154.5v29zM161 216v-26q0 -36 10 -60.5t30.5 -36.5t49.5 -12q30 0 50.5 12
t31 36.5t10.5 60.5v26h-182z" />
    <glyph glyph-name="uni04DC" unicode="&#x4dc;" horiz-adv-x="898" 
d="M34 0v109h56l78 185q14 31 28.5 43t34.5 14v13q-19 4 -33.5 17t-27.5 45l-68 163h-53v109h57q38 0 62.5 -17t40.5 -56l90 -218h87v291h125v-291h88l90 218q16 39 41 56t62 17h57v-109h-54l-67 -163q-13 -32 -28 -45t-34 -17v-13q21 -2 35.5 -14t27.5 -43l78 -185h57v-109
h-68q-37 0 -61 17t-41 57l-95 225h-88v-299h-125v299h-87l-96 -225q-16 -40 -40 -57t-61 -17h-68zM356 773q-36 0 -51 14t-15 39v25q0 25 15 39t51 14t51 -14t15 -39v-25q0 -25 -15 -39t-51 -14zM542 773q-36 0 -51 14t-15 39v25q0 25 15 39t51 14t51 -14t15 -39v-25
q0 -25 -15 -39t-51 -14z" />
    <glyph glyph-name="uni04DD" unicode="&#x4dd;" horiz-adv-x="764" 
d="M39 0v97h48l50 120q9 23 22 34t31 12v13q-16 2 -27 12t-23 37l-43 101h-50v96h53q37 0 60 -16t39 -53l59 -139h63v208h122v-208h63l59 139q16 37 39.5 53t59.5 16h53v-96h-50l-43 -101q-11 -27 -22 -37t-28 -12v-13q18 -1 31 -12t22 -34l50 -120h48v-97h-59
q-35 0 -59.5 16t-40.5 56l-60 146h-63v-218h-122v218h-63l-60 -146q-16 -40 -40.5 -56t-59.5 -16h-59zM289 607q-36 0 -51 14t-15 39v26q0 24 15 38t51 14t51 -14t15 -38v-26q0 -25 -15 -39t-51 -14zM475 607q-36 0 -51 14t-15 39v26q0 24 15 38t51 14t51 -14t15 -38v-26
q0 -25 -15 -39t-51 -14z" />
    <glyph glyph-name="uni04DE" unicode="&#x4de;" horiz-adv-x="545" 
d="M260 -12q-83 0 -139.5 28.5t-93.5 81.5l84 81q22 -39 58 -59.5t87 -20.5q40 0 66 10.5t38 31t12 49.5v27q0 39 -23.5 61t-74.5 22h-106v108h100q32 0 52.5 10t30.5 29.5t10 46.5v27q0 39 -25.5 59t-74.5 20q-50 0 -82.5 -18t-54.5 -53l-78 75q33 52 85.5 79t130.5 27
q112 0 171.5 -51t59.5 -140q0 -70 -37 -107t-92 -43v-15q37 -1 69 -18t52 -50t20 -85q0 -65 -29 -113.5t-84 -74t-132 -25.5zM165 773q-36 0 -51 14t-15 39v25q0 25 15 39t51 14t51 -14t15 -39v-25q0 -25 -15 -39t-51 -14zM351 773q-36 0 -51 14t-15 39v25q0 25 15 39t51 14
t51 -14t15 -39v-25q0 -25 -15 -39t-51 -14z" />
    <glyph glyph-name="uni04DF" unicode="&#x4df;" horiz-adv-x="472" 
d="M224 -12q-69 0 -117 25.5t-85 72.5l73 75q22 -36 55 -55.5t75 -19.5q43 0 64.5 18.5t21.5 49.5v11q0 29 -17 43.5t-51 14.5h-96v86h85q33 0 50 14.5t17 41.5v12q0 26 -19 42.5t-57 16.5q-41 0 -71 -18.5t-48 -51.5l-72 68q32 46 81 73t118 27q94 0 143 -38.5t49 -102.5
q0 -48 -23.5 -75t-74.5 -36v-15q54 -7 81.5 -36.5t27.5 -77.5q0 -76 -56 -120.5t-154 -44.5zM138 607q-36 0 -51 14t-15 39v26q0 24 15 38t51 14t51 -14t15 -38v-26q0 -25 -15 -39t-51 -14zM324 607q-36 0 -51 14t-15 39v26q0 24 15 38t51 14t51 -14t15 -38v-26
q0 -25 -15 -39t-51 -14z" />
    <glyph glyph-name="uni04E0" unicode="&#x4e0;" horiz-adv-x="545" 
d="M260 -12q-83 0 -139.5 28.5t-93.5 81.5l84 81q22 -39 58 -59.5t87 -20.5q40 0 66 11t38 31t12 50v32q0 28 -11.5 46.5t-33.5 28.5t-55 10h-122v107l182 175v13l-86 -14h-175v109h406v-117l-170 -164v-44l-27 31h26q54 0 99 -19.5t72.5 -61.5t27.5 -111q0 -72 -29 -122
t-84 -76t-132 -26z" />
    <glyph glyph-name="uni04E1" unicode="&#x4e1;" horiz-adv-x="449" 
d="M216 -199q-68 0 -116 26t-81 80l81 67q15 -38 44 -56.5t70 -18.5q29 0 49.5 11.5t31.5 33.5t11 52v47q0 45 -26 70.5t-74 25.5h-96v82l174 204v14l-79 -13h-148v96h345v-104l-157 -185v-48l-35 35h22q64 0 108 -21.5t67 -65.5t23 -112q0 -70 -25 -119t-72.5 -75
t-116.5 -26z" />
    <glyph glyph-name="uni04E2" unicode="&#x4e2;" horiz-adv-x="650" 
d="M72 0v698h121v-380l-9 -128h13l53 132l213 376h114v-698h-121v380l10 128h-13l-52 -130l-215 -378h-114zM189 792v92h270v-92h-270z" />
    <glyph glyph-name="uni04E3" unicode="&#x4e3;" horiz-adv-x="553" 
d="M65 0v522h119v-242l-17 -113h13l49 104l146 251h113v-522h-119v242l17 113h-13l-49 -104l-146 -251h-113zM141 628v92h270v-92h-270z" />
    <glyph glyph-name="uni04E4" unicode="&#x4e4;" horiz-adv-x="650" 
d="M72 0v698h121v-380l-9 -128h13l53 132l213 376h114v-698h-121v380l10 128h-13l-52 -130l-215 -378h-114zM231 773q-36 0 -51 14t-15 39v25q0 25 15 39t51 14t51 -14t15 -39v-25q0 -25 -15 -39t-51 -14zM417 773q-36 0 -51 14t-15 39v25q0 25 15 39t51 14t51 -14t15 -39
v-25q0 -25 -15 -39t-51 -14z" />
    <glyph glyph-name="uni04E5" unicode="&#x4e5;" horiz-adv-x="553" 
d="M65 0v522h119v-242l-17 -113h13l49 104l146 251h113v-522h-119v242l17 113h-13l-49 -104l-146 -251h-113zM183 607q-36 0 -51 14t-15 39v26q0 24 15 38t51 14t51 -14t15 -38v-26q0 -25 -15 -39t-51 -14zM369 607q-36 0 -51 14t-15 39v26q0 24 15 38t51 14t51 -14t15 -38
v-26q0 -25 -15 -39t-51 -14z" />
    <glyph glyph-name="uni04E6" unicode="&#x4e6;" horiz-adv-x="641" 
d="M320 -12q-84 0 -145 36.5t-95 116.5t-34 208q0 129 34 208.5t95 116t145 36.5q85 0 146 -36.5t94.5 -116t33.5 -208.5q0 -128 -33.5 -208t-94.5 -116.5t-146 -36.5zM320 98q46 0 77 19t48 56t17 89v174q0 53 -17 89.5t-48 55.5t-77 19q-44 0 -75.5 -19t-48.5 -55.5
t-17 -89.5v-174q0 -52 17 -89t48.5 -56t75.5 -19zM227 773q-36 0 -51 14t-15 39v25q0 25 15 39t51 14t51 -14t15 -39v-25q0 -25 -15 -39t-51 -14zM413 773q-36 0 -51 14t-15 39v25q0 25 15 39t51 14t51 -14t15 -39v-25q0 -25 -15 -39t-51 -14z" />
    <glyph glyph-name="uni04E7" unicode="&#x4e7;" horiz-adv-x="507" 
d="M253 -12q-69 0 -118 29.5t-75 90t-26 153.5q0 94 26 154.5t75 89.5t118 29q70 0 119 -29t75 -89.5t26 -154.5q0 -93 -26 -153.5t-75 -90t-119 -29.5zM253 86q45 0 69 27t24 81v134q0 54 -24 81t-69 27q-44 0 -68 -27t-24 -81v-134q0 -54 24 -81t68 -27zM160 607
q-36 0 -51 14t-15 39v26q0 24 15 38t51 14t51 -14t15 -38v-26q0 -25 -15 -39t-51 -14zM346 607q-36 0 -51 14t-15 39v26q0 24 15 38t51 14t51 -14t15 -38v-26q0 -25 -15 -39t-51 -14z" />
    <glyph glyph-name="uni04E8" unicode="&#x4e8;" horiz-adv-x="641" 
d="M320 -12q-84 0 -145 36.5t-95 116.5t-34 208q0 129 34 208.5t95 116t145 36.5q85 0 146 -36.5t94.5 -116t33.5 -208.5q0 -128 -33.5 -208t-94.5 -116.5t-146 -36.5zM320 93q49 0 82 19.5t50.5 57t17.5 90.5v71l38 -34h-376l39 34v-71q0 -53 17.5 -90.5t51 -57t80.5 -19.5
zM320 605q-47 0 -80.5 -19.5t-51 -56.5t-17.5 -91v-63l-39 31h376l-38 -34v66q0 54 -17.5 91t-50.5 56.5t-82 19.5z" />
    <glyph glyph-name="uni04E9" unicode="&#x4e9;" horiz-adv-x="507" 
d="M253 -12q-69 0 -118 29.5t-75 90t-26 153.5q0 94 26 154.5t75 89.5t118 29q70 0 119 -29t75 -89.5t26 -154.5q0 -93 -26 -153.5t-75 -90t-119 -29.5zM253 81q48 0 74 27.5t26 83.5v33h-199v-33q0 -56 26 -83.5t73 -27.5zM154 330v-29h199v29q0 56 -26 83.5t-74 27.5
q-47 0 -73 -27.5t-26 -83.5z" />
    <glyph glyph-name="uni04EE" unicode="&#x4ee;" horiz-adv-x="562" 
d="M112 0v109h105l21 59l-226 530h130l103 -254l41 -128h13l37 127l87 255h125l-226 -619q-10 -29 -25.5 -46.5t-37.5 -25t-53 -7.5h-94zM148 792v92h270v-92h-270z" />
    <glyph glyph-name="uni04EF" unicode="&#x4ef;" horiz-adv-x="483" 
d="M277 241l76 281h121l-199 -631q-11 -36 -28.5 -55.5t-43 -27.5t-63.5 -8h-82v97h103l21 74l-174 551h123l78 -282l28 -137h12zM107 628v92h270v-92h-270z" />
    <glyph glyph-name="uni04F0" unicode="&#x4f0;" horiz-adv-x="562" 
d="M112 0v109h105l21 59l-226 530h130l103 -254l41 -128h13l37 127l87 255h125l-226 -619q-10 -29 -25.5 -46.5t-37.5 -25t-53 -7.5h-94zM190 773q-36 0 -51 14t-15 39v25q0 25 15 39t51 14t51 -14t15 -39v-25q0 -25 -15 -39t-51 -14zM376 773q-36 0 -51 14t-15 39v25
q0 25 15 39t51 14t51 -14t15 -39v-25q0 -25 -15 -39t-51 -14z" />
    <glyph glyph-name="uni04F1" unicode="&#x4f1;" horiz-adv-x="483" 
d="M277 241l76 281h121l-199 -631q-11 -36 -28.5 -55.5t-43 -27.5t-63.5 -8h-82v97h103l21 74l-174 551h123l78 -282l28 -137h12zM149 607q-36 0 -51 14t-15 39v26q0 24 15 38t51 14t51 -14t15 -38v-26q0 -25 -15 -39t-51 -14zM335 607q-36 0 -51 14t-15 39v26q0 24 15 38
t51 14t51 -14t15 -38v-26q0 -25 -15 -39t-51 -14z" />
    <glyph glyph-name="uni04F2" unicode="&#x4f2;" horiz-adv-x="562" 
d="M112 0v109h105l21 59l-226 530h130l103 -254l41 -128h13l37 127l87 255h125l-226 -619q-10 -29 -25.5 -46.5t-37.5 -25t-53 -7.5h-94zM323 918l-119 -173l-67 32l89 189zM499 918l-118 -173l-67 32l89 189z" />
    <glyph glyph-name="uni04F3" unicode="&#x4f3;" horiz-adv-x="483" 
d="M277 241l76 281h121l-199 -631q-11 -36 -28.5 -55.5t-43 -27.5t-63.5 -8h-82v97h103l21 74l-174 551h123l78 -282l28 -137h12zM282 754l-119 -173l-67 32l89 189zM458 754l-118 -173l-67 32l89 189z" />
    <glyph glyph-name="uni04F4" unicode="&#x4f4;" horiz-adv-x="601" 
d="M404 0v262h-14q-21 -11 -50 -17.5t-69 -6.5q-112 0 -167 56.5t-55 174.5v229h125v-232q0 -63 28 -92t87 -29q39 0 67.5 6.5t47.5 16.5v330h125v-698h-125zM196 773q-36 0 -51 14t-15 39v25q0 25 15 39t51 14t51 -14t15 -39v-25q0 -25 -15 -39t-51 -14zM382 773
q-36 0 -51 14t-15 39v25q0 25 15 39t51 14t51 -14t15 -39v-25q0 -25 -15 -39t-51 -14z" />
    <glyph glyph-name="uni04F5" unicode="&#x4f5;" horiz-adv-x="513" 
d="M327 0v229h-15q-11 -30 -40.5 -48.5t-75.5 -18.5q-77 0 -114 44.5t-37 132.5v183h121v-176q0 -42 18 -62.5t59 -20.5q40 0 62 16t22 43v200h121v-522h-121zM154 607q-36 0 -51 14t-15 39v26q0 24 15 38t51 14t51 -14t15 -38v-26q0 -25 -15 -39t-51 -14zM340 607
q-36 0 -51 14t-15 39v26q0 24 15 38t51 14t51 -14t15 -38v-26q0 -25 -15 -39t-51 -14z" />
    <glyph glyph-name="uni04F6" unicode="&#x4f6;" horiz-adv-x="463" 
d="M72 0v698h366v-109h-241v-480h100v-259h-117v150h-108z" />
    <glyph glyph-name="uni04F7" unicode="&#x4f7;" horiz-adv-x="399" 
d="M65 0v522h315v-96h-193v-329h80v-237h-110v140h-92z" />
    <glyph glyph-name="uni04F8" unicode="&#x4f8;" horiz-adv-x="829" 
d="M72 0v698h125v-258h164q62 0 104 -26.5t63.5 -76t21.5 -117.5t-21.5 -117.5t-63.5 -76t-104 -26.5h-289zM197 109h152q22 0 38 8.5t25 26t9 43.5v67q0 27 -9 43.5t-25 25t-38 8.5h-152v-222zM632 0v698h124v-698h-124zM321 773q-36 0 -51 14t-15 39v25q0 25 15 39t51 14
t51 -14t15 -39v-25q0 -25 -15 -39t-51 -14zM507 773q-36 0 -51 14t-15 39v25q0 25 15 39t51 14t51 -14t15 -39v-25q0 -25 -15 -39t-51 -14z" />
    <glyph glyph-name="uni04F9" unicode="&#x4f9;" horiz-adv-x="714" 
d="M65 0v522h122v-168h105q53 0 91.5 -20.5t60 -60t21.5 -96.5q0 -55 -21.5 -95t-60 -61t-90.5 -21h-228zM187 90h84q34 0 52.5 17t18.5 51v39q0 34 -18.5 50.5t-52.5 16.5h-84v-174zM527 0v522h122v-522h-122zM263 607q-36 0 -51 14t-15 39v26q0 24 15 38t51 14t51 -14
t15 -38v-26q0 -25 -15 -39t-51 -14zM449 607q-36 0 -51 14t-15 39v26q0 24 15 38t51 14t51 -14t15 -38v-26q0 -25 -15 -39t-51 -14z" />
    <glyph glyph-name="uni0524" unicode="&#x524;" horiz-adv-x="686" 
d="M72 0v698h490v-589h100v-259h-116v150h-108v589h-241v-589h-125z" />
    <glyph glyph-name="uni0525" unicode="&#x525;" horiz-adv-x="565" 
d="M65 0v522h403v-425h81v-237h-110v140h-91v426h-161v-426h-122z" />
    <glyph glyph-name="uni0E3F" unicode="&#xe3f;" horiz-adv-x="597" 
d="M345 20v-102h-95v102h-178v658h178v102h95v-102h31q78 0 117.5 -43.5t39.5 -125.5q0 -71 -28 -102.5t-86 -36.5v-14q40 -1 70.5 -16t48.5 -46.5t18 -84.5q0 -57 -18.5 -99.5t-53.5 -66t-83 -23.5h-56zM187 400h74v178h-74v-178zM335 578v-178h21q29 0 43 16t14 51v45
q0 34 -14 50t-43 16h-21zM187 120h74v186h-74v-186zM335 306v-186h38q21 0 35 7.5t21 23t7 39.5v46q0 24 -7 39.5t-21 23t-35 7.5h-38z" />
    <glyph glyph-name="Wgrave" unicode="&#x1e80;" horiz-adv-x="862" 
d="M315 0h-147l-143 698h124l74 -405l20 -159h14l20 156l85 408h142l85 -408l20 -156h15l20 159l73 405h120l-150 -698h-144l-86 416l-20 151h-14l-20 -151zM418 744l-119 173l104 52l88 -190z" />
    <glyph glyph-name="wgrave" unicode="&#x1e81;" horiz-adv-x="739" 
d="M143 0l-127 522h119l51 -244l25 -168h12l30 168l58 244h122l59 -244l30 -168h12l25 168l53 244h112l-127 -522h-136l-61 254l-23 155h-13l-24 -155l-61 -254h-136zM357 581l-119 173l104 51l88 -189z" />
    <glyph glyph-name="Wacute" unicode="&#x1e82;" horiz-adv-x="862" 
d="M315 0h-147l-143 698h124l74 -405l20 -159h14l20 156l85 408h142l85 -408l20 -156h15l20 159l73 405h120l-150 -698h-144l-86 416l-20 151h-14l-20 -151zM563 917l-119 -173l-73 35l88 190z" />
    <glyph glyph-name="wacute" unicode="&#x1e83;" horiz-adv-x="739" 
d="M143 0l-127 522h119l51 -244l25 -168h12l30 168l58 244h122l59 -244l30 -168h12l25 168l53 244h112l-127 -522h-136l-61 254l-23 155h-13l-24 -155l-61 -254h-136zM502 754l-119 -173l-73 35l88 189z" />
    <glyph glyph-name="Wdieresis" unicode="&#x1e84;" horiz-adv-x="862" 
d="M315 0h-147l-143 698h124l74 -405l20 -159h14l20 156l85 408h142l85 -408l20 -156h15l20 159l73 405h120l-150 -698h-144l-86 416l-20 151h-14l-20 -151zM338 773q-36 0 -51 14t-15 39v25q0 25 15 39t51 14t51 -14t15 -39v-25q0 -25 -15 -39t-51 -14zM524 773
q-36 0 -51 14t-15 39v25q0 25 15 39t51 14t51 -14t15 -39v-25q0 -25 -15 -39t-51 -14z" />
    </font>
</defs>
</svg>
