<?xml version="1.0" standalone="no"?>
<!DOCTYPE svg PUBLIC "-//W3C//DTD SVG 1.1//EN" "http://www.w3.org/Graphics/SVG/1.1/DTD/svg11.dtd" >
<svg xmlns="http://www.w3.org/2000/svg" xmlns:xlink="http://www.w3.org/1999/xlink" version="1.1">
<metadata>
Created by FontForge 20201107 at Fri Jan 10 15:39:06 2025
 By 
Copyright 2019 IBM Corp. All rights reserved.
</metadata>
<defs>
<font id="IBMPlexSans-Light" horiz-adv-x="600" >
  <font-face 
    font-family="IBM Plex Sans Light"
    font-weight="300"
    font-stretch="normal"
    units-per-em="1000"
    panose-1="2 11 5 3 5 2 3 0 2 3"
    ascent="800"
    descent="-200"
    x-height="512"
    cap-height="698"
    bbox="-248 -232 1211 1108"
    underline-thickness="43"
    underline-position="-150"
    unicode-range="U+0020-FFFD"
  />
<missing-glyph horiz-adv-x="472" 
d="M32 0v780h408v-780h-408zM75 43h322v694h-322v-694z" />
    <glyph glyph-name="fi" unicode="fi" horiz-adv-x="545" 
d="M117 0v462h-88v50h88v143q0 39 20 62t60 23h90v-50h-113v-178h278v-512h-57v462h-221v-462h-57zM424 651q-21 0 -30 10t-9 26v10q0 16 9 26t30 10t30 -10t9 -26v-10q0 -16 -9 -26t-30 -10z" />
    <glyph glyph-name=".notdef" horiz-adv-x="472" 
d="M32 0v780h408v-780h-408zM75 43h322v694h-322v-694z" />
    <glyph glyph-name=".null" horiz-adv-x="0" 
 />
    <glyph glyph-name="nonmarkingreturn" horiz-adv-x="333" 
 />
    <glyph glyph-name="space" unicode=" " horiz-adv-x="236" 
 />
    <glyph glyph-name="exclam" unicode="!" horiz-adv-x="272" 
d="M150 181h-29l-16 283v234h62v-234zM136 -9q-24 0 -36 12t-12 33v11q0 20 12 32.5t36 12.5q25 0 36.5 -12.5t11.5 -32.5v-11q0 -21 -12 -33t-36 -12z" />
    <glyph glyph-name="quotedbl" unicode="&#x22;" horiz-adv-x="401" 
d="M143 472h-52v268h52v-268zM311 472h-52v268h52v-268z" />
    <glyph glyph-name="numbersign" unicode="#" horiz-adv-x="713" 
d="M377 0l37 211h-166l-37 -211h-47l36 211h-136v44h144l32 188h-137v44h145l36 211h47l-36 -211h166l36 211h48l-37 -211h137v-44h-145l-31 -188h137v-44h-145l-36 -211h-48zM255 255h166l32 188h-166z" />
    <glyph glyph-name="dollar" unicode="$" horiz-adv-x="578" 
d="M315 -82h-46v105l1 9v634l-1 9v105h46v-105l-1 -9v-634l1 -9v-105zM291 -1q-58 0 -103.5 15.5t-80 42.5t-59.5 60l43 37q23 -30 51.5 -53.5t65.5 -37t83 -13.5q53 0 91.5 17t59.5 48.5t21 75.5q0 43 -17 70t-49 43t-77 24l-60 11q-68 14 -111 39t-62.5 61.5t-19.5 83.5
q0 55 27 94.5t78 60.5t123 21q77 0 131 -30t86 -76l-44 -34q-26 38 -69.5 63.5t-105.5 25.5q-83 0 -126 -32.5t-43 -89.5q0 -42 18 -68.5t51 -41t75 -23.5l59 -12q72 -15 114.5 -40.5t60.5 -62t18 -84.5q0 -61 -28.5 -105t-80 -67t-120.5 -23z" />
    <glyph glyph-name="percent" unicode="%" horiz-adv-x="909" 
d="M241 0h-56l484 698h56zM221 319q-46 0 -80 21.5t-53 65t-19 108.5q0 66 19 109.5t53 65t80 21.5t80 -21.5t52.5 -65t18.5 -109.5q0 -65 -18.5 -108.5t-52.5 -65t-80 -21.5zM221 357q29 0 51.5 14t35 43.5t12.5 75.5v49q0 45 -12.5 74.5t-35 44t-51.5 14.5
q-30 0 -52.5 -14.5t-35 -44t-12.5 -74.5v-49q0 -46 12.5 -75.5t35 -43.5t52.5 -14zM689 -12q-46 0 -80 21.5t-53 65t-19 109.5t19 109t53 64.5t80 21.5t80 -21.5t53 -64.5t19 -109t-19 -109.5t-53 -65t-80 -21.5zM689 26q30 0 52 14.5t34.5 44t12.5 74.5v49q0 46 -12.5 75.5
t-34.5 43.5t-52 14t-52.5 -14t-34.5 -43.5t-12 -75.5v-49q0 -45 12 -74.5t34.5 -44t52.5 -14.5z" />
    <glyph glyph-name="ampersand" unicode="&#x26;" horiz-adv-x="687" 
d="M583 0l-90 94h-2q-17 -26 -45.5 -50t-69.5 -40t-96 -16q-66 0 -112.5 24.5t-71.5 67t-25 95.5q0 54 22 91t56.5 63t74.5 46q-40 44 -63 84.5t-23 87.5t21.5 83.5t61.5 58t93 21.5q50 0 86.5 -19t57.5 -51.5t21 -75.5q0 -47 -23 -81.5t-62 -62t-89 -53.5l181 -188
q16 39 24 86t9 96h125v-50h-78q-5 -47 -15.5 -90t-28.5 -80l135 -141h-74zM311 662q-53 0 -84.5 -31t-31.5 -76v-14q0 -24 10 -46.5t28 -46t40 -48.5q41 20 75 43t54.5 50t20.5 58v13q0 31 -15.5 53t-40.5 33.5t-56 11.5zM284 39q41 0 73.5 10.5t58 31t43.5 49.5l-204 212
q-33 -17 -61.5 -37t-45.5 -48t-17 -71v-17q0 -60 42.5 -95t110.5 -35z" />
    <glyph glyph-name="quotesingle" unicode="'" horiz-adv-x="233" 
d="M143 472h-52v268h52v-268z" />
    <glyph glyph-name="parenleft" unicode="(" horiz-adv-x="334" 
d="M92 312q0 99 25 184.5t66.5 153t90.5 110.5h56q-53 -47 -94.5 -114.5t-65.5 -145t-24 -156.5v-66q0 -78 24 -156.5t66 -145.5t94 -113h-56q-48 42 -89.5 109t-67 154t-25.5 186z" />
    <glyph glyph-name="parenright" unicode=")" horiz-adv-x="334" 
d="M242 312q0 -99 -25.5 -186t-66.5 -154t-90 -109h-56q52 46 94 113t66 145.5t24 156.5v66q0 79 -24 156.5t-65.5 145t-94.5 114.5h56q49 -43 90.5 -110.5t66.5 -153t25 -184.5z" />
    <glyph glyph-name="asterisk" unicode="*" horiz-adv-x="416" 
d="M183 747h50l-4 -148l2 -2l140 50l16 -49l-143 -40l-1 -3l91 -119l-40 -29l-85 124h-2l-85 -124l-40 29l91 119l-1 3l-143 40l15 49l141 -50l2 2z" />
    <glyph glyph-name="plus" unicode="+" 
d="M327 62h-54v219h-208v49h208v218h54v-218h208v-49h-208v-219z" />
    <glyph glyph-name="comma" unicode="," horiz-adv-x="260" 
d="M130 92q25 0 36.5 -13t11.5 -33v-13q0 -41 -23.5 -89t-62.5 -82h-48q33 34 50.5 66t23.5 65q-19 3 -27.5 14t-8.5 27v12q0 20 11.5 33t36.5 13z" />
    <glyph glyph-name="hyphen" unicode="-" horiz-adv-x="397" 
d="M323 274h-249v61h249v-61z" />
    <glyph glyph-name="period" unicode="." horiz-adv-x="260" 
d="M130 -9q-24 0 -36 12.5t-12 32.5v11q0 20 12 32.5t36 12.5q25 0 36.5 -12.5t11.5 -32.5v-11q0 -20 -11.5 -32.5t-36.5 -12.5z" />
    <glyph glyph-name="slash" unicode="/" horiz-adv-x="356" 
d="M62 -151h-51l252 891h51z" />
    <glyph glyph-name="zero" unicode="0" 
d="M300 -12q-79 0 -131.5 40.5t-78.5 121t-26 199.5t26 199.5t78.5 121t131.5 40.5q80 0 132 -40.5t78 -121t26 -199.5t-26 -199.5t-78 -121t-132 -40.5zM300 40q60 0 97.5 31.5t56.5 90.5t19 140v94q0 82 -19 140.5t-56.5 90t-97.5 31.5q-59 0 -97 -31.5t-57 -90
t-19 -140.5v-94q0 -81 19 -140t57 -90.5t97 -31.5z" />
    <glyph glyph-name="one" unicode="1" 
d="M546 0h-456v53h204v601h-5l-192 -171l-35 39l197 176h95v-645h192v-53z" />
    <glyph glyph-name="two" unicode="2" 
d="M528 53v-53h-448v61l244 234q49 47 80 98.5t31 103.5v19q0 61 -36 100.5t-108 39.5q-70 0 -107.5 -35t-53.5 -91l-54 20q14 42 40.5 78.5t70 59t106.5 22.5q66 0 112 -25t70 -69.5t24 -104.5q0 -51 -17.5 -94t-48 -82t-73.5 -78l-215 -204h383z" />
    <glyph glyph-name="three" unicode="3" 
d="M185 392h83q73 0 113.5 36t40.5 92v13q0 59 -39 91t-101 32q-61 0 -97.5 -24.5t-58.5 -66.5l-45 32q16 30 43 55.5t66 41.5t93 16q58 0 104 -21t72 -60t26 -94q0 -70 -39 -111t-97 -54v-4q42 -6 76 -28t54 -59t20 -90q0 -60 -28 -105.5t-78.5 -70.5t-118.5 -25
q-55 0 -97 15t-72 41t-52 58l45 34q29 -45 69.5 -69.5t105.5 -24.5q77 0 120 38t43 103v16q0 66 -42.5 103.5t-120.5 37.5h-88v52z" />
    <glyph glyph-name="four" unicode="4" 
d="M446 0h-57v146h-347v53l318 499h86v-502h108v-50h-108v-146zM386 647l-288 -451h291v451h-3z" />
    <glyph glyph-name="five" unicode="5" 
d="M491 698v-53h-312l-22 -292l6 -1q18 25 39 41.5t49 24.5t64 8q62 0 108 -25.5t71.5 -73t25.5 -114.5t-27 -118t-77 -79t-120 -28q-54 0 -95 15t-70 41t-51 58l45 34q29 -45 67.5 -69.5t103.5 -24.5q77 0 119 42.5t42 115.5v17q0 73 -41 115.5t-117 42.5
q-55 0 -85.5 -17.5t-56.5 -46.5l-52 8l25 379h361z" />
    <glyph glyph-name="six" unicode="6" 
d="M301 -12q-74 0 -124.5 32.5t-76 90t-25.5 133.5q0 81 22 150t59 126.5t83 102t94 75.5h79q-77 -52 -132 -107t-90 -119t-52 -146l4 -1q18 31 42 54.5t57 35.5t75 12q62 0 109 -25.5t73 -73.5t26 -114q0 -67 -27.5 -118.5t-77.5 -79.5t-118 -28zM300 40q51 0 87 19.5
t55.5 55.5t19.5 85v17q0 48 -19.5 84t-55.5 55.5t-87 19.5q-52 0 -88 -19.5t-55.5 -55.5t-19.5 -84v-16q0 -49 20 -85t56 -56t87 -20z" />
    <glyph glyph-name="seven" unicode="7" 
d="M244 0h-64l280 646h-334v-144h-54v196h449v-53z" />
    <glyph glyph-name="eight" unicode="8" 
d="M300 -12q-75 0 -128 25.5t-81 70.5t-28 102q0 72 40 117t107 60v7q-57 16 -90.5 59t-33.5 106q0 80 57 127.5t157 47.5t157 -47.5t57 -127.5q0 -63 -33.5 -106t-90.5 -59v-7q67 -15 107 -60t40 -117q0 -57 -28 -102t-80.5 -70.5t-128.5 -25.5zM300 40q81 0 127 38t46 101
v23q0 64 -46 101.5t-127 37.5t-127 -37.5t-46 -101.5v-23q0 -63 46 -101t127 -38zM300 392q72 0 112 33t40 91v18q0 58 -40 91t-112 33t-112 -33t-40 -91v-18q0 -58 40 -91t112 -33z" />
    <glyph glyph-name="nine" unicode="9" 
d="M526 454q0 -81 -21.5 -150t-59 -126.5t-83.5 -102t-94 -75.5h-78q77 53 131.5 107.5t89.5 118.5t52 146l-4 1q-16 -31 -41 -54t-58 -35.5t-75 -12.5q-61 0 -108.5 25.5t-73.5 74t-26 113.5q0 68 27.5 119t78 79t118.5 28q74 0 124 -32.5t75.5 -90t25.5 -133.5zM302 322
q51 0 87 19.5t55.5 55.5t19.5 84v16q0 49 -19.5 85t-56 56t-86.5 20q-51 0 -87.5 -19.5t-56 -55.5t-19.5 -85v-17q0 -48 19.5 -84t55.5 -55.5t88 -19.5z" />
    <glyph glyph-name="colon" unicode=":" horiz-adv-x="280" 
d="M140 -9q-24 0 -36 12.5t-12 32.5v11q0 20 12 32.5t36 12.5q25 0 36.5 -12.5t11.5 -32.5v-11q0 -20 -11.5 -32.5t-36.5 -12.5zM140 420q-24 0 -36 12.5t-12 32.5v11q0 20 12 32.5t36 12.5q25 0 36.5 -12.5t11.5 -32.5v-11q0 -20 -11.5 -32.5t-36.5 -12.5z" />
    <glyph glyph-name="semicolon" unicode=";" horiz-adv-x="280" 
d="M140 92q25 0 36.5 -13t11.5 -33v-13q0 -41 -23.5 -89t-62.5 -82h-48q33 34 50.5 66t23.5 65q-19 3 -27.5 14t-8.5 27v12q0 20 11.5 33t36.5 13zM140 420q-24 0 -36 12.5t-12 32.5v11q0 20 12 32.5t36 12.5q25 0 36.5 -12.5t11.5 -32.5v-11q0 -20 -11.5 -32.5t-36.5 -12.5
z" />
    <glyph glyph-name="less" unicode="&#x3c;" 
d="M512 7l-424 253v56l424 252v-60l-369 -217v-6l369 -217v-61z" />
    <glyph glyph-name="equal" unicode="=" 
d="M535 377h-470v49h470v-49zM535 186h-470v49h470v-49z" />
    <glyph glyph-name="greater" unicode="&#x3e;" 
d="M88 7v61l369 217v6l-369 217v60l424 -252v-56z" />
    <glyph glyph-name="question" unicode="?" horiz-adv-x="469" 
d="M242 196h-56v167q87 3 136 43t49 107v19q0 56 -36.5 91t-98.5 35q-64 0 -102 -34.5t-53 -90.5l-53 19q14 45 40 81t68.5 56.5t101.5 20.5q60 0 103.5 -23t67.5 -64.5t24 -97.5q0 -62 -26 -104.5t-69.5 -67t-95.5 -32.5v-125zM214 -9q-23 0 -35 12t-12 33v11q0 20 12 32.5
t35 12.5q25 0 36.5 -12.5t11.5 -32.5v-11q0 -21 -11.5 -33t-36.5 -12z" />
    <glyph glyph-name="at" unicode="@" horiz-adv-x="887" 
d="M678 -77v-44h-234q-110 0 -195 50t-133.5 143t-48.5 221q0 125 48.5 218.5t135.5 145.5t200 52q72 0 138.5 -23t118 -70t82 -119t30.5 -171q0 -70 -16 -128.5t-51.5 -93.5t-94.5 -35q-44 0 -68.5 23t-29.5 60h-3q-17 -35 -48 -59t-81 -24q-49 0 -88.5 24t-62 73
t-22.5 122q0 75 22.5 123.5t62 73t88.5 24.5q50 0 79.5 -23t42.5 -54h4v66h50v-315q0 -37 16 -53.5t46 -16.5q50 0 77.5 52t27.5 143v46q0 94 -42.5 163.5t-115 108.5t-163.5 39q-73 0 -134 -25.5t-105.5 -72t-69.5 -109t-25 -135.5v-56q0 -76 24 -139t68 -109t104 -71
t133 -25h233zM437 116q35 0 61.5 13t41 37.5t14.5 57.5v133q0 31 -14.5 54t-40.5 36.5t-62 13.5q-61 0 -91.5 -38t-30.5 -103v-64q0 -64 30.5 -102t91.5 -38z" />
    <glyph glyph-name="A" unicode="A" horiz-adv-x="625" 
d="M599 0h-63l-76 217h-297l-76 -217h-60l247 698h77zM444 269l-91 260l-40 112h-4l-39 -112l-92 -260h266z" />
    <glyph glyph-name="B" unicode="B" horiz-adv-x="638" 
d="M99 0v698h273q82 0 128.5 -47t46.5 -129q0 -49 -15.5 -80t-40.5 -48t-51 -24v-4q25 -3 48.5 -14.5t43 -32t31 -51t11.5 -71.5q0 -57 -21.5 -101.5t-61.5 -70t-94 -25.5h-298zM159 337v-284h222q42 0 71 16t43.5 43.5t14.5 64.5v37q0 36 -14.5 64t-43.5 43.5t-71 15.5
h-222zM159 645v-256h207q38 0 64 14t39.5 39t13.5 56v38q0 32 -13.5 56.5t-39.5 38.5t-64 14h-207z" />
    <glyph glyph-name="C" unicode="C" horiz-adv-x="617" 
d="M335 -12q-86 0 -147 40.5t-93 120t-32 198.5q0 118 32 199t93 122.5t147 41.5q83 0 141.5 -40t89.5 -109l-49 -29q-23 57 -69.5 90.5t-112.5 33.5q-97 0 -152.5 -70.5t-55.5 -199.5v-79q0 -128 55.5 -196.5t152.5 -68.5q70 0 117.5 35.5t69.5 95.5l49 -29
q-31 -71 -91.5 -113.5t-144.5 -42.5z" />
    <glyph glyph-name="D" unicode="D" horiz-adv-x="666" 
d="M99 0v698h222q89 0 152.5 -38.5t96.5 -116t33 -194.5q0 -116 -33 -194t-96.5 -116.5t-152.5 -38.5h-222zM159 53h163q69 0 117.5 30.5t74 86t25.5 133.5v92q0 78 -25.5 134t-74 86t-117.5 30h-163v-592z" />
    <glyph glyph-name="E" unicode="E" horiz-adv-x="574" 
d="M507 0h-408v698h408v-53h-348v-265h331v-53h-331v-274h348v-53z" />
    <glyph glyph-name="F" unicode="F" horiz-adv-x="550" 
d="M159 0h-60v698h399v-53h-339v-265h316v-53h-316v-327z" />
    <glyph glyph-name="G" unicode="G" horiz-adv-x="684" 
d="M553 0v107h-3q-19 -54 -71.5 -86.5t-133.5 -32.5q-86 0 -149.5 41t-98 121.5t-34.5 198.5t34.5 198.5t99 121.5t152.5 41q89 0 151 -41t93 -108l-49 -29q-25 58 -75.5 91t-119.5 33q-67 0 -117 -31t-77.5 -90.5t-27.5 -142.5v-85q0 -83 27.5 -142.5t78.5 -91t121 -31.5
q53 0 97.5 18.5t71.5 56.5t27 95v84h-163v52h222v-348h-56z" />
    <glyph glyph-name="H" unicode="H" horiz-adv-x="701" 
d="M542 0v327h-383v-327h-60v698h60v-318h383v318h60v-698h-60z" />
    <glyph glyph-name="I" unicode="I" horiz-adv-x="389" 
d="M326 0h-263v50h102v598h-102v50h263v-50h-102v-598h102v-50z" />
    <glyph glyph-name="J" unicode="J" horiz-adv-x="492" 
d="M97 698h302v-516q0 -61 -23.5 -104.5t-66 -66.5t-99.5 -23q-73 0 -121.5 40.5t-62.5 105.5l53 13q12 -46 45 -75.5t88 -29.5q62 0 95 37.5t33 111.5v454h-243v53z" />
    <glyph glyph-name="K" unicode="K" horiz-adv-x="610" 
d="M515 0l-243 360l-113 -125v-235h-60v698h60v-264v-129h2l112 129l230 264h73l-263 -297l276 -401h-74z" />
    <glyph glyph-name="L" unicode="L" horiz-adv-x="491" 
d="M467 0h-368v698h60v-645h308v-53z" />
    <glyph glyph-name="M" unicode="M" horiz-adv-x="806" 
d="M99 0v698h81l142 -252l80 -141h4l80 141l142 252h79v-698h-58v484v137h-5l-76 -137l-165 -290l-166 290l-76 137h-4v-137v-484h-58z" />
    <glyph glyph-name="N" unicode="N" horiz-adv-x="701" 
d="M531 0l-278 455l-93 161h-3v-161v-455h-58v698h72l278 -455l92 -161h3v161v455h58v-698h-71z" />
    <glyph glyph-name="O" unicode="O" horiz-adv-x="697" 
d="M349 -12q-89 0 -153 41t-98.5 121.5t-34.5 198.5t34.5 198.5t98.5 121.5t153 41q88 0 152 -41t98.5 -121.5t34.5 -198.5t-34.5 -198.5t-98.5 -121.5t-152 -41zM349 42q67 0 116.5 31t77 90t27.5 142v88q0 83 -27.5 142t-77 90t-116.5 31t-117 -31t-77.5 -90t-27.5 -142
v-88q0 -83 27.5 -142t77.5 -90t117 -31z" />
    <glyph glyph-name="P" unicode="P" horiz-adv-x="601" 
d="M159 0h-60v698h274q61 0 102.5 -24t63 -67.5t21.5 -103.5t-21.5 -104t-63 -68t-102.5 -24h-214v-307zM159 645v-285h214q40 0 67.5 15.5t41 42t13.5 61.5v48q0 34 -13.5 61t-41 42t-67.5 15h-214z" />
    <glyph glyph-name="Q" unicode="Q" horiz-adv-x="697" 
d="M488 -106v-51h-101q-31 0 -46.5 17t-15.5 44v85q-83 6 -141.5 48.5t-89.5 121t-31 190.5q0 118 34.5 198.5t98.5 121.5t153 41q88 0 152 -41t98.5 -121.5t34.5 -198.5q0 -110 -30 -187.5t-86.5 -120.5t-135.5 -51v-96h106zM349 42q67 0 116.5 31t77 90t27.5 142v88
q0 83 -27.5 142t-77 90t-116.5 31t-117 -31t-77.5 -90t-27.5 -142v-88q0 -83 27.5 -142t77.5 -90t117 -31z" />
    <glyph glyph-name="R" unicode="R" horiz-adv-x="636" 
d="M159 309v-309h-60v698h274q59 0 101 -23t64 -66.5t22 -104.5q0 -80 -39.5 -130.5t-114.5 -60.5l172 -313h-68l-166 309h-185zM159 360h214q40 0 67.5 15.5t41 42t13.5 61.5v48q0 34 -13.5 61t-41 42t-67.5 15h-214v-285z" />
    <glyph glyph-name="S" unicode="S" horiz-adv-x="568" 
d="M284 -12q-85 0 -143.5 32.5t-98.5 86.5l45 37q37 -49 83.5 -76t115.5 -27q81 0 124.5 38.5t43.5 107.5q0 43 -16.5 70t-48.5 42.5t-76 25.5l-62 13q-66 14 -108 39t-62 62.5t-20 85.5q0 61 28 102t79 62t117 21q78 0 132.5 -28t88.5 -79l-45 -33q-29 42 -72 64.5
t-107 22.5q-75 0 -118.5 -32.5t-43.5 -97.5q0 -42 18 -67.5t50 -41t75 -24.5l62 -13q70 -14 111 -41t59 -64.5t18 -85.5q0 -63 -27.5 -108.5t-79 -69.5t-122.5 -24z" />
    <glyph glyph-name="T" unicode="T" horiz-adv-x="567" 
d="M547 645h-233v-645h-60v645h-234v53h527v-53z" />
    <glyph glyph-name="U" unicode="U" horiz-adv-x="668" 
d="M93 698h60v-431q0 -78 16.5 -127.5t56.5 -73.5t108 -24t107.5 24t56.5 73.5t17 127.5v431h60v-418q0 -102 -23 -167t-76.5 -95t-143.5 -30q-89 0 -141.5 30t-75 95t-22.5 167v418z" />
    <glyph glyph-name="V" unicode="V" horiz-adv-x="594" 
d="M333 0h-74l-235 698h64l131 -392l76 -245h4l77 245l132 392h62z" />
    <glyph glyph-name="W" unicode="W" horiz-adv-x="884" 
d="M269 0h-69l-176 698h64l92 -380l57 -244h3l63 244l103 380h71l101 -380l63 -244h3l60 244l94 380h62l-182 -698h-68l-106 390l-63 241h-2l-64 -241z" />
    <glyph glyph-name="X" unicode="X" horiz-adv-x="592" 
d="M26 0l231 355l-224 343h72l190 -295h2l193 295h69l-226 -340l233 -358h-72l-198 309h-2l-200 -309h-68z" />
    <glyph glyph-name="Y" unicode="Y" horiz-adv-x="575" 
d="M316 0h-59v283l-241 415h68l202 -352h3l202 352h68l-243 -413v-285z" />
    <glyph glyph-name="Z" unicode="Z" horiz-adv-x="570" 
d="M537 53v-53h-500v55l419 590h-397v53h462v-55l-420 -590h436z" />
    <glyph glyph-name="bracketleft" unicode="[" horiz-adv-x="311" 
d="M247 -138h-148v898h148v-45h-98v-808h98v-45z" />
    <glyph glyph-name="backslash" unicode="\" horiz-adv-x="356" 
d="M341 -151h-52l-249 891h52z" />
    <glyph glyph-name="bracketright" unicode="]" horiz-adv-x="311" 
d="M64 760h148v-898h-148v45h98v808h-98v45z" />
    <glyph glyph-name="asciicircum" unicode="^" 
d="M543 330l-44 -24l-197 338h-4l-197 -338l-44 24l212 368h62z" />
    <glyph glyph-name="underscore" unicode="_" horiz-adv-x="567" 
d="M537 -156h-507v50h507v-50z" />
    <glyph glyph-name="grave" unicode="`" 
d="M302 586l-109 156l52 26l95 -164z" />
    <glyph glyph-name="a" unicode="a" horiz-adv-x="528" 
d="M503 0h-58q-23 0 -38 9.5t-21.5 26.5t-6.5 40v27l23 -22h-27q-17 -42 -56 -67.5t-99 -25.5q-81 0 -125 40t-44 111q0 46 21.5 79t67 51t119.5 18h118v60q0 64 -33 96t-98 32q-50 0 -84.5 -22t-55.5 -62l-36 30q21 44 64.5 73.5t113.5 29.5q89 0 137.5 -45t48.5 -126v-303
h69v-50zM377 244h-120q-76 0 -111 -24.5t-35 -67.5v-24q0 -44 32.5 -67.5t84.5 -23.5q42 0 75.5 13.5t53.5 39t20 59.5v95z" />
    <glyph glyph-name="b" unicode="b" horiz-adv-x="574" 
d="M93 0v740h57v-310h3q19 43 58.5 68.5t97.5 25.5q66 0 113 -31.5t72.5 -91.5t25.5 -145q0 -84 -25.5 -144.5t-72.5 -92t-113 -31.5q-58 0 -96.5 26t-59.5 68h-3v-82h-57zM296 39q77 0 120 49.5t43 131.5v72q0 83 -43 132t-120 49q-39 0 -72.5 -14.5t-53.5 -40t-20 -59.5
v-203q0 -35 20 -61.5t53.5 -41t72.5 -14.5z" />
    <glyph glyph-name="c" unicode="c" horiz-adv-x="497" 
d="M274 -12q-105 0 -163.5 70.5t-58.5 197.5t58.5 197.5t163.5 70.5q71 0 115.5 -31.5t66.5 -81.5l-48 -24q-17 42 -50.5 64t-83.5 22q-78 0 -119 -49.5t-41 -131.5v-72q0 -81 41 -131t119 -50q53 0 89 23t58 66l42 -28q-25 -50 -71.5 -81t-117.5 -31z" />
    <glyph glyph-name="d" unicode="d" horiz-adv-x="574" 
d="M424 0v82h-3q-21 -42 -59.5 -68t-96.5 -26q-65 0 -112.5 31.5t-73 92t-25.5 144.5q0 85 25.5 145t73 91.5t112.5 31.5q58 0 97.5 -25.5t58.5 -68.5h3v310h57v-740h-57zM278 39q40 0 73 14.5t53 41t20 61.5v203q0 34 -20 59.5t-53 40t-73 14.5q-76 0 -119.5 -49
t-43.5 -132v-72q0 -82 43.5 -131.5t119.5 -49.5z" />
    <glyph glyph-name="e" unicode="e" horiz-adv-x="543" 
d="M276 -12q-68 0 -118.5 32t-78 92t-27.5 144t27.5 144t77.5 92t118 32q66 0 114 -31.5t75 -88.5t27 -132v-27h-379v-25q0 -81 44 -131.5t123 -50.5q55 0 94.5 26.5t60.5 76.5l42 -28q-24 -56 -75.5 -90.5t-124.5 -34.5zM275 476q-50 0 -86.5 -23t-56.5 -64t-20 -95v-5h317
v8q0 54 -19 94t-54 62.5t-81 22.5z" />
    <glyph glyph-name="f" unicode="f" horiz-adv-x="309" 
d="M117 0v462h-88v50h88v143q0 39 20 62t60 23h90v-50h-113v-178h113v-50h-113v-462h-57z" />
    <glyph glyph-name="g" unicode="g" horiz-adv-x="528" 
d="M513 -60q0 -52 -28 -86t-83 -50t-135 -16q-78 0 -127 15.5t-71.5 44.5t-22.5 68q0 43 23.5 69.5t64.5 38.5v8q-24 10 -36 27.5t-12 42.5q0 37 25 57.5t62 30.5v4q-45 21 -70 60.5t-25 95.5q0 52 23 91t65 61t98 22q31 0 56.5 -6.5t46.5 -18.5v25q0 23 11 37.5t36 14.5h88
v-50h-104v-49q26 -23 39.5 -55.5t13.5 -71.5q0 -52 -23 -91.5t-65 -61.5t-98 -22q-14 0 -27 2l-26 4q-32 -9 -54 -24.5t-22 -41.5q0 -22 20 -34t62 -12h119q92 0 134 -34.5t42 -94.5zM458 -64q0 37 -26.5 58.5t-94.5 21.5h-166q-33 -11 -52 -33t-19 -55q0 -40 33 -66.5
t100 -26.5h64q74 0 117.5 24.5t43.5 76.5zM265 222q59 0 92.5 29.5t33.5 82.5v32q0 53 -33.5 82.5t-92.5 29.5t-92.5 -29.5t-33.5 -82.5v-32q0 -53 33.5 -82.5t92.5 -29.5z" />
    <glyph glyph-name="h" unicode="h" horiz-adv-x="563" 
d="M93 0v740h57v-309h3q17 40 53 66.5t98 26.5q82 0 127.5 -50.5t45.5 -144.5v-329h-57v319q0 78 -33.5 116t-97.5 38q-36 0 -68 -12.5t-51.5 -37.5t-19.5 -63v-360h-57z" />
    <glyph glyph-name="i" unicode="i" horiz-adv-x="243" 
d="M121 651q-20 0 -29.5 10t-9.5 26v10q0 16 9.5 26t29.5 10q21 0 30 -10t9 -26v-10q0 -16 -9 -26t-30 -10zM93 0v512h57v-512h-57z" />
    <glyph glyph-name="j" unicode="j" horiz-adv-x="243" 
d="M93 -150v662h57v-627q0 -39 -19.5 -62t-60.5 -23h-62v50h85zM121 651q-20 0 -29.5 10t-9.5 26v10q0 16 9.5 26t29.5 10q21 0 30 -10t9 -26v-10q0 -16 -9 -26t-30 -10z" />
    <glyph glyph-name="k" unicode="k" horiz-adv-x="513" 
d="M93 0v740h57v-402v-87h3l80 85l170 176h70l-201 -208l223 -304h-70l-194 268l-81 -82v-186h-57z" />
    <glyph glyph-name="l" unicode="l" horiz-adv-x="264" 
d="M229 0h-73q-31 0 -47 17t-16 45v678h57v-690h79v-50z" />
    <glyph glyph-name="m" unicode="m" horiz-adv-x="875" 
d="M150 0h-57v512h57v-81h3q16 38 49 65.5t96 27.5q55 0 97.5 -26t60.5 -82h3q14 45 53.5 76.5t107.5 31.5q81 0 125 -50.5t44 -144.5v-329h-57v319q0 77 -31.5 115.5t-96.5 38.5q-35 0 -66 -12.5t-49.5 -38t-18.5 -63.5v-359h-57v319q0 78 -32 116t-96 38q-35 0 -66 -12.5
t-50 -37.5t-19 -63v-360z" />
    <glyph glyph-name="n" unicode="n" horiz-adv-x="563" 
d="M150 0h-57v512h57v-81h3q17 40 53 66.5t98 26.5q82 0 127.5 -50.5t45.5 -144.5v-329h-57v319q0 78 -33.5 116t-97.5 38q-36 0 -68 -12.5t-51.5 -37.5t-19.5 -63v-360z" />
    <glyph glyph-name="o" unicode="o" horiz-adv-x="552" 
d="M276 -12q-68 0 -118 32t-78 92t-28 144t28 144t78 92t118 32t118.5 -32t78 -92t27.5 -144t-27.5 -144t-78 -92t-118.5 -32zM276 39q75 0 119 47.5t44 137.5v64q0 90 -44 137.5t-119 47.5q-74 0 -118 -47.5t-44 -137.5v-64q0 -90 44 -137.5t118 -47.5z" />
    <glyph glyph-name="p" unicode="p" horiz-adv-x="574" 
d="M93 -200v712h57v-82h3q19 43 58.5 68.5t97.5 25.5q66 0 113 -31.5t72.5 -91.5t25.5 -145q0 -84 -25.5 -144.5t-72.5 -92t-113 -31.5q-58 0 -96.5 26t-59.5 68h-3v-282h-57zM296 39q77 0 120 49.5t43 131.5v72q0 83 -43 132t-120 49q-39 0 -72.5 -14.5t-53.5 -40
t-20 -59.5v-203q0 -35 20 -61.5t53.5 -41t72.5 -14.5z" />
    <glyph glyph-name="q" unicode="q" horiz-adv-x="574" 
d="M424 -200v282h-3q-21 -42 -59.5 -68t-96.5 -26q-65 0 -112.5 31.5t-73 92t-25.5 144.5q0 85 25.5 145t73 91.5t112.5 31.5q58 0 97.5 -25.5t58.5 -68.5h3v82h57v-712h-57zM278 39q40 0 73 14.5t53 41t20 61.5v203q0 34 -20 59.5t-53 40t-73 14.5q-76 0 -119.5 -49
t-43.5 -132v-72q0 -82 43.5 -131.5t119.5 -49.5z" />
    <glyph glyph-name="r" unicode="r" horiz-adv-x="357" 
d="M150 0h-57v512h57v-92h4q10 25 29 45.5t49.5 33.5t74.5 13h34v-56h-45q-43 0 -76 -13t-51.5 -36.5t-18.5 -56.5v-350z" />
    <glyph glyph-name="s" unicode="s" horiz-adv-x="477" 
d="M238 -12q-67 0 -114.5 25.5t-82.5 72.5l42 33q32 -41 70 -61.5t89 -20.5q59 0 91 25.5t32 71.5q0 40 -24.5 64t-80.5 32l-42 7q-46 7 -82 23t-55.5 45.5t-19.5 75.5q0 72 50 107.5t124 35.5q43 0 75 -10t56.5 -28t43.5 -41l-38 -35q-20 25 -53 45t-87 20q-55 0 -85.5 -24
t-30.5 -67q0 -45 27.5 -65.5t82.5 -29.5l41 -6q78 -12 115.5 -46.5t37.5 -96.5q0 -48 -22 -82t-62.5 -52t-97.5 -18z" />
    <glyph glyph-name="t" unicode="t" horiz-adv-x="335" 
d="M283 0h-102q-30 0 -46.5 17.5t-16.5 45.5v399h-89v50h58q21 0 28.5 9t7.5 30v104h52v-143h116v-50h-116v-412h108v-50z" />
    <glyph glyph-name="u" unicode="u" horiz-adv-x="563" 
d="M414 0v81h-4q-14 -36 -49 -64.5t-101 -28.5q-81 0 -127.5 50.5t-46.5 144.5v329h57v-318q0 -78 34 -116.5t98 -38.5q36 0 67.5 12.5t51.5 37.5t20 64v359h57v-512h-57z" />
    <glyph glyph-name="v" unicode="v" horiz-adv-x="476" 
d="M271 0h-67l-183 512h57l101 -280l58 -171h4l58 171l102 280h55z" />
    <glyph glyph-name="w" unicode="w" horiz-adv-x="751" 
d="M177 0l-144 512h56l70 -259l53 -202h2l59 202l77 259h52l79 -259l59 -202h2l52 202l71 259h54l-144 -512h-70l-81 271l-48 160h-2l-47 -160l-81 -271h-69z" />
    <glyph glyph-name="x" unicode="x" horiz-adv-x="493" 
d="M26 0l190 258l-183 254h67l146 -209h3l149 209h64l-182 -250l187 -262h-67l-151 216h-2l-157 -216h-64z" />
    <glyph glyph-name="y" unicode="y" horiz-adv-x="481" 
d="M283 176l121 336h57l-241 -656q-7 -21 -17 -33.5t-26 -17.5t-42 -5h-58v50h86l49 135l-192 527h58l120 -336l39 -117h4z" />
    <glyph glyph-name="z" unicode="z" horiz-adv-x="446" 
d="M417 0h-386v49l310 413h-301v50h369v-45l-314 -417h322v-50z" />
    <glyph glyph-name="braceleft" unicode="{" horiz-adv-x="332" 
d="M269 -138h-90q-30 0 -44.5 17t-14.5 43v269q0 43 -27 65t-70 22v66q43 0 70 22t27 65v269q0 27 14.5 43.5t44.5 16.5h90v-45h-99v-278q0 -31 -12 -57t-34 -41.5t-50 -19.5v-16q28 -3 50 -19t34 -41.5t12 -57.5v-278h99v-45z" />
    <glyph glyph-name="bar" unicode="|" horiz-adv-x="284" 
d="M166 -138h-49v898h49v-898z" />
    <glyph glyph-name="braceright" unicode="}" horiz-adv-x="332" 
d="M63 760h90q30 0 44.5 -16.5t14.5 -43.5v-269q0 -43 27 -65t70 -22v-66q-43 0 -70 -22t-27 -65v-269q0 -26 -14.5 -43t-44.5 -17h-90v45h99v278q0 32 12 57.5t34 41.5t51 19v16q-29 4 -51 19.5t-34 41.5t-12 57v278h-99v45z" />
    <glyph glyph-name="asciitilde" unicode="~" 
d="M421 244q-34 0 -62 10t-67 28q-34 16 -60 25.5t-56 9.5q-26 0 -45.5 -8.5t-42.5 -27.5l-25 32q22 25 49 38.5t67 13.5q34 0 62.5 -9.5t66.5 -27.5q35 -16 60.5 -26t55.5 -10q26 0 45.5 9t42.5 27l25 -32q-22 -25 -49 -38.5t-67 -13.5z" />
    <glyph glyph-name="uni00A0" unicode="&#xa0;" horiz-adv-x="236" 
 />
    <glyph glyph-name="exclamdown" unicode="&#xa1;" horiz-adv-x="272" 
d="M166 -186h-62v234l17 283h29l16 -283v-234zM136 420q-24 0 -36 12.5t-12 32.5v11q0 21 12 33t36 12t36 -12t12 -33v-11q0 -20 -11.5 -32.5t-36.5 -12.5z" />
    <glyph glyph-name="cent" unicode="&#xa2;" horiz-adv-x="507" 
d="M293 -114h-51v104q-90 10 -140 79.5t-50 186.5q0 118 50 187t140 79v104h51v-103q60 -3 100.5 -33.5t62.5 -76.5l-46 -25q-18 38 -46.5 60t-71.5 25v-434q46 4 78 26.5t52 61.5l42 -28q-24 -47 -66 -77t-105 -33v-103zM114 220q0 -73 33 -121.5t96 -56.5v429
q-63 -9 -96 -57.5t-33 -121.5v-72z" />
    <glyph glyph-name="sterling" unicode="&#xa3;" horiz-adv-x="589" 
d="M520 0h-438v71q42 23 62 66t20 93q0 18 -2.5 34.5t-5.5 31.5h-92v50h78q-13 38 -25 75t-12 82q0 63 27 109t77 72t117 26q72 0 123 -30t85 -86l-46 -32q-28 47 -68 71t-96 24q-71 0 -114.5 -40.5t-43.5 -118.5q0 -43 12 -79t24 -73h217v-50h-204q4 -15 5.5 -29t1.5 -31
q0 -57 -23 -105t-59 -74v-3h380v-54z" />
    <glyph glyph-name="currency" unicode="&#xa4;" horiz-adv-x="602" 
d="M301 123q-44 0 -80 13t-61 38l-105 -106l-35 35l108 108q-16 28 -24.5 62.5t-8.5 75.5t8.5 76t24.5 62l-108 108l35 35l105 -106q25 25 61 38t80 13t79.5 -13t61.5 -38l105 106l35 -35l-108 -108q16 -27 24.5 -62t8.5 -76t-8.5 -75.5t-24.5 -62.5l108 -108l-35 -35
l-105 106q-26 -25 -61.5 -38t-79.5 -13zM301 171q67 0 106 38.5t39 111.5v56q0 73 -39 111.5t-106 38.5t-106 -38.5t-39 -111.5v-56q0 -73 39 -111.5t106 -38.5z" />
    <glyph glyph-name="yen" unicode="&#xa5;" horiz-adv-x="595" 
d="M512 154h-185v-154h-59v154h-185v48h185v113h-185v48h156l-200 335h68l191 -329h4l188 329h66l-200 -335h156v-48h-185v-113h185v-48z" />
    <glyph glyph-name="brokenbar" unicode="&#xa6;" horiz-adv-x="284" 
d="M166 404h-49v356h49v-356zM166 -138h-49v356h49v-356z" />
    <glyph glyph-name="section" unicode="&#xa7;" horiz-adv-x="577" 
d="M462 -3q0 -48 -24.5 -82t-66.5 -52t-97 -18q-49 0 -90 14.5t-72 41.5l33 40q24 -20 55.5 -33t74.5 -13q62 0 96.5 26.5t34.5 74.5q0 30 -14.5 50.5t-39.5 34.5t-58 24l-65 20q-49 16 -82.5 37.5t-50 51t-16.5 67.5q0 51 29 88t80 57v6q-33 22 -53.5 53.5t-20.5 73.5
q0 48 24.5 82t66.5 51.5t97 17.5q49 0 90 -14t72 -42l-33 -40q-24 21 -55.5 33.5t-74.5 12.5q-61 0 -96 -26t-35 -75q0 -30 14.5 -50.5t40 -34t57.5 -24.5l64 -20q51 -15 84 -37t50 -51t17 -67q0 -52 -29.5 -88.5t-80.5 -57.5v-5q35 -22 54.5 -53.5t19.5 -73.5zM441 261
q0 33 -13.5 56t-40.5 39.5t-68 28.5l-64 19q-9 2 -18.5 6t-18.5 7q-38 -21 -60 -51t-22 -72q0 -49 30.5 -77.5t91.5 -46.5l64 -18q9 -3 18.5 -6.5t18.5 -7.5q38 22 60 51.5t22 71.5z" />
    <glyph glyph-name="dieresis" unicode="&#xa8;" 
d="M208 627q-21 0 -30 10.5t-9 26.5v9q0 16 9 26t30 10t30 -10t9 -26v-9q0 -16 -9 -26.5t-30 -10.5zM392 627q-20 0 -29.5 10.5t-9.5 26.5v9q0 16 9.5 26t29.5 10q21 0 30 -10t9 -26v-9q0 -16 -9 -26.5t-30 -10.5z" />
    <glyph glyph-name="copyright" unicode="&#xa9;" horiz-adv-x="750" 
d="M375 -11q-94 0 -168.5 44t-117.5 125t-43 191q0 111 43 192t117.5 124.5t168.5 43.5t168 -43.5t117.5 -124.5t43.5 -192q0 -110 -43.5 -191t-117.5 -125t-168 -44zM375 32q82 0 145 38t98.5 103.5t35.5 148.5v54q0 83 -35.5 148.5t-98.5 103.5t-145 38q-83 0 -145.5 -38
t-98 -103.5t-35.5 -148.5v-54q0 -83 35.5 -148.5t98 -103.5t145.5 -38zM378 153q-73 0 -115.5 51.5t-42.5 143.5t42.5 143.5t116.5 51.5q50 0 82 -23.5t47 -61.5l-41 -21q-11 28 -32.5 44.5t-55.5 16.5q-49 0 -77 -33.5t-28 -93.5v-47q0 -60 28 -93.5t77 -33.5q35 0 58 17.5
t38 46.5l39 -23q-16 -37 -50 -61t-86 -24z" />
    <glyph glyph-name="ordfeminine" unicode="&#xaa;" horiz-adv-x="381" 
d="M348 397v-41h-40q-21 0 -32.5 10t-11.5 32v25l16 -15h-20q-11 -23 -38 -40.5t-73 -17.5q-52 0 -80.5 26.5t-28.5 68.5q0 48 35 73.5t105 25.5h81v39q0 42 -21.5 62.5t-62.5 20.5q-34 0 -58 -14.5t-36 -40.5l-32 24q15 28 46 48.5t82 20.5q59 0 93.5 -30.5t34.5 -87.5
v-189h41zM261 510h-82q-47 0 -69.5 -14.5t-22.5 -41.5v-11q0 -28 18.5 -41.5t52.5 -13.5q41 0 72 18.5t31 53.5v50z" />
    <glyph glyph-name="guillemotleft" unicode="&#xab;" horiz-adv-x="497" 
d="M248 129l-18 -39l-195 171v54l195 171l18 -39l-155 -158v-2zM446 129l-18 -39l-195 171v54l195 171l18 -39l-155 -158v-2z" />
    <glyph glyph-name="logicalnot" unicode="&#xac;" 
d="M529 88h-51v193h-413v49h464v-242z" />
    <glyph glyph-name="uni00AD" unicode="&#xad;" horiz-adv-x="0" 
 />
    <glyph glyph-name="registered" unicode="&#xae;" horiz-adv-x="472" 
d="M236 298q-55 0 -100 26.5t-71.5 73.5t-26.5 106q0 60 26.5 106.5t71.5 73t100 26.5q56 0 100.5 -26.5t71 -73t26.5 -106.5q0 -59 -26.5 -106t-71 -73.5t-100.5 -26.5zM236 329q48 0 85 22.5t58 60t21 81.5v22q0 44 -21 81.5t-58 60t-85 22.5q-47 0 -84.5 -22.5t-58.5 -60
t-21 -81.5v-22q0 -44 21 -81.5t58.5 -60t84.5 -22.5zM196 481v-85h-31v211h86q30 0 47 -16.5t17 -46.5q0 -25 -12 -40t-30 -20l50 -88h-34l-47 85h-46zM196 506h54q16 0 24 7.5t8 21.5v16q0 15 -8 22.5t-24 7.5h-54v-75z" />
    <glyph glyph-name="macron" unicode="&#xaf;" 
d="M164 645v49h272v-49h-272z" />
    <glyph glyph-name="degree" unicode="&#xb0;" horiz-adv-x="467" 
d="M233 369q-46 0 -84 22.5t-59.5 61t-21.5 87.5q0 48 21.5 86.5t59.5 61t84 22.5q48 0 85.5 -22.5t59 -61t21.5 -86.5q0 -49 -21.5 -87.5t-59 -61t-85.5 -22.5zM234 416q35 0 60.5 16.5t39.5 45t14 62.5t-14 62t-39.5 45t-60.5 17t-61 -17t-40 -45t-14 -62q0 -35 14 -63
t39.5 -44.5t61.5 -16.5z" />
    <glyph glyph-name="plusminus" unicode="&#xb1;" 
d="M327 138h-54v212h-208v49h208v213h54v-213h208v-49h-208v-212zM535 0h-470v49h470v-49z" />
    <glyph glyph-name="twosuperior" unicode="&#xb2;" horiz-adv-x="346" 
d="M307 366v-37h-266v43l133 108q35 29 53 55.5t18 54.5v8q0 30 -19.5 49t-57.5 19t-60 -19t-32 -47l-39 14q12 36 44 63t90 27q60 0 91.5 -30.5t31.5 -76.5q0 -41 -25.5 -75t-69.5 -69l-109 -87h217z" />
    <glyph glyph-name="threesuperior" unicode="&#xb3;" horiz-adv-x="346" 
d="M114 539h43q45 0 65 17.5t20 45.5v5q0 28 -20 44t-56 16q-33 0 -54 -12t-36 -34l-32 25q17 24 47 41t76 17q55 0 89 -25t34 -70q0 -36 -21.5 -57t-53.5 -28v-3q36 -6 59 -28.5t23 -61.5q0 -49 -36.5 -78.5t-99.5 -29.5q-51 0 -81.5 19t-48.5 43l34 25q16 -22 37.5 -36
t58.5 -14q43 0 65.5 19t22.5 52v6q0 33 -21 49t-66 16h-48v37z" />
    <glyph glyph-name="acute" unicode="&#xb4;" 
d="M407 742l-110 -156l-37 18l95 164z" />
    <glyph glyph-name="mu" unicode="&#xb5;" horiz-adv-x="570" 
d="M150 -200h-57v712h57v-318q0 -78 34 -116.5t98 -38.5q36 0 67.5 12.5t51 38t19.5 64.5v358h57v-512h-57v81h-3q-14 -36 -49 -64.5t-99 -28.5q-46 0 -76 17t-46 50h-3l6 -100v-155z" />
    <glyph glyph-name="paragraph" unicode="&#xb6;" horiz-adv-x="628" 
d="M248 -149v461q-54 0 -99 25t-71 68.5t-26 99.5t26 99.5t71 68.5t99 25h292v-49h-68v-798h-53v798h-119v-798h-52z" />
    <glyph glyph-name="periodcentered" unicode="&#xb7;" horiz-adv-x="315" 
d="M158 254q-24 0 -36 13t-12 33v11q0 20 12 32.5t36 12.5q25 0 36 -12.5t11 -32.5v-11q0 -20 -11.5 -33t-35.5 -13z" />
    <glyph glyph-name="cedilla" unicode="&#xb8;" 
d="M311 -205q-35 0 -58.5 12t-33.5 25l28 31q10 -12 26 -20t38 -8t36 10t14 29q0 16 -13 27.5t-52 15.5l-31 3l19 93h38l-17 -79l2 -2q9 2 18.5 3.5t17.5 1.5q29 0 48.5 -17t19.5 -47q0 -24 -13.5 -41.5t-36 -27t-50.5 -9.5z" />
    <glyph glyph-name="onesuperior" unicode="&#xb9;" horiz-adv-x="364" 
d="M325 329h-268v37h117v295h-5l-104 -95l-26 27l111 105h70v-332h105v-37z" />
    <glyph glyph-name="ordmasculine" unicode="&#xba;" horiz-adv-x="386" 
d="M193 350q-70 0 -109 47.5t-39 129.5q0 83 39 130t109 47t109 -47t39 -130q0 -82 -39 -129.5t-109 -47.5zM193 389q49 0 73.5 32.5t24.5 80.5v50q0 49 -24.5 81.5t-73.5 32.5t-74 -32.5t-25 -81.5v-50q0 -48 25 -80.5t74 -32.5z" />
    <glyph glyph-name="guillemotright" unicode="&#xbb;" horiz-adv-x="497" 
d="M52 129l154 158v2l-154 158l18 39l194 -171v-54l-194 -171zM250 129l154 158v2l-154 158l18 39l194 -171v-54l-194 -171z" />
    <glyph glyph-name="onequarter" unicode="&#xbc;" horiz-adv-x="849" 
d="M325 329h-268v37h117v295h-5l-104 -95l-26 27l111 105h70v-332h105v-37zM242 0h-49l471 698h49zM765 0h-44v79h-198v39l180 251h62v-254h60v-36h-60v-79zM721 115v212h-3l-154 -212h157z" />
    <glyph glyph-name="onehalf" unicode="&#xbd;" horiz-adv-x="877" 
d="M325 329h-268v37h117v295h-5l-104 -95l-26 27l111 105h70v-332h105v-37zM242 0h-49l471 698h49zM838 37v-37h-266v43l133 108q35 29 53 56.5t18 53.5v8q0 30 -19.5 49t-57.5 19t-60 -19t-32 -47l-39 14q12 36 44 63t90 27q60 0 91.5 -30.5t31.5 -76.5q0 -41 -25.5 -75
t-69.5 -69l-109 -87h217z" />
    <glyph glyph-name="threequarters" unicode="&#xbe;" horiz-adv-x="820" 
d="M114 539h43q45 0 65 17.5t20 45.5v5q0 28 -20 44t-56 16q-33 0 -54 -12t-36 -34l-32 25q17 24 47 41t76 17q55 0 89 -25t34 -70q0 -36 -21.5 -57t-53.5 -28v-3q36 -6 59 -28.5t23 -61.5q0 -49 -36.5 -78.5t-99.5 -29.5q-51 0 -81.5 19t-48.5 43l34 25q16 -22 37.5 -36
t58.5 -14q43 0 65.5 19t22.5 52v6q0 33 -21 49t-66 16h-48v37zM214 0h-49l471 698h49zM736 0h-44v79h-198v39l180 251h62v-254h60v-36h-60v-79zM692 115v212h-3l-154 -212h157z" />
    <glyph glyph-name="questiondown" unicode="&#xbf;" horiz-adv-x="463" 
d="M231 -198q-59 0 -103 23t-68 65t-24 97q0 62 26 104.5t69.5 67t95.5 32.5v126h55v-168q-87 -3 -135.5 -43t-48.5 -107v-19q0 -56 36.5 -91t98.5 -35q64 0 102 34.5t52 90.5l53 -19q-12 -45 -39 -80.5t-69 -56.5t-101 -21zM256 420q-24 0 -36 12.5t-12 32.5v11q0 21 12 33
t36 12q25 0 36.5 -12t11.5 -33v-11q0 -20 -11.5 -32.5t-36.5 -12.5z" />
    <glyph glyph-name="Agrave" unicode="&#xc0;" horiz-adv-x="625" 
d="M599 0h-63l-76 217h-297l-76 -217h-60l247 698h77zM444 269l-91 260l-40 112h-4l-39 -112l-92 -260h266zM315 760l-109 156l52 26l95 -164z" />
    <glyph glyph-name="Aacute" unicode="&#xc1;" horiz-adv-x="625" 
d="M599 0h-63l-76 217h-297l-76 -217h-60l247 698h77zM444 269l-91 260l-40 112h-4l-39 -112l-92 -260h266zM420 916l-110 -156l-37 18l95 164z" />
    <glyph glyph-name="Acircumflex" unicode="&#xc2;" horiz-adv-x="625" 
d="M599 0h-63l-76 217h-297l-76 -217h-60l247 698h77zM444 269l-91 260l-40 112h-4l-39 -112l-92 -260h266zM278 930h70l118 -139l-32 -23l-121 121l-121 -121l-32 23z" />
    <glyph glyph-name="Atilde" unicode="&#xc3;" horiz-adv-x="625" 
d="M599 0h-63l-76 217h-297l-76 -217h-60l247 698h77zM444 269l-91 260l-40 112h-4l-39 -112l-92 -260h266zM385 792q-22 0 -40.5 8.5t-38.5 19.5q-23 13 -39 18.5t-29 5.5q-17 0 -31 -7t-30 -22l-25 29q16 20 38 34t51 14q22 0 40.5 -8t38.5 -20q23 -13 39 -19t29 -6
q17 0 31 8t30 22l25 -29q-15 -20 -37 -34t-52 -14z" />
    <glyph glyph-name="Adieresis" unicode="&#xc4;" horiz-adv-x="625" 
d="M599 0h-63l-76 217h-297l-76 -217h-60l247 698h77zM444 269l-91 260l-40 112h-4l-39 -112l-92 -260h266zM221 800q-21 0 -30.5 10.5t-9.5 26.5v10q0 16 9.5 26.5t30.5 10.5t30 -10.5t9 -26.5v-10q0 -16 -9 -26.5t-30 -10.5zM405 800q-20 0 -29.5 10.5t-9.5 26.5v10
q0 16 9.5 26.5t29.5 10.5q21 0 30.5 -10.5t9.5 -26.5v-10q0 -16 -9.5 -26.5t-30.5 -10.5z" />
    <glyph glyph-name="Aring" unicode="&#xc5;" horiz-adv-x="625" 
d="M599 0h-63l-76 217h-297l-76 -217h-60l247 698h77zM444 269l-91 260l-40 112h-4l-39 -112l-92 -260h266zM313 755q-30 0 -54 13.5t-38 37.5t-14 55q0 30 14 54t38 37.5t54 13.5q31 0 54.5 -13.5t37.5 -37.5t14 -54q0 -31 -14 -55t-37.5 -37.5t-54.5 -13.5zM313 792
q29 0 46 16t17 44v17q0 28 -17 44t-46 16t-46 -16t-17 -44v-17q0 -28 17 -44t46 -16z" />
    <glyph glyph-name="AE" unicode="&#xc6;" horiz-adv-x="889" 
d="M413 0v216h-235l-113 -216h-62l367 698h452v-53h-349v-265h332v-53h-332v-274h349v-53h-409zM413 645h-12l-198 -376h210v376z" />
    <glyph glyph-name="Ccedilla" unicode="&#xc7;" horiz-adv-x="617" 
d="M335 656q-97 0 -152.5 -70.5t-55.5 -199.5v-79q0 -128 55.5 -196.5t152.5 -68.5q70 0 117.5 35.5t69.5 95.5l49 -29q-29 -68 -84.5 -109.5t-133.5 -45.5l-12 -55l2 -2q9 2 18.5 3.5t17.5 1.5q29 0 48.5 -17t19.5 -47q0 -24 -13.5 -41.5t-36 -27t-50.5 -9.5
q-35 0 -58.5 12t-33.5 25l28 31q10 -12 26 -20t38 -8t36.5 10t14.5 29q0 16 -13.5 27.5t-52.5 15.5l-31 3l14 69q-79 4 -136 45.5t-86.5 120t-29.5 192.5q0 118 32 199t93 122.5t147 41.5q83 0 141.5 -40t89.5 -109l-49 -29q-23 57 -69.5 90.5t-112.5 33.5z" />
    <glyph glyph-name="Egrave" unicode="&#xc8;" horiz-adv-x="574" 
d="M507 0h-408v698h408v-53h-348v-265h331v-53h-331v-274h348v-53zM304 760l-109 156l52 26l95 -164z" />
    <glyph glyph-name="Eacute" unicode="&#xc9;" horiz-adv-x="574" 
d="M507 0h-408v698h408v-53h-348v-265h331v-53h-331v-274h348v-53zM409 916l-110 -156l-37 18l95 164z" />
    <glyph glyph-name="Ecircumflex" unicode="&#xca;" horiz-adv-x="574" 
d="M507 0h-408v698h408v-53h-348v-265h331v-53h-331v-274h348v-53zM267 930h70l118 -139l-32 -23l-121 121l-121 -121l-32 23z" />
    <glyph glyph-name="Edieresis" unicode="&#xcb;" horiz-adv-x="574" 
d="M507 0h-408v698h408v-53h-348v-265h331v-53h-331v-274h348v-53zM210 800q-21 0 -30.5 10.5t-9.5 26.5v10q0 16 9.5 26.5t30.5 10.5t30 -10.5t9 -26.5v-10q0 -16 -9 -26.5t-30 -10.5zM394 800q-20 0 -29.5 10.5t-9.5 26.5v10q0 16 9.5 26.5t29.5 10.5q21 0 30.5 -10.5
t9.5 -26.5v-10q0 -16 -9.5 -26.5t-30.5 -10.5z" />
    <glyph glyph-name="Igrave" unicode="&#xcc;" horiz-adv-x="389" 
d="M326 0h-263v50h102v598h-102v50h263v-50h-102v-598h102v-50zM196 760l-109 156l52 26l95 -164z" />
    <glyph glyph-name="Iacute" unicode="&#xcd;" horiz-adv-x="389" 
d="M326 0h-263v50h102v598h-102v50h263v-50h-102v-598h102v-50zM301 916l-110 -156l-37 18l95 164z" />
    <glyph glyph-name="Icircumflex" unicode="&#xce;" horiz-adv-x="389" 
d="M326 0h-263v50h102v598h-102v50h263v-50h-102v-598h102v-50zM159 930h70l118 -139l-32 -23l-121 121l-121 -121l-32 23z" />
    <glyph glyph-name="Idieresis" unicode="&#xcf;" horiz-adv-x="389" 
d="M326 0h-263v50h102v598h-102v50h263v-50h-102v-598h102v-50zM102 800q-21 0 -30.5 10.5t-9.5 26.5v10q0 16 9.5 26.5t30.5 10.5t30 -10.5t9 -26.5v-10q0 -16 -9 -26.5t-30 -10.5zM286 800q-20 0 -29.5 10.5t-9.5 26.5v10q0 16 9.5 26.5t29.5 10.5q21 0 30.5 -10.5
t9.5 -26.5v-10q0 -16 -9.5 -26.5t-30.5 -10.5z" />
    <glyph glyph-name="Eth" unicode="&#xd0;" horiz-adv-x="669" 
d="M102 0v346h-81v46h81v306h222q89 0 152.5 -38.5t96.5 -116t33 -194.5q0 -116 -33 -194t-96.5 -116.5t-152.5 -38.5h-222zM162 53h163q69 0 117.5 30.5t74 86t25.5 133.5v92q0 78 -25.5 134t-74 86t-117.5 30h-163v-253h150v-46h-150v-293z" />
    <glyph glyph-name="Ntilde" unicode="&#xd1;" horiz-adv-x="701" 
d="M531 0l-278 455l-93 161h-3v-161v-455h-58v698h72l278 -455l92 -161h3v161v455h58v-698h-71zM422 792q-22 0 -40.5 8.5t-38.5 19.5q-23 13 -39 18.5t-29 5.5q-17 0 -31 -7t-30 -22l-25 29q16 20 38 34t51 14q22 0 40.5 -8t38.5 -20q23 -13 39 -19t29 -6q17 0 31 8t30 22
l25 -29q-15 -20 -37 -34t-52 -14z" />
    <glyph glyph-name="Ograve" unicode="&#xd2;" horiz-adv-x="697" 
d="M349 -12q-89 0 -153 41t-98.5 121.5t-34.5 198.5t34.5 198.5t98.5 121.5t153 41q88 0 152 -41t98.5 -121.5t34.5 -198.5t-34.5 -198.5t-98.5 -121.5t-152 -41zM349 42q67 0 116.5 31t77 90t27.5 142v88q0 83 -27.5 142t-77 90t-116.5 31t-117 -31t-77.5 -90t-27.5 -142
v-88q0 -83 27.5 -142t77.5 -90t117 -31zM351 760l-109 156l52 26l95 -164z" />
    <glyph glyph-name="Oacute" unicode="&#xd3;" horiz-adv-x="697" 
d="M349 -12q-89 0 -153 41t-98.5 121.5t-34.5 198.5t34.5 198.5t98.5 121.5t153 41q88 0 152 -41t98.5 -121.5t34.5 -198.5t-34.5 -198.5t-98.5 -121.5t-152 -41zM349 42q67 0 116.5 31t77 90t27.5 142v88q0 83 -27.5 142t-77 90t-116.5 31t-117 -31t-77.5 -90t-27.5 -142
v-88q0 -83 27.5 -142t77.5 -90t117 -31zM456 916l-110 -156l-37 18l95 164z" />
    <glyph glyph-name="Ocircumflex" unicode="&#xd4;" horiz-adv-x="697" 
d="M349 -12q-89 0 -153 41t-98.5 121.5t-34.5 198.5t34.5 198.5t98.5 121.5t153 41q88 0 152 -41t98.5 -121.5t34.5 -198.5t-34.5 -198.5t-98.5 -121.5t-152 -41zM349 42q67 0 116.5 31t77 90t27.5 142v88q0 83 -27.5 142t-77 90t-116.5 31t-117 -31t-77.5 -90t-27.5 -142
v-88q0 -83 27.5 -142t77.5 -90t117 -31zM314 930h70l118 -139l-32 -23l-121 121l-121 -121l-32 23z" />
    <glyph glyph-name="Otilde" unicode="&#xd5;" horiz-adv-x="697" 
d="M349 -12q-89 0 -153 41t-98.5 121.5t-34.5 198.5t34.5 198.5t98.5 121.5t153 41q88 0 152 -41t98.5 -121.5t34.5 -198.5t-34.5 -198.5t-98.5 -121.5t-152 -41zM349 42q67 0 116.5 31t77 90t27.5 142v88q0 83 -27.5 142t-77 90t-116.5 31t-117 -31t-77.5 -90t-27.5 -142
v-88q0 -83 27.5 -142t77.5 -90t117 -31zM421 792q-22 0 -40.5 8.5t-38.5 19.5q-23 13 -39 18.5t-29 5.5q-17 0 -31 -7t-30 -22l-25 29q16 20 38 34t51 14q22 0 40.5 -8t38.5 -20q23 -13 39 -19t29 -6q17 0 31 8t30 22l25 -29q-15 -20 -37 -34t-52 -14z" />
    <glyph glyph-name="Odieresis" unicode="&#xd6;" horiz-adv-x="697" 
d="M349 -12q-89 0 -153 41t-98.5 121.5t-34.5 198.5t34.5 198.5t98.5 121.5t153 41q88 0 152 -41t98.5 -121.5t34.5 -198.5t-34.5 -198.5t-98.5 -121.5t-152 -41zM349 42q67 0 116.5 31t77 90t27.5 142v88q0 83 -27.5 142t-77 90t-116.5 31t-117 -31t-77.5 -90t-27.5 -142
v-88q0 -83 27.5 -142t77.5 -90t117 -31zM257 800q-21 0 -30.5 10.5t-9.5 26.5v10q0 16 9.5 26.5t30.5 10.5t30 -10.5t9 -26.5v-10q0 -16 -9 -26.5t-30 -10.5zM441 800q-20 0 -29.5 10.5t-9.5 26.5v10q0 16 9.5 26.5t29.5 10.5q21 0 30.5 -10.5t9.5 -26.5v-10
q0 -16 -9.5 -26.5t-30.5 -10.5z" />
    <glyph glyph-name="multiply" unicode="&#xd7;" 
d="M468 100l-168 170l-168 -170l-35 35l168 170l-168 170l35 35l168 -170l168 170l35 -35l-168 -170l168 -170z" />
    <glyph glyph-name="Oslash" unicode="&#xd8;" horiz-adv-x="697" 
d="M349 -12q-55 0 -99.5 15.5t-79.5 46.5l-62 -90l-42 27l69 98q-35 46 -53.5 112t-18.5 152q0 118 34.5 198.5t98.5 121.5t153 41q54 0 98.5 -15.5t79.5 -45.5l62 89l42 -27l-69 -98q36 -46 54 -112t18 -152q0 -118 -34.5 -198.5t-98.5 -121.5t-152 -41zM349 656
q-67 0 -117 -31t-77.5 -90t-27.5 -142v-88q0 -51 11 -93.5t30 -73.5h2l179 255l145 209q-27 27 -64 40.5t-81 13.5zM349 42q67 0 116.5 31t77 90t27.5 142v88q0 52 -11 94t-30 73h-2l-178 -255l-146 -209q28 -27 65 -40.5t81 -13.5z" />
    <glyph glyph-name="Ugrave" unicode="&#xd9;" horiz-adv-x="668" 
d="M93 698h60v-431q0 -78 16.5 -127.5t56.5 -73.5t108 -24t107.5 24t56.5 73.5t17 127.5v431h60v-418q0 -102 -23 -167t-76.5 -95t-143.5 -30q-89 0 -141.5 30t-75 95t-22.5 167v418zM334 760l-109 156l52 26l95 -164z" />
    <glyph glyph-name="Uacute" unicode="&#xda;" horiz-adv-x="668" 
d="M93 698h60v-431q0 -78 16.5 -127.5t56.5 -73.5t108 -24t107.5 24t56.5 73.5t17 127.5v431h60v-418q0 -102 -23 -167t-76.5 -95t-143.5 -30q-89 0 -141.5 30t-75 95t-22.5 167v418zM439 916l-110 -156l-37 18l95 164z" />
    <glyph glyph-name="Ucircumflex" unicode="&#xdb;" horiz-adv-x="668" 
d="M93 698h60v-431q0 -78 16.5 -127.5t56.5 -73.5t108 -24t107.5 24t56.5 73.5t17 127.5v431h60v-418q0 -102 -23 -167t-76.5 -95t-143.5 -30q-89 0 -141.5 30t-75 95t-22.5 167v418zM297 930h70l118 -139l-32 -23l-121 121l-121 -121l-32 23z" />
    <glyph glyph-name="Udieresis" unicode="&#xdc;" horiz-adv-x="668" 
d="M93 698h60v-431q0 -78 16.5 -127.5t56.5 -73.5t108 -24t107.5 24t56.5 73.5t17 127.5v431h60v-418q0 -102 -23 -167t-76.5 -95t-143.5 -30q-89 0 -141.5 30t-75 95t-22.5 167v418zM240 800q-21 0 -30.5 10.5t-9.5 26.5v10q0 16 9.5 26.5t30.5 10.5t30 -10.5t9 -26.5v-10
q0 -16 -9 -26.5t-30 -10.5zM424 800q-20 0 -29.5 10.5t-9.5 26.5v10q0 16 9.5 26.5t29.5 10.5q21 0 30.5 -10.5t9.5 -26.5v-10q0 -16 -9.5 -26.5t-30.5 -10.5z" />
    <glyph glyph-name="Yacute" unicode="&#xdd;" horiz-adv-x="575" 
d="M316 0h-59v283l-241 415h68l202 -352h3l202 352h68l-243 -413v-285zM394 916l-110 -156l-37 18l95 164z" />
    <glyph glyph-name="Thorn" unicode="&#xde;" horiz-adv-x="601" 
d="M159 0h-60v698h60v-149h214q61 0 102.5 -24t63 -68t21.5 -103t-21.5 -103t-63 -68t-102.5 -24h-214v-159zM159 496v-284h214q40 0 67.5 15.5t41 42.5t13.5 61v46q0 35 -13.5 61.5t-41 42t-67.5 15.5h-214z" />
    <glyph glyph-name="germandbls" unicode="&#xdf;" horiz-adv-x="642" 
d="M606 140q0 -71 -46.5 -111.5t-126.5 -40.5q-61 0 -106 22t-77 66l40 33q29 -38 64 -55t82 -17q56 0 85.5 25.5t29.5 71.5q0 40 -19.5 62t-65.5 33l-36 8q-40 10 -71 25t-48.5 42.5t-17.5 71.5q0 68 51.5 103.5t136.5 36.5v9q0 87 -38 132.5t-114 45.5q-75 0 -113 -45.5
t-38 -132.5v-525h-57v462h-88v50h88v9q0 70 24.5 122t71 80.5t112.5 28.5q67 0 113 -28.5t70.5 -80.5t24.5 -122v-50h-35q-47 0 -81.5 -9.5t-53.5 -29.5t-19 -53q0 -42 23 -61t67 -30l35 -8q67 -16 100 -48t33 -92z" />
    <glyph glyph-name="agrave" unicode="&#xe0;" horiz-adv-x="528" 
d="M503 0h-58q-23 0 -38 9.5t-21.5 26.5t-6.5 40v27l23 -22h-27q-17 -42 -56 -67.5t-99 -25.5q-81 0 -125 40t-44 111q0 46 21.5 79t67 51t119.5 18h118v60q0 64 -33 96t-98 32q-50 0 -84.5 -22t-55.5 -62l-36 30q21 44 64.5 73.5t113.5 29.5q89 0 137.5 -45t48.5 -126v-303
h69v-50zM377 244h-120q-76 0 -111 -24.5t-35 -67.5v-24q0 -44 32.5 -67.5t84.5 -23.5q42 0 75.5 13.5t53.5 39t20 59.5v95zM253 586l-109 156l52 26l95 -164z" />
    <glyph glyph-name="aacute" unicode="&#xe1;" horiz-adv-x="528" 
d="M503 0h-58q-23 0 -38 9.5t-21.5 26.5t-6.5 40v27l23 -22h-27q-17 -42 -56 -67.5t-99 -25.5q-81 0 -125 40t-44 111q0 46 21.5 79t67 51t119.5 18h118v60q0 64 -33 96t-98 32q-50 0 -84.5 -22t-55.5 -62l-36 30q21 44 64.5 73.5t113.5 29.5q89 0 137.5 -45t48.5 -126v-303
h69v-50zM377 244h-120q-76 0 -111 -24.5t-35 -67.5v-24q0 -44 32.5 -67.5t84.5 -23.5q42 0 75.5 13.5t53.5 39t20 59.5v95zM358 742l-110 -156l-37 18l95 164z" />
    <glyph glyph-name="acircumflex" unicode="&#xe2;" horiz-adv-x="528" 
d="M503 0h-58q-23 0 -38 9.5t-21.5 26.5t-6.5 40v27l23 -22h-27q-17 -42 -56 -67.5t-99 -25.5q-81 0 -125 40t-44 111q0 46 21.5 79t67 51t119.5 18h118v60q0 64 -33 96t-98 32q-50 0 -84.5 -22t-55.5 -62l-36 30q21 44 64.5 73.5t113.5 29.5q89 0 137.5 -45t48.5 -126v-303
h69v-50zM377 244h-120q-76 0 -111 -24.5t-35 -67.5v-24q0 -44 32.5 -67.5t84.5 -23.5q42 0 75.5 13.5t53.5 39t20 59.5v95zM216 756h70l118 -139l-32 -23l-121 121l-121 -121l-32 23z" />
    <glyph glyph-name="atilde" unicode="&#xe3;" horiz-adv-x="528" 
d="M503 0h-58q-23 0 -38 9.5t-21.5 26.5t-6.5 40v27l23 -22h-27q-17 -42 -56 -67.5t-99 -25.5q-81 0 -125 40t-44 111q0 46 21.5 79t67 51t119.5 18h118v60q0 64 -33 96t-98 32q-50 0 -84.5 -22t-55.5 -62l-36 30q21 44 64.5 73.5t113.5 29.5q89 0 137.5 -45t48.5 -126v-303
h69v-50zM377 244h-120q-76 0 -111 -24.5t-35 -67.5v-24q0 -44 32.5 -67.5t84.5 -23.5q42 0 75.5 13.5t53.5 39t20 59.5v95zM323 618q-22 0 -40.5 8.5t-38.5 19.5q-23 13 -39 19t-29 6q-17 0 -31 -7.5t-30 -22.5l-25 29q16 20 38 34t51 14q22 0 40.5 -8t38.5 -20
q23 -13 39 -18.5t29 -5.5q17 0 31 7.5t30 21.5l25 -29q-15 -20 -37 -34t-52 -14z" />
    <glyph glyph-name="adieresis" unicode="&#xe4;" horiz-adv-x="528" 
d="M503 0h-58q-23 0 -38 9.5t-21.5 26.5t-6.5 40v27l23 -22h-27q-17 -42 -56 -67.5t-99 -25.5q-81 0 -125 40t-44 111q0 46 21.5 79t67 51t119.5 18h118v60q0 64 -33 96t-98 32q-50 0 -84.5 -22t-55.5 -62l-36 30q21 44 64.5 73.5t113.5 29.5q89 0 137.5 -45t48.5 -126v-303
h69v-50zM377 244h-120q-76 0 -111 -24.5t-35 -67.5v-24q0 -44 32.5 -67.5t84.5 -23.5q42 0 75.5 13.5t53.5 39t20 59.5v95zM159 627q-21 0 -30 10.5t-9 26.5v9q0 16 9 26t30 10t30 -10t9 -26v-9q0 -16 -9 -26.5t-30 -10.5zM343 627q-20 0 -29.5 10.5t-9.5 26.5v9
q0 16 9.5 26t29.5 10q21 0 30 -10t9 -26v-9q0 -16 -9 -26.5t-30 -10.5z" />
    <glyph glyph-name="aring" unicode="&#xe5;" horiz-adv-x="528" 
d="M503 0h-58q-23 0 -38 9.5t-21.5 26.5t-6.5 40v27l23 -22h-27q-17 -42 -56 -67.5t-99 -25.5q-81 0 -125 40t-44 111q0 46 21.5 79t67 51t119.5 18h118v60q0 64 -33 96t-98 32q-50 0 -84.5 -22t-55.5 -62l-36 30q21 44 64.5 73.5t113.5 29.5q89 0 137.5 -45t48.5 -126v-303
h69v-50zM377 244h-120q-76 0 -111 -24.5t-35 -67.5v-24q0 -44 32.5 -67.5t84.5 -23.5q42 0 75.5 13.5t53.5 39t20 59.5v95zM251 581q-30 0 -54 13.5t-38 37.5t-14 55q0 30 14 54t38 37.5t54 13.5q31 0 54.5 -13.5t37.5 -37.5t14 -54q0 -31 -14 -55t-37.5 -37.5t-54.5 -13.5z
M251 618q29 0 46 16t17 44v17q0 28 -17 44t-46 16t-46 -16t-17 -44v-17q0 -28 17 -44t46 -16z" />
    <glyph glyph-name="ae" unicode="&#xe6;" horiz-adv-x="863" 
d="M375 245h-120q-76 -1 -111 -25.5t-35 -67.5v-24q0 -44 32 -67.5t85 -23.5q42 0 75.5 13.5t53.5 39t20 59.5v96zM432 289h317v8q0 54 -19 94t-54 62.5t-81 22.5q-49 0 -86 -23t-57 -64t-20 -95v-5zM599 38q56 0 94.5 26t60.5 76l42 -27q-24 -56 -74.5 -90.5t-119.5 -34.5
q-51 0 -91 17.5t-65.5 45.5t-35.5 60h-4q-6 -31 -30.5 -59t-65 -46t-93.5 -18q-78 0 -123 40t-45 109q0 47 21.5 81t67.5 52.5t119 18.5h118v58q0 64 -32.5 96t-96.5 32q-52 0 -86 -21t-56 -63l-36 30q21 44 65 73.5t114 29.5q55 0 89 -18.5t51 -47t22 -57.5h4q10 31 35 59
t64 46t88 18q64 0 111.5 -31.5t73.5 -88.5t26 -132v-27h-379v-25q0 -81 44 -131.5t123 -50.5z" />
    <glyph glyph-name="ccedilla" unicode="&#xe7;" horiz-adv-x="497" 
d="M274 524q71 0 115.5 -31t66.5 -81l-48 -25q-17 42 -50.5 64t-83.5 22q-78 0 -119 -49.5t-41 -131.5v-72q0 -81 41 -131t119 -50q53 0 89 23t58 66l42 -28q-23 -47 -65.5 -77.5t-106.5 -33.5l-12 -55l2 -2q9 2 18.5 3.5t17.5 1.5q29 0 48.5 -17t19.5 -47
q0 -24 -13.5 -41.5t-36 -27t-50.5 -9.5q-35 0 -58.5 12t-33.5 25l28 31q10 -12 26 -20t38 -8t36.5 10t14.5 29q0 16 -13.5 27.5t-52.5 15.5l-31 3l14 69q-96 7 -148.5 77t-52.5 190q0 127 58.5 197.5t163.5 70.5z" />
    <glyph glyph-name="egrave" unicode="&#xe8;" horiz-adv-x="543" 
d="M276 -12q-68 0 -118.5 32t-78 92t-27.5 144t27.5 144t77.5 92t118 32q66 0 114 -31.5t75 -88.5t27 -132v-27h-379v-25q0 -81 44 -131.5t123 -50.5q55 0 94.5 26.5t60.5 76.5l42 -28q-24 -56 -75.5 -90.5t-124.5 -34.5zM275 476q-50 0 -86.5 -23t-56.5 -64t-20 -95v-5h317
v8q0 54 -19 94t-54 62.5t-81 22.5zM277 586l-109 156l52 26l95 -164z" />
    <glyph glyph-name="eacute" unicode="&#xe9;" horiz-adv-x="543" 
d="M276 -12q-68 0 -118.5 32t-78 92t-27.5 144t27.5 144t77.5 92t118 32q66 0 114 -31.5t75 -88.5t27 -132v-27h-379v-25q0 -81 44 -131.5t123 -50.5q55 0 94.5 26.5t60.5 76.5l42 -28q-24 -56 -75.5 -90.5t-124.5 -34.5zM275 476q-50 0 -86.5 -23t-56.5 -64t-20 -95v-5h317
v8q0 54 -19 94t-54 62.5t-81 22.5zM382 742l-110 -156l-37 18l95 164z" />
    <glyph glyph-name="ecircumflex" unicode="&#xea;" horiz-adv-x="543" 
d="M276 -12q-68 0 -118.5 32t-78 92t-27.5 144t27.5 144t77.5 92t118 32q66 0 114 -31.5t75 -88.5t27 -132v-27h-379v-25q0 -81 44 -131.5t123 -50.5q55 0 94.5 26.5t60.5 76.5l42 -28q-24 -56 -75.5 -90.5t-124.5 -34.5zM275 476q-50 0 -86.5 -23t-56.5 -64t-20 -95v-5h317
v8q0 54 -19 94t-54 62.5t-81 22.5zM240 756h70l118 -139l-32 -23l-121 121l-121 -121l-32 23z" />
    <glyph glyph-name="edieresis" unicode="&#xeb;" horiz-adv-x="543" 
d="M276 -12q-68 0 -118.5 32t-78 92t-27.5 144t27.5 144t77.5 92t118 32q66 0 114 -31.5t75 -88.5t27 -132v-27h-379v-25q0 -81 44 -131.5t123 -50.5q55 0 94.5 26.5t60.5 76.5l42 -28q-24 -56 -75.5 -90.5t-124.5 -34.5zM275 476q-50 0 -86.5 -23t-56.5 -64t-20 -95v-5h317
v8q0 54 -19 94t-54 62.5t-81 22.5zM183 627q-21 0 -30 10.5t-9 26.5v9q0 16 9 26t30 10t30 -10t9 -26v-9q0 -16 -9 -26.5t-30 -10.5zM367 627q-20 0 -29.5 10.5t-9.5 26.5v9q0 16 9.5 26t29.5 10q21 0 30 -10t9 -26v-9q0 -16 -9 -26.5t-30 -10.5z" />
    <glyph glyph-name="igrave" unicode="&#xec;" horiz-adv-x="243" 
d="M150 0h-57v512h57v-512zM123 586l-109 156l52 26l95 -164z" />
    <glyph glyph-name="iacute" unicode="&#xed;" horiz-adv-x="243" 
d="M150 0h-57v512h57v-512zM228 742l-110 -156l-37 18l95 164z" />
    <glyph glyph-name="icircumflex" unicode="&#xee;" horiz-adv-x="243" 
d="M150 0h-57v512h57v-512zM86 756h70l118 -139l-32 -23l-121 121l-121 -121l-32 23z" />
    <glyph glyph-name="idieresis" unicode="&#xef;" horiz-adv-x="243" 
d="M150 0h-57v512h57v-512zM29 627q-21 0 -30 10.5t-9 26.5v9q0 16 9 26t30 10t30 -10t9 -26v-9q0 -16 -9 -26.5t-30 -10.5zM213 627q-20 0 -29.5 10.5t-9.5 26.5v9q0 16 9.5 26t29.5 10q21 0 30 -10t9 -26v-9q0 -16 -9 -26.5t-30 -10.5z" />
    <glyph glyph-name="eth" unicode="&#xf0;" horiz-adv-x="551" 
d="M389 753l24 -31l-90 -64q44 -43 83.5 -102t64 -133t24.5 -161q0 -89 -28 -150t-78 -92.5t-115 -31.5q-67 0 -117 32t-77.5 90t-27.5 137q0 77 27.5 134.5t77.5 89t117 31.5q50 0 85.5 -23.5t55.5 -67.5l4 2q-17 63 -53.5 117t-83.5 99l-90 -65l-23 31l84 60
q-27 23 -59.5 45t-64.5 40h89q18 -11 36.5 -24.5t38.5 -31.5zM274 38q47 0 83 21.5t56.5 61.5t20.5 94v60q0 55 -20.5 95t-56.5 61.5t-83 21.5q-48 0 -84 -21.5t-56 -61t-20 -95.5v-60q0 -54 20 -94t56 -61.5t84 -21.5z" />
    <glyph glyph-name="ntilde" unicode="&#xf1;" horiz-adv-x="563" 
d="M150 0h-57v512h57v-81h3q17 40 53 66.5t98 26.5q82 0 127.5 -50.5t45.5 -144.5v-329h-57v319q0 78 -33.5 116t-97.5 38q-36 0 -68 -12.5t-51.5 -37.5t-19.5 -63v-360zM358 618q-22 0 -40.5 8.5t-38.5 19.5q-23 13 -39 19t-29 6q-17 0 -31 -7.5t-30 -22.5l-25 29
q16 20 38 34t51 14q22 0 40.5 -8t38.5 -20q23 -13 39 -18.5t29 -5.5q17 0 31 7.5t30 21.5l25 -29q-15 -20 -37 -34t-52 -14z" />
    <glyph glyph-name="ograve" unicode="&#xf2;" horiz-adv-x="552" 
d="M276 -12q-68 0 -118 32t-78 92t-28 144t28 144t78 92t118 32t118.5 -32t78 -92t27.5 -144t-27.5 -144t-78 -92t-118.5 -32zM276 39q75 0 119 47.5t44 137.5v64q0 90 -44 137.5t-119 47.5q-74 0 -118 -47.5t-44 -137.5v-64q0 -90 44 -137.5t118 -47.5zM278 586l-109 156
l52 26l95 -164z" />
    <glyph glyph-name="oacute" unicode="&#xf3;" horiz-adv-x="552" 
d="M276 -12q-68 0 -118 32t-78 92t-28 144t28 144t78 92t118 32t118.5 -32t78 -92t27.5 -144t-27.5 -144t-78 -92t-118.5 -32zM276 39q75 0 119 47.5t44 137.5v64q0 90 -44 137.5t-119 47.5q-74 0 -118 -47.5t-44 -137.5v-64q0 -90 44 -137.5t118 -47.5zM383 742l-110 -156
l-37 18l95 164z" />
    <glyph glyph-name="ocircumflex" unicode="&#xf4;" horiz-adv-x="552" 
d="M276 -12q-68 0 -118 32t-78 92t-28 144t28 144t78 92t118 32t118.5 -32t78 -92t27.5 -144t-27.5 -144t-78 -92t-118.5 -32zM276 39q75 0 119 47.5t44 137.5v64q0 90 -44 137.5t-119 47.5q-74 0 -118 -47.5t-44 -137.5v-64q0 -90 44 -137.5t118 -47.5zM241 756h70
l118 -139l-32 -23l-121 121l-121 -121l-32 23z" />
    <glyph glyph-name="otilde" unicode="&#xf5;" horiz-adv-x="552" 
d="M276 -12q-68 0 -118 32t-78 92t-28 144t28 144t78 92t118 32t118.5 -32t78 -92t27.5 -144t-27.5 -144t-78 -92t-118.5 -32zM276 39q75 0 119 47.5t44 137.5v64q0 90 -44 137.5t-119 47.5q-74 0 -118 -47.5t-44 -137.5v-64q0 -90 44 -137.5t118 -47.5zM348 618
q-22 0 -40.5 8.5t-38.5 19.5q-23 13 -39 19t-29 6q-17 0 -31 -7.5t-30 -22.5l-25 29q16 20 38 34t51 14q22 0 40.5 -8t38.5 -20q23 -13 39 -18.5t29 -5.5q17 0 31 7.5t30 21.5l25 -29q-15 -20 -37 -34t-52 -14z" />
    <glyph glyph-name="odieresis" unicode="&#xf6;" horiz-adv-x="552" 
d="M276 -12q-68 0 -118 32t-78 92t-28 144t28 144t78 92t118 32t118.5 -32t78 -92t27.5 -144t-27.5 -144t-78 -92t-118.5 -32zM276 39q75 0 119 47.5t44 137.5v64q0 90 -44 137.5t-119 47.5q-74 0 -118 -47.5t-44 -137.5v-64q0 -90 44 -137.5t118 -47.5zM184 627
q-21 0 -30 10.5t-9 26.5v9q0 16 9 26t30 10t30 -10t9 -26v-9q0 -16 -9 -26.5t-30 -10.5zM368 627q-20 0 -29.5 10.5t-9.5 26.5v9q0 16 9.5 26t29.5 10q21 0 30 -10t9 -26v-9q0 -16 -9 -26.5t-30 -10.5z" />
    <glyph glyph-name="divide" unicode="&#xf7;" 
d="M535 281h-470v49h470v-49zM300 63q-27 0 -39 11.5t-12 28.5v17q0 17 12 28t39 11q28 0 39.5 -11t11.5 -28v-17q0 -17 -11.5 -28.5t-39.5 -11.5zM300 451q-27 0 -39 11t-12 29v16q0 18 12 29t39 11q28 0 39.5 -11t11.5 -29v-16q0 -18 -11.5 -29t-39.5 -11z" />
    <glyph glyph-name="oslash" unicode="&#xf8;" horiz-adv-x="559" 
d="M70 -35l-33 25l67 84q-23 35 -35.5 80t-12.5 102q0 84 27.5 144t78 92t118.5 32q43 0 80 -14t65 -40l65 81l32 -25l-68 -87q24 -34 37 -80t13 -103q0 -84 -28 -144t-78 -92t-118 -32q-45 0 -82 14t-65 41zM280 39q74 0 118 47.5t44 137.5v64q0 22 -3 41t-8 35.5t-12 29.5
h-2l-137 -169l-115 -142q21 -21 50 -32.5t65 -11.5zM280 473q-74 0 -118.5 -47.5t-44.5 -137.5v-64q0 -20 2.5 -38.5t7.5 -35t12 -29.5h2l139 170l113 140q-21 21 -49.5 31.5t-63.5 10.5z" />
    <glyph glyph-name="ugrave" unicode="&#xf9;" horiz-adv-x="563" 
d="M414 0v81h-4q-14 -36 -49 -64.5t-101 -28.5q-81 0 -127.5 50.5t-46.5 144.5v329h57v-318q0 -78 34 -116.5t98 -38.5q36 0 67.5 12.5t51.5 37.5t20 64v359h57v-512h-57zM280 586l-109 156l52 26l95 -164z" />
    <glyph glyph-name="uacute" unicode="&#xfa;" horiz-adv-x="563" 
d="M414 0v81h-4q-14 -36 -49 -64.5t-101 -28.5q-81 0 -127.5 50.5t-46.5 144.5v329h57v-318q0 -78 34 -116.5t98 -38.5q36 0 67.5 12.5t51.5 37.5t20 64v359h57v-512h-57zM385 742l-110 -156l-37 18l95 164z" />
    <glyph glyph-name="ucircumflex" unicode="&#xfb;" horiz-adv-x="563" 
d="M414 0v81h-4q-14 -36 -49 -64.5t-101 -28.5q-81 0 -127.5 50.5t-46.5 144.5v329h57v-318q0 -78 34 -116.5t98 -38.5q36 0 67.5 12.5t51.5 37.5t20 64v359h57v-512h-57zM243 756h70l118 -139l-32 -23l-121 121l-121 -121l-32 23z" />
    <glyph glyph-name="udieresis" unicode="&#xfc;" horiz-adv-x="563" 
d="M414 0v81h-4q-14 -36 -49 -64.5t-101 -28.5q-81 0 -127.5 50.5t-46.5 144.5v329h57v-318q0 -78 34 -116.5t98 -38.5q36 0 67.5 12.5t51.5 37.5t20 64v359h57v-512h-57zM186 627q-21 0 -30 10.5t-9 26.5v9q0 16 9 26t30 10t30 -10t9 -26v-9q0 -16 -9 -26.5t-30 -10.5z
M370 627q-20 0 -29.5 10.5t-9.5 26.5v9q0 16 9.5 26t29.5 10q21 0 30 -10t9 -26v-9q0 -16 -9 -26.5t-30 -10.5z" />
    <glyph glyph-name="yacute" unicode="&#xfd;" horiz-adv-x="481" 
d="M283 176l121 336h57l-241 -656q-7 -21 -17 -33.5t-26 -17.5t-42 -5h-58v50h86l49 135l-192 527h58l120 -336l39 -117h4zM348 742l-110 -156l-37 18l95 164z" />
    <glyph glyph-name="thorn" unicode="&#xfe;" horiz-adv-x="574" 
d="M93 -200v940h57v-310h3q19 43 58.5 68.5t97.5 25.5q66 0 113 -31.5t72.5 -91.5t25.5 -145q0 -84 -25.5 -144.5t-72.5 -92t-113 -31.5q-58 0 -96.5 26t-59.5 68h-3v-282h-57zM296 39q77 0 120 49.5t43 131.5v72q0 83 -43 132t-120 49q-39 0 -72.5 -14.5t-53.5 -40
t-20 -59.5v-203q0 -35 20 -61.5t53.5 -41t72.5 -14.5z" />
    <glyph glyph-name="ydieresis" unicode="&#xff;" horiz-adv-x="481" 
d="M283 176l121 336h57l-241 -656q-7 -21 -17 -33.5t-26 -17.5t-42 -5h-58v50h86l49 135l-192 527h58l120 -336l39 -117h4zM149 627q-21 0 -30 10.5t-9 26.5v9q0 16 9 26t30 10t30 -10t9 -26v-9q0 -16 -9 -26.5t-30 -10.5zM333 627q-20 0 -29.5 10.5t-9.5 26.5v9
q0 16 9.5 26t29.5 10q21 0 30 -10t9 -26v-9q0 -16 -9 -26.5t-30 -10.5z" />
    <glyph glyph-name="Amacron" unicode="&#x100;" horiz-adv-x="625" 
d="M599 0h-63l-76 217h-297l-76 -217h-60l247 698h77zM444 269l-91 260l-40 112h-4l-39 -112l-92 -260h266zM177 819v49h272v-49h-272z" />
    <glyph glyph-name="amacron" unicode="&#x101;" horiz-adv-x="528" 
d="M503 0h-58q-23 0 -38 9.5t-21.5 26.5t-6.5 40v27l23 -22h-27q-17 -42 -56 -67.5t-99 -25.5q-81 0 -125 40t-44 111q0 46 21.5 79t67 51t119.5 18h118v60q0 64 -33 96t-98 32q-50 0 -84.5 -22t-55.5 -62l-36 30q21 44 64.5 73.5t113.5 29.5q89 0 137.5 -45t48.5 -126v-303
h69v-50zM377 244h-120q-76 0 -111 -24.5t-35 -67.5v-24q0 -44 32.5 -67.5t84.5 -23.5q42 0 75.5 13.5t53.5 39t20 59.5v95zM115 645v49h272v-49h-272z" />
    <glyph glyph-name="Abreve" unicode="&#x102;" horiz-adv-x="625" 
d="M599 0h-63l-76 217h-297l-76 -217h-60l247 698h77zM444 269l-91 260l-40 112h-4l-39 -112l-92 -260h266zM313 774q-34 0 -57.5 10t-39.5 27.5t-26.5 39t-20.5 45.5l33 16l19 -31q19 -32 37.5 -46.5t54.5 -14.5t55 14.5t37 46.5l19 31l33 -16q-12 -31 -28 -59t-43 -45.5
t-73 -17.5z" />
    <glyph glyph-name="abreve" unicode="&#x103;" horiz-adv-x="528" 
d="M503 0h-58q-23 0 -38 9.5t-21.5 26.5t-6.5 40v27l23 -22h-27q-17 -42 -56 -67.5t-99 -25.5q-81 0 -125 40t-44 111q0 46 21.5 79t67 51t119.5 18h118v60q0 64 -33 96t-98 32q-50 0 -84.5 -22t-55.5 -62l-36 30q21 44 64.5 73.5t113.5 29.5q89 0 137.5 -45t48.5 -126v-303
h69v-50zM377 244h-120q-76 0 -111 -24.5t-35 -67.5v-24q0 -44 32.5 -67.5t84.5 -23.5q42 0 75.5 13.5t53.5 39t20 59.5v95zM251 600q-34 0 -57.5 10t-39.5 27.5t-26.5 39t-20.5 45.5l33 16l19 -31q19 -31 37.5 -46t54.5 -15t55 15t37 46l19 31l33 -16q-10 -24 -20.5 -45.5
t-26.5 -39t-39 -27.5t-58 -10z" />
    <glyph glyph-name="Aogonek" unicode="&#x104;" horiz-adv-x="625" 
d="M27 0l247 698h77l248 -698q-40 -33 -62 -55t-31.5 -38.5t-9.5 -33.5q0 -20 12 -29t30 -9t31.5 7t21.5 17l30 -28q-10 -15 -30.5 -25.5t-52.5 -10.5q-25 0 -45 8t-32 24.5t-12 40.5q0 23 12 44.5t35.5 43t58.5 43.5v1h-19l-76 217h-297l-76 -217h-60zM445 269l-92 260
l-40 112h-4l-39 -112l-92 -260h267z" />
    <glyph glyph-name="aogonek" unicode="&#x105;" horiz-adv-x="528" 
d="M503 50v-50q-41 -34 -64 -56t-33 -38t-10 -33q0 -20 12 -29t30 -9t31.5 7t21.5 17l30 -28q-9 -15 -30 -25.5t-53 -10.5q-24 0 -44.5 8t-32.5 24t-12 40q0 35 27.5 66t79.5 65l-7 24l28 -22h-32q-24 0 -38.5 9.5t-21 27t-6.5 39.5v27l23 -22h-27q-17 -42 -56 -67.5
t-99 -25.5q-81 0 -125 40t-44 111q0 46 21.5 79t67 51t119.5 18h118v60q0 64 -33 96t-98 32q-50 0 -84.5 -22t-55.5 -62l-36 30q21 44 64.5 73.5t113.5 29.5q89 0 137.5 -45t48.5 -126v-303h69zM377 244h-120q-76 0 -111 -24.5t-35 -67.5v-24q0 -44 32.5 -67.5t84.5 -23.5
q42 0 75.5 13.5t53.5 39t20 59.5v95z" />
    <glyph glyph-name="Cacute" unicode="&#x106;" horiz-adv-x="617" 
d="M335 -12q-86 0 -147 40.5t-93 120t-32 198.5q0 118 32 199t93 122.5t147 41.5q83 0 141.5 -40t89.5 -109l-49 -29q-23 57 -69.5 90.5t-112.5 33.5q-97 0 -152.5 -70.5t-55.5 -199.5v-79q0 -128 55.5 -196.5t152.5 -68.5q70 0 117.5 35.5t69.5 95.5l49 -29
q-31 -71 -91.5 -113.5t-144.5 -42.5zM441 916l-110 -156l-37 18l95 164z" />
    <glyph glyph-name="cacute" unicode="&#x107;" horiz-adv-x="497" 
d="M274 -12q-105 0 -163.5 70.5t-58.5 197.5t58.5 197.5t163.5 70.5q71 0 115.5 -31.5t66.5 -81.5l-48 -24q-17 42 -50.5 64t-83.5 22q-78 0 -119 -49.5t-41 -131.5v-72q0 -81 41 -131t119 -50q53 0 89 23t58 66l42 -28q-25 -50 -71.5 -81t-117.5 -31zM381 742l-110 -156
l-37 18l95 164z" />
    <glyph glyph-name="Ccircumflex" unicode="&#x108;" horiz-adv-x="617" 
d="M335 -12q-86 0 -147 40.5t-93 120t-32 198.5q0 118 32 199t93 122.5t147 41.5q83 0 141.5 -40t89.5 -109l-49 -29q-23 57 -69.5 90.5t-112.5 33.5q-97 0 -152.5 -70.5t-55.5 -199.5v-79q0 -128 55.5 -196.5t152.5 -68.5q70 0 117.5 35.5t69.5 95.5l49 -29
q-31 -71 -91.5 -113.5t-144.5 -42.5zM299 930h70l118 -139l-32 -23l-121 121l-121 -121l-32 23z" />
    <glyph glyph-name="ccircumflex" unicode="&#x109;" horiz-adv-x="497" 
d="M274 -12q-105 0 -163.5 70.5t-58.5 197.5t58.5 197.5t163.5 70.5q71 0 115.5 -31.5t66.5 -81.5l-48 -24q-17 42 -50.5 64t-83.5 22q-78 0 -119 -49.5t-41 -131.5v-72q0 -81 41 -131t119 -50q53 0 89 23t58 66l42 -28q-25 -50 -71.5 -81t-117.5 -31zM239 756h70l118 -139
l-32 -23l-121 121l-121 -121l-32 23z" />
    <glyph glyph-name="Cdotaccent" unicode="&#x10a;" horiz-adv-x="617" 
d="M335 -12q-86 0 -147 40.5t-93 120t-32 198.5q0 118 32 199t93 122.5t147 41.5q83 0 141.5 -40t89.5 -109l-49 -29q-23 57 -69.5 90.5t-112.5 33.5q-97 0 -152.5 -70.5t-55.5 -199.5v-79q0 -128 55.5 -196.5t152.5 -68.5q70 0 117.5 35.5t69.5 95.5l49 -29
q-31 -71 -91.5 -113.5t-144.5 -42.5zM334 796q-22 0 -32.5 11.5t-10.5 29.5v11q0 18 10.5 29.5t32.5 11.5q23 0 33 -11.5t10 -29.5v-11q0 -18 -10 -29.5t-33 -11.5z" />
    <glyph glyph-name="cdotaccent" unicode="&#x10b;" horiz-adv-x="497" 
d="M274 -12q-105 0 -163.5 70.5t-58.5 197.5t58.5 197.5t163.5 70.5q71 0 115.5 -31.5t66.5 -81.5l-48 -24q-17 42 -50.5 64t-83.5 22q-78 0 -119 -49.5t-41 -131.5v-72q0 -81 41 -131t119 -50q53 0 89 23t58 66l42 -28q-25 -50 -71.5 -81t-117.5 -31zM274 626q-20 0 -30 10
t-10 26v10q0 16 10 26t30 10q21 0 30.5 -10t9.5 -26v-10q0 -16 -9.5 -26t-30.5 -10z" />
    <glyph glyph-name="Ccaron" unicode="&#x10c;" horiz-adv-x="617" 
d="M335 -12q-86 0 -147 40.5t-93 120t-32 198.5q0 118 32 199t93 122.5t147 41.5q83 0 141.5 -40t89.5 -109l-49 -29q-23 57 -69.5 90.5t-112.5 33.5q-97 0 -152.5 -70.5t-55.5 -199.5v-79q0 -128 55.5 -196.5t152.5 -68.5q70 0 117.5 35.5t69.5 95.5l49 -29
q-31 -71 -91.5 -113.5t-144.5 -42.5zM369 774h-70l-118 140l32 23l121 -121l121 121l32 -23z" />
    <glyph glyph-name="ccaron" unicode="&#x10d;" horiz-adv-x="497" 
d="M274 -12q-105 0 -163.5 70.5t-58.5 197.5t58.5 197.5t163.5 70.5q71 0 115.5 -31.5t66.5 -81.5l-48 -24q-17 42 -50.5 64t-83.5 22q-78 0 -119 -49.5t-41 -131.5v-72q0 -81 41 -131t119 -50q53 0 89 23t58 66l42 -28q-25 -50 -71.5 -81t-117.5 -31zM309 601h-70l-118 139
l32 23l121 -121l121 121l32 -23z" />
    <glyph glyph-name="Dcaron" unicode="&#x10e;" horiz-adv-x="666" 
d="M99 0v698h222q89 0 152.5 -38.5t96.5 -116t33 -194.5q0 -116 -33 -194t-96.5 -116.5t-152.5 -38.5h-222zM159 53h163q69 0 117.5 30.5t74 86t25.5 133.5v92q0 78 -25.5 134t-74 86t-117.5 30h-163v-592zM339 774h-70l-118 140l32 23l121 -121l121 121l32 -23z" />
    <glyph glyph-name="dcaron" unicode="&#x10f;" horiz-adv-x="588" 
d="M424 0v82h-3q-21 -42 -59.5 -68t-96.5 -26q-65 0 -112.5 31.5t-73 92t-25.5 144.5q0 85 25.5 145t73 91.5t112.5 31.5q58 0 97.5 -25.5t58.5 -68.5h3v310h57v-740h-57zM278 39q40 0 73 14.5t53 41t20 61.5v203q0 34 -20 59.5t-53 40t-73 14.5q-76 0 -119.5 -49
t-43.5 -132v-72q0 -82 43.5 -131.5t119.5 -49.5zM630 740l-42 -181h-39l14 181h67z" />
    <glyph glyph-name="Dcroat" unicode="&#x110;" horiz-adv-x="669" 
d="M102 0v346h-81v46h81v306h222q89 0 152.5 -38.5t96.5 -116t33 -194.5q0 -116 -33 -194t-96.5 -116.5t-152.5 -38.5h-222zM162 53h163q69 0 117.5 30.5t74 86t25.5 133.5v92q0 78 -25.5 134t-74 86t-117.5 30h-163v-253h150v-46h-150v-293z" />
    <glyph glyph-name="dcroat" unicode="&#x111;" horiz-adv-x="577" 
d="M424 0v82h-3q-21 -42 -59.5 -68t-96.5 -26q-65 0 -112.5 31.5t-73 92t-25.5 144.5q0 85 25.5 145t73 91.5t112.5 31.5q58 0 97.5 -25.5t58.5 -68.5h3v186h-155v45h155v79h57v-79h65v-45h-65v-616h-57zM278 39q40 0 73 14.5t53 41t20 61.5v203q0 34 -20 59.5t-53 40
t-73 14.5q-76 0 -119.5 -49t-43.5 -132v-72q0 -82 43.5 -131.5t119.5 -49.5z" />
    <glyph glyph-name="Emacron" unicode="&#x112;" horiz-adv-x="574" 
d="M507 0h-408v698h408v-53h-348v-265h331v-53h-331v-274h348v-53zM166 819v49h272v-49h-272z" />
    <glyph glyph-name="emacron" unicode="&#x113;" horiz-adv-x="543" 
d="M276 -12q-68 0 -118.5 32t-78 92t-27.5 144t27.5 144t77.5 92t118 32q66 0 114 -31.5t75 -88.5t27 -132v-27h-379v-25q0 -81 44 -131.5t123 -50.5q55 0 94.5 26.5t60.5 76.5l42 -28q-24 -56 -75.5 -90.5t-124.5 -34.5zM275 476q-50 0 -86.5 -23t-56.5 -64t-20 -95v-5h317
v8q0 54 -19 94t-54 62.5t-81 22.5zM139 645v49h272v-49h-272z" />
    <glyph glyph-name="Ebreve" unicode="&#x114;" horiz-adv-x="574" 
d="M507 0h-408v698h408v-53h-348v-265h331v-53h-331v-274h348v-53zM302 774q-34 0 -57.5 10t-39.5 27.5t-26.5 39t-20.5 45.5l33 16l19 -31q19 -32 37.5 -46.5t54.5 -14.5t55 14.5t37 46.5l19 31l33 -16q-12 -31 -28 -59t-43 -45.5t-73 -17.5z" />
    <glyph glyph-name="ebreve" unicode="&#x115;" horiz-adv-x="543" 
d="M276 -12q-68 0 -118.5 32t-78 92t-27.5 144t27.5 144t77.5 92t118 32q66 0 114 -31.5t75 -88.5t27 -132v-27h-379v-25q0 -81 44 -131.5t123 -50.5q55 0 94.5 26.5t60.5 76.5l42 -28q-24 -56 -75.5 -90.5t-124.5 -34.5zM275 476q-50 0 -86.5 -23t-56.5 -64t-20 -95v-5h317
v8q0 54 -19 94t-54 62.5t-81 22.5zM275 600q-34 0 -57.5 10t-39.5 27.5t-26.5 39t-20.5 45.5l33 16l19 -31q19 -31 37.5 -46t54.5 -15t55 15t37 46l19 31l33 -16q-10 -24 -20.5 -45.5t-26.5 -39t-39 -27.5t-58 -10z" />
    <glyph glyph-name="Edotaccent" unicode="&#x116;" horiz-adv-x="574" 
d="M507 0h-408v698h408v-53h-348v-265h331v-53h-331v-274h348v-53zM302 796q-22 0 -32.5 11.5t-10.5 29.5v11q0 18 10.5 29.5t32.5 11.5q23 0 33 -11.5t10 -29.5v-11q0 -18 -10 -29.5t-33 -11.5z" />
    <glyph glyph-name="edotaccent" unicode="&#x117;" horiz-adv-x="543" 
d="M276 -12q-68 0 -118.5 32t-78 92t-27.5 144t27.5 144t77.5 92t118 32q66 0 114 -31.5t75 -88.5t27 -132v-27h-379v-25q0 -81 44 -131.5t123 -50.5q55 0 94.5 26.5t60.5 76.5l42 -28q-24 -56 -75.5 -90.5t-124.5 -34.5zM275 476q-50 0 -86.5 -23t-56.5 -64t-20 -95v-5h317
v8q0 54 -19 94t-54 62.5t-81 22.5zM275 626q-20 0 -30 10t-10 26v10q0 16 10 26t30 10q21 0 30.5 -10t9.5 -26v-10q0 -16 -9.5 -26t-30.5 -10z" />
    <glyph glyph-name="Eogonek" unicode="&#x118;" horiz-adv-x="574" 
d="M99 0v698h408v-53h-348v-265h331v-53h-331v-274h348v-53q-41 -34 -64 -56t-32.5 -38t-9.5 -33q0 -20 12 -29t30 -9t31 7t22 17l30 -28q-10 -15 -30.5 -25.5t-52.5 -10.5q-25 0 -45 8t-32 24t-12 40q0 35 27 66t78 63l-1 4h-359z" />
    <glyph glyph-name="eogonek" unicode="&#x119;" horiz-adv-x="543" 
d="M339 -205q-24 0 -44 8t-32 24.5t-12 41.5t12 47t34.5 42.5t51.5 38.5l-3 4q-13 -6 -30 -9.5t-40 -3.5q-68 0 -118.5 32t-78 92t-27.5 144t27.5 144t77.5 92t118 32q66 0 114 -31.5t75 -88.5t27 -132v-27h-379v-25q0 -81 44 -131.5t123 -50.5q55 0 94.5 26.5t60.5 76.5
l42 -28q-10 -24 -23.5 -42t-31.5 -33q-21 -19 -42.5 -38.5t-39.5 -40t-29.5 -41.5t-11.5 -43q0 -21 12 -30.5t30 -9.5t31.5 7t21.5 17l29 -28q-9 -15 -30 -25.5t-53 -10.5zM112 289h317v8q0 54 -19 94t-54 62.5t-81 22.5q-50 0 -86.5 -23t-56.5 -64t-20 -95v-5z" />
    <glyph glyph-name="Ecaron" unicode="&#x11a;" horiz-adv-x="574" 
d="M507 0h-408v698h408v-53h-348v-265h331v-53h-331v-274h348v-53zM337 774h-70l-118 140l32 23l121 -121l121 121l32 -23z" />
    <glyph glyph-name="ecaron" unicode="&#x11b;" horiz-adv-x="543" 
d="M276 -12q-68 0 -118.5 32t-78 92t-27.5 144t27.5 144t77.5 92t118 32q66 0 114 -31.5t75 -88.5t27 -132v-27h-379v-25q0 -81 44 -131.5t123 -50.5q55 0 94.5 26.5t60.5 76.5l42 -28q-24 -56 -75.5 -90.5t-124.5 -34.5zM275 476q-50 0 -86.5 -23t-56.5 -64t-20 -95v-5h317
v8q0 54 -19 94t-54 62.5t-81 22.5zM310 601h-70l-118 139l32 23l121 -121l121 121l32 -23z" />
    <glyph glyph-name="Gcircumflex" unicode="&#x11c;" horiz-adv-x="684" 
d="M553 0v107h-3q-19 -54 -71.5 -86.5t-133.5 -32.5q-86 0 -149.5 41t-98 121.5t-34.5 198.5t34.5 198.5t99 121.5t152.5 41q89 0 151 -41t93 -108l-49 -29q-25 58 -75.5 91t-119.5 33q-67 0 -117 -31t-77.5 -90.5t-27.5 -142.5v-85q0 -83 27.5 -142.5t78.5 -91t121 -31.5
q53 0 97.5 18.5t71.5 56.5t27 95v84h-163v52h222v-348h-56zM314 930h70l118 -139l-32 -23l-121 121l-121 -121l-32 23z" />
    <glyph glyph-name="gcircumflex" unicode="&#x11d;" horiz-adv-x="529" 
d="M513 -60q0 -52 -28 -86t-83 -50t-135 -16q-78 0 -127 15.5t-71.5 44.5t-22.5 68q0 43 23.5 69.5t64.5 38.5v8q-24 10 -36 27.5t-12 42.5q0 37 25 57.5t62 30.5v4q-45 21 -70 60.5t-25 95.5q0 52 23 91t65 61t98 22q21 0 40 -3t36 -9h163v-46h-100v-2q21 -15 34.5 -45.5
t13.5 -68.5q0 -52 -23 -91.5t-65 -61.5t-98 -22q-14 0 -27 2l-26 4q-32 -9 -54 -24.5t-22 -41.5q0 -22 20 -34t62 -12h119q92 0 134 -34.5t42 -94.5zM265 222q59 0 92.5 29.5t33.5 82.5v32q0 53 -33.5 82.5t-92.5 29.5t-92.5 -29.5t-33.5 -82.5v-32q0 -53 33.5 -82.5
t92.5 -29.5zM458 -64q0 37 -26.5 58.5t-94.5 21.5h-166q-33 -11 -52 -33t-19 -55q0 -40 33 -66.5t100 -26.5h64q74 0 117.5 24.5t43.5 76.5zM230 756h70l118 -139l-32 -23l-121 121l-121 -121l-32 23z" />
    <glyph glyph-name="Gbreve" unicode="&#x11e;" horiz-adv-x="684" 
d="M553 0v107h-3q-19 -54 -71.5 -86.5t-133.5 -32.5q-86 0 -149.5 41t-98 121.5t-34.5 198.5t34.5 198.5t99 121.5t152.5 41q89 0 151 -41t93 -108l-49 -29q-25 58 -75.5 91t-119.5 33q-67 0 -117 -31t-77.5 -90.5t-27.5 -142.5v-85q0 -83 27.5 -142.5t78.5 -91t121 -31.5
q53 0 97.5 18.5t71.5 56.5t27 95v84h-163v52h222v-348h-56zM349 774q-34 0 -57.5 10t-39.5 27.5t-26.5 39t-20.5 45.5l33 16l19 -31q19 -32 37.5 -46.5t54.5 -14.5t55 14.5t37 46.5l19 31l33 -16q-12 -31 -28 -59t-43 -45.5t-73 -17.5z" />
    <glyph glyph-name="gbreve" unicode="&#x11f;" horiz-adv-x="529" 
d="M513 -60q0 -52 -28 -86t-83 -50t-135 -16q-78 0 -127 15.5t-71.5 44.5t-22.5 68q0 43 23.5 69.5t64.5 38.5v8q-24 10 -36 27.5t-12 42.5q0 37 25 57.5t62 30.5v4q-45 21 -70 60.5t-25 95.5q0 52 23 91t65 61t98 22q21 0 40 -3t36 -9h163v-46h-100v-2q21 -15 34.5 -45.5
t13.5 -68.5q0 -52 -23 -91.5t-65 -61.5t-98 -22q-14 0 -27 2l-26 4q-32 -9 -54 -24.5t-22 -41.5q0 -22 20 -34t62 -12h119q92 0 134 -34.5t42 -94.5zM265 222q59 0 92.5 29.5t33.5 82.5v32q0 53 -33.5 82.5t-92.5 29.5t-92.5 -29.5t-33.5 -82.5v-32q0 -53 33.5 -82.5
t92.5 -29.5zM458 -64q0 37 -26.5 58.5t-94.5 21.5h-166q-33 -11 -52 -33t-19 -55q0 -40 33 -66.5t100 -26.5h64q74 0 117.5 24.5t43.5 76.5zM264 600q-34 0 -57.5 10t-39.5 27.5t-26.5 39t-20.5 45.5l33 16l19 -31q19 -31 37.5 -46t54.5 -15t55 15t37 46l19 31l33 -16
q-10 -24 -20.5 -45.5t-26.5 -39t-39 -27.5t-58 -10z" />
    <glyph glyph-name="Gdotaccent" unicode="&#x120;" horiz-adv-x="684" 
d="M553 0v107h-3q-19 -54 -71.5 -86.5t-133.5 -32.5q-86 0 -149.5 41t-98 121.5t-34.5 198.5t34.5 198.5t99 121.5t152.5 41q89 0 151 -41t93 -108l-49 -29q-25 58 -75.5 91t-119.5 33q-67 0 -117 -31t-77.5 -90.5t-27.5 -142.5v-85q0 -83 27.5 -142.5t78.5 -91t121 -31.5
q53 0 97.5 18.5t71.5 56.5t27 95v84h-163v52h222v-348h-56zM349 796q-22 0 -32.5 11.5t-10.5 29.5v11q0 18 10.5 29.5t32.5 11.5q23 0 33 -11.5t10 -29.5v-11q0 -18 -10 -29.5t-33 -11.5z" />
    <glyph glyph-name="gdotaccent" unicode="&#x121;" horiz-adv-x="529" 
d="M513 -60q0 -52 -28 -86t-83 -50t-135 -16q-78 0 -127 15.5t-71.5 44.5t-22.5 68q0 43 23.5 69.5t64.5 38.5v8q-24 10 -36 27.5t-12 42.5q0 37 25 57.5t62 30.5v4q-45 21 -70 60.5t-25 95.5q0 52 23 91t65 61t98 22q21 0 40 -3t36 -9h163v-46h-100v-2q21 -15 34.5 -45.5
t13.5 -68.5q0 -52 -23 -91.5t-65 -61.5t-98 -22q-14 0 -27 2l-26 4q-32 -9 -54 -24.5t-22 -41.5q0 -22 20 -34t62 -12h119q92 0 134 -34.5t42 -94.5zM265 222q59 0 92.5 29.5t33.5 82.5v32q0 53 -33.5 82.5t-92.5 29.5t-92.5 -29.5t-33.5 -82.5v-32q0 -53 33.5 -82.5
t92.5 -29.5zM458 -64q0 37 -26.5 58.5t-94.5 21.5h-166q-33 -11 -52 -33t-19 -55q0 -40 33 -66.5t100 -26.5h64q74 0 117.5 24.5t43.5 76.5zM265 626q-20 0 -30 10t-10 26v10q0 16 10 26t30 10q21 0 30.5 -10t9.5 -26v-10q0 -16 -9.5 -26t-30.5 -10z" />
    <glyph glyph-name="Gcommaaccent" unicode="&#x122;" horiz-adv-x="684" 
d="M553 0v107h-3q-19 -54 -71.5 -86.5t-133.5 -32.5q-86 0 -149.5 41t-98 121.5t-34.5 198.5t34.5 198.5t99 121.5t152.5 41q89 0 151 -41t93 -108l-49 -29q-25 58 -75.5 91t-119.5 33q-67 0 -117 -31t-77.5 -90.5t-27.5 -142.5v-85q0 -83 27.5 -142.5t78.5 -91t121 -31.5
q53 0 97.5 18.5t71.5 56.5t27 95v84h-163v52h222v-348h-56zM345 -66q20 0 30 -10t10 -27v-11q0 -31 -16 -63.5t-38 -54.5h-42q20 22 31.5 43.5t16.5 41.5q-16 2 -24 12t-8 23v9q0 17 10 27t30 10z" />
    <glyph glyph-name="gcommaaccent" unicode="&#x123;" horiz-adv-x="529" 
d="M513 -60q0 -52 -28 -86t-83 -50t-135 -16q-78 0 -127 15.5t-71.5 44.5t-22.5 68q0 43 23.5 69.5t64.5 38.5v8q-24 10 -36 27.5t-12 42.5q0 37 25 57.5t62 30.5v4q-45 21 -70 60.5t-25 95.5q0 52 23 91t65 61t98 22q21 0 40 -3t36 -9h163v-46h-100v-2q21 -15 34.5 -45.5
t13.5 -68.5q0 -52 -23 -91.5t-65 -61.5t-98 -22q-14 0 -27 2l-26 4q-32 -9 -54 -24.5t-22 -41.5q0 -22 20 -34t62 -12h119q92 0 134 -34.5t42 -94.5zM265 222q59 0 92.5 29.5t33.5 82.5v32q0 53 -33.5 82.5t-92.5 29.5t-92.5 -29.5t-33.5 -82.5v-32q0 -53 33.5 -82.5
t92.5 -29.5zM458 -64q0 37 -26.5 58.5t-94.5 21.5h-166q-33 -11 -52 -33t-19 -55q0 -40 33 -66.5t100 -26.5h64q74 0 117.5 24.5t43.5 76.5zM265 597q-20 0 -29.5 9.5t-9.5 27.5v11q0 31 16 63.5t38 54.5h42q-21 -22 -32.5 -43.5t-16.5 -41.5q17 -3 25 -12t8 -23v-9
q0 -18 -10 -27.5t-31 -9.5z" />
    <glyph glyph-name="Hcircumflex" unicode="&#x124;" horiz-adv-x="701" 
d="M542 0v327h-383v-327h-60v698h60v-318h383v318h60v-698h-60zM316 930h70l118 -139l-32 -23l-121 121l-121 -121l-32 23z" />
    <glyph glyph-name="hcircumflex" unicode="&#x125;" horiz-adv-x="563" 
d="M93 0v740h57v-309h3q17 40 53 66.5t98 26.5q82 0 127.5 -50.5t45.5 -144.5v-329h-57v319q0 78 -33.5 116t-97.5 38q-36 0 -68 -12.5t-51.5 -37.5t-19.5 -63v-360h-57zM87 914h70l118 -139l-32 -23l-121 121l-121 -121l-32 23z" />
    <glyph glyph-name="Hbar" unicode="&#x126;" horiz-adv-x="707" 
d="M545 0v327h-383v-327h-60v525h-75v47h75v126h60v-126h383v126h60v-126h75v-47h-75v-525h-60zM162 380h383v145h-383v-145z" />
    <glyph glyph-name="hbar" unicode="&#x127;" horiz-adv-x="564" 
d="M151 0h-57v616h-65v45h65v79h57v-79h155v-45h-155v-185h4q17 40 52.5 66.5t97.5 26.5q82 0 128 -50.5t46 -144.5v-329h-57v319q0 78 -34 116t-98 38q-36 0 -68 -12.5t-51.5 -37.5t-19.5 -63v-360z" />
    <glyph glyph-name="Itilde" unicode="&#x128;" horiz-adv-x="389" 
d="M326 0h-263v50h102v598h-102v50h263v-50h-102v-598h102v-50zM266 792q-22 0 -40.5 8.5t-38.5 19.5q-23 13 -39 18.5t-29 5.5q-17 0 -31 -7t-30 -22l-25 29q16 20 38 34t51 14q22 0 40.5 -8t38.5 -20q23 -13 39 -19t29 -6q17 0 31 8t30 22l25 -29q-15 -20 -37 -34t-52 -14
z" />
    <glyph glyph-name="itilde" unicode="&#x129;" horiz-adv-x="243" 
d="M150 0h-57v512h57v-512zM187 621q-21 0 -37.5 7t-35.5 18q-20 11 -33 16.5t-27 5.5q-17 0 -31 -7.5t-29 -21.5l-25 29q16 20 37 33.5t49 13.5q21 0 38 -7t35 -18q20 -11 33.5 -16.5t26.5 -5.5q17 0 31 7.5t29 21.5l25 -29q-15 -20 -36.5 -33.5t-49.5 -13.5z" />
    <glyph glyph-name="Imacron" unicode="&#x12a;" horiz-adv-x="389" 
d="M326 0h-263v50h102v598h-102v50h263v-50h-102v-598h102v-50zM58 819v49h272v-49h-272z" />
    <glyph glyph-name="imacron" unicode="&#x12b;" horiz-adv-x="243" 
d="M150 0h-57v512h57v-512zM-15 645v49h272v-49h-272z" />
    <glyph glyph-name="Ibreve" unicode="&#x12c;" horiz-adv-x="389" 
d="M326 0h-263v50h102v598h-102v50h263v-50h-102v-598h102v-50zM194 774q-34 0 -57.5 10t-39.5 27.5t-26.5 39t-20.5 45.5l33 16l19 -31q19 -32 37.5 -46.5t54.5 -14.5t55 14.5t37 46.5l19 31l33 -16q-12 -31 -28 -59t-43 -45.5t-73 -17.5z" />
    <glyph glyph-name="ibreve" unicode="&#x12d;" horiz-adv-x="243" 
d="M150 0h-57v512h57v-512zM121 600q-34 0 -57.5 10t-39.5 27.5t-26.5 39t-20.5 45.5l33 16l19 -31q19 -31 37.5 -46t54.5 -15t55 15t37 46l19 31l33 -16q-10 -24 -20.5 -45.5t-26.5 -39t-39 -27.5t-58 -10z" />
    <glyph glyph-name="Iogonek" unicode="&#x12e;" horiz-adv-x="389" 
d="M63 0v50h102v598h-102v50h263v-50h-102v-598h102v-50q-41 -34 -64 -56t-32.5 -38t-9.5 -33q0 -20 12 -29t30 -9t31 7t21 17l30 -28q-9 -15 -30 -25.5t-53 -10.5q-24 0 -44 8t-32 24t-12 40q0 35 25.5 65t79.5 64l-1 4h-214z" />
    <glyph glyph-name="iogonek" unicode="&#x12f;" horiz-adv-x="243" 
d="M93 512h57v-512q-38 -34 -58 -56.5t-28.5 -38t-8.5 -31.5q0 -20 12 -29.5t30 -9.5t31.5 7t21.5 17l30 -28q-10 -15 -30.5 -25.5t-52.5 -10.5q-25 0 -45 8t-32 24.5t-12 40.5q0 25 13 46.5t35 42.5t52 43v0h-15v512zM121 651q-20 0 -29 10t-9 26v10q0 16 9 26t29 10
q21 0 30 -10t9 -26v-10q0 -16 -9 -26t-30 -10z" />
    <glyph glyph-name="Idotaccent" unicode="&#x130;" horiz-adv-x="389" 
d="M326 0h-263v50h102v598h-102v50h263v-50h-102v-598h102v-50zM194 796q-22 0 -32.5 11.5t-10.5 29.5v11q0 18 10.5 29.5t32.5 11.5q23 0 33 -11.5t10 -29.5v-11q0 -18 -10 -29.5t-33 -11.5z" />
    <glyph glyph-name="dotlessi" unicode="&#x131;" horiz-adv-x="243" 
d="M150 0h-57v512h57v-512z" />
    <glyph glyph-name="IJ" unicode="&#x132;" horiz-adv-x="640" 
d="M316 -12q-96 0 -150 42.5t-70 115.5l54 13q14 -54 53.5 -85.5t114.5 -31.5q80 0 124.5 41t44.5 123v438h-169v54h229v-482q0 -71 -27.5 -122.5t-79 -78.5t-124.5 -27zM93 290v408h60v-408h-60z" />
    <glyph glyph-name="ij" unicode="&#x133;" horiz-adv-x="483" 
d="M121 651q-20 0 -29.5 10t-9.5 26v10q0 16 9.5 26t29.5 10q21 0 30 -10t9 -26v-10q0 -16 -9 -26t-30 -10zM93 0v512h57v-512h-57zM333 -150v662h57v-627q0 -39 -19.5 -62t-60.5 -23h-62v50h85zM361 651q-20 0 -29.5 10t-9.5 26v10q0 16 9.5 26t29.5 10q21 0 30 -10t9 -26
v-10q0 -16 -9 -26t-30 -10z" />
    <glyph glyph-name="Jcircumflex" unicode="&#x134;" horiz-adv-x="492" 
d="M97 698h302v-516q0 -61 -23.5 -104.5t-66 -66.5t-99.5 -23q-73 0 -121.5 40.5t-62.5 105.5l53 13q12 -46 45 -75.5t88 -29.5q62 0 95 37.5t33 111.5v454h-243v53zM216 930h70l118 -139l-32 -23l-121 121l-121 -121l-32 23z" />
    <glyph glyph-name="jcircumflex" unicode="&#x135;" horiz-adv-x="243" 
d="M8 -200v50h85v662h57v-627q0 -39 -19.5 -62t-60.5 -23h-62zM86 756h70l118 -139l-32 -23l-121 121l-121 -121l-32 23z" />
    <glyph glyph-name="Kcommaaccent" unicode="&#x136;" horiz-adv-x="610" 
d="M515 0l-243 360l-113 -125v-235h-60v698h60v-264v-129h2l112 129l230 264h73l-263 -297l276 -401h-74zM327 -66q20 0 30 -10t10 -27v-11q0 -31 -16 -63.5t-38 -54.5h-42q20 22 31.5 43.5t16.5 41.5q-16 2 -24 12t-8 23v9q0 17 10 27t30 10z" />
    <glyph glyph-name="kcommaaccent" unicode="&#x137;" horiz-adv-x="513" 
d="M93 0v740h57v-402v-87h3l80 85l170 176h70l-201 -208l223 -304h-70l-194 268l-81 -82v-186h-57zM283 -66q20 0 30 -10t10 -27v-11q0 -31 -16 -63.5t-38 -54.5h-42q20 22 31.5 43.5t16.5 41.5q-16 2 -24 12t-8 23v9q0 17 10 27t30 10z" />
    <glyph glyph-name="kgreenlandic" unicode="&#x138;" horiz-adv-x="513" 
d="M425 0l-194 265l-81 -83v-182h-57v512h57v-178v-86h3l81 85l174 179h70l-205 -210l222 -302h-70z" />
    <glyph glyph-name="Lacute" unicode="&#x139;" horiz-adv-x="491" 
d="M467 0h-368v698h60v-645h308v-53zM236 916l-110 -156l-37 18l95 164z" />
    <glyph glyph-name="lacute" unicode="&#x13a;" horiz-adv-x="264" 
d="M229 0h-73q-31 0 -47 17t-16 45v678h57v-690h79v-50zM228 942l-110 -156l-37 18l95 164z" />
    <glyph glyph-name="Lcommaaccent" unicode="&#x13b;" horiz-adv-x="491" 
d="M467 0h-368v698h60v-645h308v-53zM296 -66q20 0 30 -10t10 -27v-11q0 -31 -16 -63.5t-38 -54.5h-42q20 22 31.5 43.5t16.5 41.5q-16 2 -24 12t-8 23v9q0 17 10 27t30 10z" />
    <glyph glyph-name="lcommaaccent" unicode="&#x13c;" horiz-adv-x="264" 
d="M229 0h-73q-31 0 -47 17t-16 45v678h57v-690h79v-50zM163 -66q20 0 30 -10t10 -27v-11q0 -31 -16 -63.5t-38 -54.5h-42q20 22 31.5 43.5t16.5 41.5q-16 2 -24 12t-8 23v9q0 17 10 27t30 10z" />
    <glyph glyph-name="Lcaron" unicode="&#x13d;" horiz-adv-x="491" 
d="M467 0h-368v698h60v-645h308v-53zM326 740l-42 -181h-39l14 181h67z" />
    <glyph glyph-name="lcaron" unicode="&#x13e;" horiz-adv-x="265" 
d="M229 0h-73q-31 0 -47 17t-16 45v678h57v-690h79v-50zM301 740l-42 -181h-39l14 181h67z" />
    <glyph glyph-name="Ldot" unicode="&#x13f;" horiz-adv-x="491" 
d="M467 0h-368v698h60v-645h308v-53zM375 283q-20 0 -30 10t-10 26v10q0 16 10 26t30 10q21 0 30.5 -10t9.5 -26v-10q0 -16 -9.5 -26t-30.5 -10z" />
    <glyph glyph-name="ldot" unicode="&#x140;" horiz-adv-x="326" 
d="M229 0h-73q-31 0 -47 17t-16 45v678h57v-690h79v-50zM283 247q-20 0 -30 10t-10 26v10q0 16 10 26t30 10q21 0 30.5 -10t9.5 -26v-10q0 -16 -9.5 -26t-30.5 -10z" />
    <glyph glyph-name="Lslash" unicode="&#x141;" horiz-adv-x="496" 
d="M470 54v-54h-368v283l-101 -32v48l101 34v365h60v-345l190 62v-51l-190 -61v-249h308z" />
    <glyph glyph-name="lslash" unicode="&#x142;" horiz-adv-x="270" 
d="M232 50v-50h-73q-31 0 -47 17t-16 45v273l-72 -23v49l72 23v356h57v-336l99 32v-49l-99 -33v-304h79z" />
    <glyph glyph-name="Nacute" unicode="&#x143;" horiz-adv-x="701" 
d="M531 0l-278 455l-93 161h-3v-161v-455h-58v698h72l278 -455l92 -161h3v161v455h58v-698h-71zM457 916l-110 -156l-37 18l95 164z" />
    <glyph glyph-name="nacute" unicode="&#x144;" horiz-adv-x="563" 
d="M150 0h-57v512h57v-81h3q17 40 53 66.5t98 26.5q82 0 127.5 -50.5t45.5 -144.5v-329h-57v319q0 78 -33.5 116t-97.5 38q-36 0 -68 -12.5t-51.5 -37.5t-19.5 -63v-360zM393 742l-110 -156l-37 18l95 164z" />
    <glyph glyph-name="Ncommaaccent" unicode="&#x145;" horiz-adv-x="701" 
d="M531 0l-278 455l-93 161h-3v-161v-455h-58v698h72l278 -455l92 -161h3v161v455h58v-698h-71zM350 -66q20 0 30 -10t10 -27v-11q0 -31 -16 -63.5t-38 -54.5h-42q20 22 31.5 43.5t16.5 41.5q-16 2 -24 12t-8 23v9q0 17 10 27t30 10z" />
    <glyph glyph-name="ncommaaccent" unicode="&#x146;" horiz-adv-x="563" 
d="M150 0h-57v512h57v-81h3q17 40 53 66.5t98 26.5q82 0 127.5 -50.5t45.5 -144.5v-329h-57v319q0 78 -33.5 116t-97.5 38q-36 0 -68 -12.5t-51.5 -37.5t-19.5 -63v-360zM285 -66q20 0 30 -10t10 -27v-11q0 -31 -16 -63.5t-38 -54.5h-42q20 22 31.5 43.5t16.5 41.5
q-16 2 -24 12t-8 23v9q0 17 10 27t30 10z" />
    <glyph glyph-name="Ncaron" unicode="&#x147;" horiz-adv-x="701" 
d="M531 0l-278 455l-93 161h-3v-161v-455h-58v698h72l278 -455l92 -161h3v161v455h58v-698h-71zM385 774h-70l-118 140l32 23l121 -121l121 121l32 -23z" />
    <glyph glyph-name="ncaron" unicode="&#x148;" horiz-adv-x="563" 
d="M150 0h-57v512h57v-81h3q17 40 53 66.5t98 26.5q82 0 127.5 -50.5t45.5 -144.5v-329h-57v319q0 78 -33.5 116t-97.5 38q-36 0 -68 -12.5t-51.5 -37.5t-19.5 -63v-360zM321 601h-70l-118 139l32 23l121 -121l121 121l32 -23z" />
    <glyph glyph-name="napostrophe" unicode="&#x149;" horiz-adv-x="792" 
d="M136 750q25 0 36.5 -13t11.5 -33v-13q0 -41 -23.5 -89t-62.5 -83h-48q33 35 50.5 67t23.5 64q-19 4 -27.5 15t-8.5 27v12q0 20 12 33t36 13zM378 0h-57v512h57v-81h3q17 40 53 66.5t98 26.5q82 0 127.5 -50.5t45.5 -144.5v-329h-57v319q0 78 -33.5 116t-97.5 38
q-36 0 -68 -12.5t-51.5 -37.5t-19.5 -63v-360z" />
    <glyph glyph-name="Eng" unicode="&#x14a;" horiz-adv-x="701" 
d="M157 0h-58v698h72l279 -458l91 -158h3v158v458h58v-810q0 -40 -19.5 -64t-61.5 -24h-63v53h86v147h-13l-280 458l-91 158h-3v-158v-458z" />
    <glyph glyph-name="eng" unicode="&#x14b;" horiz-adv-x="563" 
d="M336 -200v50h84v469q0 78 -33.5 116t-97.5 38q-36 0 -68 -12.5t-51.5 -37.5t-19.5 -63v-360h-57v512h57v-81h3q17 40 53 66.5t98 26.5q82 0 127.5 -50.5t45.5 -144.5v-446q0 -38 -19 -60.5t-60 -22.5h-62z" />
    <glyph glyph-name="Omacron" unicode="&#x14c;" horiz-adv-x="697" 
d="M349 -12q-89 0 -153 41t-98.5 121.5t-34.5 198.5t34.5 198.5t98.5 121.5t153 41q88 0 152 -41t98.5 -121.5t34.5 -198.5t-34.5 -198.5t-98.5 -121.5t-152 -41zM349 42q67 0 116.5 31t77 90t27.5 142v88q0 83 -27.5 142t-77 90t-116.5 31t-117 -31t-77.5 -90t-27.5 -142
v-88q0 -83 27.5 -142t77.5 -90t117 -31zM213 819v49h272v-49h-272z" />
    <glyph glyph-name="omacron" unicode="&#x14d;" horiz-adv-x="552" 
d="M276 -12q-68 0 -118 32t-78 92t-28 144t28 144t78 92t118 32t118.5 -32t78 -92t27.5 -144t-27.5 -144t-78 -92t-118.5 -32zM276 39q75 0 119 47.5t44 137.5v64q0 90 -44 137.5t-119 47.5q-74 0 -118 -47.5t-44 -137.5v-64q0 -90 44 -137.5t118 -47.5zM140 645v49h272v-49
h-272z" />
    <glyph glyph-name="Obreve" unicode="&#x14e;" horiz-adv-x="697" 
d="M349 -12q-89 0 -153 41t-98.5 121.5t-34.5 198.5t34.5 198.5t98.5 121.5t153 41q88 0 152 -41t98.5 -121.5t34.5 -198.5t-34.5 -198.5t-98.5 -121.5t-152 -41zM349 42q67 0 116.5 31t77 90t27.5 142v88q0 83 -27.5 142t-77 90t-116.5 31t-117 -31t-77.5 -90t-27.5 -142
v-88q0 -83 27.5 -142t77.5 -90t117 -31zM349 774q-34 0 -57.5 10t-39.5 27.5t-26.5 39t-20.5 45.5l33 16l19 -31q19 -32 37.5 -46.5t54.5 -14.5t55 14.5t37 46.5l19 31l33 -16q-12 -31 -28 -59t-43 -45.5t-73 -17.5z" />
    <glyph glyph-name="obreve" unicode="&#x14f;" horiz-adv-x="552" 
d="M276 -12q-68 0 -118 32t-78 92t-28 144t28 144t78 92t118 32t118.5 -32t78 -92t27.5 -144t-27.5 -144t-78 -92t-118.5 -32zM276 39q75 0 119 47.5t44 137.5v64q0 90 -44 137.5t-119 47.5q-74 0 -118 -47.5t-44 -137.5v-64q0 -90 44 -137.5t118 -47.5zM276 600
q-34 0 -57.5 10t-39.5 27.5t-26.5 39t-20.5 45.5l33 16l19 -31q19 -31 37.5 -46t54.5 -15t55 15t37 46l19 31l33 -16q-10 -24 -20.5 -45.5t-26.5 -39t-39 -27.5t-58 -10z" />
    <glyph glyph-name="Ohungarumlaut" unicode="&#x150;" horiz-adv-x="697" 
d="M349 -12q-89 0 -153 41t-98.5 121.5t-34.5 198.5t34.5 198.5t98.5 121.5t153 41q88 0 152 -41t98.5 -121.5t34.5 -198.5t-34.5 -198.5t-98.5 -121.5t-152 -41zM349 42q67 0 116.5 31t77 90t27.5 142v88q0 83 -27.5 142t-77 90t-116.5 31t-117 -31t-77.5 -90t-27.5 -142
v-88q0 -83 27.5 -142t77.5 -90t117 -31zM383 917l-110 -157l-35 18l95 163zM543 917l-110 -157l-35 18l95 163z" />
    <glyph glyph-name="ohungarumlaut" unicode="&#x151;" horiz-adv-x="552" 
d="M276 -12q-68 0 -118 32t-78 92t-28 144t28 144t78 92t118 32t118.5 -32t78 -92t27.5 -144t-27.5 -144t-78 -92t-118.5 -32zM276 39q75 0 119 47.5t44 137.5v64q0 90 -44 137.5t-119 47.5q-74 0 -118 -47.5t-44 -137.5v-64q0 -90 44 -137.5t118 -47.5zM310 743l-110 -157
l-35 18l95 163zM470 743l-110 -157l-35 18l95 163z" />
    <glyph glyph-name="OE" unicode="&#x152;" horiz-adv-x="978" 
d="M911 0h-409q-26 -5 -62.5 -8.5t-71.5 -3.5q-96 0 -164.5 41t-104.5 121.5t-36 198.5q0 119 36 199t104.5 121t164.5 41q35 0 71.5 -3.5t62.5 -8.5h409v-53h-349v-265h332v-53h-332v-274h349v-53zM374 42q35 0 68.5 4.5t59.5 11.5v582q-26 7 -59.5 11.5t-68.5 4.5
q-121 0 -184 -69t-63 -194v-88q0 -124 63 -193.5t184 -69.5z" />
    <glyph glyph-name="oe" unicode="&#x153;" horiz-adv-x="930" 
d="M276 39q75 0 119 47.5t44 137.5v64q0 90 -44 137.5t-119 47.5q-74 0 -118 -47.5t-44 -137.5v-64q0 -90 44 -137.5t118 -47.5zM500 289h317v8q0 54 -19.5 94t-54 62.5t-81.5 22.5q-49 0 -85.5 -23t-56.5 -64t-20 -95v-5zM667 -12q-50 0 -89 17t-65.5 46.5t-41.5 68.5h-4
q-21 -61 -71 -96.5t-120 -35.5q-68 0 -118 32t-78 92t-28 144t28 144t78 92t118 32q70 0 120 -33.5t72 -97.5h4q22 62 71 96.5t119 34.5q65 0 113.5 -31.5t75.5 -88t27 -132.5v-27h-378v-25q0 -81 44 -131.5t123 -50.5q55 0 94 26.5t61 76.5l41 -28q-23 -56 -73.5 -90.5
t-122.5 -34.5z" />
    <glyph glyph-name="Racute" unicode="&#x154;" horiz-adv-x="636" 
d="M159 309v-309h-60v698h274q59 0 101 -23t64 -66.5t22 -104.5q0 -80 -39.5 -130.5t-114.5 -60.5l172 -313h-68l-166 309h-185zM159 360h214q40 0 67.5 15.5t41 42t13.5 61.5v48q0 34 -13.5 61t-41 42t-67.5 15h-214v-285zM413 916l-110 -156l-37 18l95 164z" />
    <glyph glyph-name="racute" unicode="&#x155;" horiz-adv-x="357" 
d="M150 0h-57v512h57v-92h4q10 25 29 45.5t49.5 33.5t74.5 13h34v-56h-45q-43 0 -76 -13t-51.5 -36.5t-18.5 -56.5v-350zM327 742l-110 -156l-37 18l95 164z" />
    <glyph glyph-name="Rcommaaccent" unicode="&#x156;" horiz-adv-x="636" 
d="M159 309v-309h-60v698h274q59 0 101 -23t64 -66.5t22 -104.5q0 -80 -39.5 -130.5t-114.5 -60.5l172 -313h-68l-166 309h-185zM159 360h214q40 0 67.5 15.5t41 42t13.5 61.5v48q0 34 -13.5 61t-41 42t-67.5 15h-214v-285zM317 -66q20 0 30 -10t10 -27v-11q0 -31 -16 -63.5
t-38 -54.5h-42q20 22 31.5 43.5t16.5 41.5q-16 2 -24 12t-8 23v9q0 17 10 27t30 10z" />
    <glyph glyph-name="rcommaaccent" unicode="&#x157;" horiz-adv-x="357" 
d="M150 0h-57v512h57v-92h4q10 25 29 45.5t49.5 33.5t74.5 13h34v-56h-45q-43 0 -76 -13t-51.5 -36.5t-18.5 -56.5v-350zM123 -66q20 0 30 -10t10 -27v-11q0 -31 -16 -63.5t-38 -54.5h-42q20 22 31.5 43.5t16.5 41.5q-16 2 -24 12t-8 23v9q0 17 10 27t30 10z" />
    <glyph glyph-name="Rcaron" unicode="&#x158;" horiz-adv-x="636" 
d="M159 309v-309h-60v698h274q59 0 101 -23t64 -66.5t22 -104.5q0 -80 -39.5 -130.5t-114.5 -60.5l172 -313h-68l-166 309h-185zM159 360h214q40 0 67.5 15.5t41 42t13.5 61.5v48q0 34 -13.5 61t-41 42t-67.5 15h-214v-285zM341 774h-70l-118 140l32 23l121 -121l121 121
l32 -23z" />
    <glyph glyph-name="rcaron" unicode="&#x159;" horiz-adv-x="357" 
d="M150 0h-57v512h57v-92h4q10 25 29 45.5t49.5 33.5t74.5 13h34v-56h-45q-43 0 -76 -13t-51.5 -36.5t-18.5 -56.5v-350zM255 601h-70l-118 139l32 23l121 -121l121 121l32 -23z" />
    <glyph glyph-name="Sacute" unicode="&#x15a;" horiz-adv-x="568" 
d="M284 -12q-85 0 -143.5 32.5t-98.5 86.5l45 37q37 -49 83.5 -76t115.5 -27q81 0 124.5 38.5t43.5 107.5q0 43 -16.5 70t-48.5 42.5t-76 25.5l-62 13q-66 14 -108 39t-62 62.5t-20 85.5q0 61 28 102t79 62t117 21q78 0 132.5 -28t88.5 -79l-45 -33q-29 42 -72 64.5
t-107 22.5q-75 0 -118.5 -32.5t-43.5 -97.5q0 -42 18 -67.5t50 -41t75 -24.5l62 -13q70 -14 111 -41t59 -64.5t18 -85.5q0 -63 -27.5 -108.5t-79 -69.5t-122.5 -24zM387 916l-110 -156l-37 18l95 164z" />
    <glyph glyph-name="sacute" unicode="&#x15b;" horiz-adv-x="477" 
d="M238 -12q-67 0 -114.5 25.5t-82.5 72.5l42 33q32 -41 70 -61.5t89 -20.5q59 0 91 25.5t32 71.5q0 40 -24.5 64t-80.5 32l-42 7q-46 7 -82 23t-55.5 45.5t-19.5 75.5q0 72 50 107.5t124 35.5q43 0 75 -10t56.5 -28t43.5 -41l-38 -35q-20 25 -53 45t-87 20q-55 0 -85.5 -24
t-30.5 -67q0 -45 27.5 -65.5t82.5 -29.5l41 -6q78 -12 115.5 -46.5t37.5 -96.5q0 -48 -22 -82t-62.5 -52t-97.5 -18zM339 742l-110 -156l-37 18l95 164z" />
    <glyph glyph-name="Scircumflex" unicode="&#x15c;" horiz-adv-x="568" 
d="M284 -12q-85 0 -143.5 32.5t-98.5 86.5l45 37q37 -49 83.5 -76t115.5 -27q81 0 124.5 38.5t43.5 107.5q0 43 -16.5 70t-48.5 42.5t-76 25.5l-62 13q-66 14 -108 39t-62 62.5t-20 85.5q0 61 28 102t79 62t117 21q78 0 132.5 -28t88.5 -79l-45 -33q-29 42 -72 64.5
t-107 22.5q-75 0 -118.5 -32.5t-43.5 -97.5q0 -42 18 -67.5t50 -41t75 -24.5l62 -13q70 -14 111 -41t59 -64.5t18 -85.5q0 -63 -27.5 -108.5t-79 -69.5t-122.5 -24zM245 930h70l118 -139l-32 -23l-121 121l-121 -121l-32 23z" />
    <glyph glyph-name="scircumflex" unicode="&#x15d;" horiz-adv-x="477" 
d="M238 -12q-67 0 -114.5 25.5t-82.5 72.5l42 33q32 -41 70 -61.5t89 -20.5q59 0 91 25.5t32 71.5q0 40 -24.5 64t-80.5 32l-42 7q-46 7 -82 23t-55.5 45.5t-19.5 75.5q0 72 50 107.5t124 35.5q43 0 75 -10t56.5 -28t43.5 -41l-38 -35q-20 25 -53 45t-87 20q-55 0 -85.5 -24
t-30.5 -67q0 -45 27.5 -65.5t82.5 -29.5l41 -6q78 -12 115.5 -46.5t37.5 -96.5q0 -48 -22 -82t-62.5 -52t-97.5 -18zM197 756h70l118 -139l-32 -23l-121 121l-121 -121l-32 23z" />
    <glyph glyph-name="Scedilla" unicode="&#x15e;" horiz-adv-x="568" 
d="M282 657q-75 0 -118.5 -32.5t-43.5 -97.5q0 -42 18 -67.5t50 -41t75 -24.5l62 -13q70 -14 111 -41t59 -64.5t18 -85.5q0 -92 -57.5 -145t-156.5 -56l-12 -55l2 -2q9 2 18.5 3.5t17.5 1.5q29 0 48 -17t19 -47q0 -24 -13 -41.5t-35.5 -27t-50.5 -9.5q-36 0 -59 12t-33 25
l28 31q10 -12 26 -20t38 -8t36 10t14 29q0 16 -13 27.5t-52 15.5l-31 3l14 69q-76 4 -129 35.5t-90 82.5l45 37q37 -49 83.5 -76t115.5 -27q81 0 124.5 38.5t43.5 107.5q0 43 -16.5 70t-48.5 42.5t-76 25.5l-62 13q-66 14 -108 39t-62 62.5t-20 85.5q0 61 28 102t79 62
t117 21q78 0 132.5 -28t88.5 -79l-45 -33q-29 42 -72 64.5t-107 22.5z" />
    <glyph glyph-name="scedilla" unicode="&#x15f;" horiz-adv-x="477" 
d="M250 -205q-36 0 -59 12t-33 25l28 31q10 -12 26 -20t38 -8t36 10t14 29q0 16 -13 27.5t-52 15.5l-31 3l14 69q-59 3 -102 28.5t-75 68.5l42 33q32 -41 70 -61.5t89 -20.5q59 0 91 25.5t32 71.5q0 40 -24.5 64t-80.5 32l-42 7q-46 7 -82 23t-55.5 45.5t-19.5 75.5
q0 72 50 107.5t124 35.5q43 0 75 -10t56.5 -28t43.5 -41l-38 -35q-20 25 -53 45t-87 20q-55 0 -85.5 -24t-30.5 -67q0 -45 27.5 -65.5t82.5 -29.5l41 -6q78 -12 115.5 -46.5t37.5 -96.5q0 -68 -44 -108t-120 -43l-12 -55l2 -2q9 2 18.5 3.5t17.5 1.5q29 0 48 -17t19 -47
q0 -24 -13 -41.5t-35.5 -27t-50.5 -9.5z" />
    <glyph glyph-name="Scaron" unicode="&#x160;" horiz-adv-x="568" 
d="M284 -12q-85 0 -143.5 32.5t-98.5 86.5l45 37q37 -49 83.5 -76t115.5 -27q81 0 124.5 38.5t43.5 107.5q0 43 -16.5 70t-48.5 42.5t-76 25.5l-62 13q-66 14 -108 39t-62 62.5t-20 85.5q0 61 28 102t79 62t117 21q78 0 132.5 -28t88.5 -79l-45 -33q-29 42 -72 64.5
t-107 22.5q-75 0 -118.5 -32.5t-43.5 -97.5q0 -42 18 -67.5t50 -41t75 -24.5l62 -13q70 -14 111 -41t59 -64.5t18 -85.5q0 -63 -27.5 -108.5t-79 -69.5t-122.5 -24zM315 774h-70l-118 140l32 23l121 -121l121 121l32 -23z" />
    <glyph glyph-name="scaron" unicode="&#x161;" horiz-adv-x="477" 
d="M238 -12q-67 0 -114.5 25.5t-82.5 72.5l42 33q32 -41 70 -61.5t89 -20.5q59 0 91 25.5t32 71.5q0 40 -24.5 64t-80.5 32l-42 7q-46 7 -82 23t-55.5 45.5t-19.5 75.5q0 72 50 107.5t124 35.5q43 0 75 -10t56.5 -28t43.5 -41l-38 -35q-20 25 -53 45t-87 20q-55 0 -85.5 -24
t-30.5 -67q0 -45 27.5 -65.5t82.5 -29.5l41 -6q78 -12 115.5 -46.5t37.5 -96.5q0 -48 -22 -82t-62.5 -52t-97.5 -18zM267 601h-70l-118 139l32 23l121 -121l121 121l32 -23z" />
    <glyph glyph-name="uni0162" unicode="&#x162;" horiz-adv-x="567" 
d="M294 -205q-35 0 -58.5 12t-33.5 25l28 31q10 -12 26 -20t38 -8t36.5 10t14.5 29q0 16 -13.5 27.5t-52.5 15.5l-31 3l17 80h-11v645h-234v53h527v-53h-233v-645h-12l-14 -66l3 -2q9 2 18 3.5t17 1.5q29 0 48.5 -17t19.5 -47q0 -24 -13.5 -41.5t-35.5 -27t-51 -9.5z" />
    <glyph glyph-name="uni0163" unicode="&#x163;" horiz-adv-x="335" 
d="M215 -205q-35 0 -58.5 12t-33.5 25l28 31q10 -12 26 -20t38 -8t36 10t14 29q0 16 -13 27.5t-52 15.5l-31 3l21 103l16 -23h-25q-30 0 -46.5 17.5t-16.5 45.5v399h-89v50h58q21 0 28.5 9t7.5 30v104h52v-143h116v-50h-116v-412h108v-50h-60l-14 -66l2 -2q9 2 18.5 3.5
t17.5 1.5q29 0 48.5 -17t19.5 -47q0 -24 -13.5 -41.5t-36 -27t-50.5 -9.5z" />
    <glyph glyph-name="Tcaron" unicode="&#x164;" horiz-adv-x="567" 
d="M547 645h-233v-645h-60v645h-234v53h527v-53zM319 774h-70l-118 140l32 23l121 -121l121 121l32 -23z" />
    <glyph glyph-name="tcaron" unicode="&#x165;" horiz-adv-x="335" 
d="M283 0h-102q-30 0 -46.5 17.5t-16.5 45.5v399h-89v50h58q21 0 28.5 9t7.5 30v104h52v-143h116v-50h-116v-412h108v-50zM337 747l-42 -181h-39l14 181h67z" />
    <glyph glyph-name="Tbar" unicode="&#x166;" horiz-adv-x="573" 
d="M490 349h-173v-349h-60v349h-174v46h174v250h-234v53h527v-53h-233v-250h173v-46z" />
    <glyph glyph-name="tbar" unicode="&#x167;" horiz-adv-x="341" 
d="M286 50v-50h-102q-30 0 -46.5 17t-16.5 46v197h-66v45h66v157h-89v50h58q21 0 28.5 9t7.5 30v104h52v-143h116v-50h-116v-157h95v-45h-95v-210h108z" />
    <glyph glyph-name="Utilde" unicode="&#x168;" horiz-adv-x="668" 
d="M93 698h60v-431q0 -78 16.5 -127.5t56.5 -73.5t108 -24t107.5 24t56.5 73.5t17 127.5v431h60v-418q0 -102 -23 -167t-76.5 -95t-143.5 -30q-89 0 -141.5 30t-75 95t-22.5 167v418zM404 792q-22 0 -40.5 8.5t-38.5 19.5q-23 13 -39 18.5t-29 5.5q-17 0 -31 -7t-30 -22
l-25 29q16 20 38 34t51 14q22 0 40.5 -8t38.5 -20q23 -13 39 -19t29 -6q17 0 31 8t30 22l25 -29q-15 -20 -37 -34t-52 -14z" />
    <glyph glyph-name="utilde" unicode="&#x169;" horiz-adv-x="563" 
d="M414 0v81h-4q-14 -36 -49 -64.5t-101 -28.5q-81 0 -127.5 50.5t-46.5 144.5v329h57v-318q0 -78 34 -116.5t98 -38.5q36 0 67.5 12.5t51.5 37.5t20 64v359h57v-512h-57zM350 618q-22 0 -40.5 8.5t-38.5 19.5q-23 13 -39 19t-29 6q-17 0 -31 -7.5t-30 -22.5l-25 29
q16 20 38 34t51 14q22 0 40.5 -8t38.5 -20q23 -13 39 -18.5t29 -5.5q17 0 31 7.5t30 21.5l25 -29q-15 -20 -37 -34t-52 -14z" />
    <glyph glyph-name="Umacron" unicode="&#x16a;" horiz-adv-x="668" 
d="M93 698h60v-431q0 -78 16.5 -127.5t56.5 -73.5t108 -24t107.5 24t56.5 73.5t17 127.5v431h60v-418q0 -102 -23 -167t-76.5 -95t-143.5 -30q-89 0 -141.5 30t-75 95t-22.5 167v418zM196 819v49h272v-49h-272z" />
    <glyph glyph-name="umacron" unicode="&#x16b;" horiz-adv-x="563" 
d="M414 0v81h-4q-14 -36 -49 -64.5t-101 -28.5q-81 0 -127.5 50.5t-46.5 144.5v329h57v-318q0 -78 34 -116.5t98 -38.5q36 0 67.5 12.5t51.5 37.5t20 64v359h57v-512h-57zM142 645v49h272v-49h-272z" />
    <glyph glyph-name="Ubreve" unicode="&#x16c;" horiz-adv-x="668" 
d="M93 698h60v-431q0 -78 16.5 -127.5t56.5 -73.5t108 -24t107.5 24t56.5 73.5t17 127.5v431h60v-418q0 -102 -23 -167t-76.5 -95t-143.5 -30q-89 0 -141.5 30t-75 95t-22.5 167v418zM332 774q-34 0 -57.5 10t-39.5 27.5t-26.5 39t-20.5 45.5l33 16l19 -31
q19 -32 37.5 -46.5t54.5 -14.5t55 14.5t37 46.5l19 31l33 -16q-12 -31 -28 -59t-43 -45.5t-73 -17.5z" />
    <glyph glyph-name="ubreve" unicode="&#x16d;" horiz-adv-x="563" 
d="M414 0v81h-4q-14 -36 -49 -64.5t-101 -28.5q-81 0 -127.5 50.5t-46.5 144.5v329h57v-318q0 -78 34 -116.5t98 -38.5q36 0 67.5 12.5t51.5 37.5t20 64v359h57v-512h-57zM278 600q-34 0 -57.5 10t-39.5 27.5t-26.5 39t-20.5 45.5l33 16l19 -31q19 -31 37.5 -46t54.5 -15
t55 15t37 46l19 31l33 -16q-10 -24 -20.5 -45.5t-26.5 -39t-39 -27.5t-58 -10z" />
    <glyph glyph-name="Uring" unicode="&#x16e;" horiz-adv-x="668" 
d="M93 698h60v-431q0 -78 16.5 -127.5t56.5 -73.5t108 -24t107.5 24t56.5 73.5t17 127.5v431h60v-418q0 -102 -23 -167t-76.5 -95t-143.5 -30q-89 0 -141.5 30t-75 95t-22.5 167v418zM332 755q-30 0 -54 13.5t-38 37.5t-14 55q0 30 14 54t38 37.5t54 13.5q31 0 54.5 -13.5
t37.5 -37.5t14 -54q0 -31 -14 -55t-37.5 -37.5t-54.5 -13.5zM332 792q29 0 46 16t17 44v17q0 28 -17 44t-46 16t-46 -16t-17 -44v-17q0 -28 17 -44t46 -16z" />
    <glyph glyph-name="uring" unicode="&#x16f;" horiz-adv-x="563" 
d="M414 0v81h-4q-14 -36 -49 -64.5t-101 -28.5q-81 0 -127.5 50.5t-46.5 144.5v329h57v-318q0 -78 34 -116.5t98 -38.5q36 0 67.5 12.5t51.5 37.5t20 64v359h57v-512h-57zM278 581q-30 0 -54 13.5t-38 37.5t-14 55q0 30 14 54t38 37.5t54 13.5q31 0 54.5 -13.5t37.5 -37.5
t14 -54q0 -31 -14 -55t-37.5 -37.5t-54.5 -13.5zM278 618q29 0 46 16t17 44v17q0 28 -17 44t-46 16t-46 -16t-17 -44v-17q0 -28 17 -44t46 -16z" />
    <glyph glyph-name="Uhungarumlaut" unicode="&#x170;" horiz-adv-x="668" 
d="M93 698h60v-431q0 -78 16.5 -127.5t56.5 -73.5t108 -24t107.5 24t56.5 73.5t17 127.5v431h60v-418q0 -102 -23 -167t-76.5 -95t-143.5 -30q-89 0 -141.5 30t-75 95t-22.5 167v418zM366 917l-110 -157l-35 18l95 163zM526 917l-110 -157l-35 18l95 163z" />
    <glyph glyph-name="uhungarumlaut" unicode="&#x171;" horiz-adv-x="563" 
d="M414 0v81h-4q-14 -36 -49 -64.5t-101 -28.5q-81 0 -127.5 50.5t-46.5 144.5v329h57v-318q0 -78 34 -116.5t98 -38.5q36 0 67.5 12.5t51.5 37.5t20 64v359h57v-512h-57zM312 743l-110 -157l-35 18l95 163zM472 743l-110 -157l-35 18l95 163z" />
    <glyph glyph-name="Uogonek" unicode="&#x172;" horiz-adv-x="668" 
d="M93 698h60v-431q0 -78 16.5 -127.5t56.5 -73.5t108 -24t107.5 24t56.5 73.5t17 127.5v431h60v-418q0 -68 -10 -118.5t-33.5 -90t-66.5 -74.5q-37 -29 -60 -49.5t-33.5 -38t-10.5 -35.5q0 -20 12 -29.5t30 -9.5t31 7t22 17l29 -28q-9 -15 -30 -25.5t-53 -10.5
q-36 0 -62 18t-26 54q0 24 13 45t37.5 42t60.5 44l-3 3q-20 -7 -42.5 -10t-47.5 -3q-89 0 -141.5 30t-75 95t-22.5 167v418z" />
    <glyph glyph-name="uogonek" unicode="&#x173;" horiz-adv-x="563" 
d="M471 512v-512q-39 -34 -60.5 -55.5t-30 -37t-8.5 -32.5q0 -21 12 -30.5t30 -9.5t31.5 7t21.5 17l30 -28q-10 -15 -30.5 -25.5t-52.5 -10.5q-25 0 -45 8t-32 25t-12 41q0 34 26 65t76 66v0h-13v81h-4q-14 -36 -49 -64.5t-101 -28.5q-81 0 -127.5 50.5t-46.5 144.5v329h57
v-318q0 -78 34 -116.5t98 -38.5q36 0 67.5 12.5t51.5 37.5t20 64v359h57z" />
    <glyph glyph-name="Wcircumflex" unicode="&#x174;" horiz-adv-x="884" 
d="M269 0h-69l-176 698h64l92 -380l57 -244h3l63 244l103 380h71l101 -380l63 -244h3l60 244l94 380h62l-182 -698h-68l-106 390l-63 241h-2l-64 -241zM406 930h70l118 -139l-32 -23l-121 121l-121 -121l-32 23z" />
    <glyph glyph-name="wcircumflex" unicode="&#x175;" horiz-adv-x="751" 
d="M177 0l-144 512h56l70 -259l53 -202h2l59 202l77 259h52l79 -259l59 -202h2l52 202l71 259h54l-144 -512h-70l-81 271l-48 160h-2l-47 -160l-81 -271h-69zM341 756h70l118 -139l-32 -23l-121 121l-121 -121l-32 23z" />
    <glyph glyph-name="Ycircumflex" unicode="&#x176;" horiz-adv-x="575" 
d="M316 0h-59v283l-241 415h68l202 -352h3l202 352h68l-243 -413v-285zM252 930h70l118 -139l-32 -23l-121 121l-121 -121l-32 23z" />
    <glyph glyph-name="ycircumflex" unicode="&#x177;" horiz-adv-x="481" 
d="M283 176l121 336h57l-241 -656q-7 -21 -17 -33.5t-26 -17.5t-42 -5h-58v50h86l49 135l-192 527h58l120 -336l39 -117h4zM206 756h70l118 -139l-32 -23l-121 121l-121 -121l-32 23z" />
    <glyph glyph-name="Ydieresis" unicode="&#x178;" horiz-adv-x="575" 
d="M316 0h-59v283l-241 415h68l202 -352h3l202 352h68l-243 -413v-285zM195 800q-21 0 -30.5 10.5t-9.5 26.5v10q0 16 9.5 26.5t30.5 10.5t30 -10.5t9 -26.5v-10q0 -16 -9 -26.5t-30 -10.5zM379 800q-20 0 -29.5 10.5t-9.5 26.5v10q0 16 9.5 26.5t29.5 10.5q21 0 30.5 -10.5
t9.5 -26.5v-10q0 -16 -9.5 -26.5t-30.5 -10.5z" />
    <glyph glyph-name="Zacute" unicode="&#x179;" horiz-adv-x="570" 
d="M537 53v-53h-500v55l419 590h-397v53h462v-55l-420 -590h436zM398 916l-110 -156l-37 18l95 164z" />
    <glyph glyph-name="zacute" unicode="&#x17a;" horiz-adv-x="446" 
d="M417 0h-386v49l310 413h-301v50h369v-45l-314 -417h322v-50zM330 742l-110 -156l-37 18l95 164z" />
    <glyph glyph-name="Zdotaccent" unicode="&#x17b;" horiz-adv-x="570" 
d="M537 53v-53h-500v55l419 590h-397v53h462v-55l-420 -590h436zM291 796q-22 0 -32.5 11.5t-10.5 29.5v11q0 18 10.5 29.5t32.5 11.5q23 0 33 -11.5t10 -29.5v-11q0 -18 -10 -29.5t-33 -11.5z" />
    <glyph glyph-name="zdotaccent" unicode="&#x17c;" horiz-adv-x="446" 
d="M417 0h-386v49l310 413h-301v50h369v-45l-314 -417h322v-50zM223 626q-20 0 -30 10t-10 26v10q0 16 10 26t30 10q21 0 30.5 -10t9.5 -26v-10q0 -16 -9.5 -26t-30.5 -10z" />
    <glyph glyph-name="Zcaron" unicode="&#x17d;" horiz-adv-x="570" 
d="M537 53v-53h-500v55l419 590h-397v53h462v-55l-420 -590h436zM326 774h-70l-118 140l32 23l121 -121l121 121l32 -23z" />
    <glyph glyph-name="zcaron" unicode="&#x17e;" horiz-adv-x="446" 
d="M417 0h-386v49l310 413h-301v50h369v-45l-314 -417h322v-50zM258 601h-70l-118 139l32 23l121 -121l121 121l32 -23z" />
    <glyph glyph-name="uni017F" unicode="&#x17f;" horiz-adv-x="267" 
d="M117 0v462h-88v50h88v143q0 39 20 62t60 23h90v-50h-113v-690h-57z" />
    <glyph glyph-name="uni018F" unicode="&#x18f;" horiz-adv-x="697" 
d="M63 363h508v26q0 129 -59 198t-160 69q-74 0 -129.5 -39.5t-81.5 -112.5l-50 25q19 55 56.5 95.5t89 63t115.5 22.5q90 0 153.5 -42t96 -122.5t32.5 -196.5t-34 -196.5t-98 -122.5t-154 -42t-153.5 40.5t-97.5 120.5t-34 200v14zM125 313v-4q0 -84 28.5 -144t79 -91.5
t115.5 -31.5t115.5 31.5t79 91.5t28.5 144v4h-446z" />
    <glyph glyph-name="florin" unicode="&#x192;" horiz-adv-x="486" 
d="M-3 -134l5 50h158l39 389h-155l6 52h154l26 258q4 38 26 60.5t64 22.5h142l-5 -50h-166l-29 -291h185l-6 -52h-185l-35 -356q-3 -37 -25.5 -60t-64.5 -23h-134z" />
    <glyph glyph-name="Ohorn" unicode="&#x1a0;" horiz-adv-x="697" 
d="M586 811h51v-101q0 -23 -10 -36.5t-39 -13.5h-75v-2q41 -28 68 -73t40 -104t13 -132q0 -118 -34.5 -198.5t-98.5 -121.5t-152 -41q-89 0 -153 41t-98.5 121.5t-34.5 198.5t34.5 198.5t98.5 121.5t153 41q24 0 45.5 -3t43.5 -9h148v113zM349 42q67 0 116.5 31t77 90
t27.5 142v88q0 83 -27.5 142t-77 90t-116.5 31t-117 -31t-77.5 -90t-27.5 -142v-88q0 -83 27.5 -142t77.5 -90t117 -31z" />
    <glyph glyph-name="ohorn" unicode="&#x1a1;" horiz-adv-x="552" 
d="M449 620h51v-95q0 -22 -10 -36t-39 -14h-36v-2q29 -22 48 -55t28 -74t9 -88q0 -84 -27.5 -144t-78 -92t-118.5 -32t-118 32t-78 92t-28 144t28 144t78 92t118 32q18 0 38.5 -3t38.5 -9h96v108zM276 39q75 0 119 47.5t44 137.5v64q0 90 -44 137.5t-119 47.5
q-74 0 -118 -47.5t-44 -137.5v-64q0 -90 44 -137.5t118 -47.5z" />
    <glyph glyph-name="Uhorn" unicode="&#x1af;" horiz-adv-x="668" 
d="M93 698h60v-431q0 -78 16.5 -127.5t56.5 -73.5t108 -24t107.5 24t56.5 73.5t17 127.5v431h87v112h51v-102q0 -14 -4.5 -25.5t-15 -17.5t-30.5 -6h-50l22 22v-401q0 -102 -23 -167t-76.5 -95t-143.5 -30q-89 0 -141.5 30t-75 95t-22.5 167v418z" />
    <glyph glyph-name="uhorn" unicode="&#x1b0;" horiz-adv-x="563" 
d="M471 0h-57v81h-4q-14 -36 -49 -64.5t-101 -28.5q-81 0 -127.5 50.5t-46.5 144.5v329h57v-318q0 -78 34 -116.5t98 -38.5q36 0 67.5 12.5t51.5 37.5t20 64v359h87v112h51v-102q0 -14 -4.5 -25.5t-15.5 -17.5t-30 -6h-54l23 22v-495z" />
    <glyph glyph-name="uni01CD" unicode="&#x1cd;" horiz-adv-x="625" 
d="M599 0h-63l-76 217h-297l-76 -217h-60l247 698h77zM444 269l-91 260l-40 112h-4l-39 -112l-92 -260h266zM348 774h-70l-118 140l32 23l121 -121l121 121l32 -23z" />
    <glyph glyph-name="uni01CE" unicode="&#x1ce;" horiz-adv-x="528" 
d="M503 0h-58q-23 0 -38 9.5t-21.5 26.5t-6.5 40v27l23 -22h-27q-17 -42 -56 -67.5t-99 -25.5q-81 0 -125 40t-44 111q0 46 21.5 79t67 51t119.5 18h118v60q0 64 -33 96t-98 32q-50 0 -84.5 -22t-55.5 -62l-36 30q21 44 64.5 73.5t113.5 29.5q89 0 137.5 -45t48.5 -126v-303
h69v-50zM377 244h-120q-76 0 -111 -24.5t-35 -67.5v-24q0 -44 32.5 -67.5t84.5 -23.5q42 0 75.5 13.5t53.5 39t20 59.5v95zM286 601h-70l-118 139l32 23l121 -121l121 121l32 -23z" />
    <glyph glyph-name="uni01CF" unicode="&#x1cf;" horiz-adv-x="389" 
d="M326 0h-263v50h102v598h-102v50h263v-50h-102v-598h102v-50zM229 774h-70l-118 140l32 23l121 -121l121 121l32 -23z" />
    <glyph glyph-name="uni01D0" unicode="&#x1d0;" horiz-adv-x="243" 
d="M150 0h-57v512h57v-512zM156 601h-70l-118 139l32 23l121 -121l121 121l32 -23z" />
    <glyph glyph-name="uni01D1" unicode="&#x1d1;" horiz-adv-x="697" 
d="M349 -12q-89 0 -153 41t-98.5 121.5t-34.5 198.5t34.5 198.5t98.5 121.5t153 41q88 0 152 -41t98.5 -121.5t34.5 -198.5t-34.5 -198.5t-98.5 -121.5t-152 -41zM349 42q67 0 116.5 31t77 90t27.5 142v88q0 83 -27.5 142t-77 90t-116.5 31t-117 -31t-77.5 -90t-27.5 -142
v-88q0 -83 27.5 -142t77.5 -90t117 -31zM384 774h-70l-118 140l32 23l121 -121l121 121l32 -23z" />
    <glyph glyph-name="uni01D2" unicode="&#x1d2;" horiz-adv-x="552" 
d="M276 -12q-68 0 -118 32t-78 92t-28 144t28 144t78 92t118 32t118.5 -32t78 -92t27.5 -144t-27.5 -144t-78 -92t-118.5 -32zM276 39q75 0 119 47.5t44 137.5v64q0 90 -44 137.5t-119 47.5q-74 0 -118 -47.5t-44 -137.5v-64q0 -90 44 -137.5t118 -47.5zM311 601h-70
l-118 139l32 23l121 -121l121 121l32 -23z" />
    <glyph glyph-name="uni01D3" unicode="&#x1d3;" horiz-adv-x="668" 
d="M93 698h60v-431q0 -78 16.5 -127.5t56.5 -73.5t108 -24t107.5 24t56.5 73.5t17 127.5v431h60v-418q0 -102 -23 -167t-76.5 -95t-143.5 -30q-89 0 -141.5 30t-75 95t-22.5 167v418zM367 774h-70l-118 140l32 23l121 -121l121 121l32 -23z" />
    <glyph glyph-name="uni01D4" unicode="&#x1d4;" horiz-adv-x="563" 
d="M414 0v81h-4q-14 -36 -49 -64.5t-101 -28.5q-81 0 -127.5 50.5t-46.5 144.5v329h57v-318q0 -78 34 -116.5t98 -38.5q36 0 67.5 12.5t51.5 37.5t20 64v359h57v-512h-57zM313 601h-70l-118 139l32 23l121 -121l121 121l32 -23z" />
    <glyph glyph-name="uni01D5" unicode="&#x1d5;" horiz-adv-x="668" 
d="M93 698h60v-431q0 -78 16.5 -127.5t56.5 -73.5t108 -24t107.5 24t56.5 73.5t17 127.5v431h60v-418q0 -102 -23 -167t-76.5 -95t-143.5 -30q-89 0 -141.5 30t-75 95t-22.5 167v418zM201 934v49h262v-49h-262zM236 785q-20 0 -29.5 10.5t-9.5 26.5v10q0 16 9.5 26.5
t29.5 10.5q21 0 30.5 -10.5t9.5 -26.5v-10q0 -16 -9.5 -26.5t-30.5 -10.5zM428 785q-20 0 -30 10.5t-10 26.5v10q0 16 10 26.5t30 10.5q21 0 30 -10.5t9 -26.5v-10q0 -16 -9 -26.5t-30 -10.5z" />
    <glyph glyph-name="uni01D6" unicode="&#x1d6;" horiz-adv-x="563" 
d="M414 0v81h-4q-14 -36 -49 -64.5t-101 -28.5q-81 0 -127.5 50.5t-46.5 144.5v329h57v-318q0 -78 34 -116.5t98 -38.5q36 0 67.5 12.5t51.5 37.5t20 64v359h57v-512h-57zM147 760v49h262v-49h-262zM182 611q-20 0 -29.5 10.5t-9.5 26.5v9q0 16 9.5 26t29.5 10q21 0 30 -10
t9 -26v-9q0 -16 -9 -26.5t-30 -10.5zM374 611q-20 0 -29.5 10.5t-9.5 26.5v9q0 16 9.5 26t29.5 10q21 0 30 -10t9 -26v-9q0 -16 -9 -26.5t-30 -10.5z" />
    <glyph glyph-name="uni01D7" unicode="&#x1d7;" horiz-adv-x="668" 
d="M93 698h60v-431q0 -78 16.5 -127.5t56.5 -73.5t108 -24t107.5 24t56.5 73.5t17 127.5v431h60v-418q0 -102 -23 -167t-76.5 -95t-143.5 -30q-89 0 -141.5 30t-75 95t-22.5 167v418zM452 1028l-109 -156l-36 17l95 164zM236 785q-20 0 -29.5 10.5t-9.5 26.5v10
q0 16 9.5 26.5t29.5 10.5q21 0 30.5 -10.5t9.5 -26.5v-10q0 -16 -9.5 -26.5t-30.5 -10.5zM428 785q-20 0 -30 10.5t-10 26.5v10q0 16 10 26.5t30 10.5q21 0 30 -10.5t9 -26.5v-10q0 -16 -9 -26.5t-30 -10.5z" />
    <glyph glyph-name="uni01D8" unicode="&#x1d8;" horiz-adv-x="563" 
d="M414 0v81h-4q-14 -36 -49 -64.5t-101 -28.5q-81 0 -127.5 50.5t-46.5 144.5v329h57v-318q0 -78 34 -116.5t98 -38.5q36 0 67.5 12.5t51.5 37.5t20 64v359h57v-512h-57zM398 854l-109 -156l-36 18l95 163zM182 611q-20 0 -29.5 10.5t-9.5 26.5v9q0 16 9.5 26t29.5 10
q21 0 30 -10t9 -26v-9q0 -16 -9 -26.5t-30 -10.5zM374 611q-20 0 -29.5 10.5t-9.5 26.5v9q0 16 9.5 26t29.5 10q21 0 30 -10t9 -26v-9q0 -16 -9 -26.5t-30 -10.5z" />
    <glyph glyph-name="uni01D9" unicode="&#x1d9;" horiz-adv-x="668" 
d="M93 698h60v-431q0 -78 16.5 -127.5t56.5 -73.5t108 -24t107.5 24t56.5 73.5t17 127.5v431h60v-418q0 -102 -23 -167t-76.5 -95t-143.5 -30q-89 0 -141.5 30t-75 95t-22.5 167v418zM367 891h-70l-117 133l30 23l122 -118l122 118l30 -23zM236 785q-20 0 -29.5 10.5
t-9.5 26.5v10q0 16 9.5 26.5t29.5 10.5q21 0 30.5 -10.5t9.5 -26.5v-10q0 -16 -9.5 -26.5t-30.5 -10.5zM428 785q-20 0 -30 10.5t-10 26.5v10q0 16 10 26.5t30 10.5q21 0 30 -10.5t9 -26.5v-10q0 -16 -9 -26.5t-30 -10.5z" />
    <glyph glyph-name="uni01DA" unicode="&#x1da;" horiz-adv-x="563" 
d="M414 0v81h-4q-14 -36 -49 -64.5t-101 -28.5q-81 0 -127.5 50.5t-46.5 144.5v329h57v-318q0 -78 34 -116.5t98 -38.5q36 0 67.5 12.5t51.5 37.5t20 64v359h57v-512h-57zM313 717h-70l-117 133l30 23l122 -118l122 118l30 -23zM182 611q-20 0 -29.5 10.5t-9.5 26.5v9
q0 16 9.5 26t29.5 10q21 0 30 -10t9 -26v-9q0 -16 -9 -26.5t-30 -10.5zM374 611q-20 0 -29.5 10.5t-9.5 26.5v9q0 16 9.5 26t29.5 10q21 0 30 -10t9 -26v-9q0 -16 -9 -26.5t-30 -10.5z" />
    <glyph glyph-name="uni01DB" unicode="&#x1db;" horiz-adv-x="668" 
d="M93 698h60v-431q0 -78 16.5 -127.5t56.5 -73.5t108 -24t107.5 24t56.5 73.5t17 127.5v431h60v-418q0 -102 -23 -167t-76.5 -95t-143.5 -30q-89 0 -141.5 30t-75 95t-22.5 167v418zM322 872l-110 156l51 25l95 -164zM236 785q-20 0 -29.5 10.5t-9.5 26.5v10q0 16 9.5 26.5
t29.5 10.5q21 0 30.5 -10.5t9.5 -26.5v-10q0 -16 -9.5 -26.5t-30.5 -10.5zM428 785q-20 0 -30 10.5t-10 26.5v10q0 16 10 26.5t30 10.5q21 0 30 -10.5t9 -26.5v-10q0 -16 -9 -26.5t-30 -10.5z" />
    <glyph glyph-name="uni01DC" unicode="&#x1dc;" horiz-adv-x="563" 
d="M414 0v81h-4q-14 -36 -49 -64.5t-101 -28.5q-81 0 -127.5 50.5t-46.5 144.5v329h57v-318q0 -78 34 -116.5t98 -38.5q36 0 67.5 12.5t51.5 37.5t20 64v359h57v-512h-57zM268 698l-110 156l51 25l95 -163zM182 611q-20 0 -29.5 10.5t-9.5 26.5v9q0 16 9.5 26t29.5 10
q21 0 30 -10t9 -26v-9q0 -16 -9 -26.5t-30 -10.5zM374 611q-20 0 -29.5 10.5t-9.5 26.5v9q0 16 9.5 26t29.5 10q21 0 30 -10t9 -26v-9q0 -16 -9 -26.5t-30 -10.5z" />
    <glyph glyph-name="Aringacute" unicode="&#x1fa;" horiz-adv-x="625" 
d="M599 0h-63l-76 217h-297l-76 -217h-60l247 698h77zM444 269l-91 260l-40 112h-4l-39 -112l-92 -260h266zM413 1088l-91 -104l-35 15l76 109zM313 749q-45 0 -75.5 30t-30.5 76t30.5 75.5t75.5 29.5q46 0 76 -29.5t30 -75.5t-30 -76t-76 -30zM313 786q29 0 46 16t17 44v17
q0 28 -17 44t-46 16t-46 -16t-17 -44v-17q0 -28 17 -44t46 -16z" />
    <glyph glyph-name="aringacute" unicode="&#x1fb;" horiz-adv-x="528" 
d="M503 0h-58q-23 0 -38 9.5t-21.5 26.5t-6.5 40v27l23 -22h-27q-17 -42 -56 -67.5t-99 -25.5q-81 0 -125 40t-44 111q0 46 21.5 79t67 51t119.5 18h118v60q0 64 -33 96t-98 32q-50 0 -84.5 -22t-55.5 -62l-36 30q21 44 64.5 73.5t113.5 29.5q89 0 137.5 -45t48.5 -126v-303
h69v-50zM377 244h-120q-76 0 -111 -24.5t-35 -67.5v-24q0 -44 32.5 -67.5t84.5 -23.5q42 0 75.5 13.5t53.5 39t20 59.5v95zM348 911l-90 -103l-31 20l77 110zM251 575q-45 0 -75.5 30t-30.5 76t30.5 75.5t75.5 29.5q46 0 76 -29.5t30 -75.5t-30 -76t-76 -30zM251 612
q29 0 46 16t17 44v17q0 28 -17 44t-46 16t-46 -16t-17 -44v-17q0 -28 17 -44t46 -16z" />
    <glyph glyph-name="AEacute" unicode="&#x1fc;" horiz-adv-x="889" 
d="M413 0v216h-235l-113 -216h-62l367 698h452v-53h-349v-265h332v-53h-332v-274h349v-53h-409zM413 645h-12l-198 -376h210v376zM702 916l-110 -156l-37 18l95 164z" />
    <glyph glyph-name="aeacute" unicode="&#x1fd;" horiz-adv-x="863" 
d="M375 245h-120q-76 -1 -111 -25.5t-35 -67.5v-24q0 -44 32 -67.5t85 -23.5q42 0 75.5 13.5t53.5 39t20 59.5v96zM432 289h317v8q0 54 -19 94t-54 62.5t-81 22.5q-49 0 -86 -23t-57 -64t-20 -95v-5zM599 38q56 0 94.5 26t60.5 76l42 -27q-24 -56 -74.5 -90.5t-119.5 -34.5
q-51 0 -91 17.5t-65.5 45.5t-35.5 60h-4q-6 -31 -30.5 -59t-65 -46t-93.5 -18q-78 0 -123 40t-45 109q0 47 21.5 81t67.5 52.5t119 18.5h118v58q0 64 -32.5 96t-96.5 32q-52 0 -86 -21t-56 -63l-36 30q21 44 65 73.5t114 29.5q55 0 89 -18.5t51 -47t22 -57.5h4q10 31 35 59
t64 46t88 18q64 0 111.5 -31.5t73.5 -88.5t26 -132v-27h-379v-25q0 -81 44 -131.5t123 -50.5zM526 742l-110 -156l-37 18l95 164z" />
    <glyph glyph-name="Oslashacute" unicode="&#x1fe;" horiz-adv-x="697" 
d="M349 -12q-55 0 -99.5 15.5t-79.5 46.5l-62 -90l-42 27l69 98q-35 46 -53.5 112t-18.5 152q0 118 34.5 198.5t98.5 121.5t153 41q54 0 98.5 -15.5t79.5 -45.5l62 89l42 -27l-69 -98q36 -46 54 -112t18 -152q0 -118 -34.5 -198.5t-98.5 -121.5t-152 -41zM349 656
q-67 0 -117 -31t-77.5 -90t-27.5 -142v-88q0 -51 11 -93.5t30 -73.5h2l179 255l145 209q-27 27 -64 40.5t-81 13.5zM349 42q67 0 116.5 31t77 90t27.5 142v88q0 52 -11 94t-30 73h-2l-178 -255l-146 -209q28 -27 65 -40.5t81 -13.5zM456 916l-110 -156l-37 18l95 164z" />
    <glyph glyph-name="oslashacute" unicode="&#x1ff;" horiz-adv-x="559" 
d="M70 -35l-33 25l67 84q-23 35 -35.5 80t-12.5 102q0 84 27.5 144t78 92t118.5 32q43 0 80 -14t65 -40l65 81l32 -25l-68 -87q24 -34 37 -80t13 -103q0 -84 -28 -144t-78 -92t-118 -32q-45 0 -82 14t-65 41zM280 39q74 0 118 47.5t44 137.5v64q0 22 -3 41t-8 35.5t-12 29.5
h-2l-137 -169l-115 -142q21 -21 50 -32.5t65 -11.5zM280 473q-74 0 -118.5 -47.5t-44.5 -137.5v-64q0 -20 2.5 -38.5t7.5 -35t12 -29.5h2l139 170l113 140q-21 21 -49.5 31.5t-63.5 10.5zM387 742l-110 -156l-37 18l95 164z" />
    <glyph glyph-name="Scommaaccent" unicode="&#x218;" horiz-adv-x="568" 
d="M284 -12q-85 0 -143.5 32.5t-98.5 86.5l45 37q37 -49 83.5 -76t115.5 -27q81 0 124.5 38.5t43.5 107.5q0 43 -16.5 70t-48.5 42.5t-76 25.5l-62 13q-66 14 -108 39t-62 62.5t-20 85.5q0 61 28 102t79 62t117 21q78 0 132.5 -28t88.5 -79l-45 -33q-29 42 -72 64.5
t-107 22.5q-75 0 -118.5 -32.5t-43.5 -97.5q0 -42 18 -67.5t50 -41t75 -24.5l62 -13q70 -14 111 -41t59 -64.5t18 -85.5q0 -63 -27.5 -108.5t-79 -69.5t-122.5 -24zM282 -66q20 0 30 -10t10 -27v-11q0 -31 -16 -63.5t-38 -54.5h-42q20 22 31.5 43.5t16.5 41.5q-16 2 -24 12
t-8 23v9q0 17 10 27t30 10z" />
    <glyph glyph-name="scommaaccent" unicode="&#x219;" horiz-adv-x="477" 
d="M238 -12q-67 0 -114.5 25.5t-82.5 72.5l42 33q32 -41 70 -61.5t89 -20.5q59 0 91 25.5t32 71.5q0 40 -24.5 64t-80.5 32l-42 7q-46 7 -82 23t-55.5 45.5t-19.5 75.5q0 72 50 107.5t124 35.5q43 0 75 -10t56.5 -28t43.5 -41l-38 -35q-20 25 -53 45t-87 20q-55 0 -85.5 -24
t-30.5 -67q0 -45 27.5 -65.5t82.5 -29.5l41 -6q78 -12 115.5 -46.5t37.5 -96.5q0 -48 -22 -82t-62.5 -52t-97.5 -18zM239 -66q20 0 30 -10t10 -27v-11q0 -31 -16 -63.5t-38 -54.5h-42q20 22 31.5 43.5t16.5 41.5q-16 2 -24 12t-8 23v9q0 17 10 27t30 10z" />
    <glyph glyph-name="uni021A" unicode="&#x21a;" horiz-adv-x="567" 
d="M547 645h-233v-645h-60v645h-234v53h527v-53zM284 -66q20 0 30 -10t10 -27v-11q0 -31 -16 -63.5t-38 -54.5h-42q20 22 31.5 43.5t16.5 41.5q-16 2 -24 12t-8 23v9q0 17 10 27t30 10z" />
    <glyph glyph-name="uni021B" unicode="&#x21b;" horiz-adv-x="335" 
d="M283 0h-102q-30 0 -46.5 17.5t-16.5 45.5v399h-89v50h58q21 0 28.5 9t7.5 30v104h52v-143h116v-50h-116v-412h108v-50zM204 -66q20 0 30 -10t10 -27v-11q0 -31 -16 -63.5t-38 -54.5h-42q20 22 31.5 43.5t16.5 41.5q-16 2 -24 12t-8 23v9q0 17 10 27t30 10z" />
    <glyph glyph-name="uni0237" unicode="&#x237;" horiz-adv-x="243" 
d="M8 -200v50h85v662h57v-627q0 -39 -19.5 -62t-60.5 -23h-62z" />
    <glyph glyph-name="uni0259" unicode="&#x259;" horiz-adv-x="543" 
d="M52 267h378v25q0 81 -44 131.5t-123 50.5q-54 0 -94 -26t-61 -77l-41 28q24 57 75 91t124 34q69 0 119 -32t78 -92t28 -144t-27.5 -144t-77.5 -92t-118 -32q-66 0 -114.5 31.5t-75 88.5t-26.5 132v27zM114 223v-8q0 -53 19 -93.5t54 -63t81 -22.5q50 0 86.5 23t56 64
t19.5 95v5h-316z" />
    <glyph glyph-name="uni02BB" unicode="&#x2bb;" 
d="M300 597q-20 0 -29.5 9.5t-9.5 27.5v11q0 31 16 63.5t38 54.5h42q-21 -22 -32.5 -43.5t-16.5 -41.5q17 -3 25 -12t8 -23v-9q0 -18 -10 -27.5t-31 -9.5z" />
    <glyph glyph-name="uni02BC" unicode="&#x2bc;" 
d="M356 740l-42 -181h-39l14 181h67z" />
    <glyph glyph-name="circumflex" unicode="&#x2c6;" 
d="M265 756h70l118 -139l-32 -23l-121 121l-121 -121l-32 23z" />
    <glyph glyph-name="caron" unicode="&#x2c7;" 
d="M335 601h-70l-118 139l32 23l121 -121l121 121l32 -23z" />
    <glyph glyph-name="breve" unicode="&#x2d8;" 
d="M300 600q-34 0 -57.5 10t-39.5 27.5t-26.5 39t-20.5 45.5l33 16l19 -31q19 -31 37.5 -46t54.5 -15t55 15t37 46l19 31l33 -16q-10 -24 -20.5 -45.5t-26.5 -39t-39 -27.5t-58 -10z" />
    <glyph glyph-name="dotaccent" unicode="&#x2d9;" 
d="M300 626q-20 0 -30 10t-10 26v10q0 16 10 26t30 10q21 0 30.5 -10t9.5 -26v-10q0 -16 -9.5 -26t-30.5 -10z" />
    <glyph glyph-name="ring" unicode="&#x2da;" 
d="M300 581q-30 0 -54 13.5t-38 37.5t-14 55q0 30 14 54t38 37.5t54 13.5q31 0 54.5 -13.5t37.5 -37.5t14 -54q0 -31 -14 -55t-37.5 -37.5t-54.5 -13.5zM300 618q29 0 46 16t17 44v17q0 28 -17 44t-46 16t-46 -16t-17 -44v-17q0 -28 17 -44t46 -16z" />
    <glyph glyph-name="ogonek" unicode="&#x2db;" 
d="M252 -205q-24 0 -44 8t-32 24t-12 40q0 36 27.5 68t82.5 68l-5 15l41 2l7 -20q-41 -34 -64 -56t-32.5 -38t-9.5 -33q0 -20 12 -29t30 -9t31 7t21 17l30 -28q-9 -15 -30 -25.5t-53 -10.5z" />
    <glyph glyph-name="tilde" unicode="&#x2dc;" 
d="M372 618q-22 0 -40.5 8.5t-38.5 19.5q-23 13 -39 19t-29 6q-17 0 -31 -7.5t-30 -22.5l-25 29q16 20 38 34t51 14q22 0 40.5 -8t38.5 -20q23 -13 39 -18.5t29 -5.5q17 0 31 7.5t30 21.5l25 -29q-15 -20 -37 -34t-52 -14z" />
    <glyph glyph-name="hungarumlaut" unicode="&#x2dd;" 
d="M334 743l-110 -157l-35 18l95 163zM494 743l-110 -157l-35 18l95 163z" />
    <glyph glyph-name="uni0300" unicode="&#x300;" horiz-adv-x="0" 
d="M2 586l-109 156l52 26l95 -164z" />
    <glyph glyph-name="uni0301" unicode="&#x301;" horiz-adv-x="0" 
d="M107 742l-110 -156l-37 18l95 164z" />
    <glyph glyph-name="uni0302" unicode="&#x302;" horiz-adv-x="0" 
d="M-35 756h70l118 -139l-32 -23l-121 121l-121 -121l-32 23z" />
    <glyph glyph-name="uni0303" unicode="&#x303;" horiz-adv-x="0" 
d="M72 618q-22 0 -40.5 8.5t-38.5 19.5q-23 13 -39 19t-29 6q-17 0 -31 -7.5t-30 -22.5l-25 29q16 20 38 34t51 14q22 0 40.5 -8t38.5 -20q23 -13 39 -18.5t29 -5.5q17 0 31 7.5t30 21.5l25 -29q-15 -20 -37 -34t-52 -14z" />
    <glyph glyph-name="uni0304" unicode="&#x304;" horiz-adv-x="0" 
d="M-136 645v49h272v-49h-272z" />
    <glyph glyph-name="uni0306" unicode="&#x306;" horiz-adv-x="0" 
d="M0 600q-34 0 -57.5 10t-39.5 27.5t-26.5 39t-20.5 45.5l33 16l19 -31q19 -31 37.5 -46t54.5 -15t55 15t37 46l19 31l33 -16q-10 -24 -20.5 -45.5t-26.5 -39t-39 -27.5t-58 -10z" />
    <glyph glyph-name="uni0307" unicode="&#x307;" horiz-adv-x="0" 
d="M0 626q-20 0 -30 10t-10 26v10q0 16 10 26t30 10q21 0 30.5 -10t9.5 -26v-10q0 -16 -9.5 -26t-30.5 -10z" />
    <glyph glyph-name="uni0308" unicode="&#x308;" horiz-adv-x="0" 
d="M-92 627q-21 0 -30 10.5t-9 26.5v9q0 16 9 26t30 10t30 -10t9 -26v-9q0 -16 -9 -26.5t-30 -10.5zM92 627q-20 0 -29.5 10.5t-9.5 26.5v9q0 16 9.5 26t29.5 10q21 0 30 -10t9 -26v-9q0 -16 -9 -26.5t-30 -10.5z" />
    <glyph glyph-name="uni0309" unicode="&#x309;" horiz-adv-x="0" 
d="M-80 710v44h120q27 0 39 -11.5t12 -28.5q0 -16 -10 -36.5t-31 -49.5l-34 -48l-35 17l66 113h-127z" />
    <glyph glyph-name="uni030A" unicode="&#x30a;" horiz-adv-x="0" 
d="M0 581q-30 0 -54 13.5t-38 37.5t-14 55q0 30 14 54t38 37.5t54 13.5q31 0 54.5 -13.5t37.5 -37.5t14 -54q0 -31 -14 -55t-37.5 -37.5t-54.5 -13.5zM0 618q29 0 46 16t17 44v17q0 28 -17 44t-46 16t-46 -16t-17 -44v-17q0 -28 17 -44t46 -16z" />
    <glyph glyph-name="uni030B" unicode="&#x30b;" horiz-adv-x="0" 
d="M34 743l-110 -157l-35 18l95 163zM194 743l-110 -157l-35 18l95 163z" />
    <glyph glyph-name="uni030C" unicode="&#x30c;" horiz-adv-x="0" 
d="M35 601h-70l-118 139l32 23l121 -121l121 121l32 -23z" />
    <glyph glyph-name="uni0312" unicode="&#x312;" horiz-adv-x="0" 
d="M0 597q-20 0 -29.5 9.5t-9.5 27.5v11q0 31 16 63.5t38 54.5h42q-21 -22 -32.5 -43.5t-16.5 -41.5q17 -3 25 -12t8 -23v-9q0 -18 -10 -27.5t-31 -9.5z" />
    <glyph glyph-name="uni0315" unicode="&#x315;" horiz-adv-x="0" 
d="M81 740l-42 -181h-39l14 181h67z" />
    <glyph glyph-name="uni031B" unicode="&#x31b;" horiz-adv-x="0" 
d="M57 624v-102q0 -21 -10.5 -35t-39.5 -14h-83v39h82v112h51z" />
    <glyph glyph-name="uni0323" unicode="&#x323;" horiz-adv-x="0" 
d="M0 -155q-20 0 -30 10t-10 26v9q0 16 10 26.5t30 10.5q21 0 30.5 -10.5t9.5 -26.5v-9q0 -16 -9.5 -26t-30.5 -10z" />
    <glyph glyph-name="uni0326" unicode="&#x326;" horiz-adv-x="0" 
d="M0 -66q20 0 30 -10t10 -27v-11q0 -31 -16 -63.5t-38 -54.5h-42q20 22 31.5 43.5t16.5 41.5q-16 2 -24 12t-8 23v9q0 17 10 27t30 10z" />
    <glyph glyph-name="uni0327" unicode="&#x327;" horiz-adv-x="0" 
d="M11 -205q-35 0 -58.5 12t-33.5 25l28 31q10 -12 26 -20t38 -8t36 10t14 29q0 16 -13 27.5t-52 15.5l-31 3l19 93h38l-17 -79l2 -2q9 2 18.5 3.5t17.5 1.5q29 0 48.5 -17t19.5 -47q0 -24 -13.5 -41.5t-36 -27t-50.5 -9.5z" />
    <glyph glyph-name="uni0328" unicode="&#x328;" horiz-adv-x="0" 
d="M-65 -205q-24 0 -44 8t-32 24t-12 40q0 36 27.5 68t82.5 68l-5 15l41 2l7 -20q-41 -34 -64 -56t-32.5 -38t-9.5 -33q0 -20 12 -29t30 -9t31 7t21 17l30 -28q-9 -15 -30 -25.5t-53 -10.5z" />
    <glyph glyph-name="uni037E" unicode="&#x37e;" horiz-adv-x="280" 
d="M140 92q25 0 36.5 -13t11.5 -33v-13q0 -41 -23.5 -89t-62.5 -82h-48q33 34 50.5 66t23.5 65q-19 3 -27.5 14t-8.5 27v12q0 20 11.5 33t36.5 13zM140 420q-24 0 -36 12.5t-12 32.5v11q0 20 12 32.5t36 12.5q25 0 36.5 -12.5t11.5 -32.5v-11q0 -20 -11.5 -32.5t-36.5 -12.5
z" />
    <glyph glyph-name="tonos" unicode="&#x384;" 
d="M384 759l-60 -173l-41 6l44 177z" />
    <glyph glyph-name="dieresistonos" unicode="&#x385;" 
d="M407 627q-19 0 -28 10.5t-9 26.5v9q0 16 9 26t28 10t27.5 -10t8.5 -26v-9q0 -16 -8.5 -26.5t-27.5 -10.5zM193 627q-18 0 -27 10.5t-9 26.5v9q0 16 9 26t27 10q19 0 28 -10t9 -26v-9q0 -16 -9 -26.5t-28 -10.5zM353 759l-60 -173l-37 6l45 177z" />
    <glyph glyph-name="Alphatonos" unicode="&#x386;" horiz-adv-x="625" 
d="M599 0h-63l-76 217h-297l-76 -217h-60l247 698h77zM444 269l-91 260l-40 112h-4l-39 -112l-92 -260h266zM156 759l-60 -173l-41 6l44 177z" />
    <glyph glyph-name="anoteleia" unicode="&#x387;" horiz-adv-x="280" 
d="M140 420q-24 0 -36 12.5t-12 32.5v11q0 20 12 32.5t36 12.5q25 0 36.5 -12.5t11.5 -32.5v-11q0 -20 -11.5 -32.5t-36.5 -12.5z" />
    <glyph glyph-name="Epsilontonos" unicode="&#x388;" horiz-adv-x="599" 
d="M531 0h-408v698h408v-53h-348v-265h331v-53h-331v-274h348v-53zM78 759l-60 -173l-41 6l44 177z" />
    <glyph glyph-name="Etatonos" unicode="&#x389;" horiz-adv-x="726" 
d="M566 0v327h-383v-327h-60v698h60v-318h383v318h60v-698h-60zM78 759l-60 -173l-41 6l44 177z" />
    <glyph glyph-name="Iotatonos" unicode="&#x38a;" horiz-adv-x="445" 
d="M382 0h-263v50h102v598h-102v50h263v-50h-102v-598h102v-50zM78 759l-60 -173l-41 6l44 177z" />
    <glyph glyph-name="Omicrontonos" unicode="&#x38c;" horiz-adv-x="700" 
d="M351 -12q-89 0 -153 41t-98.5 121.5t-34.5 198.5t34.5 198.5t98.5 121.5t153 41q88 0 152 -41t98.5 -121.5t34.5 -198.5t-34.5 -198.5t-98.5 -121.5t-152 -41zM351 42q67 0 116.5 31t77 90t27.5 142v88q0 83 -27.5 142t-77 90t-116.5 31t-117 -31t-77.5 -90t-27.5 -142
v-88q0 -83 27.5 -142t77.5 -90t117 -31zM78 759l-60 -173l-41 6l44 177z" />
    <glyph glyph-name="Upsilontonos" unicode="&#x38e;" horiz-adv-x="657" 
d="M398 0h-59v283l-241 415h68l202 -352h3l202 352h68l-243 -413v-285zM78 759l-60 -173l-41 6l44 177z" />
    <glyph glyph-name="Omegatonos" unicode="&#x38f;" horiz-adv-x="717" 
d="M78 759l-60 -173l-41 6l44 177zM67 0v53h166v13q-38 21 -69 50.5t-52.5 68.5t-33 87t-11.5 106q0 69 17.5 129t53.5 105.5t90 71.5t126 26q73 0 127 -26t90 -71.5t53.5 -105.5t17.5 -129q0 -58 -11.5 -106t-33 -87t-52.5 -68.5t-69 -50.5v-13h166v-53h-218v87
q26 11 53 33.5t50 56t37 75.5t14 91v80q0 64 -27 116.5t-77 84.5t-120 32q-69 0 -119 -32t-77 -84.5t-27 -116.5v-80q0 -49 14 -91t37 -75.5t50 -56t52 -33.5v-87h-217z" />
    <glyph glyph-name="iotadieresistonos" unicode="&#x390;" horiz-adv-x="285" 
d="M258 50v-50h-102q-31 0 -47 17.5t-16 45.5v449h57v-462h108zM241 627q-19 0 -28 10.5t-9 26.5v9q0 16 9 26t28 10t27.5 -10t8.5 -26v-9q0 -16 -8.5 -26.5t-27.5 -10.5zM27 627q-18 0 -27 10.5t-9 26.5v9q0 16 9 26t27 10q19 0 28 -10t9 -26v-9q0 -16 -9 -26.5t-28 -10.5z
M187 759l-60 -173l-37 6l45 177z" />
    <glyph glyph-name="Alpha" unicode="&#x391;" horiz-adv-x="625" 
d="M599 0h-63l-76 217h-297l-76 -217h-60l247 698h77zM444 269l-91 260l-40 112h-4l-39 -112l-92 -260h266z" />
    <glyph glyph-name="Beta" unicode="&#x392;" horiz-adv-x="638" 
d="M99 0v698h273q82 0 128.5 -47t46.5 -129q0 -49 -15.5 -80t-40.5 -48t-51 -24v-4q25 -3 48.5 -14.5t43 -32t31 -51t11.5 -71.5q0 -57 -21.5 -101.5t-61.5 -70t-94 -25.5h-298zM159 337v-284h222q42 0 71 16t43.5 43.5t14.5 64.5v37q0 36 -14.5 64t-43.5 43.5t-71 15.5
h-222zM159 645v-256h207q38 0 64 14t39.5 39t13.5 56v38q0 32 -13.5 56.5t-39.5 38.5t-64 14h-207z" />
    <glyph glyph-name="Gamma" unicode="&#x393;" horiz-adv-x="502" 
d="M99 0v698h370v-53h-310v-645h-60z" />
    <glyph glyph-name="uni0394" unicode="&#x394;" horiz-adv-x="626" 
d="M42 0v53l233 645h77l232 -645v-53h-542zM521 53l-140 398l-67 190h-4l-67 -190l-140 -398h418z" />
    <glyph glyph-name="Epsilon" unicode="&#x395;" horiz-adv-x="574" 
d="M507 0h-408v698h408v-53h-348v-265h331v-53h-331v-274h348v-53z" />
    <glyph glyph-name="Zeta" unicode="&#x396;" horiz-adv-x="570" 
d="M537 53v-53h-500v55l419 590h-397v53h462v-55l-420 -590h436z" />
    <glyph glyph-name="Eta" unicode="&#x397;" horiz-adv-x="701" 
d="M542 0v327h-383v-327h-60v698h60v-318h383v318h60v-698h-60z" />
    <glyph glyph-name="Theta" unicode="&#x398;" horiz-adv-x="697" 
d="M349 -12q-89 0 -153 41t-98.5 121.5t-34.5 198.5t34.5 198.5t98.5 121.5t153 41q88 0 152 -41t98.5 -121.5t34.5 -198.5t-34.5 -198.5t-98.5 -121.5t-152 -41zM349 42q67 0 116.5 31t77 90t27.5 142v88q0 83 -27.5 142t-77 90t-116.5 31t-117 -31t-77.5 -90t-27.5 -142
v-88q0 -83 27.5 -142t77.5 -90t117 -31zM504 327h-311v53h311v-53z" />
    <glyph glyph-name="Iota" unicode="&#x399;" horiz-adv-x="389" 
d="M326 0h-263v50h102v598h-102v50h263v-50h-102v-598h102v-50z" />
    <glyph glyph-name="Kappa" unicode="&#x39a;" horiz-adv-x="610" 
d="M515 0l-243 360l-113 -125v-235h-60v698h60v-264v-129h2l112 129l230 264h73l-263 -297l276 -401h-74z" />
    <glyph glyph-name="Lambda" unicode="&#x39b;" horiz-adv-x="614" 
d="M268 698h77l242 -698h-62l-122 359l-95 282h-5l-94 -282l-122 -359h-60z" />
    <glyph glyph-name="Mu" unicode="&#x39c;" horiz-adv-x="806" 
d="M99 0v698h81l142 -252l80 -141h4l80 141l142 252h79v-698h-58v484v137h-5l-76 -137l-165 -290l-166 290l-76 137h-4v-137v-484h-58z" />
    <glyph glyph-name="Nu" unicode="&#x39d;" horiz-adv-x="701" 
d="M531 0l-278 455l-93 161h-3v-161v-455h-58v698h72l278 -455l92 -161h3v161v455h58v-698h-71z" />
    <glyph glyph-name="Xi" unicode="&#x39e;" horiz-adv-x="573" 
d="M67 645v53h439v-53h-439zM104 327v53h365v-53h-365zM67 0v53h439v-53h-439z" />
    <glyph glyph-name="Omicron" unicode="&#x39f;" horiz-adv-x="697" 
d="M349 -12q-89 0 -153 41t-98.5 121.5t-34.5 198.5t34.5 198.5t98.5 121.5t153 41q88 0 152 -41t98.5 -121.5t34.5 -198.5t-34.5 -198.5t-98.5 -121.5t-152 -41zM349 42q67 0 116.5 31t77 90t27.5 142v88q0 83 -27.5 142t-77 90t-116.5 31t-117 -31t-77.5 -90t-27.5 -142
v-88q0 -83 27.5 -142t77.5 -90t117 -31z" />
    <glyph glyph-name="Pi" unicode="&#x3a0;" horiz-adv-x="687" 
d="M99 0v698h489v-698h-60v645h-369v-645h-60z" />
    <glyph glyph-name="Rho" unicode="&#x3a1;" horiz-adv-x="601" 
d="M159 0h-60v698h274q61 0 102.5 -24t63 -67.5t21.5 -103.5t-21.5 -104t-63 -68t-102.5 -24h-214v-307zM159 645v-285h214q40 0 67.5 15.5t41 42t13.5 61.5v48q0 34 -13.5 61t-41 42t-67.5 15h-214z" />
    <glyph glyph-name="Sigma" unicode="&#x3a3;" horiz-adv-x="570" 
d="M507 0h-463v55l259 298l-252 290v55h456v-53h-385l252 -291l-262 -301h395v-53z" />
    <glyph glyph-name="Tau" unicode="&#x3a4;" horiz-adv-x="567" 
d="M547 645h-233v-645h-60v645h-234v53h527v-53z" />
    <glyph glyph-name="Upsilon" unicode="&#x3a5;" horiz-adv-x="575" 
d="M316 0h-59v283l-241 415h68l202 -352h3l202 352h68l-243 -413v-285z" />
    <glyph glyph-name="Phi" unicode="&#x3a6;" horiz-adv-x="842" 
d="M391 -29v62h-25q-99 0 -167.5 41.5t-104 113.5t-35.5 166t35.5 166t104 113.5t167.5 41.5h25v50h60v-50h25q99 0 167.5 -41.5t104 -113.5t35.5 -166t-35.5 -166t-104 -113.5t-167.5 -41.5h-25v-62h-60zM392 84v540h-26q-77 0 -131.5 -32t-83 -87t-28.5 -120v-62
q0 -65 28.5 -120t83 -87t131.5 -32h26zM450 84h26q77 0 131.5 32t83 87t28.5 120v62q0 65 -28.5 120t-83 87t-131.5 32h-26v-540z" />
    <glyph glyph-name="Chi" unicode="&#x3a7;" horiz-adv-x="592" 
d="M26 0l231 355l-224 343h72l190 -295h2l193 295h69l-226 -340l233 -358h-72l-198 309h-2l-200 -309h-68z" />
    <glyph glyph-name="Psi" unicode="&#x3a8;" horiz-adv-x="774" 
d="M357 0v205q-86 0 -150 27.5t-99 86.5t-35 154v225h60v-226q0 -81 28 -128t78.5 -68t117.5 -21v443h60v-443q67 0 118 21t79 68t28 128v226h60v-225q0 -95 -35 -154t-99.5 -86.5t-150.5 -27.5v-205h-60z" />
    <glyph glyph-name="uni03A9" unicode="&#x3a9;" horiz-adv-x="717" 
d="M67 0v53h166v13q-38 21 -69 50.5t-52.5 68.5t-33 87t-11.5 106q0 69 17.5 129t53.5 105.5t90 71.5t126 26q73 0 127 -26t90 -71.5t53.5 -105.5t17.5 -129q0 -58 -11.5 -106t-33 -87t-52.5 -68.5t-69 -50.5v-13h166v-53h-218v87q26 11 53 33.5t50 56t37 75.5t14 91v80
q0 64 -27 116.5t-77 84.5t-120 32q-69 0 -119 -32t-77 -84.5t-27 -116.5v-80q0 -49 14 -91t37 -75.5t50 -56t52 -33.5v-87h-217z" />
    <glyph glyph-name="Iotadieresis" unicode="&#x3aa;" horiz-adv-x="389" 
d="M326 0h-263v50h102v598h-102v50h263v-50h-102v-598h102v-50zM102 800q-21 0 -30.5 10.5t-9.5 26.5v10q0 16 9.5 26.5t30.5 10.5t30 -10.5t9 -26.5v-10q0 -16 -9 -26.5t-30 -10.5zM286 800q-20 0 -29.5 10.5t-9.5 26.5v10q0 16 9.5 26.5t29.5 10.5q21 0 30.5 -10.5
t9.5 -26.5v-10q0 -16 -9.5 -26.5t-30.5 -10.5z" />
    <glyph glyph-name="Upsilondieresis" unicode="&#x3ab;" horiz-adv-x="575" 
d="M316 0h-59v283l-241 415h68l202 -352h3l202 352h68l-243 -413v-285zM195 800q-21 0 -30.5 10.5t-9.5 26.5v10q0 16 9.5 26.5t30.5 10.5t30 -10.5t9 -26.5v-10q0 -16 -9 -26.5t-30 -10.5zM379 800q-20 0 -29.5 10.5t-9.5 26.5v10q0 16 9.5 26.5t29.5 10.5q21 0 30.5 -10.5
t9.5 -26.5v-10q0 -16 -9.5 -26.5t-30.5 -10.5z" />
    <glyph glyph-name="alphatonos" unicode="&#x3ac;" horiz-adv-x="640" 
d="M602 50v-50h-50q-30 0 -46 14t-23 50l-27 137h-4q-18 -76 -44.5 -123t-64 -68.5t-90.5 -21.5q-58 0 -103 32t-70.5 92t-25.5 144t25.5 144t70.5 92t103 32q53 0 92 -21t66 -67.5t43 -124.5h3l26 94l38 107h62l-100 -253l61 -209h58zM253 39q37 0 63.5 13.5t47 45.5
t38.5 88l25 70l-25 75q-17 55 -38 86.5t-48 43.5t-63 12q-56 0 -97 -48t-41 -138v-62q0 -90 41 -138t97 -48zM344 759l-60 -173l-41 6l44 177z" />
    <glyph glyph-name="epsilontonos" unicode="&#x3ad;" horiz-adv-x="521" 
d="M442 122l41 -29q-28 -50 -80.5 -77.5t-135.5 -27.5q-99 0 -148.5 39.5t-49.5 106.5q0 53 32 86t91 43v4q-51 9 -80 37.5t-29 76.5q0 65 51.5 104t141.5 39q51 0 89.5 -11.5t65.5 -32t44 -46.5l-41 -34q-14 22 -35 38.5t-51 25.5t-72 9q-69 0 -100.5 -25t-31.5 -60v-12
q0 -37 30 -62.5t81 -25.5h122v-48h-122q-60 0 -92.5 -25t-32.5 -68v-15q0 -44 36 -68.5t104 -24.5q65 0 107 21t65 62zM349 759l-60 -173l-41 6l44 177z" />
    <glyph glyph-name="etatonos" unicode="&#x3ae;" horiz-adv-x="570" 
d="M157 0h-57v462h-69v50h63q31 0 47 -17.5t16 -46.5v-25l-32 8h35q17 40 53 66.5t98 26.5q82 0 127.5 -50.5t45.5 -144.5v-529h-57v519q0 78 -33.5 116t-97.5 38q-36 0 -68 -12.5t-51.5 -37.5t-19.5 -63v-360zM370 759l-60 -173l-41 6l44 177z" />
    <glyph glyph-name="iotatonos" unicode="&#x3af;" horiz-adv-x="285" 
d="M258 50v-50h-102q-31 0 -47 17.5t-16 45.5v449h57v-462h108zM204 759l-60 -173l-41 6l44 177z" />
    <glyph glyph-name="upsilondieresistonos" unicode="&#x3b0;" horiz-adv-x="559" 
d="M143 512v-285q0 -68 14.5 -109.5t45 -60t77.5 -18.5t77.5 18.5t45 60t14.5 109.5v285h57v-273q0 -88 -21.5 -143.5t-64.5 -81.5t-108 -26t-108.5 26t-64.5 81.5t-21 143.5v273h57zM392 627q-19 0 -28 10.5t-9 26.5v9q0 16 9 26t28 10t27.5 -10t8.5 -26v-9
q0 -16 -8.5 -26.5t-27.5 -10.5zM178 627q-18 0 -27 10.5t-9 26.5v9q0 16 9 26t27 10q19 0 28 -10t9 -26v-9q0 -16 -9 -26.5t-28 -10.5zM338 759l-60 -173l-37 6l45 177z" />
    <glyph glyph-name="alpha" unicode="&#x3b1;" horiz-adv-x="640" 
d="M602 50v-50h-50q-30 0 -46 14t-23 50l-27 137h-4q-18 -76 -44.5 -123t-64 -68.5t-90.5 -21.5q-58 0 -103 32t-70.5 92t-25.5 144t25.5 144t70.5 92t103 32q53 0 92 -21t66 -67.5t43 -124.5h3l26 94l38 107h62l-100 -253l61 -209h58zM253 39q37 0 63.5 13.5t47 45.5
t38.5 88l25 70l-25 75q-17 55 -38 86.5t-48 43.5t-63 12q-56 0 -97 -48t-41 -138v-62q0 -90 41 -138t97 -48z" />
    <glyph glyph-name="beta" unicode="&#x3b2;" horiz-adv-x="578" 
d="M93 -200v718q0 109 50 171.5t151 62.5q55 0 98 -21.5t67 -61.5t24 -95q0 -49 -18 -83.5t-47 -55t-62 -27.5v-4q45 -6 82 -28.5t59.5 -63t22.5 -105.5q0 -63 -26 -112.5t-73 -78t-112 -28.5q-58 0 -97 22t-59 57h-3v-267h-57zM232 379v50h64q42 0 70 16t42 44.5t14 65.5
v25q0 36 -15.5 63t-45 42.5t-70.5 15.5q-72 0 -106.5 -43.5t-34.5 -132.5v-386q0 -30 20 -52.5t53.5 -35t72.5 -12.5q53 0 89 20.5t54.5 55.5t18.5 78v33q0 71 -42 112t-116 41h-68z" />
    <glyph glyph-name="gamma" unicode="&#x3b3;" horiz-adv-x="489" 
d="M222 -200v200l-160 462h-54v50h46q25 0 40 -9t24 -34l91 -267l40 -135h4l45 135l115 310h55l-189 -512v-200h-57z" />
    <glyph glyph-name="delta" unicode="&#x3b4;" horiz-adv-x="552" 
d="M328 490q-67 -2 -115 -29.5t-73.5 -75.5t-25.5 -112v-52q0 -57 19.5 -98t56 -62.5t86.5 -21.5t86 21t56.5 61t20.5 97v25q0 37 -6 69.5t-23.5 64t-49 68.5t-83.5 83l-164 147v65h342v-50h-226l-64 4v-3l144 -122q56 -47 93.5 -88.5t58.5 -78.5t30 -74.5t9 -79.5
q0 -81 -27.5 -139.5t-78 -89.5t-118.5 -31t-118 32t-78 90t-28 137q0 85 31 144.5t84.5 90t120.5 30.5v15z" />
    <glyph glyph-name="epsilon" unicode="&#x3b5;" horiz-adv-x="521" 
d="M442 122l41 -29q-28 -50 -80.5 -77.5t-135.5 -27.5q-99 0 -148.5 39.5t-49.5 106.5q0 53 32 86t91 43v4q-51 9 -80 37.5t-29 76.5q0 65 51.5 104t141.5 39q51 0 89.5 -11.5t65.5 -32t44 -46.5l-41 -34q-14 22 -35 38.5t-51 25.5t-72 9q-69 0 -100.5 -25t-31.5 -60v-12
q0 -37 30 -62.5t81 -25.5h122v-48h-122q-60 0 -92.5 -25t-32.5 -68v-15q0 -44 36 -68.5t104 -24.5q65 0 107 21t65 62z" />
    <glyph glyph-name="zeta" unicode="&#x3b6;" horiz-adv-x="428" 
d="M67 690v50h344v-45l-194 -241q-60 -73 -82 -125.5t-22 -97.5v-14q0 -41 15 -71t50 -51.5t93 -36.5l71 -18q26 -7 38 -21t12 -33q0 -6 -1 -12.5t-3 -13.5l-32 -119l-54 14l35 132l-74 19q-79 20 -125.5 48.5t-66.5 69.5t-20 100q0 34 10 69.5t35.5 79t71.5 100.5l177 218
v3l-59 -4h-219z" />
    <glyph glyph-name="eta" unicode="&#x3b7;" horiz-adv-x="570" 
d="M157 0h-57v462h-69v50h63q31 0 47 -17.5t16 -46.5v-25l-32 8h35q17 40 53 66.5t98 26.5q82 0 127.5 -50.5t45.5 -144.5v-529h-57v519q0 78 -33.5 116t-97.5 38q-36 0 -68 -12.5t-51.5 -37.5t-19.5 -63v-360z" />
    <glyph glyph-name="theta" unicode="&#x3b8;" horiz-adv-x="557" 
d="M123 439v-44h311v44q0 98 -18.5 155.5t-53.5 82.5t-84 25t-83.5 -25t-53 -82.5t-18.5 -155.5zM278 752q51 0 91.5 -19.5t68.5 -63t42.5 -117t14.5 -182.5q0 -108 -14.5 -182t-42.5 -117.5t-68.5 -63t-91.5 -19.5q-50 0 -90.5 19.5t-68.5 63t-43 117.5t-15 182
q0 109 15 182.5t43 117t68.5 63t90.5 19.5zM278 38q49 0 84 25t53.5 83t18.5 155v44h-311v-44q0 -97 18.5 -155t53 -83t83.5 -25z" />
    <glyph glyph-name="iota" unicode="&#x3b9;" horiz-adv-x="285" 
d="M258 50v-50h-102q-31 0 -47 17.5t-16 45.5v449h57v-462h108z" />
    <glyph glyph-name="kappa" unicode="&#x3ba;" horiz-adv-x="513" 
d="M427 0l-202 255l-75 -79v-176h-57v512h57v-270h3l61 67l171 182q11 12 22.5 16.5t26.5 4.5h47v-50h-55l-161 -171l232 -291h-70z" />
    <glyph glyph-name="lambda" unicode="&#x3bb;" horiz-adv-x="493" 
d="M210 513l-59 177h-89v50h81q28 0 42 -10t21 -32l216 -648h61v-50h-53q-27 0 -41 10.5t-21 31.5l-77 230l-54 180h-4l-61 -179l-105 -273h-57z" />
    <glyph glyph-name="uni03BC" unicode="&#x3bc;" horiz-adv-x="577" 
d="M150 -200h-57v712h57v-318q0 -78 34 -116.5t98 -38.5q36 0 67.5 12.5t51 38t19.5 64.5v358h57v-462h70v-50h-63q-32 0 -48 18t-16 46v27l33 -10h-36q-16 -43 -50.5 -68t-88.5 -25q-52 0 -86.5 24.5t-50.5 69.5h-4l13 -139v-143z" />
    <glyph glyph-name="nu" unicode="&#x3bd;" horiz-adv-x="495" 
d="M287 0h-67l-158 462h-54v50h46q25 0 40 -9t24 -34l74 -222l60 -186h4l65 186l98 265h55z" />
    <glyph glyph-name="xi" unicode="&#x3be;" horiz-adv-x="459" 
d="M421 690h-125q-44 0 -75.5 -17.5t-48 -48t-16.5 -70.5v-14q0 -57 33.5 -90t91.5 -33h84v-50h-83q-55 0 -91.5 -17.5t-53.5 -48.5t-17 -73v-15q0 -40 15.5 -68.5t51 -49t96.5 -36.5l74 -19q26 -7 37.5 -21t11.5 -33q0 -6 -1 -12.5t-2 -13.5l-32 -119l-54 14l35 132l-76 19
q-82 21 -129.5 48.5t-68 67.5t-20.5 98q0 66 40.5 114t113.5 58v4q-59 15 -88 52.5t-29 98.5q0 49 25.5 86t74.5 51v6h-137v50h363v-50z" />
    <glyph glyph-name="omicron" unicode="&#x3bf;" horiz-adv-x="552" 
d="M276 -12q-68 0 -118 32t-78 92t-28 144t28 144t78 92t118 32t118.5 -32t78 -92t27.5 -144t-27.5 -144t-78 -92t-118.5 -32zM276 39q75 0 119 47.5t44 137.5v64q0 90 -44 137.5t-119 47.5q-74 0 -118 -47.5t-44 -137.5v-64q0 -90 44 -137.5t118 -47.5z" />
    <glyph glyph-name="pi" unicode="&#x3c0;" horiz-adv-x="610" 
d="M471 462v-412h68v-50h-62q-31 0 -47 17.5t-16 43.5v401h-236v-462h-57v462h-95v50h549v-50h-104z" />
    <glyph glyph-name="rho" unicode="&#x3c1;" horiz-adv-x="545" 
d="M65 -200v479q0 74 24.5 128.5t72.5 85.5t117 31q103 0 157.5 -69t54.5 -197q0 -130 -56 -200t-156 -70q-56 0 -95.5 22.5t-58.5 55.5h-3v-266h-57zM267 39q81 0 122 49t41 136v64q0 87 -40 136t-114 49q-73 0 -113.5 -49.5t-40.5 -140.5v-144q0 -30 20.5 -52.5t53.5 -35
t71 -12.5z" />
    <glyph glyph-name="sigma1" unicode="&#x3c2;" horiz-adv-x="485" 
d="M325 -145l35 132l-104 28q-67 18 -112.5 49t-68.5 80.5t-23 120.5q0 81 26.5 139t74.5 89t115 31q64 0 108.5 -30.5t67.5 -82.5l-48 -24q-18 42 -50 64t-80 22q-47 0 -81.5 -22.5t-52.5 -62t-18 -91.5v-54q0 -72 41 -115t126 -66l84 -22q26 -7 37.5 -21t11.5 -33
q0 -6 -1 -12.5t-3 -13.5l-32 -119z" />
    <glyph glyph-name="sigma" unicode="&#x3c3;" horiz-adv-x="570" 
d="M544 462h-145v-5q53 -27 77 -77t24 -130q0 -81 -27.5 -140t-78 -90.5t-118.5 -31.5t-118 31.5t-78 90.5t-28 140t27.5 139.5t79.5 90.5t127 32h258v-50zM353 462h-67q-81 0 -126.5 -48.5t-45.5 -135.5v-56q0 -88 44 -135.5t118 -47.5q75 0 119 47.5t44 135.5v56
q0 60 -20.5 104.5t-65.5 79.5z" />
    <glyph glyph-name="tau" unicode="&#x3c4;" horiz-adv-x="479" 
d="M374 0h-110q-31 0 -47 17.5t-16 45.5v399h-175v50h419v-50h-187v-412h116v-50z" />
    <glyph glyph-name="upsilon" unicode="&#x3c5;" horiz-adv-x="559" 
d="M143 512v-285q0 -68 14.5 -109.5t45 -60t77.5 -18.5t77.5 18.5t45 60t14.5 109.5v285h57v-273q0 -88 -21.5 -143.5t-64.5 -81.5t-108 -26t-108.5 26t-64.5 81.5t-21 143.5v273h57z" />
    <glyph glyph-name="phi" unicode="&#x3c6;" horiz-adv-x="700" 
d="M310 -200v188q-77 0 -135 31.5t-89.5 90.5t-31.5 143q0 104 35.5 171t101.5 100l31 -41q-55 -27 -81 -79t-26 -130v-43q0 -63 24.5 -106t68 -64.5t102.5 -21.5v234q0 133 42.5 192t122.5 59q54 0 91.5 -26t57 -81.5t19.5 -145.5q0 -95 -32.5 -157.5t-94.5 -94t-149 -31.5
v-188h-57zM367 292v-253q102 0 158 47t56 149v61q0 96 -27.5 136.5t-78.5 40.5q-53 0 -80.5 -41.5t-27.5 -139.5z" />
    <glyph glyph-name="chi" unicode="&#x3c7;" horiz-adv-x="481" 
d="M11 512h56q27 0 40.5 -9t23.5 -33l110 -253h3l150 295h62l-182 -344l137 -318h64v-50h-56q-26 0 -40 9.5t-24 32.5l-116 275h-2l-156 -317h-62l187 365l-131 297h-64v50z" />
    <glyph glyph-name="psi" unicode="&#x3c8;" horiz-adv-x="713" 
d="M328 -200v188q-80 0 -133.5 28.5t-81 86.5t-27.5 144v265h57v-285q0 -66 21 -107.5t62 -61t102 -19.5v671h57v-671q61 0 102 19.5t62 61t21 107.5v285h57v-265q0 -86 -27 -144t-81 -86.5t-134 -28.5v-188h-57z" />
    <glyph glyph-name="omega" unicode="&#x3c9;" horiz-adv-x="722" 
d="M389 349v-129q0 -69 13.5 -109t38 -56t55.5 -16q52 0 79.5 40.5t27.5 136.5v51q0 80 -26.5 135t-80.5 81l31 41q45 -22 75 -59t46 -92t16 -132q0 -89 -19.5 -145t-55.5 -82t-87 -26q-59 0 -94 36t-45 97h-4q-11 -61 -45 -97t-95 -36q-50 0 -86 26t-56 82t-20 145
q0 75 16 130.5t46.5 93t74.5 59.5l32 -41q-55 -27 -81 -80t-26 -136v-51q0 -96 27.5 -136.5t78.5 -40.5q33 0 56.5 16t37 56t13.5 109v129h57z" />
    <glyph glyph-name="iotadieresis" unicode="&#x3ca;" horiz-adv-x="285" 
d="M258 50v-50h-102q-31 0 -47 17.5t-16 45.5v449h57v-462h108zM37 627q-21 0 -30 10.5t-9 26.5v9q0 16 9 26t30 10t30 -10t9 -26v-9q0 -16 -9 -26.5t-30 -10.5zM221 627q-20 0 -29.5 10.5t-9.5 26.5v9q0 16 9.5 26t29.5 10q21 0 30 -10t9 -26v-9q0 -16 -9 -26.5t-30 -10.5z
" />
    <glyph glyph-name="upsilondieresis" unicode="&#x3cb;" horiz-adv-x="559" 
d="M143 512v-285q0 -68 14.5 -109.5t45 -60t77.5 -18.5t77.5 18.5t45 60t14.5 109.5v285h57v-273q0 -88 -21.5 -143.5t-64.5 -81.5t-108 -26t-108.5 26t-64.5 81.5t-21 143.5v273h57zM188 627q-21 0 -30 10.5t-9 26.5v9q0 16 9 26t30 10t30 -10t9 -26v-9q0 -16 -9 -26.5
t-30 -10.5zM372 627q-20 0 -29.5 10.5t-9.5 26.5v9q0 16 9.5 26t29.5 10q21 0 30 -10t9 -26v-9q0 -16 -9 -26.5t-30 -10.5z" />
    <glyph glyph-name="omicrontonos" unicode="&#x3cc;" horiz-adv-x="552" 
d="M276 -12q-68 0 -118 32t-78 92t-28 144t28 144t78 92t118 32t118.5 -32t78 -92t27.5 -144t-27.5 -144t-78 -92t-118.5 -32zM276 39q75 0 119 47.5t44 137.5v64q0 90 -44 137.5t-119 47.5q-74 0 -118 -47.5t-44 -137.5v-64q0 -90 44 -137.5t118 -47.5zM351 759l-60 -173
l-41 6l44 177z" />
    <glyph glyph-name="upsilontonos" unicode="&#x3cd;" horiz-adv-x="559" 
d="M143 512v-285q0 -68 14.5 -109.5t45 -60t77.5 -18.5t77.5 18.5t45 60t14.5 109.5v285h57v-273q0 -88 -21.5 -143.5t-64.5 -81.5t-108 -26t-108.5 26t-64.5 81.5t-21 143.5v273h57zM355 759l-60 -173l-41 6l44 177z" />
    <glyph glyph-name="omegatonos" unicode="&#x3ce;" horiz-adv-x="722" 
d="M389 349v-129q0 -69 13.5 -109t38 -56t55.5 -16q52 0 79.5 40.5t27.5 136.5v51q0 80 -26.5 135t-80.5 81l31 41q45 -22 75 -59t46 -92t16 -132q0 -89 -19.5 -145t-55.5 -82t-87 -26q-59 0 -94 36t-45 97h-4q-11 -61 -45 -97t-95 -36q-50 0 -86 26t-56 82t-20 145
q0 75 16 130.5t46.5 93t74.5 59.5l32 -41q-55 -27 -81 -80t-26 -136v-51q0 -96 27.5 -136.5t78.5 -40.5q33 0 56.5 16t37 56t13.5 109v129h57zM436 759l-60 -173l-41 6l44 177z" />
    <glyph glyph-name="uni0400" unicode="&#x400;" horiz-adv-x="574" 
d="M507 0h-408v698h408v-53h-348v-265h331v-53h-331v-274h348v-53zM304 760l-109 156l52 26l95 -164z" />
    <glyph glyph-name="uni0401" unicode="&#x401;" horiz-adv-x="574" 
d="M507 0h-408v698h408v-53h-348v-265h331v-53h-331v-274h348v-53zM210 800q-21 0 -30.5 10.5t-9.5 26.5v10q0 16 9.5 26.5t30.5 10.5t30 -10.5t9 -26.5v-10q0 -16 -9 -26.5t-30 -10.5zM394 800q-20 0 -29.5 10.5t-9.5 26.5v10q0 16 9.5 26.5t29.5 10.5q21 0 30.5 -10.5
t9.5 -26.5v-10q0 -16 -9.5 -26.5t-30.5 -10.5z" />
    <glyph glyph-name="uni0402" unicode="&#x402;" horiz-adv-x="781" 
d="M512 -164v53h84q29 16 46 54.5t17 111.5v136q0 99 -46.5 143t-134.5 44q-50 0 -92.5 -6.5t-71.5 -18.5v-353h-60v645h-234v53h527v-53h-233v-239h5q29 12 71 18.5t91 6.5q120 0 179 -59t59 -181v-136q0 -78 -18.5 -126.5t-53 -70.5t-83.5 -22h-52z" />
    <glyph glyph-name="uni0403" unicode="&#x403;" horiz-adv-x="502" 
d="M99 0v698h370v-53h-310v-645h-60zM389 916l-110 -156l-37 18l95 164z" />
    <glyph glyph-name="uni0404" unicode="&#x404;" horiz-adv-x="623" 
d="M338 -12q-87 0 -149 40.5t-94 120t-32 198.5q0 118 32 199t94 122.5t149 41.5q58 0 102.5 -18t77.5 -51t54 -80l-49 -29q-23 57 -69.5 90.5t-115.5 33.5q-67 0 -114 -31.5t-72 -91.5t-25 -147v-21l-30 15h345v-53h-346l31 14v-34q0 -128 55.5 -196.5t155.5 -68.5
q73 0 120.5 35.5t70.5 95.5l48 -29q-31 -71 -91.5 -113.5t-147.5 -42.5z" />
    <glyph glyph-name="uni0405" unicode="&#x405;" horiz-adv-x="568" 
d="M284 -12q-85 0 -143.5 32.5t-98.5 86.5l45 37q37 -49 83.5 -76t115.5 -27q81 0 124.5 38.5t43.5 107.5q0 43 -16.5 70t-48.5 42.5t-76 25.5l-62 13q-66 14 -108 39t-62 62.5t-20 85.5q0 61 28 102t79 62t117 21q78 0 132.5 -28t88.5 -79l-45 -33q-29 42 -72 64.5
t-107 22.5q-75 0 -118.5 -32.5t-43.5 -97.5q0 -42 18 -67.5t50 -41t75 -24.5l62 -13q70 -14 111 -41t59 -64.5t18 -85.5q0 -63 -27.5 -108.5t-79 -69.5t-122.5 -24z" />
    <glyph glyph-name="uni0406" unicode="&#x406;" horiz-adv-x="389" 
d="M326 0h-263v50h102v598h-102v50h263v-50h-102v-598h102v-50z" />
    <glyph glyph-name="uni0407" unicode="&#x407;" horiz-adv-x="389" 
d="M326 0h-263v50h102v598h-102v50h263v-50h-102v-598h102v-50zM102 800q-21 0 -30.5 10.5t-9.5 26.5v10q0 16 9.5 26.5t30.5 10.5t30 -10.5t9 -26.5v-10q0 -16 -9 -26.5t-30 -10.5zM286 800q-20 0 -29.5 10.5t-9.5 26.5v10q0 16 9.5 26.5t29.5 10.5q21 0 30.5 -10.5
t9.5 -26.5v-10q0 -16 -9.5 -26.5t-30.5 -10.5z" />
    <glyph glyph-name="uni0408" unicode="&#x408;" horiz-adv-x="492" 
d="M97 698h302v-516q0 -61 -23.5 -104.5t-66 -66.5t-99.5 -23q-73 0 -121.5 40.5t-62.5 105.5l53 13q12 -46 45 -75.5t88 -29.5q62 0 95 37.5t33 111.5v454h-243v53z" />
    <glyph glyph-name="uni0409" unicode="&#x409;" horiz-adv-x="1000" 
d="M9 0v53h69q23 23 41 58t31 88.5t19 129t6 179.5v190h371v-288h219q61 0 102.5 -24.5t63 -70.5t21.5 -110t-21.5 -110t-63 -70.5t-102.5 -24.5h-279v645h-254v-141q0 -105 -7 -184t-19.5 -134.5t-31 -92.5t-41.5 -60q-18 -18 -38 -25.5t-48 -7.5h-38zM546 53h219
q40 0 67.5 16t41.5 45t14 67v48q0 39 -14 67.5t-41.5 44.5t-67.5 16h-219v-304z" />
    <glyph glyph-name="uni040A" unicode="&#x40a;" horiz-adv-x="1035" 
d="M99 0v698h60v-313h362v313h59v-296h221q60 0 102 -24t63.5 -69t21.5 -108q0 -62 -21.5 -107.5t-63.5 -69.5t-102 -24h-280v332h-362v-332h-60zM580 53h221q40 0 67.5 15.5t41 43.5t13.5 65v48q0 38 -13.5 65.5t-41 43t-67.5 15.5h-221v-296z" />
    <glyph glyph-name="uni040B" unicode="&#x40b;" horiz-adv-x="791" 
d="M254 0v645h-234v53h527v-53h-233v-239h5q29 12 71.5 18.5t93.5 6.5q125 0 185 -59t60 -182v-190h-60v190q0 100 -47.5 144t-140.5 44q-52 0 -95 -6.5t-72 -18.5v-353h-60z" />
    <glyph glyph-name="uni040C" unicode="&#x40c;" horiz-adv-x="644" 
d="M99 0v698h60v-319h145l158 268q17 28 33.5 39.5t40.5 11.5h47v-53h-61l-143 -243q-15 -25 -25 -33.5t-25 -13.5v-4q18 -2 32 -12t29 -37l151 -249h60v-53h-57q-19 0 -35.5 10t-33.5 38l-171 280h-145v-328h-60zM422 916l-110 -156l-37 18l95 164z" />
    <glyph glyph-name="uni040D" unicode="&#x40d;" horiz-adv-x="701" 
d="M99 0v698h58v-500l-6 -116h3l58 105l337 511h53v-698h-58v500l7 116h-3l-59 -105l-336 -511h-54zM351 760l-109 156l52 26l95 -164z" />
    <glyph glyph-name="uni040E" unicode="&#x40e;" horiz-adv-x="586" 
d="M149 0v53h98l40 100l-263 545h65l177 -367l46 -104h4l39 105l146 366h62l-255 -636q-10 -25 -22 -38t-28.5 -18.5t-43.5 -5.5h-65zM303 774q-52 0 -82 23.5t-48 59.5l-17 33l50 22l35 -76q13 -10 29 -14.5t33 -4.5t33 4.5t29 14.5l35 76l50 -22l-17 -33
q-18 -36 -48 -59.5t-82 -23.5z" />
    <glyph glyph-name="uni040F" unicode="&#x40f;" horiz-adv-x="687" 
d="M316 -150v150h-217v698h60v-645h369v645h60v-698h-217v-150h-55z" />
    <glyph glyph-name="uni0410" unicode="&#x410;" horiz-adv-x="625" 
d="M599 0h-63l-76 217h-297l-76 -217h-60l247 698h77zM444 269l-91 260l-40 112h-4l-39 -112l-92 -260h266z" />
    <glyph glyph-name="uni0411" unicode="&#x411;" horiz-adv-x="624" 
d="M99 0v698h405v-53h-345v-235h219q60 0 102 -24.5t63 -70.5t21 -110t-21 -110t-63 -70.5t-102 -24.5h-279zM159 53h219q40 0 67 16t41 45t14 67v48q0 39 -14 67.5t-41 44.5t-67 16h-219v-304z" />
    <glyph glyph-name="uni0412" unicode="&#x412;" horiz-adv-x="638" 
d="M99 0v698h273q82 0 128.5 -47t46.5 -129q0 -49 -15.5 -80t-40.5 -48t-51 -24v-4q25 -3 48.5 -14.5t43 -32t31 -51t11.5 -71.5q0 -57 -21.5 -101.5t-61.5 -70t-94 -25.5h-298zM159 337v-284h222q42 0 71 16t43.5 43.5t14.5 64.5v37q0 36 -14.5 64t-43.5 43.5t-71 15.5
h-222zM159 645v-256h207q38 0 64 14t39.5 39t13.5 56v38q0 32 -13.5 56.5t-39.5 38.5t-64 14h-207z" />
    <glyph glyph-name="uni0413" unicode="&#x413;" horiz-adv-x="502" 
d="M99 0v698h370v-53h-310v-645h-60z" />
    <glyph glyph-name="uni0414" unicode="&#x414;" horiz-adv-x="703" 
d="M10 -150v203h72q31 44 52 106.5t32 147.5t11 193v198h393v-645h94v-203h-56v150h-542v-150h-56zM153 53h357v592h-275v-148q0 -110 -10 -194t-28.5 -145t-43.5 -101v-4z" />
    <glyph glyph-name="uni0415" unicode="&#x415;" horiz-adv-x="574" 
d="M507 0h-408v698h408v-53h-348v-265h331v-53h-331v-274h348v-53z" />
    <glyph glyph-name="uni0416" unicode="&#x416;" horiz-adv-x="949" 
d="M43 0v53h61l132 247q13 26 26 36.5t30 14.5v4q-15 5 -28 16t-24 34l-119 240h-61v53h50q25 0 43 -11.5t32 -40.5l132 -267h128v319h60v-319h128l132 267q15 29 32.5 40.5t41.5 11.5h51v-53h-62l-120 -240q-11 -23 -23 -34t-28 -16v-4q18 -4 31.5 -14.5t26.5 -36.5
l130 -247h61v-53h-58q-22 0 -38.5 11.5t-31.5 39.5l-145 277h-128v-328h-60v328h-128l-147 -277q-14 -28 -30 -39.5t-39 -11.5h-58z" />
    <glyph glyph-name="uni0417" unicode="&#x417;" horiz-adv-x="586" 
d="M282 -12q-82 0 -140.5 30.5t-95.5 86.5l44 35q33 -49 79 -73.5t113 -24.5q54 0 93 16t61 47t22 76v18q0 60 -42.5 95t-124.5 35h-110v53h105q51 0 86 16t52.5 46t17.5 73v18q0 55 -40 88t-114 33q-67 0 -108 -23.5t-65 -63.5l-46 29q31 52 83.5 82t135.5 30
q106 0 162.5 -49t56.5 -131q0 -74 -37 -116t-99 -54v-5q43 -5 77.5 -24.5t54 -54t19.5 -86.5q0 -61 -29 -106.5t-82.5 -70.5t-128.5 -25z" />
    <glyph glyph-name="uni0418" unicode="&#x418;" horiz-adv-x="701" 
d="M99 0v698h58v-500l-6 -116h3l58 105l337 511h53v-698h-58v500l7 116h-3l-59 -105l-336 -511h-54z" />
    <glyph glyph-name="uni0419" unicode="&#x419;" horiz-adv-x="701" 
d="M99 0v698h58v-500l-6 -116h3l58 105l337 511h53v-698h-58v500l7 116h-3l-59 -105l-336 -511h-54zM348 774q-52 0 -82 23.5t-48 59.5l-17 33l50 22l35 -76q13 -10 29 -14.5t33 -4.5t33 4.5t29 14.5l35 76l50 -22l-17 -33q-18 -36 -48 -59.5t-82 -23.5z" />
    <glyph glyph-name="uni041A" unicode="&#x41a;" horiz-adv-x="644" 
d="M99 0v698h60v-319h145l158 268q17 28 33.5 39.5t40.5 11.5h47v-53h-61l-143 -243q-15 -25 -25 -33.5t-25 -13.5v-4q18 -2 32 -12t29 -37l151 -249h60v-53h-57q-19 0 -35.5 10t-33.5 38l-171 280h-145v-328h-60z" />
    <glyph glyph-name="uni041B" unicode="&#x41b;" horiz-adv-x="666" 
d="M9 0v53h69q23 23 41 58t31 88.5t19 129t6 179.5v190h393v-698h-60v645h-276v-141q0 -105 -7 -184t-19.5 -134.5t-31 -92.5t-41.5 -60q-18 -18 -38 -25.5t-48 -7.5h-38z" />
    <glyph glyph-name="uni041C" unicode="&#x41c;" horiz-adv-x="806" 
d="M99 0v698h81l142 -252l80 -141h4l80 141l142 252h79v-698h-58v484v137h-5l-76 -137l-165 -290l-166 290l-76 137h-4v-137v-484h-58z" />
    <glyph glyph-name="uni041D" unicode="&#x41d;" horiz-adv-x="701" 
d="M542 0v327h-383v-327h-60v698h60v-318h383v318h60v-698h-60z" />
    <glyph glyph-name="uni041E" unicode="&#x41e;" horiz-adv-x="697" 
d="M349 -12q-89 0 -153 41t-98.5 121.5t-34.5 198.5t34.5 198.5t98.5 121.5t153 41q88 0 152 -41t98.5 -121.5t34.5 -198.5t-34.5 -198.5t-98.5 -121.5t-152 -41zM349 42q67 0 116.5 31t77 90t27.5 142v88q0 83 -27.5 142t-77 90t-116.5 31t-117 -31t-77.5 -90t-27.5 -142
v-88q0 -83 27.5 -142t77.5 -90t117 -31z" />
    <glyph glyph-name="uni041F" unicode="&#x41f;" horiz-adv-x="687" 
d="M99 0v698h489v-698h-60v645h-369v-645h-60z" />
    <glyph glyph-name="uni0420" unicode="&#x420;" horiz-adv-x="601" 
d="M159 0h-60v698h274q61 0 102.5 -24t63 -67.5t21.5 -103.5t-21.5 -104t-63 -68t-102.5 -24h-214v-307zM159 645v-285h214q40 0 67.5 15.5t41 42t13.5 61.5v48q0 34 -13.5 61t-41 42t-67.5 15h-214z" />
    <glyph glyph-name="uni0421" unicode="&#x421;" horiz-adv-x="617" 
d="M335 -12q-86 0 -147 40.5t-93 120t-32 198.5q0 118 32 199t93 122.5t147 41.5q83 0 141.5 -40t89.5 -109l-49 -29q-23 57 -69.5 90.5t-112.5 33.5q-97 0 -152.5 -70.5t-55.5 -199.5v-79q0 -128 55.5 -196.5t152.5 -68.5q70 0 117.5 35.5t69.5 95.5l49 -29
q-31 -71 -91.5 -113.5t-144.5 -42.5z" />
    <glyph glyph-name="uni0422" unicode="&#x422;" horiz-adv-x="567" 
d="M547 645h-233v-645h-60v645h-234v53h527v-53z" />
    <glyph glyph-name="uni0423" unicode="&#x423;" horiz-adv-x="586" 
d="M149 0v53h98l40 100l-263 545h65l177 -367l46 -104h4l39 105l146 366h62l-255 -636q-10 -25 -22 -38t-28.5 -18.5t-43.5 -5.5h-65z" />
    <glyph glyph-name="uni0424" unicode="&#x424;" horiz-adv-x="832" 
d="M386 -29v90h-41q-91 0 -156 37.5t-100 102.5t-35 147t35 147t100.5 102.5t156.5 37.5h40v90h60v-90h40q92 0 157.5 -37.5t100 -102.5t34.5 -147t-34.5 -147t-100 -102.5t-157.5 -37.5h-40v-90h-60zM345 112h42v472h-41q-52 0 -94.5 -16.5t-72 -45.5t-45.5 -66t-16 -77
v-62q0 -40 16 -77t45.5 -66t71.5 -45.5t94 -16.5zM445 112h41q53 0 95 16.5t72 45.5t45.5 66t15.5 77v62q0 40 -15.5 77t-45.5 66t-72 45.5t-95 16.5h-41v-472z" />
    <glyph glyph-name="uni0425" unicode="&#x425;" horiz-adv-x="592" 
d="M26 0l231 355l-224 343h72l190 -295h2l193 295h69l-226 -340l233 -358h-72l-198 309h-2l-200 -309h-68z" />
    <glyph glyph-name="uni0426" unicode="&#x426;" horiz-adv-x="721" 
d="M627 -150v150h-528v698h60v-645h369v645h60v-645h94v-203h-55z" />
    <glyph glyph-name="uni0427" unicode="&#x427;" horiz-adv-x="636" 
d="M477 0v287h-5q-29 -11 -71.5 -18t-93.5 -7q-126 0 -185.5 59t-59.5 182v195h60v-195q0 -99 47 -143.5t140 -44.5q54 0 96.5 7t71.5 18v358h60v-698h-60z" />
    <glyph glyph-name="uni0428" unicode="&#x428;" horiz-adv-x="936" 
d="M99 0v698h60v-644h279v644h60v-644h279v644h60v-698h-738z" />
    <glyph glyph-name="uni0429" unicode="&#x429;" horiz-adv-x="970" 
d="M875 -150v150h-776v698h60v-645h279v645h60v-645h279v645h60v-645h94v-203h-56z" />
    <glyph glyph-name="uni042A" unicode="&#x42a;" horiz-adv-x="735" 
d="M212 0v645h-192v53h252v-288h229q60 0 102 -24.5t63 -70.5t21 -110t-21 -110t-63 -70.5t-102 -24.5h-289zM272 53h229q40 0 67 16t41 45t14 67v48q0 39 -14 67.5t-41 44.5t-67 16h-229v-304z" />
    <glyph glyph-name="uni042B" unicode="&#x42b;" horiz-adv-x="854" 
d="M99 0v698h60v-288h219q60 0 102 -24.5t63 -70.5t21 -110t-21 -110t-63 -70.5t-102 -24.5h-279zM159 53h219q40 0 67 16t41 45t14 67v48q0 39 -14 67.5t-41 44.5t-67 16h-219v-304zM696 0v698h60v-698h-60z" />
    <glyph glyph-name="uni042C" unicode="&#x42c;" horiz-adv-x="622" 
d="M99 0v698h60v-288h229q60 0 102 -24.5t63 -70.5t21 -110t-21 -110t-63 -70.5t-102 -24.5h-289zM159 53h229q40 0 67 16t41 45t14 67v48q0 39 -14 67.5t-41 44.5t-67 16h-229v-304z" />
    <glyph glyph-name="uni042D" unicode="&#x42d;" horiz-adv-x="623" 
d="M181 327v53h347l-32 -19v30q0 128 -55 196.5t-156 68.5q-68 0 -115 -33.5t-70 -90.5l-49 29q21 47 53.5 80t78 51t102.5 18q88 0 149 -40.5t93.5 -120t32.5 -198.5q0 -118 -32.5 -199t-93.5 -122.5t-149 -41.5t-148 42.5t-91 113.5l48 29q23 -60 70.5 -95.5t120.5 -35.5
q101 0 156 70.5t55 199.5v31l32 -16h-347z" />
    <glyph glyph-name="uni042E" unicode="&#x42e;" horiz-adv-x="939" 
d="M598 -12q-87 0 -148 38.5t-94 114t-37 186.5h-160v-327h-60v698h60v-318h162q3 108 37 181.5t94.5 111t145.5 37.5q88 0 150 -40t95 -120.5t33 -200.5t-33 -200t-95 -120.5t-150 -40.5zM598 42q99 0 156.5 68t57.5 195v88q0 127 -57.5 195t-156.5 68t-156.5 -68
t-57.5 -195v-88q0 -127 57.5 -195t156.5 -68z" />
    <glyph glyph-name="uni042F" unicode="&#x42f;" horiz-adv-x="636" 
d="M39 0v53h59l108 207q13 25 24 36.5t28 15.5v16l29 -11h-28q-92 0 -137.5 51t-45.5 136q0 61 22.5 104.5t64 66.5t100.5 23h274v-698h-60v309h-180l-134 -260q-15 -28 -30 -38.5t-37 -10.5h-57zM263 360h214v285h-214q-40 0 -67.5 -15t-41 -42t-13.5 -61v-48
q0 -35 13.5 -61.5t41 -42t67.5 -15.5z" />
    <glyph glyph-name="uni0430" unicode="&#x430;" horiz-adv-x="528" 
d="M503 0h-58q-23 0 -38 9.5t-21.5 26.5t-6.5 40v27l23 -22h-27q-17 -42 -56 -67.5t-99 -25.5q-81 0 -125 40t-44 111q0 46 21.5 79t67 51t119.5 18h118v60q0 64 -33 96t-98 32q-50 0 -84.5 -22t-55.5 -62l-36 30q21 44 64.5 73.5t113.5 29.5q89 0 137.5 -45t48.5 -126v-303
h69v-50zM377 244h-120q-76 0 -111 -24.5t-35 -67.5v-24q0 -44 32.5 -67.5t84.5 -23.5q42 0 75.5 13.5t53.5 39t20 59.5v95z" />
    <glyph glyph-name="uni0431" unicode="&#x431;" horiz-adv-x="556" 
d="M280 -12q-70 0 -121 32t-77 100q-13 34 -19.5 77t-6.5 96q0 118 13.5 200.5t43.5 133.5t79.5 76.5t121.5 31.5l151 12v-57l-157 -13q-54 -5 -88.5 -21.5t-55.5 -49t-31.5 -83.5t-15.5 -125h3q24 61 66 87.5t101 26.5q67 0 115.5 -31t75 -89.5t26.5 -142.5
q0 -79 -27.5 -137.5t-77.5 -91t-119 -32.5zM283 39q71 0 115.5 47t44.5 133v56q0 91 -44.5 138.5t-120.5 47.5q-78 0 -119 -44t-41 -118v-74q0 -90 44.5 -138t120.5 -48z" />
    <glyph glyph-name="uni0432" unicode="&#x432;" horiz-adv-x="555" 
d="M93 0v512h247q59 0 92.5 -34t33.5 -94q0 -49 -24 -77t-69 -36v-4q57 -6 85 -38t28 -82q0 -41 -15.5 -74.5t-45.5 -53t-73 -19.5h-259zM150 48h187q43 0 65.5 23.5t22.5 60.5v26q0 36 -24 59.5t-70 23.5h-181v-193zM150 288h173q40 0 61 21.5t21 55.5v25q0 34 -20 54
t-58 20h-177v-176z" />
    <glyph glyph-name="uni0433" unicode="&#x433;" horiz-adv-x="438" 
d="M93 0v512h314v-50h-257v-462h-57z" />
    <glyph glyph-name="uni0434" unicode="&#x434;" horiz-adv-x="578" 
d="M7 -140v190h56q23 36 40 83.5t26 105t9 123.5v150h325v-462h82v-190h-53v140h-432v-140h-53zM124 50h282v412h-213v-102q0 -105 -20 -183.5t-49 -126.5z" />
    <glyph glyph-name="uni0435" unicode="&#x435;" horiz-adv-x="543" 
d="M276 -12q-68 0 -118.5 32t-78 92t-27.5 144t27.5 144t77.5 92t118 32q66 0 114 -31.5t75 -88.5t27 -132v-27h-379v-25q0 -81 44 -131.5t123 -50.5q55 0 94.5 26.5t60.5 76.5l42 -28q-24 -56 -75.5 -90.5t-124.5 -34.5zM275 476q-50 0 -86.5 -23t-56.5 -64t-20 -95v-5h317
v8q0 54 -19 94t-54 62.5t-81 22.5z" />
    <glyph glyph-name="uni0436" unicode="&#x436;" horiz-adv-x="757" 
d="M41 0v50h59l77 165q11 25 24 35.5t28 13.5v4q-15 4 -27 15.5t-23 34.5l-72 144h-59v50h48q22 0 38.5 -11t28.5 -36l87 -175h100v222h57v-222h100l87 175q12 25 28.5 36t39.5 11h47v-50h-58l-73 -144q-10 -23 -22 -34.5t-28 -15.5v-4q16 -3 29 -13.5t23 -35.5l78 -165h58
v-50h-55q-20 0 -36 10.5t-28 38.5l-90 192h-100v-241h-57v241h-100l-90 -192q-12 -28 -27.5 -38.5t-35.5 -10.5h-56z" />
    <glyph glyph-name="uni0437" unicode="&#x437;" horiz-adv-x="498" 
d="M231 -12q-75 0 -120 27t-73 74l43 33q22 -39 59 -61t91 -22q66 0 102 26t36 68v16q0 44 -31 67.5t-86 23.5h-106v48h100q51 0 81.5 24t30.5 63v14q0 38 -31 61t-93 23q-55 0 -90 -21.5t-57 -59.5l-39 31q24 45 69 73t119 28q91 0 136.5 -36t45.5 -99q0 -50 -26.5 -79.5
t-74.5 -39.5v-4q55 -7 84 -38.5t29 -84.5q0 -71 -53.5 -113t-145.5 -42z" />
    <glyph glyph-name="uni0438" unicode="&#x438;" horiz-adv-x="583" 
d="M93 0v512h56v-332l-6 -103h4l53 91l238 344h53v-512h-56v332l6 103h-4l-54 -91l-238 -344h-52z" />
    <glyph glyph-name="uni0439" unicode="&#x439;" horiz-adv-x="583" 
d="M93 0v512h56v-332l-6 -103h4l53 91l238 344h53v-512h-56v332l6 103h-4l-54 -91l-238 -344h-52zM291 600q-52 0 -82 24t-48 59l-17 33l50 22l35 -76q13 -10 29 -14.5t33 -4.5t33 4.5t29 14.5l35 76l50 -22l-17 -33q-18 -35 -48 -59t-82 -24z" />
    <glyph glyph-name="uni043A" unicode="&#x43a;" horiz-adv-x="538" 
d="M93 0v512h57v-222h110l117 180q17 26 30.5 34t34.5 8h48v-50h-60l-98 -151q-14 -22 -23 -30.5t-26 -12.5v-4q17 -3 30 -12.5t28 -35.5l98 -166h59v-50h-57q-19 0 -34.5 9.5t-29.5 34.5l-117 197h-110v-241h-57z" />
    <glyph glyph-name="uni043B" unicode="&#x43b;" horiz-adv-x="555" 
d="M6 0v50h64q19 23 34.5 62t24 100t8.5 152v148h325v-512h-57v462h-213v-100q0 -98 -11 -165.5t-28.5 -108.5t-37.5 -62q-15 -15 -32 -20.5t-41 -5.5h-36z" />
    <glyph glyph-name="uni043C" unicode="&#x43c;" horiz-adv-x="691" 
d="M93 0v512h77l131 -219l43 -73h4l43 73l130 219h77v-512h-56v383v60h-5l-32 -57l-160 -266l-159 266l-32 57h-5v-58v-385h-56z" />
    <glyph glyph-name="uni043D" unicode="&#x43d;" horiz-adv-x="583" 
d="M93 0v512h57v-221h284v221h57v-512h-57v241h-284v-241h-57z" />
    <glyph glyph-name="uni043E" unicode="&#x43e;" horiz-adv-x="552" 
d="M276 -12q-68 0 -118 32t-78 92t-28 144t28 144t78 92t118 32t118.5 -32t78 -92t27.5 -144t-27.5 -144t-78 -92t-118.5 -32zM276 39q75 0 119 47.5t44 137.5v64q0 90 -44 137.5t-119 47.5q-74 0 -118 -47.5t-44 -137.5v-64q0 -90 44 -137.5t118 -47.5z" />
    <glyph glyph-name="uni043F" unicode="&#x43f;" horiz-adv-x="570" 
d="M93 0v512h384v-512h-57v462h-270v-462h-57z" />
    <glyph glyph-name="uni0440" unicode="&#x440;" horiz-adv-x="574" 
d="M93 -200v712h57v-82h3q19 43 58.5 68.5t97.5 25.5q66 0 113 -31.5t72.5 -91.5t25.5 -145q0 -84 -25.5 -144.5t-72.5 -92t-113 -31.5q-58 0 -96.5 26t-59.5 68h-3v-282h-57zM296 39q77 0 120 49.5t43 131.5v72q0 83 -43 132t-120 49q-39 0 -72.5 -14.5t-53.5 -40
t-20 -59.5v-203q0 -35 20 -61.5t53.5 -41t72.5 -14.5z" />
    <glyph glyph-name="uni0441" unicode="&#x441;" horiz-adv-x="497" 
d="M274 -12q-105 0 -163.5 70.5t-58.5 197.5t58.5 197.5t163.5 70.5q71 0 115.5 -31.5t66.5 -81.5l-48 -24q-17 42 -50.5 64t-83.5 22q-78 0 -119 -49.5t-41 -131.5v-72q0 -81 41 -131t119 -50q53 0 89 23t58 66l42 -28q-25 -50 -71.5 -81t-117.5 -31z" />
    <glyph glyph-name="uni0442" unicode="&#x442;" horiz-adv-x="475" 
d="M209 0v462h-183v50h423v-50h-183v-462h-57z" />
    <glyph glyph-name="uni0443" unicode="&#x443;" horiz-adv-x="481" 
d="M283 176l121 336h57l-241 -656q-7 -21 -17 -33.5t-26 -17.5t-42 -5h-58v50h86l49 135l-192 527h58l120 -336l39 -117h4z" />
    <glyph glyph-name="uni0444" unicode="&#x444;" horiz-adv-x="741" 
d="M342 -200v259h-3q-17 -30 -45.5 -50.5t-69.5 -20.5q-57 0 -94 29.5t-55.5 89t-18.5 149.5t18.5 149.5t55.5 89t94 29.5q41 0 69.5 -20.5t45.5 -50.5h3v257h57v-257h3q18 30 46 50.5t69 20.5q57 0 94.5 -29.5t55.5 -89t18 -149.5t-18 -149.5t-55.5 -89t-94.5 -29.5
q-41 0 -69 20.5t-46 50.5h-3v-259h-57zM237 39q34 0 57.5 12t36 32t12.5 42v262q0 23 -12.5 42.5t-36 31.5t-57.5 12q-63 0 -91 -44.5t-28 -136.5v-72q0 -92 28 -136.5t91 -44.5zM504 39q64 0 92 44.5t28 136.5v72q0 92 -28 136.5t-92 44.5q-33 0 -57 -12t-36.5 -31.5
t-12.5 -42.5v-262q0 -22 12.5 -42t36.5 -32t57 -12z" />
    <glyph glyph-name="uni0445" unicode="&#x445;" horiz-adv-x="493" 
d="M26 0l190 258l-183 254h67l146 -209h3l149 209h64l-182 -250l187 -262h-67l-151 216h-2l-157 -216h-64z" />
    <glyph glyph-name="uni0446" unicode="&#x446;" horiz-adv-x="593" 
d="M506 -140v140h-413v512h57v-462h270v462h57v-462h82v-190h-53z" />
    <glyph glyph-name="uni0447" unicode="&#x447;" horiz-adv-x="531" 
d="M382 0v253h-5q-20 -29 -56.5 -49.5t-97.5 -20.5q-80 0 -124.5 39.5t-44.5 120.5v169h57v-164q0 -59 32.5 -86.5t94.5 -27.5q64 0 104 23.5t40 66.5v188h57v-512h-57z" />
    <glyph glyph-name="uni0448" unicode="&#x448;" horiz-adv-x="791" 
d="M93 0v512h57v-462h217v462h57v-462h217v462h57v-512h-605z" />
    <glyph glyph-name="uni0449" unicode="&#x449;" horiz-adv-x="813" 
d="M727 -140v140h-634v512h57v-462h217v462h57v-462h217v462h57v-462h82v-190h-53z" />
    <glyph glyph-name="uni044A" unicode="&#x44a;" horiz-adv-x="589" 
d="M166 0v462h-140v50h197v-197h156q51 0 88 -19t56.5 -54.5t19.5 -83.5q0 -49 -19 -84.5t-55.5 -54.5t-89.5 -19h-213zM223 50h149q54 0 82 24t28 66v36q0 42 -28 65.5t-82 23.5h-149v-215z" />
    <glyph glyph-name="uni044B" unicode="&#x44b;" horiz-adv-x="704" 
d="M93 0v512h57v-197h142q52 0 89 -19t56.5 -54.5t19.5 -84.5t-19.5 -84t-56 -54t-88.5 -19h-200zM150 50h136q54 0 81.5 24t27.5 66v36q0 42 -27.5 65.5t-81.5 23.5h-136v-215zM554 0v512h57v-512h-57z" />
    <glyph glyph-name="uni044C" unicode="&#x44c;" horiz-adv-x="516" 
d="M93 0v512h57v-197h155q52 0 89 -19t56.5 -54.5t19.5 -84.5t-19.5 -84t-56 -54t-88.5 -19h-213zM150 50h149q54 0 81.5 24t27.5 66v36q0 42 -27.5 65.5t-81.5 23.5h-149v-215z" />
    <glyph glyph-name="uni044D" unicode="&#x44d;" horiz-adv-x="506" 
d="M152 234v49h240v9q0 82 -41.5 131.5t-121.5 49.5q-53 0 -88 -23t-57 -67l-43 28q24 51 70.5 82t117.5 31q107 0 165.5 -70.5t58.5 -197.5t-58.5 -197.5t-165.5 -70.5q-75 0 -119.5 31t-68.5 80l47 25q18 -40 52 -62.5t89 -22.5q80 0 121.5 49.5t41.5 131.5v14h-240z" />
    <glyph glyph-name="uni044E" unicode="&#x44e;" horiz-adv-x="763" 
d="M493 -12q-96 0 -154.5 66t-62.5 187h-126v-241h-57v512h57v-222h127q8 113 65.5 173.5t150.5 60.5q67 0 115.5 -31t75.5 -91t27 -146q0 -85 -27 -145.5t-75.5 -91.5t-115.5 -31zM493 39q73 0 114.5 47t41.5 138v64q0 92 -41.5 138.5t-114.5 46.5t-114.5 -46.5
t-41.5 -138.5v-64q0 -91 41.5 -138t114.5 -47z" />
    <glyph glyph-name="uni044F" unicode="&#x44f;" horiz-adv-x="528" 
d="M39 0v50h57l54 112q9 19 21.5 30t26.5 14v3q-68 6 -104 45t-36 103q0 48 20 82.5t56.5 53.5t87.5 19h214v-512h-57v204h-148l-74 -154q-12 -29 -28 -39.5t-36 -10.5h-54zM230 253h149v209h-149q-54 0 -82 -24t-28 -66v-30q0 -42 28 -65.5t82 -23.5z" />
    <glyph glyph-name="uni0450" unicode="&#x450;" horiz-adv-x="543" 
d="M276 -12q-68 0 -118.5 32t-78 92t-27.5 144t27.5 144t77.5 92t118 32q66 0 114 -31.5t75 -88.5t27 -132v-27h-379v-25q0 -81 44 -131.5t123 -50.5q55 0 94.5 26.5t60.5 76.5l42 -28q-24 -56 -75.5 -90.5t-124.5 -34.5zM275 476q-50 0 -86.5 -23t-56.5 -64t-20 -95v-5h317
v8q0 54 -19 94t-54 62.5t-81 22.5zM277 586l-109 156l52 26l95 -164z" />
    <glyph glyph-name="uni0451" unicode="&#x451;" horiz-adv-x="543" 
d="M276 -12q-68 0 -118.5 32t-78 92t-27.5 144t27.5 144t77.5 92t118 32q66 0 114 -31.5t75 -88.5t27 -132v-27h-379v-25q0 -81 44 -131.5t123 -50.5q55 0 94.5 26.5t60.5 76.5l42 -28q-24 -56 -75.5 -90.5t-124.5 -34.5zM275 476q-50 0 -86.5 -23t-56.5 -64t-20 -95v-5h317
v8q0 54 -19 94t-54 62.5t-81 22.5zM183 627q-21 0 -30 10.5t-9 26.5v9q0 16 9 26t30 10t30 -10t9 -26v-9q0 -16 -9 -26.5t-30 -10.5zM367 627q-20 0 -29.5 10.5t-9.5 26.5v9q0 16 9.5 26t29.5 10q21 0 30 -10t9 -26v-9q0 -16 -9 -26.5t-30 -10.5z" />
    <glyph glyph-name="uni0452" unicode="&#x452;" horiz-adv-x="564" 
d="M337 -200v50h85v469q0 78 -34 116t-98 38q-36 0 -68 -12.5t-51.5 -37.5t-19.5 -63v-360h-57v616h-65v45h65v79h57v-79h155v-45h-155v-185h4q17 40 52.5 66.5t97.5 26.5q82 0 128 -50.5t46 -144.5v-446q0 -38 -19.5 -60.5t-59.5 -22.5h-63z" />
    <glyph glyph-name="uni0453" unicode="&#x453;" horiz-adv-x="438" 
d="M93 0v512h314v-50h-257v-462h-57zM358 742l-110 -156l-37 18l95 164z" />
    <glyph glyph-name="uni0454" unicode="&#x454;" horiz-adv-x="506" 
d="M277 -12q-108 0 -166.5 70.5t-58.5 197.5t58.5 197.5t166.5 70.5q72 0 117 -31.5t67 -81.5l-48 -24q-18 42 -51.5 64t-84.5 22q-82 0 -122.5 -49.5t-40.5 -131.5v-9h240v-49h-240v-14q0 -81 40.5 -131t122.5 -50q54 0 90.5 23t58.5 66l42 -28q-25 -50 -72 -81t-119 -31z
" />
    <glyph glyph-name="uni0455" unicode="&#x455;" horiz-adv-x="477" 
d="M238 -12q-67 0 -114.5 25.5t-82.5 72.5l42 33q32 -41 70 -61.5t89 -20.5q59 0 91 25.5t32 71.5q0 40 -24.5 64t-80.5 32l-42 7q-46 7 -82 23t-55.5 45.5t-19.5 75.5q0 72 50 107.5t124 35.5q43 0 75 -10t56.5 -28t43.5 -41l-38 -35q-20 25 -53 45t-87 20q-55 0 -85.5 -24
t-30.5 -67q0 -45 27.5 -65.5t82.5 -29.5l41 -6q78 -12 115.5 -46.5t37.5 -96.5q0 -48 -22 -82t-62.5 -52t-97.5 -18z" />
    <glyph glyph-name="uni0456" unicode="&#x456;" horiz-adv-x="243" 
d="M121 651q-20 0 -29.5 10t-9.5 26v10q0 16 9.5 26t29.5 10q21 0 30 -10t9 -26v-10q0 -16 -9 -26t-30 -10zM93 0v512h57v-512h-57z" />
    <glyph glyph-name="uni0457" unicode="&#x457;" horiz-adv-x="243" 
d="M150 0h-57v512h57v-512zM29 627q-21 0 -30 10.5t-9 26.5v9q0 16 9 26t30 10t30 -10t9 -26v-9q0 -16 -9 -26.5t-30 -10.5zM213 627q-20 0 -29.5 10.5t-9.5 26.5v9q0 16 9.5 26t29.5 10q21 0 30 -10t9 -26v-9q0 -16 -9 -26.5t-30 -10.5z" />
    <glyph glyph-name="uni0458" unicode="&#x458;" horiz-adv-x="243" 
d="M93 -150v662h57v-627q0 -39 -19.5 -62t-60.5 -23h-62v50h85zM121 651q-20 0 -29.5 10t-9.5 26v10q0 16 9.5 26t29.5 10q21 0 30 -10t9 -26v-10q0 -16 -9 -26t-30 -10z" />
    <glyph glyph-name="uni0459" unicode="&#x459;" horiz-adv-x="790" 
d="M6 0v50h64q19 23 34.5 62t24 100t8.5 152v148h300v-197h142q52 0 88.5 -19t56.5 -54.5t20 -84.5t-19.5 -84t-56 -54t-88.5 -19h-200v462h-188v-100q0 -98 -11 -165.5t-28.5 -108.5t-37.5 -62q-15 -15 -32 -20.5t-41 -5.5h-36zM437 50h136q54 0 82 24t28 66v36
q0 42 -28 65.5t-82 23.5h-136v-215z" />
    <glyph glyph-name="uni045A" unicode="&#x45a;" horiz-adv-x="822" 
d="M93 0v512h57v-218h262v218h57v-201h143q51 0 87.5 -18.5t56.5 -53.5t20 -84q0 -48 -19.5 -83t-56 -53.5t-88.5 -18.5h-200v244h-262v-244h-57zM469 50h136q54 0 82 23t28 65v36q0 42 -28 64.5t-82 22.5h-136v-211z" />
    <glyph glyph-name="uni045B" unicode="&#x45b;" horiz-adv-x="564" 
d="M151 0h-57v616h-65v45h65v79h57v-79h155v-45h-155v-185h4q17 40 52.5 66.5t97.5 26.5q82 0 128 -50.5t46 -144.5v-329h-57v319q0 78 -34 116t-98 38q-36 0 -68 -12.5t-51.5 -37.5t-19.5 -63v-360z" />
    <glyph glyph-name="uni045C" unicode="&#x45c;" horiz-adv-x="538" 
d="M93 0v512h57v-222h110l117 180q17 26 30.5 34t34.5 8h48v-50h-60l-98 -151q-14 -22 -23 -30.5t-26 -12.5v-4q17 -3 30 -12.5t28 -35.5l98 -166h59v-50h-57q-19 0 -34.5 9.5t-29.5 34.5l-117 197h-110v-241h-57zM382 742l-110 -156l-37 18l95 164z" />
    <glyph glyph-name="uni045D" unicode="&#x45d;" horiz-adv-x="583" 
d="M93 0v512h56v-332l-6 -103h4l53 91l238 344h53v-512h-56v332l6 103h-4l-54 -91l-238 -344h-52zM293 586l-109 156l52 26l95 -164z" />
    <glyph glyph-name="uni045E" unicode="&#x45e;" horiz-adv-x="481" 
d="M283 176l121 336h57l-241 -656q-7 -21 -17 -33.5t-26 -17.5t-42 -5h-58v50h86l49 135l-192 527h58l120 -336l39 -117h4zM241 600q-52 0 -82 24t-48 59l-17 33l50 22l35 -76q13 -10 29 -14.5t33 -4.5t33 4.5t29 14.5l35 76l50 -22l-17 -33q-18 -35 -48 -59t-82 -24z" />
    <glyph glyph-name="uni045F" unicode="&#x45f;" horiz-adv-x="571" 
d="M259 -140v140h-166v512h57v-462h271v462h57v-512h-166v-140h-53z" />
    <glyph glyph-name="uni0462" unicode="&#x462;" horiz-adv-x="661" 
d="M138 0v547h-110v53h110v98h60v-98h210v-53h-210v-137h229q60 0 102 -24.5t63.5 -70.5t21.5 -110t-21.5 -110t-63.5 -70.5t-102 -24.5h-289zM198 53h229q40 0 67.5 16t41 45t13.5 67v48q0 39 -13.5 67.5t-41 44.5t-67.5 16h-229v-304z" />
    <glyph glyph-name="uni0463" unicode="&#x463;" horiz-adv-x="541" 
d="M118 0v462h-89v50h89v198h57v-198h165v-50h-165v-147h156q51 0 88 -19t56.5 -54.5t19.5 -84.5t-19 -84t-55.5 -54t-89.5 -19h-213zM175 50h149q54 0 82 24t28 66v36q0 42 -28 65.5t-82 23.5h-149v-215z" />
    <glyph glyph-name="uni046A" unicode="&#x46a;" horiz-adv-x="881" 
d="M28 0l171 303q15 26 28 37.5t31 15.5v4l-189 285v53h743v-53l-188 -285l-2 -4q18 -4 32 -16t28 -37l171 -303h-67l-188 330h-128v-330h-60v330h-128l-188 -330h-66zM312 381h260l170 259v5h-602v-5z" />
    <glyph glyph-name="uni046B" unicode="&#x46b;" horiz-adv-x="707" 
d="M31 0l117 210q13 22 26 34t29 15v4l-140 200l-1 49h581v-49l-138 -200v-4q15 -3 28.5 -15t25.5 -34l117 -210h-64l-132 236h-98v-236h-57v236h-99l-132 -236h-63zM251 285h206l118 173v5h-443v-5z" />
    <glyph glyph-name="uni0472" unicode="&#x472;" horiz-adv-x="697" 
d="M349 -12q-89 0 -153 41t-98.5 121.5t-34.5 198.5t34.5 198.5t98.5 121.5t153 41q88 0 152 -41t98.5 -121.5t34.5 -198.5t-34.5 -198.5t-98.5 -121.5t-152 -41zM349 42q67 0 116.5 31t77 90t27.5 142v37l17 4q-15 -21 -46.5 -36.5t-67.5 -15.5q-35 0 -64 9t-69 27
q-34 16 -61 24t-58 8q-34 0 -61 -14.5t-53 -43.5l20 34v-33q0 -83 27.5 -142t77.5 -90t117 -31zM349 656q-67 0 -117 -31t-77.5 -90t-27.5 -142v-33h-17q16 20 46 35.5t68 15.5q35 0 64.5 -8.5t68.5 -26.5q34 -16 61.5 -24.5t57.5 -8.5q34 0 61.5 14.5t54.5 45.5l-22 -39v29
q0 83 -27.5 142t-77 90t-116.5 31z" />
    <glyph glyph-name="uni0473" unicode="&#x473;" horiz-adv-x="552" 
d="M276 -12q-68 0 -118 32t-78 92t-28 144t28 144t78 92t118 32t118.5 -32t78 -92t27.5 -144t-27.5 -144t-78 -92t-118.5 -32zM276 39q75 0 119 47.5t44 137.5v13q-12 -11 -31 -19t-42 -8q-24 0 -45.5 7.5t-51.5 22.5q-27 15 -45.5 21t-39.5 6t-37 -6.5t-33 -23.5v-13
q0 -90 44 -137.5t118 -47.5zM114 288v-4q12 12 31 20t41 8q25 0 46 -7.5t51 -23.5q28 -13 46.5 -20t38.5 -7q21 0 37.5 7t33.5 23v4q0 90 -44 137.5t-119 47.5q-74 0 -118 -47.5t-44 -137.5z" />
    <glyph glyph-name="uni0474" unicode="&#x474;" horiz-adv-x="659" 
d="M333 0h-74l-235 698h64l121 -363l86 -274h4l80 274l99 317q7 23 23 34.5t43 11.5h91v-52h-95z" />
    <glyph glyph-name="uni0475" unicode="&#x475;" horiz-adv-x="515" 
d="M271 0h-67l-183 512h57l94 -261l65 -190h4l56 191l67 216q8 24 22.5 34t41.5 10h66v-50h-75z" />
    <glyph glyph-name="uni0490" unicode="&#x490;" horiz-adv-x="502" 
d="M99 0v698h314v150h56v-203h-310v-645h-60z" />
    <glyph glyph-name="uni0491" unicode="&#x491;" horiz-adv-x="438" 
d="M93 0v512h262v140h52v-190h-257v-462h-57z" />
    <glyph glyph-name="uni0492" unicode="&#x492;" horiz-adv-x="522" 
d="M119 0v349h-100v46h100v303h370v-53h-310v-250h206v-46h-206v-349h-60z" />
    <glyph glyph-name="uni0493" unicode="&#x493;" horiz-adv-x="452" 
d="M107 0v241h-78v44h78v227h315v-50h-258v-177h173v-44h-173v-241h-57z" />
    <glyph glyph-name="uni0494" unicode="&#x494;" horiz-adv-x="626" 
d="M346 -164v53h84q34 17 54 60t20 119v87q0 99 -47.5 143t-140.5 44q-46 0 -88.5 -6.5t-68.5 -17.5v-318h-60v698h362v-53h-302v-273h5q27 11 68.5 17t86.5 6q125 0 185 -59t60 -181v-87q0 -79 -21.5 -130.5t-58.5 -76.5t-86 -25h-52z" />
    <glyph glyph-name="uni0495" unicode="&#x495;" horiz-adv-x="533" 
d="M299 -200v50h86q16 18 25.5 51t9.5 92v115q0 74 -30.5 102.5t-96.5 28.5q-63 0 -103 -23.5t-40 -66.5v-149h-57v512h314v-50h-257v-242h4q21 29 57 49.5t98 20.5q82 0 125 -40.5t43 -135.5v-130q0 -96 -33 -140t-85 -44h-60z" />
    <glyph glyph-name="uni0496" unicode="&#x496;" horiz-adv-x="958" 
d="M877 -150v168l18 -18h-47q-22 0 -38.5 11.5t-31.5 39.5l-145 277h-128v-328h-60v328h-128l-147 -277q-14 -28 -30 -39.5t-39 -11.5h-58v53h61l132 247q13 26 26 36.5t30 14.5v4q-15 5 -28 16t-24 34l-119 240h-61v53h50q25 0 43 -11.5t32 -40.5l132 -267h128v319h60v-319
h128l132 267q15 29 32.5 40.5t41.5 11.5h51v-53h-62l-120 -240q-11 -23 -23 -34t-28 -16v-4q18 -4 31.5 -14.5t26.5 -36.5l130 -247h87v-203h-55z" />
    <glyph glyph-name="uni0497" unicode="&#x497;" horiz-adv-x="763" 
d="M683 -140v171l34 -31h-56q-20 0 -36 10.5t-28 38.5l-90 192h-100v-241h-57v241h-100l-90 -192q-12 -28 -27.5 -38.5t-35.5 -10.5h-56v50h59l77 165q11 25 24 35.5t28 13.5v4q-15 4 -27 15.5t-23 34.5l-72 144h-59v50h48q22 0 38.5 -11t28.5 -36l87 -175h100v222h57v-222
h100l87 175q12 25 28.5 36t39.5 11h47v-50h-58l-73 -144q-10 -23 -22 -34.5t-28 -15.5v-4q16 -3 29 -13.5t23 -35.5l78 -165h78v-190h-53z" />
    <glyph glyph-name="uni0498" unicode="&#x498;" horiz-adv-x="586" 
d="M256 -150v139q-70 5 -122.5 35t-87.5 81l44 35q33 -49 79 -73.5t113 -24.5q54 0 93 16t61 47t22 76v18q0 60 -42.5 95t-124.5 35h-110v53h105q51 0 86 16t52.5 46t17.5 73v18q0 55 -40 88t-114 33q-67 0 -108 -23.5t-65 -63.5l-46 29q31 52 83.5 82t135.5 30
q106 0 162.5 -49t56.5 -131q0 -74 -37 -116t-99 -54v-5q43 -5 77.5 -24.5t54 -54t19.5 -86.5q0 -86 -56 -139.5t-154 -61.5v-139h-56z" />
    <glyph glyph-name="uni0499" unicode="&#x499;" horiz-adv-x="498" 
d="M206 -140v129q-64 5 -103.5 31.5t-64.5 68.5l43 33q22 -39 59 -61t91 -22q66 0 102 26t36 68v16q0 44 -31 67.5t-86 23.5h-106v48h100q51 0 81.5 24t30.5 63v14q0 38 -31 61t-93 23q-55 0 -90 -21.5t-57 -59.5l-39 31q24 45 69 73t119 28q91 0 136.5 -36t45.5 -99
q0 -50 -26.5 -79.5t-74.5 -39.5v-4q55 -7 84 -38.5t29 -84.5q0 -65 -46 -106.5t-126 -47.5v-129h-52z" />
    <glyph glyph-name="uni049A" unicode="&#x49a;" horiz-adv-x="653" 
d="M573 -150v181l27 -31h-56q-19 0 -35.5 10t-33.5 38l-171 280h-145v-328h-60v698h60v-319h145l158 268q17 28 33.5 39.5t40.5 11.5h47v-53h-61l-143 -243q-15 -25 -25 -33.5t-25 -13.5v-4q18 -2 31 -12.5t30 -36.5l151 -249h88v-203h-56z" />
    <glyph glyph-name="uni049B" unicode="&#x49b;" horiz-adv-x="545" 
d="M465 -140v172l32 -32h-56q-19 0 -34.5 9.5t-29.5 34.5l-117 197h-110v-241h-57v512h57v-222h110l117 180q17 26 30.5 34t34.5 8h48v-50h-60l-98 -151q-14 -22 -23 -30.5t-26 -12.5v-4q17 -3 30 -12.5t28 -35.5l98 -166h79v-190h-53z" />
    <glyph glyph-name="uni049C" unicode="&#x49c;" horiz-adv-x="666" 
d="M99 0v698h60v-319h67v162h47v-162h60l151 267q17 30 34 41t40 11h47v-53h-61l-138 -244q-13 -24 -23.5 -32.5t-24.5 -13.5v-4q17 -2 30 -12.5t28 -36.5l147 -249h61v-53h-58q-21 0 -37.5 11t-32.5 39l-163 278h-60v-161h-47v161h-67v-328h-60z" />
    <glyph glyph-name="uni049D" unicode="&#x49d;" horiz-adv-x="564" 
d="M93 0v512h57v-222h53v123h44v-123h45l111 180q16 27 30 34.5t35 7.5h48v-50h-60l-94 -151q-13 -22 -22.5 -31t-24.5 -12v-4q19 -3 30.5 -12t26.5 -36l93 -166h59v-50h-57q-19 0 -34.5 9t-28.5 35l-112 197h-45v-122h-44v122h-53v-241h-57z" />
    <glyph glyph-name="uni049E" unicode="&#x49e;" horiz-adv-x="679" 
d="M134 0v562h-106v47h106v89h60v-89h163v-47h-163v-183h146l157 268q17 28 34 39.5t40 11.5h47v-53h-61l-143 -243q-15 -25 -25 -33.5t-24 -13.5v-4q17 -2 30.5 -12.5t29.5 -36.5l151 -249h61v-53h-58q-19 0 -35.5 10t-33.5 38l-170 280h-146v-328h-60z" />
    <glyph glyph-name="uni049F" unicode="&#x49f;" horiz-adv-x="538" 
d="M94 0v562h-65v45h65v133h57v-133h155v-45h-155v-272h110l117 180q17 26 31 34t34 8h48v-50h-60l-98 -151q-14 -22 -23 -30.5t-26 -12.5v-4q17 -3 30.5 -12.5t27.5 -35.5l98 -166h59v-50h-57q-19 0 -34.5 9.5t-29.5 34.5l-117 197h-110v-241h-57z" />
    <glyph glyph-name="uni04A0" unicode="&#x4a0;" horiz-adv-x="757" 
d="M212 0v645h-192v53h252v-319h145l158 268q17 28 33.5 39.5t40.5 11.5h47v-53h-61l-143 -243q-15 -25 -25 -33.5t-25 -13.5v-4q18 -2 32 -12t29 -37l151 -249h60v-53h-57q-19 0 -35.5 10t-33.5 38l-171 280h-145v-328h-60z" />
    <glyph glyph-name="uni04A1" unicode="&#x4a1;" horiz-adv-x="612" 
d="M166 0v462h-140v50h197v-222h111l116 180q17 26 31 34t34 8h48v-50h-60l-98 -151q-14 -22 -23 -30.5t-25 -12.5v-4q17 -3 30 -12.5t27 -35.5l99 -166h58v-50h-56q-19 0 -34.5 9.5t-29.5 34.5l-117 197h-111v-241h-57z" />
    <glyph glyph-name="uni04A2" unicode="&#x4a2;" horiz-adv-x="735" 
d="M641 -150v150h-99v327h-383v-327h-60v698h60v-318h383v318h60v-645h94v-203h-55z" />
    <glyph glyph-name="uni04A3" unicode="&#x4a3;" horiz-adv-x="606" 
d="M520 -140v140h-86v241h-284v-241h-57v512h57v-221h284v221h57v-462h81v-190h-52z" />
    <glyph glyph-name="uni04A4" unicode="&#x4a4;" horiz-adv-x="923" 
d="M99 0v698h60v-318h362v318h369v-53h-310v-645h-59v327h-362v-327h-60z" />
    <glyph glyph-name="uni04A5" unicode="&#x4a5;" horiz-adv-x="759" 
d="M93 0v512h57v-218h262v218h315v-50h-258v-462h-57v244h-262v-244h-57z" />
    <glyph glyph-name="uni04A6" unicode="&#x4a6;" horiz-adv-x="1009" 
d="M735 -164v53h85q33 17 53.5 60t20.5 119v87q0 99 -45 143t-133 44q-44 0 -82.5 -6.5t-65.5 -17.5v-318h-60v645h-349v-645h-60v698h469v-326h5q28 11 65.5 17t80.5 6q121 0 177.5 -59t56.5 -181v-87q0 -79 -21 -130.5t-58 -76.5t-86 -25h-53z" />
    <glyph glyph-name="uni04A7" unicode="&#x4a7;" horiz-adv-x="830" 
d="M596 -200v50h86q16 18 25.5 51t9.5 92v115q0 74 -29 102.5t-91 28.5q-61 0 -98.5 -23.5t-37.5 -66.5v-149h-57v462h-254v-462h-57v512h368v-292h4q20 29 54.5 49.5t92.5 20.5q80 0 121 -40.5t41 -135.5v-130q0 -96 -33 -140t-86 -44h-59z" />
    <glyph glyph-name="uni04A8" unicode="&#x4a8;" horiz-adv-x="869" 
d="M818 14v-53h-47q-61 0 -113 13t-97 38q-31 -12 -66.5 -18t-70.5 -6q-112 0 -193 43t-124.5 126.5t-43.5 204.5q0 111 31.5 188.5t92.5 118.5t151 41q14 0 28.5 -1.5t23.5 -3.5l-6 -54q-10 3 -23 4t-25 1q-63 0 -110.5 -30t-73 -85.5t-25.5 -131.5v-92q0 -85 37.5 -147
t104.5 -96t155 -34q23 0 44 3t40 9q-69 42 -109.5 124t-40.5 191q0 96 25.5 158.5t75 93.5t118.5 31q71 0 120 -31t75 -94.5t26 -160.5q0 -107 -44.5 -190t-126.5 -131q30 -15 66.5 -22t77.5 -7h47zM419 402v-70q0 -82 39.5 -149.5t113.5 -111.5q76 37 120 107t44 154v70
q0 98 -44 146.5t-114 48.5t-114.5 -48.5t-44.5 -146.5z" />
    <glyph glyph-name="uni04A9" unicode="&#x4a9;" horiz-adv-x="677" 
d="M643 11v-50h-39q-47 0 -88.5 11t-79.5 33q-22 -8 -50 -12.5t-53 -4.5q-86 0 -149 32t-97.5 94.5t-34.5 151.5q0 81 25.5 138.5t73.5 88.5t115 31q11 0 21 -0.5t18 -2.5l-4 -48q-7 2 -16 2.5t-19 0.5q-73 0 -114.5 -48.5t-41.5 -128.5v-65q0 -61 27 -105.5t77 -69.5
t119 -25q14 0 28.5 2.5t26.5 5.5q-49 37 -78 95.5t-29 134.5q0 105 45.5 157t126.5 52q82 0 127 -52t45 -157q0 -78 -33 -140.5t-95 -99.5q24 -11 50 -16t57 -5h39zM340 299v-55q0 -57 29 -105.5t78 -80.5q55 27 87.5 77t32.5 109v55q0 63 -30 99.5t-84 36.5
q-53 0 -83 -36.5t-30 -99.5z" />
    <glyph glyph-name="uni04AA" unicode="&#x4aa;" horiz-adv-x="617" 
d="M335 -12q-86 0 -147 40.5t-93 120t-32 198.5q0 118 32 199t93 122.5t147 41.5q83 0 141.5 -40t89.5 -109l-49 -29q-23 57 -69.5 90.5t-112.5 33.5q-97 0 -152.5 -70.5t-55.5 -199.5v-79q0 -128 55.5 -196.5t152.5 -68.5q70 0 117.5 35.5t69.5 95.5l49 -29
q-31 -71 -91.5 -113.5t-144.5 -42.5zM345 -205q-35 0 -58.5 12t-33.5 25l28 31q10 -12 26 -20t38 -8t36 10t14 29q0 16 -13 27.5t-52 15.5l-31 3l19 93h38l-17 -79l2 -2q9 2 18.5 3.5t17.5 1.5q29 0 48.5 -17t19.5 -47q0 -24 -13.5 -41.5t-36 -27t-50.5 -9.5z" />
    <glyph glyph-name="uni04AB" unicode="&#x4ab;" horiz-adv-x="497" 
d="M274 -12q-105 0 -163.5 70.5t-58.5 197.5t58.5 197.5t163.5 70.5q71 0 115.5 -31.5t66.5 -81.5l-48 -24q-17 42 -50.5 64t-83.5 22q-78 0 -119 -49.5t-41 -131.5v-72q0 -81 41 -131t119 -50q53 0 89 23t58 66l42 -28q-25 -50 -71.5 -81t-117.5 -31zM285 -205
q-35 0 -58.5 12t-33.5 25l28 31q10 -12 26 -20t38 -8t36 10t14 29q0 16 -13 27.5t-52 15.5l-31 3l19 93h38l-17 -79l2 -2q9 2 18.5 3.5t17.5 1.5q29 0 48.5 -17t19.5 -47q0 -24 -13.5 -41.5t-36 -27t-50.5 -9.5z" />
    <glyph glyph-name="uni04AC" unicode="&#x4ac;" horiz-adv-x="567" 
d="M547 645h-233v-592h94v-203h-56v150h-98v645h-234v53h527v-53z" />
    <glyph glyph-name="uni04AD" unicode="&#x4ad;" horiz-adv-x="475" 
d="M209 0v462h-183v50h423v-50h-183v-412h82v-190h-53v140h-86z" />
    <glyph glyph-name="uni04AE" unicode="&#x4ae;" horiz-adv-x="575" 
d="M316 0h-59v283l-241 415h68l202 -352h3l202 352h68l-243 -413v-285z" />
    <glyph glyph-name="uni04AF" unicode="&#x4af;" horiz-adv-x="476" 
d="M210 -200v200l-189 512h57l114 -310l44 -135h4l46 135l115 310h55l-189 -512v-200h-57z" />
    <glyph glyph-name="uni04B0" unicode="&#x4b0;" horiz-adv-x="575" 
d="M257 0v236h-172v47h172l-241 415h68l203 -353h3l201 353h68l-243 -415h171v-47h-171v-236h-59z" />
    <glyph glyph-name="uni04B1" unicode="&#x4b1;" horiz-adv-x="476" 
d="M210 -200v155h-127v45h127l-189 512h57l114 -310l44 -135h4l46 135l115 310h55l-189 -512h126v-45h-126v-155h-57z" />
    <glyph glyph-name="uni04B2" unicode="&#x4b2;" horiz-adv-x="623" 
d="M564 -150v150h-70l-198 309h-2l-200 -309h-68l231 355l-224 343h72l190 -295h2l193 295h69l-226 -340l199 -305h87v-203h-55z" />
    <glyph glyph-name="uni04B3" unicode="&#x4b3;" horiz-adv-x="515" 
d="M457 -140v140h-57l-151 216h-2l-157 -216h-64l190 258l-183 254h67l146 -209h3l149 209h64l-182 -250l151 -212h79v-190h-53z" />
    <glyph glyph-name="uni04B4" unicode="&#x4b4;" horiz-adv-x="874" 
d="M780 -150v150h-532v645h-228v53h515v-53h-228v-592h374v645h60v-645h94v-203h-55z" />
    <glyph glyph-name="uni04B5" unicode="&#x4b5;" horiz-adv-x="713" 
d="M626 -140v140h-423v462h-177v50h411v-50h-177v-412h280v462h57v-462h82v-190h-53z" />
    <glyph glyph-name="uni04B6" unicode="&#x4b6;" horiz-adv-x="670" 
d="M575 -150v150h-98v287h-5q-29 -11 -71.5 -18t-93.5 -7q-126 0 -185.5 59t-59.5 182v195h60v-195q0 -99 47 -143.5t140 -44.5q54 0 96.5 7t71.5 18v358h60v-645h94v-203h-56z" />
    <glyph glyph-name="uni04B7" unicode="&#x4b7;" horiz-adv-x="554" 
d="M468 -140v140h-86v253h-5q-20 -29 -56.5 -49.5t-97.5 -20.5q-80 0 -124.5 39.5t-44.5 120.5v169h57v-164q0 -59 32.5 -86.5t94.5 -27.5q64 0 104 23.5t40 66.5v188h57v-462h81v-190h-52z" />
    <glyph glyph-name="uni04B8" unicode="&#x4b8;" horiz-adv-x="636" 
d="M477 0v287h-5q-27 -11 -64 -17.5t-82 -7.5v-148h-47v148q-111 7 -164 66.5t-53 174.5v195h60v-195q0 -91 39.5 -135.5t117.5 -51.5v173h47v-174q48 1 86 7.5t65 17.5v358h60v-698h-60z" />
    <glyph glyph-name="uni04B9" unicode="&#x4b9;" horiz-adv-x="531" 
d="M382 0v252h-5q-14 -23 -41.5 -42t-67.5 -24v-95h-44v92q-82 1 -126 40t-44 120v169h57v-164q0 -56 29 -83t84 -30v150h44v-150q52 3 83 27t31 62v188h57v-512h-57z" />
    <glyph glyph-name="uni04BA" unicode="&#x4ba;" horiz-adv-x="636" 
d="M99 0v698h60v-287h5q29 12 71.5 18.5t93.5 6.5q125 0 185 -59t60 -182v-195h-60v195q0 100 -47.5 144t-140.5 44q-52 0 -95 -6.5t-72 -18.5v-358h-60z" />
    <glyph glyph-name="uni04BB" unicode="&#x4bb;" horiz-adv-x="563" 
d="M93 0v740h57v-309h3q17 40 53 66.5t98 26.5q82 0 127.5 -50.5t45.5 -144.5v-329h-57v319q0 78 -33.5 116t-97.5 38q-36 0 -68 -12.5t-51.5 -37.5t-19.5 -63v-360h-57z" />
    <glyph glyph-name="uni04BC" unicode="&#x4bc;" horiz-adv-x="781" 
d="M736 349v-14h-540l32 14v-40q0 -85 29 -145t80.5 -91t118.5 -31q74 0 129.5 39.5t81.5 112.5l51 -25q-20 -55 -57.5 -95.5t-89.5 -63t-116 -22.5q-88 0 -152.5 40.5t-100 118t-38.5 188.5h-83q-29 0 -39.5 14t-10.5 36v112h51v-112h84q6 105 41 177t97 110t147 38
q90 0 153.5 -40t97.5 -120.5t34 -200.5zM451 656q-65 0 -115.5 -31.5t-79 -91t-28.5 -144.5v-19l-31 15h497l-20 -26v30q0 85 -28.5 144.5t-79 91t-115.5 31.5z" />
    <glyph glyph-name="uni04BD" unicode="&#x4bd;" horiz-adv-x="624" 
d="M364 -12q-67 0 -117 30.5t-77.5 88t-29.5 138.5h-66q-28 0 -38.5 14t-10.5 36v102h51v-108h65q9 111 68 173t153 62q66 0 114.5 -31.5t75 -88.5t26.5 -132v-27h-378v-25q0 -81 44 -131.5t123 -50.5q55 0 94.5 26.5t60.5 76.5l42 -28q-24 -56 -75.5 -90.5t-124.5 -34.5z
M362 476q-49 0 -85.5 -23t-56.5 -64t-20 -95v-5h317v8q0 54 -19.5 94t-54 62.5t-81.5 22.5z" />
    <glyph glyph-name="uni04BE" unicode="&#x4be;" horiz-adv-x="781" 
d="M736 349v-14h-539l31 21v-47q0 -85 29 -145t80.5 -91t118.5 -31q74 0 129.5 39.5t81.5 112.5l51 -25q-18 -51 -51.5 -89.5t-80 -62t-103.5 -28.5v-139h-55v139q-81 7 -139 49t-90.5 116.5t-34.5 180.5h-83q-29 0 -39.5 14t-10.5 36v112h51v-112h84q6 105 41 177t97 110
t147 38q90 0 153.5 -40t97.5 -120.5t34 -200.5zM451 656q-65 0 -115.5 -31.5t-79 -91t-28.5 -144.5v-19l-31 15h497l-20 -26v30q0 85 -28.5 144.5t-79 91t-115.5 31.5z" />
    <glyph glyph-name="uni04BF" unicode="&#x4bf;" horiz-adv-x="624" 
d="M391 -11v-129h-53v129q-90 9 -142.5 76t-55.5 180h-66q-28 0 -38.5 14t-10.5 36v102h51v-108h65q9 111 68 173t153 62q66 0 114.5 -31.5t75 -88.5t26.5 -132v-27h-378v-25q0 -81 44 -131.5t123 -50.5q55 0 94.5 26.5t60.5 76.5l42 -28q-22 -51 -66.5 -84.5t-106.5 -39.5z
M362 476q-49 0 -85.5 -23t-56.5 -64t-20 -95v-5h317v8q0 54 -19.5 94t-54 62.5t-81.5 22.5z" />
    <glyph glyph-name="uni04C0" unicode="&#x4c0;" horiz-adv-x="389" 
d="M326 0h-263v50h102v598h-102v50h263v-50h-102v-598h102v-50z" />
    <glyph glyph-name="uni04C1" unicode="&#x4c1;" horiz-adv-x="949" 
d="M43 0v53h61l132 247q13 26 26 36.5t30 14.5v4q-15 5 -28 16t-24 34l-119 240h-61v53h50q25 0 43 -11.5t32 -40.5l132 -267h128v319h60v-319h128l132 267q15 29 32.5 40.5t41.5 11.5h51v-53h-62l-120 -240q-11 -23 -23 -34t-28 -16v-4q18 -4 31.5 -14.5t26.5 -36.5
l130 -247h61v-53h-58q-22 0 -38.5 11.5t-31.5 39.5l-145 277h-128v-328h-60v328h-128l-147 -277q-14 -28 -30 -39.5t-39 -11.5h-58zM474 774q-52 0 -82 23.5t-48 59.5l-17 33l50 22l35 -76q13 -10 29 -14.5t33 -4.5t33 4.5t29 14.5l35 76l50 -22l-17 -33q-18 -36 -48 -59.5
t-82 -23.5z" />
    <glyph glyph-name="uni04C2" unicode="&#x4c2;" horiz-adv-x="757" 
d="M41 0v50h59l77 165q11 25 24 35.5t28 13.5v4q-15 4 -27 15.5t-23 34.5l-72 144h-59v50h48q22 0 38.5 -11t28.5 -36l87 -175h100v222h57v-222h100l87 175q12 25 28.5 36t39.5 11h47v-50h-58l-73 -144q-10 -23 -22 -34.5t-28 -15.5v-4q16 -3 29 -13.5t23 -35.5l78 -165h58
v-50h-55q-20 0 -36 10.5t-28 38.5l-90 192h-100v-241h-57v241h-100l-90 -192q-12 -28 -27.5 -38.5t-35.5 -10.5h-56zM378 600q-52 0 -82 24t-48 59l-17 33l50 22l35 -76q13 -10 29 -14.5t33 -4.5t33 4.5t29 14.5l35 76l50 -22l-17 -33q-18 -35 -48 -59t-82 -24z" />
    <glyph glyph-name="uni04CF" unicode="&#x4cf;" horiz-adv-x="243" 
d="M93 0v740h57v-740h-57z" />
    <glyph glyph-name="uni04D0" unicode="&#x4d0;" horiz-adv-x="625" 
d="M599 0h-63l-76 217h-297l-76 -217h-60l247 698h77zM444 269l-91 260l-40 112h-4l-39 -112l-92 -260h266zM312 774q-52 0 -82 23.5t-48 59.5l-17 33l50 22l35 -76q13 -10 29 -14.5t33 -4.5t33 4.5t29 14.5l35 76l50 -22l-17 -33q-18 -36 -48 -59.5t-82 -23.5z" />
    <glyph glyph-name="uni04D1" unicode="&#x4d1;" horiz-adv-x="528" 
d="M503 0h-58q-23 0 -38 9.5t-21.5 26.5t-6.5 40v27l23 -22h-27q-17 -42 -56 -67.5t-99 -25.5q-81 0 -125 40t-44 111q0 46 21.5 79t67 51t119.5 18h118v60q0 64 -33 96t-98 32q-50 0 -84.5 -22t-55.5 -62l-36 30q21 44 64.5 73.5t113.5 29.5q89 0 137.5 -45t48.5 -126v-303
h69v-50zM377 244h-120q-76 0 -111 -24.5t-35 -67.5v-24q0 -44 32.5 -67.5t84.5 -23.5q42 0 75.5 13.5t53.5 39t20 59.5v95zM251 600q-52 0 -82 24t-48 59l-17 33l50 22l35 -76q13 -10 29 -14.5t33 -4.5t33 4.5t29 14.5l35 76l50 -22l-17 -33q-18 -35 -48 -59t-82 -24z" />
    <glyph glyph-name="uni04D2" unicode="&#x4d2;" horiz-adv-x="625" 
d="M599 0h-63l-76 217h-297l-76 -217h-60l247 698h77zM444 269l-91 260l-40 112h-4l-39 -112l-92 -260h266zM221 800q-21 0 -30.5 10.5t-9.5 26.5v10q0 16 9.5 26.5t30.5 10.5t30 -10.5t9 -26.5v-10q0 -16 -9 -26.5t-30 -10.5zM405 800q-20 0 -29.5 10.5t-9.5 26.5v10
q0 16 9.5 26.5t29.5 10.5q21 0 30.5 -10.5t9.5 -26.5v-10q0 -16 -9.5 -26.5t-30.5 -10.5z" />
    <glyph glyph-name="uni04D3" unicode="&#x4d3;" horiz-adv-x="528" 
d="M503 0h-58q-23 0 -38 9.5t-21.5 26.5t-6.5 40v27l23 -22h-27q-17 -42 -56 -67.5t-99 -25.5q-81 0 -125 40t-44 111q0 46 21.5 79t67 51t119.5 18h118v60q0 64 -33 96t-98 32q-50 0 -84.5 -22t-55.5 -62l-36 30q21 44 64.5 73.5t113.5 29.5q89 0 137.5 -45t48.5 -126v-303
h69v-50zM377 244h-120q-76 0 -111 -24.5t-35 -67.5v-24q0 -44 32.5 -67.5t84.5 -23.5q42 0 75.5 13.5t53.5 39t20 59.5v95zM159 627q-21 0 -30 10.5t-9 26.5v9q0 16 9 26t30 10t30 -10t9 -26v-9q0 -16 -9 -26.5t-30 -10.5zM343 627q-20 0 -29.5 10.5t-9.5 26.5v9
q0 16 9.5 26t29.5 10q21 0 30 -10t9 -26v-9q0 -16 -9 -26.5t-30 -10.5z" />
    <glyph glyph-name="uni04D4" unicode="&#x4d4;" horiz-adv-x="889" 
d="M413 0v216h-235l-113 -216h-62l367 698h452v-53h-349v-265h332v-53h-332v-274h349v-53h-409zM413 645h-12l-198 -376h210v376z" />
    <glyph glyph-name="uni04D5" unicode="&#x4d5;" horiz-adv-x="863" 
d="M375 245h-120q-76 -1 -111 -25.5t-35 -67.5v-24q0 -44 32 -67.5t85 -23.5q42 0 75.5 13.5t53.5 39t20 59.5v96zM432 289h317v8q0 54 -19 94t-54 62.5t-81 22.5q-49 0 -86 -23t-57 -64t-20 -95v-5zM599 38q56 0 94.5 26t60.5 76l42 -27q-24 -56 -74.5 -90.5t-119.5 -34.5
q-51 0 -91 17.5t-65.5 45.5t-35.5 60h-4q-6 -31 -30.5 -59t-65 -46t-93.5 -18q-78 0 -123 40t-45 109q0 47 21.5 81t67.5 52.5t119 18.5h118v58q0 64 -32.5 96t-96.5 32q-52 0 -86 -21t-56 -63l-36 30q21 44 65 73.5t114 29.5q55 0 89 -18.5t51 -47t22 -57.5h4q10 31 35 59
t64 46t88 18q64 0 111.5 -31.5t73.5 -88.5t26 -132v-27h-379v-25q0 -81 44 -131.5t123 -50.5z" />
    <glyph glyph-name="uni04D6" unicode="&#x4d6;" horiz-adv-x="574" 
d="M507 0h-408v698h408v-53h-348v-265h331v-53h-331v-274h348v-53zM301 774q-52 0 -82 23.5t-48 59.5l-17 33l50 22l35 -76q13 -10 29 -14.5t33 -4.5t33 4.5t29 14.5l35 76l50 -22l-17 -33q-18 -36 -48 -59.5t-82 -23.5z" />
    <glyph glyph-name="uni04D7" unicode="&#x4d7;" horiz-adv-x="543" 
d="M276 -12q-68 0 -118.5 32t-78 92t-27.5 144t27.5 144t77.5 92t118 32q66 0 114 -31.5t75 -88.5t27 -132v-27h-379v-25q0 -81 44 -131.5t123 -50.5q55 0 94.5 26.5t60.5 76.5l42 -28q-24 -56 -75.5 -90.5t-124.5 -34.5zM275 476q-50 0 -86.5 -23t-56.5 -64t-20 -95v-5h317
v8q0 54 -19 94t-54 62.5t-81 22.5zM275 600q-52 0 -82 24t-48 59l-17 33l50 22l35 -76q13 -10 29 -14.5t33 -4.5t33 4.5t29 14.5l35 76l50 -22l-17 -33q-18 -35 -48 -59t-82 -24z" />
    <glyph glyph-name="uni04D8" unicode="&#x4d8;" horiz-adv-x="697" 
d="M63 363h508v26q0 129 -59 198t-160 69q-74 0 -129.5 -39.5t-81.5 -112.5l-50 25q19 55 56.5 95.5t89 63t115.5 22.5q90 0 153.5 -42t96 -122.5t32.5 -196.5t-34 -196.5t-98 -122.5t-154 -42t-153.5 40.5t-97.5 120.5t-34 200v14zM125 313v-4q0 -84 28.5 -144t79 -91.5
t115.5 -31.5t115.5 31.5t79 91.5t28.5 144v4h-446z" />
    <glyph glyph-name="uni04D9" unicode="&#x4d9;" horiz-adv-x="543" 
d="M52 267h378v25q0 81 -44 131.5t-123 50.5q-54 0 -94 -26t-61 -77l-41 28q24 57 75 91t124 34q69 0 119 -32t78 -92t28 -144t-27.5 -144t-77.5 -92t-118 -32q-66 0 -114.5 31.5t-75 88.5t-26.5 132v27zM114 223v-8q0 -53 19 -93.5t54 -63t81 -22.5q50 0 86.5 23t56 64
t19.5 95v5h-316z" />
    <glyph glyph-name="uni04DC" unicode="&#x4dc;" horiz-adv-x="949" 
d="M43 0v53h61l132 247q13 26 26 36.5t30 14.5v4q-15 5 -28 16t-24 34l-119 240h-61v53h50q25 0 43 -11.5t32 -40.5l132 -267h128v319h60v-319h128l132 267q15 29 32.5 40.5t41.5 11.5h51v-53h-62l-120 -240q-11 -23 -23 -34t-28 -16v-4q18 -4 31.5 -14.5t26.5 -36.5
l130 -247h61v-53h-58q-22 0 -38.5 11.5t-31.5 39.5l-145 277h-128v-328h-60v328h-128l-147 -277q-14 -28 -30 -39.5t-39 -11.5h-58zM383 800q-21 0 -30.5 10.5t-9.5 26.5v10q0 16 9.5 26.5t30.5 10.5t30 -10.5t9 -26.5v-10q0 -16 -9 -26.5t-30 -10.5zM567 800
q-20 0 -29.5 10.5t-9.5 26.5v10q0 16 9.5 26.5t29.5 10.5q21 0 30.5 -10.5t9.5 -26.5v-10q0 -16 -9.5 -26.5t-30.5 -10.5z" />
    <glyph glyph-name="uni04DD" unicode="&#x4dd;" horiz-adv-x="757" 
d="M41 0v50h59l77 165q11 25 24 35.5t28 13.5v4q-15 4 -27 15.5t-23 34.5l-72 144h-59v50h48q22 0 38.5 -11t28.5 -36l87 -175h100v222h57v-222h100l87 175q12 25 28.5 36t39.5 11h47v-50h-58l-73 -144q-10 -23 -22 -34.5t-28 -15.5v-4q16 -3 29 -13.5t23 -35.5l78 -165h58
v-50h-55q-20 0 -36 10.5t-28 38.5l-90 192h-100v-241h-57v241h-100l-90 -192q-12 -28 -27.5 -38.5t-35.5 -10.5h-56zM286 627q-21 0 -30 10.5t-9 26.5v9q0 16 9 26t30 10t30 -10t9 -26v-9q0 -16 -9 -26.5t-30 -10.5zM470 627q-20 0 -29.5 10.5t-9.5 26.5v9q0 16 9.5 26
t29.5 10q21 0 30 -10t9 -26v-9q0 -16 -9 -26.5t-30 -10.5z" />
    <glyph glyph-name="uni04DE" unicode="&#x4de;" horiz-adv-x="586" 
d="M282 -12q-82 0 -140.5 30.5t-95.5 86.5l44 35q33 -49 79 -73.5t113 -24.5q54 0 93 16t61 47t22 76v18q0 60 -42.5 95t-124.5 35h-110v53h105q51 0 86 16t52.5 46t17.5 73v18q0 55 -40 88t-114 33q-67 0 -108 -23.5t-65 -63.5l-46 29q31 52 83.5 82t135.5 30
q106 0 162.5 -49t56.5 -131q0 -74 -37 -116t-99 -54v-5q43 -5 77.5 -24.5t54 -54t19.5 -86.5q0 -61 -29 -106.5t-82.5 -70.5t-128.5 -25zM196 800q-21 0 -30.5 10.5t-9.5 26.5v10q0 16 9.5 26.5t30.5 10.5t30 -10.5t9 -26.5v-10q0 -16 -9 -26.5t-30 -10.5zM380 800
q-20 0 -29.5 10.5t-9.5 26.5v10q0 16 9.5 26.5t29.5 10.5q21 0 30.5 -10.5t9.5 -26.5v-10q0 -16 -9.5 -26.5t-30.5 -10.5z" />
    <glyph glyph-name="uni04DF" unicode="&#x4df;" horiz-adv-x="498" 
d="M231 -12q-75 0 -120 27t-73 74l43 33q22 -39 59 -61t91 -22q66 0 102 26t36 68v16q0 44 -31 67.5t-86 23.5h-106v48h100q51 0 81.5 24t30.5 63v14q0 38 -31 61t-93 23q-55 0 -90 -21.5t-57 -59.5l-39 31q24 45 69 73t119 28q91 0 136.5 -36t45.5 -99q0 -50 -26.5 -79.5
t-74.5 -39.5v-4q55 -7 84 -38.5t29 -84.5q0 -71 -53.5 -113t-145.5 -42zM143 627q-21 0 -30 10.5t-9 26.5v9q0 16 9 26t30 10t30 -10t9 -26v-9q0 -16 -9 -26.5t-30 -10.5zM327 627q-20 0 -29.5 10.5t-9.5 26.5v9q0 16 9.5 26t29.5 10q21 0 30 -10t9 -26v-9q0 -16 -9 -26.5
t-30 -10.5z" />
    <glyph glyph-name="uni04E0" unicode="&#x4e0;" horiz-adv-x="586" 
d="M281 -12q-83 0 -141 32.5t-94 88.5l44 34q32 -49 79.5 -75t112.5 -26q51 0 90 17.5t61 50.5t22 76v28q0 45 -21.5 77t-60.5 50t-94 18h-103v52l260 234v4l-93 -4h-263v53h415v-70l-239 -215v-25l-26 21h54q70 0 122.5 -24t82.5 -69t30 -110q0 -70 -30 -118.5t-84 -74
t-124 -25.5z" />
    <glyph glyph-name="uni04E1" unicode="&#x4e1;" horiz-adv-x="498" 
d="M231 -200q-73 0 -120 28t-77 79l44 33q23 -44 62.5 -66.5t91.5 -22.5q44 0 76.5 18t50 50.5t17.5 71.5v34q0 61 -39 99t-112 38h-82v48l207 252v4l-69 -4h-214v50h347l-1 -51l-204 -247v-35l-28 32h51q67 0 112.5 -26t69 -71t23.5 -103q0 -63 -25.5 -110.5t-72 -74
t-108.5 -26.5z" />
    <glyph glyph-name="uni04E2" unicode="&#x4e2;" horiz-adv-x="701" 
d="M99 0v698h58v-500l-6 -116h3l58 105l337 511h53v-698h-58v500l7 116h-3l-59 -105l-336 -511h-54zM213 819v49h272v-49h-272z" />
    <glyph glyph-name="uni04E3" unicode="&#x4e3;" horiz-adv-x="583" 
d="M93 0v512h56v-332l-6 -103h4l53 91l238 344h53v-512h-56v332l6 103h-4l-54 -91l-238 -344h-52zM155 645v49h272v-49h-272z" />
    <glyph glyph-name="uni04E4" unicode="&#x4e4;" horiz-adv-x="701" 
d="M99 0v698h58v-500l-6 -116h3l58 105l337 511h53v-698h-58v500l7 116h-3l-59 -105l-336 -511h-54zM257 800q-21 0 -30.5 10.5t-9.5 26.5v10q0 16 9.5 26.5t30.5 10.5t30 -10.5t9 -26.5v-10q0 -16 -9 -26.5t-30 -10.5zM441 800q-20 0 -29.5 10.5t-9.5 26.5v10
q0 16 9.5 26.5t29.5 10.5q21 0 30.5 -10.5t9.5 -26.5v-10q0 -16 -9.5 -26.5t-30.5 -10.5z" />
    <glyph glyph-name="uni04E5" unicode="&#x4e5;" horiz-adv-x="583" 
d="M93 0v512h56v-332l-6 -103h4l53 91l238 344h53v-512h-56v332l6 103h-4l-54 -91l-238 -344h-52zM199 627q-21 0 -30 10.5t-9 26.5v9q0 16 9 26t30 10t30 -10t9 -26v-9q0 -16 -9 -26.5t-30 -10.5zM383 627q-20 0 -29.5 10.5t-9.5 26.5v9q0 16 9.5 26t29.5 10q21 0 30 -10
t9 -26v-9q0 -16 -9 -26.5t-30 -10.5z" />
    <glyph glyph-name="uni04E6" unicode="&#x4e6;" horiz-adv-x="697" 
d="M349 -12q-89 0 -153 41t-98.5 121.5t-34.5 198.5t34.5 198.5t98.5 121.5t153 41q88 0 152 -41t98.5 -121.5t34.5 -198.5t-34.5 -198.5t-98.5 -121.5t-152 -41zM349 42q67 0 116.5 31t77 90t27.5 142v88q0 83 -27.5 142t-77 90t-116.5 31t-117 -31t-77.5 -90t-27.5 -142
v-88q0 -83 27.5 -142t77.5 -90t117 -31zM257 800q-21 0 -30.5 10.5t-9.5 26.5v10q0 16 9.5 26.5t30.5 10.5t30 -10.5t9 -26.5v-10q0 -16 -9 -26.5t-30 -10.5zM441 800q-20 0 -29.5 10.5t-9.5 26.5v10q0 16 9.5 26.5t29.5 10.5q21 0 30.5 -10.5t9.5 -26.5v-10
q0 -16 -9.5 -26.5t-30.5 -10.5z" />
    <glyph glyph-name="uni04E7" unicode="&#x4e7;" horiz-adv-x="552" 
d="M276 -12q-68 0 -118 32t-78 92t-28 144t28 144t78 92t118 32t118.5 -32t78 -92t27.5 -144t-27.5 -144t-78 -92t-118.5 -32zM276 39q75 0 119 47.5t44 137.5v64q0 90 -44 137.5t-119 47.5q-74 0 -118 -47.5t-44 -137.5v-64q0 -90 44 -137.5t118 -47.5zM184 627
q-21 0 -30 10.5t-9 26.5v9q0 16 9 26t30 10t30 -10t9 -26v-9q0 -16 -9 -26.5t-30 -10.5zM368 627q-20 0 -29.5 10.5t-9.5 26.5v9q0 16 9.5 26t29.5 10q21 0 30 -10t9 -26v-9q0 -16 -9 -26.5t-30 -10.5z" />
    <glyph glyph-name="uni04E8" unicode="&#x4e8;" horiz-adv-x="697" 
d="M349 -12q-89 0 -153 41t-98.5 121.5t-34.5 198.5t34.5 198.5t98.5 121.5t153 41q88 0 152 -41t98.5 -121.5t34.5 -198.5t-34.5 -198.5t-98.5 -121.5t-152 -41zM349 42q67 0 116.5 31t77 90t27.5 142v41l33 -19h-508l32 18v-40q0 -83 27.5 -142t77.5 -90t117 -31zM349 656
q-67 0 -117 -31t-77.5 -90t-27.5 -142v-25l-31 12h507l-33 -18v31q0 83 -27.5 142t-77 90t-116.5 31z" />
    <glyph glyph-name="uni04E9" unicode="&#x4e9;" horiz-adv-x="552" 
d="M276 -12q-68 0 -118 32t-78 92t-28 144t28 144t78 92t118 32t118.5 -32t78 -92t27.5 -144t-27.5 -144t-78 -92t-118.5 -32zM276 39q75 0 119 47.5t44 137.5v14h-325v-14q0 -90 44 -137.5t118 -47.5zM114 288v-5h325v5q0 90 -44 137.5t-119 47.5q-74 0 -118 -47.5
t-44 -137.5z" />
    <glyph glyph-name="uni04EE" unicode="&#x4ee;" horiz-adv-x="586" 
d="M149 0v53h98l40 100l-263 545h65l177 -367l46 -104h4l39 105l146 366h62l-255 -636q-10 -25 -22 -38t-28.5 -18.5t-43.5 -5.5h-65zM168 819v49h272v-49h-272z" />
    <glyph glyph-name="uni04EF" unicode="&#x4ef;" horiz-adv-x="481" 
d="M283 176l121 336h57l-241 -656q-7 -21 -17 -33.5t-26 -17.5t-42 -5h-58v50h86l49 135l-192 527h58l120 -336l39 -117h4zM105 645v49h272v-49h-272z" />
    <glyph glyph-name="uni04F0" unicode="&#x4f0;" horiz-adv-x="586" 
d="M149 0v53h98l40 100l-263 545h65l177 -367l46 -104h4l39 105l146 366h62l-255 -636q-10 -25 -22 -38t-28.5 -18.5t-43.5 -5.5h-65zM212 800q-21 0 -30.5 10.5t-9.5 26.5v10q0 16 9.5 26.5t30.5 10.5t30 -10.5t9 -26.5v-10q0 -16 -9 -26.5t-30 -10.5zM396 800
q-20 0 -29.5 10.5t-9.5 26.5v10q0 16 9.5 26.5t29.5 10.5q21 0 30.5 -10.5t9.5 -26.5v-10q0 -16 -9.5 -26.5t-30.5 -10.5z" />
    <glyph glyph-name="uni04F1" unicode="&#x4f1;" horiz-adv-x="481" 
d="M283 176l121 336h57l-241 -656q-7 -21 -17 -33.5t-26 -17.5t-42 -5h-58v50h86l49 135l-192 527h58l120 -336l39 -117h4zM149 627q-21 0 -30 10.5t-9 26.5v9q0 16 9 26t30 10t30 -10t9 -26v-9q0 -16 -9 -26.5t-30 -10.5zM333 627q-20 0 -29.5 10.5t-9.5 26.5v9
q0 16 9.5 26t29.5 10q21 0 30 -10t9 -26v-9q0 -16 -9 -26.5t-30 -10.5z" />
    <glyph glyph-name="uni04F2" unicode="&#x4f2;" horiz-adv-x="586" 
d="M149 0v53h98l40 100l-263 545h65l177 -367l46 -104h4l39 105l146 366h62l-255 -636q-10 -25 -22 -38t-28.5 -18.5t-43.5 -5.5h-65zM338 917l-110 -157l-35 18l95 163zM498 917l-110 -157l-35 18l95 163z" />
    <glyph glyph-name="uni04F3" unicode="&#x4f3;" horiz-adv-x="481" 
d="M283 176l121 336h57l-241 -656q-7 -21 -17 -33.5t-26 -17.5t-42 -5h-58v50h86l49 135l-192 527h58l120 -336l39 -117h4zM275 743l-110 -157l-35 18l95 163zM435 743l-110 -157l-35 18l95 163z" />
    <glyph glyph-name="uni04F4" unicode="&#x4f4;" horiz-adv-x="636" 
d="M477 0v287h-5q-29 -11 -71.5 -18t-93.5 -7q-126 0 -185.5 59t-59.5 182v195h60v-195q0 -99 47 -143.5t140 -44.5q54 0 96.5 7t71.5 18v358h60v-698h-60zM207 800q-21 0 -30.5 10.5t-9.5 26.5v10q0 16 9.5 26.5t30.5 10.5t30 -10.5t9 -26.5v-10q0 -16 -9 -26.5t-30 -10.5z
M391 800q-20 0 -29.5 10.5t-9.5 26.5v10q0 16 9.5 26.5t29.5 10.5q21 0 30.5 -10.5t9.5 -26.5v-10q0 -16 -9.5 -26.5t-30.5 -10.5z" />
    <glyph glyph-name="uni04F5" unicode="&#x4f5;" horiz-adv-x="531" 
d="M382 0v253h-5q-20 -29 -56.5 -49.5t-97.5 -20.5q-80 0 -124.5 39.5t-44.5 120.5v169h57v-164q0 -59 32.5 -86.5t94.5 -27.5q64 0 104 23.5t40 66.5v188h57v-512h-57zM154 627q-21 0 -30 10.5t-9 26.5v9q0 16 9 26t30 10t30 -10t9 -26v-9q0 -16 -9 -26.5t-30 -10.5z
M338 627q-20 0 -29.5 10.5t-9.5 26.5v9q0 16 9.5 26t29.5 10q21 0 30 -10t9 -26v-9q0 -16 -9 -26.5t-30 -10.5z" />
    <glyph glyph-name="uni04F6" unicode="&#x4f6;" horiz-adv-x="502" 
d="M99 0v698h370v-53h-310v-592h94v-203h-56v150h-98z" />
    <glyph glyph-name="uni04F7" unicode="&#x4f7;" horiz-adv-x="438" 
d="M93 0v512h314v-50h-257v-412h82v-190h-53v140h-86z" />
    <glyph glyph-name="uni04F8" unicode="&#x4f8;" horiz-adv-x="854" 
d="M99 0v698h60v-288h219q60 0 102 -24.5t63 -70.5t21 -110t-21 -110t-63 -70.5t-102 -24.5h-279zM159 53h219q40 0 67 16t41 45t14 67v48q0 39 -14 67.5t-41 44.5t-67 16h-219v-304zM696 0v698h60v-698h-60zM335 800q-21 0 -30.5 10.5t-9.5 26.5v10q0 16 9.5 26.5
t30.5 10.5t30 -10.5t9 -26.5v-10q0 -16 -9 -26.5t-30 -10.5zM519 800q-20 0 -29.5 10.5t-9.5 26.5v10q0 16 9.5 26.5t29.5 10.5q21 0 30.5 -10.5t9.5 -26.5v-10q0 -16 -9.5 -26.5t-30.5 -10.5z" />
    <glyph glyph-name="uni04F9" unicode="&#x4f9;" horiz-adv-x="704" 
d="M93 0v512h57v-197h142q52 0 89 -19t56.5 -54.5t19.5 -84.5t-19.5 -84t-56 -54t-88.5 -19h-200zM150 50h136q54 0 81.5 24t27.5 66v36q0 42 -27.5 65.5t-81.5 23.5h-136v-215zM554 0v512h57v-512h-57zM260 627q-21 0 -30 10.5t-9 26.5v9q0 16 9 26t30 10t30 -10t9 -26v-9
q0 -16 -9 -26.5t-30 -10.5zM444 627q-20 0 -29.5 10.5t-9.5 26.5v9q0 16 9.5 26t29.5 10q21 0 30 -10t9 -26v-9q0 -16 -9 -26.5t-30 -10.5z" />
    <glyph glyph-name="uni0524" unicode="&#x524;" horiz-adv-x="721" 
d="M99 0v698h489v-645h94v-203h-55v150h-99v645h-369v-645h-60z" />
    <glyph glyph-name="uni0525" unicode="&#x525;" horiz-adv-x="593" 
d="M93 0v512h384v-462h82v-190h-53v140h-86v462h-270v-462h-57z" />
    <glyph glyph-name="uni0E3F" unicode="&#xe3f;" horiz-adv-x="629" 
d="M331 21v-103h-46v103h-186v656h186v103h46v-103h32q82 0 128 -44.5t46 -121.5q0 -65 -31 -98t-78 -44v-5q37 -5 68 -23t50 -51t19 -84q0 -54 -22 -95.5t-62 -65.5t-94 -24h-56zM158 386h128v238h-128v-238zM330 624v-238h34q57 0 84 28t27 74v35q0 46 -27 73.5t-84 27.5
h-34zM158 74h128v262h-128v-262zM330 336v-262h43q42 0 70.5 14t44 39.5t15.5 58.5v38q0 34 -15.5 59t-44 39t-70.5 14h-43z" />
    <glyph glyph-name="Wgrave" unicode="&#x1e80;" horiz-adv-x="884" 
d="M269 0h-69l-176 698h64l92 -380l57 -244h3l63 244l103 380h71l101 -380l63 -244h3l60 244l94 380h62l-182 -698h-68l-106 390l-63 241h-2l-64 -241zM443 760l-109 156l52 26l95 -164z" />
    <glyph glyph-name="wgrave" unicode="&#x1e81;" horiz-adv-x="751" 
d="M177 0l-144 512h56l70 -259l53 -202h2l59 202l77 259h52l79 -259l59 -202h2l52 202l71 259h54l-144 -512h-70l-81 271l-48 160h-2l-47 -160l-81 -271h-69zM378 586l-109 156l52 26l95 -164z" />
    <glyph glyph-name="Wacute" unicode="&#x1e82;" horiz-adv-x="884" 
d="M269 0h-69l-176 698h64l92 -380l57 -244h3l63 244l103 380h71l101 -380l63 -244h3l60 244l94 380h62l-182 -698h-68l-106 390l-63 241h-2l-64 -241zM548 916l-110 -156l-37 18l95 164z" />
    <glyph glyph-name="wacute" unicode="&#x1e83;" horiz-adv-x="751" 
d="M177 0l-144 512h56l70 -259l53 -202h2l59 202l77 259h52l79 -259l59 -202h2l52 202l71 259h54l-144 -512h-70l-81 271l-48 160h-2l-47 -160l-81 -271h-69zM483 742l-110 -156l-37 18l95 164z" />
    </font>
</defs>
</svg>
