<?xml version="1.0" standalone="no"?>
<!DOCTYPE svg PUBLIC "-//W3C//DTD SVG 1.1//EN" "http://www.w3.org/Graphics/SVG/1.1/DTD/svg11.dtd" >
<svg xmlns="http://www.w3.org/2000/svg" xmlns:xlink="http://www.w3.org/1999/xlink" version="1.1">
<metadata>
Created by FontForge 20201107 at Fri Jan 10 15:39:06 2025
 By 
Copyright 2019 IBM Corp. All rights reserved.
</metadata>
<defs>
<font id="IBMPlexSansCondensed-Medium" horiz-adv-x="540" >
  <font-face 
    font-family="IBM Plex Sans Condensed Medium"
    font-weight="500"
    font-stretch="condensed"
    units-per-em="1000"
    panose-1="2 11 5 3 5 2 3 0 2 3"
    ascent="800"
    descent="-200"
    x-height="520"
    cap-height="698"
    bbox="-263 -258 1159 1136"
    underline-thickness="77"
    underline-position="-120"
    unicode-range="U+0020-FFFD"
  />
<missing-glyph horiz-adv-x="424" 
d="M32 0v780h360v-780h-360zM109 77h206v626h-206v-626z" />
    <glyph glyph-name="fi" unicode="fi" horiz-adv-x="551" 
d="M94 0v436h-71v84h71v99q0 62 28.5 91.5t88.5 29.5h82v-85h-97v-135h286v-520h-103v436h-183v-436h-102zM430 619q-32 0 -47 14.5t-15 38.5v18q0 25 15 39t47 14q33 0 47.5 -14t14.5 -39v-18q0 -24 -14.5 -38.5t-47.5 -14.5z" />
    <glyph glyph-name=".notdef" horiz-adv-x="424" 
d="M32 0v780h360v-780h-360zM109 77h206v626h-206v-626z" />
    <glyph glyph-name=".null" horiz-adv-x="0" 
 />
    <glyph glyph-name="nonmarkingreturn" horiz-adv-x="333" 
 />
    <glyph glyph-name="space" unicode=" " horiz-adv-x="212" 
 />
    <glyph glyph-name="exclam" unicode="!" horiz-adv-x="273" 
d="M161 197h-49l-31 301v200h110v-200zM136 -12q-35 0 -52 16t-17 43v22q0 28 17 43.5t52 15.5q36 0 53 -15.5t17 -43.5v-22q0 -27 -17 -43t-53 -16z" />
    <glyph glyph-name="quotedbl" unicode="&#x22;" horiz-adv-x="412" 
d="M161 445h-92v295h92v-295zM343 445h-92v295h92v-295z" />
    <glyph glyph-name="numbersign" unicode="#" horiz-adv-x="605" 
d="M320 0l29 192h-145l-30 -192h-69l29 192h-103v65h113l30 184h-105v65h115l29 192h69l-29 -192h146l29 192h69l-29 -192h102v-65h-112l-29 -184h103v-65h-113l-30 -192h-69zM214 257h145l30 184h-146z" />
    <glyph glyph-name="dollar" unicode="$" horiz-adv-x="537" 
d="M317 -82h-83v120l7 14v594l-7 14v120h83v-120l-8 -14v-594l8 -14v-120zM273 0q-54 0 -99 14t-79 39t-57 55l68 62q16 -23 40.5 -42.5t56.5 -31.5t67 -12q41 0 70.5 12t45.5 36.5t16 62.5q0 30 -11 52t-33 36.5t-56 22.5l-53 13q-67 16 -109.5 40.5t-62.5 61.5t-20 88
q0 59 25 101t74 64.5t119 22.5q77 0 131 -27t84 -72l-67 -56q-20 31 -58 51.5t-88 20.5q-63 0 -92.5 -25.5t-29.5 -71.5q0 -30 10 -50t30.5 -33t51.5 -21l57 -14q68 -17 111 -41t63.5 -61t20.5 -91q0 -67 -27 -113t-77 -69.5t-122 -23.5z" />
    <glyph glyph-name="percent" unicode="%" horiz-adv-x="857" 
d="M257 0h-93l436 698h93zM205 314q-49 0 -83 20.5t-52 64t-18 113.5t18 113.5t52 64t83 20.5t83 -20.5t52 -64t18 -113.5t-18 -113.5t-52 -64t-83 -20.5zM205 377q22 0 35.5 9t20.5 28.5t7 49.5v96q0 31 -7 50t-20.5 28t-35.5 9q-21 0 -35 -9t-21 -28t-7 -50v-96
q0 -30 7 -49.5t21 -28.5t35 -9zM652 -12q-49 0 -83 20.5t-51.5 64t-17.5 113.5t17.5 113.5t51.5 64t83 20.5t83 -20.5t52 -64t18 -113.5t-18 -113.5t-52 -64t-83 -20.5zM652 51q22 0 35.5 9t20.5 28.5t7 49.5v96q0 31 -7 50t-20.5 28t-35.5 9q-21 0 -35 -9t-21 -28t-7 -50
v-96q0 -30 7 -49.5t21 -28.5t35 -9z" />
    <glyph glyph-name="ampersand" unicode="&#x26;" horiz-adv-x="637" 
d="M496 0l-80 104h-12q-5 -29 -24 -55.5t-52.5 -43.5t-80.5 -17q-62 0 -104.5 23.5t-65 67t-22.5 103.5q0 47 14 82t42.5 63t70.5 51q-34 41 -55.5 86t-21.5 91q0 49 20.5 83.5t59 53t92.5 18.5t92.5 -18.5t59 -53t20.5 -82.5q0 -43 -17 -78t-46.5 -62t-66.5 -50l119 -152
q13 36 19.5 77t8.5 82h137v-86h-60q-7 -39 -18 -74t-25 -65l124 -148h-128zM277 629q-33 0 -53 -17.5t-20 -53.5v-16q0 -16 7.5 -36.5t22 -42t33.5 -41.5q25 14 43.5 32.5t29 40.5t10.5 48v15q0 23 -9 39t-25.5 24t-38.5 8zM272 74q24 0 45 7t38 20t29 32l-150 188
q-25 -13 -41 -30.5t-24.5 -39t-8.5 -50.5v-23q0 -49 30 -76.5t82 -27.5z" />
    <glyph glyph-name="quotesingle" unicode="'" horiz-adv-x="230" 
d="M161 445h-92v295h92v-295z" />
    <glyph glyph-name="parenleft" unicode="(" horiz-adv-x="303" 
d="M54 311q0 104 21 189t57.5 151t81.5 109h97q-49 -50 -85 -113t-55.5 -134t-19.5 -145v-114q0 -74 19.5 -145t55.5 -134t85 -113h-97q-45 44 -81.5 109.5t-57.5 151t-21 188.5z" />
    <glyph glyph-name="parenright" unicode=")" horiz-adv-x="303" 
d="M249 311q0 -103 -21 -188.5t-57.5 -151t-81.5 -109.5h-97q49 50 84.5 113t55.5 134t20 145v114q0 74 -20 145t-55.5 134t-84.5 113h97q45 -43 81.5 -109t57.5 -151t21 -189z" />
    <glyph glyph-name="asterisk" unicode="*" horiz-adv-x="475" 
d="M190 747h95l-19 -160l8 -6l146 68l30 -90l-158 -31l-3 -10l110 -118l-78 -56l-78 140h-11l-79 -140l-77 56l109 118l-3 10l-157 31l29 90l146 -68l9 6z" />
    <glyph glyph-name="plus" unicode="+" 
d="M316 91h-92v173h-166v84h166v174h92v-174h166v-84h-166v-173z" />
    <glyph glyph-name="comma" unicode="," horiz-adv-x="263" 
d="M132 129q34 0 51.5 -15.5t17.5 -44.5v-21q0 -48 -25 -98.5t-67 -87.5h-75q30 32 49.5 61.5t29.5 66.5q-25 5 -37.5 20t-12.5 38v21q0 29 17 44.5t52 15.5z" />
    <glyph glyph-name="hyphen" unicode="-" horiz-adv-x="360" 
d="M306 252h-252v105h252v-105z" />
    <glyph glyph-name="period" unicode="." horiz-adv-x="263" 
d="M132 -11q-35 0 -52 15.5t-17 44.5v20q0 29 17 44.5t52 15.5q34 0 51.5 -15.5t17.5 -44.5v-20q0 -29 -17.5 -44.5t-51.5 -15.5z" />
    <glyph glyph-name="slash" unicode="/" horiz-adv-x="380" 
d="M93 -151h-87l252 891h87z" />
    <glyph glyph-name="zero" unicode="0" 
d="M270 -12q-78 0 -129 36.5t-74.5 116t-23.5 208.5t23.5 208.5t74.5 116t129 36.5q79 0 129.5 -36.5t74 -116t23.5 -208.5t-23.5 -208.5t-74 -116t-129.5 -36.5zM270 79q42 0 67 19t36 57.5t11 96.5v194q0 58 -11 96.5t-36 57.5t-67 19t-67 -19t-36 -57.5t-11 -96.5v-194
q0 -58 11 -96.5t36 -57.5t67 -19z" />
    <glyph glyph-name="one" unicode="1" 
d="M499 0h-420v91h165v530h-7l-126 -138l-66 56l143 159h162v-607h149v-91z" />
    <glyph glyph-name="two" unicode="2" 
d="M488 91v-91h-429v103l203 206q51 52 73.5 93t22.5 83v29q0 51 -24.5 77.5t-72.5 26.5q-49 0 -77.5 -29.5t-39.5 -75.5l-93 36q13 45 40 81.5t70.5 58t105.5 21.5q72 0 116.5 -23t65.5 -68t21 -108q0 -47 -12 -85t-42.5 -79t-85.5 -97l-156 -159h314z" />
    <glyph glyph-name="three" unicode="3" 
d="M172 408h63q57 0 84.5 28.5t27.5 69.5v22q0 46 -26 69t-72 23q-44 0 -74.5 -22t-53.5 -63l-71 61q20 33 49 59t68.5 40.5t87.5 14.5q62 0 107.5 -19t70.5 -58.5t25 -100.5q0 -70 -35.5 -110t-86.5 -50v-12q38 -5 68.5 -24t48 -53t17.5 -86q0 -64 -26.5 -111t-77 -72.5
t-121.5 -25.5q-58 0 -100 17.5t-70.5 46t-48.5 60.5l79 60q22 -42 53.5 -68t84.5 -26q56 0 86 28.5t30 81.5v23q0 52 -31.5 80t-89.5 28h-66v89z" />
    <glyph glyph-name="four" unicode="4" 
d="M421 0h-101v135h-289v93l245 470h145v-477h86v-86h-86v-135zM307 600l-188 -379h201v379h-13z" />
    <glyph glyph-name="five" unicode="5" 
d="M459 698v-93h-278l-17 -256h13q8 28 25 49t43.5 33t61.5 12q56 0 98 -24t65.5 -72t23.5 -122q0 -76 -26 -129t-76.5 -80.5t-123.5 -27.5q-53 0 -95 16.5t-71 45t-47 62.5l78 60q22 -44 55 -69t80 -25q57 0 85 31.5t28 94.5v27q0 62 -28.5 92.5t-83.5 30.5
q-41 0 -65.5 -17t-39.5 -39l-90 12l23 388h362z" />
    <glyph glyph-name="six" unicode="6" 
d="M272 -12q-74 0 -124.5 31t-75.5 91t-25 148q0 77 20 145t53.5 124.5t73.5 99.5t79 71h143q-72 -56 -124 -108.5t-85 -112t-49 -136.5h13q10 28 28.5 50.5t47 35.5t66.5 13q57 0 98 -24.5t63.5 -73t22.5 -119.5q0 -74 -26 -126.5t-76 -80.5t-123 -28zM272 77q37 0 62 14
t37.5 41.5t12.5 68.5v26q0 41 -12.5 68.5t-37.5 41.5t-62 14t-62 -14t-38 -41.5t-13 -68.5v-26q0 -41 13 -68.5t38 -41.5t62 -14z" />
    <glyph glyph-name="seven" unicode="7" 
d="M265 0h-112l226 609h-232v-128h-92v217h430v-93z" />
    <glyph glyph-name="eight" unicode="8" 
d="M270 -12q-74 0 -124.5 24.5t-76 70t-25.5 107.5q0 76 36 117.5t92 51.5v13q-47 12 -78 53t-31 107q0 87 53 132.5t154 45.5q102 0 154.5 -45.5t52.5 -132.5q0 -66 -30.5 -107t-78.5 -53v-13q56 -10 92 -51.5t36 -117.5q0 -62 -25.5 -107.5t-75.5 -70t-125 -24.5zM270 75
q55 0 85 28t30 81v28q0 53 -30 81.5t-85 28.5t-85 -28.5t-30 -81.5v-28q0 -53 30 -81t85 -28zM270 405q51 0 77.5 25.5t26.5 71.5v24q0 46 -26.5 71.5t-77.5 25.5t-77.5 -25.5t-26.5 -71.5v-24q0 -46 26.5 -71.5t77.5 -25.5z" />
    <glyph glyph-name="nine" unicode="9" 
d="M493 440q0 -77 -20 -145t-53.5 -124.5t-73 -99.5t-79.5 -71h-143q72 57 124 109t85.5 111.5t48.5 136.5h-13q-9 -27 -28 -50t-47 -36t-67 -13q-56 0 -97.5 24.5t-64 73t-22.5 119.5q0 74 26 126.5t76 80.5t123 28q75 0 125 -31t75 -91t25 -148zM268 347q38 0 62.5 14
t37.5 41.5t13 68.5v26q0 41 -13 68.5t-37.5 41.5t-62.5 14q-36 0 -61.5 -14t-38 -41.5t-12.5 -68.5v-26q0 -41 12.5 -68.5t38 -41.5t61.5 -14z" />
    <glyph glyph-name="colon" unicode=":" horiz-adv-x="278" 
d="M139 -11q-35 0 -52 15.5t-17 44.5v20q0 29 17 44.5t52 15.5q34 0 51.5 -15.5t17.5 -44.5v-20q0 -29 -17.5 -44.5t-51.5 -15.5zM139 386q-35 0 -52 15.5t-17 44.5v20q0 29 17 44.5t52 15.5q34 0 51.5 -15.5t17.5 -44.5v-20q0 -29 -17.5 -44.5t-51.5 -15.5z" />
    <glyph glyph-name="semicolon" unicode=";" horiz-adv-x="278" 
d="M139 129q34 0 51.5 -15.5t17.5 -44.5v-21q0 -48 -25 -98.5t-67 -87.5h-75q30 32 49.5 61.5t29.5 66.5q-25 5 -37.5 20t-12.5 38v21q0 29 17 44.5t52 15.5zM139 386q-35 0 -52 15.5t-17 44.5v20q0 29 17 44.5t52 15.5q34 0 51.5 -15.5t17.5 -44.5v-20q0 -29 -17.5 -44.5
t-51.5 -15.5z" />
    <glyph glyph-name="less" unicode="&#x3c;" 
d="M455 -9l-370 252v84l370 251v-110l-268 -177v-12l268 -178v-110z" />
    <glyph glyph-name="equal" unicode="=" 
d="M482 368h-424v83h424v-83zM482 161h-424v83h424v-83z" />
    <glyph glyph-name="greater" unicode="&#x3e;" 
d="M85 -9v110l268 178v12l-268 177v110l370 -251v-84z" />
    <glyph glyph-name="question" unicode="?" horiz-adv-x="440" 
d="M250 216h-99v161q74 3 112 32.5t38 90.5v24q0 47 -24 71.5t-65 24.5q-43 0 -70.5 -27.5t-37.5 -77.5l-87 35q11 45 36 81.5t65 57.5t96 21q64 0 108.5 -22t66.5 -64.5t22 -106.5q0 -59 -20 -100.5t-56 -67t-85 -37.5v-96zM201 -12q-35 0 -52 16t-17 43v22q0 28 17 43.5
t52 15.5q36 0 52.5 -15.5t16.5 -43.5v-22q0 -27 -16.5 -43t-52.5 -16z" />
    <glyph glyph-name="at" unicode="@" horiz-adv-x="808" 
d="M607 -59v-61h-199q-111 0 -191.5 50t-123.5 142t-43 219q0 128 44 222t125 145.5t193 51.5q82 0 146 -25.5t108.5 -74.5t68 -120.5t23.5 -162.5q0 -80 -20 -136.5t-57 -86t-92 -29.5q-51 0 -78 22.5t-32 57.5h-10q-7 -35 -31.5 -57.5t-64.5 -22.5q-42 0 -75.5 22.5
t-52 70t-18.5 123.5q0 75 18.5 122.5t52 70t75.5 22.5q37 0 60.5 -21t29.5 -56h10v68h86v-292q0 -35 11.5 -49t33.5 -14q37 0 57.5 40t20.5 120v59q0 90 -34 154.5t-94.5 99t-141.5 34.5q-67 0 -119.5 -23.5t-89 -66.5t-56 -101.5t-19.5 -128.5v-72q0 -69 19 -127t55 -100.5
t88 -65.5t118 -23h199zM399 149q23 0 40 9.5t25.5 28t8.5 43.5v124q0 22 -8.5 40t-25.5 28t-40 10q-40 0 -60.5 -25.5t-20.5 -71.5v-89q0 -46 20.5 -71.5t60.5 -25.5z" />
    <glyph glyph-name="A" unicode="A" horiz-adv-x="596" 
d="M575 0h-107l-54 193h-235l-54 -193h-104l209 698h135zM389 280l-65 220l-22 102h-13l-22 -102l-62 -220h184z" />
    <glyph glyph-name="B" unicode="B" horiz-adv-x="595" 
d="M77 0v698h283q81 0 123 -46.5t42 -133.5q0 -56 -17 -87.5t-43 -45t-52 -15.5v-12q21 0 44.5 -8.5t44 -26.5t33.5 -48t13 -74q0 -60 -20 -105t-56 -70.5t-84 -25.5h-311zM183 312v-220h174q25 0 42.5 9t26.5 28t9 49v48q0 30 -9 49t-26.5 28t-42.5 9h-174zM183 606v-204
h157q23 0 39.5 8.5t25 26t8.5 44.5v46q0 28 -8.5 45.5t-25 25.5t-39.5 8h-157z" />
    <glyph glyph-name="C" unicode="C" horiz-adv-x="573" 
d="M313 -12q-81 0 -140.5 37t-91.5 116t-32 206t32 207t91.5 118t140.5 38q90 0 143 -38.5t85 -115.5l-90 -50q-15 51 -45.5 80.5t-92.5 29.5q-70 0 -110 -48.5t-40 -134.5v-168q0 -86 40 -134.5t110 -48.5q63 0 95.5 31.5t48.5 85.5l88 -52q-33 -77 -87.5 -118t-144.5 -41z
" />
    <glyph glyph-name="D" unicode="D" horiz-adv-x="617" 
d="M77 0v698h230q82 0 140.5 -36t89.5 -113t31 -200t-31 -200t-89.5 -113t-140.5 -36h-230zM183 93h124q45 0 78 20t51 59.5t18 95.5v162q0 57 -18 96t-51 59t-78 20h-124v-512z" />
    <glyph glyph-name="E" unicode="E" horiz-adv-x="536" 
d="M482 0h-405v698h405v-93h-299v-205h270v-94h-270v-213h299v-93z" />
    <glyph glyph-name="F" unicode="F" horiz-adv-x="515" 
d="M183 0h-106v698h395v-93h-289v-205h256v-94h-256v-306z" />
    <glyph glyph-name="G" unicode="G" horiz-adv-x="635" 
d="M479 0v103h-12q-10 -49 -51.5 -82t-115.5 -33q-71 0 -128 37t-90 116t-33 207t32.5 207.5t93.5 117t145 37.5q92 0 150.5 -40t90.5 -114l-87 -51q-18 52 -55.5 81.5t-99.5 29.5q-48 0 -83 -22t-54 -63t-19 -98v-168q0 -56 19 -97.5t54.5 -63t84.5 -21.5q42 0 75.5 15.5
t53.5 45.5t20 73v61h-129v91h232v-369h-94z" />
    <glyph glyph-name="H" unicode="H" horiz-adv-x="644" 
d="M461 0v306h-278v-306h-106v698h106v-298h278v298h107v-698h-107z" />
    <glyph glyph-name="I" unicode="I" horiz-adv-x="377" 
d="M327 0h-277v86h85v526h-85v86h277v-86h-85v-526h85v-86z" />
    <glyph glyph-name="J" unicode="J" horiz-adv-x="481" 
d="M99 698h310v-526q0 -57 -23.5 -98t-67 -63.5t-103.5 -22.5q-87 0 -133 45.5t-59 124.5l96 22q8 -47 30 -72.5t66 -25.5q41 0 64 25t23 77v425h-203v89z" />
    <glyph glyph-name="K" unicode="K" horiz-adv-x="598" 
d="M456 0l-186 330l-87 -112v-218h-106v698h106v-230l-6 -130h13l89 130l164 230h122l-222 -296l238 -402h-125z" />
    <glyph glyph-name="L" unicode="L" horiz-adv-x="465" 
d="M437 0h-360v698h106v-605h254v-93z" />
    <glyph glyph-name="M" unicode="M" horiz-adv-x="733" 
d="M76 0v698h125l113 -244l49 -138h9l49 138l112 244h124v-698h-102v430l7 119h-12l-48 -117l-136 -284l-135 284l-48 115h-12l7 -117v-430h-102z" />
    <glyph glyph-name="N" unicode="N" horiz-adv-x="644" 
d="M445 0l-208 419l-53 130h-13l8 -132v-417h-102v698h122l208 -419l54 -130h13l-8 132v417h102v-698h-123z" />
    <glyph glyph-name="O" unicode="O" horiz-adv-x="640" 
d="M320 -12q-84 0 -145 37.5t-93.5 117t-32.5 206.5q0 128 32.5 207t93.5 116.5t145 37.5t145 -37.5t93.5 -116.5t32.5 -207q0 -127 -32.5 -206.5t-93.5 -117t-145 -37.5zM320 82q50 0 84.5 22t53.5 63.5t19 97.5v168q0 57 -19 98t-53.5 63t-84.5 22q-49 0 -84.5 -22
t-54 -63t-18.5 -98v-168q0 -56 18.5 -97.5t54 -63.5t84.5 -22z" />
    <glyph glyph-name="P" unicode="P" horiz-adv-x="568" 
d="M183 0h-106v698h276q59 0 99.5 -24.5t61 -70.5t20.5 -113t-20.5 -113t-61 -70.5t-99.5 -24.5h-170v-282zM183 605v-229h161q25 0 42.5 8.5t26 27t8.5 46.5v64q0 29 -8.5 47t-26 27t-42.5 9h-161z" />
    <glyph glyph-name="Q" unicode="Q" horiz-adv-x="640" 
d="M472 -83v-88h-92q-55 0 -80 27t-25 75v60q-70 9 -121 50t-78 117t-27 191q0 128 32.5 207t93.5 116.5t145 37.5t145 -37.5t93.5 -116.5t32.5 -207q0 -113 -26 -188t-74 -116t-116 -52v-76h97zM320 82q50 0 84.5 22t53.5 63.5t19 97.5v168q0 57 -19 98t-53.5 63t-84.5 22
q-49 0 -84.5 -22t-54 -63t-18.5 -98v-168q0 -56 18.5 -97.5t54 -63.5t84.5 -22z" />
    <glyph glyph-name="R" unicode="R" horiz-adv-x="592" 
d="M183 285v-285h-106v698h276q59 0 99.5 -24t61 -70t20.5 -113q0 -81 -30.5 -131.5t-89.5 -66.5l133 -293h-118l-121 285h-125zM183 374h161q25 0 42.5 9t26 27.5t8.5 46.5v65q0 29 -8.5 47t-26 27t-42.5 9h-161v-231z" />
    <glyph glyph-name="S" unicode="S" horiz-adv-x="538" 
d="M266 -12q-77 0 -135 30t-99 85l73 67q31 -42 71 -65.5t91 -23.5q61 0 92.5 28.5t31.5 85.5q0 31 -9.5 52t-31 34.5t-57.5 21.5l-57 12q-62 14 -102.5 39t-60.5 64.5t-20 94.5q0 65 26.5 108.5t76.5 66t119 22.5q74 0 126 -25.5t90 -79.5l-73 -64q-27 38 -60.5 57
t-84.5 19q-57 0 -85.5 -23.5t-28.5 -77.5q0 -28 10 -48t31.5 -32.5t54.5 -20.5l57 -13q67 -15 107.5 -39.5t59 -63.5t18.5 -97q0 -69 -27.5 -117t-79 -72.5t-124.5 -24.5z" />
    <glyph glyph-name="T" unicode="T" horiz-adv-x="521" 
d="M498 605h-184v-605h-107v605h-184v93h475v-93z" />
    <glyph glyph-name="U" unicode="U" horiz-adv-x="619" 
d="M72 698h107v-452q0 -56 12.5 -92t41 -53.5t76.5 -17.5q49 0 77.5 17.5t41 53.5t12.5 92v452h107v-435q0 -95 -23 -156t-75 -90t-140 -29t-139.5 29t-74.5 90t-23 156v435z" />
    <glyph glyph-name="V" unicode="V" horiz-adv-x="570" 
d="M350 0h-129l-205 698h111l124 -439l29 -163h13l29 163l123 439h109z" />
    <glyph glyph-name="W" unicode="W" horiz-adv-x="840" 
d="M298 0h-128l-148 698h108l82 -423l22 -162h13l22 160l88 425h129l89 -425l22 -160h13l22 162l82 423h104l-153 -698h-127l-90 430l-22 161h-12l-22 -161z" />
    <glyph glyph-name="X" unicode="X" horiz-adv-x="579" 
d="M18 0l203 356l-194 342h124l135 -255h12l139 255h115l-196 -340l204 -358h-123l-146 272h-12l-145 -272h-116z" />
    <glyph glyph-name="Y" unicode="Y" horiz-adv-x="553" 
d="M330 0h-107v270l-215 428h119l145 -312h13l143 312h117l-215 -428v-270z" />
    <glyph glyph-name="Z" unicode="Z" horiz-adv-x="533" 
d="M500 93v-93h-466v95l335 510h-319v93h439v-95l-335 -510h346z" />
    <glyph glyph-name="bracketleft" unicode="[" horiz-adv-x="293" 
d="M244 -138h-167v898h167v-75h-77v-748h77v-75z" />
    <glyph glyph-name="backslash" unicode="\" horiz-adv-x="380" 
d="M374 -151h-87l-252 891h87z" />
    <glyph glyph-name="bracketright" unicode="]" horiz-adv-x="293" 
d="M49 760h167v-898h-167v75h77v748h-77v75z" />
    <glyph glyph-name="asciicircum" unicode="^" 
d="M503 333l-83 -38l-146 300h-12l-145 -300l-80 38l182 365h102z" />
    <glyph glyph-name="underscore" unicode="_" horiz-adv-x="505" 
d="M478 -173h-451v87h451v-87z" />
    <glyph glyph-name="grave" unicode="`" 
d="M260 582l-111 167l90 46l84 -182z" />
    <glyph glyph-name="a" unicode="a" horiz-adv-x="497" 
d="M470 0h-66q-24 0 -42 9t-28.5 29t-10.5 53v17l19 -21h-30q-10 -46 -45.5 -72.5t-84.5 -26.5q-73 0 -110 39.5t-37 111.5q0 52 22.5 87.5t66.5 54t108 18.5h86v50q0 50 -22 74t-70 24q-40 0 -66 -18.5t-46 -52.5l-61 56q25 43 70.5 71t109.5 28q94 0 141.5 -44.5
t47.5 -133.5v-268h48v-85zM318 230h-81q-50 0 -73.5 -18t-23.5 -52v-24q0 -35 21 -51.5t55 -16.5q29 0 52 12t36.5 32.5t13.5 45.5v72z" />
    <glyph glyph-name="b" unicode="b" horiz-adv-x="535" 
d="M70 0v740h103v-305h12q13 46 46.5 71.5t79.5 25.5q62 0 102 -32t60.5 -93t20.5 -147q0 -87 -20 -147.5t-60.5 -92.5t-102.5 -32q-46 0 -79.5 25.5t-46.5 71.5h-12v-85h-103zM274 76q53 0 82 33t29 93v116q0 60 -29 93t-82 33q-29 0 -52 -10.5t-36 -29.5t-13 -46v-196
q0 -27 13 -46t36 -29.5t52 -10.5z" />
    <glyph glyph-name="c" unicode="c" horiz-adv-x="460" 
d="M249 -12q-102 0 -157 65t-55 207t55 207t157 65q75 0 120 -34.5t65 -91.5l-85 -40q-9 39 -33 59t-67 20q-52 0 -77.5 -30.5t-25.5 -93.5v-122q0 -63 25.5 -94t77.5 -31q45 0 70.5 21.5t39.5 63.5l78 -43q-22 -61 -69 -94.5t-119 -33.5z" />
    <glyph glyph-name="d" unicode="d" horiz-adv-x="535" 
d="M362 0v85h-12q-13 -46 -46.5 -71.5t-79.5 -25.5q-61 0 -102 32t-61 92.5t-20 147.5q0 86 20.5 147t61 93t101.5 32q46 0 79.5 -25.5t46.5 -71.5h12v305h104v-740h-104zM261 76q29 0 52 10.5t36 29.5t13 46v196q0 27 -13 46t-36 29.5t-52 10.5q-53 0 -82 -33t-29 -93v-116
q0 -60 29 -93t82 -33z" />
    <glyph glyph-name="e" unicode="e" horiz-adv-x="501" 
d="M259 -12q-65 0 -115.5 29t-78.5 89t-28 154t26.5 154.5t75 89t114.5 28.5t113 -28.5t72 -89t25 -154.5v-26h-318v-33q0 -62 32 -95t86 -33q47 0 77.5 21t51.5 59l60 -57q-27 -48 -75 -78t-118 -30zM253 450q-34 0 -58 -14t-37 -42t-13 -70v-21h209v21q0 42 -11 70
t-33.5 42t-56.5 14z" />
    <glyph glyph-name="f" unicode="f" horiz-adv-x="314" 
d="M95 0v435h-72v85h72v99q0 62 28 91.5t89 29.5h83v-85h-97v-135h97v-85h-97v-435h-103z" />
    <glyph glyph-name="g" unicode="g" horiz-adv-x="486" 
d="M484 -51q0 -54 -23.5 -90t-76.5 -53.5t-141 -17.5q-79 0 -126 14.5t-67.5 43t-20.5 68.5t22 63.5t59 29.5v17q-27 10 -41 30t-14 48q0 35 22.5 56.5t60.5 27.5v12q-41 21 -62.5 60t-21.5 96t21.5 96.5t63.5 60t104 20.5q23 0 44 -4t40 -11v18q0 34 15.5 49.5t46.5 15.5
h72v-83h-96v-23q32 -19 49.5 -55t17.5 -84q0 -57 -21.5 -96.5t-63.5 -60t-104 -20.5q-19 0 -35 2t-31 5q-19 -6 -29.5 -21t-10.5 -31q0 -19 14 -29.5t44 -10.5h125q88 0 126 -37t38 -106zM387 -61q0 29 -19 45t-64 16h-160q-15 -11 -22.5 -26.5t-7.5 -35.5q0 -35 23 -54.5
t76 -19.5h62q59 0 85.5 18.5t26.5 56.5zM243 252q44 0 66.5 22.5t22.5 65.5v28q0 45 -22.5 67t-66.5 22t-67 -22t-23 -67v-28q0 -43 23 -65.5t67 -22.5z" />
    <glyph glyph-name="h" unicode="h" horiz-adv-x="525" 
d="M70 0v740h103v-306h12q15 44 45 71t84 27q69 0 107.5 -47.5t38.5 -139.5v-345h-103v331q0 55 -21 84t-66 29q-26 0 -48 -11.5t-35.5 -32t-13.5 -49.5v-351h-103z" />
    <glyph glyph-name="i" unicode="i" horiz-adv-x="243" 
d="M121 619q-32 0 -47 14.5t-15 38.5v18q0 25 15 39t47 14q33 0 47.5 -14t14.5 -39v-18q0 -24 -14.5 -38.5t-47.5 -14.5zM70 0v520h103v-520h-103z" />
    <glyph glyph-name="j" unicode="j" horiz-adv-x="244" 
d="M71 -115v635h104v-607q0 -58 -27 -85.5t-88 -27.5h-62v85h73zM123 619q-33 0 -47.5 14.5t-14.5 38.5v18q0 25 14.5 39t47.5 14t47.5 -14t14.5 -39v-18q0 -24 -14.5 -38.5t-47.5 -14.5z" />
    <glyph glyph-name="k" unicode="k" horiz-adv-x="497" 
d="M70 0v740h103v-359l-7 -105h11l66 97l114 147h119l-166 -206l177 -314h-118l-132 249l-64 -77v-172h-103z" />
    <glyph glyph-name="l" unicode="l" horiz-adv-x="260" 
d="M235 0h-63q-54 0 -78 25t-24 76v639h103v-655h62v-85z" />
    <glyph glyph-name="m" unicode="m" horiz-adv-x="796" 
d="M173 0h-103v520h103v-86h12q15 44 44 71t81 27q48 0 81 -25.5t48 -74.5h11q16 50 51.5 75t87.5 25q67 0 105 -47.5t38 -139.5v-345h-104v331q0 55 -20.5 84t-62.5 29q-25 0 -46.5 -11.5t-34 -32t-12.5 -49.5v-351h-103v331q0 55 -20.5 84t-62.5 29q-26 0 -47 -11.5
t-33.5 -32t-12.5 -49.5v-351z" />
    <glyph glyph-name="n" unicode="n" horiz-adv-x="525" 
d="M173 0h-103v520h103v-86h12q15 44 45 71t83 27q70 0 108.5 -47.5t38.5 -139.5v-345h-103v331q0 55 -21 84t-66 29q-26 0 -48 -11.5t-35.5 -32t-13.5 -49.5v-351z" />
    <glyph glyph-name="o" unicode="o" horiz-adv-x="506" 
d="M253 -12q-66 0 -114.5 28.5t-75 88.5t-26.5 155q0 94 26.5 154.5t75 89t114.5 28.5t114.5 -28.5t75 -89t26.5 -154.5q0 -95 -26.5 -155t-75 -88.5t-114.5 -28.5zM253 74q52 0 79.5 31t27.5 94v122q0 63 -27.5 93.5t-79.5 30.5q-51 0 -79 -30.5t-28 -93.5v-122
q0 -63 28 -94t79 -31z" />
    <glyph glyph-name="p" unicode="p" horiz-adv-x="535" 
d="M70 -200v720h103v-85h12q13 46 46.5 71.5t79.5 25.5q62 0 102 -32t60.5 -93t20.5 -147q0 -87 -20 -147.5t-60.5 -92.5t-102.5 -32q-46 0 -79.5 25.5t-46.5 71.5h-12v-285h-103zM274 76q53 0 82 33t29 93v116q0 60 -29 93t-82 33q-29 0 -52 -10.5t-36 -29.5t-13 -46v-196
q0 -27 13 -46t36 -29.5t52 -10.5z" />
    <glyph glyph-name="q" unicode="q" horiz-adv-x="535" 
d="M362 -200v285h-12q-13 -46 -46.5 -71.5t-79.5 -25.5q-61 0 -102 32t-61 92.5t-20 147.5q0 86 20.5 147t61 93t101.5 32q46 0 79.5 -25.5t46.5 -71.5h12v85h104v-720h-104zM261 76q29 0 52 10.5t36 29.5t13 46v196q0 27 -13 46t-36 29.5t-52 10.5q-53 0 -82 -33t-29 -93
v-116q0 -60 29 -93t82 -33z" />
    <glyph glyph-name="r" unicode="r" horiz-adv-x="347" 
d="M173 0h-103v520h103v-103h12q7 30 22 53t39 36.5t58 13.5h26v-105h-44q-37 0 -62 -9t-38 -28.5t-13 -50.5v-327z" />
    <glyph glyph-name="s" unicode="s" horiz-adv-x="446" 
d="M222 -12q-64 0 -112 24.5t-83 71.5l66 61q25 -37 57 -55.5t73 -18.5t63 18.5t22 54.5q0 28 -14 45t-51 24l-45 8q-52 10 -86 28.5t-50.5 49t-16.5 75.5q0 80 47 118.5t129 38.5q41 0 72.5 -8.5t57.5 -26.5t47 -44l-62 -61q-19 25 -47 41t-67 16t-58.5 -17.5t-19.5 -52.5
q0 -31 16 -46t51 -21l46 -9q81 -14 115.5 -50t34.5 -97q0 -53 -21.5 -90.5t-63 -57t-100.5 -19.5z" />
    <glyph glyph-name="t" unicode="t" horiz-adv-x="328" 
d="M288 0h-90q-53 0 -78 24.5t-25 77.5v333h-72v85h40q25 0 33.5 12t8.5 36v94h93v-142h97v-85h-97v-350h90v-85z" />
    <glyph glyph-name="u" unicode="u" horiz-adv-x="525" 
d="M352 0v86h-13q-14 -44 -44.5 -71t-84.5 -27q-69 0 -107.5 47.5t-38.5 139.5v345h103v-331q0 -55 22 -84t66 -29q27 0 48.5 11t35 32t13.5 50v351h103v-520h-103z" />
    <glyph glyph-name="v" unicode="v" horiz-adv-x="464" 
d="M297 0h-129l-157 520h104l76 -271l37 -160h13l36 160l76 271h101z" />
    <glyph glyph-name="w" unicode="w" horiz-adv-x="723" 
d="M146 0l-125 520h100l51 -237l32 -190h12l38 190l56 237h108l57 -237l38 -190h11l32 190l53 237h95l-125 -520h-121l-61 253l-28 168h-12l-29 -168l-61 -253h-121z" />
    <glyph glyph-name="x" unicode="x" horiz-adv-x="477" 
d="M16 0l162 265l-158 255h114l102 -176h11l103 176h108l-158 -255l164 -265h-114l-106 186h-12l-107 -186h-109z" />
    <glyph glyph-name="y" unicode="y" horiz-adv-x="470" 
d="M277 247l77 273h102l-201 -638q-9 -32 -23.5 -49.5t-37 -25t-56.5 -7.5h-72v85h94l24 87l-173 548h105l78 -273l36 -158h11z" />
    <glyph glyph-name="z" unicode="z" horiz-adv-x="440" 
d="M408 0h-375v80l249 355h-241v85h360v-80l-251 -355h258v-85z" />
    <glyph glyph-name="braceleft" unicode="{" horiz-adv-x="322" 
d="M273 -138h-94q-36 0 -54.5 17.5t-18.5 57.5v253q0 36 -24 56t-63 20v90q39 0 63 20t24 56v253q0 40 18.5 57.5t54.5 17.5h94v-75h-77v-257q0 -33 -14.5 -58t-41 -38.5t-62.5 -14.5v-12q36 0 62.5 -14t41 -38.5t14.5 -58.5v-257h77v-75z" />
    <glyph glyph-name="bar" unicode="|" horiz-adv-x="323" 
d="M205 -138h-87v898h87v-898z" />
    <glyph glyph-name="braceright" unicode="}" horiz-adv-x="322" 
d="M49 760h94q36 0 54.5 -17.5t18.5 -57.5v-253q0 -36 24.5 -56t62.5 -20v-90q-38 0 -62.5 -20t-24.5 -56v-253q0 -40 -18.5 -57.5t-54.5 -17.5h-94v75h77v257q0 34 15 58.5t41 38.5t62 14v12q-36 1 -62 14.5t-41 38.5t-15 58v257h-77v75z" />
    <glyph glyph-name="asciitilde" unicode="~" 
d="M375 228q-33 0 -59 9.5t-56 25.5q-25 13 -51 24.5t-49 11.5q-22 0 -38 -7.5t-35 -23.5l-38 57q18 26 47 42t69 16q33 0 59 -9.5t56 -26.5q26 -13 51.5 -24.5t48.5 -11.5q22 0 38.5 7.5t34.5 22.5l38 -56q-18 -26 -46.5 -41.5t-69.5 -15.5z" />
    <glyph glyph-name="uni00A0" unicode="&#xa0;" horiz-adv-x="212" 
 />
    <glyph glyph-name="exclamdown" unicode="&#xa1;" horiz-adv-x="273" 
d="M191 -179h-110v201l31 301h48l31 -301v-201zM136 391q-35 0 -52 16t-17 43v22q0 28 17 43.5t52 15.5q36 0 53 -15.5t17 -43.5v-22q0 -27 -17 -43t-53 -16z" />
    <glyph glyph-name="cent" unicode="&#xa2;" horiz-adv-x="480" 
d="M291 -114h-79v105q-83 13 -128 77t-45 190q0 127 45 191t128 76v105h79v-104q60 -8 96.5 -39.5t53.5 -80.5l-78 -41q-8 33 -26.5 53.5t-51.5 26.5v-374q34 7 55 27.5t33 57.5l74 -47q-19 -51 -58 -81t-98 -37v-105zM142 197q0 -53 18.5 -84.5t57.5 -40.5v372
q-39 -9 -57.5 -40.5t-18.5 -84.5v-122z" />
    <glyph glyph-name="sterling" unicode="&#xa3;" horiz-adv-x="526" 
d="M477 0h-410v109q35 17 52 48t17 85q0 13 -1.5 25t-3.5 23h-89v86h61q-9 28 -15 58t-6 67q0 67 24 113.5t72 71t119 24.5q73 0 118 -28t76 -81l-78 -56q-20 35 -46.5 54t-68.5 19q-54 0 -81 -28t-27 -98q0 -33 6 -61t13 -55h178v-86h-156q2 -11 3.5 -22t1.5 -22
q0 -63 -27 -100t-71 -44v-11h339v-91z" />
    <glyph glyph-name="currency" unicode="&#xa4;" horiz-adv-x="554" 
d="M277 114q-25 0 -48 4.5t-43 12.5l-66 -112l-78 45l71 120q-26 31 -39.5 72.5t-13.5 92.5t13.5 92.5t39.5 72.5l-71 120l78 45l66 -112q20 8 43 12.5t48 4.5q26 0 49 -4.5t42 -12.5l66 112l78 -45l-70 -120q24 -31 38 -72.5t14 -92.5t-13.5 -92.5t-38.5 -72.5l70 -120
l-78 -45l-66 112q-19 -8 -42 -12.5t-49 -4.5zM277 198q48 0 76.5 30.5t28.5 90.5v60q0 60 -28.5 90.5t-76.5 30.5q-47 0 -76 -30.5t-29 -90.5v-60q0 -60 29 -90.5t76 -30.5z" />
    <glyph glyph-name="yen" unicode="&#xa5;" horiz-adv-x="564" 
d="M489 140h-154v-140h-108v140h-154v73h154v89h-154v73h110l-159 323h120l134 -300h12l134 300h116l-160 -323h109v-73h-154v-89h154v-73z" />
    <glyph glyph-name="brokenbar" unicode="&#xa6;" horiz-adv-x="323" 
d="M205 404h-87v356h87v-356zM205 -138h-87v356h87v-356z" />
    <glyph glyph-name="section" unicode="&#xa7;" horiz-adv-x="519" 
d="M433 7q0 -55 -22.5 -91.5t-64.5 -54.5t-100 -18q-47 0 -88.5 14t-75.5 46l53 67q22 -22 49.5 -34t63.5 -12q45 0 69.5 19.5t24.5 60.5q0 24 -9.5 39.5t-28.5 26.5t-48 21l-64 19q-52 17 -81.5 39.5t-42 50.5t-12.5 62q0 47 25 84t72 55v12q-31 22 -49 54t-18 80
q0 54 22.5 90t64.5 54.5t99 18.5q47 0 89 -13.5t77 -46.5l-54 -67q-22 23 -49.5 34.5t-64.5 11.5q-45 0 -69 -19.5t-24 -60.5q0 -23 9.5 -39t28.5 -27t48 -21l63 -20q53 -16 82.5 -38.5t42 -50.5t12.5 -62q0 -47 -24.5 -84t-73.5 -55v-12q33 -22 50.5 -53.5t17.5 -79.5z
M372 262q0 26 -8 44.5t-27 32.5t-54 25l-62 18q-7 2 -15 5t-15 6q-21 -20 -32.5 -45.5t-11.5 -56.5q0 -38 18.5 -62t69.5 -40l62 -19q8 -2 15.5 -5t14.5 -6q21 22 33 46.5t12 56.5z" />
    <glyph glyph-name="dieresis" unicode="&#xa8;" 
d="M180 612q-32 0 -46 13t-14 35v23q0 22 14 34.5t46 12.5t46 -12.5t14 -34.5v-23q0 -22 -14 -35t-46 -13zM360 612q-32 0 -46 13t-14 35v23q0 22 14 34.5t46 12.5t46 -12.5t14 -34.5v-23q0 -22 -14 -35t-46 -13z" />
    <glyph glyph-name="copyright" unicode="&#xa9;" horiz-adv-x="706" 
d="M353 -12q-91 0 -161.5 41.5t-111 122t-40.5 197.5t40.5 197.5t111 122t161.5 41.5t161.5 -41.5t111 -122t40.5 -197.5t-40.5 -197.5t-111 -122t-161.5 -41.5zM353 45q74 0 129 34.5t85.5 94t30.5 136.5v78q0 77 -30.5 136.5t-85.5 93.5t-129 34q-73 0 -128.5 -34
t-86 -93.5t-30.5 -136.5v-78q0 -77 30.5 -136.5t86 -94t128.5 -34.5zM360 146q-85 0 -127.5 51.5t-42.5 151.5q0 101 42.5 152t127.5 51q57 0 90.5 -26t51.5 -69l-71 -37q-10 27 -26 42t-45 15q-36 0 -54.5 -22t-18.5 -62v-88q0 -39 18.5 -61.5t54.5 -22.5q30 0 48 16.5
t30 42.5l70 -38q-17 -41 -52 -68.5t-96 -27.5z" />
    <glyph glyph-name="ordfeminine" unicode="&#xaa;" horiz-adv-x="382" 
d="M345 408v-62h-49q-23 0 -40.5 14t-17.5 48v13l19 -18h-27q-8 -30 -32 -47t-60 -17q-48 0 -73.5 26.5t-25.5 74.5q0 58 35 83.5t104 25.5h57v32q0 37 -14.5 52t-47.5 15q-29 0 -49 -12.5t-30 -35.5l-45 39q17 29 48 48.5t83 19.5q64 0 97.5 -30.5t33.5 -92.5v-176h34z
M235 499h-56q-33 0 -49.5 -11t-16.5 -32v-19q0 -21 13 -31.5t38 -10.5q29 0 50 16t21 46v42z" />
    <glyph glyph-name="guillemotleft" unicode="&#xab;" horiz-adv-x="482" 
d="M236 155l-32 -68l-170 147v92l170 147l32 -68l-112 -119v-11zM438 155l-32 -68l-170 147v92l170 147l32 -68l-112 -119v-11z" />
    <glyph glyph-name="logicalnot" unicode="&#xac;" 
d="M482 78h-92v186h-332v84h424v-270z" />
    <glyph glyph-name="uni00AD" unicode="&#xad;" horiz-adv-x="0" 
 />
    <glyph glyph-name="registered" unicode="&#xae;" horiz-adv-x="425" 
d="M212 298q-52 0 -93.5 23.5t-66 70t-24.5 112.5q0 67 24.5 113t66 69.5t93.5 23.5t94 -23.5t66 -69.5t24 -113q0 -66 -24 -112.5t-66 -70t-94 -23.5zM212 337q43 0 73.5 18.5t47 51t16.5 73.5v48q0 42 -16.5 74t-47 50.5t-73.5 18.5q-42 0 -72.5 -18.5t-47 -50.5
t-16.5 -74v-48q0 -41 16.5 -73.5t47 -51t72.5 -18.5zM184 473v-73h-47v208h90q32 0 48 -16t16 -51q0 -25 -8 -40.5t-25 -21.5l41 -79h-52l-34 73h-29zM184 511h38q11 0 16 4.5t5 15.5v19q0 11 -5 15.5t-16 4.5h-38v-59z" />
    <glyph glyph-name="macron" unicode="&#xaf;" 
d="M138 633v80h264v-80h-264z" />
    <glyph glyph-name="degree" unicode="&#xb0;" horiz-adv-x="422" 
d="M211 370q-46 0 -83.5 21t-59.5 59.5t-22 89.5q0 52 22 90.5t59.5 59t83.5 20.5q47 0 84.5 -20.5t59.5 -59t22 -90.5t-22 -90t-59.5 -59t-84.5 -21zM212 442q26 0 45 11.5t30 33.5t11 53t-11 53t-30 34t-45 12t-45.5 -12t-30 -34t-10.5 -53t10.5 -53t30 -33.5t45.5 -11.5z
" />
    <glyph glyph-name="plusminus" unicode="&#xb1;" 
d="M316 184h-92v167h-166v84h166v167h92v-167h166v-84h-166v-167zM482 0h-424v82h424v-82z" />
    <glyph glyph-name="twosuperior" unicode="&#xb2;" horiz-adv-x="320" 
d="M289 389v-60h-254v67l108 96q30 27 44 47t14 45v13q0 21 -12.5 33t-37.5 12q-30 0 -42.5 -16t-19.5 -38l-62 24q12 37 41.5 64.5t88.5 27.5q64 0 93 -29.5t29 -80.5q0 -46 -25 -78t-68 -67l-74 -60h177z" />
    <glyph glyph-name="threesuperior" unicode="&#xb3;" horiz-adv-x="320" 
d="M111 549h34q27 0 40.5 12t13.5 29v15q0 18 -13.5 28.5t-35.5 10.5q-26 0 -41.5 -11t-28.5 -32l-48 42q20 28 47.5 44.5t73.5 16.5q57 0 90.5 -23t33.5 -74q0 -37 -20.5 -57.5t-49.5 -25.5v-8q34 -4 55 -24.5t21 -59.5q0 -56 -35.5 -82.5t-96.5 -26.5q-54 0 -83 20.5
t-48 47.5l55 42q12 -21 27.5 -35.5t47.5 -14.5q28 0 41.5 12.5t13.5 33.5v17q0 21 -14 32t-42 11h-38v60z" />
    <glyph glyph-name="acute" unicode="&#xb4;" 
d="M391 749l-111 -167l-63 31l84 182z" />
    <glyph glyph-name="mu" unicode="&#xb5;" horiz-adv-x="530" 
d="M169 -200h-102v720h103v-331q0 -55 21.5 -84t66.5 -29q27 0 48.5 11t34.5 32t13 50v351h104v-520h-104v86h-12q-11 -47 -36 -72.5t-68 -25.5q-27 0 -49.5 12.5t-29.5 35.5h-13l23 -102v-134z" />
    <glyph glyph-name="paragraph" unicode="&#xb6;" horiz-adv-x="597" 
d="M218 -149v436q-55 0 -96 25.5t-63 72.5t-22 107q0 62 22 108t63 72t96 26h318v-78h-60v-769h-82v769h-93v-769h-83z" />
    <glyph glyph-name="periodcentered" unicode="&#xb7;" horiz-adv-x="308" 
d="M154 234q-35 0 -52 15.5t-17 44.5v20q0 29 17 44.5t52 15.5t52 -15.5t17 -44.5v-20q0 -29 -17 -44.5t-52 -15.5z" />
    <glyph glyph-name="cedilla" unicode="&#xb8;" 
d="M282 -208q-41 0 -65 13t-37 29l37 44q10 -10 23.5 -18.5t35.5 -8.5t32 8t10 25t-10 24.5t-32 7.5h-48l19 103h53l-17 -88h9q4 7 13.5 12.5t24.5 5.5q30 0 45.5 -18t15.5 -53q0 -30 -14 -49t-38.5 -28t-56.5 -9z" />
    <glyph glyph-name="onesuperior" unicode="&#xb9;" horiz-adv-x="320" 
d="M294 329h-245v60h90v250h-6l-58 -71l-49 36l77 94h111v-309h80v-60z" />
    <glyph glyph-name="ordmasculine" unicode="&#xba;" horiz-adv-x="374" 
d="M187 339q-70 0 -110 43.5t-40 140.5q0 98 40 141t110 43t110.5 -43t40.5 -141q0 -97 -40.5 -140.5t-110.5 -43.5zM187 399q36 0 53.5 21t17.5 59v88q0 39 -17.5 59.5t-53.5 20.5t-53.5 -20.5t-17.5 -59.5v-88q0 -38 17.5 -59t53.5 -21z" />
    <glyph glyph-name="guillemotright" unicode="&#xbb;" horiz-adv-x="482" 
d="M44 155l112 120v11l-112 119l32 68l170 -147v-92l-170 -147zM246 155l112 120v11l-112 119l32 68l170 -147v-92l-170 -147z" />
    <glyph glyph-name="onequarter" unicode="&#xbc;" horiz-adv-x="735" 
d="M294 329h-245v60h90v250h-6l-58 -71l-49 36l77 94h111v-309h80v-60zM189 0h-78l458 698h78zM666 0h-70v71h-162v62l136 236h96v-242h46v-56h-46v-71zM596 127v168h-8l-94 -168h102z" />
    <glyph glyph-name="onehalf" unicode="&#xbd;" horiz-adv-x="760" 
d="M294 329h-245v60h90v250h-6l-58 -71l-49 36l77 94h111v-309h80v-60zM195 0h-78l458 698h78zM729 60v-60h-254v67l108 96q30 27 44 47t14 45v13q0 21 -12.5 33t-37.5 12q-30 0 -42.5 -16t-19.5 -38l-62 24q12 37 41.5 64.5t88.5 27.5q64 0 93 -29.5t29 -80.5
q0 -46 -25 -78t-68 -67l-74 -60h177z" />
    <glyph glyph-name="threequarters" unicode="&#xbe;" horiz-adv-x="725" 
d="M111 549h34q27 0 40.5 12t13.5 29v15q0 18 -13.5 28.5t-35.5 10.5q-26 0 -41.5 -11t-28.5 -32l-48 42q20 28 47.5 44.5t73.5 16.5q57 0 90.5 -23t33.5 -74q0 -37 -20.5 -57.5t-49.5 -25.5v-8q34 -4 55 -24.5t21 -59.5q0 -56 -35.5 -82.5t-96.5 -26.5q-54 0 -83 20.5
t-48 47.5l55 42q12 -21 27.5 -35.5t47.5 -14.5q28 0 41.5 12.5t13.5 33.5v17q0 21 -14 32t-42 11h-38v60zM185 0h-78l458 698h78zM656 0h-70v71h-162v62l136 236h96v-242h46v-56h-46v-71zM586 127v168h-8l-94 -168h102z" />
    <glyph glyph-name="questiondown" unicode="&#xbf;" horiz-adv-x="433" 
d="M224 -191q-62 0 -105.5 23t-66.5 66.5t-23 103.5q0 62 22.5 104.5t60 67.5t78.5 33v96h99v-161q-73 -3 -112 -34t-39 -92v-18q0 -46 24.5 -72t65.5 -26q44 0 70.5 30t36.5 76l88 -35q-10 -43 -34.5 -80t-64.5 -59.5t-100 -22.5zM239 391q-35 0 -52 16t-17 43v22
q0 28 17 43.5t52 15.5q36 0 53 -15.5t17 -43.5v-22q0 -27 -17 -43t-53 -16z" />
    <glyph glyph-name="Agrave" unicode="&#xc0;" horiz-adv-x="596" 
d="M575 0h-107l-54 193h-235l-54 -193h-104l209 698h135zM389 280l-65 220l-22 102h-13l-22 -102l-62 -220h184zM289 749l-111 167l90 45l84 -181z" />
    <glyph glyph-name="Aacute" unicode="&#xc1;" horiz-adv-x="596" 
d="M575 0h-107l-54 193h-235l-54 -193h-104l209 698h135zM389 280l-65 220l-22 102h-13l-22 -102l-62 -220h184zM420 916l-111 -167l-63 31l84 181z" />
    <glyph glyph-name="Acircumflex" unicode="&#xc2;" horiz-adv-x="596" 
d="M575 0h-107l-54 193h-235l-54 -193h-104l209 698h135zM389 280l-65 220l-22 102h-13l-22 -102l-62 -220h184zM249 944h100l113 -152l-53 -40l-110 118l-110 -118l-53 40z" />
    <glyph glyph-name="Atilde" unicode="&#xc3;" horiz-adv-x="596" 
d="M575 0h-107l-54 193h-235l-54 -193h-104l209 698h135zM389 280l-65 220l-22 102h-13l-22 -102l-62 -220h184zM368 775q-17 0 -32 5.5t-42 19.5q-25 14 -39.5 19t-25.5 5q-16 0 -27 -6.5t-26 -20.5l-38 49q16 27 40 41.5t52 14.5q17 0 32.5 -5.5t41.5 -19.5
q25 -13 39.5 -18.5t25.5 -5.5q16 0 27.5 7t25.5 20l38 -49q-16 -26 -40 -41t-52 -15z" />
    <glyph glyph-name="Adieresis" unicode="&#xc4;" horiz-adv-x="596" 
d="M575 0h-107l-54 193h-235l-54 -193h-104l209 698h135zM389 280l-65 220l-22 102h-13l-22 -102l-62 -220h184zM209 780q-32 0 -46 13t-14 35v23q0 22 14 35t46 13t46 -13t14 -35v-23q0 -22 -14 -35t-46 -13zM389 780q-32 0 -46 13t-14 35v23q0 22 14 35t46 13t46 -13
t14 -35v-23q0 -22 -14 -35t-46 -13z" />
    <glyph glyph-name="Aring" unicode="&#xc5;" horiz-adv-x="596" 
d="M575 0h-107l-54 193h-235l-54 -193h-104l209 698h135zM389 280l-65 220l-22 102h-13l-22 -102l-62 -220h184zM299 734q-38 0 -66 16t-43 45t-15 66q0 39 15 67.5t43 44t66 15.5t66 -15.5t43 -44t15 -67.5q0 -37 -15 -66t-43 -45t-66 -16zM299 792q24 0 38.5 12t14.5 36
v43q0 24 -14.5 36t-38.5 12t-38.5 -12t-14.5 -36v-43q0 -24 14.5 -36t38.5 -12z" />
    <glyph glyph-name="AE" unicode="&#xc6;" horiz-adv-x="843" 
d="M384 0v192h-191l-83 -192h-108l310 698h478v-93h-299v-205h269v-94h-269v-213h299v-93h-406zM384 605h-14l-140 -326h154v326z" />
    <glyph glyph-name="Ccedilla" unicode="&#xc7;" horiz-adv-x="573" 
d="M313 616q-70 0 -110 -48.5t-40 -134.5v-168q0 -86 40 -134.5t110 -48.5q63 0 95.5 31.5t48.5 85.5l88 -52q-32 -74 -83.5 -115t-135.5 -43l-10 -58h9q3 7 12.5 12.5t24.5 5.5q30 0 46 -18t16 -53q0 -30 -14 -49t-39 -28t-57 -9q-40 0 -64.5 13t-37.5 29l37 44
q10 -10 24 -18.5t35 -8.5q22 0 32 8t10 25t-10 24.5t-32 7.5h-48l14 74q-69 8 -120 48t-78 116.5t-27 192.5q0 127 32 207t91.5 118t140.5 38q90 0 143 -38.5t85 -115.5l-90 -50q-15 51 -45.5 80.5t-92.5 29.5z" />
    <glyph glyph-name="Egrave" unicode="&#xc8;" horiz-adv-x="536" 
d="M482 0h-405v698h405v-93h-299v-205h270v-94h-270v-213h299v-93zM268 749l-111 167l90 45l84 -181z" />
    <glyph glyph-name="Eacute" unicode="&#xc9;" horiz-adv-x="536" 
d="M482 0h-405v698h405v-93h-299v-205h270v-94h-270v-213h299v-93zM399 916l-111 -167l-63 31l84 181z" />
    <glyph glyph-name="Ecircumflex" unicode="&#xca;" horiz-adv-x="536" 
d="M482 0h-405v698h405v-93h-299v-205h270v-94h-270v-213h299v-93zM228 944h100l113 -152l-53 -40l-110 118l-110 -118l-53 40z" />
    <glyph glyph-name="Edieresis" unicode="&#xcb;" horiz-adv-x="536" 
d="M482 0h-405v698h405v-93h-299v-205h270v-94h-270v-213h299v-93zM188 780q-32 0 -46 13t-14 35v23q0 22 14 35t46 13t46 -13t14 -35v-23q0 -22 -14 -35t-46 -13zM368 780q-32 0 -46 13t-14 35v23q0 22 14 35t46 13t46 -13t14 -35v-23q0 -22 -14 -35t-46 -13z" />
    <glyph glyph-name="Igrave" unicode="&#xcc;" horiz-adv-x="377" 
d="M327 0h-277v86h85v526h-85v86h277v-86h-85v-526h85v-86zM179 749l-111 167l90 45l84 -181z" />
    <glyph glyph-name="Iacute" unicode="&#xcd;" horiz-adv-x="377" 
d="M327 0h-277v86h85v526h-85v86h277v-86h-85v-526h85v-86zM310 916l-111 -167l-63 31l84 181z" />
    <glyph glyph-name="Icircumflex" unicode="&#xce;" horiz-adv-x="377" 
d="M327 0h-277v86h85v526h-85v86h277v-86h-85v-526h85v-86zM139 944h100l113 -152l-53 -40l-110 118l-110 -118l-53 40z" />
    <glyph glyph-name="Idieresis" unicode="&#xcf;" horiz-adv-x="377" 
d="M327 0h-277v86h85v526h-85v86h277v-86h-85v-526h85v-86zM99 780q-32 0 -46 13t-14 35v23q0 22 14 35t46 13t46 -13t14 -35v-23q0 -22 -14 -35t-46 -13zM279 780q-32 0 -46 13t-14 35v23q0 22 14 35t46 13t46 -13t14 -35v-23q0 -22 -14 -35t-46 -13z" />
    <glyph glyph-name="Eth" unicode="&#xd0;" horiz-adv-x="623" 
d="M83 0v321h-65v81h65v296h229q83 0 141.5 -36t89.5 -113t31 -200t-31 -200t-89.5 -113t-141.5 -36h-229zM189 93h124q45 0 78 20t51 59.5t18 95.5v162q0 57 -18 96t-51 59t-78 20h-124v-203h116v-81h-116v-228z" />
    <glyph glyph-name="Ntilde" unicode="&#xd1;" horiz-adv-x="644" 
d="M445 0l-208 419l-53 130h-13l8 -132v-417h-102v698h122l208 -419l54 -130h13l-8 132v417h102v-698h-123zM391 775q-17 0 -32 5.5t-42 19.5q-25 14 -39.5 19t-25.5 5q-16 0 -27 -6.5t-26 -20.5l-38 49q16 27 40 41.5t52 14.5q17 0 32.5 -5.5t41.5 -19.5q25 -13 39.5 -18.5
t25.5 -5.5q16 0 27.5 7t25.5 20l38 -49q-16 -26 -40 -41t-52 -15z" />
    <glyph glyph-name="Ograve" unicode="&#xd2;" horiz-adv-x="640" 
d="M320 -12q-84 0 -145 37.5t-93.5 117t-32.5 206.5q0 128 32.5 207t93.5 116.5t145 37.5t145 -37.5t93.5 -116.5t32.5 -207q0 -127 -32.5 -206.5t-93.5 -117t-145 -37.5zM320 82q50 0 84.5 22t53.5 63.5t19 97.5v168q0 57 -19 98t-53.5 63t-84.5 22q-49 0 -84.5 -22
t-54 -63t-18.5 -98v-168q0 -56 18.5 -97.5t54 -63.5t84.5 -22zM310 749l-111 167l90 45l84 -181z" />
    <glyph glyph-name="Oacute" unicode="&#xd3;" horiz-adv-x="640" 
d="M320 -12q-84 0 -145 37.5t-93.5 117t-32.5 206.5q0 128 32.5 207t93.5 116.5t145 37.5t145 -37.5t93.5 -116.5t32.5 -207q0 -127 -32.5 -206.5t-93.5 -117t-145 -37.5zM320 82q50 0 84.5 22t53.5 63.5t19 97.5v168q0 57 -19 98t-53.5 63t-84.5 22q-49 0 -84.5 -22
t-54 -63t-18.5 -98v-168q0 -56 18.5 -97.5t54 -63.5t84.5 -22zM441 916l-111 -167l-63 31l84 181z" />
    <glyph glyph-name="Ocircumflex" unicode="&#xd4;" horiz-adv-x="640" 
d="M320 -12q-84 0 -145 37.5t-93.5 117t-32.5 206.5q0 128 32.5 207t93.5 116.5t145 37.5t145 -37.5t93.5 -116.5t32.5 -207q0 -127 -32.5 -206.5t-93.5 -117t-145 -37.5zM320 82q50 0 84.5 22t53.5 63.5t19 97.5v168q0 57 -19 98t-53.5 63t-84.5 22q-49 0 -84.5 -22
t-54 -63t-18.5 -98v-168q0 -56 18.5 -97.5t54 -63.5t84.5 -22zM270 944h100l113 -152l-53 -40l-110 118l-110 -118l-53 40z" />
    <glyph glyph-name="Otilde" unicode="&#xd5;" horiz-adv-x="640" 
d="M320 -12q-84 0 -145 37.5t-93.5 117t-32.5 206.5q0 128 32.5 207t93.5 116.5t145 37.5t145 -37.5t93.5 -116.5t32.5 -207q0 -127 -32.5 -206.5t-93.5 -117t-145 -37.5zM320 82q50 0 84.5 22t53.5 63.5t19 97.5v168q0 57 -19 98t-53.5 63t-84.5 22q-49 0 -84.5 -22
t-54 -63t-18.5 -98v-168q0 -56 18.5 -97.5t54 -63.5t84.5 -22zM389 775q-17 0 -32 5.5t-42 19.5q-25 14 -39.5 19t-25.5 5q-16 0 -27 -6.5t-26 -20.5l-38 49q16 27 40 41.5t52 14.5q17 0 32.5 -5.5t41.5 -19.5q25 -13 39.5 -18.5t25.5 -5.5q16 0 27.5 7t25.5 20l38 -49
q-16 -26 -40 -41t-52 -15z" />
    <glyph glyph-name="Odieresis" unicode="&#xd6;" horiz-adv-x="640" 
d="M320 -12q-84 0 -145 37.5t-93.5 117t-32.5 206.5q0 128 32.5 207t93.5 116.5t145 37.5t145 -37.5t93.5 -116.5t32.5 -207q0 -127 -32.5 -206.5t-93.5 -117t-145 -37.5zM320 82q50 0 84.5 22t53.5 63.5t19 97.5v168q0 57 -19 98t-53.5 63t-84.5 22q-49 0 -84.5 -22
t-54 -63t-18.5 -98v-168q0 -56 18.5 -97.5t54 -63.5t84.5 -22zM230 780q-32 0 -46 13t-14 35v23q0 22 14 35t46 13t46 -13t14 -35v-23q0 -22 -14 -35t-46 -13zM410 780q-32 0 -46 13t-14 35v23q0 22 14 35t46 13t46 -13t14 -35v-23q0 -22 -14 -35t-46 -13z" />
    <glyph glyph-name="multiply" unicode="&#xd7;" 
d="M412 107l-141 141l-140 -141l-59 59l141 140l-141 141l59 58l140 -140l141 140l58 -58l-140 -141l140 -140z" />
    <glyph glyph-name="Oslash" unicode="&#xd8;" horiz-adv-x="640" 
d="M320 -12q-44 0 -81 10t-68 31l-47 -77l-68 44l55 90q-30 44 -46 109.5t-16 153.5q0 128 32.5 207t93.5 116.5t145 37.5q43 0 81 -10t68 -31l47 77l67 -44l-54 -90q30 -43 46 -108.5t16 -154.5q0 -127 -32.5 -206.5t-93.5 -117t-145 -37.5zM320 619q-51 0 -87 -22t-55 -63
t-19 -100v-159q-1 -24 0.5 -54t2.5 -49h13l141 241l107 172q-19 17 -45 25.5t-58 8.5zM320 79q51 0 86.5 22t54.5 63.5t19 99.5v162q2 25 0.5 53t-2.5 47h-13l-142 -241l-107 -172q21 -17 46.5 -25.5t57.5 -8.5z" />
    <glyph glyph-name="Ugrave" unicode="&#xd9;" horiz-adv-x="619" 
d="M72 698h107v-452q0 -56 12.5 -92t41 -53.5t76.5 -17.5q49 0 77.5 17.5t41 53.5t12.5 92v452h107v-435q0 -95 -23 -156t-75 -90t-140 -29t-139.5 29t-74.5 90t-23 156v435zM299 749l-111 167l90 45l84 -181z" />
    <glyph glyph-name="Uacute" unicode="&#xda;" horiz-adv-x="619" 
d="M72 698h107v-452q0 -56 12.5 -92t41 -53.5t76.5 -17.5q49 0 77.5 17.5t41 53.5t12.5 92v452h107v-435q0 -95 -23 -156t-75 -90t-140 -29t-139.5 29t-74.5 90t-23 156v435zM430 916l-111 -167l-63 31l84 181z" />
    <glyph glyph-name="Ucircumflex" unicode="&#xdb;" horiz-adv-x="619" 
d="M72 698h107v-452q0 -56 12.5 -92t41 -53.5t76.5 -17.5q49 0 77.5 17.5t41 53.5t12.5 92v452h107v-435q0 -95 -23 -156t-75 -90t-140 -29t-139.5 29t-74.5 90t-23 156v435zM259 944h100l113 -152l-53 -40l-110 118l-110 -118l-53 40z" />
    <glyph glyph-name="Udieresis" unicode="&#xdc;" horiz-adv-x="619" 
d="M72 698h107v-452q0 -56 12.5 -92t41 -53.5t76.5 -17.5q49 0 77.5 17.5t41 53.5t12.5 92v452h107v-435q0 -95 -23 -156t-75 -90t-140 -29t-139.5 29t-74.5 90t-23 156v435zM219 780q-32 0 -46 13t-14 35v23q0 22 14 35t46 13t46 -13t14 -35v-23q0 -22 -14 -35t-46 -13z
M399 780q-32 0 -46 13t-14 35v23q0 22 14 35t46 13t46 -13t14 -35v-23q0 -22 -14 -35t-46 -13z" />
    <glyph glyph-name="Yacute" unicode="&#xdd;" horiz-adv-x="553" 
d="M330 0h-107v270l-215 428h119l145 -312h13l143 312h117l-215 -428v-270zM399 916l-111 -167l-63 31l84 181z" />
    <glyph glyph-name="Thorn" unicode="&#xde;" horiz-adv-x="568" 
d="M183 0h-106v698h106v-135h170q59 0 99.5 -24t61 -70.5t20.5 -113.5q0 -66 -20.5 -112.5t-61 -71t-99.5 -24.5h-170v-147zM183 470v-229h161q25 0 42.5 9t26 27.5t8.5 46.5v63q0 29 -8.5 47t-26 27t-42.5 9h-161z" />
    <glyph glyph-name="germandbls" unicode="&#xdf;" horiz-adv-x="600" 
d="M579 157q0 -80 -44 -124.5t-125 -44.5q-57 0 -97.5 21t-67.5 59l61 59q22 -29 47.5 -43t58.5 -14q36 0 53.5 19t17.5 55q0 29 -15.5 46.5t-48.5 29.5l-27 9q-40 14 -66 33t-38.5 46.5t-12.5 68.5q0 65 37 103t107 42v14q0 72 -25 103t-86 31q-60 0 -85.5 -31t-25.5 -103
v-536h-103v435h-71v85h71v20q0 68 24 115.5t71 72t116 24.5t116 -24.5t71 -72t24 -115.5v-90h-66q-26 0 -44 -6.5t-26.5 -21.5t-8.5 -39q0 -31 15 -45.5t50 -26.5l26 -10q62 -22 89.5 -54.5t27.5 -89.5z" />
    <glyph glyph-name="agrave" unicode="&#xe0;" horiz-adv-x="497" 
d="M470 0h-66q-24 0 -42 9t-28.5 29t-10.5 53v17l19 -21h-30q-10 -46 -45.5 -72.5t-84.5 -26.5q-73 0 -110 39.5t-37 111.5q0 52 22.5 87.5t66.5 54t108 18.5h86v50q0 50 -22 74t-70 24q-40 0 -66 -18.5t-46 -52.5l-61 56q25 43 70.5 71t109.5 28q94 0 141.5 -44.5
t47.5 -133.5v-268h48v-85zM318 230h-81q-50 0 -73.5 -18t-23.5 -52v-24q0 -35 21 -51.5t55 -16.5q29 0 52 12t36.5 32.5t13.5 45.5v72zM225 582l-111 167l90 46l84 -182z" />
    <glyph glyph-name="aacute" unicode="&#xe1;" horiz-adv-x="497" 
d="M470 0h-66q-24 0 -42 9t-28.5 29t-10.5 53v17l19 -21h-30q-10 -46 -45.5 -72.5t-84.5 -26.5q-73 0 -110 39.5t-37 111.5q0 52 22.5 87.5t66.5 54t108 18.5h86v50q0 50 -22 74t-70 24q-40 0 -66 -18.5t-46 -52.5l-61 56q25 43 70.5 71t109.5 28q94 0 141.5 -44.5
t47.5 -133.5v-268h48v-85zM318 230h-81q-50 0 -73.5 -18t-23.5 -52v-24q0 -35 21 -51.5t55 -16.5q29 0 52 12t36.5 32.5t13.5 45.5v72zM356 749l-111 -167l-63 31l84 182z" />
    <glyph glyph-name="acircumflex" unicode="&#xe2;" horiz-adv-x="497" 
d="M470 0h-66q-24 0 -42 9t-28.5 29t-10.5 53v17l19 -21h-30q-10 -46 -45.5 -72.5t-84.5 -26.5q-73 0 -110 39.5t-37 111.5q0 52 22.5 87.5t66.5 54t108 18.5h86v50q0 50 -22 74t-70 24q-40 0 -66 -18.5t-46 -52.5l-61 56q25 43 70.5 71t109.5 28q94 0 141.5 -44.5
t47.5 -133.5v-268h48v-85zM318 230h-81q-50 0 -73.5 -18t-23.5 -52v-24q0 -35 21 -51.5t55 -16.5q29 0 52 12t36.5 32.5t13.5 45.5v72zM185 778h100l113 -151l-53 -41l-110 118l-110 -118l-53 41z" />
    <glyph glyph-name="atilde" unicode="&#xe3;" horiz-adv-x="497" 
d="M470 0h-66q-24 0 -42 9t-28.5 29t-10.5 53v17l19 -21h-30q-10 -46 -45.5 -72.5t-84.5 -26.5q-73 0 -110 39.5t-37 111.5q0 52 22.5 87.5t66.5 54t108 18.5h86v50q0 50 -22 74t-70 24q-40 0 -66 -18.5t-46 -52.5l-61 56q25 43 70.5 71t109.5 28q94 0 141.5 -44.5
t47.5 -133.5v-268h48v-85zM318 230h-81q-50 0 -73.5 -18t-23.5 -52v-24q0 -35 21 -51.5t55 -16.5q29 0 52 12t36.5 32.5t13.5 45.5v72zM304 609q-17 0 -32 5t-42 19q-25 14 -39.5 19.5t-25.5 5.5q-16 0 -27 -7t-26 -21l-38 50q16 26 40 40.5t52 14.5q17 0 32.5 -5t41.5 -19
q25 -13 39.5 -19t25.5 -6q16 0 27.5 7t25.5 20l38 -49q-16 -26 -40 -40.5t-52 -14.5z" />
    <glyph glyph-name="adieresis" unicode="&#xe4;" horiz-adv-x="497" 
d="M470 0h-66q-24 0 -42 9t-28.5 29t-10.5 53v17l19 -21h-30q-10 -46 -45.5 -72.5t-84.5 -26.5q-73 0 -110 39.5t-37 111.5q0 52 22.5 87.5t66.5 54t108 18.5h86v50q0 50 -22 74t-70 24q-40 0 -66 -18.5t-46 -52.5l-61 56q25 43 70.5 71t109.5 28q94 0 141.5 -44.5
t47.5 -133.5v-268h48v-85zM318 230h-81q-50 0 -73.5 -18t-23.5 -52v-24q0 -35 21 -51.5t55 -16.5q29 0 52 12t36.5 32.5t13.5 45.5v72zM145 612q-32 0 -46 13t-14 35v23q0 22 14 34.5t46 12.5t46 -12.5t14 -34.5v-23q0 -22 -14 -35t-46 -13zM325 612q-32 0 -46 13t-14 35v23
q0 22 14 34.5t46 12.5t46 -12.5t14 -34.5v-23q0 -22 -14 -35t-46 -13z" />
    <glyph glyph-name="aring" unicode="&#xe5;" horiz-adv-x="497" 
d="M470 0h-66q-24 0 -42 9t-28.5 29t-10.5 53v17l19 -21h-30q-10 -46 -45.5 -72.5t-84.5 -26.5q-73 0 -110 39.5t-37 111.5q0 52 22.5 87.5t66.5 54t108 18.5h86v50q0 50 -22 74t-70 24q-40 0 -66 -18.5t-46 -52.5l-61 56q25 43 70.5 71t109.5 28q94 0 141.5 -44.5
t47.5 -133.5v-268h48v-85zM318 230h-81q-50 0 -73.5 -18t-23.5 -52v-24q0 -35 21 -51.5t55 -16.5q29 0 52 12t36.5 32.5t13.5 45.5v72zM235 568q-38 0 -66 16t-43 45t-15 66q0 39 15.5 67.5t43 44t65.5 15.5t66 -15.5t43 -44t15 -67.5q0 -37 -15 -66t-43 -45t-66 -16z
M235 626q24 0 38.5 12t14.5 36v43q0 24 -14.5 36t-38.5 12t-38.5 -12t-14.5 -36v-43q0 -24 14.5 -36t38.5 -12z" />
    <glyph glyph-name="ae" unicode="&#xe6;" horiz-adv-x="782" 
d="M324 233h-87q-50 0 -73.5 -19.5t-23.5 -53.5v-24q0 -35 21 -51.5t55 -16.5q29 0 53.5 12t39.5 32.5t15 45.5v75zM427 301h209v23q0 42 -11 70t-33.5 42t-56.5 14t-58.5 -14t-37 -42t-12.5 -70v-23zM545 73q46 0 77 21t51 59l61 -57q-27 -48 -73.5 -78t-115.5 -30
q-40 0 -75.5 14t-60.5 39t-33 59h-12q-8 -33 -32.5 -58t-61.5 -39.5t-85 -14.5q-75 0 -112.5 39.5t-37.5 111.5q0 53 22.5 88.5t66.5 54.5t108 19h92v46q0 50 -24.5 75t-73.5 25q-40 0 -66 -18.5t-46 -52.5l-61 56q25 43 69.5 71t106.5 28q35 0 64.5 -12t50.5 -36.5
t27 -62.5h12q7 35 29.5 60t55 38.5t71.5 13.5q65 0 111 -29t70.5 -89t24.5 -156v-25h-318v-32q0 -62 31.5 -95t86.5 -33z" />
    <glyph glyph-name="ccedilla" unicode="&#xe7;" horiz-adv-x="460" 
d="M249 532q75 0 120 -34.5t65 -91.5l-85 -40q-9 39 -33 59t-67 20q-52 0 -77.5 -30.5t-25.5 -93.5v-122q0 -63 25.5 -94t77.5 -31q45 0 70.5 21.5t39.5 63.5l78 -43q-21 -58 -64 -91t-107 -36l-11 -58h9q4 7 13 12.5t25 5.5q30 0 45.5 -18t15.5 -53q0 -30 -14 -49t-39 -28
t-57 -9q-40 0 -64.5 13t-37.5 29l38 44q9 -10 23 -18.5t36 -8.5t31.5 8t9.5 25t-9.5 24.5t-31.5 7.5h-49l14 74q-84 11 -130 76t-46 194q0 142 55 207t157 65z" />
    <glyph glyph-name="egrave" unicode="&#xe8;" horiz-adv-x="501" 
d="M259 -12q-65 0 -115.5 29t-78.5 89t-28 154t26.5 154.5t75 89t114.5 28.5t113 -28.5t72 -89t25 -154.5v-26h-318v-33q0 -62 32 -95t86 -33q47 0 77.5 21t51.5 59l60 -57q-27 -48 -75 -78t-118 -30zM253 450q-34 0 -58 -14t-37 -42t-13 -70v-21h209v21q0 42 -11 70
t-33.5 42t-56.5 14zM243 582l-111 167l90 46l84 -182z" />
    <glyph glyph-name="eacute" unicode="&#xe9;" horiz-adv-x="501" 
d="M259 -12q-65 0 -115.5 29t-78.5 89t-28 154t26.5 154.5t75 89t114.5 28.5t113 -28.5t72 -89t25 -154.5v-26h-318v-33q0 -62 32 -95t86 -33q47 0 77.5 21t51.5 59l60 -57q-27 -48 -75 -78t-118 -30zM253 450q-34 0 -58 -14t-37 -42t-13 -70v-21h209v21q0 42 -11 70
t-33.5 42t-56.5 14zM374 749l-111 -167l-63 31l84 182z" />
    <glyph glyph-name="ecircumflex" unicode="&#xea;" horiz-adv-x="501" 
d="M259 -12q-65 0 -115.5 29t-78.5 89t-28 154t26.5 154.5t75 89t114.5 28.5t113 -28.5t72 -89t25 -154.5v-26h-318v-33q0 -62 32 -95t86 -33q47 0 77.5 21t51.5 59l60 -57q-27 -48 -75 -78t-118 -30zM253 450q-34 0 -58 -14t-37 -42t-13 -70v-21h209v21q0 42 -11 70
t-33.5 42t-56.5 14zM203 778h100l113 -151l-53 -41l-110 118l-110 -118l-53 41z" />
    <glyph glyph-name="edieresis" unicode="&#xeb;" horiz-adv-x="501" 
d="M259 -12q-65 0 -115.5 29t-78.5 89t-28 154t26.5 154.5t75 89t114.5 28.5t113 -28.5t72 -89t25 -154.5v-26h-318v-33q0 -62 32 -95t86 -33q47 0 77.5 21t51.5 59l60 -57q-27 -48 -75 -78t-118 -30zM253 450q-34 0 -58 -14t-37 -42t-13 -70v-21h209v21q0 42 -11 70
t-33.5 42t-56.5 14zM163 612q-32 0 -46 13t-14 35v23q0 22 14 34.5t46 12.5t46 -12.5t14 -34.5v-23q0 -22 -14 -35t-46 -13zM343 612q-32 0 -46 13t-14 35v23q0 22 14 34.5t46 12.5t46 -12.5t14 -34.5v-23q0 -22 -14 -35t-46 -13z" />
    <glyph glyph-name="igrave" unicode="&#xec;" horiz-adv-x="243" 
d="M173 0h-103v520h103v-520zM111 582l-111 167l90 46l84 -182z" />
    <glyph glyph-name="iacute" unicode="&#xed;" horiz-adv-x="243" 
d="M173 0h-103v520h103v-520zM242 749l-111 -167l-63 31l84 182z" />
    <glyph glyph-name="icircumflex" unicode="&#xee;" horiz-adv-x="243" 
d="M173 0h-103v520h103v-520zM71 778h100l99 -151l-53 -41l-96 118l-96 -118l-53 41z" />
    <glyph glyph-name="idieresis" unicode="&#xef;" horiz-adv-x="243" 
d="M173 0h-103v520h103v-520zM36 612q-32 0 -46 13t-14 35v23q0 22 14 34.5t46 12.5q31 0 45 -12.5t14 -34.5v-23q0 -22 -14 -35t-45 -13zM206 612q-31 0 -45 13t-14 35v23q0 22 14 34.5t45 12.5q32 0 46 -12.5t14 -34.5v-23q0 -22 -14 -35t-46 -13z" />
    <glyph glyph-name="eth" unicode="&#xf0;" horiz-adv-x="520" 
d="M372 752l32 -47l-69 -47q42 -44 73.5 -102.5t49.5 -131.5t18 -162q0 -94 -25.5 -155t-74.5 -90t-119 -29q-71 0 -120 29.5t-74 88t-25 143.5q0 83 22.5 139.5t64.5 85t100 28.5q48 0 78 -23.5t46 -66.5h12q-10 51 -37 101t-66 94l-85 -57l-32 46l76 52q-27 26 -60 49.5
t-69 42.5h148q14 -9 28.5 -19.5t28.5 -22.5zM257 74q36 0 60 13.5t37 42t13 73.5v84q0 45 -13 73.5t-37 42t-60 13.5q-35 0 -60 -13.5t-37.5 -42t-12.5 -73.5v-84q0 -45 12.5 -73.5t37.5 -42t60 -13.5z" />
    <glyph glyph-name="ntilde" unicode="&#xf1;" horiz-adv-x="525" 
d="M173 0h-103v520h103v-86h12q15 44 45 71t83 27q70 0 108.5 -47.5t38.5 -139.5v-345h-103v331q0 55 -21 84t-66 29q-26 0 -48 -11.5t-35.5 -32t-13.5 -49.5v-351zM335 609q-17 0 -32 5t-42 19q-25 14 -39.5 19.5t-25.5 5.5q-16 0 -27 -7t-26 -21l-38 50q16 26 40 40.5
t52 14.5q17 0 32.5 -5t41.5 -19q25 -13 39.5 -19t25.5 -6q16 0 27.5 7t25.5 20l38 -49q-16 -26 -40 -40.5t-52 -14.5z" />
    <glyph glyph-name="ograve" unicode="&#xf2;" horiz-adv-x="506" 
d="M253 -12q-66 0 -114.5 28.5t-75 88.5t-26.5 155q0 94 26.5 154.5t75 89t114.5 28.5t114.5 -28.5t75 -89t26.5 -154.5q0 -95 -26.5 -155t-75 -88.5t-114.5 -28.5zM253 74q52 0 79.5 31t27.5 94v122q0 63 -27.5 93.5t-79.5 30.5q-51 0 -79 -30.5t-28 -93.5v-122
q0 -63 28 -94t79 -31zM243 582l-111 167l90 46l84 -182z" />
    <glyph glyph-name="oacute" unicode="&#xf3;" horiz-adv-x="506" 
d="M253 -12q-66 0 -114.5 28.5t-75 88.5t-26.5 155q0 94 26.5 154.5t75 89t114.5 28.5t114.5 -28.5t75 -89t26.5 -154.5q0 -95 -26.5 -155t-75 -88.5t-114.5 -28.5zM253 74q52 0 79.5 31t27.5 94v122q0 63 -27.5 93.5t-79.5 30.5q-51 0 -79 -30.5t-28 -93.5v-122
q0 -63 28 -94t79 -31zM374 749l-111 -167l-63 31l84 182z" />
    <glyph glyph-name="ocircumflex" unicode="&#xf4;" horiz-adv-x="506" 
d="M253 -12q-66 0 -114.5 28.5t-75 88.5t-26.5 155q0 94 26.5 154.5t75 89t114.5 28.5t114.5 -28.5t75 -89t26.5 -154.5q0 -95 -26.5 -155t-75 -88.5t-114.5 -28.5zM253 74q52 0 79.5 31t27.5 94v122q0 63 -27.5 93.5t-79.5 30.5q-51 0 -79 -30.5t-28 -93.5v-122
q0 -63 28 -94t79 -31zM203 778h100l113 -151l-53 -41l-110 118l-110 -118l-53 41z" />
    <glyph glyph-name="otilde" unicode="&#xf5;" horiz-adv-x="506" 
d="M253 -12q-66 0 -114.5 28.5t-75 88.5t-26.5 155q0 94 26.5 154.5t75 89t114.5 28.5t114.5 -28.5t75 -89t26.5 -154.5q0 -95 -26.5 -155t-75 -88.5t-114.5 -28.5zM253 74q52 0 79.5 31t27.5 94v122q0 63 -27.5 93.5t-79.5 30.5q-51 0 -79 -30.5t-28 -93.5v-122
q0 -63 28 -94t79 -31zM322 609q-17 0 -32 5t-42 19q-25 14 -39.5 19.5t-25.5 5.5q-16 0 -27 -7t-26 -21l-38 50q16 26 40 40.5t52 14.5q17 0 32.5 -5t41.5 -19q25 -13 39.5 -19t25.5 -6q16 0 27.5 7t25.5 20l38 -49q-16 -26 -40 -40.5t-52 -14.5z" />
    <glyph glyph-name="odieresis" unicode="&#xf6;" horiz-adv-x="506" 
d="M253 -12q-66 0 -114.5 28.5t-75 88.5t-26.5 155q0 94 26.5 154.5t75 89t114.5 28.5t114.5 -28.5t75 -89t26.5 -154.5q0 -95 -26.5 -155t-75 -88.5t-114.5 -28.5zM253 74q52 0 79.5 31t27.5 94v122q0 63 -27.5 93.5t-79.5 30.5q-51 0 -79 -30.5t-28 -93.5v-122
q0 -63 28 -94t79 -31zM163 612q-32 0 -46 13t-14 35v23q0 22 14 34.5t46 12.5t46 -12.5t14 -34.5v-23q0 -22 -14 -35t-46 -13zM343 612q-32 0 -46 13t-14 35v23q0 22 14 34.5t46 12.5t46 -12.5t14 -34.5v-23q0 -22 -14 -35t-46 -13z" />
    <glyph glyph-name="divide" unicode="&#xf7;" 
d="M482 264h-424v84h424v-84zM270 54q-36 0 -51 15t-15 38v22q0 23 15 38t51 15q37 0 51.5 -15t14.5 -38v-23q0 -22 -14.5 -37t-51.5 -15zM270 430q-36 0 -51 15t-15 38v22q0 24 15 38.5t51 14.5q37 0 51.5 -14.5t14.5 -38.5v-22q0 -23 -14.5 -38t-51.5 -15z" />
    <glyph glyph-name="oslash" unicode="&#xf8;" horiz-adv-x="509" 
d="M75 -41l-56 42l58 78q-20 32 -30 77t-10 104q0 94 26.5 154.5t75 89t114.5 28.5q37 0 69.5 -9.5t58.5 -29.5l50 68l56 -42l-58 -78q19 -33 29.5 -78t10.5 -103q0 -95 -26.5 -155t-75 -88.5t-114.5 -28.5q-37 0 -69.5 9.5t-57.5 28.5zM253 71q53 0 81 31t28 94v70
q2 20 3 34t2 28.5t2 33.5h-10l-68 -103l-116 -160q13 -13 33 -20.5t45 -7.5zM253 448q-53 0 -81.5 -30.5t-28.5 -93.5v-71q0 -19 -1.5 -33t-2.5 -28t-3 -34h11l68 103l116 160q-13 13 -33 20t-45 7z" />
    <glyph glyph-name="ugrave" unicode="&#xf9;" horiz-adv-x="525" 
d="M352 0v86h-13q-14 -44 -44.5 -71t-84.5 -27q-69 0 -107.5 47.5t-38.5 139.5v345h103v-331q0 -55 22 -84t66 -29q27 0 48.5 11t35 32t13.5 50v351h103v-520h-103zM250 582l-111 167l90 46l84 -182z" />
    <glyph glyph-name="uacute" unicode="&#xfa;" horiz-adv-x="525" 
d="M352 0v86h-13q-14 -44 -44.5 -71t-84.5 -27q-69 0 -107.5 47.5t-38.5 139.5v345h103v-331q0 -55 22 -84t66 -29q27 0 48.5 11t35 32t13.5 50v351h103v-520h-103zM381 749l-111 -167l-63 31l84 182z" />
    <glyph glyph-name="ucircumflex" unicode="&#xfb;" horiz-adv-x="525" 
d="M352 0v86h-13q-14 -44 -44.5 -71t-84.5 -27q-69 0 -107.5 47.5t-38.5 139.5v345h103v-331q0 -55 22 -84t66 -29q27 0 48.5 11t35 32t13.5 50v351h103v-520h-103zM210 778h100l113 -151l-53 -41l-110 118l-110 -118l-53 41z" />
    <glyph glyph-name="udieresis" unicode="&#xfc;" horiz-adv-x="525" 
d="M352 0v86h-13q-14 -44 -44.5 -71t-84.5 -27q-69 0 -107.5 47.5t-38.5 139.5v345h103v-331q0 -55 22 -84t66 -29q27 0 48.5 11t35 32t13.5 50v351h103v-520h-103zM170 612q-32 0 -46 13t-14 35v23q0 22 14 34.5t46 12.5t46 -12.5t14 -34.5v-23q0 -22 -14 -35t-46 -13z
M350 612q-32 0 -46 13t-14 35v23q0 22 14 34.5t46 12.5t46 -12.5t14 -34.5v-23q0 -22 -14 -35t-46 -13z" />
    <glyph glyph-name="yacute" unicode="&#xfd;" horiz-adv-x="470" 
d="M277 247l77 273h102l-201 -638q-9 -32 -23.5 -49.5t-37 -25t-56.5 -7.5h-72v85h94l24 87l-173 548h105l78 -273l36 -158h11zM356 749l-111 -167l-63 31l84 182z" />
    <glyph glyph-name="thorn" unicode="&#xfe;" horiz-adv-x="535" 
d="M70 -200v940h103v-305h12q13 46 46.5 71.5t79.5 25.5q62 0 102 -32t60.5 -93t20.5 -147q0 -87 -20 -147.5t-60.5 -92.5t-102.5 -32q-46 0 -79.5 25.5t-46.5 71.5h-12v-285h-103zM274 76q53 0 82 33t29 93v116q0 60 -29 93t-82 33q-29 0 -52 -10.5t-36 -29.5t-13 -46v-196
q0 -27 13 -46t36 -29.5t52 -10.5z" />
    <glyph glyph-name="ydieresis" unicode="&#xff;" horiz-adv-x="470" 
d="M277 247l77 273h102l-201 -638q-9 -32 -23.5 -49.5t-37 -25t-56.5 -7.5h-72v85h94l24 87l-173 548h105l78 -273l36 -158h11zM145 612q-32 0 -46 13t-14 35v23q0 22 14 34.5t46 12.5t46 -12.5t14 -34.5v-23q0 -22 -14 -35t-46 -13zM325 612q-32 0 -46 13t-14 35v23
q0 22 14 34.5t46 12.5t46 -12.5t14 -34.5v-23q0 -22 -14 -35t-46 -13z" />
    <glyph glyph-name="Amacron" unicode="&#x100;" horiz-adv-x="596" 
d="M575 0h-107l-54 193h-235l-54 -193h-104l209 698h135zM389 280l-65 220l-22 102h-13l-22 -102l-62 -220h184zM167 799v80h264v-80h-264z" />
    <glyph glyph-name="amacron" unicode="&#x101;" horiz-adv-x="497" 
d="M470 0h-66q-24 0 -42 9t-28.5 29t-10.5 53v17l19 -21h-30q-10 -46 -45.5 -72.5t-84.5 -26.5q-73 0 -110 39.5t-37 111.5q0 52 22.5 87.5t66.5 54t108 18.5h86v50q0 50 -22 74t-70 24q-40 0 -66 -18.5t-46 -52.5l-61 56q25 43 70.5 71t109.5 28q94 0 141.5 -44.5
t47.5 -133.5v-268h48v-85zM318 230h-81q-50 0 -73.5 -18t-23.5 -52v-24q0 -35 21 -51.5t55 -16.5q29 0 52 12t36.5 32.5t13.5 45.5v72zM103 633v80h264v-80h-264z" />
    <glyph glyph-name="Abreve" unicode="&#x102;" horiz-adv-x="596" 
d="M575 0h-107l-54 193h-235l-54 -193h-104l209 698h135zM389 280l-65 220l-22 102h-13l-22 -102l-62 -220h184zM299 755q-29 0 -52 7.5t-42 24.5t-34 45t-29 69l57 29l19 -38q18 -35 36 -48t45 -13q28 0 46 13.5t35 47.5l19 38l57 -29q-18 -54 -40 -86t-50.5 -46t-66.5 -14
z" />
    <glyph glyph-name="abreve" unicode="&#x103;" horiz-adv-x="497" 
d="M470 0h-66q-24 0 -42 9t-28.5 29t-10.5 53v17l19 -21h-30q-10 -46 -45.5 -72.5t-84.5 -26.5q-73 0 -110 39.5t-37 111.5q0 52 22.5 87.5t66.5 54t108 18.5h86v50q0 50 -22 74t-70 24q-40 0 -66 -18.5t-46 -52.5l-61 56q25 43 70.5 71t109.5 28q94 0 141.5 -44.5
t47.5 -133.5v-268h48v-85zM318 230h-81q-50 0 -73.5 -18t-23.5 -52v-24q0 -35 21 -51.5t55 -16.5q29 0 52 12t36.5 32.5t13.5 45.5v72zM235 589q-29 0 -52 7.5t-42 24.5t-34 45t-29 68l57 29l19 -37q18 -35 36 -48t45 -13q28 0 46 13.5t35 47.5l19 37l57 -29
q-14 -40 -29.5 -68t-34.5 -45t-41.5 -24.5t-51.5 -7.5z" />
    <glyph glyph-name="Aogonek" unicode="&#x104;" horiz-adv-x="596" 
d="M21 0l209 698h135l210 -698q-37 -25 -58.5 -44t-31 -36t-9.5 -35q0 -15 9 -24t26 -9q16 0 27.5 6.5t19.5 16.5l39 -40q-14 -18 -39 -31t-56 -13q-32 0 -55 9t-35 25.5t-12 40.5t13 46t39.5 42.5t64.5 36.5l-1 9h-48l-54 193h-235l-54 -193h-104zM389 280l-65 220l-22 102
h-13l-22 -102l-62 -220h184z" />
    <glyph glyph-name="aogonek" unicode="&#x105;" horiz-adv-x="497" 
d="M470 85v-85q-37 -24 -58.5 -43.5t-31 -36.5t-9.5 -35q0 -16 9.5 -24.5t25.5 -8.5q15 0 27 6.5t20 16.5l39 -40q-14 -18 -39.5 -31t-55.5 -13q-31 0 -54 8.5t-36 25t-13 41.5q0 40 33 71t86 54l-12 32l34 -23h-31q-24 0 -42 9t-28.5 29t-10.5 53v17l19 -21h-30
q-10 -46 -45.5 -72.5t-84.5 -26.5q-73 0 -110 39.5t-37 111.5q0 52 22.5 87.5t66.5 54t108 18.5h86v50q0 50 -22 74t-70 24q-40 0 -66 -18.5t-46 -52.5l-61 56q25 43 70.5 71t109.5 28q94 0 141.5 -44.5t47.5 -133.5v-268h48zM318 230h-81q-50 0 -73.5 -18t-23.5 -52v-24
q0 -35 21 -51.5t55 -16.5q29 0 52 12t36.5 32.5t13.5 45.5v72z" />
    <glyph glyph-name="Cacute" unicode="&#x106;" horiz-adv-x="573" 
d="M313 -12q-81 0 -140.5 37t-91.5 116t-32 206t32 207t91.5 118t140.5 38q90 0 143 -38.5t85 -115.5l-90 -50q-15 51 -45.5 80.5t-92.5 29.5q-70 0 -110 -48.5t-40 -134.5v-168q0 -86 40 -134.5t110 -48.5q63 0 95.5 31.5t48.5 85.5l88 -52q-33 -77 -87.5 -118t-144.5 -41z
M434 916l-111 -167l-63 31l84 181z" />
    <glyph glyph-name="cacute" unicode="&#x107;" horiz-adv-x="460" 
d="M249 -12q-102 0 -157 65t-55 207t55 207t157 65q75 0 120 -34.5t65 -91.5l-85 -40q-9 39 -33 59t-67 20q-52 0 -77.5 -30.5t-25.5 -93.5v-122q0 -63 25.5 -94t77.5 -31q45 0 70.5 21.5t39.5 63.5l78 -43q-22 -61 -69 -94.5t-119 -33.5zM368 749l-111 -167l-63 31l84 182z
" />
    <glyph glyph-name="Ccircumflex" unicode="&#x108;" horiz-adv-x="573" 
d="M313 -12q-81 0 -140.5 37t-91.5 116t-32 206t32 207t91.5 118t140.5 38q90 0 143 -38.5t85 -115.5l-90 -50q-15 51 -45.5 80.5t-92.5 29.5q-70 0 -110 -48.5t-40 -134.5v-168q0 -86 40 -134.5t110 -48.5q63 0 95.5 31.5t48.5 85.5l88 -52q-33 -77 -87.5 -118t-144.5 -41z
M263 944h100l113 -152l-53 -40l-110 118l-110 -118l-53 40z" />
    <glyph glyph-name="ccircumflex" unicode="&#x109;" horiz-adv-x="460" 
d="M249 -12q-102 0 -157 65t-55 207t55 207t157 65q75 0 120 -34.5t65 -91.5l-85 -40q-9 39 -33 59t-67 20q-52 0 -77.5 -30.5t-25.5 -93.5v-122q0 -63 25.5 -94t77.5 -31q45 0 70.5 21.5t39.5 63.5l78 -43q-22 -61 -69 -94.5t-119 -33.5zM197 778h100l113 -151l-53 -41
l-110 118l-110 -118l-53 41z" />
    <glyph glyph-name="Cdotaccent" unicode="&#x10a;" horiz-adv-x="573" 
d="M313 -12q-81 0 -140.5 37t-91.5 116t-32 206t32 207t91.5 118t140.5 38q90 0 143 -38.5t85 -115.5l-90 -50q-15 51 -45.5 80.5t-92.5 29.5q-70 0 -110 -48.5t-40 -134.5v-168q0 -86 40 -134.5t110 -48.5q63 0 95.5 31.5t48.5 85.5l88 -52q-33 -77 -87.5 -118t-144.5 -41z
M313 780q-32 0 -46.5 13.5t-14.5 35.5v21q0 22 14.5 35.5t46.5 13.5t46.5 -13.5t14.5 -35.5v-21q0 -22 -14.5 -35.5t-46.5 -13.5z" />
    <glyph glyph-name="cdotaccent" unicode="&#x10b;" horiz-adv-x="460" 
d="M249 -12q-102 0 -157 65t-55 207t55 207t157 65q75 0 120 -34.5t65 -91.5l-85 -40q-9 39 -33 59t-67 20q-52 0 -77.5 -30.5t-25.5 -93.5v-122q0 -63 25.5 -94t77.5 -31q45 0 70.5 21.5t39.5 63.5l78 -43q-22 -61 -69 -94.5t-119 -33.5zM247 611q-32 0 -46.5 13t-14.5 36
v21q0 22 14.5 35t46.5 13t46.5 -13t14.5 -35v-21q0 -23 -14.5 -36t-46.5 -13z" />
    <glyph glyph-name="Ccaron" unicode="&#x10c;" horiz-adv-x="573" 
d="M313 -12q-81 0 -140.5 37t-91.5 116t-32 206t32 207t91.5 118t140.5 38q90 0 143 -38.5t85 -115.5l-90 -50q-15 51 -45.5 80.5t-92.5 29.5q-70 0 -110 -48.5t-40 -134.5v-168q0 -86 40 -134.5t110 -48.5q63 0 95.5 31.5t48.5 85.5l88 -52q-33 -77 -87.5 -118t-144.5 -41z
M363 760h-100l-113 152l53 40l110 -118l110 118l53 -40z" />
    <glyph glyph-name="ccaron" unicode="&#x10d;" horiz-adv-x="460" 
d="M249 -12q-102 0 -157 65t-55 207t55 207t157 65q75 0 120 -34.5t65 -91.5l-85 -40q-9 39 -33 59t-67 20q-52 0 -77.5 -30.5t-25.5 -93.5v-122q0 -63 25.5 -94t77.5 -31q45 0 70.5 21.5t39.5 63.5l78 -43q-22 -61 -69 -94.5t-119 -33.5zM297 590h-100l-113 152l53 41
l110 -118l110 118l53 -41z" />
    <glyph glyph-name="Dcaron" unicode="&#x10e;" horiz-adv-x="617" 
d="M77 0v698h230q82 0 140.5 -36t89.5 -113t31 -200t-31 -200t-89.5 -113t-140.5 -36h-230zM183 93h124q45 0 78 20t51 59.5t18 95.5v162q0 57 -18 96t-51 59t-78 20h-124v-512zM338 760h-100l-113 152l53 40l110 -118l110 118l53 -40z" />
    <glyph glyph-name="dcaron" unicode="&#x10f;" horiz-adv-x="562" 
d="M362 0v85h-12q-13 -46 -46.5 -71.5t-79.5 -25.5q-61 0 -102 32t-61 92.5t-20 147.5q0 86 20.5 147t61 93t101.5 32q46 0 79.5 -25.5t46.5 -71.5h12v305h104v-740h-104zM261 76q29 0 52 10.5t36 29.5t13 46v196q0 27 -13 46t-36 29.5t-52 10.5q-53 0 -82 -33t-29 -93v-116
q0 -60 29 -93t82 -33zM636 740l-54 -198h-63l8 198h109z" />
    <glyph glyph-name="Dcroat" unicode="&#x110;" horiz-adv-x="623" 
d="M83 0v321h-65v81h65v296h229q83 0 141.5 -36t89.5 -113t31 -200t-31 -200t-89.5 -113t-141.5 -36h-229zM189 93h124q45 0 78 20t51 59.5t18 95.5v162q0 57 -18 96t-51 59t-78 20h-124v-203h116v-81h-116v-228z" />
    <glyph glyph-name="dcroat" unicode="&#x111;" horiz-adv-x="535" 
d="M362 0v85h-12q-13 -46 -46.5 -71.5t-79.5 -25.5q-61 0 -102 32t-61 92.5t-20 147.5q0 86 20.5 147t61 93t101.5 32q46 0 79.5 -25.5t46.5 -71.5h12v172h-131v67h131v66h104v-66h57v-67h-57v-607h-104zM261 76q29 0 52 10.5t36 29.5t13 46v196q0 27 -13 46t-36 29.5
t-52 10.5q-53 0 -82 -33t-29 -93v-116q0 -60 29 -93t82 -33z" />
    <glyph glyph-name="Emacron" unicode="&#x112;" horiz-adv-x="536" 
d="M482 0h-405v698h405v-93h-299v-205h270v-94h-270v-213h299v-93zM146 799v80h264v-80h-264z" />
    <glyph glyph-name="emacron" unicode="&#x113;" horiz-adv-x="501" 
d="M259 -12q-65 0 -115.5 29t-78.5 89t-28 154t26.5 154.5t75 89t114.5 28.5t113 -28.5t72 -89t25 -154.5v-26h-318v-33q0 -62 32 -95t86 -33q47 0 77.5 21t51.5 59l60 -57q-27 -48 -75 -78t-118 -30zM253 450q-34 0 -58 -14t-37 -42t-13 -70v-21h209v21q0 42 -11 70
t-33.5 42t-56.5 14zM121 633v80h264v-80h-264z" />
    <glyph glyph-name="Ebreve" unicode="&#x114;" horiz-adv-x="536" 
d="M482 0h-405v698h405v-93h-299v-205h270v-94h-270v-213h299v-93zM278 755q-29 0 -52 7.5t-42 24.5t-34 45t-29 69l57 29l19 -38q18 -35 36 -48t45 -13q28 0 46 13.5t35 47.5l19 38l57 -29q-18 -54 -40 -86t-50.5 -46t-66.5 -14z" />
    <glyph glyph-name="ebreve" unicode="&#x115;" horiz-adv-x="501" 
d="M259 -12q-65 0 -115.5 29t-78.5 89t-28 154t26.5 154.5t75 89t114.5 28.5t113 -28.5t72 -89t25 -154.5v-26h-318v-33q0 -62 32 -95t86 -33q47 0 77.5 21t51.5 59l60 -57q-27 -48 -75 -78t-118 -30zM253 450q-34 0 -58 -14t-37 -42t-13 -70v-21h209v21q0 42 -11 70
t-33.5 42t-56.5 14zM253 589q-29 0 -52 7.5t-42 24.5t-34 45t-29 68l57 29l19 -37q18 -35 36 -48t45 -13q28 0 46 13.5t35 47.5l19 37l57 -29q-14 -40 -29.5 -68t-34.5 -45t-41.5 -24.5t-51.5 -7.5z" />
    <glyph glyph-name="Edotaccent" unicode="&#x116;" horiz-adv-x="536" 
d="M482 0h-405v698h405v-93h-299v-205h270v-94h-270v-213h299v-93zM278 780q-32 0 -46.5 13.5t-14.5 35.5v21q0 22 14.5 35.5t46.5 13.5t46.5 -13.5t14.5 -35.5v-21q0 -22 -14.5 -35.5t-46.5 -13.5z" />
    <glyph glyph-name="edotaccent" unicode="&#x117;" horiz-adv-x="501" 
d="M259 -12q-65 0 -115.5 29t-78.5 89t-28 154t26.5 154.5t75 89t114.5 28.5t113 -28.5t72 -89t25 -154.5v-26h-318v-33q0 -62 32 -95t86 -33q47 0 77.5 21t51.5 59l60 -57q-27 -48 -75 -78t-118 -30zM253 450q-34 0 -58 -14t-37 -42t-13 -70v-21h209v21q0 42 -11 70
t-33.5 42t-56.5 14zM253 611q-32 0 -46.5 13t-14.5 36v21q0 22 14.5 35t46.5 13t46.5 -13t14.5 -35v-21q0 -23 -14.5 -36t-46.5 -13z" />
    <glyph glyph-name="Eogonek" unicode="&#x118;" horiz-adv-x="536" 
d="M77 0v698h405v-93h-299v-205h270v-94h-270v-213h299v-93q-37 -25 -58.5 -44t-31 -36t-9.5 -35q0 -15 9 -24t26 -9q16 0 27.5 6.5t19.5 16.5l39 -40q-14 -20 -40 -32t-55 -12q-32 0 -55 9t-35 25.5t-12 40.5q0 37 30 68t88 57l-2 9h-346z" />
    <glyph glyph-name="eogonek" unicode="&#x119;" horiz-adv-x="501" 
d="M294 -209q-31 0 -54 8.5t-35.5 25t-12.5 41.5q0 24 12.5 45t38 39.5t63.5 35.5l-2 7q-11 -2 -22 -3.5t-23 -1.5q-65 0 -115.5 29t-78.5 89t-28 154t26.5 154.5t75 89t114.5 28.5t113 -28.5t72 -89t25 -154.5v-26h-318v-33q0 -62 32 -95t86 -33q47 0 77.5 21t51.5 59
l60 -57q-11 -19 -27 -36t-41 -36q-34 -30 -56.5 -51.5t-35.5 -36.5t-18.5 -27t-5.5 -24q0 -16 9.5 -24.5t25.5 -8.5q15 0 27 6.5t20 16.5l39 -40q-14 -18 -39 -31t-56 -13zM145 303h209v21q0 42 -11 70t-33.5 42t-56.5 14t-58 -14t-37 -42t-13 -70v-21z" />
    <glyph glyph-name="Ecaron" unicode="&#x11a;" horiz-adv-x="536" 
d="M482 0h-405v698h405v-93h-299v-205h270v-94h-270v-213h299v-93zM328 760h-100l-113 152l53 40l110 -118l110 118l53 -40z" />
    <glyph glyph-name="ecaron" unicode="&#x11b;" horiz-adv-x="501" 
d="M259 -12q-65 0 -115.5 29t-78.5 89t-28 154t26.5 154.5t75 89t114.5 28.5t113 -28.5t72 -89t25 -154.5v-26h-318v-33q0 -62 32 -95t86 -33q47 0 77.5 21t51.5 59l60 -57q-27 -48 -75 -78t-118 -30zM253 450q-34 0 -58 -14t-37 -42t-13 -70v-21h209v21q0 42 -11 70
t-33.5 42t-56.5 14zM303 590h-100l-113 152l53 41l110 -118l110 118l53 -41z" />
    <glyph glyph-name="Gcircumflex" unicode="&#x11c;" horiz-adv-x="635" 
d="M479 0v103h-12q-10 -49 -51.5 -82t-115.5 -33q-71 0 -128 37t-90 116t-33 207t32.5 207.5t93.5 117t145 37.5q92 0 150.5 -40t90.5 -114l-87 -51q-18 52 -55.5 81.5t-99.5 29.5q-48 0 -83 -22t-54 -63t-19 -98v-168q0 -56 19 -97.5t54.5 -63t84.5 -21.5q42 0 75.5 15.5
t53.5 45.5t20 73v61h-129v91h232v-369h-94zM272 944h100l113 -152l-53 -40l-110 118l-110 -118l-53 40z" />
    <glyph glyph-name="gcircumflex" unicode="&#x11d;" horiz-adv-x="492" 
d="M484 -51q0 -54 -23.5 -90t-76.5 -53.5t-141 -17.5q-79 0 -126 14.5t-67.5 43t-20.5 68.5t22 63.5t59 29.5v17q-27 10 -41 30t-14 48q0 35 22.5 56.5t60.5 27.5v12q-41 21 -62.5 60t-21.5 96t21.5 96.5t63.5 60t104 20.5q21 0 42 -2.5t38 -8.5h150v-76h-123v-10
q40 -5 60.5 -30t20.5 -62q0 -51 -21.5 -88t-63.5 -57t-103 -20q-19 0 -35 2t-31 5q-19 -6 -29.5 -21t-10.5 -31q0 -19 14 -29.5t44 -10.5h125q88 0 126 -37t38 -106zM243 252q44 0 66.5 22.5t22.5 65.5v28q0 45 -22.5 67t-66.5 22t-67 -22t-23 -67v-28q0 -43 23 -65.5
t67 -22.5zM387 -61q0 29 -19 45t-64 16h-160q-15 -11 -22.5 -26.5t-7.5 -35.5q0 -35 23 -54.5t76 -19.5h62q59 0 85.5 18.5t26.5 56.5zM197 778h100l113 -151l-53 -41l-110 118l-110 -118l-53 41z" />
    <glyph glyph-name="Gbreve" unicode="&#x11e;" horiz-adv-x="635" 
d="M479 0v103h-12q-10 -49 -51.5 -82t-115.5 -33q-71 0 -128 37t-90 116t-33 207t32.5 207.5t93.5 117t145 37.5q92 0 150.5 -40t90.5 -114l-87 -51q-18 52 -55.5 81.5t-99.5 29.5q-48 0 -83 -22t-54 -63t-19 -98v-168q0 -56 19 -97.5t54.5 -63t84.5 -21.5q42 0 75.5 15.5
t53.5 45.5t20 73v61h-129v91h232v-369h-94zM322 755q-29 0 -52 7.5t-42 24.5t-34 45t-29 69l57 29l19 -38q18 -35 36 -48t45 -13q28 0 46 13.5t35 47.5l19 38l57 -29q-18 -54 -40 -86t-50.5 -46t-66.5 -14z" />
    <glyph glyph-name="gbreve" unicode="&#x11f;" horiz-adv-x="492" 
d="M484 -51q0 -54 -23.5 -90t-76.5 -53.5t-141 -17.5q-79 0 -126 14.5t-67.5 43t-20.5 68.5t22 63.5t59 29.5v17q-27 10 -41 30t-14 48q0 35 22.5 56.5t60.5 27.5v12q-41 21 -62.5 60t-21.5 96t21.5 96.5t63.5 60t104 20.5q21 0 42 -2.5t38 -8.5h150v-76h-123v-10
q40 -5 60.5 -30t20.5 -62q0 -51 -21.5 -88t-63.5 -57t-103 -20q-19 0 -35 2t-31 5q-19 -6 -29.5 -21t-10.5 -31q0 -19 14 -29.5t44 -10.5h125q88 0 126 -37t38 -106zM243 252q44 0 66.5 22.5t22.5 65.5v28q0 45 -22.5 67t-66.5 22t-67 -22t-23 -67v-28q0 -43 23 -65.5
t67 -22.5zM387 -61q0 29 -19 45t-64 16h-160q-15 -11 -22.5 -26.5t-7.5 -35.5q0 -35 23 -54.5t76 -19.5h62q59 0 85.5 18.5t26.5 56.5zM247 589q-29 0 -52 7.5t-42 24.5t-34 45t-29 68l57 29l19 -37q18 -35 36 -48t45 -13q28 0 46 13.5t35 47.5l19 37l57 -29
q-14 -40 -29.5 -68t-34.5 -45t-41.5 -24.5t-51.5 -7.5z" />
    <glyph glyph-name="Gdotaccent" unicode="&#x120;" horiz-adv-x="635" 
d="M479 0v103h-12q-10 -49 -51.5 -82t-115.5 -33q-71 0 -128 37t-90 116t-33 207t32.5 207.5t93.5 117t145 37.5q92 0 150.5 -40t90.5 -114l-87 -51q-18 52 -55.5 81.5t-99.5 29.5q-48 0 -83 -22t-54 -63t-19 -98v-168q0 -56 19 -97.5t54.5 -63t84.5 -21.5q42 0 75.5 15.5
t53.5 45.5t20 73v61h-129v91h232v-369h-94zM322 780q-32 0 -46.5 13.5t-14.5 35.5v21q0 22 14.5 35.5t46.5 13.5t46.5 -13.5t14.5 -35.5v-21q0 -22 -14.5 -35.5t-46.5 -13.5z" />
    <glyph glyph-name="gdotaccent" unicode="&#x121;" horiz-adv-x="492" 
d="M484 -51q0 -54 -23.5 -90t-76.5 -53.5t-141 -17.5q-79 0 -126 14.5t-67.5 43t-20.5 68.5t22 63.5t59 29.5v17q-27 10 -41 30t-14 48q0 35 22.5 56.5t60.5 27.5v12q-41 21 -62.5 60t-21.5 96t21.5 96.5t63.5 60t104 20.5q21 0 42 -2.5t38 -8.5h150v-76h-123v-10
q40 -5 60.5 -30t20.5 -62q0 -51 -21.5 -88t-63.5 -57t-103 -20q-19 0 -35 2t-31 5q-19 -6 -29.5 -21t-10.5 -31q0 -19 14 -29.5t44 -10.5h125q88 0 126 -37t38 -106zM243 252q44 0 66.5 22.5t22.5 65.5v28q0 45 -22.5 67t-66.5 22t-67 -22t-23 -67v-28q0 -43 23 -65.5
t67 -22.5zM387 -61q0 29 -19 45t-64 16h-160q-15 -11 -22.5 -26.5t-7.5 -35.5q0 -35 23 -54.5t76 -19.5h62q59 0 85.5 18.5t26.5 56.5zM247 611q-32 0 -46.5 13t-14.5 36v21q0 22 14.5 35t46.5 13t46.5 -13t14.5 -35v-21q0 -23 -14.5 -36t-46.5 -13z" />
    <glyph glyph-name="Gcommaaccent" unicode="&#x122;" horiz-adv-x="635" 
d="M479 0v103h-12q-10 -49 -51.5 -82t-115.5 -33q-71 0 -128 37t-90 116t-33 207t32.5 207.5t93.5 117t145 37.5q92 0 150.5 -40t90.5 -114l-87 -51q-18 52 -55.5 81.5t-99.5 29.5q-48 0 -83 -22t-54 -63t-19 -98v-168q0 -56 19 -97.5t54.5 -63t84.5 -21.5q42 0 75.5 15.5
t53.5 45.5t20 73v61h-129v91h232v-369h-94zM318 -57q27 0 42.5 -12t15.5 -36v-18q0 -41 -18 -76.5t-43 -58.5h-67q22 22 35.5 42t19.5 45q-23 2 -33.5 14t-10.5 34v18q0 24 15.5 36t43.5 12z" />
    <glyph glyph-name="gcommaaccent" unicode="&#x123;" horiz-adv-x="492" 
d="M484 -51q0 -54 -23.5 -90t-76.5 -53.5t-141 -17.5q-79 0 -126 14.5t-67.5 43t-20.5 68.5t22 63.5t59 29.5v17q-27 10 -41 30t-14 48q0 35 22.5 56.5t60.5 27.5v12q-41 21 -62.5 60t-21.5 96t21.5 96.5t63.5 60t104 20.5q21 0 42 -2.5t38 -8.5h150v-76h-123v-10
q40 -5 60.5 -30t20.5 -62q0 -51 -21.5 -88t-63.5 -57t-103 -20q-19 0 -35 2t-31 5q-19 -6 -29.5 -21t-10.5 -31q0 -19 14 -29.5t44 -10.5h125q88 0 126 -37t38 -106zM243 252q44 0 66.5 22.5t22.5 65.5v28q0 45 -22.5 67t-66.5 22t-67 -22t-23 -67v-28q0 -43 23 -65.5
t67 -22.5zM387 -61q0 29 -19 45t-64 16h-160q-15 -11 -22.5 -26.5t-7.5 -35.5q0 -35 23 -54.5t76 -19.5h62q59 0 85.5 18.5t26.5 56.5zM247 587q-28 0 -43.5 12t-15.5 36v19q0 41 18.5 76t43.5 59h66q-22 -22 -35 -42t-20 -46q24 -1 34.5 -13t10.5 -34v-19q0 -24 -15.5 -36
t-43.5 -12z" />
    <glyph glyph-name="Hcircumflex" unicode="&#x124;" horiz-adv-x="644" 
d="M461 0v306h-278v-306h-106v698h106v-298h278v298h107v-698h-107zM272 944h100l113 -152l-53 -40l-110 118l-110 -118l-53 40z" />
    <glyph glyph-name="hcircumflex" unicode="&#x125;" horiz-adv-x="525" 
d="M70 0v740h103v-306h12q15 44 45 71t84 27q69 0 107.5 -47.5t38.5 -139.5v-345h-103v331q0 55 -21 84t-66 29q-26 0 -48 -11.5t-35.5 -32t-13.5 -49.5v-351h-103zM72 936h100l113 -151l-53 -41l-110 118l-110 -118l-53 41z" />
    <glyph glyph-name="Hbar" unicode="&#x126;" horiz-adv-x="656" 
d="M466 0v306h-277v-306h-106v519h-65v72h65v107h106v-107h277v107h108v-107h65v-72h-65v-519h-108zM189 400h277v119h-277v-119z" />
    <glyph glyph-name="hbar" unicode="&#x127;" horiz-adv-x="524" 
d="M173 0h-103v607h-58v67h58v66h103v-66h131v-67h-131v-173h12q15 44 45.5 71t83.5 27q69 0 107.5 -47.5t38.5 -139.5v-345h-103v331q0 55 -21 84t-66 29q-26 0 -48 -11.5t-35.5 -32t-13.5 -49.5v-351z" />
    <glyph glyph-name="Itilde" unicode="&#x128;" horiz-adv-x="377" 
d="M327 0h-277v86h85v526h-85v86h277v-86h-85v-526h85v-86zM258 775q-17 0 -32 5.5t-42 19.5q-25 14 -39.5 19t-25.5 5q-16 0 -27 -6.5t-26 -20.5l-38 49q16 27 40 41.5t52 14.5q17 0 32.5 -5.5t41.5 -19.5q25 -13 39.5 -18.5t25.5 -5.5q16 0 27.5 7t25.5 20l38 -49
q-16 -26 -40 -41t-52 -15z" />
    <glyph glyph-name="itilde" unicode="&#x129;" horiz-adv-x="243" 
d="M173 0h-103v520h103v-520zM179 612q-19 0 -34 7t-29 15q-15 10 -28.5 15t-23.5 5q-13 0 -24 -6t-23 -18l-37 49q16 27 36.5 40t46.5 13q19 0 34 -6.5t29 -15.5q16 -9 29 -14.5t23 -5.5q14 0 24.5 6t22.5 18l37 -48q-16 -28 -36.5 -41t-46.5 -13z" />
    <glyph glyph-name="Imacron" unicode="&#x12a;" horiz-adv-x="377" 
d="M327 0h-277v86h85v526h-85v86h277v-86h-85v-526h85v-86zM57 799v80h264v-80h-264z" />
    <glyph glyph-name="imacron" unicode="&#x12b;" horiz-adv-x="243" 
d="M173 0h-103v520h103v-520zM-6 633v80h254v-80h-254z" />
    <glyph glyph-name="Ibreve" unicode="&#x12c;" horiz-adv-x="377" 
d="M327 0h-277v86h85v526h-85v86h277v-86h-85v-526h85v-86zM189 755q-29 0 -52 7.5t-42 24.5t-34 45t-29 69l57 29l19 -38q18 -35 36 -48t45 -13q28 0 46 13.5t35 47.5l19 38l57 -29q-18 -54 -40 -86t-50.5 -46t-66.5 -14z" />
    <glyph glyph-name="ibreve" unicode="&#x12d;" horiz-adv-x="243" 
d="M173 0h-103v520h103v-520zM121 589q-28 0 -50 7.5t-39 25t-30 46t-23 70.5l57 24l14 -38q12 -31 28.5 -45t42.5 -14t43 14t28 45l15 38l56 -24q-10 -42 -23.5 -70.5t-30.5 -46t-38.5 -25t-49.5 -7.5z" />
    <glyph glyph-name="Iogonek" unicode="&#x12e;" horiz-adv-x="377" 
d="M50 0v86h85v526h-85v86h277v-86h-85v-526h85v-86q-37 -25 -58.5 -44t-31 -36t-9.5 -35q0 -15 9 -24t27 -9q15 0 26.5 6.5t19.5 16.5l39 -40q-13 -18 -38.5 -31t-56.5 -13q-32 0 -55 9t-35 25.5t-12 40.5q0 37 30.5 68t87.5 57l-1 9h-219z" />
    <glyph glyph-name="iogonek" unicode="&#x12f;" horiz-adv-x="243" 
d="M70 520h103v-520q-37 -25 -59 -44t-31 -36t-9 -35q0 -15 9 -24t26 -9q15 0 27 6.5t20 16.5l39 -40q-14 -18 -39 -31t-56 -13q-33 0 -55.5 9t-34.5 25.5t-12 40.5t13.5 46t40 42t65.5 37l-1 9h-46v520zM121 619q-32 0 -47 14.5t-15 38.5v18q0 25 15 39t47 14
q33 0 47.5 -14t14.5 -39v-18q0 -24 -14.5 -38.5t-47.5 -14.5z" />
    <glyph glyph-name="Idotaccent" unicode="&#x130;" horiz-adv-x="377" 
d="M327 0h-277v86h85v526h-85v86h277v-86h-85v-526h85v-86zM189 780q-32 0 -46.5 13.5t-14.5 35.5v21q0 22 14.5 35.5t46.5 13.5t46.5 -13.5t14.5 -35.5v-21q0 -22 -14.5 -35.5t-46.5 -13.5z" />
    <glyph glyph-name="dotlessi" unicode="&#x131;" horiz-adv-x="243" 
d="M173 0h-103v520h103v-520z" />
    <glyph glyph-name="IJ" unicode="&#x132;" horiz-adv-x="586" 
d="M295 -12q-99 0 -150.5 47.5t-66.5 128.5l99 22q8 -50 36.5 -77t80.5 -27q50 0 81 28.5t31 91.5v407h-106v89h213v-508q0 -63 -26 -108t-75 -69.5t-117 -24.5zM73 297v401h107v-401h-107z" />
    <glyph glyph-name="ij" unicode="&#x133;" horiz-adv-x="487" 
d="M121 619q-32 0 -47 14.5t-15 38.5v18q0 25 15 39t47 14q33 0 47.5 -14t14.5 -39v-18q0 -24 -14.5 -38.5t-47.5 -14.5zM70 0v520h103v-520h-103zM314 -115v635h104v-607q0 -58 -27 -85.5t-88 -27.5h-62v85h73zM366 619q-33 0 -47.5 14.5t-14.5 38.5v18q0 25 14.5 39
t47.5 14t47.5 -14t14.5 -39v-18q0 -24 -14.5 -38.5t-47.5 -14.5z" />
    <glyph glyph-name="Jcircumflex" unicode="&#x134;" horiz-adv-x="481" 
d="M99 698h310v-526q0 -57 -23.5 -98t-67 -63.5t-103.5 -22.5q-87 0 -133 45.5t-59 124.5l96 22q8 -47 30 -72.5t66 -25.5q41 0 64 25t23 77v425h-203v89zM205 944h100l113 -152l-53 -40l-110 118l-110 -118l-53 40z" />
    <glyph glyph-name="jcircumflex" unicode="&#x135;" horiz-adv-x="244" 
d="M-2 -200v85h73v635h104v-607q0 -58 -27.5 -85.5t-87.5 -27.5h-62zM73 778h100l99 -151l-53 -41l-96 118l-96 -118l-53 41z" />
    <glyph glyph-name="Kcommaaccent" unicode="&#x136;" horiz-adv-x="598" 
d="M456 0l-186 330l-87 -112v-218h-106v698h106v-230l-6 -130h13l89 130l164 230h122l-222 -296l238 -402h-125zM314 -57q27 0 42.5 -12t15.5 -36v-18q0 -41 -18 -76.5t-43 -58.5h-67q22 22 35.5 42t19.5 45q-23 2 -33.5 14t-10.5 34v18q0 24 15.5 36t43.5 12z" />
    <glyph glyph-name="kcommaaccent" unicode="&#x137;" horiz-adv-x="497" 
d="M70 0v740h103v-359l-7 -105h11l66 97l114 147h119l-166 -206l177 -314h-118l-132 249l-64 -77v-172h-103zM268 -57q27 0 42.5 -12t15.5 -36v-18q0 -41 -18 -76.5t-43 -58.5h-67q22 22 35.5 42t19.5 45q-23 2 -33.5 14t-10.5 34v18q0 24 15.5 36t43.5 12z" />
    <glyph glyph-name="kgreenlandic" unicode="&#x138;" horiz-adv-x="497" 
d="M369 0l-132 250l-64 -78v-172h-103v520h103v-138l-7 -105h11l66 96l114 147h119l-166 -205l177 -315h-118z" />
    <glyph glyph-name="Lacute" unicode="&#x139;" horiz-adv-x="465" 
d="M437 0h-360v698h106v-605h254v-93zM251 916l-111 -167l-63 31l84 181z" />
    <glyph glyph-name="lacute" unicode="&#x13a;" horiz-adv-x="260" 
d="M235 0h-63q-54 0 -78 25t-24 76v639h103v-655h62v-85zM242 949l-111 -167l-63 31l84 182z" />
    <glyph glyph-name="Lcommaaccent" unicode="&#x13b;" horiz-adv-x="465" 
d="M437 0h-360v698h106v-605h254v-93zM263 -57q27 0 42.5 -12t15.5 -36v-18q0 -41 -18 -76.5t-43 -58.5h-67q22 22 35.5 42t19.5 45q-23 2 -33.5 14t-10.5 34v18q0 24 15.5 36t43.5 12z" />
    <glyph glyph-name="lcommaaccent" unicode="&#x13c;" horiz-adv-x="260" 
d="M235 0h-63q-54 0 -78 25t-24 76v639h103v-655h62v-85zM153 -57q27 0 42.5 -12t15.5 -36v-18q0 -41 -18 -76.5t-43 -58.5h-67q22 22 35.5 42t19.5 45q-23 2 -33.5 14t-10.5 34v18q0 24 15.5 36t43.5 12z" />
    <glyph glyph-name="Lcaron" unicode="&#x13d;" horiz-adv-x="465" 
d="M437 0h-360v698h106v-605h254v-93zM368 740l-54 -198h-63l8 198h109z" />
    <glyph glyph-name="lcaron" unicode="&#x13e;" horiz-adv-x="275" 
d="M235 0h-63q-54 0 -78 25t-24 76v639h103v-655h62v-85zM343 740l-54 -198h-63l8 198h109z" />
    <glyph glyph-name="Ldot" unicode="&#x13f;" horiz-adv-x="465" 
d="M437 0h-360v698h106v-605h254v-93zM358 300q-32 0 -46.5 13t-14.5 36v21q0 22 14.5 35t46.5 13t46.5 -13t14.5 -35v-21q0 -23 -14.5 -36t-46.5 -13z" />
    <glyph glyph-name="ldot" unicode="&#x140;" horiz-adv-x="357" 
d="M235 0h-63q-54 0 -78 25t-24 76v639h103v-655h62v-85zM298 265q-32 0 -46.5 13t-14.5 36v21q0 22 14.5 35t46.5 13t46.5 -13t14.5 -35v-21q0 -23 -14.5 -36t-46.5 -13z" />
    <glyph glyph-name="Lslash" unicode="&#x141;" horiz-adv-x="473" 
d="M445 93v-93h-360v261l-84 -30v79l84 31v357h106v-319l151 55v-82l-151 -53v-206h254z" />
    <glyph glyph-name="lslash" unicode="&#x142;" horiz-adv-x="267" 
d="M236 85v-85h-64q-54 0 -78.5 25t-24.5 76v214l-64 -23v80l64 23v345h103v-308l86 30v-80l-86 -30v-267h64z" />
    <glyph glyph-name="Nacute" unicode="&#x143;" horiz-adv-x="644" 
d="M445 0l-208 419l-53 130h-13l8 -132v-417h-102v698h122l208 -419l54 -130h13l-8 132v417h102v-698h-123zM443 916l-111 -167l-63 31l84 181z" />
    <glyph glyph-name="nacute" unicode="&#x144;" horiz-adv-x="525" 
d="M173 0h-103v520h103v-86h12q15 44 45 71t83 27q70 0 108.5 -47.5t38.5 -139.5v-345h-103v331q0 55 -21 84t-66 29q-26 0 -48 -11.5t-35.5 -32t-13.5 -49.5v-351zM387 749l-111 -167l-63 31l84 182z" />
    <glyph glyph-name="Ncommaaccent" unicode="&#x145;" horiz-adv-x="644" 
d="M445 0l-208 419l-53 130h-13l8 -132v-417h-102v698h122l208 -419l54 -130h13l-8 132v417h102v-698h-123zM322 -57q27 0 42.5 -12t15.5 -36v-18q0 -41 -18 -76.5t-43 -58.5h-67q22 22 35.5 42t19.5 45q-23 2 -33.5 14t-10.5 34v18q0 24 15.5 36t43.5 12z" />
    <glyph glyph-name="ncommaaccent" unicode="&#x146;" horiz-adv-x="525" 
d="M173 0h-103v520h103v-86h12q15 44 45 71t83 27q70 0 108.5 -47.5t38.5 -139.5v-345h-103v331q0 55 -21 84t-66 29q-26 0 -48 -11.5t-35.5 -32t-13.5 -49.5v-351zM265 -57q27 0 42.5 -12t15.5 -36v-18q0 -41 -18 -76.5t-43 -58.5h-67q22 22 35.5 42t19.5 45
q-23 2 -33.5 14t-10.5 34v18q0 24 15.5 36t43.5 12z" />
    <glyph glyph-name="Ncaron" unicode="&#x147;" horiz-adv-x="644" 
d="M445 0l-208 419l-53 130h-13l8 -132v-417h-102v698h122l208 -419l54 -130h13l-8 132v417h102v-698h-123zM372 760h-100l-113 152l53 40l110 -118l110 118l53 -40z" />
    <glyph glyph-name="ncaron" unicode="&#x148;" horiz-adv-x="525" 
d="M173 0h-103v520h103v-86h12q15 44 45 71t83 27q70 0 108.5 -47.5t38.5 -139.5v-345h-103v331q0 55 -21 84t-66 29q-26 0 -48 -11.5t-35.5 -32t-13.5 -49.5v-351zM316 590h-100l-113 152l53 41l110 -118l110 118l53 -41z" />
    <glyph glyph-name="napostrophe" unicode="&#x149;" horiz-adv-x="788" 
d="M133 747q34 0 51 -15.5t17 -44.5v-20q0 -47 -25 -96t-67 -85h-73q29 31 49 59.5t28 64.5q-24 5 -36 19t-12 38v20q0 29 16.5 44.5t51.5 15.5zM436 0h-103v520h103v-86h12q15 44 45 71t83 27q70 0 108.5 -47.5t38.5 -139.5v-345h-103v331q0 55 -21 84t-66 29
q-26 0 -48 -11.5t-35.5 -32t-13.5 -49.5v-351z" />
    <glyph glyph-name="Eng" unicode="&#x14a;" horiz-adv-x="644" 
d="M179 0h-102v698h122l208 -419l54 -130h12l-7 130v419h102v-785q0 -58 -27 -85.5t-87 -27.5h-63v86h75v114h-21l-208 419l-53 130h-13l8 -130v-419z" />
    <glyph glyph-name="eng" unicode="&#x14b;" horiz-adv-x="524" 
d="M284 -200v85h73v446q0 55 -21 84t-66 29q-26 0 -48 -11.5t-35.5 -32t-13.5 -49.5v-351h-103v520h103v-86h12q15 44 45 71t83 27q70 0 108.5 -47.5t38.5 -139.5v-432q0 -58 -26.5 -85.5t-87.5 -27.5h-62z" />
    <glyph glyph-name="Omacron" unicode="&#x14c;" horiz-adv-x="640" 
d="M320 -12q-84 0 -145 37.5t-93.5 117t-32.5 206.5q0 128 32.5 207t93.5 116.5t145 37.5t145 -37.5t93.5 -116.5t32.5 -207q0 -127 -32.5 -206.5t-93.5 -117t-145 -37.5zM320 82q50 0 84.5 22t53.5 63.5t19 97.5v168q0 57 -19 98t-53.5 63t-84.5 22q-49 0 -84.5 -22
t-54 -63t-18.5 -98v-168q0 -56 18.5 -97.5t54 -63.5t84.5 -22zM188 799v80h264v-80h-264z" />
    <glyph glyph-name="omacron" unicode="&#x14d;" horiz-adv-x="506" 
d="M253 -12q-66 0 -114.5 28.5t-75 88.5t-26.5 155q0 94 26.5 154.5t75 89t114.5 28.5t114.5 -28.5t75 -89t26.5 -154.5q0 -95 -26.5 -155t-75 -88.5t-114.5 -28.5zM253 74q52 0 79.5 31t27.5 94v122q0 63 -27.5 93.5t-79.5 30.5q-51 0 -79 -30.5t-28 -93.5v-122
q0 -63 28 -94t79 -31zM121 633v80h264v-80h-264z" />
    <glyph glyph-name="Obreve" unicode="&#x14e;" horiz-adv-x="640" 
d="M320 -12q-84 0 -145 37.5t-93.5 117t-32.5 206.5q0 128 32.5 207t93.5 116.5t145 37.5t145 -37.5t93.5 -116.5t32.5 -207q0 -127 -32.5 -206.5t-93.5 -117t-145 -37.5zM320 82q50 0 84.5 22t53.5 63.5t19 97.5v168q0 57 -19 98t-53.5 63t-84.5 22q-49 0 -84.5 -22
t-54 -63t-18.5 -98v-168q0 -56 18.5 -97.5t54 -63.5t84.5 -22zM320 755q-29 0 -52 7.5t-42 24.5t-34 45t-29 69l57 29l19 -38q18 -35 36 -48t45 -13q28 0 46 13.5t35 47.5l19 38l57 -29q-18 -54 -40 -86t-50.5 -46t-66.5 -14z" />
    <glyph glyph-name="obreve" unicode="&#x14f;" horiz-adv-x="506" 
d="M253 -12q-66 0 -114.5 28.5t-75 88.5t-26.5 155q0 94 26.5 154.5t75 89t114.5 28.5t114.5 -28.5t75 -89t26.5 -154.5q0 -95 -26.5 -155t-75 -88.5t-114.5 -28.5zM253 74q52 0 79.5 31t27.5 94v122q0 63 -27.5 93.5t-79.5 30.5q-51 0 -79 -30.5t-28 -93.5v-122
q0 -63 28 -94t79 -31zM253 589q-29 0 -52 7.5t-42 24.5t-34 45t-29 68l57 29l19 -37q18 -35 36 -48t45 -13q28 0 46 13.5t35 47.5l19 37l57 -29q-14 -40 -29.5 -68t-34.5 -45t-41.5 -24.5t-51.5 -7.5z" />
    <glyph glyph-name="Ohungarumlaut" unicode="&#x150;" horiz-adv-x="640" 
d="M320 -12q-84 0 -145 37.5t-93.5 117t-32.5 206.5q0 128 32.5 207t93.5 116.5t145 37.5t145 -37.5t93.5 -116.5t32.5 -207q0 -127 -32.5 -206.5t-93.5 -117t-145 -37.5zM320 82q50 0 84.5 22t53.5 63.5t19 97.5v168q0 57 -19 98t-53.5 63t-84.5 22q-49 0 -84.5 -22
t-54 -63t-18.5 -98v-168q0 -56 18.5 -97.5t54 -63.5t84.5 -22zM356 917l-110 -168l-58 29l84 182zM521 917l-110 -168l-59 29l85 182z" />
    <glyph glyph-name="ohungarumlaut" unicode="&#x151;" horiz-adv-x="506" 
d="M253 -12q-66 0 -114.5 28.5t-75 88.5t-26.5 155q0 94 26.5 154.5t75 89t114.5 28.5t114.5 -28.5t75 -89t26.5 -154.5q0 -95 -26.5 -155t-75 -88.5t-114.5 -28.5zM253 74q52 0 79.5 31t27.5 94v122q0 63 -27.5 93.5t-79.5 30.5q-51 0 -79 -30.5t-28 -93.5v-122
q0 -63 28 -94t79 -31zM289 750l-110 -168l-58 30l84 181zM454 750l-110 -168l-59 30l85 181z" />
    <glyph glyph-name="OE" unicode="&#x152;" horiz-adv-x="892" 
d="M838 0h-400q-25 -6 -54 -9t-53 -3q-88 0 -151.5 37.5t-97.5 117t-34 206.5q0 128 34 207t97.5 116.5t151.5 37.5q24 0 53 -3t54 -9h400v-93h-299v-205h269v-94h-269v-213h299v-93zM331 82q30 0 55 4t46 11v504q-21 8 -46 11.5t-55 3.5q-80 0 -124.5 -49t-44.5 -134v-168
q0 -85 44.5 -134t124.5 -49z" />
    <glyph glyph-name="oe" unicode="&#x153;" horiz-adv-x="824" 
d="M253 74q52 0 79.5 31t27.5 94v122q0 63 -27.5 93.5t-79.5 30.5q-51 0 -79 -30.5t-28 -93.5v-122q0 -63 28 -94t79 -31zM469 303h209v21q0 42 -11.5 70t-34 42t-56.5 14t-58 -14t-36.5 -42t-12.5 -70v-21zM587 -12q-39 0 -73.5 13.5t-59.5 38t-33 58.5h-13
q-11 -52 -55 -81t-104 -29q-64 0 -112 28.5t-74 88.5t-26 155q0 94 26 154.5t74 89t112 28.5q60 0 104 -29.5t55 -80.5h12q12 51 56.5 80.5t104.5 29.5q64 0 110 -28.5t71 -89t25 -154.5v-26h-318v-33q0 -62 31.5 -95t86.5 -33q46 0 77 21t51 59l60 -57q-27 -48 -73.5 -78
t-114.5 -30z" />
    <glyph glyph-name="Racute" unicode="&#x154;" horiz-adv-x="592" 
d="M183 285v-285h-106v698h276q59 0 99.5 -24t61 -70t20.5 -113q0 -81 -30.5 -131.5t-89.5 -66.5l133 -293h-118l-121 285h-125zM183 374h161q25 0 42.5 9t26 27.5t8.5 46.5v65q0 29 -8.5 47t-26 27t-42.5 9h-161v-231zM404 916l-111 -167l-63 31l84 181z" />
    <glyph glyph-name="racute" unicode="&#x155;" horiz-adv-x="347" 
d="M173 0h-103v520h103v-103h12q7 30 22 53t39 36.5t58 13.5h26v-105h-44q-37 0 -62 -9t-38 -28.5t-13 -50.5v-327zM320 749l-111 -167l-63 31l84 182z" />
    <glyph glyph-name="Rcommaaccent" unicode="&#x156;" horiz-adv-x="592" 
d="M183 285v-285h-106v698h276q59 0 99.5 -24t61 -70t20.5 -113q0 -81 -30.5 -131.5t-89.5 -66.5l133 -293h-118l-121 285h-125zM183 374h161q25 0 42.5 9t26 27.5t8.5 46.5v65q0 29 -8.5 47t-26 27t-42.5 9h-161v-231zM293 -57q27 0 42.5 -12t15.5 -36v-18q0 -41 -18 -76.5
t-43 -58.5h-67q22 22 35.5 42t19.5 45q-23 2 -33.5 14t-10.5 34v18q0 24 15.5 36t43.5 12z" />
    <glyph glyph-name="rcommaaccent" unicode="&#x157;" horiz-adv-x="347" 
d="M173 0h-103v520h103v-103h12q7 30 22 53t39 36.5t58 13.5h26v-105h-44q-37 0 -62 -9t-38 -28.5t-13 -50.5v-327zM122 -57q27 0 42.5 -12t15.5 -36v-18q0 -41 -18 -76.5t-43 -58.5h-67q22 22 35.5 42t19.5 45q-23 2 -33.5 14t-10.5 34v18q0 24 15.5 36t43.5 12z" />
    <glyph glyph-name="Rcaron" unicode="&#x158;" horiz-adv-x="592" 
d="M183 285v-285h-106v698h276q59 0 99.5 -24t61 -70t20.5 -113q0 -81 -30.5 -131.5t-89.5 -66.5l133 -293h-118l-121 285h-125zM183 374h161q25 0 42.5 9t26 27.5t8.5 46.5v65q0 29 -8.5 47t-26 27t-42.5 9h-161v-231zM333 760h-100l-113 152l53 40l110 -118l110 118
l53 -40z" />
    <glyph glyph-name="rcaron" unicode="&#x159;" horiz-adv-x="347" 
d="M173 0h-103v520h103v-103h12q7 30 22 53t39 36.5t58 13.5h26v-105h-44q-37 0 -62 -9t-38 -28.5t-13 -50.5v-327zM249 590h-100l-113 152l53 41l110 -118l110 118l53 -41z" />
    <glyph glyph-name="Sacute" unicode="&#x15a;" horiz-adv-x="538" 
d="M266 -12q-77 0 -135 30t-99 85l73 67q31 -42 71 -65.5t91 -23.5q61 0 92.5 28.5t31.5 85.5q0 31 -9.5 52t-31 34.5t-57.5 21.5l-57 12q-62 14 -102.5 39t-60.5 64.5t-20 94.5q0 65 26.5 108.5t76.5 66t119 22.5q74 0 126 -25.5t90 -79.5l-73 -64q-27 38 -60.5 57
t-84.5 19q-57 0 -85.5 -23.5t-28.5 -77.5q0 -28 10 -48t31.5 -32.5t54.5 -20.5l57 -13q67 -15 107.5 -39.5t59 -63.5t18.5 -97q0 -69 -27.5 -117t-79 -72.5t-124.5 -24.5zM392 916l-111 -167l-63 31l84 181z" />
    <glyph glyph-name="sacute" unicode="&#x15b;" horiz-adv-x="446" 
d="M222 -12q-64 0 -112 24.5t-83 71.5l66 61q25 -37 57 -55.5t73 -18.5t63 18.5t22 54.5q0 28 -14 45t-51 24l-45 8q-52 10 -86 28.5t-50.5 49t-16.5 75.5q0 80 47 118.5t129 38.5q41 0 72.5 -8.5t57.5 -26.5t47 -44l-62 -61q-19 25 -47 41t-67 16t-58.5 -17.5t-19.5 -52.5
q0 -31 16 -46t51 -21l46 -9q81 -14 115.5 -50t34.5 -97q0 -53 -21.5 -90.5t-63 -57t-100.5 -19.5zM342 749l-111 -167l-63 31l84 182z" />
    <glyph glyph-name="Scircumflex" unicode="&#x15c;" horiz-adv-x="538" 
d="M266 -12q-77 0 -135 30t-99 85l73 67q31 -42 71 -65.5t91 -23.5q61 0 92.5 28.5t31.5 85.5q0 31 -9.5 52t-31 34.5t-57.5 21.5l-57 12q-62 14 -102.5 39t-60.5 64.5t-20 94.5q0 65 26.5 108.5t76.5 66t119 22.5q74 0 126 -25.5t90 -79.5l-73 -64q-27 38 -60.5 57
t-84.5 19q-57 0 -85.5 -23.5t-28.5 -77.5q0 -28 10 -48t31.5 -32.5t54.5 -20.5l57 -13q67 -15 107.5 -39.5t59 -63.5t18.5 -97q0 -69 -27.5 -117t-79 -72.5t-124.5 -24.5zM221 944h100l113 -152l-53 -40l-110 118l-110 -118l-53 40z" />
    <glyph glyph-name="scircumflex" unicode="&#x15d;" horiz-adv-x="446" 
d="M222 -12q-64 0 -112 24.5t-83 71.5l66 61q25 -37 57 -55.5t73 -18.5t63 18.5t22 54.5q0 28 -14 45t-51 24l-45 8q-52 10 -86 28.5t-50.5 49t-16.5 75.5q0 80 47 118.5t129 38.5q41 0 72.5 -8.5t57.5 -26.5t47 -44l-62 -61q-19 25 -47 41t-67 16t-58.5 -17.5t-19.5 -52.5
q0 -31 16 -46t51 -21l46 -9q81 -14 115.5 -50t34.5 -97q0 -53 -21.5 -90.5t-63 -57t-100.5 -19.5zM171 778h100l113 -151l-53 -41l-110 118l-110 -118l-53 41z" />
    <glyph glyph-name="Scedilla" unicode="&#x15e;" horiz-adv-x="543" 
d="M274 617q-56 0 -85 -23.5t-29 -77.5q0 -28 10.5 -48t32 -32.5t54.5 -20.5l57 -13q67 -15 107.5 -39.5t59 -63.5t18.5 -97q0 -98 -55 -152.5t-153 -60.5l-11 -58h9q4 7 13 12.5t25 5.5q30 0 45.5 -18t15.5 -53q0 -30 -14 -49t-38.5 -28t-56.5 -9q-41 0 -65.5 13t-36.5 29
l37 44q9 -10 23 -18.5t36 -8.5t32 8t10 25t-10 24.5t-32 7.5h-49l14 73q-66 5 -116.5 35t-87.5 79l73 67q30 -42 70.5 -65.5t91.5 -23.5q61 0 92.5 28.5t31.5 85.5q0 31 -10 52t-31.5 34.5t-56.5 21.5l-57 12q-63 14 -103 39t-60 64.5t-20 94.5q0 65 26.5 108.5t76 66
t119.5 22.5q74 0 126 -25.5t90 -79.5l-73 -64q-27 38 -61 57t-85 19z" />
    <glyph glyph-name="scedilla" unicode="&#x15f;" horiz-adv-x="446" 
d="M232 -208q-41 0 -65 13t-37 29l37 44q10 -10 23.5 -18.5t35.5 -8.5t32 8t10 25t-10 24.5t-32 7.5h-48l13 73q-52 5 -93 30t-71 65l66 61q25 -37 57 -55.5t73 -18.5t63 18.5t22 54.5q0 28 -14 45t-51 24l-45 8q-52 10 -86 28.5t-50.5 49t-16.5 75.5q0 80 47 118.5
t129 38.5q41 0 72.5 -8.5t57.5 -26.5t47 -44l-62 -61q-19 25 -47 41t-67 16t-58.5 -17.5t-19.5 -52.5q0 -31 16 -46t51 -21l46 -9q81 -14 115.5 -50t34.5 -97q0 -74 -42.5 -117.5t-120.5 -48.5l-11 -58h9q4 7 13.5 12.5t24.5 5.5q30 0 45.5 -18t15.5 -53q0 -30 -14 -49
t-38.5 -28t-56.5 -9z" />
    <glyph glyph-name="Scaron" unicode="&#x160;" horiz-adv-x="538" 
d="M266 -12q-77 0 -135 30t-99 85l73 67q31 -42 71 -65.5t91 -23.5q61 0 92.5 28.5t31.5 85.5q0 31 -9.5 52t-31 34.5t-57.5 21.5l-57 12q-62 14 -102.5 39t-60.5 64.5t-20 94.5q0 65 26.5 108.5t76.5 66t119 22.5q74 0 126 -25.5t90 -79.5l-73 -64q-27 38 -60.5 57
t-84.5 19q-57 0 -85.5 -23.5t-28.5 -77.5q0 -28 10 -48t31.5 -32.5t54.5 -20.5l57 -13q67 -15 107.5 -39.5t59 -63.5t18.5 -97q0 -69 -27.5 -117t-79 -72.5t-124.5 -24.5zM321 760h-100l-113 152l53 40l110 -118l110 118l53 -40z" />
    <glyph glyph-name="scaron" unicode="&#x161;" horiz-adv-x="446" 
d="M222 -12q-64 0 -112 24.5t-83 71.5l66 61q25 -37 57 -55.5t73 -18.5t63 18.5t22 54.5q0 28 -14 45t-51 24l-45 8q-52 10 -86 28.5t-50.5 49t-16.5 75.5q0 80 47 118.5t129 38.5q41 0 72.5 -8.5t57.5 -26.5t47 -44l-62 -61q-19 25 -47 41t-67 16t-58.5 -17.5t-19.5 -52.5
q0 -31 16 -46t51 -21l46 -9q81 -14 115.5 -50t34.5 -97q0 -53 -21.5 -90.5t-63 -57t-100.5 -19.5zM271 590h-100l-113 152l53 41l110 -118l110 118l53 -41z" />
    <glyph glyph-name="uni0162" unicode="&#x162;" horiz-adv-x="521" 
d="M272 -208q-40 0 -64.5 13t-37.5 29l38 44q9 -10 23 -18.5t36 -8.5t31.5 8t9.5 25t-9.5 24.5t-31.5 7.5h-49l16 84h-27v605h-184v93h475v-93h-184v-605h-27l-13 -69h9q4 7 13 12.5t25 5.5q30 0 45.5 -18t15.5 -53q0 -30 -14 -49t-39 -28t-57 -9z" />
    <glyph glyph-name="uni0163" unicode="&#x163;" horiz-adv-x="328" 
d="M206 -208q-40 0 -64.5 13t-36.5 29l37 44q9 -10 23 -18.5t36 -8.5t31.5 8t9.5 25t-9.5 24.5t-31.5 7.5h-49l22 116l30 -32h-6q-53 0 -78 24.5t-25 77.5v333h-72v85h40q25 0 33.5 12t8.5 36v94h93v-142h97v-85h-97v-350h90v-85h-67l-13 -69h9q4 7 13 12.5t25 5.5
q30 0 45.5 -18t15.5 -53q0 -30 -14 -49t-38.5 -28t-57.5 -9z" />
    <glyph glyph-name="Tcaron" unicode="&#x164;" horiz-adv-x="521" 
d="M498 605h-184v-605h-107v605h-184v93h475v-93zM311 760h-100l-113 152l53 40l110 -118l110 118l53 -40z" />
    <glyph glyph-name="tcaron" unicode="&#x165;" horiz-adv-x="328" 
d="M288 0h-90q-53 0 -78 24.5t-25 77.5v333h-72v85h40q25 0 33.5 12t8.5 36v94h93v-142h97v-85h-97v-350h90v-85zM369 768l-54 -198h-63l8 198h109z" />
    <glyph glyph-name="Tbar" unicode="&#x166;" horiz-adv-x="525" 
d="M446 316h-132v-316h-107v316h-132v80h132v209h-184v93h475v-93h-184v-209h132v-80z" />
    <glyph glyph-name="tbar" unicode="&#x167;" horiz-adv-x="337" 
d="M288 85v-85h-90q-53 0 -78 24.5t-25 76.5v143h-56v68h56v123h-72v85h40q25 0 33.5 12t8.5 36v94h93v-142h97v-85h-97v-123h84v-68h-84v-159h90z" />
    <glyph glyph-name="Utilde" unicode="&#x168;" horiz-adv-x="619" 
d="M72 698h107v-452q0 -56 12.5 -92t41 -53.5t76.5 -17.5q49 0 77.5 17.5t41 53.5t12.5 92v452h107v-435q0 -95 -23 -156t-75 -90t-140 -29t-139.5 29t-74.5 90t-23 156v435zM378 775q-17 0 -32 5.5t-42 19.5q-25 14 -39.5 19t-25.5 5q-16 0 -27 -6.5t-26 -20.5l-38 49
q16 27 40 41.5t52 14.5q17 0 32.5 -5.5t41.5 -19.5q25 -13 39.5 -18.5t25.5 -5.5q16 0 27.5 7t25.5 20l38 -49q-16 -26 -40 -41t-52 -15z" />
    <glyph glyph-name="utilde" unicode="&#x169;" horiz-adv-x="525" 
d="M352 0v86h-13q-14 -44 -44.5 -71t-84.5 -27q-69 0 -107.5 47.5t-38.5 139.5v345h103v-331q0 -55 22 -84t66 -29q27 0 48.5 11t35 32t13.5 50v351h103v-520h-103zM329 609q-17 0 -32 5t-42 19q-25 14 -39.5 19.5t-25.5 5.5q-16 0 -27 -7t-26 -21l-38 50q16 26 40 40.5
t52 14.5q17 0 32.5 -5t41.5 -19q25 -13 39.5 -19t25.5 -6q16 0 27.5 7t25.5 20l38 -49q-16 -26 -40 -40.5t-52 -14.5z" />
    <glyph glyph-name="Umacron" unicode="&#x16a;" horiz-adv-x="619" 
d="M72 698h107v-452q0 -56 12.5 -92t41 -53.5t76.5 -17.5q49 0 77.5 17.5t41 53.5t12.5 92v452h107v-435q0 -95 -23 -156t-75 -90t-140 -29t-139.5 29t-74.5 90t-23 156v435zM177 799v80h264v-80h-264z" />
    <glyph glyph-name="umacron" unicode="&#x16b;" horiz-adv-x="525" 
d="M352 0v86h-13q-14 -44 -44.5 -71t-84.5 -27q-69 0 -107.5 47.5t-38.5 139.5v345h103v-331q0 -55 22 -84t66 -29q27 0 48.5 11t35 32t13.5 50v351h103v-520h-103zM128 633v80h264v-80h-264z" />
    <glyph glyph-name="Ubreve" unicode="&#x16c;" horiz-adv-x="619" 
d="M72 698h107v-452q0 -56 12.5 -92t41 -53.5t76.5 -17.5q49 0 77.5 17.5t41 53.5t12.5 92v452h107v-435q0 -95 -23 -156t-75 -90t-140 -29t-139.5 29t-74.5 90t-23 156v435zM309 755q-29 0 -52 7.5t-42 24.5t-34 45t-29 69l57 29l19 -38q18 -35 36 -48t45 -13q28 0 46 13.5
t35 47.5l19 38l57 -29q-18 -54 -40 -86t-50.5 -46t-66.5 -14z" />
    <glyph glyph-name="ubreve" unicode="&#x16d;" horiz-adv-x="525" 
d="M352 0v86h-13q-14 -44 -44.5 -71t-84.5 -27q-69 0 -107.5 47.5t-38.5 139.5v345h103v-331q0 -55 22 -84t66 -29q27 0 48.5 11t35 32t13.5 50v351h103v-520h-103zM260 589q-29 0 -52 7.5t-42 24.5t-34 45t-29 68l57 29l19 -37q18 -35 36 -48t45 -13q28 0 46 13.5t35 47.5
l19 37l57 -29q-14 -40 -29.5 -68t-34.5 -45t-41.5 -24.5t-51.5 -7.5z" />
    <glyph glyph-name="Uring" unicode="&#x16e;" horiz-adv-x="619" 
d="M72 698h107v-452q0 -56 12.5 -92t41 -53.5t76.5 -17.5q49 0 77.5 17.5t41 53.5t12.5 92v452h107v-435q0 -95 -23 -156t-75 -90t-140 -29t-139.5 29t-74.5 90t-23 156v435zM309 734q-38 0 -66 16t-43 45t-15 66q0 39 15 67.5t43 44t66 15.5t66 -15.5t43 -44t15 -67.5
q0 -37 -15 -66t-43 -45t-66 -16zM309 792q24 0 38.5 12t14.5 36v43q0 24 -14.5 36t-38.5 12t-38.5 -12t-14.5 -36v-43q0 -24 14.5 -36t38.5 -12z" />
    <glyph glyph-name="uring" unicode="&#x16f;" horiz-adv-x="525" 
d="M352 0v86h-13q-14 -44 -44.5 -71t-84.5 -27q-69 0 -107.5 47.5t-38.5 139.5v345h103v-331q0 -55 22 -84t66 -29q27 0 48.5 11t35 32t13.5 50v351h103v-520h-103zM260 568q-38 0 -66 16t-43 45t-15 66q0 39 15.5 67.5t43 44t65.5 15.5t66 -15.5t43 -44t15 -67.5
q0 -37 -15 -66t-43 -45t-66 -16zM260 626q24 0 38.5 12t14.5 36v43q0 24 -14.5 36t-38.5 12t-38.5 -12t-14.5 -36v-43q0 -24 14.5 -36t38.5 -12z" />
    <glyph glyph-name="Uhungarumlaut" unicode="&#x170;" horiz-adv-x="619" 
d="M72 698h107v-452q0 -56 12.5 -92t41 -53.5t76.5 -17.5q49 0 77.5 17.5t41 53.5t12.5 92v452h107v-435q0 -95 -23 -156t-75 -90t-140 -29t-139.5 29t-74.5 90t-23 156v435zM345 917l-110 -168l-58 29l84 182zM510 917l-110 -168l-59 29l85 182z" />
    <glyph glyph-name="uhungarumlaut" unicode="&#x171;" horiz-adv-x="525" 
d="M352 0v86h-13q-14 -44 -44.5 -71t-84.5 -27q-69 0 -107.5 47.5t-38.5 139.5v345h103v-331q0 -55 22 -84t66 -29q27 0 48.5 11t35 32t13.5 50v351h103v-520h-103zM296 750l-110 -168l-58 30l84 181zM461 750l-110 -168l-59 30l85 181z" />
    <glyph glyph-name="Uogonek" unicode="&#x172;" horiz-adv-x="619" 
d="M72 698h107v-452q0 -56 12.5 -92t41 -53.5t76.5 -17.5q49 0 77.5 17.5t41 53.5t12.5 92v452h107v-435q0 -55 -8 -98.5t-25 -76t-45 -57.5q-47 -45 -72 -72t-34 -44t-9 -32q0 -14 9 -22.5t27 -8.5q15 0 26.5 6.5t19.5 16.5l40 -40q-14 -18 -39.5 -31t-56.5 -13
q-48 0 -75 19t-27 53q0 22 10 41t34 39.5t64 46.5l-1 7q-17 -4 -35.5 -6.5t-40.5 -2.5q-88 0 -139.5 29t-74.5 90t-23 156v435z" />
    <glyph glyph-name="uogonek" unicode="&#x173;" horiz-adv-x="525" 
d="M455 520v-520q-37 -24 -58.5 -43.5t-31 -36.5t-9.5 -35q0 -16 9.5 -24.5t25.5 -8.5q15 0 27 6.5t20 16.5l39 -40q-14 -18 -39 -31t-56 -13t-54 8.5t-35.5 25t-12.5 41.5q0 40 33 71t87 54v9h-48v86h-13q-14 -44 -44.5 -71t-84.5 -27q-69 0 -107.5 47.5t-38.5 139.5v345
h103v-331q0 -55 22 -84t66 -29q27 0 48.5 11t35 32t13.5 50v351h103z" />
    <glyph glyph-name="Wcircumflex" unicode="&#x174;" horiz-adv-x="840" 
d="M298 0h-128l-148 698h108l82 -423l22 -162h13l22 160l88 425h129l89 -425l22 -160h13l22 162l82 423h104l-153 -698h-127l-90 430l-22 161h-12l-22 -161zM370 944h100l113 -152l-53 -40l-110 118l-110 -118l-53 40z" />
    <glyph glyph-name="wcircumflex" unicode="&#x175;" horiz-adv-x="723" 
d="M146 0l-125 520h100l51 -237l32 -190h12l38 190l56 237h108l57 -237l38 -190h11l32 190l53 237h95l-125 -520h-121l-61 253l-28 168h-12l-29 -168l-61 -253h-121zM313 778h100l113 -151l-53 -41l-110 118l-110 -118l-53 41z" />
    <glyph glyph-name="Ycircumflex" unicode="&#x176;" horiz-adv-x="553" 
d="M330 0h-107v270l-215 428h119l145 -312h13l143 312h117l-215 -428v-270zM228 944h100l113 -152l-53 -40l-110 118l-110 -118l-53 40z" />
    <glyph glyph-name="ycircumflex" unicode="&#x177;" horiz-adv-x="470" 
d="M277 247l77 273h102l-201 -638q-9 -32 -23.5 -49.5t-37 -25t-56.5 -7.5h-72v85h94l24 87l-173 548h105l78 -273l36 -158h11zM185 778h100l113 -151l-53 -41l-110 118l-110 -118l-53 41z" />
    <glyph glyph-name="Ydieresis" unicode="&#x178;" horiz-adv-x="553" 
d="M330 0h-107v270l-215 428h119l145 -312h13l143 312h117l-215 -428v-270zM188 780q-32 0 -46 13t-14 35v23q0 22 14 35t46 13t46 -13t14 -35v-23q0 -22 -14 -35t-46 -13zM368 780q-32 0 -46 13t-14 35v23q0 22 14 35t46 13t46 -13t14 -35v-23q0 -22 -14 -35t-46 -13z" />
    <glyph glyph-name="Zacute" unicode="&#x179;" horiz-adv-x="533" 
d="M500 93v-93h-466v95l335 510h-319v93h439v-95l-335 -510h346zM391 916l-111 -167l-63 31l84 181z" />
    <glyph glyph-name="zacute" unicode="&#x17a;" horiz-adv-x="440" 
d="M408 0h-375v80l249 355h-241v85h360v-80l-251 -355h258v-85zM341 749l-111 -167l-63 31l84 182z" />
    <glyph glyph-name="Zdotaccent" unicode="&#x17b;" horiz-adv-x="533" 
d="M500 93v-93h-466v95l335 510h-319v93h439v-95l-335 -510h346zM270 780q-32 0 -46.5 13.5t-14.5 35.5v21q0 22 14.5 35.5t46.5 13.5t46.5 -13.5t14.5 -35.5v-21q0 -22 -14.5 -35.5t-46.5 -13.5z" />
    <glyph glyph-name="zdotaccent" unicode="&#x17c;" horiz-adv-x="440" 
d="M408 0h-375v80l249 355h-241v85h360v-80l-251 -355h258v-85zM220 611q-32 0 -46.5 13t-14.5 36v21q0 22 14.5 35t46.5 13t46.5 -13t14.5 -35v-21q0 -23 -14.5 -36t-46.5 -13z" />
    <glyph glyph-name="Zcaron" unicode="&#x17d;" horiz-adv-x="533" 
d="M500 93v-93h-466v95l335 510h-319v93h439v-95l-335 -510h346zM320 760h-100l-113 152l53 40l110 -118l110 118l53 -40z" />
    <glyph glyph-name="zcaron" unicode="&#x17e;" horiz-adv-x="440" 
d="M408 0h-375v80l249 355h-241v85h360v-80l-251 -355h258v-85zM270 590h-100l-113 152l53 41l110 -118l110 118l53 -41z" />
    <glyph glyph-name="uni017F" unicode="&#x17f;" horiz-adv-x="268" 
d="M95 0v435h-72v85h72v99q0 62 28 91.5t89 29.5h83v-85h-97v-655h-103z" />
    <glyph glyph-name="uni018F" unicode="&#x18f;" horiz-adv-x="641" 
d="M49 379h429v42q0 97 -40 146t-118 49q-64 0 -100.5 -32.5t-54.5 -94.5l-93 36q16 55 48 96.5t82 65t118 23.5q85 0 145.5 -37.5t93.5 -116.5t33 -207q0 -127 -33 -206.5t-93.5 -117t-145.5 -37.5q-84 0 -145 37.5t-93.5 117t-32.5 206.5v30zM162 293v-21
q0 -62 17.5 -104.5t53 -64t87.5 -21.5q53 0 88 21.5t52.5 64t17.5 104.5v21h-316z" />
    <glyph glyph-name="florin" unicode="&#x192;" horiz-adv-x="436" 
d="M1 -134l9 85h116l29 333h-111l9 89h111l19 215q5 57 33 83.5t90 26.5h114l-9 -85h-122l-22 -240h132l-9 -89h-131l-28 -308q-5 -57 -32 -83.5t-91 -26.5h-107z" />
    <glyph glyph-name="Ohorn" unicode="&#x1a0;" horiz-adv-x="640" 
d="M520 806h86v-103q0 -43 -15 -58.5t-59 -15.5h-96v-10q56 -8 89.5 -39.5t49.5 -88.5t16 -142q0 -127 -32.5 -206.5t-93.5 -117t-145 -37.5t-145 37.5t-93.5 117t-32.5 206.5q0 128 32.5 207t93.5 116.5t145 37.5q24 0 46.5 -3t42.5 -9h111v108zM320 82q50 0 84.5 22
t53.5 63.5t19 97.5v168q0 57 -19 98t-53.5 63t-84.5 22q-49 0 -84.5 -22t-54 -63t-18.5 -98v-168q0 -56 18.5 -97.5t54 -63.5t84.5 -22z" />
    <glyph glyph-name="ohorn" unicode="&#x1a1;" horiz-adv-x="506" 
d="M403 628h86v-103q0 -35 -16 -51t-58 -16h-66v-11q45 -4 70.5 -30.5t37.5 -67t12 -89.5q0 -95 -26.5 -155t-75 -88.5t-114.5 -28.5t-114.5 28.5t-75 88.5t-26.5 155q0 94 26.5 154.5t75 89t114.5 28.5q21 0 41 -3t38 -9h71v108zM253 74q52 0 79.5 31t27.5 94v122
q0 63 -27.5 93.5t-79.5 30.5q-51 0 -79 -30.5t-28 -93.5v-122q0 -63 28 -94t79 -31z" />
    <glyph glyph-name="Uhorn" unicode="&#x1af;" horiz-adv-x="628" 
d="M72 698h107v-452q0 -56 12.5 -92t41 -53.5t76.5 -17.5q49 0 77.5 17.5t41 53.5t12.5 92v452h95v108h86v-103q0 -26 -5.5 -42t-21.5 -22.5t-45 -6.5h-30l28 30v-399q0 -95 -23 -156t-75 -90t-140 -29t-139.5 29t-74.5 90t-23 156v435z" />
    <glyph glyph-name="uhorn" unicode="&#x1b0;" horiz-adv-x="533" 
d="M455 0h-103v86h-13q-14 -44 -44.5 -71t-84.5 -27q-69 0 -107.5 47.5t-38.5 139.5v345h103v-331q0 -55 22 -84t66 -29q27 0 48.5 11t35 32t13.5 50v351h93v108h86v-103q0 -26 -5 -41t-20.5 -22.5t-46.5 -7.5h-33l29 30v-484z" />
    <glyph glyph-name="uni01CD" unicode="&#x1cd;" horiz-adv-x="596" 
d="M575 0h-107l-54 193h-235l-54 -193h-104l209 698h135zM389 280l-65 220l-22 102h-13l-22 -102l-62 -220h184zM349 760h-100l-113 152l53 40l110 -118l110 118l53 -40z" />
    <glyph glyph-name="uni01CE" unicode="&#x1ce;" horiz-adv-x="497" 
d="M470 0h-66q-24 0 -42 9t-28.5 29t-10.5 53v17l19 -21h-30q-10 -46 -45.5 -72.5t-84.5 -26.5q-73 0 -110 39.5t-37 111.5q0 52 22.5 87.5t66.5 54t108 18.5h86v50q0 50 -22 74t-70 24q-40 0 -66 -18.5t-46 -52.5l-61 56q25 43 70.5 71t109.5 28q94 0 141.5 -44.5
t47.5 -133.5v-268h48v-85zM318 230h-81q-50 0 -73.5 -18t-23.5 -52v-24q0 -35 21 -51.5t55 -16.5q29 0 52 12t36.5 32.5t13.5 45.5v72zM285 590h-100l-113 152l53 41l110 -118l110 118l53 -41z" />
    <glyph glyph-name="uni01CF" unicode="&#x1cf;" horiz-adv-x="377" 
d="M327 0h-277v86h85v526h-85v86h277v-86h-85v-526h85v-86zM239 760h-100l-113 152l53 40l110 -118l110 118l53 -40z" />
    <glyph glyph-name="uni01D0" unicode="&#x1d0;" horiz-adv-x="243" 
d="M173 0h-103v520h103v-520zM171 590h-100l-99 152l53 41l96 -118l96 118l53 -41z" />
    <glyph glyph-name="uni01D1" unicode="&#x1d1;" horiz-adv-x="640" 
d="M320 -12q-84 0 -145 37.5t-93.5 117t-32.5 206.5q0 128 32.5 207t93.5 116.5t145 37.5t145 -37.5t93.5 -116.5t32.5 -207q0 -127 -32.5 -206.5t-93.5 -117t-145 -37.5zM320 82q50 0 84.5 22t53.5 63.5t19 97.5v168q0 57 -19 98t-53.5 63t-84.5 22q-49 0 -84.5 -22
t-54 -63t-18.5 -98v-168q0 -56 18.5 -97.5t54 -63.5t84.5 -22zM370 760h-100l-113 152l53 40l110 -118l110 118l53 -40z" />
    <glyph glyph-name="uni01D2" unicode="&#x1d2;" horiz-adv-x="506" 
d="M253 -12q-66 0 -114.5 28.5t-75 88.5t-26.5 155q0 94 26.5 154.5t75 89t114.5 28.5t114.5 -28.5t75 -89t26.5 -154.5q0 -95 -26.5 -155t-75 -88.5t-114.5 -28.5zM253 74q52 0 79.5 31t27.5 94v122q0 63 -27.5 93.5t-79.5 30.5q-51 0 -79 -30.5t-28 -93.5v-122
q0 -63 28 -94t79 -31zM303 590h-100l-113 152l53 41l110 -118l110 118l53 -41z" />
    <glyph glyph-name="uni01D3" unicode="&#x1d3;" horiz-adv-x="619" 
d="M72 698h107v-452q0 -56 12.5 -92t41 -53.5t76.5 -17.5q49 0 77.5 17.5t41 53.5t12.5 92v452h107v-435q0 -95 -23 -156t-75 -90t-140 -29t-139.5 29t-74.5 90t-23 156v435zM359 760h-100l-113 152l53 40l110 -118l110 118l53 -40z" />
    <glyph glyph-name="uni01D4" unicode="&#x1d4;" horiz-adv-x="525" 
d="M352 0v86h-13q-14 -44 -44.5 -71t-84.5 -27q-69 0 -107.5 47.5t-38.5 139.5v345h103v-331q0 -55 22 -84t66 -29q27 0 48.5 11t35 32t13.5 50v351h103v-520h-103zM310 590h-100l-113 152l53 41l110 -118l110 118l53 -41z" />
    <glyph glyph-name="uni01D5" unicode="&#x1d5;" horiz-adv-x="619" 
d="M72 698h107v-452q0 -56 12.5 -92t41 -53.5t76.5 -17.5q49 0 77.5 17.5t41 53.5t12.5 92v452h107v-435q0 -95 -23 -156t-75 -90t-140 -29t-139.5 29t-74.5 90t-23 156v435zM177 930v81h264v-81h-264zM217 759q-32 0 -46 12.5t-14 34.5v24q0 22 13.5 34.5t46.5 12.5
q31 0 45 -12.5t14 -34.5v-24q0 -22 -14 -34.5t-45 -12.5zM402 759q-32 0 -46 12.5t-14 34.5v24q0 22 14 34.5t46 12.5q31 0 45 -12.5t14 -34.5v-24q0 -22 -14 -34.5t-45 -12.5z" />
    <glyph glyph-name="uni01D6" unicode="&#x1d6;" horiz-adv-x="525" 
d="M352 0v86h-13q-14 -44 -44.5 -71t-84.5 -27q-69 0 -107.5 47.5t-38.5 139.5v345h103v-331q0 -55 22 -84t66 -29q27 0 48.5 11t35 32t13.5 50v351h103v-520h-103zM128 765v80h264v-80h-264zM167 593q-31 0 -45 12.5t-14 34.5v25q0 22 14 34t45 12q32 0 46 -12t14 -34v-25
q0 -22 -14 -34.5t-46 -12.5zM353 593q-32 0 -46 12.5t-14 34.5v25q0 22 14 34t46 12q31 0 45 -12t14 -34v-25q0 -22 -14 -34.5t-45 -12.5z" />
    <glyph glyph-name="uni01D7" unicode="&#x1d7;" horiz-adv-x="619" 
d="M72 698h107v-452q0 -56 12.5 -92t41 -53.5t76.5 -17.5q49 0 77.5 17.5t41 53.5t12.5 92v452h107v-435q0 -95 -23 -156t-75 -90t-140 -29t-139.5 29t-74.5 90t-23 156v435zM429 1045l-107 -166l-59 31l81 179zM217 759q-32 0 -46 12.5t-14 34.5v24q0 22 13.5 34.5
t46.5 12.5q31 0 45 -12.5t14 -34.5v-24q0 -22 -14 -34.5t-45 -12.5zM402 759q-32 0 -46 12.5t-14 34.5v24q0 22 14 34.5t46 12.5q31 0 45 -12.5t14 -34.5v-24q0 -22 -14 -34.5t-45 -12.5z" />
    <glyph glyph-name="uni01D8" unicode="&#x1d8;" horiz-adv-x="525" 
d="M352 0v86h-13q-14 -44 -44.5 -71t-84.5 -27q-69 0 -107.5 47.5t-38.5 139.5v345h103v-331q0 -55 22 -84t66 -29q27 0 48.5 11t35 32t13.5 50v351h103v-520h-103zM380 879l-107 -166l-59 31l81 180zM167 593q-31 0 -45 12.5t-14 34.5v25q0 22 14 34t45 12q32 0 46 -12
t14 -34v-25q0 -22 -14 -34.5t-46 -12.5zM353 593q-32 0 -46 12.5t-14 34.5v25q0 22 14 34t46 12q31 0 45 -12t14 -34v-25q0 -22 -14 -34.5t-45 -12.5z" />
    <glyph glyph-name="uni01D9" unicode="&#x1d9;" horiz-adv-x="619" 
d="M72 698h107v-452q0 -56 12.5 -92t41 -53.5t76.5 -17.5q49 0 77.5 17.5t41 53.5t12.5 92v452h107v-435q0 -95 -23 -156t-75 -90t-140 -29t-139.5 29t-74.5 90t-23 156v435zM359 904h-99l-116 143l51 41l114 -113l115 113l51 -41zM217 759q-32 0 -46 12.5t-14 34.5v24
q0 22 13.5 34.5t46.5 12.5q31 0 45 -12.5t14 -34.5v-24q0 -22 -14 -34.5t-45 -12.5zM402 759q-32 0 -46 12.5t-14 34.5v24q0 22 14 34.5t46 12.5q31 0 45 -12.5t14 -34.5v-24q0 -22 -14 -34.5t-45 -12.5z" />
    <glyph glyph-name="uni01DA" unicode="&#x1da;" horiz-adv-x="525" 
d="M352 0v86h-13q-14 -44 -44.5 -71t-84.5 -27q-69 0 -107.5 47.5t-38.5 139.5v345h103v-331q0 -55 22 -84t66 -29q27 0 48.5 11t35 32t13.5 50v351h103v-520h-103zM310 739h-99l-116 142l51 42l114 -113l115 113l51 -42zM167 593q-31 0 -45 12.5t-14 34.5v25q0 22 14 34
t45 12q32 0 46 -12t14 -34v-25q0 -22 -14 -34.5t-46 -12.5zM353 593q-32 0 -46 12.5t-14 34.5v25q0 22 14 34t46 12q31 0 45 -12t14 -34v-25q0 -22 -14 -34.5t-45 -12.5z" />
    <glyph glyph-name="uni01DB" unicode="&#x1db;" horiz-adv-x="619" 
d="M72 698h107v-452q0 -56 12.5 -92t41 -53.5t76.5 -17.5q49 0 77.5 17.5t41 53.5t12.5 92v452h107v-435q0 -95 -23 -156t-75 -90t-140 -29t-139.5 29t-74.5 90t-23 156v435zM296 879l-107 166l85 44l81 -179zM217 759q-32 0 -46 12.5t-14 34.5v24q0 22 13.5 34.5t46.5 12.5
q31 0 45 -12.5t14 -34.5v-24q0 -22 -14 -34.5t-45 -12.5zM402 759q-32 0 -46 12.5t-14 34.5v24q0 22 14 34.5t46 12.5q31 0 45 -12.5t14 -34.5v-24q0 -22 -14 -34.5t-45 -12.5z" />
    <glyph glyph-name="uni01DC" unicode="&#x1dc;" horiz-adv-x="525" 
d="M352 0v86h-13q-14 -44 -44.5 -71t-84.5 -27q-69 0 -107.5 47.5t-38.5 139.5v345h103v-331q0 -55 22 -84t66 -29q27 0 48.5 11t35 32t13.5 50v351h103v-520h-103zM247 713l-107 166l85 45l81 -180zM167 593q-31 0 -45 12.5t-14 34.5v25q0 22 14 34t45 12q32 0 46 -12
t14 -34v-25q0 -22 -14 -34.5t-46 -12.5zM353 593q-32 0 -46 12.5t-14 34.5v25q0 22 14 34t46 12q31 0 45 -12t14 -34v-25q0 -22 -14 -34.5t-45 -12.5z" />
    <glyph glyph-name="Aringacute" unicode="&#x1fa;" horiz-adv-x="596" 
d="M575 0h-107l-54 193h-235l-54 -193h-104l209 698h135zM389 280l-65 220l-22 102h-13l-22 -102l-62 -220h184zM411 1085l-115 -104l-41 35l96 120zM299 731q-57 0 -90.5 32t-33.5 85q0 54 33.5 86t90.5 32t90.5 -32t33.5 -86q0 -53 -33.5 -85t-90.5 -32zM299 786
q24 0 39 12.5t15 35.5v29q0 23 -15 35t-39 12t-39 -12t-15 -35v-29q0 -23 15 -35.5t39 -12.5z" />
    <glyph glyph-name="aringacute" unicode="&#x1fb;" horiz-adv-x="497" 
d="M470 0h-66q-24 0 -42 9t-28.5 29t-10.5 53v17l19 -21h-30q-10 -46 -45.5 -72.5t-84.5 -26.5q-73 0 -110 39.5t-37 111.5q0 52 22.5 87.5t66.5 54t108 18.5h86v50q0 50 -22 74t-70 24q-40 0 -66 -18.5t-46 -52.5l-61 56q25 43 70.5 71t109.5 28q94 0 141.5 -44.5
t47.5 -133.5v-268h48v-85zM318 230h-81q-50 0 -73.5 -18t-23.5 -52v-24q0 -35 21 -51.5t55 -16.5q29 0 52 12t36.5 32.5t13.5 45.5v72zM347 919l-115 -105l-41 36l96 120zM235 565q-57 0 -90.5 32t-33.5 85q0 54 33.5 85.5t90.5 31.5t90.5 -31.5t33.5 -85.5q0 -53 -33.5 -85
t-90.5 -32zM235 620q24 0 39 12.5t15 35.5v29q0 23 -15 35t-39 12t-39 -12t-15 -35v-29q0 -23 15 -35.5t39 -12.5z" />
    <glyph glyph-name="AEacute" unicode="&#x1fc;" horiz-adv-x="843" 
d="M384 0v192h-191l-83 -192h-108l310 698h478v-93h-299v-205h269v-94h-269v-213h299v-93h-406zM384 605h-14l-140 -326h154v326zM650 916l-111 -167l-63 31l84 181z" />
    <glyph glyph-name="aeacute" unicode="&#x1fd;" horiz-adv-x="782" 
d="M324 233h-87q-50 0 -73.5 -19.5t-23.5 -53.5v-24q0 -35 21 -51.5t55 -16.5q29 0 53.5 12t39.5 32.5t15 45.5v75zM427 301h209v23q0 42 -11 70t-33.5 42t-56.5 14t-58.5 -14t-37 -42t-12.5 -70v-23zM545 73q46 0 77 21t51 59l61 -57q-27 -48 -73.5 -78t-115.5 -30
q-40 0 -75.5 14t-60.5 39t-33 59h-12q-8 -33 -32.5 -58t-61.5 -39.5t-85 -14.5q-75 0 -112.5 39.5t-37.5 111.5q0 53 22.5 88.5t66.5 54.5t108 19h92v46q0 50 -24.5 75t-73.5 25q-40 0 -66 -18.5t-46 -52.5l-61 56q25 43 69.5 71t106.5 28q35 0 64.5 -12t50.5 -36.5
t27 -62.5h12q7 35 29.5 60t55 38.5t71.5 13.5q65 0 111 -29t70.5 -89t24.5 -156v-25h-318v-32q0 -62 31.5 -95t86.5 -33zM508 749l-111 -167l-63 31l84 182z" />
    <glyph glyph-name="Oslashacute" unicode="&#x1fe;" horiz-adv-x="640" 
d="M320 -12q-44 0 -81 10t-68 31l-47 -77l-68 44l55 90q-30 44 -46 109.5t-16 153.5q0 128 32.5 207t93.5 116.5t145 37.5q43 0 81 -10t68 -31l47 77l67 -44l-54 -90q30 -43 46 -108.5t16 -154.5q0 -127 -32.5 -206.5t-93.5 -117t-145 -37.5zM320 619q-51 0 -87 -22t-55 -63
t-19 -100v-159q-1 -24 0.5 -54t2.5 -49h13l141 241l107 172q-19 17 -45 25.5t-58 8.5zM320 79q51 0 86.5 22t54.5 63.5t19 99.5v162q2 25 0.5 53t-2.5 47h-13l-142 -241l-107 -172q21 -17 46.5 -25.5t57.5 -8.5zM441 916l-111 -167l-63 31l84 181z" />
    <glyph glyph-name="oslashacute" unicode="&#x1ff;" horiz-adv-x="509" 
d="M75 -41l-56 42l58 78q-20 32 -30 77t-10 104q0 94 26.5 154.5t75 89t114.5 28.5q37 0 69.5 -9.5t58.5 -29.5l50 68l56 -42l-58 -78q19 -33 29.5 -78t10.5 -103q0 -95 -26.5 -155t-75 -88.5t-114.5 -28.5q-37 0 -69.5 9.5t-57.5 28.5zM253 71q53 0 81 31t28 94v70
q2 20 3 34t2 28.5t2 33.5h-10l-68 -103l-116 -160q13 -13 33 -20.5t45 -7.5zM253 448q-53 0 -81.5 -30.5t-28.5 -93.5v-71q0 -19 -1.5 -33t-2.5 -28t-3 -34h11l68 103l116 160q-13 13 -33 20t-45 7zM375 749l-111 -167l-63 31l84 182z" />
    <glyph glyph-name="Scommaaccent" unicode="&#x218;" horiz-adv-x="538" 
d="M266 -12q-77 0 -135 30t-99 85l73 67q31 -42 71 -65.5t91 -23.5q61 0 92.5 28.5t31.5 85.5q0 31 -9.5 52t-31 34.5t-57.5 21.5l-57 12q-62 14 -102.5 39t-60.5 64.5t-20 94.5q0 65 26.5 108.5t76.5 66t119 22.5q74 0 126 -25.5t90 -79.5l-73 -64q-27 38 -60.5 57
t-84.5 19q-57 0 -85.5 -23.5t-28.5 -77.5q0 -28 10 -48t31.5 -32.5t54.5 -20.5l57 -13q67 -15 107.5 -39.5t59 -63.5t18.5 -97q0 -69 -27.5 -117t-79 -72.5t-124.5 -24.5zM265 -57q27 0 42.5 -12t15.5 -36v-18q0 -41 -18 -76.5t-43 -58.5h-67q22 22 35.5 42t19.5 45
q-23 2 -33.5 14t-10.5 34v18q0 24 15.5 36t43.5 12z" />
    <glyph glyph-name="scommaaccent" unicode="&#x219;" horiz-adv-x="446" 
d="M222 -12q-64 0 -112 24.5t-83 71.5l66 61q25 -37 57 -55.5t73 -18.5t63 18.5t22 54.5q0 28 -14 45t-51 24l-45 8q-52 10 -86 28.5t-50.5 49t-16.5 75.5q0 80 47 118.5t129 38.5q41 0 72.5 -8.5t57.5 -26.5t47 -44l-62 -61q-19 25 -47 41t-67 16t-58.5 -17.5t-19.5 -52.5
q0 -31 16 -46t51 -21l46 -9q81 -14 115.5 -50t34.5 -97q0 -53 -21.5 -90.5t-63 -57t-100.5 -19.5zM223 -57q27 0 42.5 -12t15.5 -36v-18q0 -41 -18 -76.5t-43 -58.5h-67q22 22 35.5 42t19.5 45q-23 2 -33.5 14t-10.5 34v18q0 24 15.5 36t43.5 12z" />
    <glyph glyph-name="uni021A" unicode="&#x21a;" horiz-adv-x="521" 
d="M498 605h-184v-605h-107v605h-184v93h475v-93zM261 -57q27 0 42.5 -12t15.5 -36v-18q0 -41 -18 -76.5t-43 -58.5h-67q22 22 35.5 42t19.5 45q-23 2 -33.5 14t-10.5 34v18q0 24 15.5 36t43.5 12z" />
    <glyph glyph-name="uni021B" unicode="&#x21b;" horiz-adv-x="328" 
d="M288 0h-90q-53 0 -78 24.5t-25 77.5v333h-72v85h40q25 0 33.5 12t8.5 36v94h93v-142h97v-85h-97v-350h90v-85zM195 -57q27 0 42.5 -12t15.5 -36v-18q0 -41 -18 -76.5t-43 -58.5h-67q22 22 35.5 42t19.5 45q-23 2 -33.5 14t-10.5 34v18q0 24 15.5 36t43.5 12z" />
    <glyph glyph-name="uni0237" unicode="&#x237;" horiz-adv-x="244" 
d="M-2 -200v85h73v635h104v-607q0 -58 -27.5 -85.5t-87.5 -27.5h-62z" />
    <glyph glyph-name="uni0259" unicode="&#x259;" horiz-adv-x="501" 
d="M37 286h318v33q0 62 -31.5 94.5t-86.5 32.5q-46 0 -76.5 -20.5t-51.5 -58.5l-60 57q27 49 75 78.5t118 29.5q65 0 115.5 -29t78.5 -89t28 -154t-26.5 -154.5t-75 -89t-114.5 -28.5t-113 29t-72.5 89t-25.5 154v26zM146 217v-21q0 -41 11.5 -69.5t34.5 -42.5t56 -14
q34 0 58 14t36.5 42.5t12.5 69.5v21h-209z" />
    <glyph glyph-name="uni02BB" unicode="&#x2bb;" 
d="M270 587q-28 0 -43.5 12t-15.5 36v19q0 41 18.5 76t43.5 59h66q-22 -22 -35 -42t-20 -46q24 -1 34.5 -13t10.5 -34v-19q0 -24 -15.5 -36t-43.5 -12z" />
    <glyph glyph-name="uni02BC" unicode="&#x2bc;" 
d="M388 740l-54 -198h-63l8 198h109z" />
    <glyph glyph-name="circumflex" unicode="&#x2c6;" 
d="M220 778h100l113 -151l-53 -41l-110 118l-110 -118l-53 41z" />
    <glyph glyph-name="caron" unicode="&#x2c7;" 
d="M320 590h-100l-113 152l53 41l110 -118l110 118l53 -41z" />
    <glyph glyph-name="breve" unicode="&#x2d8;" 
d="M270 589q-29 0 -52 7.5t-42 24.5t-34 45t-29 68l57 29l19 -37q18 -35 36 -48t45 -13q28 0 46 13.5t35 47.5l19 37l57 -29q-14 -40 -29.5 -68t-34.5 -45t-41.5 -24.5t-51.5 -7.5z" />
    <glyph glyph-name="dotaccent" unicode="&#x2d9;" 
d="M270 611q-32 0 -46.5 13t-14.5 36v21q0 22 14.5 35t46.5 13t46.5 -13t14.5 -35v-21q0 -23 -14.5 -36t-46.5 -13z" />
    <glyph glyph-name="ring" unicode="&#x2da;" 
d="M270 568q-38 0 -66 16t-43 45t-15 66q0 39 15.5 67.5t43 44t65.5 15.5t66 -15.5t43 -44t15 -67.5q0 -37 -15 -66t-43 -45t-66 -16zM270 626q24 0 38.5 12t14.5 36v43q0 24 -14.5 36t-38.5 12t-38.5 -12t-14.5 -36v-43q0 -24 14.5 -36t38.5 -12z" />
    <glyph glyph-name="ogonek" unicode="&#x2db;" 
d="M197 -209q-31 0 -54 8.5t-35.5 25t-12.5 41.5q0 40 31.5 71t81.5 54v31h53l9 -22q-37 -24 -58.5 -43.5t-31 -36.5t-9.5 -35q0 -16 9.5 -24.5t25.5 -8.5q15 0 27 6.5t20 16.5l39 -40q-14 -18 -39 -31t-56 -13z" />
    <glyph glyph-name="tilde" unicode="&#x2dc;" 
d="M339 609q-17 0 -32 5t-42 19q-25 14 -39.5 19.5t-25.5 5.5q-16 0 -27 -7t-26 -21l-38 50q16 26 40 40.5t52 14.5q17 0 32.5 -5t41.5 -19q25 -13 39.5 -19t25.5 -6q16 0 27.5 7t25.5 20l38 -49q-16 -26 -40 -40.5t-52 -14.5z" />
    <glyph glyph-name="hungarumlaut" unicode="&#x2dd;" 
d="M306 750l-110 -168l-58 30l84 181zM471 750l-110 -168l-59 30l85 181z" />
    <glyph glyph-name="uni0300" unicode="&#x300;" horiz-adv-x="0" 
d="M-10 582l-111 167l90 46l84 -182z" />
    <glyph glyph-name="uni0301" unicode="&#x301;" horiz-adv-x="0" 
d="M121 749l-111 -167l-63 31l84 182z" />
    <glyph glyph-name="uni0302" unicode="&#x302;" horiz-adv-x="0" 
d="M-50 778h100l113 -151l-53 -41l-110 118l-110 -118l-53 41z" />
    <glyph glyph-name="uni0303" unicode="&#x303;" horiz-adv-x="0" 
d="M69 609q-17 0 -32 5t-42 19q-25 14 -39.5 19.5t-25.5 5.5q-16 0 -27 -7t-26 -21l-38 50q16 26 40 40.5t52 14.5q17 0 32.5 -5t41.5 -19q25 -13 39.5 -19t25.5 -6q16 0 27.5 7t25.5 20l38 -49q-16 -26 -40 -40.5t-52 -14.5z" />
    <glyph glyph-name="uni0304" unicode="&#x304;" horiz-adv-x="0" 
d="M-132 633v80h264v-80h-264z" />
    <glyph glyph-name="uni0306" unicode="&#x306;" horiz-adv-x="0" 
d="M0 589q-29 0 -52 7.5t-42 24.5t-34 45t-29 68l57 29l19 -37q18 -35 36 -48t45 -13q28 0 46 13.5t35 47.5l19 37l57 -29q-14 -40 -29.5 -68t-34.5 -45t-41.5 -24.5t-51.5 -7.5z" />
    <glyph glyph-name="uni0307" unicode="&#x307;" horiz-adv-x="0" 
d="M0 611q-32 0 -46.5 13t-14.5 36v21q0 22 14.5 35t46.5 13t46.5 -13t14.5 -35v-21q0 -23 -14.5 -36t-46.5 -13z" />
    <glyph glyph-name="uni0308" unicode="&#x308;" horiz-adv-x="0" 
d="M-90 612q-32 0 -46 13t-14 35v23q0 22 14 34.5t46 12.5t46 -12.5t14 -34.5v-23q0 -22 -14 -35t-46 -13zM90 612q-32 0 -46 13t-14 35v23q0 22 14 34.5t46 12.5t46 -12.5t14 -34.5v-23q0 -22 -14 -35t-46 -13z" />
    <glyph glyph-name="uni0309" unicode="&#x309;" horiz-adv-x="0" 
d="M-93 703v78h121q39 0 55.5 -15.5t16.5 -45.5q0 -24 -9 -46.5t-29 -50.5l-35 -49l-56 27l47 102h-111z" />
    <glyph glyph-name="uni030A" unicode="&#x30a;" horiz-adv-x="0" 
d="M0 568q-38 0 -66 16t-43 45t-15 66q0 39 15.5 67.5t43 44t65.5 15.5t66 -15.5t43 -44t15 -67.5q0 -37 -15 -66t-43 -45t-66 -16zM0 626q24 0 38.5 12t14.5 36v43q0 24 -14.5 36t-38.5 12t-38.5 -12t-14.5 -36v-43q0 -24 14.5 -36t38.5 -12z" />
    <glyph glyph-name="uni030B" unicode="&#x30b;" horiz-adv-x="0" 
d="M36 750l-110 -168l-58 30l84 181zM201 750l-110 -168l-59 30l85 181z" />
    <glyph glyph-name="uni030C" unicode="&#x30c;" horiz-adv-x="0" 
d="M50 590h-100l-113 152l53 41l110 -118l110 118l53 -41z" />
    <glyph glyph-name="uni0312" unicode="&#x312;" horiz-adv-x="0" 
d="M0 587q-28 0 -43.5 12t-15.5 36v19q0 41 18.5 76t43.5 59h66q-22 -22 -35 -42t-20 -46q24 -1 34.5 -13t10.5 -34v-19q0 -24 -15.5 -36t-43.5 -12z" />
    <glyph glyph-name="uni0315" unicode="&#x315;" horiz-adv-x="0" 
d="M118 740l-54 -198h-63l8 198h109z" />
    <glyph glyph-name="uni031B" unicode="&#x31b;" horiz-adv-x="0" 
d="M91 628v-103q0 -41 -14.5 -56t-59.5 -15h-108v66h96v108h86z" />
    <glyph glyph-name="uni0323" unicode="&#x323;" horiz-adv-x="0" 
d="M0 -180q-32 0 -46.5 13t-14.5 35v22q0 22 14.5 35t46.5 13t46.5 -13t14.5 -35v-22q0 -22 -14.5 -35t-46.5 -13z" />
    <glyph glyph-name="uni0326" unicode="&#x326;" horiz-adv-x="0" 
d="M0 -57q27 0 42.5 -12t15.5 -36v-18q0 -41 -18 -76.5t-43 -58.5h-67q22 22 35.5 42t19.5 45q-23 2 -33.5 14t-10.5 34v18q0 24 15.5 36t43.5 12z" />
    <glyph glyph-name="uni0327" unicode="&#x327;" horiz-adv-x="0" 
d="M12 -208q-41 0 -65 13t-37 29l37 44q10 -10 23.5 -18.5t35.5 -8.5t32 8t10 25t-10 24.5t-32 7.5h-48l19 103h53l-17 -88h9q4 7 13.5 12.5t24.5 5.5q30 0 45.5 -18t15.5 -53q0 -30 -14 -49t-38.5 -28t-56.5 -9z" />
    <glyph glyph-name="uni0328" unicode="&#x328;" horiz-adv-x="0" 
d="M-73 -209q-31 0 -54 8.5t-35.5 25t-12.5 41.5q0 40 31.5 71t81.5 54v31h53l9 -22q-37 -24 -58.5 -43.5t-31 -36.5t-9.5 -35q0 -16 9.5 -24.5t25.5 -8.5q15 0 27 6.5t20 16.5l39 -40q-14 -18 -39 -31t-56 -13z" />
    <glyph glyph-name="uni037E" unicode="&#x37e;" horiz-adv-x="278" 
d="M139 129q34 0 51.5 -15.5t17.5 -44.5v-21q0 -48 -25 -98.5t-67 -87.5h-75q30 32 49.5 61.5t29.5 66.5q-25 5 -37.5 20t-12.5 38v21q0 29 17 44.5t52 15.5zM139 386q-35 0 -52 15.5t-17 44.5v20q0 29 17 44.5t52 15.5q34 0 51.5 -15.5t17.5 -44.5v-20q0 -29 -17.5 -44.5
t-51.5 -15.5z" />
    <glyph glyph-name="tonos" unicode="&#x384;" 
d="M366 779l-57 -197l-69 12l29 201z" />
    <glyph glyph-name="dieresistonos" unicode="&#x385;" 
d="M402 614q-26 0 -38 12.5t-12 33.5v22q0 22 12 34t38 12q27 0 39 -12t12 -34v-22q0 -21 -12 -33.5t-39 -12.5zM164 614q-26 0 -38.5 12.5t-12.5 33.5v22q0 22 12.5 34t38.5 12q27 0 39 -12t12 -34v-22q0 -21 -12 -33.5t-39 -12.5zM348 780l-56 -197l-54 10l28 202z" />
    <glyph glyph-name="Alphatonos" unicode="&#x386;" horiz-adv-x="599" 
d="M578 0h-107l-54 193h-235l-54 -193h-104l209 698h135zM392 280l-65 220l-22 102h-13l-22 -102l-62 -220h184zM159 779l-57 -197l-69 12l29 201z" />
    <glyph glyph-name="anoteleia" unicode="&#x387;" horiz-adv-x="269" 
d="M135 386q-35 0 -52 15.5t-17 44.5v20q0 29 17 44.5t52 15.5q34 0 51.5 -15.5t17.5 -44.5v-20q0 -29 -17.5 -44.5t-51.5 -15.5z" />
    <glyph glyph-name="Epsilontonos" unicode="&#x388;" horiz-adv-x="589" 
d="M535 0h-405v698h405v-93h-299v-205h270v-94h-270v-213h299v-93zM107 779l-57 -197l-69 12l29 201z" />
    <glyph glyph-name="Etatonos" unicode="&#x389;" horiz-adv-x="697" 
d="M514 0v306h-278v-306h-106v698h106v-298h278v298h107v-698h-107zM107 779l-57 -197l-69 12l29 201z" />
    <glyph glyph-name="Iotatonos" unicode="&#x38a;" horiz-adv-x="457" 
d="M407 0h-277v86h85v526h-85v86h277v-86h-85v-526h85v-86zM107 779l-57 -197l-69 12l29 201z" />
    <glyph glyph-name="Omicrontonos" unicode="&#x38c;" horiz-adv-x="663" 
d="M343 -12q-84 0 -145 37.5t-93.5 117t-32.5 206.5q0 128 32.5 207t93.5 116.5t145 37.5t145 -37.5t93.5 -116.5t32.5 -207q0 -127 -32.5 -206.5t-93.5 -117t-145 -37.5zM343 82q50 0 84.5 22t53.5 63.5t19 97.5v168q0 57 -19 98t-53.5 63t-84.5 22q-49 0 -84.5 -22
t-54 -63t-18.5 -98v-168q0 -56 18.5 -97.5t54 -63.5t84.5 -22zM108 779l-57 -197l-69 12l29 201z" />
    <glyph glyph-name="Upsilontonos" unicode="&#x38e;" horiz-adv-x="663" 
d="M439 0h-107v270l-215 428h119l145 -312h13l143 312h117l-215 -428v-270zM108 779l-57 -197l-69 12l29 201z" />
    <glyph glyph-name="Omegatonos" unicode="&#x38f;" horiz-adv-x="669" 
d="M108 779l-57 -197l-69 12l29 201zM72 0v87h162v11q-33 11 -61.5 33.5t-50 58t-34 85.5t-12.5 115q0 70 16.5 129t49.5 101.5t84.5 66t121.5 23.5q69 0 120.5 -23.5t84.5 -66t49.5 -101.5t16.5 -129q0 -65 -12 -115t-33.5 -85.5t-50 -58t-61.5 -33.5v-11h161v-87h-225v133
q21 8 40 23.5t34.5 38t24.5 51t9 62.5v155q0 40 -19 74.5t-54.5 56.5t-84.5 22q-50 0 -85.5 -22t-54.5 -56.5t-19 -74.5v-155q0 -34 9 -62.5t24.5 -51t35 -38t39.5 -23.5v-133h-225z" />
    <glyph glyph-name="iotadieresistonos" unicode="&#x390;" horiz-adv-x="282" 
d="M264 85v-85h-88q-54 0 -80 25.5t-26 78.5v416h103v-435h91zM250 614q-26 0 -38 12.5t-12 33.5v22q0 22 12 34t38 12q27 0 39 -12t12 -34v-22q0 -21 -12 -33.5t-39 -12.5zM12 614q-26 0 -38.5 12.5t-12.5 33.5v22q0 22 12.5 34t38.5 12q27 0 39 -12t12 -34v-22
q0 -21 -12 -33.5t-39 -12.5zM196 780l-56 -197l-54 10l28 202z" />
    <glyph glyph-name="Alpha" unicode="&#x391;" horiz-adv-x="596" 
d="M575 0h-107l-54 193h-235l-54 -193h-104l209 698h135zM389 280l-65 220l-22 102h-13l-22 -102l-62 -220h184z" />
    <glyph glyph-name="Beta" unicode="&#x392;" horiz-adv-x="595" 
d="M77 0v698h283q81 0 123 -46.5t42 -133.5q0 -56 -17 -87.5t-43 -45t-52 -15.5v-12q21 0 44.5 -8.5t44 -26.5t33.5 -48t13 -74q0 -60 -20 -105t-56 -70.5t-84 -25.5h-311zM183 312v-220h174q25 0 42.5 9t26.5 28t9 49v48q0 30 -9 49t-26.5 28t-42.5 9h-174zM183 606v-204
h157q23 0 39.5 8.5t25 26t8.5 44.5v46q0 28 -8.5 45.5t-25 25.5t-39.5 8h-157z" />
    <glyph glyph-name="Gamma" unicode="&#x393;" horiz-adv-x="462" 
d="M77 0v698h360v-93h-254v-605h-106z" />
    <glyph glyph-name="uni0394" unicode="&#x394;" horiz-adv-x="595" 
d="M45 0v88l185 610h136l186 -610v-88h-507zM439 92l-102 362l-34 148h-13l-34 -148l-101 -362h284z" />
    <glyph glyph-name="Epsilon" unicode="&#x395;" horiz-adv-x="536" 
d="M482 0h-405v698h405v-93h-299v-205h270v-94h-270v-213h299v-93z" />
    <glyph glyph-name="Zeta" unicode="&#x396;" horiz-adv-x="533" 
d="M500 93v-93h-466v95l335 510h-319v93h439v-95l-335 -510h346z" />
    <glyph glyph-name="Eta" unicode="&#x397;" horiz-adv-x="644" 
d="M461 0v306h-278v-306h-106v698h106v-298h278v298h107v-698h-107z" />
    <glyph glyph-name="Theta" unicode="&#x398;" horiz-adv-x="644" 
d="M322 -12q-85 0 -146.5 37.5t-94 117t-32.5 206.5q0 128 32.5 207t94 116.5t146.5 37.5t146.5 -37.5t94 -116.5t32.5 -207q0 -127 -32.5 -206.5t-94 -117t-146.5 -37.5zM322 82q51 0 86.5 22t54 63.5t18.5 97.5v168q0 57 -18.5 98t-54 63t-86.5 22t-86.5 -22t-54 -63
t-18.5 -98v-168q0 -56 18.5 -97.5t54 -63.5t86.5 -22zM432 306h-220v94h220v-94z" />
    <glyph glyph-name="Iota" unicode="&#x399;" horiz-adv-x="377" 
d="M327 0h-277v86h85v526h-85v86h277v-86h-85v-526h85v-86z" />
    <glyph glyph-name="Kappa" unicode="&#x39a;" horiz-adv-x="598" 
d="M456 0l-186 330l-87 -112v-218h-106v698h106v-230l-6 -130h13l89 130l164 230h122l-222 -296l238 -402h-125z" />
    <glyph glyph-name="Lambda" unicode="&#x39b;" horiz-adv-x="581" 
d="M224 698h132l205 -698h-111l-120 439l-35 163h-12l-35 -163l-119 -439h-108z" />
    <glyph glyph-name="Mu" unicode="&#x39c;" horiz-adv-x="733" 
d="M76 0v698h125l113 -244l49 -138h9l49 138l112 244h124v-698h-102v430l7 119h-12l-48 -117l-136 -284l-135 284l-48 115h-12l7 -117v-430h-102z" />
    <glyph glyph-name="Nu" unicode="&#x39d;" horiz-adv-x="644" 
d="M445 0l-208 419l-53 130h-13l8 -132v-417h-102v698h122l208 -419l54 -130h13l-8 132v417h102v-698h-123z" />
    <glyph glyph-name="Xi" unicode="&#x39e;" horiz-adv-x="536" 
d="M54 605v93h428v-93h-428zM99 306v94h338v-94h-338zM54 0v93h428v-93h-428z" />
    <glyph glyph-name="Omicron" unicode="&#x39f;" horiz-adv-x="640" 
d="M320 -12q-84 0 -145 37.5t-93.5 117t-32.5 206.5q0 128 32.5 207t93.5 116.5t145 37.5t145 -37.5t93.5 -116.5t32.5 -207q0 -127 -32.5 -206.5t-93.5 -117t-145 -37.5zM320 82q50 0 84.5 22t53.5 63.5t19 97.5v168q0 57 -19 98t-53.5 63t-84.5 22q-49 0 -84.5 -22
t-54 -63t-18.5 -98v-168q0 -56 18.5 -97.5t54 -63.5t84.5 -22z" />
    <glyph glyph-name="Pi" unicode="&#x3a0;" horiz-adv-x="631" 
d="M77 0v698h477v-698h-107v605h-264v-605h-106z" />
    <glyph glyph-name="Rho" unicode="&#x3a1;" horiz-adv-x="568" 
d="M183 0h-106v698h276q59 0 99.5 -24.5t61 -70.5t20.5 -113t-20.5 -113t-61 -70.5t-99.5 -24.5h-170v-282zM183 605v-229h161q25 0 42.5 8.5t26 27t8.5 46.5v64q0 29 -8.5 47t-26 27t-42.5 9h-161z" />
    <glyph glyph-name="Sigma" unicode="&#x3a3;" horiz-adv-x="529" 
d="M478 0h-440v95l210 256l-203 251v96h433v-93h-305l203 -251l-215 -261h317v-93z" />
    <glyph glyph-name="Tau" unicode="&#x3a4;" horiz-adv-x="521" 
d="M498 605h-184v-605h-107v605h-184v93h475v-93z" />
    <glyph glyph-name="Upsilon" unicode="&#x3a5;" horiz-adv-x="553" 
d="M330 0h-107v270l-215 428h119l145 -312h13l143 312h117l-215 -428v-270z" />
    <glyph glyph-name="Phi" unicode="&#x3a6;" horiz-adv-x="768" 
d="M331 -35v66h-10q-88 0 -150 38t-95 110t-33 175t33 175t95 110t150 38h10v54h107v-54h9q89 0 150.5 -38t94.5 -110t33 -175t-33 -175t-94.5 -110t-150.5 -38h-9v-66h-107zM333 119v470h-11q-52 0 -89.5 -23.5t-57.5 -65.5t-20 -99v-94q0 -57 20 -99t57.5 -65.5
t89.5 -23.5h11zM435 119h11q52 0 89.5 23.5t57.5 65.5t20 99v94q0 57 -20 99t-57.5 65.5t-89.5 23.5h-11v-470z" />
    <glyph glyph-name="Chi" unicode="&#x3a7;" horiz-adv-x="579" 
d="M18 0l203 356l-194 342h124l135 -255h12l139 255h115l-196 -340l204 -358h-123l-146 272h-12l-145 -272h-116z" />
    <glyph glyph-name="Psi" unicode="&#x3a8;" horiz-adv-x="731" 
d="M312 0v193q-79 0 -135.5 28.5t-87 88t-30.5 151.5v237h107v-237q0 -68 18 -107.5t51 -56t77 -16.5v417h107v-417q44 0 77 16.5t50.5 56t17.5 107.5v237h107v-237q0 -92 -30 -151.5t-86.5 -88t-135.5 -28.5v-193h-107z" />
    <glyph glyph-name="uni03A9" unicode="&#x3a9;" horiz-adv-x="643" 
d="M46 0v87h162v11q-33 11 -61.5 33.5t-50 58t-34 85.5t-12.5 115q0 70 16.5 129t49.5 101.5t84.5 66t121.5 23.5q69 0 120.5 -23.5t84.5 -66t49.5 -101.5t16.5 -129q0 -65 -12 -115t-33.5 -85.5t-50 -58t-61.5 -33.5v-11h161v-87h-225v133q21 8 40 23.5t34.5 38t24.5 51
t9 62.5v155q0 40 -19 74.5t-54.5 56.5t-84.5 22q-50 0 -85.5 -22t-54.5 -56.5t-19 -74.5v-155q0 -34 9 -62.5t24.5 -51t35 -38t39.5 -23.5v-133h-225z" />
    <glyph glyph-name="Iotadieresis" unicode="&#x3aa;" horiz-adv-x="377" 
d="M327 0h-277v86h85v526h-85v86h277v-86h-85v-526h85v-86zM99 780q-32 0 -46 13t-14 35v23q0 22 14 35t46 13t46 -13t14 -35v-23q0 -22 -14 -35t-46 -13zM279 780q-32 0 -46 13t-14 35v23q0 22 14 35t46 13t46 -13t14 -35v-23q0 -22 -14 -35t-46 -13z" />
    <glyph glyph-name="Upsilondieresis" unicode="&#x3ab;" horiz-adv-x="553" 
d="M330 0h-107v270l-215 428h119l145 -312h13l143 312h117l-215 -428v-270zM188 780q-32 0 -46 13t-14 35v23q0 22 14 35t46 13t46 -13t14 -35v-23q0 -22 -14 -35t-46 -13zM368 780q-32 0 -46 13t-14 35v23q0 22 14 35t46 13t46 -13t14 -35v-23q0 -22 -14 -35t-46 -13z" />
    <glyph glyph-name="alphatonos" unicode="&#x3ac;" horiz-adv-x="589" 
d="M558 85v-85h-53q-44 0 -66 19t-26 63l-9 90h-12q-11 -63 -32 -104t-53.5 -60.5t-78.5 -19.5q-59 0 -100.5 29t-64 89t-22.5 154q0 93 22.5 153.5t64.5 89.5t100 29q46 0 79.5 -19t55.5 -60t32 -106h12l19 95l22 78h107l-102 -258l56 -177h49zM234 76q20 0 35.5 8.5t29 30
t24.5 57.5l28 88l-27 88q-12 36 -25 57t-28.5 30t-36.5 9q-39 0 -61.5 -31t-22.5 -98v-110q0 -67 22.5 -98t61.5 -31zM334 779l-57 -197l-69 12l29 201z" />
    <glyph glyph-name="epsilontonos" unicode="&#x3ad;" horiz-adv-x="471" 
d="M388 150l61 -61q-32 -49 -84 -75t-124 -26q-95 0 -146 42t-51 111q0 54 29.5 84.5t84.5 39.5v12q-51 6 -77 33.5t-26 72.5q0 64 50.5 106.5t140.5 42.5q45 0 82 -11t65.5 -32t48.5 -50l-65 -61q-13 22 -32 37t-43 23t-52 8q-45 0 -66.5 -19.5t-21.5 -45.5v-12
q0 -28 19 -46.5t55 -18.5h98v-76h-104q-39 0 -59 -17.5t-20 -50.5v-12q0 -36 25 -55t76 -19q48 0 81.5 20t54.5 56zM335 779l-57 -197l-69 12l29 201z" />
    <glyph glyph-name="etatonos" unicode="&#x3ae;" horiz-adv-x="532" 
d="M181 0h-103v435h-48v85h65q43 0 64.5 -21.5t21.5 -67.5v-12l-20 13h32q14 45 44 72.5t84 27.5q70 0 108.5 -48.5t38.5 -138.5v-545h-103v531q0 55 -21.5 84t-65.5 29q-27 0 -49 -11.5t-35 -32t-13 -49.5v-351zM336 779l-57 -197l-69 12l29 201z" />
    <glyph glyph-name="iotatonos" unicode="&#x3af;" horiz-adv-x="282" 
d="M264 85v-85h-88q-54 0 -80 25.5t-26 78.5v416h103v-435h91zM214 779l-57 -197l-69 12l29 201z" />
    <glyph glyph-name="upsilondieresistonos" unicode="&#x3b0;" horiz-adv-x="520" 
d="M166 520v-311q0 -50 10 -79.5t31 -42.5t53 -13q33 0 53.5 13t30.5 42.5t10 79.5v311h104v-295q0 -83 -22.5 -135.5t-66.5 -77t-109 -24.5t-109 24.5t-66.5 77t-22.5 135.5v295h104zM383 614q-26 0 -38 12.5t-12 33.5v22q0 22 12 34t38 12q27 0 39 -12t12 -34v-22
q0 -21 -12 -33.5t-39 -12.5zM145 614q-26 0 -38.5 12.5t-12.5 33.5v22q0 22 12.5 34t38.5 12q27 0 39 -12t12 -34v-22q0 -21 -12 -33.5t-39 -12.5zM329 780l-56 -197l-54 10l28 202z" />
    <glyph glyph-name="alpha" unicode="&#x3b1;" horiz-adv-x="589" 
d="M558 85v-85h-53q-44 0 -66 19t-26 63l-9 90h-12q-11 -63 -32 -104t-53.5 -60.5t-78.5 -19.5q-59 0 -100.5 29t-64 89t-22.5 154q0 93 22.5 153.5t64.5 89.5t100 29q46 0 79.5 -19t55.5 -60t32 -106h12l19 95l22 78h107l-102 -258l56 -177h49zM234 76q20 0 35.5 8.5t29 30
t24.5 57.5l28 88l-27 88q-12 36 -25 57t-28.5 30t-36.5 9q-39 0 -61.5 -31t-22.5 -98v-110q0 -67 22.5 -98t61.5 -31z" />
    <glyph glyph-name="beta" unicode="&#x3b2;" horiz-adv-x="538" 
d="M70 -200v713q0 121 50.5 180t148.5 59q63 0 106.5 -22t66 -63t22.5 -98q0 -50 -15 -84.5t-41 -54.5t-58 -26v-13q40 -3 73 -22.5t52 -58t19 -97.5q0 -70 -21.5 -120.5t-63 -77.5t-101.5 -27q-43 0 -75 22.5t-48 61.5h-12v-272h-103zM236 351v85h36q26 0 45 10.5t29.5 31
t10.5 48.5v49q0 28 -10 48.5t-30 31.5t-50 11q-47 0 -70.5 -29t-23.5 -91v-399q0 -24 12.5 -40t35.5 -24.5t53 -8.5q37 0 62 13.5t38 39.5t13 64v46q0 54 -29.5 84t-83.5 30h-38z" />
    <glyph glyph-name="gamma" unicode="&#x3b3;" horiz-adv-x="470" 
d="M183 -200v200l-131 435h-46v85h47q44 0 64.5 -16t30.5 -54l51 -190l31 -148h13l39 148l78 260h100l-174 -520v-200h-103z" />
    <glyph glyph-name="delta" unicode="&#x3b4;" horiz-adv-x="506" 
d="M284 473q-41 -3 -72 -25t-48.5 -60.5t-17.5 -91.5v-96q0 -42 12.5 -70t36.5 -42t58 -14t58 14t36.5 42t12.5 70v63q0 35 -5 63.5t-17 54.5t-33 51.5t-53 54.5l-160 145v108h334v-85h-160l-77 13v-13l120 -97q45 -37 76 -70.5t49.5 -68.5t26.5 -74t8 -86q0 -94 -26.5 -154
t-75 -88.5t-114.5 -28.5t-114.5 28.5t-75 86.5t-26.5 147q0 84 25 140t66.5 84.5t90.5 28.5v25z" />
    <glyph glyph-name="epsilon" unicode="&#x3b5;" horiz-adv-x="471" 
d="M388 150l61 -61q-32 -49 -84 -75t-124 -26q-95 0 -146 42t-51 111q0 54 29.5 84.5t84.5 39.5v12q-51 6 -77 33.5t-26 72.5q0 64 50.5 106.5t140.5 42.5q45 0 82 -11t65.5 -32t48.5 -50l-65 -61q-13 22 -32 37t-43 23t-52 8q-45 0 -66.5 -19.5t-21.5 -45.5v-12
q0 -28 19 -46.5t55 -18.5h98v-76h-104q-39 0 -59 -17.5t-20 -50.5v-12q0 -36 25 -55t76 -19q48 0 81.5 20t54.5 56z" />
    <glyph glyph-name="zeta" unicode="&#x3b6;" horiz-adv-x="389" 
d="M54 655v85h327v-80l-158 -231q-44 -64 -60.5 -109.5t-16.5 -82.5v-28q0 -27 9.5 -48t29 -36.5t49.5 -24.5l71 -23q33 -11 49.5 -30t16.5 -44q0 -12 -2.5 -25.5t-7.5 -30.5l-37 -112l-90 28l39 124l-69 22q-60 19 -96.5 47.5t-53.5 68t-17 90.5q0 40 9 77.5t32 80.5
t65 101l131 179v15l-67 -13h-153z" />
    <glyph glyph-name="eta" unicode="&#x3b7;" horiz-adv-x="532" 
d="M181 0h-103v435h-48v85h65q43 0 64.5 -21.5t21.5 -67.5v-12l-20 13h32q14 45 44 72.5t84 27.5q70 0 108.5 -48.5t38.5 -138.5v-545h-103v531q0 55 -21.5 84t-65.5 29q-27 0 -49 -11.5t-35 -32t-13 -49.5v-351z" />
    <glyph glyph-name="theta" unicode="&#x3b8;" horiz-adv-x="515" 
d="M155 490v-77h205v77q0 67 -11 105.5t-33.5 55t-57.5 16.5t-58 -16.5t-34 -55t-11 -105.5zM258 752q50 0 89.5 -17t66.5 -58.5t41.5 -116t14.5 -190.5t-14.5 -190.5t-41.5 -116t-66.5 -58.5t-89.5 -17t-89.5 17t-67 58.5t-41.5 116t-14 190.5t14 190.5t41.5 116t67 58.5
t89.5 17zM258 73q35 0 57.5 16.5t33.5 55t11 105.5v78h-205v-78q0 -67 11 -105.5t34 -55t58 -16.5z" />
    <glyph glyph-name="iota" unicode="&#x3b9;" horiz-adv-x="282" 
d="M264 85v-85h-88q-54 0 -80 25.5t-26 78.5v416h103v-435h91z" />
    <glyph glyph-name="kappa" unicode="&#x3ba;" horiz-adv-x="500" 
d="M366 0l-133 235l-60 -73v-162h-103v520h103v-242h12l46 68l102 133q18 24 35 32.5t48 8.5h47v-85h-55l-107 -131l182 -304h-117z" />
    <glyph glyph-name="lambda" unicode="&#x3bb;" horiz-adv-x="473" 
d="M185 519l-39 136h-87v85h88q41 0 61.5 -14.5t31.5 -52.5l169 -588h58v-85h-58q-41 0 -61.5 15t-31.5 51l-53 188l-29 148h-13l-38 -148l-80 -254h-100z" />
    <glyph glyph-name="uni03BC" unicode="&#x3bc;" horiz-adv-x="538" 
d="M172 -200h-102v720h103v-331q0 -55 22 -84t66 -29q26 0 48 11t35 32.5t13 50.5v350h103v-435h49v-85h-55q-48 0 -72 22.5t-24 70.5v13l24 -17h-35q-10 -50 -36.5 -75.5t-64.5 -25.5q-36 0 -60 19t-36 58h-11l33 -148v-117z" />
    <glyph glyph-name="nu" unicode="&#x3bd;" horiz-adv-x="475" 
d="M301 0h-128l-121 435h-46v85h47q44 0 65 -16t30 -54l51 -201l34 -158h12l41 158l78 271h101z" />
    <glyph glyph-name="xi" unicode="&#x3be;" horiz-adv-x="406" 
d="M391 655h-116q-30 0 -52.5 -12.5t-34.5 -36.5t-12 -58v-29q0 -44 25 -69t69 -25h62v-85h-81q-33 0 -55.5 -13t-33.5 -37t-11 -58v-29q0 -25 9.5 -45.5t29 -34.5t49.5 -24l71 -22q33 -11 49.5 -30t16.5 -44q0 -12 -2.5 -25.5t-7.5 -30.5l-37 -112l-90 28l40 124l-70 22
q-58 18 -94.5 45.5t-53.5 66.5t-17 90q0 70 36.5 116t100.5 53v12q-57 12 -83.5 46.5t-26.5 86.5q0 45 21.5 75.5t59.5 42.5v12h-117v85h356v-85z" />
    <glyph glyph-name="omicron" unicode="&#x3bf;" horiz-adv-x="506" 
d="M253 -12q-66 0 -114.5 28.5t-75 88.5t-26.5 155q0 94 26.5 154.5t75 89t114.5 28.5t114.5 -28.5t75 -89t26.5 -154.5q0 -95 -26.5 -155t-75 -88.5t-114.5 -28.5zM253 74q52 0 79.5 31t27.5 94v122q0 63 -27.5 93.5t-79.5 30.5q-51 0 -79 -30.5t-28 -93.5v-122
q0 -63 28 -94t79 -31z" />
    <glyph glyph-name="pi" unicode="&#x3c0;" horiz-adv-x="567" 
d="M464 435v-350h72v-85h-69q-54 0 -80.5 25.5t-26.5 78.5v331h-160v-435h-104v435h-73v85h514v-85h-73z" />
    <glyph glyph-name="rho" unicode="&#x3c1;" horiz-adv-x="508" 
d="M48 -200v490q0 78 23.5 132t70 82t115.5 28q109 0 159.5 -66.5t50.5 -203.5q0 -133 -44.5 -203.5t-137.5 -70.5q-42 0 -74.5 23.5t-46.5 60.5h-13v-272h-103zM250 74q53 0 80 33.5t27 94.5v119q0 62 -26.5 93t-76.5 31t-76.5 -31t-26.5 -93v-174q0 -24 13 -40t35 -24.5
t51 -8.5z" />
    <glyph glyph-name="sigma1" unicode="&#x3c2;" horiz-adv-x="445" 
d="M254 -137l39 124l-89 29q-58 19 -95 50t-54.5 80t-17.5 123q0 91 24.5 149t70.5 86t111 28q71 0 115.5 -33.5t64.5 -92.5l-84 -40q-10 39 -33 59t-64 20q-31 0 -52.5 -13t-32.5 -41t-11 -70v-87q0 -51 23.5 -82.5t77.5 -49.5l78 -25q33 -11 49 -30t16 -44q0 -12 -2 -25.5
t-8 -30.5l-36 -112z" />
    <glyph glyph-name="sigma" unicode="&#x3c3;" horiz-adv-x="526" 
d="M506 435h-113v-13q37 -22 56.5 -60.5t19.5 -111.5q0 -89 -26.5 -147t-75 -86.5t-114.5 -28.5t-114.5 28.5t-75 87t-26.5 150.5q0 93 26 151.5t76 86.5t120 28h247v-85zM312 435h-53q-56 0 -84.5 -31t-28.5 -94v-111q0 -63 28 -94t79 -31q52 0 79.5 31t27.5 94v111
q0 42 -12 71.5t-36 53.5z" />
    <glyph glyph-name="tau" unicode="&#x3c4;" horiz-adv-x="441" 
d="M360 0h-97q-54 0 -80 25.5t-26 78.5v331h-139v85h395v-85h-153v-350h100v-85z" />
    <glyph glyph-name="upsilon" unicode="&#x3c5;" horiz-adv-x="520" 
d="M166 520v-311q0 -50 10 -79.5t31 -42.5t53 -13q33 0 53.5 13t30.5 42.5t10 79.5v311h104v-295q0 -83 -22.5 -135.5t-66.5 -77t-109 -24.5t-109 24.5t-66.5 77t-22.5 135.5v295h104z" />
    <glyph glyph-name="phi" unicode="&#x3c6;" horiz-adv-x="670" 
d="M278 -200v188q-72 0 -125 31.5t-82 91.5t-29 145q0 110 32.5 175.5t93.5 99.5l63 -67q-43 -26 -61.5 -67.5t-18.5 -95.5v-84q0 -48 16 -80.5t44 -48.5t67 -16v229q0 116 42.5 173t128.5 57q60 0 99.5 -25t59.5 -81t20 -149q0 -96 -28.5 -160t-84 -96t-135.5 -32v-188
h-102zM380 327v-255q65 0 102 35.5t37 109.5v110q0 67 -17.5 92.5t-52.5 25.5q-33 0 -51 -25.5t-18 -92.5z" />
    <glyph glyph-name="chi" unicode="&#x3c7;" horiz-adv-x="466" 
d="M12 520h62q42 0 62 -14.5t31 -49.5l66 -200h12l99 264h110l-157 -348l105 -287h62v-85h-62q-42 0 -62 14.5t-31 49.5l-70 219h-12l-105 -283h-111l163 368l-100 267h-62v85z" />
    <glyph glyph-name="psi" unicode="&#x3c8;" horiz-adv-x="669" 
d="M284 -200v188q-71 0 -120.5 26.5t-75.5 81.5t-26 142v282h104v-305q0 -52 13 -83t39 -45.5t66 -14.5v638h102v-638q39 0 65.5 14.5t39 45.5t12.5 83v305h104v-282q0 -87 -26 -142t-75 -81.5t-120 -26.5v-188h-102z" />
    <glyph glyph-name="omega" unicode="&#x3c9;" horiz-adv-x="679" 
d="M391 357v-168q0 -43 8 -68t23 -35.5t37 -10.5q34 0 51 24.5t17 89.5v112q0 52 -19.5 94t-60.5 69l62 67q42 -22 70 -57t42.5 -90.5t14.5 -138.5q0 -90 -20.5 -146.5t-56.5 -83.5t-84 -27q-57 0 -89 33.5t-40 97.5h-13q-7 -64 -40 -97.5t-89 -33.5q-48 0 -84.5 27
t-57 83.5t-20.5 146.5q0 81 15 136.5t43.5 91.5t68.5 58l63 -67q-43 -26 -62 -67.5t-19 -95.5v-112q0 -65 17.5 -89.5t51.5 -24.5q22 0 37 10.5t23 35.5t8 68v168h103z" />
    <glyph glyph-name="iotadieresis" unicode="&#x3ca;" horiz-adv-x="282" 
d="M264 85v-85h-88q-54 0 -80 25.5t-26 78.5v416h103v-435h91zM37 612q-32 0 -46 13t-14 35v23q0 22 14 34.5t46 12.5t46 -12.5t14 -34.5v-23q0 -22 -14 -35t-46 -13zM217 612q-32 0 -46 13t-14 35v23q0 22 14 34.5t46 12.5t46 -12.5t14 -34.5v-23q0 -22 -14 -35t-46 -13z
" />
    <glyph glyph-name="upsilondieresis" unicode="&#x3cb;" horiz-adv-x="520" 
d="M166 520v-311q0 -50 10 -79.5t31 -42.5t53 -13q33 0 53.5 13t30.5 42.5t10 79.5v311h104v-295q0 -83 -22.5 -135.5t-66.5 -77t-109 -24.5t-109 24.5t-66.5 77t-22.5 135.5v295h104zM170 612q-32 0 -46 13t-14 35v23q0 22 14 34.5t46 12.5t46 -12.5t14 -34.5v-23
q0 -22 -14 -35t-46 -13zM350 612q-32 0 -46 13t-14 35v23q0 22 14 34.5t46 12.5t46 -12.5t14 -34.5v-23q0 -22 -14 -35t-46 -13z" />
    <glyph glyph-name="omicrontonos" unicode="&#x3cc;" horiz-adv-x="506" 
d="M253 -12q-66 0 -114.5 28.5t-75 88.5t-26.5 155q0 94 26.5 154.5t75 89t114.5 28.5t114.5 -28.5t75 -89t26.5 -154.5q0 -95 -26.5 -155t-75 -88.5t-114.5 -28.5zM253 74q52 0 79.5 31t27.5 94v122q0 63 -27.5 93.5t-79.5 30.5q-51 0 -79 -30.5t-28 -93.5v-122
q0 -63 28 -94t79 -31zM340 779l-57 -197l-69 12l29 201z" />
    <glyph glyph-name="upsilontonos" unicode="&#x3cd;" horiz-adv-x="520" 
d="M166 520v-311q0 -50 10 -79.5t31 -42.5t53 -13q33 0 53.5 13t30.5 42.5t10 79.5v311h104v-295q0 -83 -22.5 -135.5t-66.5 -77t-109 -24.5t-109 24.5t-66.5 77t-22.5 135.5v295h104zM347 779l-57 -197l-69 12l29 201z" />
    <glyph glyph-name="omegatonos" unicode="&#x3ce;" horiz-adv-x="679" 
d="M391 357v-168q0 -43 8 -68t23 -35.5t37 -10.5q34 0 51 24.5t17 89.5v112q0 52 -19.5 94t-60.5 69l62 67q42 -22 70 -57t42.5 -90.5t14.5 -138.5q0 -90 -20.5 -146.5t-56.5 -83.5t-84 -27q-57 0 -89 33.5t-40 97.5h-13q-7 -64 -40 -97.5t-89 -33.5q-48 0 -84.5 27
t-57 83.5t-20.5 146.5q0 81 15 136.5t43.5 91.5t68.5 58l63 -67q-43 -26 -62 -67.5t-19 -95.5v-112q0 -65 17.5 -89.5t51.5 -24.5q22 0 37 10.5t23 35.5t8 68v168h103zM427 779l-57 -197l-69 12l29 201z" />
    <glyph glyph-name="uni0400" unicode="&#x400;" horiz-adv-x="536" 
d="M482 0h-405v698h405v-93h-299v-205h270v-94h-270v-213h299v-93zM268 749l-111 167l90 45l84 -181z" />
    <glyph glyph-name="uni0401" unicode="&#x401;" horiz-adv-x="536" 
d="M482 0h-405v698h405v-93h-299v-205h270v-94h-270v-213h299v-93zM188 780q-32 0 -46 13t-14 35v23q0 22 14 35t46 13t46 -13t14 -35v-23q0 -22 -14 -35t-46 -13zM368 780q-32 0 -46 13t-14 35v23q0 22 14 35t46 13t46 -13t14 -35v-23q0 -22 -14 -35t-46 -13z" />
    <glyph glyph-name="uni0402" unicode="&#x402;" horiz-adv-x="714" 
d="M437 -171v96h84q18 20 27 52t9 83v153q0 70 -31 101.5t-93 31.5q-37 0 -66 -6t-53 -17v-323h-107v605h-184v93h475v-93h-184v-190h12q25 12 54.5 18t65.5 6q110 0 164 -56.5t54 -172.5v-152q0 -80 -21.5 -131t-62 -74.5t-95.5 -23.5h-48z" />
    <glyph glyph-name="uni0403" unicode="&#x403;" horiz-adv-x="462" 
d="M77 0v698h360v-93h-254v-605h-106zM378 916l-111 -167l-63 31l84 181z" />
    <glyph glyph-name="uni0404" unicode="&#x404;" horiz-adv-x="587" 
d="M320 -12q-85 0 -146 37t-93 116t-32 206t32 207t93 118t146 38q63 0 107 -16.5t74.5 -50t52.5 -84.5l-89 -51q-16 52 -48 80t-97 28q-51 0 -86.5 -22t-53 -63t-17.5 -98v-58l-41 25h276v-94h-276l41 29v-70q0 -86 40 -134.5t117 -48.5q67 0 101 30.5t51 84.5l87 -53
q-33 -76 -89.5 -116t-149.5 -40z" />
    <glyph glyph-name="uni0405" unicode="&#x405;" horiz-adv-x="538" 
d="M266 -12q-77 0 -135 30t-99 85l73 67q31 -42 71 -65.5t91 -23.5q61 0 92.5 28.5t31.5 85.5q0 31 -9.5 52t-31 34.5t-57.5 21.5l-57 12q-62 14 -102.5 39t-60.5 64.5t-20 94.5q0 65 26.5 108.5t76.5 66t119 22.5q74 0 126 -25.5t90 -79.5l-73 -64q-27 38 -60.5 57
t-84.5 19q-57 0 -85.5 -23.5t-28.5 -77.5q0 -28 10 -48t31.5 -32.5t54.5 -20.5l57 -13q67 -15 107.5 -39.5t59 -63.5t18.5 -97q0 -69 -27.5 -117t-79 -72.5t-124.5 -24.5z" />
    <glyph glyph-name="uni0406" unicode="&#x406;" horiz-adv-x="377" 
d="M327 0h-277v86h85v526h-85v86h277v-86h-85v-526h85v-86z" />
    <glyph glyph-name="uni0407" unicode="&#x407;" horiz-adv-x="377" 
d="M327 0h-277v86h85v526h-85v86h277v-86h-85v-526h85v-86zM99 780q-32 0 -46 13t-14 35v23q0 22 14 35t46 13t46 -13t14 -35v-23q0 -22 -14 -35t-46 -13zM279 780q-32 0 -46 13t-14 35v23q0 22 14 35t46 13t46 -13t14 -35v-23q0 -22 -14 -35t-46 -13z" />
    <glyph glyph-name="uni0408" unicode="&#x408;" horiz-adv-x="481" 
d="M99 698h310v-526q0 -57 -23.5 -98t-67 -63.5t-103.5 -22.5q-87 0 -133 45.5t-59 124.5l96 22q8 -47 30 -72.5t66 -25.5q41 0 64 25t23 77v425h-203v89z" />
    <glyph glyph-name="uni0409" unicode="&#x409;" horiz-adv-x="925" 
d="M13 -3v96h69q17 19 29.5 45.5t20.5 68.5t12.5 103.5t4.5 149.5v238h392v-269h168q60 0 101 -26t62 -73.5t21 -114.5q0 -68 -21 -116t-62 -73.5t-101 -25.5h-274v605h-184v-156q0 -92 -5 -160t-15.5 -115.5t-26 -80t-36.5 -52.5q-22 -23 -50 -33.5t-66 -10.5h-39zM541 93
h159q25 0 43 10.5t27.5 30t9.5 48.5v66q0 28 -9.5 47.5t-27.5 29.5t-43 10h-159v-242z" />
    <glyph glyph-name="uni040A" unicode="&#x40a;" horiz-adv-x="933" 
d="M77 0v698h106v-298h259v298h107v-269h167q60 0 101 -26t62 -73.5t21 -114.5q0 -68 -21 -116t-62 -73.5t-101 -25.5h-274v306h-259v-306h-106zM549 93h158q26 0 43.5 10.5t27.5 30t10 48.5v66q0 28 -10 47.5t-27.5 29.5t-43.5 10h-158v-242z" />
    <glyph glyph-name="uni040B" unicode="&#x40b;" horiz-adv-x="724" 
d="M207 0v605h-184v93h475v-93h-184v-190h12q25 12 55.5 18t69.5 6q112 0 167.5 -55.5t55.5 -173.5v-210h-107v213q0 71 -31.5 102t-98.5 31q-39 0 -69 -6t-54 -17v-323h-107z" />
    <glyph glyph-name="uni040C" unicode="&#x40c;" horiz-adv-x="600" 
d="M77 0v698h106v-299h106l111 228q18 38 40.5 54.5t57.5 16.5h50v-93h-53l-91 -188q-14 -27 -27 -39t-32 -16v-12q21 -1 36 -13.5t30 -44.5l99 -199h55v-93h-63q-31 0 -53.5 15t-41.5 53l-118 239h-106v-307h-106zM429 916l-111 -167l-63 31l84 181z" />
    <glyph glyph-name="uni040D" unicode="&#x40d;" horiz-adv-x="645" 
d="M77 0v698h104v-406l-10 -134h11l56 132l232 408h98v-698h-104v406l10 134h-11l-54 -130l-235 -410h-97zM311 749l-111 167l90 45l84 -181z" />
    <glyph glyph-name="uni040E" unicode="&#x40e;" horiz-adv-x="553" 
d="M118 0v93h100l26 73l-229 532h113l114 -278l43 -125h12l38 124l95 279h107l-223 -616q-11 -31 -26.5 -49t-37.5 -25.5t-54 -7.5h-78zM280 748q-52 0 -85 22t-53 70l-18 45l81 35l32 -94q10 -3 21.5 -4.5t21.5 -1.5q11 0 22 1.5t20 4.5l32 94l82 -35l-18 -45
q-20 -48 -53 -70t-85 -22z" />
    <glyph glyph-name="uni040F" unicode="&#x40f;" horiz-adv-x="631" 
d="M266 -150v150h-189v698h106v-605h264v605h107v-698h-189v-150h-99z" />
    <glyph glyph-name="uni0410" unicode="&#x410;" horiz-adv-x="596" 
d="M575 0h-107l-54 193h-235l-54 -193h-104l209 698h135zM389 280l-65 220l-22 102h-13l-22 -102l-62 -220h184z" />
    <glyph glyph-name="uni0411" unicode="&#x411;" horiz-adv-x="583" 
d="M77 0v698h406v-93h-300v-182h174q59 0 99.5 -25.5t61.5 -72.5t21 -113q0 -67 -21 -114.5t-61.5 -72.5t-99.5 -25h-280zM183 93h164q25 0 43 10.5t27.5 30t9.5 46.5v64q0 28 -9.5 47t-27.5 29t-43 10h-164v-237z" />
    <glyph glyph-name="uni0412" unicode="&#x412;" horiz-adv-x="595" 
d="M77 0v698h283q81 0 123 -46.5t42 -133.5q0 -56 -17 -87.5t-43 -45t-52 -15.5v-12q21 0 44.5 -8.5t44 -26.5t33.5 -48t13 -74q0 -60 -20 -105t-56 -70.5t-84 -25.5h-311zM183 312v-220h174q25 0 42.5 9t26.5 28t9 49v48q0 30 -9 49t-26.5 28t-42.5 9h-174zM183 606v-204
h157q23 0 39.5 8.5t25 26t8.5 44.5v46q0 28 -8.5 45.5t-25 25.5t-39.5 8h-157z" />
    <glyph glyph-name="uni0413" unicode="&#x413;" horiz-adv-x="462" 
d="M77 0v698h360v-93h-254v-605h-106z" />
    <glyph glyph-name="uni0414" unicode="&#x414;" horiz-adv-x="693" 
d="M12 -150v243h66q25 35 42 84.5t25.5 122t8.5 176.5v222h418v-605h95v-243h-99v150h-457v-150h-99zM201 93h264v512h-208v-141q0 -95 -6.5 -164.5t-18.5 -119t-31 -82.5v-5z" />
    <glyph glyph-name="uni0415" unicode="&#x415;" horiz-adv-x="536" 
d="M482 0h-405v698h405v-93h-299v-205h270v-94h-270v-213h299v-93z" />
    <glyph glyph-name="uni0416" unicode="&#x416;" horiz-adv-x="891" 
d="M35 0v93h57l85 198q14 31 28.5 44t34.5 15v12q-17 4 -31.5 17t-26.5 44l-75 182h-55v93h52q36 0 59 -16.5t39 -55.5l94 -227h96v299h107v-299h97l94 227q16 39 39 55.5t58 16.5h53v-93h-56l-75 -182q-13 -31 -26.5 -44t-31.5 -17v-12q20 -2 35 -15t29 -44l84 -198h57v-93
h-65q-32 0 -54.5 16.5t-39.5 55.5l-101 235h-97v-307h-107v307h-96l-102 -235q-16 -39 -38.5 -55.5t-55.5 -16.5h-65z" />
    <glyph glyph-name="uni0417" unicode="&#x417;" horiz-adv-x="542" 
d="M257 -12q-81 0 -135.5 30t-91.5 85l73 68q25 -44 62.5 -66t89.5 -22q42 0 70 12.5t42 35.5t14 58v22q0 45 -27 71t-84 26h-102v93h96q35 0 58.5 11.5t35 34t11.5 54.5v24q0 46 -28 68.5t-82 22.5q-50 0 -83.5 -19t-56.5 -57l-71 61q33 54 84 81.5t128 27.5
q108 0 165.5 -50t56.5 -138q0 -70 -35.5 -108.5t-90.5 -47.5v-12q37 -3 68.5 -20t51 -50.5t19.5 -85.5q0 -64 -28.5 -111t-81.5 -73t-128 -26z" />
    <glyph glyph-name="uni0418" unicode="&#x418;" horiz-adv-x="645" 
d="M77 0v698h104v-406l-10 -134h11l56 132l232 408h98v-698h-104v406l10 134h-11l-54 -130l-235 -410h-97z" />
    <glyph glyph-name="uni0419" unicode="&#x419;" horiz-adv-x="645" 
d="M77 0v698h104v-406l-10 -134h11l56 132l232 408h98v-698h-104v406l10 134h-11l-54 -130l-235 -410h-97zM321 748q-52 0 -85 22t-53 70l-18 45l81 35l32 -94q10 -3 21.5 -4.5t21.5 -1.5q11 0 22 1.5t20 4.5l32 94l82 -35l-18 -45q-20 -48 -53 -70t-85 -22z" />
    <glyph glyph-name="uni041A" unicode="&#x41a;" horiz-adv-x="600" 
d="M77 0v698h106v-299h106l111 228q18 38 40.5 54.5t57.5 16.5h50v-93h-53l-91 -188q-14 -27 -27 -39t-32 -16v-12q21 -1 36 -13.5t30 -44.5l99 -199h55v-93h-63q-31 0 -53.5 15t-41.5 53l-118 239h-106v-307h-106z" />
    <glyph glyph-name="uni041B" unicode="&#x41b;" horiz-adv-x="640" 
d="M13 -3v96h69q17 19 29.5 45.5t20.5 68.5t12.5 103.5t4.5 149.5v238h414v-698h-107v605h-205v-156q0 -92 -5 -160t-15.5 -115.5t-26 -80t-36.5 -52.5q-22 -23 -50 -33.5t-66 -10.5h-39z" />
    <glyph glyph-name="uni041C" unicode="&#x41c;" horiz-adv-x="733" 
d="M76 0v698h125l113 -244l49 -138h9l49 138l112 244h124v-698h-102v430l7 119h-12l-48 -117l-136 -284l-135 284l-48 115h-12l7 -117v-430h-102z" />
    <glyph glyph-name="uni041D" unicode="&#x41d;" horiz-adv-x="644" 
d="M461 0v306h-278v-306h-106v698h106v-298h278v298h107v-698h-107z" />
    <glyph glyph-name="uni041E" unicode="&#x41e;" horiz-adv-x="640" 
d="M320 -12q-84 0 -145 37.5t-93.5 117t-32.5 206.5q0 128 32.5 207t93.5 116.5t145 37.5t145 -37.5t93.5 -116.5t32.5 -207q0 -127 -32.5 -206.5t-93.5 -117t-145 -37.5zM320 82q50 0 84.5 22t53.5 63.5t19 97.5v168q0 57 -19 98t-53.5 63t-84.5 22q-49 0 -84.5 -22
t-54 -63t-18.5 -98v-168q0 -56 18.5 -97.5t54 -63.5t84.5 -22z" />
    <glyph glyph-name="uni041F" unicode="&#x41f;" horiz-adv-x="631" 
d="M77 0v698h477v-698h-107v605h-264v-605h-106z" />
    <glyph glyph-name="uni0420" unicode="&#x420;" horiz-adv-x="568" 
d="M183 0h-106v698h276q59 0 99.5 -24.5t61 -70.5t20.5 -113t-20.5 -113t-61 -70.5t-99.5 -24.5h-170v-282zM183 605v-229h161q25 0 42.5 8.5t26 27t8.5 46.5v64q0 29 -8.5 47t-26 27t-42.5 9h-161z" />
    <glyph glyph-name="uni0421" unicode="&#x421;" horiz-adv-x="573" 
d="M313 -12q-81 0 -140.5 37t-91.5 116t-32 206t32 207t91.5 118t140.5 38q90 0 143 -38.5t85 -115.5l-90 -50q-15 51 -45.5 80.5t-92.5 29.5q-70 0 -110 -48.5t-40 -134.5v-168q0 -86 40 -134.5t110 -48.5q63 0 95.5 31.5t48.5 85.5l88 -52q-33 -77 -87.5 -118t-144.5 -41z
" />
    <glyph glyph-name="uni0422" unicode="&#x422;" horiz-adv-x="521" 
d="M498 605h-184v-605h-107v605h-184v93h475v-93z" />
    <glyph glyph-name="uni0423" unicode="&#x423;" horiz-adv-x="553" 
d="M118 0v93h100l26 73l-229 532h113l114 -278l43 -125h12l38 124l95 279h107l-223 -616q-11 -31 -26.5 -49t-37.5 -25.5t-54 -7.5h-78z" />
    <glyph glyph-name="uni0424" unicode="&#x424;" horiz-adv-x="787" 
d="M340 -35v90h-27q-85 0 -147 35.5t-95 101t-33 156.5t33 156.5t95 101t147 35.5h27v90h107v-90h26q87 0 148.5 -35.5t94.5 -101t33 -156.5t-33.5 -156.5t-95 -101t-147.5 -35.5h-26v-90h-107zM313 144h29v408h-29q-39 0 -69.5 -11.5t-51.5 -32.5t-31.5 -48.5t-10.5 -61.5
v-100q0 -33 10.5 -61.5t31.5 -49t51.5 -32t69.5 -11.5zM445 144h28q39 0 69.5 11.5t51.5 32.5t32 49t11 61v100q0 34 -11 62t-31.5 48.5t-51 32t-70.5 11.5h-28v-408z" />
    <glyph glyph-name="uni0425" unicode="&#x425;" horiz-adv-x="579" 
d="M18 0l203 356l-194 342h124l135 -255h12l139 255h115l-196 -340l204 -358h-123l-146 272h-12l-145 -272h-116z" />
    <glyph glyph-name="uni0426" unicode="&#x426;" horiz-adv-x="675" 
d="M550 -150v150h-473v698h106v-605h264v605h107v-605h96v-243h-100z" />
    <glyph glyph-name="uni0427" unicode="&#x427;" horiz-adv-x="594" 
d="M410 0v269h-13q-23 -11 -54 -17.5t-70 -6.5q-113 0 -168 55.5t-55 173.5v224h107v-227q0 -70 32 -101.5t98 -31.5q40 0 70 6t53 17v337h107v-698h-107z" />
    <glyph glyph-name="uni0428" unicode="&#x428;" horiz-adv-x="895" 
d="M77 0v698h106v-605h211v605h107v-605h210v605h107v-698h-741z" />
    <glyph glyph-name="uni0429" unicode="&#x429;" horiz-adv-x="939" 
d="M814 -150v150h-737v698h106v-605h211v605h107v-605h210v605h107v-605h95v-243h-99z" />
    <glyph glyph-name="uni042A" unicode="&#x42a;" horiz-adv-x="681" 
d="M177 0v605h-154v93h261v-267h179q60 0 101.5 -25.5t63 -74t21.5 -115.5q0 -68 -21.5 -116t-63 -74t-101.5 -26h-286zM284 93h171q26 0 44 10.5t27.5 30.5t9.5 49v66q0 29 -9.5 48.5t-27.5 30t-44 10.5h-171v-245z" />
    <glyph glyph-name="uni042B" unicode="&#x42b;" horiz-adv-x="813" 
d="M77 0v698h106v-267h172q60 0 101.5 -25.5t62.5 -74t21 -115.5q0 -68 -21 -116t-62.5 -74t-101.5 -26h-278zM183 93h163q26 0 44 10.5t28 30.5t10 49v66q0 29 -10 48.5t-28 30t-44 10.5h-163v-245zM629 0v698h107v-698h-107z" />
    <glyph glyph-name="uni042C" unicode="&#x42c;" horiz-adv-x="581" 
d="M77 0v698h106v-267h180q60 0 101.5 -25.5t62.5 -74t21 -115.5q0 -68 -21 -116t-62.5 -74t-101.5 -26h-286zM183 93h171q26 0 44 10.5t28 30.5t10 49v66q0 29 -10 48.5t-28 30t-44 10.5h-171v-245z" />
    <glyph glyph-name="uni042D" unicode="&#x42d;" horiz-adv-x="587" 
d="M189 306v94h276l-41 -28v61q0 89 -40.5 136t-116.5 47q-63 0 -96 -28t-50 -81l-88 51q23 51 53.5 84.5t75 50.5t105.5 17q86 0 146.5 -37t93 -116t32.5 -205q0 -128 -32.5 -208t-93.5 -118t-147 -38q-91 0 -147 39.5t-91 118.5l87 53q19 -56 54 -86.5t97 -30.5
q78 0 118 48t40 134v73l41 -31h-276z" />
    <glyph glyph-name="uni042E" unicode="&#x42e;" horiz-adv-x="890" 
d="M575 -12q-81 0 -138.5 35t-89 106t-37.5 177h-127v-306h-106v698h106v-298h128q5 102 36.5 171t89 104t138.5 35q82 0 141.5 -37t92 -116.5t32.5 -207.5t-32.5 -207.5t-92 -116.5t-141.5 -37zM575 82q71 0 111.5 48.5t40.5 134.5v168q0 86 -40.5 134.5t-111.5 48.5
t-111.5 -48.5t-40.5 -134.5v-168q0 -86 40.5 -134.5t111.5 -48.5z" />
    <glyph glyph-name="uni042F" unicode="&#x42f;" horiz-adv-x="593" 
d="M37 0v93h55l65 143q13 28 26 40t34 15v29l34 -17h-22q-82 0 -126 48.5t-44 138.5q0 66 21.5 112.5t62.5 71t99 24.5h274v-698h-107v284h-116l-99 -214q-19 -40 -40.5 -55t-53.5 -15h-63zM251 376h158v229h-158q-24 0 -42 -10t-27.5 -29t-9.5 -46v-60q0 -27 9.5 -46
t27.5 -28.5t42 -9.5z" />
    <glyph glyph-name="uni0430" unicode="&#x430;" horiz-adv-x="497" 
d="M470 0h-66q-24 0 -42 9t-28.5 29t-10.5 53v17l19 -21h-30q-10 -46 -45.5 -72.5t-84.5 -26.5q-73 0 -110 39.5t-37 111.5q0 52 22.5 87.5t66.5 54t108 18.5h86v50q0 50 -22 74t-70 24q-40 0 -66 -18.5t-46 -52.5l-61 56q25 43 70.5 71t109.5 28q94 0 141.5 -44.5
t47.5 -133.5v-268h48v-85zM318 230h-81q-50 0 -73.5 -18t-23.5 -52v-24q0 -35 21 -51.5t55 -16.5q29 0 52 12t36.5 32.5t13.5 45.5v72z" />
    <glyph glyph-name="uni0431" unicode="&#x431;" horiz-adv-x="509" 
d="M257 -12q-67 0 -114 30t-76 97q-14 35 -20 81.5t-6 117.5q0 110 14.5 187t45.5 126t78.5 75t114.5 33l144 15v-103l-149 -15q-37 -4 -62.5 -16.5t-41 -37.5t-24 -66.5t-12.5 -103.5h13q10 53 43.5 79.5t82.5 26.5q56 0 97 -25.5t64.5 -82.5t23.5 -152q0 -92 -26.5 -151
t-75 -87t-114.5 -28zM258 75q51 0 78.5 30.5t27.5 90.5v104q0 64 -27.5 95.5t-81.5 31.5q-52 0 -78.5 -29t-26.5 -81v-116q0 -64 28.5 -95t79.5 -31z" />
    <glyph glyph-name="uni0432" unicode="&#x432;" horiz-adv-x="512" 
d="M70 0v520h252q61 0 94.5 -35.5t33.5 -94.5q0 -49 -23.5 -76.5t-71.5 -32.5v-13q56 -3 84.5 -34.5t28.5 -81.5q0 -43 -16.5 -78t-47.5 -54.5t-74 -19.5h-260zM171 79h131q28 0 43.5 16t15.5 46v27q0 30 -15.5 46t-43.5 16h-131v-151zM171 303h118q26 0 40 15.5t14 41.5v25
q0 27 -14.5 41.5t-39.5 14.5h-118v-138z" />
    <glyph glyph-name="uni0433" unicode="&#x433;" horiz-adv-x="396" 
d="M70 0v520h307v-85h-204v-435h-103z" />
    <glyph glyph-name="uni0434" unicode="&#x434;" horiz-adv-x="564" 
d="M7 -140v225h57q17 31 29.5 71.5t19 94t6.5 118.5v151h347v-435h79v-225h-94v140h-349v-140h-95zM173 85h190v350h-145v-70q0 -106 -13 -173.5t-32 -106.5z" />
    <glyph glyph-name="uni0435" unicode="&#x435;" horiz-adv-x="501" 
d="M259 -12q-65 0 -115.5 29t-78.5 89t-28 154t26.5 154.5t75 89t114.5 28.5t113 -28.5t72 -89t25 -154.5v-26h-318v-33q0 -62 32 -95t86 -33q47 0 77.5 21t51.5 59l60 -57q-27 -48 -75 -78t-118 -30zM253 450q-34 0 -58 -14t-37 -42t-13 -70v-21h209v21q0 42 -11 70
t-33.5 42t-56.5 14z" />
    <glyph glyph-name="uni0436" unicode="&#x436;" horiz-adv-x="745" 
d="M41 0v85h51l50 129q10 24 23.5 36t31.5 13v11q-16 3 -27 13t-23 37l-47 111h-52v85h49q34 0 55 -15.5t36 -50.5l63 -146h70v212h103v-212h70l63 146q15 35 36.5 50.5t54.5 15.5h49v-85h-52l-47 -111q-11 -27 -22 -37t-28 -13v-11q18 -1 31.5 -13t23.5 -36l50 -129h51v-85
h-56q-32 0 -55 15t-38 55l-61 154h-70v-224h-103v224h-70l-61 -154q-15 -40 -38 -55t-55 -15h-56z" />
    <glyph glyph-name="uni0437" unicode="&#x437;" horiz-adv-x="464" 
d="M218 -12q-70 0 -116 26t-79 74l66 64q20 -37 53 -57.5t76 -20.5q47 0 71.5 20.5t24.5 54.5v11q0 33 -20 50.5t-56 17.5h-98v76h87q37 0 56 17t19 47v12q0 30 -21 47.5t-63 17.5q-44 0 -74 -19.5t-48 -53.5l-63 59q28 46 75 73t116 27q91 0 138 -37.5t47 -101.5
q0 -49 -23 -75.5t-71 -37.5v-12q54 -8 79.5 -38t25.5 -77q0 -76 -54.5 -120t-147.5 -44z" />
    <glyph glyph-name="uni0438" unicode="&#x438;" horiz-adv-x="545" 
d="M70 0v520h100v-262l-14 -117h12l51 107l159 272h97v-520h-101v262l15 117h-12l-51 -107l-160 -272h-96z" />
    <glyph glyph-name="uni0439" unicode="&#x439;" horiz-adv-x="545" 
d="M70 0v520h100v-262l-14 -117h12l51 107l159 272h97v-520h-101v262l15 117h-12l-51 -107l-160 -272h-96zM271 589q-52 0 -86 22.5t-53 69.5l-18 45l81 35l34 -94q10 -4 21 -5.5t21 -1.5q11 0 22 1.5t20 5.5l34 94l81 -35l-18 -45q-19 -47 -53 -69.5t-86 -22.5z" />
    <glyph glyph-name="uni043A" unicode="&#x43a;" horiz-adv-x="520" 
d="M70 0v520h103v-212h80l76 149q19 36 39.5 49.5t52.5 13.5h50v-85h-52l-59 -115q-13 -25 -23 -34t-27 -12v-11q18 -1 31 -12t25 -36l62 -130h52v-85h-58q-31 0 -53 14.5t-40 52.5l-76 157h-80v-224h-103z" />
    <glyph glyph-name="uni043B" unicode="&#x43b;" horiz-adv-x="531" 
d="M10 -3v88h61q14 22 24 56.5t15 87.5t5 133v158h346v-520h-103v435h-144v-77q0 -98 -8.5 -163t-23 -103.5t-34.5 -58.5q-19 -19 -43.5 -27.5t-60.5 -8.5h-34z" />
    <glyph glyph-name="uni043C" unicode="&#x43c;" horiz-adv-x="647" 
d="M70 0v520h126l94 -187l29 -78h9l29 78l95 187h126v-520h-101v319l4 69h-12l-28 -62l-117 -232l-118 232l-28 62h-11l3 -69v-319h-100z" />
    <glyph glyph-name="uni043D" unicode="&#x43d;" horiz-adv-x="539" 
d="M70 0v520h103v-211h193v211h104v-520h-104v224h-193v-224h-103z" />
    <glyph glyph-name="uni043E" unicode="&#x43e;" horiz-adv-x="506" 
d="M253 -12q-66 0 -114.5 28.5t-75 88.5t-26.5 155q0 94 26.5 154.5t75 89t114.5 28.5t114.5 -28.5t75 -89t26.5 -154.5q0 -95 -26.5 -155t-75 -88.5t-114.5 -28.5zM253 74q52 0 79.5 31t27.5 94v122q0 63 -27.5 93.5t-79.5 30.5q-51 0 -79 -30.5t-28 -93.5v-122
q0 -63 28 -94t79 -31z" />
    <glyph glyph-name="uni043F" unicode="&#x43f;" horiz-adv-x="528" 
d="M70 0v520h388v-520h-103v435h-182v-435h-103z" />
    <glyph glyph-name="uni0440" unicode="&#x440;" horiz-adv-x="535" 
d="M70 -200v720h103v-85h12q13 46 46.5 71.5t79.5 25.5q62 0 102 -32t60.5 -93t20.5 -147q0 -87 -20 -147.5t-60.5 -92.5t-102.5 -32q-46 0 -79.5 25.5t-46.5 71.5h-12v-285h-103zM274 76q53 0 82 33t29 93v116q0 60 -29 93t-82 33q-29 0 -52 -10.5t-36 -29.5t-13 -46v-196
q0 -27 13 -46t36 -29.5t52 -10.5z" />
    <glyph glyph-name="uni0441" unicode="&#x441;" horiz-adv-x="460" 
d="M249 -12q-102 0 -157 65t-55 207t55 207t157 65q75 0 120 -34.5t65 -91.5l-85 -40q-9 39 -33 59t-67 20q-52 0 -77.5 -30.5t-25.5 -93.5v-122q0 -63 25.5 -94t77.5 -31q45 0 70.5 21.5t39.5 63.5l78 -43q-22 -61 -69 -94.5t-119 -33.5z" />
    <glyph glyph-name="uni0442" unicode="&#x442;" horiz-adv-x="435" 
d="M166 0v435h-148v85h399v-85h-148v-435h-103z" />
    <glyph glyph-name="uni0443" unicode="&#x443;" horiz-adv-x="470" 
d="M277 247l77 273h102l-201 -638q-9 -32 -23.5 -49.5t-37 -25t-56.5 -7.5h-72v85h94l24 87l-173 548h105l78 -273l36 -158h11z" />
    <glyph glyph-name="uni0444" unicode="&#x444;" horiz-adv-x="699" 
d="M298 -200v256h-12q-10 -32 -35 -50t-64 -18q-46 0 -78.5 24t-50.5 83.5t-18 164.5q0 104 18 163.5t50.5 83.5t78.5 24q39 0 64 -18.5t35 -49.5h12v247h103v-247h12q10 31 35 49.5t64 18.5q46 0 78.5 -24t50.5 -83.5t18 -163.5q0 -105 -18 -164.5t-50.5 -83.5t-78.5 -24
q-39 0 -64 18t-35 50h-12v-256h-103zM229 70q23 0 38.5 7.5t23 23.5t7.5 38v241q0 23 -7.5 38.5t-23 23.5t-38.5 8q-39 0 -59.5 -27.5t-20.5 -99.5v-127q0 -71 20.5 -98.5t59.5 -27.5zM470 70q39 0 59.5 27.5t20.5 98.5v127q0 72 -20.5 99.5t-59.5 27.5q-23 0 -38.5 -8
t-23 -23.5t-7.5 -38.5v-241q0 -22 7.5 -38t23 -23.5t38.5 -7.5z" />
    <glyph glyph-name="uni0445" unicode="&#x445;" horiz-adv-x="477" 
d="M16 0l162 265l-158 255h114l102 -176h11l103 176h108l-158 -255l164 -265h-114l-106 186h-12l-107 -186h-109z" />
    <glyph glyph-name="uni0446" unicode="&#x446;" horiz-adv-x="556" 
d="M443 -140v140h-373v520h103v-435h182v435h103v-435h80v-225h-95z" />
    <glyph glyph-name="uni0447" unicode="&#x447;" horiz-adv-x="503" 
d="M330 0v233h-15q-12 -29 -41.5 -47t-77.5 -18q-74 0 -112.5 42.5t-38.5 126.5v183h103v-175q0 -45 20.5 -67t65.5 -22q43 0 69.5 16.5t26.5 45.5v202h103v-520h-103z" />
    <glyph glyph-name="uni0448" unicode="&#x448;" horiz-adv-x="740" 
d="M70 0v520h103v-435h145v435h103v-435h146v435h103v-520h-600z" />
    <glyph glyph-name="uni0449" unicode="&#x449;" horiz-adv-x="768" 
d="M655 -140v140h-585v520h103v-435h145v435h103v-435h146v435h103v-435h79v-225h-94z" />
    <glyph glyph-name="uni044A" unicode="&#x44a;" horiz-adv-x="564" 
d="M141 0v435h-123v85h226v-175h125q51 0 87.5 -20.5t57 -58.5t20.5 -93q0 -54 -20.5 -93t-57 -59.5t-87.5 -20.5h-228zM244 81h107q36 0 56 17.5t20 53.5v41q0 36 -20 53.5t-56 17.5h-107v-183z" />
    <glyph glyph-name="uni044B" unicode="&#x44b;" horiz-adv-x="692" 
d="M70 0v520h103v-175h114q51 0 87.5 -20.5t57 -59t20.5 -92.5t-20 -93t-57 -59.5t-87 -20.5h-218zM173 81h97q36 0 55.5 17.5t19.5 53.5v41q0 36 -19.5 53.5t-55.5 17.5h-97v-183zM519 0v520h104v-520h-104z" />
    <glyph glyph-name="uni044C" unicode="&#x44c;" horiz-adv-x="493" 
d="M70 0v520h103v-175h125q50 0 86.5 -20.5t57 -59t20.5 -92.5t-20 -93t-57 -59.5t-87 -20.5h-228zM173 81h107q36 0 55.5 17.5t19.5 53.5v41q0 36 -19.5 53.5t-55.5 17.5h-107v-183z" />
    <glyph glyph-name="uni044D" unicode="&#x44d;" horiz-adv-x="469" 
d="M149 224v78h174v19q0 63 -25.5 94t-81.5 31q-48 0 -74 -20.5t-39 -61.5l-80 47q25 58 71.5 89.5t121.5 31.5q105 0 160.5 -65t55.5 -207t-55.5 -207t-161.5 -65q-76 0 -120.5 32t-69.5 92l82 42q12 -40 37 -60t71 -20q57 0 82.5 31t25.5 94v25h-174z" />
    <glyph glyph-name="uni044E" unicode="&#x44e;" horiz-adv-x="723" 
d="M475 -12q-96 0 -149.5 60.5t-60.5 175.5h-92v-224h-103v520h103v-212h93q10 106 61.5 165t147.5 59q64 0 111 -28.5t73.5 -89t26.5 -154.5q0 -95 -26.5 -155t-73.5 -88.5t-111 -28.5zM475 74q48 0 74.5 31t26.5 94v122q0 63 -26.5 93.5t-74.5 30.5q-49 0 -75.5 -30.5
t-26.5 -93.5v-122q0 -63 26.5 -94t75.5 -31z" />
    <glyph glyph-name="uni044F" unicode="&#x44f;" horiz-adv-x="515" 
d="M46 0v85h51l27 69q10 22 22.5 32.5t29.5 12.5v11q-58 5 -90.5 43t-32.5 105q0 51 20 87t56 55.5t84 19.5h232v-520h-103v193h-96l-49 -122q-16 -39 -37.5 -55t-55.5 -16h-58zM231 273h111v166h-111q-33 0 -52 -16t-19 -50v-34q0 -34 19 -50t52 -16z" />
    <glyph glyph-name="uni0450" unicode="&#x450;" horiz-adv-x="501" 
d="M259 -12q-65 0 -115.5 29t-78.5 89t-28 154t26.5 154.5t75 89t114.5 28.5t113 -28.5t72 -89t25 -154.5v-26h-318v-33q0 -62 32 -95t86 -33q47 0 77.5 21t51.5 59l60 -57q-27 -48 -75 -78t-118 -30zM253 450q-34 0 -58 -14t-37 -42t-13 -70v-21h209v21q0 42 -11 70
t-33.5 42t-56.5 14zM243 582l-111 167l90 46l84 -182z" />
    <glyph glyph-name="uni0451" unicode="&#x451;" horiz-adv-x="501" 
d="M259 -12q-65 0 -115.5 29t-78.5 89t-28 154t26.5 154.5t75 89t114.5 28.5t113 -28.5t72 -89t25 -154.5v-26h-318v-33q0 -62 32 -95t86 -33q47 0 77.5 21t51.5 59l60 -57q-27 -48 -75 -78t-118 -30zM253 450q-34 0 -58 -14t-37 -42t-13 -70v-21h209v21q0 42 -11 70
t-33.5 42t-56.5 14zM163 612q-32 0 -46 13t-14 35v23q0 22 14 34.5t46 12.5t46 -12.5t14 -34.5v-23q0 -22 -14 -35t-46 -13zM343 612q-32 0 -46 13t-14 35v23q0 22 14 34.5t46 12.5t46 -12.5t14 -34.5v-23q0 -22 -14 -35t-46 -13z" />
    <glyph glyph-name="uni0452" unicode="&#x452;" horiz-adv-x="526" 
d="M282 -200v85h74v446q0 55 -21.5 84t-65.5 29q-27 0 -49 -11.5t-35 -32t-13 -49.5v-351h-104v604h-56v70h56v66h104v-66h131v-70h-131v-170h12q14 44 44.5 71t84.5 27q69 0 107.5 -47.5t38.5 -139.5v-432q0 -58 -27 -85.5t-87 -27.5h-63z" />
    <glyph glyph-name="uni0453" unicode="&#x453;" horiz-adv-x="396" 
d="M70 0v520h307v-85h-204v-435h-103zM340 749l-111 -167l-63 31l84 182z" />
    <glyph glyph-name="uni0454" unicode="&#x454;" horiz-adv-x="469" 
d="M254 -12q-105 0 -161 65t-56 207t55.5 207t160.5 65q78 0 122.5 -32t67.5 -90l-84 -43q-10 39 -34 59t-72 20q-55 0 -81 -31t-26 -94v-19h174v-78h-174v-25q0 -63 26 -94t82 -31q48 0 74 21t41 63l78 -46q-26 -61 -72 -92.5t-121 -31.5z" />
    <glyph glyph-name="uni0455" unicode="&#x455;" horiz-adv-x="446" 
d="M222 -12q-64 0 -112 24.5t-83 71.5l66 61q25 -37 57 -55.5t73 -18.5t63 18.5t22 54.5q0 28 -14 45t-51 24l-45 8q-52 10 -86 28.5t-50.5 49t-16.5 75.5q0 80 47 118.5t129 38.5q41 0 72.5 -8.5t57.5 -26.5t47 -44l-62 -61q-19 25 -47 41t-67 16t-58.5 -17.5t-19.5 -52.5
q0 -31 16 -46t51 -21l46 -9q81 -14 115.5 -50t34.5 -97q0 -53 -21.5 -90.5t-63 -57t-100.5 -19.5z" />
    <glyph glyph-name="uni0456" unicode="&#x456;" horiz-adv-x="243" 
d="M121 619q-32 0 -47 14.5t-15 38.5v18q0 25 15 39t47 14q33 0 47.5 -14t14.5 -39v-18q0 -24 -14.5 -38.5t-47.5 -14.5zM70 0v520h103v-520h-103z" />
    <glyph glyph-name="uni0457" unicode="&#x457;" horiz-adv-x="243" 
d="M173 0h-103v520h103v-520zM31 612q-32 0 -46 13t-14 35v23q0 22 14 34.5t46 12.5t46 -12.5t14 -34.5v-23q0 -22 -14 -35t-46 -13zM211 612q-32 0 -46 13t-14 35v23q0 22 14 34.5t46 12.5t46 -12.5t14 -34.5v-23q0 -22 -14 -35t-46 -13z" />
    <glyph glyph-name="uni0458" unicode="&#x458;" horiz-adv-x="244" 
d="M71 -115v635h104v-607q0 -58 -27 -85.5t-88 -27.5h-62v85h73zM123 619q-33 0 -47.5 14.5t-14.5 38.5v18q0 25 14.5 39t47.5 14t47.5 -14t14.5 -39v-18q0 -24 -14.5 -38.5t-47.5 -14.5z" />
    <glyph glyph-name="uni0459" unicode="&#x459;" horiz-adv-x="760" 
d="M10 -3v88h61q14 22 24 56.5t15 87.5t5 133v158h335v-175h114q51 0 87.5 -20.5t57 -59t20.5 -92.5t-20 -93t-57 -59.5t-87 -20.5h-219v435h-132v-77q0 -98 -8.5 -163t-23 -103.5t-34.5 -58.5q-19 -19 -43.5 -27.5t-60.5 -8.5h-34zM450 81h97q36 0 55.5 17.5t19.5 53.5v41
q0 36 -19.5 53.5t-55.5 17.5h-97v-183z" />
    <glyph glyph-name="uni045A" unicode="&#x45a;" horiz-adv-x="772" 
d="M70 0v520h103v-211h185v211h104v-175h114q51 0 87.5 -20.5t57 -59t20.5 -92.5t-20 -93t-57 -59.5t-88 -20.5h-218v224h-185v-224h-103zM462 81h96q37 0 56.5 17.5t19.5 53.5v41q0 36 -19.5 53.5t-56.5 17.5h-96v-183z" />
    <glyph glyph-name="uni045B" unicode="&#x45b;" horiz-adv-x="524" 
d="M173 0h-103v607h-58v67h58v66h103v-66h131v-67h-131v-173h12q15 44 45.5 71t83.5 27q69 0 107.5 -47.5t38.5 -139.5v-345h-103v331q0 55 -21 84t-66 29q-26 0 -48 -11.5t-35.5 -32t-13.5 -49.5v-351z" />
    <glyph glyph-name="uni045C" unicode="&#x45c;" horiz-adv-x="520" 
d="M70 0v520h103v-212h80l76 149q19 36 39.5 49.5t52.5 13.5h50v-85h-52l-59 -115q-13 -25 -23 -34t-27 -12v-11q18 -1 31 -12t25 -36l62 -130h52v-85h-58q-31 0 -53 14.5t-40 52.5l-76 157h-80v-224h-103zM385 749l-111 -167l-63 31l84 182z" />
    <glyph glyph-name="uni045D" unicode="&#x45d;" horiz-adv-x="545" 
d="M70 0v520h100v-262l-14 -117h12l51 107l159 272h97v-520h-101v262l15 117h-12l-51 -107l-160 -272h-96zM261 582l-111 167l90 46l84 -182z" />
    <glyph glyph-name="uni045E" unicode="&#x45e;" horiz-adv-x="470" 
d="M277 247l77 273h102l-201 -638q-9 -32 -23.5 -49.5t-37 -25t-56.5 -7.5h-72v85h94l24 87l-173 548h105l78 -273l36 -158h11zM235 589q-52 0 -86 22.5t-53 69.5l-18 45l81 35l34 -94q10 -4 21 -5.5t21 -1.5q11 0 22 1.5t20 5.5l34 94l81 -35l-18 -45q-19 -47 -53 -69.5
t-86 -22.5z" />
    <glyph glyph-name="uni045F" unicode="&#x45f;" horiz-adv-x="528" 
d="M217 -140v140h-147v520h103v-435h182v435h103v-520h-147v-140h-94z" />
    <glyph glyph-name="uni0462" unicode="&#x462;" horiz-adv-x="615" 
d="M111 0v526h-92v90h92v82h107v-82h167v-90h-167v-103h182q59 0 100 -25.5t62 -72.5t21 -113q0 -67 -21 -114.5t-62 -72.5t-100 -25h-289zM218 93h172q26 0 43.5 10.5t27 29.5t9.5 47v64q0 28 -9.5 47t-27 29t-43.5 10h-172v-237z" />
    <glyph glyph-name="uni0463" unicode="&#x463;" horiz-adv-x="507" 
d="M83 0v434h-71v86h71v190h104v-190h134v-86h-134v-97h124q51 0 87.5 -20t57 -57.5t20.5 -90.5q0 -52 -20 -90t-57 -58.5t-88 -20.5h-228zM187 81h106q37 0 56.5 17.5t19.5 53.5v33q0 36 -19.5 53.5t-56.5 17.5h-106v-175z" />
    <glyph glyph-name="uni046A" unicode="&#x46a;" horiz-adv-x="850" 
d="M15 0l127 279q15 32 30 46.5t38 19.5v12l-139 249v92h706v-92l-140 -249v-12q23 -6 40 -20.5t31 -45.5l127 -279h-116l-135 295h-107v-295h-107v295h-106l-135 -295h-114zM308 387h234l115 209v10h-465v-10z" />
    <glyph glyph-name="uni046B" unicode="&#x46b;" horiz-adv-x="694" 
d="M14 0l98 208q11 22 27.5 34.5t36.5 16.5v4l-112 171v86h567v-86l-112 -171v-4q19 -4 35.5 -16.5t27.5 -34.5l98 -208h-110l-102 215h-70v-215h-103v215h-69l-103 -215h-109zM266 295h163l87 135v6h-337v-6z" />
    <glyph glyph-name="uni0472" unicode="&#x472;" horiz-adv-x="640" 
d="M320 -12q-84 0 -145 37.5t-93.5 117t-32.5 206.5q0 128 32.5 207t93.5 116.5t145 37.5t145 -37.5t93.5 -116.5t32.5 -207q0 -127 -32.5 -206.5t-93.5 -117t-145 -37.5zM320 79q52 0 88 22.5t55 64t19 98.5v74l13 -15q-11 -14 -34.5 -27.5t-53.5 -13.5q-24 0 -45 6.5
t-51 22.5q-23 13 -42.5 19t-41.5 6q-26 0 -47.5 -13t-48.5 -43l27 50v-66q1 -57 19.5 -98.5t54.5 -64t88 -22.5zM320 619q-52 0 -88 -22.5t-55 -63.5t-19 -99v-66l-13 15q10 15 34 28t54 13q25 0 46 -6.5t50 -22.5q23 -13 42.5 -19t40.5 -6q27 0 49 13.5t48 42.5l-27 -50v58
q0 58 -19 99t-55 63.5t-88 22.5z" />
    <glyph glyph-name="uni0473" unicode="&#x473;" horiz-adv-x="506" 
d="M253 -12q-66 0 -114.5 28.5t-75 88.5t-26.5 155q0 94 26.5 154.5t75 89t114.5 28.5t114.5 -28.5t75 -89t26.5 -154.5q0 -95 -26.5 -155t-75 -88.5t-114.5 -28.5zM253 71q53 0 82.5 31.5t29.5 94.5v31q-7 -8 -22 -14t-29 -6q-20 0 -34.5 6t-32.5 16q-16 10 -29.5 14.5
t-26.5 4.5t-25 -4t-25 -17v-31q0 -63 29.5 -94.5t82.5 -31.5zM141 322v-26q7 8 21.5 14t28.5 6q20 0 35 -5.5t33 -16.5q15 -9 29 -14t27 -5t25 4.5t25 17.5v25q0 64 -29.5 95t-82.5 31t-82.5 -31t-29.5 -95z" />
    <glyph glyph-name="uni0474" unicode="&#x474;" horiz-adv-x="610" 
d="M350 0h-129l-205 698h111l124 -439l29 -163h13l29 163l93 365q9 38 33 56t65 18h76v-89h-73z" />
    <glyph glyph-name="uni0475" unicode="&#x475;" horiz-adv-x="490" 
d="M297 0h-129l-157 520h104l76 -271l36 -160h13l32 162l45 190q9 44 32 61.5t66 17.5h58v-85h-62z" />
    <glyph glyph-name="uni0490" unicode="&#x490;" horiz-adv-x="462" 
d="M77 0v698h261v151h99v-244h-254v-605h-106z" />
    <glyph glyph-name="uni0491" unicode="&#x491;" horiz-adv-x="396" 
d="M70 0v520h212v140h95v-225h-204v-435h-103z" />
    <glyph glyph-name="uni0492" unicode="&#x492;" horiz-adv-x="484" 
d="M98 0v318h-83v79h83v301h361v-93h-254v-208h167v-79h-167v-318h-107z" />
    <glyph glyph-name="uni0493" unicode="&#x493;" horiz-adv-x="412" 
d="M85 0v223h-62v70h62v227h307v-85h-204v-142h129v-70h-129v-223h-103z" />
    <glyph glyph-name="uni0494" unicode="&#x494;" horiz-adv-x="584" 
d="M296 -171v96h86q22 21 33 57.5t11 93.5v83q0 76 -30.5 111.5t-92.5 35.5q-37 0 -66.5 -6.5t-53.5 -16.5v-283h-106v698h360v-93h-254v-231h13q24 12 54 18t66 6q111 0 164 -59.5t53 -181.5v-83q0 -83 -23 -137.5t-65.5 -81t-99.5 -26.5h-49z" />
    <glyph glyph-name="uni0495" unicode="&#x495;" horiz-adv-x="502" 
d="M254 -200v85h76q13 17 19 44.5t6 72.5v107q0 60 -19.5 83t-65.5 23q-44 0 -70.5 -16.5t-26.5 -45.5v-153h-103v520h307v-85h-204v-197h12q14 29 43.5 47.5t78.5 18.5q77 0 114 -43.5t37 -144.5v-122q0 -99 -38 -146.5t-112 -47.5h-54z" />
    <glyph glyph-name="uni0496" unicode="&#x496;" horiz-adv-x="907" 
d="M796 -150v182l32 -32h-37q-33 0 -55 16.5t-39 55.5l-101 235h-97v-307h-107v307h-96l-102 -235q-16 -39 -38.5 -55.5t-55.5 -16.5h-65v93h57l85 198q14 31 28.5 44t34.5 15v12q-17 4 -31.5 17t-26.5 44l-75 182h-55v93h52q36 0 59 -16.5t39 -55.5l94 -227h96v299h107
v-299h97l94 227q16 39 39 55.5t58 16.5h53v-93h-56l-75 -182q-13 -31 -26.5 -44t-31.5 -17v-12q20 -2 35 -15t29 -44l84 -198h97v-243h-100z" />
    <glyph glyph-name="uni0497" unicode="&#x497;" horiz-adv-x="752" 
d="M637 -140v185l47 -45h-36q-32 0 -55 15t-38 55l-61 154h-70v-224h-103v224h-70l-61 -154q-15 -40 -38 -55t-55 -15h-56v85h51l50 129q10 24 23.5 36t31.5 13v11q-16 3 -27 13t-23 37l-47 111h-52v85h49q34 0 55 -15.5t36 -50.5l63 -146h70v212h103v-212h70l63 146
q15 35 36.5 50.5t54.5 15.5h49v-85h-52l-47 -111q-11 -27 -22 -37t-28 -13v-11q18 -1 31.5 -13t23.5 -36l50 -129h78v-225h-94z" />
    <glyph glyph-name="uni0498" unicode="&#x498;" horiz-adv-x="542" 
d="M207 -150v142q-55 7 -99 33.5t-78 77.5l73 68q25 -44 62.5 -66t89.5 -22q42 0 70 12.5t42 35.5t14 58v22q0 45 -27 71t-84 26h-102v93h96q35 0 58.5 11.5t35 34t11.5 54.5v24q0 46 -28 68.5t-82 22.5q-50 0 -83.5 -19t-56.5 -57l-71 61q33 54 84 81.5t127 27.5
q107 0 165.5 -50t57.5 -138q0 -70 -35.5 -108.5t-90.5 -47.5v-12q37 -3 68.5 -20t51 -50.5t19.5 -85.5q0 -90 -52.5 -142.5t-135.5 -64.5v-141h-100z" />
    <glyph glyph-name="uni0499" unicode="&#x499;" horiz-adv-x="464" 
d="M170 -140v132q-48 7 -84 31.5t-63 64.5l66 64q20 -37 53 -57.5t76 -20.5q47 0 71.5 20.5t24.5 54.5v11q0 33 -20 50.5t-56 17.5h-98v76h87q37 0 56 17t19 47v12q0 30 -21 47.5t-63 17.5q-44 0 -74 -19.5t-48 -53.5l-63 59q28 46 75 73t116 27q91 0 138 -37.5t47 -101.5
q0 -49 -23 -75.5t-71 -37.5v-12q54 -8 79.5 -38t25.5 -77q0 -65 -40.5 -107t-114.5 -54v-131h-95z" />
    <glyph glyph-name="uni049A" unicode="&#x49a;" horiz-adv-x="617" 
d="M506 -150v194l39 -44h-43q-31 0 -53.5 15t-41.5 53l-118 239h-106v-307h-106v698h106v-299h106l111 228q18 38 40.5 54.5t57.5 16.5h50v-93h-53l-91 -188q-14 -27 -27 -39t-32 -16v-12q21 -1 36 -13.5t30 -44.5l99 -199h96v-243h-100z" />
    <glyph glyph-name="uni049B" unicode="&#x49b;" horiz-adv-x="527" 
d="M412 -140v185l47 -45h-37q-31 0 -53 14.5t-40 52.5l-76 157h-80v-224h-103v520h103v-212h80l76 149q19 36 39.5 49.5t52.5 13.5h50v-85h-52l-59 -115q-13 -25 -23 -34t-27 -12v-11q18 -1 31 -12t25 -36l62 -130h78v-225h-94z" />
    <glyph glyph-name="uni049C" unicode="&#x49c;" horiz-adv-x="651" 
d="M77 0v698h106v-299h47v148h81v-148h37l100 224q19 39 43 57t60 18h48v-95h-54l-81 -183q-11 -26 -24.5 -39.5t-34.5 -18.5v-12q22 -1 38 -15t29 -45l89 -195h55v-95h-64q-30 0 -53.5 14.5t-42.5 57.5l-108 235h-37v-147h-81v147h-47v-307h-106z" />
    <glyph glyph-name="uni049D" unicode="&#x49d;" horiz-adv-x="571" 
d="M70 0v520h103v-212h42v117h68v-117h30l66 145q17 38 38.5 52.5t54.5 14.5h49v-85h-52l-52 -115q-10 -24 -21 -33.5t-27 -12.5v-11q19 -1 31 -11.5t23 -36.5l55 -130h52v-85h-57q-32 0 -55 15t-39 53l-66 156h-30v-116h-69v116h-41v-224h-103z" />
    <glyph glyph-name="uni049E" unicode="&#x49e;" horiz-adv-x="634" 
d="M111 0v548h-92v80h92v70h107v-70h122v-80h-122v-149h104l111 228q18 38 41 54.5t58 16.5h50v-93h-53l-92 -188q-13 -27 -26 -39t-32 -16v-12q20 -1 35 -13.5t30 -44.5l99 -199h56v-93h-64q-30 0 -52.5 15t-42.5 53l-118 239h-104v-307h-107z" />
    <glyph glyph-name="uni049F" unicode="&#x49f;" horiz-adv-x="519" 
d="M68 0v574h-56v69h56v97h104v-97h131v-69h-131v-266h80l76 149q19 36 39.5 49.5t52.5 13.5h50v-85h-52l-60 -115q-12 -25 -22.5 -34t-27.5 -12v-11q19 -1 32 -12t25 -36l62 -130h51v-85h-57q-31 0 -53.5 14.5t-39.5 52.5l-76 157h-80v-224h-104z" />
    <glyph glyph-name="uni04A0" unicode="&#x4a0;" horiz-adv-x="701" 
d="M177 0v605h-154v93h261v-299h105l111 228q18 38 41 54.5t58 16.5h50v-93h-53l-92 -188q-14 -27 -27 -39t-31 -16v-12q20 -1 35 -13.5t30 -44.5l99 -199h55v-93h-63q-30 0 -53 15t-42 53l-118 239h-105v-307h-107z" />
    <glyph glyph-name="uni04A1" unicode="&#x4a1;" horiz-adv-x="591" 
d="M141 0v435h-123v85h226v-212h81l76 149q19 36 39.5 49.5t51.5 13.5h50v-85h-52l-59 -115q-13 -25 -23 -34t-27 -12v-11q18 -1 31 -12t25 -36l62 -130h52v-85h-58q-31 0 -53 14.5t-40 52.5l-75 157h-81v-224h-103z" />
    <glyph glyph-name="uni04A2" unicode="&#x4a2;" horiz-adv-x="688" 
d="M563 -150v150h-102v306h-278v-306h-106v698h106v-298h278v298h107v-605h95v-243h-100z" />
    <glyph glyph-name="uni04A3" unicode="&#x4a3;" horiz-adv-x="568" 
d="M454 -140v140h-88v224h-193v-224h-103v520h103v-211h193v211h104v-435h79v-225h-95z" />
    <glyph glyph-name="uni04A4" unicode="&#x4a4;" horiz-adv-x="825" 
d="M77 0v698h106v-298h259v298h358v-93h-251v-605h-107v306h-259v-306h-106z" />
    <glyph glyph-name="uni04A5" unicode="&#x4a5;" horiz-adv-x="684" 
d="M70 0v520h103v-211h184v211h307v-85h-204v-435h-103v224h-184v-224h-103z" />
    <glyph glyph-name="uni04A6" unicode="&#x4a6;" horiz-adv-x="923" 
d="M636 -171v96h86q22 21 33 57.5t11 93.5v83q0 76 -30 111.5t-87 35.5q-33 0 -60.5 -6.5t-51.5 -16.5v-283h-107v605h-247v-605h-106v698h460v-324h13q24 12 52 18t60 6q106 0 158.5 -59.5t52.5 -181.5v-83q0 -83 -23 -137.5t-65.5 -81t-99.5 -26.5h-49z" />
    <glyph glyph-name="uni04A7" unicode="&#x4a7;" horiz-adv-x="762" 
d="M514 -200v85h77q12 17 18.5 44.5t6.5 72.5v107q0 60 -19 83t-62 23q-40 0 -65.5 -16.5t-25.5 -45.5v-153h-104v435h-167v-435h-103v520h374v-282h12q14 29 42.5 47.5t74.5 18.5q74 0 110 -44t36 -144v-122q0 -99 -38 -146.5t-112 -47.5h-55z" />
    <glyph glyph-name="uni04A8" unicode="&#x4a8;" horiz-adv-x="804" 
d="M768 48v-91h-51q-58 0 -111.5 14.5t-95.5 39.5q-27 -11 -61.5 -17t-79.5 -6q-99 0 -171 41t-110.5 124.5t-38.5 211.5q0 114 32 190.5t91.5 115.5t139.5 39q13 0 25.5 -1t21.5 -3l-12 -91q-7 2 -17.5 2.5t-17.5 0.5q-48 0 -82.5 -21t-53 -60.5t-18.5 -95.5v-152
q0 -67 26.5 -115.5t74 -73.5t110.5 -25q19 0 33 1.5t24 2.5q-49 41 -76.5 112t-27.5 173q0 101 25.5 163.5t73.5 91.5t114 29t113.5 -29.5t73.5 -92t26 -162.5q0 -103 -31.5 -178t-98.5 -119q21 -8 46.5 -13.5t54.5 -5.5h49zM427 427v-108q0 -68 24.5 -119.5t75.5 -87.5
q54 29 84.5 82.5t30.5 124.5v108q0 62 -28 95.5t-79 33.5q-52 0 -80 -33.5t-28 -95.5z" />
    <glyph glyph-name="uni04A9" unicode="&#x4a9;" horiz-adv-x="631" 
d="M610 42v-85h-46q-43 0 -87 11.5t-81 33.5q-18 -6 -44.5 -10t-54.5 -4q-80 0 -138.5 32t-90 95.5t-31.5 155.5q0 86 24.5 144t71 87.5t112.5 29.5q10 0 17.5 -0.5t14.5 -2.5l-8 -81q-6 2 -13 2h-14q-44 0 -72 -33t-28 -95v-98q0 -52 18 -88t53.5 -55.5t85.5 -19.5
q6 0 12 0.5t10 1.5q-34 35 -51.5 84t-17.5 121q0 110 43.5 163.5t126.5 53.5t127 -53.5t44 -163.5q0 -69 -25 -126t-77 -90q15 -5 34.5 -7.5t38.5 -2.5h46zM354 311v-75q0 -47 15 -81t47 -62q38 22 56 59t18 84v75q0 46 -18 70t-50 24q-31 0 -49.5 -24t-18.5 -70z" />
    <glyph glyph-name="uni04AA" unicode="&#x4aa;" horiz-adv-x="573" 
d="M313 -12q-81 0 -140.5 37t-91.5 116t-32 206t32 207t91.5 118t140.5 38q90 0 143 -38.5t85 -115.5l-90 -50q-15 51 -45.5 80.5t-92.5 29.5q-70 0 -110 -48.5t-40 -134.5v-168q0 -86 40 -134.5t110 -48.5q63 0 95.5 31.5t48.5 85.5l88 -52q-33 -77 -87.5 -118t-144.5 -41z
M325 -208q-41 0 -65 13t-37 29l37 44q10 -10 23.5 -18.5t35.5 -8.5t32 8t10 25t-10 24.5t-32 7.5h-48l19 103h53l-17 -88h9q4 7 13.5 12.5t24.5 5.5q30 0 45.5 -18t15.5 -53q0 -30 -14 -49t-38.5 -28t-56.5 -9z" />
    <glyph glyph-name="uni04AB" unicode="&#x4ab;" horiz-adv-x="460" 
d="M249 -12q-102 0 -157 65t-55 207t55 207t157 65q75 0 120 -34.5t65 -91.5l-85 -40q-9 39 -33 59t-67 20q-52 0 -77.5 -30.5t-25.5 -93.5v-122q0 -63 25.5 -94t77.5 -31q45 0 70.5 21.5t39.5 63.5l78 -43q-22 -61 -69 -94.5t-119 -33.5zM259 -208q-41 0 -65 13t-37 29
l37 44q10 -10 23.5 -18.5t35.5 -8.5t32 8t10 25t-10 24.5t-32 7.5h-48l19 103h53l-17 -88h9q4 7 13.5 12.5t24.5 5.5q30 0 45.5 -18t15.5 -53q0 -30 -14 -49t-38.5 -28t-56.5 -9z" />
    <glyph glyph-name="uni04AC" unicode="&#x4ac;" horiz-adv-x="521" 
d="M498 605h-184v-512h95v-243h-99v150h-103v605h-184v93h475v-93z" />
    <glyph glyph-name="uni04AD" unicode="&#x4ad;" horiz-adv-x="435" 
d="M166 0v435h-148v85h399v-85h-148v-350h79v-225h-94v140h-88z" />
    <glyph glyph-name="uni04AE" unicode="&#x4ae;" horiz-adv-x="553" 
d="M330 0h-107v270l-215 428h119l145 -312h13l143 312h117l-215 -428v-270z" />
    <glyph glyph-name="uni04AF" unicode="&#x4af;" horiz-adv-x="464" 
d="M181 -200v200l-170 520h104l74 -245l40 -162h13l39 162l72 245h101l-170 -520v-200h-103z" />
    <glyph glyph-name="uni04B0" unicode="&#x4b0;" horiz-adv-x="553" 
d="M223 0v191h-136v79h136l-215 428h119l145 -312h13l143 312h117l-215 -428h136v-79h-136v-191h-107z" />
    <glyph glyph-name="uni04B1" unicode="&#x4b1;" horiz-adv-x="464" 
d="M181 -200v130h-109v70h109l-170 520h104l74 -245l40 -162h13l39 162l72 245h101l-170 -520h109v-70h-109v-130h-103z" />
    <glyph glyph-name="uni04B2" unicode="&#x4b2;" horiz-adv-x="607" 
d="M500 -150v150h-63l-146 272h-12l-145 -272h-116l203 356l-194 342h124l135 -255h12l139 255h116l-197 -340l152 -265h92v-243h-100z" />
    <glyph glyph-name="uni04B3" unicode="&#x4b3;" horiz-adv-x="497" 
d="M395 -140v140h-45l-106 186h-12l-107 -186h-109l162 265l-158 255h114l102 -176h11l103 176h109l-159 -256l112 -179h77v-225h-94z" />
    <glyph glyph-name="uni04B4" unicode="&#x4b4;" horiz-adv-x="796" 
d="M671 -150v150h-477v605h-171v93h448v-93h-170v-512h268v605h107v-605h95v-243h-100z" />
    <glyph glyph-name="uni04B5" unicode="&#x4b5;" horiz-adv-x="649" 
d="M536 -140v140h-386v435h-132v85h367v-85h-132v-350h195v435h103v-435h79v-225h-94z" />
    <glyph glyph-name="uni04B6" unicode="&#x4b6;" horiz-adv-x="638" 
d="M513 -150v150h-103v269h-13q-23 -11 -54 -17.5t-70 -6.5q-113 0 -168 55.5t-55 173.5v224h107v-227q0 -70 32 -101.5t98 -31.5q40 0 70 6t53 17v337h107v-605h95v-243h-99z" />
    <glyph glyph-name="uni04B7" unicode="&#x4b7;" horiz-adv-x="531" 
d="M418 -140v140h-88v233h-15q-12 -29 -41.5 -47t-77.5 -18q-74 0 -112.5 42.5t-38.5 126.5v183h103v-175q0 -45 20.5 -67t65.5 -22q43 0 69.5 16.5t26.5 45.5v202h103v-435h79v-225h-94z" />
    <glyph glyph-name="uni04B8" unicode="&#x4b8;" horiz-adv-x="603" 
d="M419 0v267h-12q-17 -7 -35.5 -12t-39.5 -8v-138h-81v136q-99 7 -150 61t-51 168v224h107v-227q0 -64 25 -93.5t69 -37.5v157h81v-159q24 2 45.5 7t41.5 14v339h107v-698h-107z" />
    <glyph glyph-name="uni04B9" unicode="&#x4b9;" horiz-adv-x="510" 
d="M337 0v225h-11q-7 -14 -20 -26.5t-29 -20.5v-95h-68v86q-83 0 -123.5 42t-40.5 126v183h103v-176q0 -39 15.5 -60t45.5 -27v143h68v-143q27 3 43.5 19t16.5 42v202h104v-520h-104z" />
    <glyph glyph-name="uni04BA" unicode="&#x4ba;" horiz-adv-x="594" 
d="M77 0v698h106v-269h13q24 12 55 18t69 6q113 0 168 -55.5t55 -173.5v-224h-107v227q0 71 -31.5 102t-97.5 31q-39 0 -69.5 -6t-54.5 -17v-337h-106z" />
    <glyph glyph-name="uni04BB" unicode="&#x4bb;" horiz-adv-x="525" 
d="M70 0v740h103v-306h12q15 44 45 71t84 27q69 0 107.5 -47.5t38.5 -139.5v-345h-103v331q0 55 -21 84t-66 29q-26 0 -48 -11.5t-35.5 -32t-13.5 -49.5v-351h-103z" />
    <glyph glyph-name="uni04BC" unicode="&#x4bc;" horiz-adv-x="755" 
d="M716 349v-30h-470l41 26v-68q0 -64 18 -107.5t53.5 -65.5t86.5 -22q66 0 103 32.5t54 94.5l93 -36q-16 -54 -48 -96t-82 -65.5t-120 -23.5q-84 0 -144 36.5t-92 110t-36 184.5h-76q-38 0 -56.5 18.5t-18.5 54.5v125h89v-112h63q8 100 39.5 167.5t89 102.5t141.5 35
q85 0 145.5 -37.5t93.5 -116.5t33 -207zM444 616q-52 0 -87.5 -21.5t-53 -63.5t-17.5 -105v-47l-40 26h389l-33 -34v55q0 63 -17.5 105t-52.5 63.5t-88 21.5z" />
    <glyph glyph-name="uni04BD" unicode="&#x4bd;" horiz-adv-x="614" 
d="M373 -12q-65 0 -113.5 27.5t-76.5 82.5t-32 136h-66q-35 0 -50 20t-15 53v105h86v-109h46q9 110 62.5 169.5t152.5 59.5q66 0 113 -28.5t72 -89t25 -154.5v-26h-318v-33q0 -62 31.5 -95t86.5 -33q46 0 77 21t52 59l60 -57q-27 -48 -75 -78t-118 -30zM367 450
q-34 0 -58.5 -14t-37 -42t-12.5 -70v-21h209v21q0 42 -11 70t-33.5 42t-56.5 14z" />
    <glyph glyph-name="uni04BE" unicode="&#x4be;" horiz-adv-x="755" 
d="M716 349v-30h-470l41 26v-68q0 -64 18 -107.5t53.5 -65.5t86.5 -22q66 0 103 32.5t54 94.5l93 -36q-15 -52 -43 -90t-67 -60.5t-86 -30.5v-142h-100v141q-67 10 -117 47.5t-78 107t-31 173.5h-76q-38 0 -56.5 18.5t-18.5 54.5v125h89v-112h63q8 100 39.5 167.5t89 102.5
t141.5 35q85 0 145.5 -37.5t93.5 -116.5t33 -207zM444 616q-52 0 -87.5 -21.5t-53 -63.5t-17.5 -105v-47l-40 26h389l-33 -34v55q1 63 -16.5 105t-53 63.5t-88.5 21.5z" />
    <glyph glyph-name="uni04BF" unicode="&#x4bf;" horiz-adv-x="614" 
d="M419 -8v-132h-94v132q-73 14 -120.5 71.5t-53.5 170.5h-66q-35 0 -50 20t-15 53v105h86v-109h46q9 110 62.5 169.5t152.5 59.5q66 0 113 -28.5t72 -89t25 -154.5v-26h-318v-33q0 -62 31.5 -95t86.5 -33q46 0 77 21t52 59l60 -57q-25 -45 -62 -70.5t-85 -33.5zM367 450
q-34 0 -58.5 -14t-37 -42t-12.5 -70v-21h209v21q0 42 -11 70t-33.5 42t-56.5 14z" />
    <glyph glyph-name="uni04C0" unicode="&#x4c0;" horiz-adv-x="377" 
d="M327 0h-277v86h85v526h-85v86h277v-86h-85v-526h85v-86z" />
    <glyph glyph-name="uni04C1" unicode="&#x4c1;" horiz-adv-x="891" 
d="M35 0v93h57l85 198q14 31 28.5 44t34.5 15v12q-17 4 -31.5 17t-26.5 44l-75 182h-55v93h52q36 0 59 -16.5t39 -55.5l94 -227h96v299h107v-299h97l94 227q16 39 39 55.5t58 16.5h53v-93h-56l-75 -182q-13 -31 -26.5 -44t-31.5 -17v-12q20 -2 35 -15t29 -44l84 -198h57v-93
h-65q-32 0 -54.5 16.5t-39.5 55.5l-101 235h-97v-307h-107v307h-96l-102 -235q-16 -39 -38.5 -55.5t-55.5 -16.5h-65zM446 748q-52 0 -85 22t-53 70l-18 45l81 35l32 -94q10 -3 21.5 -4.5t21.5 -1.5q11 0 22 1.5t20 4.5l32 94l82 -35l-18 -45q-20 -48 -53 -70t-85 -22z" />
    <glyph glyph-name="uni04C2" unicode="&#x4c2;" horiz-adv-x="745" 
d="M41 0v85h51l50 129q10 24 23.5 36t31.5 13v11q-16 3 -27 13t-23 37l-47 111h-52v85h49q34 0 55 -15.5t36 -50.5l63 -146h70v212h103v-212h70l63 146q15 35 36.5 50.5t54.5 15.5h49v-85h-52l-47 -111q-11 -27 -22 -37t-28 -13v-11q18 -1 31.5 -13t23.5 -36l50 -129h51v-85
h-56q-32 0 -55 15t-38 55l-61 154h-70v-224h-103v224h-70l-61 -154q-15 -40 -38 -55t-55 -15h-56zM373 589q-52 0 -86 22.5t-53 69.5l-18 45l81 35l34 -94q10 -4 21 -5.5t21 -1.5q11 0 22 1.5t20 5.5l34 94l81 -35l-18 -45q-19 -47 -53 -69.5t-86 -22.5z" />
    <glyph glyph-name="uni04CF" unicode="&#x4cf;" horiz-adv-x="243" 
d="M70 0v740h103v-740h-103z" />
    <glyph glyph-name="uni04D0" unicode="&#x4d0;" horiz-adv-x="596" 
d="M575 0h-107l-54 193h-235l-54 -193h-104l209 698h135zM389 280l-65 220l-22 102h-13l-22 -102l-62 -220h184zM299 748q-52 0 -85 22t-53 70l-18 45l81 35l32 -94q10 -3 21.5 -4.5t21.5 -1.5q11 0 22 1.5t20 4.5l32 94l82 -35l-18 -45q-20 -48 -53 -70t-85 -22z" />
    <glyph glyph-name="uni04D1" unicode="&#x4d1;" horiz-adv-x="497" 
d="M470 0h-66q-24 0 -42 9t-28.5 29t-10.5 53v17l19 -21h-30q-10 -46 -45.5 -72.5t-84.5 -26.5q-73 0 -110 39.5t-37 111.5q0 52 22.5 87.5t66.5 54t108 18.5h86v50q0 50 -22 74t-70 24q-40 0 -66 -18.5t-46 -52.5l-61 56q25 43 70.5 71t109.5 28q94 0 141.5 -44.5
t47.5 -133.5v-268h48v-85zM318 230h-81q-50 0 -73.5 -18t-23.5 -52v-24q0 -35 21 -51.5t55 -16.5q29 0 52 12t36.5 32.5t13.5 45.5v72zM235 589q-52 0 -86 22.5t-53 69.5l-18 45l81 35l34 -94q10 -4 21 -5.5t21 -1.5q11 0 22 1.5t20 5.5l34 94l81 -35l-18 -45
q-19 -47 -53 -69.5t-86 -22.5z" />
    <glyph glyph-name="uni04D2" unicode="&#x4d2;" horiz-adv-x="596" 
d="M575 0h-107l-54 193h-235l-54 -193h-104l209 698h135zM389 280l-65 220l-22 102h-13l-22 -102l-62 -220h184zM209 780q-32 0 -46 13t-14 35v23q0 22 14 35t46 13t46 -13t14 -35v-23q0 -22 -14 -35t-46 -13zM389 780q-32 0 -46 13t-14 35v23q0 22 14 35t46 13t46 -13
t14 -35v-23q0 -22 -14 -35t-46 -13z" />
    <glyph glyph-name="uni04D3" unicode="&#x4d3;" horiz-adv-x="497" 
d="M470 0h-66q-24 0 -42 9t-28.5 29t-10.5 53v17l19 -21h-30q-10 -46 -45.5 -72.5t-84.5 -26.5q-73 0 -110 39.5t-37 111.5q0 52 22.5 87.5t66.5 54t108 18.5h86v50q0 50 -22 74t-70 24q-40 0 -66 -18.5t-46 -52.5l-61 56q25 43 70.5 71t109.5 28q94 0 141.5 -44.5
t47.5 -133.5v-268h48v-85zM318 230h-81q-50 0 -73.5 -18t-23.5 -52v-24q0 -35 21 -51.5t55 -16.5q29 0 52 12t36.5 32.5t13.5 45.5v72zM145 612q-32 0 -46 13t-14 35v23q0 22 14 34.5t46 12.5t46 -12.5t14 -34.5v-23q0 -22 -14 -35t-46 -13zM325 612q-32 0 -46 13t-14 35v23
q0 22 14 34.5t46 12.5t46 -12.5t14 -34.5v-23q0 -22 -14 -35t-46 -13z" />
    <glyph glyph-name="uni04D4" unicode="&#x4d4;" horiz-adv-x="843" 
d="M384 0v192h-191l-83 -192h-108l310 698h478v-93h-299v-205h269v-94h-269v-213h299v-93h-406zM384 605h-14l-140 -326h154v326z" />
    <glyph glyph-name="uni04D5" unicode="&#x4d5;" horiz-adv-x="782" 
d="M324 233h-87q-50 0 -73.5 -19.5t-23.5 -53.5v-24q0 -35 21 -51.5t55 -16.5q29 0 53.5 12t39.5 32.5t15 45.5v75zM427 301h209v23q0 42 -11 70t-33.5 42t-56.5 14t-58.5 -14t-37 -42t-12.5 -70v-23zM545 73q46 0 77 21t51 59l61 -57q-27 -48 -73.5 -78t-115.5 -30
q-40 0 -75.5 14t-60.5 39t-33 59h-12q-8 -33 -32.5 -58t-61.5 -39.5t-85 -14.5q-75 0 -112.5 39.5t-37.5 111.5q0 53 22.5 88.5t66.5 54.5t108 19h92v46q0 50 -24.5 75t-73.5 25q-40 0 -66 -18.5t-46 -52.5l-61 56q25 43 69.5 71t106.5 28q35 0 64.5 -12t50.5 -36.5
t27 -62.5h12q7 35 29.5 60t55 38.5t71.5 13.5q65 0 111 -29t70.5 -89t24.5 -156v-25h-318v-32q0 -62 31.5 -95t86.5 -33z" />
    <glyph glyph-name="uni04D6" unicode="&#x4d6;" horiz-adv-x="536" 
d="M482 0h-405v698h405v-93h-299v-205h270v-94h-270v-213h299v-93zM278 748q-52 0 -85 22t-53 70l-18 45l81 35l32 -94q10 -3 21.5 -4.5t21.5 -1.5q11 0 22 1.5t20 4.5l32 94l82 -35l-18 -45q-20 -48 -53 -70t-85 -22z" />
    <glyph glyph-name="uni04D7" unicode="&#x4d7;" horiz-adv-x="501" 
d="M259 -12q-65 0 -115.5 29t-78.5 89t-28 154t26.5 154.5t75 89t114.5 28.5t113 -28.5t72 -89t25 -154.5v-26h-318v-33q0 -62 32 -95t86 -33q47 0 77.5 21t51.5 59l60 -57q-27 -48 -75 -78t-118 -30zM253 450q-34 0 -58 -14t-37 -42t-13 -70v-21h209v21q0 42 -11 70
t-33.5 42t-56.5 14zM253 589q-52 0 -86 22.5t-53 69.5l-18 45l81 35l34 -94q10 -4 21 -5.5t21 -1.5q11 0 22 1.5t20 5.5l34 94l81 -35l-18 -45q-19 -47 -53 -69.5t-86 -22.5z" />
    <glyph glyph-name="uni04D8" unicode="&#x4d8;" horiz-adv-x="641" 
d="M49 379h429v42q0 97 -40 146t-118 49q-64 0 -100.5 -32.5t-54.5 -94.5l-93 36q16 55 48 96.5t82 65t118 23.5q85 0 145.5 -37.5t93.5 -116.5t33 -207q0 -127 -33 -206.5t-93.5 -117t-145.5 -37.5q-84 0 -145 37.5t-93.5 117t-32.5 206.5v30zM162 293v-21
q0 -62 17.5 -104.5t53 -64t87.5 -21.5q53 0 88 21.5t52.5 64t17.5 104.5v21h-316z" />
    <glyph glyph-name="uni04D9" unicode="&#x4d9;" horiz-adv-x="501" 
d="M37 286h318v33q0 62 -31.5 94.5t-86.5 32.5q-46 0 -76.5 -20.5t-51.5 -58.5l-60 57q27 49 75 78.5t118 29.5q65 0 115.5 -29t78.5 -89t28 -154t-26.5 -154.5t-75 -89t-114.5 -28.5t-113 29t-72.5 89t-25.5 154v26zM146 217v-21q0 -41 11.5 -69.5t34.5 -42.5t56 -14
q34 0 58 14t36.5 42.5t12.5 69.5v21h-209z" />
    <glyph glyph-name="uni04DC" unicode="&#x4dc;" horiz-adv-x="891" 
d="M35 0v93h57l85 198q14 31 28.5 44t34.5 15v12q-17 4 -31.5 17t-26.5 44l-75 182h-55v93h52q36 0 59 -16.5t39 -55.5l94 -227h96v299h107v-299h97l94 227q16 39 39 55.5t58 16.5h53v-93h-56l-75 -182q-13 -31 -26.5 -44t-31.5 -17v-12q20 -2 35 -15t29 -44l84 -198h57v-93
h-65q-32 0 -54.5 16.5t-39.5 55.5l-101 235h-97v-307h-107v307h-96l-102 -235q-16 -39 -38.5 -55.5t-55.5 -16.5h-65zM356 780q-32 0 -46 13t-14 35v23q0 22 14 35t46 13t46 -13t14 -35v-23q0 -22 -14 -35t-46 -13zM536 780q-32 0 -46 13t-14 35v23q0 22 14 35t46 13t46 -13
t14 -35v-23q0 -22 -14 -35t-46 -13z" />
    <glyph glyph-name="uni04DD" unicode="&#x4dd;" horiz-adv-x="745" 
d="M41 0v85h51l50 129q10 24 23.5 36t31.5 13v11q-16 3 -27 13t-23 37l-47 111h-52v85h49q34 0 55 -15.5t36 -50.5l63 -146h70v212h103v-212h70l63 146q15 35 36.5 50.5t54.5 15.5h49v-85h-52l-47 -111q-11 -27 -22 -37t-28 -13v-11q18 -1 31.5 -13t23.5 -36l50 -129h51v-85
h-56q-32 0 -55 15t-38 55l-61 154h-70v-224h-103v224h-70l-61 -154q-15 -40 -38 -55t-55 -15h-56zM283 612q-32 0 -46 13t-14 35v23q0 22 14 34.5t46 12.5t46 -12.5t14 -34.5v-23q0 -22 -14 -35t-46 -13zM463 612q-32 0 -46 13t-14 35v23q0 22 14 34.5t46 12.5t46 -12.5
t14 -34.5v-23q0 -22 -14 -35t-46 -13z" />
    <glyph glyph-name="uni04DE" unicode="&#x4de;" horiz-adv-x="542" 
d="M257 -12q-81 0 -135.5 30t-91.5 85l73 68q25 -44 62.5 -66t89.5 -22q42 0 70 12.5t42 35.5t14 58v22q0 45 -27 71t-84 26h-102v93h96q35 0 58.5 11.5t35 34t11.5 54.5v24q0 46 -28 68.5t-82 22.5q-50 0 -83.5 -19t-56.5 -57l-71 61q33 54 84 81.5t128 27.5
q108 0 165.5 -50t56.5 -138q0 -70 -35.5 -108.5t-90.5 -47.5v-12q37 -3 68.5 -20t51 -50.5t19.5 -85.5q0 -64 -28.5 -111t-81.5 -73t-128 -26zM169 780q-32 0 -46 13t-14 35v23q0 22 14 35t46 13t46 -13t14 -35v-23q0 -22 -14 -35t-46 -13zM349 780q-32 0 -46 13t-14 35v23
q0 22 14 35t46 13t46 -13t14 -35v-23q0 -22 -14 -35t-46 -13z" />
    <glyph glyph-name="uni04DF" unicode="&#x4df;" horiz-adv-x="464" 
d="M218 -12q-70 0 -116 26t-79 74l66 64q20 -37 53 -57.5t76 -20.5q47 0 71.5 20.5t24.5 54.5v11q0 33 -20 50.5t-56 17.5h-98v76h87q37 0 56 17t19 47v12q0 30 -21 47.5t-63 17.5q-44 0 -74 -19.5t-48 -53.5l-63 59q28 46 75 73t116 27q91 0 138 -37.5t47 -101.5
q0 -49 -23 -75.5t-71 -37.5v-12q54 -8 79.5 -38t25.5 -77q0 -76 -54.5 -120t-147.5 -44zM134 612q-32 0 -46 13t-14 35v23q0 22 14 34.5t46 12.5t46 -12.5t14 -34.5v-23q0 -22 -14 -35t-46 -13zM314 612q-32 0 -46 13t-14 35v23q0 22 14 34.5t46 12.5t46 -12.5t14 -34.5v-23
q0 -22 -14 -35t-46 -13z" />
    <glyph glyph-name="uni04E0" unicode="&#x4e0;" horiz-adv-x="542" 
d="M257 -12q-81 0 -135.5 30t-91.5 85l73 68q25 -44 62.5 -66t89.5 -22q42 0 70 12.5t42 36.5t14 60v29q0 34 -14.5 56.5t-40 34.5t-62.5 12h-112v93l196 187v11l-88 -11h-189v94h396v-109l-178 -170v-39l-28 29h27q57 0 103.5 -20.5t75 -63.5t28.5 -113q0 -71 -28.5 -121
t-81.5 -76.5t-128 -26.5z" />
    <glyph glyph-name="uni04E1" unicode="&#x4e1;" horiz-adv-x="449" 
d="M210 -200q-67 0 -113 27t-77 81l72 57q15 -39 44.5 -58.5t72.5 -19.5q33 0 55.5 13t34 38t11.5 58v42q0 51 -28.5 78.5t-80.5 27.5h-88v76l172 214v12l-73 -11h-154v85h331v-90l-160 -201v-48l-34 36h26q62 0 106 -21.5t67 -65.5t23 -111t-24 -116t-70.5 -76t-112.5 -27z
" />
    <glyph glyph-name="uni04E2" unicode="&#x4e2;" horiz-adv-x="645" 
d="M77 0v698h104v-406l-10 -134h11l56 132l232 408h98v-698h-104v406l10 134h-11l-54 -130l-235 -410h-97zM189 799v80h264v-80h-264z" />
    <glyph glyph-name="uni04E3" unicode="&#x4e3;" horiz-adv-x="545" 
d="M70 0v520h100v-262l-14 -117h12l51 107l159 272h97v-520h-101v262l15 117h-12l-51 -107l-160 -272h-96zM139 633v80h264v-80h-264z" />
    <glyph glyph-name="uni04E4" unicode="&#x4e4;" horiz-adv-x="645" 
d="M77 0v698h104v-406l-10 -134h11l56 132l232 408h98v-698h-104v406l10 134h-11l-54 -130l-235 -410h-97zM231 780q-32 0 -46 13t-14 35v23q0 22 14 35t46 13t46 -13t14 -35v-23q0 -22 -14 -35t-46 -13zM411 780q-32 0 -46 13t-14 35v23q0 22 14 35t46 13t46 -13t14 -35
v-23q0 -22 -14 -35t-46 -13z" />
    <glyph glyph-name="uni04E5" unicode="&#x4e5;" horiz-adv-x="545" 
d="M70 0v520h100v-262l-14 -117h12l51 107l159 272h97v-520h-101v262l15 117h-12l-51 -107l-160 -272h-96zM181 612q-32 0 -46 13t-14 35v23q0 22 14 34.5t46 12.5t46 -12.5t14 -34.5v-23q0 -22 -14 -35t-46 -13zM361 612q-32 0 -46 13t-14 35v23q0 22 14 34.5t46 12.5
t46 -12.5t14 -34.5v-23q0 -22 -14 -35t-46 -13z" />
    <glyph glyph-name="uni04E6" unicode="&#x4e6;" horiz-adv-x="640" 
d="M320 -12q-84 0 -145 37.5t-93.5 117t-32.5 206.5q0 128 32.5 207t93.5 116.5t145 37.5t145 -37.5t93.5 -116.5t32.5 -207q0 -127 -32.5 -206.5t-93.5 -117t-145 -37.5zM320 82q50 0 84.5 22t53.5 63.5t19 97.5v168q0 57 -19 98t-53.5 63t-84.5 22q-49 0 -84.5 -22
t-54 -63t-18.5 -98v-168q0 -56 18.5 -97.5t54 -63.5t84.5 -22zM230 780q-32 0 -46 13t-14 35v23q0 22 14 35t46 13t46 -13t14 -35v-23q0 -22 -14 -35t-46 -13zM410 780q-32 0 -46 13t-14 35v23q0 22 14 35t46 13t46 -13t14 -35v-23q0 -22 -14 -35t-46 -13z" />
    <glyph glyph-name="uni04E7" unicode="&#x4e7;" horiz-adv-x="506" 
d="M253 -12q-66 0 -114.5 28.5t-75 88.5t-26.5 155q0 94 26.5 154.5t75 89t114.5 28.5t114.5 -28.5t75 -89t26.5 -154.5q0 -95 -26.5 -155t-75 -88.5t-114.5 -28.5zM253 74q52 0 79.5 31t27.5 94v122q0 63 -27.5 93.5t-79.5 30.5q-51 0 -79 -30.5t-28 -93.5v-122
q0 -63 28 -94t79 -31zM163 612q-32 0 -46 13t-14 35v23q0 22 14 34.5t46 12.5t46 -12.5t14 -34.5v-23q0 -22 -14 -35t-46 -13zM343 612q-32 0 -46 13t-14 35v23q0 22 14 34.5t46 12.5t46 -12.5t14 -34.5v-23q0 -22 -14 -35t-46 -13z" />
    <glyph glyph-name="uni04E8" unicode="&#x4e8;" horiz-adv-x="640" 
d="M320 -12q-84 0 -145 37.5t-93.5 117t-32.5 206.5q0 128 32.5 207t93.5 116.5t145 37.5t145 -37.5t93.5 -116.5t32.5 -207q0 -127 -32.5 -206.5t-93.5 -117t-145 -37.5zM320 79q52 0 88 22.5t55 64t19 98.5v71l35 -31h-395l36 31v-71q0 -57 19 -98.5t55 -64t88 -22.5z
M320 619q-52 0 -88 -22.5t-55 -63.5t-19 -99v-60l-36 25h395l-35 -30v65q0 58 -19 99t-55 63.5t-88 22.5z" />
    <glyph glyph-name="uni04E9" unicode="&#x4e9;" horiz-adv-x="506" 
d="M253 -12q-66 0 -114.5 28.5t-75 88.5t-26.5 155q0 94 26.5 154.5t75 89t114.5 28.5t114.5 -28.5t75 -89t26.5 -154.5q0 -95 -26.5 -155t-75 -88.5t-114.5 -28.5zM253 71q53 0 82 31.5t29 94.5v31h-222v-31q0 -63 29 -94.5t82 -31.5zM142 322v-24h222v24q0 64 -29 95
t-82 31t-82 -31t-29 -95z" />
    <glyph glyph-name="uni04EE" unicode="&#x4ee;" horiz-adv-x="553" 
d="M118 0v93h100l26 73l-229 532h113l114 -278l43 -125h12l38 124l95 279h107l-223 -616q-11 -31 -26.5 -49t-37.5 -25.5t-54 -7.5h-78zM148 799v80h264v-80h-264z" />
    <glyph glyph-name="uni04EF" unicode="&#x4ef;" horiz-adv-x="470" 
d="M277 247l77 273h102l-201 -638q-9 -32 -23.5 -49.5t-37 -25t-56.5 -7.5h-72v85h94l24 87l-173 548h105l78 -273l36 -158h11zM103 633v80h264v-80h-264z" />
    <glyph glyph-name="uni04F0" unicode="&#x4f0;" horiz-adv-x="553" 
d="M118 0v93h100l26 73l-229 532h113l114 -278l43 -125h12l38 124l95 279h107l-223 -616q-11 -31 -26.5 -49t-37.5 -25.5t-54 -7.5h-78zM190 780q-32 0 -46 13t-14 35v23q0 22 14 35t46 13t46 -13t14 -35v-23q0 -22 -14 -35t-46 -13zM370 780q-32 0 -46 13t-14 35v23
q0 22 14 35t46 13t46 -13t14 -35v-23q0 -22 -14 -35t-46 -13z" />
    <glyph glyph-name="uni04F1" unicode="&#x4f1;" horiz-adv-x="470" 
d="M277 247l77 273h102l-201 -638q-9 -32 -23.5 -49.5t-37 -25t-56.5 -7.5h-72v85h94l24 87l-173 548h105l78 -273l36 -158h11zM145 612q-32 0 -46 13t-14 35v23q0 22 14 34.5t46 12.5t46 -12.5t14 -34.5v-23q0 -22 -14 -35t-46 -13zM325 612q-32 0 -46 13t-14 35v23
q0 22 14 34.5t46 12.5t46 -12.5t14 -34.5v-23q0 -22 -14 -35t-46 -13z" />
    <glyph glyph-name="uni04F2" unicode="&#x4f2;" horiz-adv-x="553" 
d="M118 0v93h100l26 73l-229 532h113l114 -278l43 -125h12l38 124l95 279h107l-223 -616q-11 -31 -26.5 -49t-37.5 -25.5t-54 -7.5h-78zM316 917l-110 -168l-58 29l84 182zM481 917l-110 -168l-59 29l85 182z" />
    <glyph glyph-name="uni04F3" unicode="&#x4f3;" horiz-adv-x="470" 
d="M277 247l77 273h102l-201 -638q-9 -32 -23.5 -49.5t-37 -25t-56.5 -7.5h-72v85h94l24 87l-173 548h105l78 -273l36 -158h11zM271 750l-110 -168l-58 30l84 181zM436 750l-110 -168l-59 30l85 181z" />
    <glyph glyph-name="uni04F4" unicode="&#x4f4;" horiz-adv-x="594" 
d="M410 0v269h-13q-23 -11 -54 -17.5t-70 -6.5q-113 0 -168 55.5t-55 173.5v224h107v-227q0 -70 32 -101.5t98 -31.5q40 0 70 6t53 17v337h107v-698h-107zM194 780q-32 0 -46 13t-14 35v23q0 22 14 35t46 13t46 -13t14 -35v-23q0 -22 -14 -35t-46 -13zM374 780q-32 0 -46 13
t-14 35v23q0 22 14 35t46 13t46 -13t14 -35v-23q0 -22 -14 -35t-46 -13z" />
    <glyph glyph-name="uni04F5" unicode="&#x4f5;" horiz-adv-x="503" 
d="M330 0v233h-15q-12 -29 -41.5 -47t-77.5 -18q-74 0 -112.5 42.5t-38.5 126.5v183h103v-175q0 -45 20.5 -67t65.5 -22q43 0 69.5 16.5t26.5 45.5v202h103v-520h-103zM149 612q-32 0 -46 13t-14 35v23q0 22 14 34.5t46 12.5t46 -12.5t14 -34.5v-23q0 -22 -14 -35t-46 -13z
M329 612q-32 0 -46 13t-14 35v23q0 22 14 34.5t46 12.5t46 -12.5t14 -34.5v-23q0 -22 -14 -35t-46 -13z" />
    <glyph glyph-name="uni04F6" unicode="&#x4f6;" horiz-adv-x="462" 
d="M77 0v698h360v-93h-254v-512h96v-243h-100v150h-102z" />
    <glyph glyph-name="uni04F7" unicode="&#x4f7;" horiz-adv-x="396" 
d="M70 0v520h307v-85h-204v-350h79v-225h-94v140h-88z" />
    <glyph glyph-name="uni04F8" unicode="&#x4f8;" horiz-adv-x="813" 
d="M77 0v698h106v-267h172q60 0 101.5 -25.5t62.5 -74t21 -115.5q0 -68 -21 -116t-62.5 -74t-101.5 -26h-278zM183 93h163q26 0 44 10.5t28 30.5t10 49v66q0 29 -10 48.5t-28 30t-44 10.5h-163v-245zM629 0v698h107v-698h-107zM316 780q-32 0 -46 13t-14 35v23q0 22 14 35
t46 13t46 -13t14 -35v-23q0 -22 -14 -35t-46 -13zM496 780q-32 0 -46 13t-14 35v23q0 22 14 35t46 13t46 -13t14 -35v-23q0 -22 -14 -35t-46 -13z" />
    <glyph glyph-name="uni04F9" unicode="&#x4f9;" horiz-adv-x="692" 
d="M70 0v520h103v-175h114q51 0 87.5 -20.5t57 -59t20.5 -92.5t-20 -93t-57 -59.5t-87 -20.5h-218zM173 81h97q36 0 55.5 17.5t19.5 53.5v41q0 36 -19.5 53.5t-55.5 17.5h-97v-183zM519 0v520h104v-520h-104zM256 612q-32 0 -46 13t-14 35v23q0 22 14 34.5t46 12.5t46 -12.5
t14 -34.5v-23q0 -22 -14 -35t-46 -13zM436 612q-32 0 -46 13t-14 35v23q0 22 14 34.5t46 12.5t46 -12.5t14 -34.5v-23q0 -22 -14 -35t-46 -13z" />
    <glyph glyph-name="uni0524" unicode="&#x524;" horiz-adv-x="675" 
d="M77 0v698h477v-605h96v-243h-100v150h-103v605h-264v-605h-106z" />
    <glyph glyph-name="uni0525" unicode="&#x525;" horiz-adv-x="556" 
d="M70 0v520h388v-435h80v-225h-95v140h-88v435h-182v-435h-103z" />
    <glyph glyph-name="uni0E3F" unicode="&#xe3f;" horiz-adv-x="590" 
d="M334 21v-103h-83v103h-174v656h174v103h83v-103h26q80 0 120.5 -42t40.5 -127q0 -70 -28.5 -102t-83.5 -38v-11q40 -2 70 -17.5t47.5 -47t17.5 -82.5q0 -59 -19.5 -101.5t-54.5 -65t-84 -22.5h-52zM177 397h81v193h-81v-193zM327 590v-193h22q35 0 51 18t16 55v47
q0 38 -16 55.5t-51 17.5h-22zM177 108h81v206h-81v-206zM327 314v-206h34q24 0 41.5 8.5t27 25.5t9.5 44v50q0 27 -9.5 44t-27 25.5t-41.5 8.5h-34z" />
    <glyph glyph-name="Wgrave" unicode="&#x1e80;" horiz-adv-x="840" 
d="M298 0h-128l-148 698h108l82 -423l22 -162h13l22 160l88 425h129l89 -425l22 -160h13l22 162l82 423h104l-153 -698h-127l-90 430l-22 161h-12l-22 -161zM410 749l-111 167l90 45l84 -181z" />
    <glyph glyph-name="wgrave" unicode="&#x1e81;" horiz-adv-x="723" 
d="M146 0l-125 520h100l51 -237l32 -190h12l38 190l56 237h108l57 -237l38 -190h11l32 190l53 237h95l-125 -520h-121l-61 253l-28 168h-12l-29 -168l-61 -253h-121zM353 582l-111 167l90 46l84 -182z" />
    <glyph glyph-name="Wacute" unicode="&#x1e82;" horiz-adv-x="840" 
d="M298 0h-128l-148 698h108l82 -423l22 -162h13l22 160l88 425h129l89 -425l22 -160h13l22 162l82 423h104l-153 -698h-127l-90 430l-22 161h-12l-22 -161zM541 916l-111 -167l-63 31l84 181z" />
    <glyph glyph-name="wacute" unicode="&#x1e83;" horiz-adv-x="723" 
d="M146 0l-125 520h100l51 -237l32 -190h12l38 190l56 237h108l57 -237l38 -190h11l32 190l53 237h95l-125 -520h-121l-61 253l-28 168h-12l-29 -168l-61 -253h-121zM484 749l-111 -167l-63 31l84 182z" />
    <glyph glyph-name="Wdieresis" unicode="&#x1e84;" horiz-adv-x="840" 
d="M298 0h-128l-148 698h108l82 -423l22 -162h13l22 160l88 425h129l89 -425l22 -160h13l22 162l82 423h104l-153 -698h-127l-90 430l-22 161h-12l-22 -161zM330 780q-32 0 -46 13t-14 35v23q0 22 14 35t46 13t46 -13t14 -35v-23q0 -22 -14 -35t-46 -13zM510 780
q-32 0 -46 13t-14 35v23q0 22 14 35t46 13t46 -13t14 -35v-23q0 -22 -14 -35t-46 -13z" />
    </font>
</defs>
</svg>
