<?xml version="1.0" standalone="no"?>
<!DOCTYPE svg PUBLIC "-//W3C//DTD SVG 1.1//EN" "http://www.w3.org/Graphics/SVG/1.1/DTD/svg11.dtd" >
<svg xmlns="http://www.w3.org/2000/svg" xmlns:xlink="http://www.w3.org/1999/xlink" version="1.1">
<metadata>
Created by FontForge 20201107 at Fri Jan 10 15:39:06 2025
 By 
Copyright 2019 IBM Corp. All rights reserved.
</metadata>
<defs>
<font id="IBMPlexSansCondensed-Thin" horiz-adv-x="540" >
  <font-face 
    font-family="IBM Plex Sans Condensed Thin"
    font-weight="250"
    font-stretch="condensed"
    units-per-em="1000"
    panose-1="2 11 5 3 5 2 3 0 2 3"
    ascent="800"
    descent="-200"
    x-height="506"
    cap-height="698"
    bbox="-207 -220 1081 1091"
    underline-thickness="16"
    underline-position="-192"
    unicode-range="U+0020-FFFD"
  />
<missing-glyph horiz-adv-x="424" 
d="M32 0v780h360v-780h-360zM48 16h328v748h-328v-748z" />
    <glyph glyph-name="fi" unicode="fi" horiz-adv-x="467" 
d="M110 0v487h-83v19h83v207q0 15 6 21t21 6h99v-19h-105v-215h242v-506h-21v487h-221v-487h-21zM363 673q-12 0 -17 6t-5 14v9q0 8 5 14t17 6t16.5 -6t4.5 -14v-9q0 -8 -4.5 -14t-16.5 -6z" />
    <glyph glyph-name=".notdef" horiz-adv-x="424" 
d="M32 0v780h360v-780h-360zM48 16h328v748h-328v-748z" />
    <glyph glyph-name=".null" horiz-adv-x="0" 
 />
    <glyph glyph-name="nonmarkingreturn" horiz-adv-x="333" 
 />
    <glyph glyph-name="space" unicode=" " horiz-adv-x="212" 
 />
    <glyph glyph-name="exclam" unicode="!" horiz-adv-x="228" 
d="M120 176h-12l-5 239v283h22v-283zM114 -5q-13 0 -19.5 6t-6.5 18v8q0 12 6.5 18t19.5 6t19.5 -6t6.5 -18v-8q0 -12 -6.5 -18t-19.5 -6z" />
    <glyph glyph-name="quotedbl" unicode="&#x22;" horiz-adv-x="337" 
d="M109 490h-20v250h20v-250zM248 490h-20v250h20v-250z" />
    <glyph glyph-name="numbersign" unicode="#" horiz-adv-x="642" 
d="M350 0l35 220h-167l-34 -220h-21l34 220h-134v16h138l33 226h-136v16h139l34 220h21l-34 -220h166l34 220h21l-34 -220h134v-16h-138l-33 -226h136v-16h-139l-34 -220h-21zM221 236h166l34 226h-166z" />
    <glyph glyph-name="dollar" unicode="$" horiz-adv-x="494" 
d="M261 -82h-20v88v8v670v8v88h20v-88v-8v-670v-8v-88zM250 0q-58 0 -98 15t-67.5 40.5t-48.5 56.5l17 12q22 -30 46 -53.5t59.5 -37t88.5 -13.5q61 0 99 19.5t56 56t18 88.5q0 47 -14 80t-48.5 54t-96.5 31l-18 3q-73 12 -114 35.5t-57.5 59t-16.5 83.5q0 57 22.5 94.5
t66 55.5t107.5 18q74 0 115.5 -27.5t64.5 -65.5l-16 -12q-24 38 -61 61.5t-103 23.5q-88 0 -131 -36.5t-43 -111.5q0 -51 17.5 -82.5t54 -48.5t92.5 -27l18 -3q75 -12 114.5 -38t54 -62.5t14.5 -83.5q0 -59 -21.5 -100.5t-64 -63t-106.5 -21.5z" />
    <glyph glyph-name="percent" unicode="%" horiz-adv-x="795" 
d="M190 0h-22l436 698h22zM194 326q-40 0 -69 19.5t-44 62t-15 110.5q0 69 15 111t44 61.5t69 19.5q41 0 69.5 -19.5t43.5 -61.5t15 -111q0 -68 -15 -110.5t-43.5 -62t-69.5 -19.5zM194 343q34 0 57.5 16t36.5 50t13 87v44q0 53 -13 87t-36.5 50t-57.5 16q-33 0 -57 -16
t-37 -50t-13 -87v-44q0 -53 13 -87t37 -50t57 -16zM600 -12q-41 0 -69.5 19.5t-43.5 62t-15 110.5q0 69 15 111t43.5 61.5t69.5 19.5t69.5 -19.5t43.5 -61.5t15 -111q0 -68 -15 -110.5t-43.5 -62t-69.5 -19.5zM600 5q34 0 58 16t36.5 50t12.5 87v44q0 53 -12.5 87t-36.5 50
t-58 16t-58 -16t-36.5 -50t-12.5 -87v-44q0 -53 12.5 -87t36.5 -50t58 -16z" />
    <glyph glyph-name="ampersand" unicode="&#x26;" horiz-adv-x="610" 
d="M548 0l-101 116h-6q-15 -37 -40.5 -66t-63.5 -45.5t-91 -16.5q-58 0 -99 20.5t-62.5 60t-21.5 94.5q0 59 20.5 97t55 64t76.5 48q-43 49 -70.5 95t-27.5 97q0 49 18 81t51.5 48.5t79.5 16.5q47 0 80 -16.5t51 -48.5t18 -81q0 -38 -20.5 -72.5t-58.5 -65t-91 -58.5
l197 -221q16 41 23 94t7 110h99v-20h-80q-1 -55 -9.5 -105.5t-25.5 -92.5l119 -133h-27zM266 691q-60 0 -93 -31t-33 -84v-24q0 -26 13.5 -56t35 -59.5t43.5 -56.5q48 25 84 52.5t56 57.5t20 63v23q0 36 -15 61.5t-43 39.5t-68 14zM246 8q52 0 86 14.5t57.5 41.5t44.5 64
l-208 232q-39 -22 -70.5 -46t-50.5 -57t-19 -82v-24q0 -66 43.5 -104.5t116.5 -38.5z" />
    <glyph glyph-name="quotesingle" unicode="'" horiz-adv-x="198" 
d="M109 490h-20v250h20v-250z" />
    <glyph glyph-name="parenleft" unicode="(" horiz-adv-x="299" 
d="M93 311q0 109 24 194.5t62.5 149t79.5 105.5h25q-44 -43 -83 -105.5t-62.5 -141t-23.5 -171.5v-62q0 -92 23.5 -171t62.5 -141t83 -106h-25q-41 43 -79.5 106t-62.5 148.5t-24 194.5z" />
    <glyph glyph-name="parenright" unicode=")" horiz-adv-x="299" 
d="M206 311q0 -109 -24 -194.5t-62 -148.5t-80 -106h-25q45 44 83.5 106t62 141t23.5 171v62q0 93 -23.5 171.5t-62 141t-83.5 105.5h25q42 -42 80 -105.5t62 -148.5t24 -195z" />
    <glyph glyph-name="asterisk" unicode="*" horiz-adv-x="329" 
d="M154 747h20l-2 -150l2 -2l142 49l5 -18l-142 -46l-1 -2l89 -121l-16 -12l-86 124h-2l-86 -124l-16 12l89 121l-1 2l-142 46l5 18l142 -49l2 2z" />
    <glyph glyph-name="plus" unicode="+" 
d="M281 84h-21v212h-204v19h204v212h21v-212h203v-19h-203v-212z" />
    <glyph glyph-name="comma" unicode="," horiz-adv-x="218" 
d="M109 51q13 0 19.5 -6t6.5 -18v-8q0 -47 -21 -92t-50 -74h-19q32 35 47.5 73t16.5 69q-13 0 -19.5 6t-6.5 18v8q0 12 6.5 18t19.5 6z" />
    <glyph glyph-name="hyphen" unicode="-" horiz-adv-x="360" 
d="M285 295h-210v20h210v-20z" />
    <glyph glyph-name="period" unicode="." horiz-adv-x="218" 
d="M109 -5q-13 0 -19.5 6t-6.5 18v8q0 12 6.5 18t19.5 6t19.5 -6t6.5 -18v-8q0 -12 -6.5 -18t-19.5 -6z" />
    <glyph glyph-name="slash" unicode="/" horiz-adv-x="284" 
d="M31 -151h-19l215 891h19z" />
    <glyph glyph-name="zero" unicode="0" 
d="M270 -12q-63 0 -109.5 32.5t-71.5 111t-25 217.5t25 217.5t71.5 111t109.5 32.5q64 0 110 -32.5t71 -111t25 -217.5t-25 -217.5t-71 -111t-110 -32.5zM270 8q60 0 100.5 32t61 98t20.5 167v88q0 102 -20.5 167.5t-61 97.5t-100.5 32q-59 0 -100 -32t-61.5 -97.5
t-20.5 -167.5v-88q0 -101 20.5 -167t61.5 -98t100 -32z" />
    <glyph glyph-name="one" unicode="1" 
d="M490 0h-406v20h196v662h-3l-193 -162l-13 15l194 163h37v-678h188v-20z" />
    <glyph glyph-name="two" unicode="2" 
d="M469 20v-20h-391v22l243 272q44 49 68.5 98.5t24.5 103.5v42q0 65 -36.5 108.5t-113.5 43.5q-74 0 -110.5 -36.5t-53.5 -100.5l-20 4q10 46 32.5 80t60 53.5t92.5 19.5q58 0 96.5 -22t57.5 -65t19 -107q0 -49 -12 -88.5t-35 -75t-57 -73.5l-231 -259h366z" />
    <glyph glyph-name="three" unicode="3" 
d="M167 376h84q68 0 110.5 39t42.5 103v32q0 65 -40.5 102.5t-105.5 37.5t-100.5 -27t-55.5 -72l-17 8q13 33 35.5 58t56.5 39t81 14q52 0 90 -19.5t59 -58t21 -96.5q0 -77 -36 -117.5t-92 -49.5v-6q42 -4 74 -24.5t50 -58.5t18 -96q0 -67 -23 -110t-65 -64.5t-100 -21.5
q-46 0 -82 11.5t-62.5 35.5t-47.5 60l18 11q29 -49 68.5 -73.5t105.5 -24.5q74 0 119 42.5t45 115.5v32q0 73 -45 115.5t-119 42.5h-87v20z" />
    <glyph glyph-name="four" unicode="4" 
d="M390 0h-21v160h-327v21l312 517h36v-519h105v-19h-105v-160zM363 678l-299 -499h305v499h-6z" />
    <glyph glyph-name="five" unicode="5" 
d="M434 698v-20h-291l-21 -338h6q15 27 36 43t48.5 23t61.5 7q60 0 100 -23.5t60.5 -69.5t20.5 -116q0 -71 -22.5 -119t-65 -72.5t-101.5 -24.5q-47 0 -81.5 11t-60.5 34.5t-47 59.5l18 11q29 -50 67.5 -73t103.5 -23q77 0 121 49t44 127v38q0 79 -40.5 125t-116.5 46
q-56 0 -88.5 -17.5t-61.5 -55.5l-22 3l23 375h309z" />
    <glyph glyph-name="six" unicode="6" 
d="M270 -12q-56 0 -99.5 22.5t-68 73t-24.5 132.5t16 152t46.5 129.5t76.5 109t106 91.5h32q-74 -51 -126 -109.5t-82.5 -127t-42.5 -150.5h5q13 36 34.5 60t53.5 35.5t73 11.5q60 0 103 -25t66 -72.5t23 -117.5q0 -69 -23 -117t-66 -73t-103 -25zM270 8q55 0 92 23t56.5 63
t19.5 90v38q0 51 -19.5 90.5t-56.5 62.5t-92 23q-54 0 -91.5 -23t-57 -62.5t-19.5 -90.5v-38q0 -50 19.5 -90t57 -63t91.5 -23z" />
    <glyph glyph-name="seven" unicode="7" 
d="M192 0h-24l270 678h-347v-166h-22v186h392v-20z" />
    <glyph glyph-name="eight" unicode="8" 
d="M270 -12q-64 0 -110 22t-70.5 65t-25.5 105q0 82 41 128t105 55v6q-53 9 -88.5 51t-35.5 115q0 87 49 131t135 44t135 -44t49 -131q0 -73 -35.5 -115t-88.5 -51v-6q64 -9 105 -55t41 -128q0 -62 -24.5 -105t-70.5 -65t-111 -22zM270 8q85 0 133.5 43t48.5 114v34
q0 71 -48.5 114t-133.5 43t-133.5 -43t-48.5 -114v-34q0 -71 48.5 -114t133.5 -43zM270 376q74 0 117 38t43 103v32q0 65 -43 103t-117 38t-117 -38t-43 -103v-32q0 -65 43 -103t117 -38z" />
    <glyph glyph-name="nine" unicode="9" 
d="M462 482q0 -82 -16 -152t-46.5 -129.5t-76.5 -109t-106 -91.5h-32q75 51 126.5 109.5t82.5 127t42 150.5h-5q-12 -36 -34 -59.5t-53.5 -35.5t-73.5 -12q-60 0 -103 25t-66 73t-23 117q0 70 23 117.5t66 72.5t103 25q56 0 99.5 -22.5t68 -72.5t24.5 -133zM270 300
q55 0 92 23t56.5 63t19.5 90v38q0 51 -19.5 90.5t-56.5 62.5t-92 23q-54 0 -91.5 -23t-57 -62.5t-19.5 -90.5v-38q0 -50 19.5 -90t57 -63t91.5 -23z" />
    <glyph glyph-name="colon" unicode=":" horiz-adv-x="234" 
d="M117 -5q-13 0 -19.5 6t-6.5 18v8q0 12 6.5 18t19.5 6t19.5 -6t6.5 -18v-8q0 -12 -6.5 -18t-19.5 -6zM117 438q-13 0 -19.5 6t-6.5 18v8q0 12 6.5 18t19.5 6t19.5 -6t6.5 -18v-8q0 -12 -6.5 -18t-19.5 -6z" />
    <glyph glyph-name="semicolon" unicode=";" horiz-adv-x="234" 
d="M117 51q13 0 19.5 -6t6.5 -18v-8q0 -47 -21 -92t-50 -74h-19q32 35 47.5 73t16.5 69q-13 0 -19.5 6t-6.5 18v8q0 12 6.5 18t19.5 6zM117 438q-13 0 -19.5 6t-6.5 18v8q0 12 6.5 18t19.5 6t19.5 -6t6.5 -18v-8q0 -12 -6.5 -18t-19.5 -6z" />
    <glyph glyph-name="less" unicode="&#x3c;" 
d="M463 38l-386 256v22l386 256v-23l-364 -241v-6l364 -241v-23z" />
    <glyph glyph-name="equal" unicode="=" 
d="M484 385h-428v19h428v-19zM484 207h-428v19h428v-19z" />
    <glyph glyph-name="greater" unicode="&#x3e;" 
d="M77 38v23l364 241v6l-364 241v23l386 -256v-22z" />
    <glyph glyph-name="question" unicode="?" horiz-adv-x="411" 
d="M199 176h-22v173q91 5 135.5 47t44.5 115v38q0 66 -37 104t-108 38q-69 0 -105.5 -34t-53.5 -99l-20 5q12 48 34.5 80.5t58.5 49.5t86 17q54 0 91.5 -20t57 -59.5t19.5 -98.5q0 -63 -20.5 -105t-60.5 -65t-100 -31v-155zM188 -5q-13 0 -19.5 6t-6.5 18v8q0 12 6.5 18
t19.5 6t19.5 -6t6.5 -18v-8q0 -12 -6.5 -18t-19.5 -6z" />
    <glyph glyph-name="at" unicode="@" horiz-adv-x="792" 
d="M609 -102v-18h-213q-98 0 -174 46.5t-118.5 140t-42.5 233.5q0 132 42.5 223.5t118.5 139t176 47.5q72 0 132.5 -23.5t105.5 -71t70 -118.5t25 -167q0 -73 -13.5 -132.5t-42 -94.5t-74.5 -35q-36 0 -59.5 19.5t-26.5 55.5h-6q-10 -30 -40.5 -52.5t-76.5 -22.5
q-51 0 -86 24t-52.5 73t-17.5 123t17.5 123t52.5 73t86 24q46 0 76.5 -22t40.5 -53h6v67h20v-337q0 -34 17.5 -55.5t48.5 -21.5q49 0 78 56t29 157v59q0 100 -38.5 175t-108 117t-163.5 42q-72 0 -129.5 -26.5t-99 -75t-63.5 -114.5t-22 -144v-64q0 -82 22 -149.5t62.5 -117
t98 -76.5t129.5 -27h213zM392 86q35 0 63 16t44 45t16 67v148q0 39 -16 67.5t-44 44.5t-63 16q-69 0 -101 -50t-32 -134v-36q0 -84 32 -134t101 -50z" />
    <glyph glyph-name="A" unicode="A" horiz-adv-x="542" 
d="M515 0h-24l-76 234h-288l-76 -234h-24l226 698h36zM408 253l-87 274l-48 151h-4l-48 -151l-87 -274h274z" />
    <glyph glyph-name="B" unicode="B" horiz-adv-x="555" 
d="M97 0v698h231q65 0 102.5 -39.5t37.5 -130.5q0 -48 -11.5 -80t-32 -49.5t-48.5 -25.5v-6q29 -4 51.5 -17t37.5 -35.5t23 -53.5t8 -72q0 -62 -17.5 -104.5t-51.5 -63.5t-84 -21h-246zM119 358v-338h224q46 0 74 19.5t41.5 52t13.5 72.5v50q0 40 -14 72.5t-43 52t-75 19.5
h-221zM119 678v-300h206q41 0 67.5 16.5t39 45t12.5 63.5v50q0 36 -12 64t-37.5 44.5t-66.5 16.5h-209z" />
    <glyph glyph-name="C" unicode="C" horiz-adv-x="549" 
d="M300 -12q-71 0 -124.5 33t-83 111.5t-29.5 216.5t29.5 217t83 111.5t124.5 32.5q80 0 125.5 -37t70.5 -102l-19 -9q-22 63 -64 95.5t-113 32.5q-99 0 -156 -72t-57 -230v-78q0 -158 57 -230t156 -72q77 0 118.5 34.5t62.5 101.5l19 -8q-22 -70 -69.5 -109t-130.5 -39z
" />
    <glyph glyph-name="D" unicode="D" horiz-adv-x="594" 
d="M97 0v698h193q81 0 134.5 -37t80 -114t26.5 -198q0 -120 -26.5 -197.5t-80 -114.5t-134.5 -37h-193zM119 20h172q75 0 122.5 36t70.5 101t23 153v78q0 88 -23 153t-70.5 101t-122.5 36h-172v-658z" />
    <glyph glyph-name="E" unicode="E" horiz-adv-x="506" 
d="M441 0h-344v698h344v-20h-322v-314h311v-20h-311v-324h322v-20z" />
    <glyph glyph-name="F" unicode="F" horiz-adv-x="482" 
d="M119 0h-22v698h337v-20h-315v-314h302v-20h-302v-344z" />
    <glyph glyph-name="G" unicode="G" horiz-adv-x="600" 
d="M507 0v114h-6q-19 -59 -66.5 -92.5t-127.5 -33.5q-74 0 -129 33t-85 111.5t-30 216.5t30 217t85 111.5t129 32.5q85 0 135.5 -37t75.5 -102l-19 -9q-24 61 -70.5 94.5t-121.5 33.5q-69 0 -118 -31.5t-75.5 -98t-26.5 -172.5v-78q0 -105 26.5 -172t75.5 -98.5t118 -31.5
q66 0 110.5 25t67 72t22.5 112v95h-158v20h180v-332h-22z" />
    <glyph glyph-name="H" unicode="H" horiz-adv-x="624" 
d="M505 0v344h-386v-344h-22v698h22v-334h386v334h22v-698h-22z" />
    <glyph glyph-name="I" unicode="I" horiz-adv-x="336" 
d="M275 0h-214v19h96v660h-96v19h214v-19h-96v-660h96v-19z" />
    <glyph glyph-name="J" unicode="J" horiz-adv-x="419" 
d="M86 698h244v-533q0 -58 -19 -97.5t-53.5 -59.5t-83.5 -20q-64 0 -101.5 33t-51.5 89l19 6q14 -51 46.5 -79.5t87.5 -28.5q67 0 100.5 41t33.5 116v513h-222v20z" />
    <glyph glyph-name="K" unicode="K" horiz-adv-x="517" 
d="M473 0l-235 388l-119 -151v-237h-22v698h22v-261v-164h4l130 164l216 261h26l-243 -294l247 -404h-26z" />
    <glyph glyph-name="L" unicode="L" horiz-adv-x="428" 
d="M410 0h-313v698h22v-678h291v-20z" />
    <glyph glyph-name="M" unicode="M" horiz-adv-x="718" 
d="M97 0v698h37l139 -260l85 -160h2l85 160l139 260h37v-698h-22v508v170h-4l-91 -170l-145 -272l-145 272l-91 169h-4v-169v-508h-22z" />
    <glyph glyph-name="N" unicode="N" horiz-adv-x="623" 
d="M489 0l-274 508l-92 170h-4v-170v-508h-22v698h38l274 -508l92 -170h4v170v508h22v-698h-38z" />
    <glyph glyph-name="O" unicode="O" horiz-adv-x="614" 
d="M307 -12q-74 0 -129 33t-85 111.5t-30 216.5t30 217t85 111.5t129 32.5t129 -32.5t85 -111.5t30 -217t-30 -216.5t-85 -111.5t-129 -33zM307 8q69 0 118 31.5t75.5 98.5t26.5 172v78q0 106 -26.5 172.5t-75.5 98t-118 31.5t-118 -31.5t-75.5 -98t-26.5 -172.5v-78
q0 -105 26.5 -172t75.5 -98.5t118 -31.5z" />
    <glyph glyph-name="P" unicode="P" horiz-adv-x="535" 
d="M119 0h-22v698h247q51 0 85 -21.5t50.5 -63.5t16.5 -103t-16.5 -103t-50.5 -63.5t-85 -21.5h-225v-322zM119 678v-336h225q44 0 72.5 18.5t42 50.5t13.5 70v58q0 39 -13.5 70.5t-42 50t-72.5 18.5h-225z" />
    <glyph glyph-name="Q" unicode="Q" horiz-adv-x="614" 
d="M413 -126v-20h-89q-15 0 -20.5 5.5t-5.5 20.5v108q-71 2 -124 36t-82 112t-29 213q0 138 30 217t85 111.5t129 32.5t129 -32.5t85 -111.5t30 -217q0 -134 -28.5 -212t-80 -112t-122.5 -37v-114h93zM307 8q69 0 118 31.5t75.5 98.5t26.5 172v78q0 106 -26.5 172.5
t-75.5 98t-118 31.5t-118 -31.5t-75.5 -98t-26.5 -172.5v-78q0 -105 26.5 -172t75.5 -98.5t118 -31.5z" />
    <glyph glyph-name="R" unicode="R" horiz-adv-x="567" 
d="M119 322v-322h-22v698h236q56 0 92 -21.5t53.5 -63.5t17.5 -103q0 -91 -39.5 -139.5t-120.5 -48.5l173 -322h-24l-171 322h-195zM119 342h216q45 0 75.5 16.5t46 48t15.5 74.5v58q0 44 -15.5 75t-46 47.5t-75.5 16.5h-216v-336z" />
    <glyph glyph-name="S" unicode="S" horiz-adv-x="494" 
d="M247 -12q-79 0 -126.5 32t-82.5 82l18 13q34 -49 76.5 -78t114.5 -29q84 0 128.5 40.5t44.5 125.5q0 47 -16 79.5t-48 54t-81 32.5l-63 15q-55 13 -90.5 34.5t-52 56.5t-16.5 87q0 62 24 101t67.5 57.5t102.5 18.5q73 0 115 -25.5t69 -68.5l-18 -13q-28 44 -64.5 65.5
t-101.5 21.5q-79 0 -125.5 -37.5t-46.5 -119.5q0 -47 14.5 -77.5t46.5 -49t82 -30.5l63 -15q56 -13 91.5 -36.5t52.5 -59.5t17 -89q0 -65 -23 -107t-66.5 -61.5t-105.5 -19.5z" />
    <glyph glyph-name="T" unicode="T" horiz-adv-x="504" 
d="M489 678h-226v-678h-22v678h-226v20h474v-20z" />
    <glyph glyph-name="U" unicode="U" horiz-adv-x="588" 
d="M90 698h22v-450q0 -87 16.5 -140t56.5 -76.5t109 -23.5q70 0 109.5 23.5t56 76.5t16.5 140v450h22v-448q0 -96 -19.5 -153.5t-64 -83t-120.5 -25.5t-120.5 25.5t-64 83t-19.5 153.5v448z" />
    <glyph glyph-name="V" unicode="V" horiz-adv-x="514" 
d="M277 0h-38l-212 698h24l140 -461l65 -217h4l65 217l138 461h24z" />
    <glyph glyph-name="W" unicode="W" horiz-adv-x="785" 
d="M226 0h-36l-163 698h24l105 -461l50 -217h4l53 217l111 461h36l113 -461l53 -217h4l50 217l105 461h24l-163 -698h-36l-113 461l-53 217h-4l-52 -217z" />
    <glyph glyph-name="X" unicode="X" horiz-adv-x="504" 
d="M25 0l214 354l-206 344h26l190 -319h6l190 319h26l-205 -341l213 -357h-26l-197 332h-6l-199 -332h-26z" />
    <glyph glyph-name="Y" unicode="Y" horiz-adv-x="493" 
d="M257 0h-22v294l-216 404h24l200 -374h6l200 374h24l-216 -404v-294z" />
    <glyph glyph-name="Z" unicode="Z" horiz-adv-x="500" 
d="M475 20v-20h-440v22l396 656h-376v20h400v-22l-396 -656h416z" />
    <glyph glyph-name="bracketleft" unicode="[" horiz-adv-x="271" 
d="M210 -138h-113v898h113v-18h-93v-862h93v-18z" />
    <glyph glyph-name="backslash" unicode="\" horiz-adv-x="284" 
d="M272 -151h-19l-215 891h19z" />
    <glyph glyph-name="bracketright" unicode="]" horiz-adv-x="271" 
d="M61 760h113v-898h-113v18h93v862h-93v18z" />
    <glyph glyph-name="asciicircum" unicode="^" 
d="M480 331l-18 -9l-190 354h-4l-190 -354l-18 9l198 367h24z" />
    <glyph glyph-name="underscore" unicode="_" horiz-adv-x="512" 
d="M485 -141h-458v18h458v-18z" />
    <glyph glyph-name="grave" unicode="`" 
d="M285 587l-103 152l19 12l99 -154z" />
    <glyph glyph-name="a" unicode="a" horiz-adv-x="468" 
d="M449 0h-73q-9 0 -14 2t-7 7t-2 14v65l10 -10h-16q-14 -40 -50.5 -65t-94.5 -25q-69 0 -108.5 35t-39.5 108q0 49 19 80.5t54.5 47t84.5 15.5h141v85q0 77 -33.5 108.5t-97.5 31.5q-50 0 -83.5 -21t-51.5 -74l-17 8q18 52 54 79t98 27q76 0 114 -38t38 -118v-343h75v-19z
M353 256h-141q-58 0 -96.5 -27.5t-38.5 -77.5v-39q0 -49 36 -77t89 -28q42 0 76 15.5t54.5 47t20.5 78.5v108z" />
    <glyph glyph-name="b" unicode="b" horiz-adv-x="509" 
d="M94 0v740h21v-310h6q14 40 51.5 64t92.5 24q61 0 103 -28t64.5 -86.5t22.5 -150.5t-22.5 -150.5t-64.5 -86.5t-103 -28q-55 0 -92.5 25t-51.5 65h-6v-78h-21zM265 7q80 0 123.5 56.5t43.5 155.5v68q0 99 -43.5 155.5t-123.5 56.5q-43 0 -77 -16.5t-53.5 -48t-19.5 -75.5
v-212q0 -44 19.5 -75.5t53.5 -48t77 -16.5z" />
    <glyph glyph-name="c" unicode="c" horiz-adv-x="439" 
d="M243 -12q-91 0 -140 63.5t-49 201.5t49 201.5t140 63.5q56 0 94 -24.5t58 -71.5l-18 -9q-21 45 -52.5 65.5t-81.5 20.5q-80 0 -123 -57t-43 -155v-68q0 -97 43 -154.5t123 -57.5q54 0 87.5 22.5t55.5 63.5l16 -11q-22 -43 -59.5 -68.5t-99.5 -25.5z" />
    <glyph glyph-name="d" unicode="d" horiz-adv-x="509" 
d="M394 0v78h-6q-14 -40 -51 -65t-93 -25q-60 0 -102.5 28t-65 86.5t-22.5 150.5t22.5 150.5t65 86.5t102.5 28q56 0 93 -24t51 -64h6v310h21v-740h-21zM244 7q43 0 77 16.5t53.5 48t19.5 75.5v212q0 44 -19.5 75.5t-53.5 48t-77 16.5q-80 0 -123.5 -56.5t-43.5 -155.5v-68
q0 -99 43.5 -155.5t123.5 -56.5z" />
    <glyph glyph-name="e" unicode="e" horiz-adv-x="480" 
d="M244 -12q-60 0 -102.5 28t-65 86.5t-22.5 150.5t22.5 150.5t65 86.5t102.5 28q61 0 101.5 -28.5t61 -84.5t20.5 -139v-10h-350v-37q0 -99 43.5 -155.5t123.5 -56.5q66 0 103.5 30.5t56.5 91.5l17 -7q-19 -67 -61 -100.5t-116 -33.5zM244 499q-53 0 -90.5 -25.5t-57 -73
t-19.5 -113.5v-13h327v13q0 66 -17.5 113.5t-53 73t-89.5 25.5z" />
    <glyph glyph-name="f" unicode="f" horiz-adv-x="258" 
d="M110 0v487h-85v19h85v207q0 15 6 21t21 6h99v-19h-105v-215h105v-19h-105v-487h-21z" />
    <glyph glyph-name="g" unicode="g" horiz-adv-x="474" 
d="M452 -64q0 -53 -23.5 -85.5t-71.5 -47.5t-121 -15q-69 0 -111 15.5t-61 45t-19 71.5q0 50 23.5 76.5t64.5 38.5v6q-23 6 -35 25t-12 44q0 32 22.5 54.5t53.5 24.5v6q-39 17 -60.5 56t-21.5 98q0 56 19 93.5t54.5 56.5t83.5 19q30 0 55 -7.5t44 -21.5v49q0 14 5 18.5
t18 4.5h94v-19h-99v-69q20 -21 30 -52t10 -72q0 -56 -19 -93.5t-54 -56.5t-84 -19q-14 0 -27 1.5t-25 4.5q-39 -10 -59 -28t-20 -47q0 -28 17.5 -43t60.5 -15h122q78 0 112 -30t34 -87zM430 -64q0 49 -27 73t-99 24h-143q-41 -12 -68 -36.5t-27 -77.5q0 -54 38 -83t108 -29
h49q82 0 125.5 31t43.5 98zM237 199q65 0 99.5 36t34.5 91v46q0 56 -34.5 91.5t-99.5 35.5t-99.5 -35.5t-34.5 -91.5v-46q0 -55 34.5 -91t99.5 -36z" />
    <glyph glyph-name="h" unicode="h" horiz-adv-x="501" 
d="M94 0v740h21v-310h6q13 38 52.5 63t94.5 25q71 0 109.5 -43.5t38.5 -122.5v-352h-21v352q0 69 -33 108t-95 39q-40 0 -75 -16.5t-56 -48t-21 -75.5v-359h-21z" />
    <glyph glyph-name="i" unicode="i" horiz-adv-x="209" 
d="M105 673q-12 0 -17 6t-5 14v9q0 8 5 14t17 6t16.5 -6t4.5 -14v-9q0 -8 -4.5 -14t-16.5 -6zM94 0v506h21v-506h-21z" />
    <glyph glyph-name="j" unicode="j" horiz-adv-x="209" 
d="M94 -181v687h21v-679q0 -15 -6 -21t-21 -6h-71v19h77zM105 673q-12 0 -17 6t-5 14v9q0 8 5 14t17 6t16.5 -6t4.5 -14v-9q0 -8 -4.5 -14t-16.5 -6z" />
    <glyph glyph-name="k" unicode="k" horiz-adv-x="442" 
d="M94 0v740h21v-441v-77h4l70 77l186 207h26l-192 -215l216 -291h-26l-205 277l-79 -87v-190h-21z" />
    <glyph glyph-name="l" unicode="l" horiz-adv-x="227" 
d="M191 0h-70q-15 0 -21 6t-6 21v713h21v-721h76v-19z" />
    <glyph glyph-name="m" unicode="m" horiz-adv-x="791" 
d="M115 0h-21v506h21v-76h6q13 38 50 63t92 25q53 0 89 -27t49 -76h6q12 50 55.5 76.5t95.5 26.5q70 0 108.5 -43.5t38.5 -122.5v-352h-21v352q0 69 -33.5 108t-93.5 39q-40 0 -73.5 -16.5t-53.5 -48t-20 -75.5v-359h-21v352q0 69 -33.5 108t-93.5 39q-40 0 -73.5 -16.5
t-53.5 -48t-20 -75.5v-359z" />
    <glyph glyph-name="n" unicode="n" horiz-adv-x="501" 
d="M115 0h-21v506h21v-76h6q13 38 52.5 63t94.5 25q71 0 109.5 -43.5t38.5 -122.5v-352h-21v352q0 69 -33 108t-95 39q-40 0 -75 -16.5t-56 -48t-21 -75.5v-359z" />
    <glyph glyph-name="o" unicode="o" horiz-adv-x="488" 
d="M244 -12q-60 0 -102.5 28t-65 86.5t-22.5 150.5t22.5 150.5t65 86.5t102.5 28q61 0 103 -28t64.5 -86.5t22.5 -150.5t-22.5 -150.5t-64.5 -86.5t-103 -28zM244 7q80 0 123.5 56.5t43.5 155.5v68q0 99 -43.5 155.5t-123.5 56.5t-123.5 -56.5t-43.5 -155.5v-68
q0 -99 43.5 -155.5t123.5 -56.5z" />
    <glyph glyph-name="p" unicode="p" horiz-adv-x="509" 
d="M94 -200v706h21v-76h6q14 40 51.5 64t92.5 24q61 0 103 -28t64.5 -86.5t22.5 -150.5t-22.5 -150.5t-64.5 -86.5t-103 -28q-55 0 -92.5 25t-51.5 65h-6v-278h-21zM265 7q80 0 123.5 56.5t43.5 155.5v68q0 99 -43.5 155.5t-123.5 56.5q-43 0 -77 -16.5t-53.5 -48
t-19.5 -75.5v-212q0 -44 19.5 -75.5t53.5 -48t77 -16.5z" />
    <glyph glyph-name="q" unicode="q" horiz-adv-x="509" 
d="M394 -200v278h-6q-14 -40 -51 -65t-93 -25q-60 0 -102.5 28t-65 86.5t-22.5 150.5t22.5 150.5t65 86.5t102.5 28q56 0 93 -24t51 -64h6v76h21v-706h-21zM244 7q43 0 77 16.5t53.5 48t19.5 75.5v212q0 44 -19.5 75.5t-53.5 48t-77 16.5q-80 0 -123.5 -56.5t-43.5 -155.5
v-68q0 -99 43.5 -155.5t123.5 -56.5z" />
    <glyph glyph-name="r" unicode="r" horiz-adv-x="308" 
d="M115 0h-21v506h21v-88h6q10 27 29 47t46 30.5t61 10.5h39v-19h-39q-38 0 -70.5 -17.5t-52 -49t-19.5 -72.5v-348z" />
    <glyph glyph-name="s" unicode="s" horiz-adv-x="417" 
d="M208 -12q-54 0 -93 21t-71 70l17 12q31 -47 64.5 -65.5t82.5 -18.5q64 0 99 29t35 89q0 56 -27 83t-85 37l-41 7q-42 7 -71.5 23t-44.5 43.5t-15 70.5q0 64 41.5 96.5t106.5 32.5q39 0 67 -9.5t47.5 -25.5t34.5 -36l-16 -14q-21 29 -50 47.5t-82 18.5q-57 0 -92 -27
t-35 -82t27 -81.5t86 -36.5l41 -7q63 -10 96.5 -41.5t33.5 -97.5q0 -46 -19 -76.5t-54 -46t-83 -15.5z" />
    <glyph glyph-name="t" unicode="t" horiz-adv-x="280" 
d="M233 0h-94q-15 0 -21 6t-6 21v460h-85v19h64q13 0 17 5.5t4 18.5v120h21v-144h105v-19h-105v-468h100v-19z" />
    <glyph glyph-name="u" unicode="u" horiz-adv-x="501" 
d="M395 0v76h-6q-13 -37 -52 -62.5t-95 -25.5q-72 0 -110 43t-38 123v352h21v-352q0 -69 33.5 -108t94.5 -39q41 0 75.5 16.5t55.5 48t21 75.5v359h21v-506h-21z" />
    <glyph glyph-name="v" unicode="v" horiz-adv-x="408" 
d="M221 0h-34l-165 506h22l105 -322l53 -165h4l53 165l105 322h22z" />
    <glyph glyph-name="w" unicode="w" horiz-adv-x="654" 
d="M165 0l-134 506h22l85 -322l43 -164h4l42 164l82 322h36l83 -322l42 -164h4l43 164l85 322h22l-134 -506h-36l-83 322l-42 164h-4l-42 -164l-82 -322h-36z" />
    <glyph glyph-name="x" unicode="x" horiz-adv-x="424" 
d="M30 0l169 255l-164 251h24l150 -232h6l151 232h24l-165 -251l169 -255h-24l-155 236h-6l-155 -236h-24z" />
    <glyph glyph-name="y" unicode="y" horiz-adv-x="408" 
d="M259 184l105 322h22l-224 -687q-2 -7 -5.5 -11t-8 -6t-12.5 -2h-84v19h89l52 162l-171 525h22l105 -322l53 -165h4z" />
    <glyph glyph-name="z" unicode="z" horiz-adv-x="377" 
d="M358 0h-333v21l303 466h-295v19h317v-21l-302 -466h310v-19z" />
    <glyph glyph-name="braceleft" unicode="{" horiz-adv-x="285" 
d="M224 -138h-91q-13 0 -18 5t-5 19v325q0 45 -18 60.5t-61 15.5v48q43 0 61 15.5t18 60.5v325q0 14 5 19t18 5h91v-18h-94v-331q0 -31 -8.5 -51.5t-26 -30.5t-46.5 -10v-16q29 0 46.5 -10t26 -30.5t8.5 -51.5v-331h94v-18z" />
    <glyph glyph-name="bar" unicode="|" horiz-adv-x="216" 
d="M118 -138h-20v898h20v-898z" />
    <glyph glyph-name="braceright" unicode="}" horiz-adv-x="285" 
d="M61 760h91q13 0 18 -5t5 -19v-325q0 -45 18 -60.5t61 -15.5v-48q-43 0 -61 -15.5t-18 -60.5v-325q0 -14 -5 -19t-18 -5h-91v18h94v331q0 31 8.5 51.5t26.5 30.5t46 10v16q-28 0 -46 10t-26.5 30.5t-8.5 51.5v331h-94v18z" />
    <glyph glyph-name="asciitilde" unicode="~" 
d="M381 256q-25 0 -50 9t-67 30q-38 20 -60 28.5t-46 8.5q-28 0 -47.5 -9.5t-39.5 -32.5l-13 14q22 25 45.5 36.5t55.5 11.5q26 0 50.5 -9t66.5 -30q38 -19 60 -28t46 -9q28 0 47.5 10t39.5 32l13 -14q-22 -25 -45.5 -36.5t-55.5 -11.5z" />
    <glyph glyph-name="uni00A0" unicode="&#xa0;" horiz-adv-x="212" 
 />
    <glyph glyph-name="exclamdown" unicode="&#xa1;" horiz-adv-x="228" 
d="M125 -192h-22v283l5 239h12l5 -239v-283zM114 455q-13 0 -19.5 6t-6.5 18v8q0 12 6.5 18t19.5 6t19.5 -6t6.5 -18v-8q0 -12 -6.5 -18t-19.5 -6z" />
    <glyph glyph-name="cent" unicode="&#xa2;" horiz-adv-x="448" 
d="M249 -114h-20v102q-84 5 -129.5 68.5t-45.5 196.5t45.5 196.5t129.5 68.5v102h20v-102q54 -1 90.5 -26t55.5 -70l-18 -9q-21 45 -51.5 65.5t-76.5 20.5v-492q51 2 83.5 24t53.5 62l16 -11q-22 -43 -59 -68.5t-94 -25.5v-102zM77 219q0 -93 39.5 -149.5t112.5 -61.5v491
q-73 -5 -112.5 -62t-39.5 -150v-68z" />
    <glyph glyph-name="sterling" unicode="&#xa3;" horiz-adv-x="522" 
d="M462 0h-387v25q38 29 61.5 75.5t23.5 119.5q0 25 -3.5 47.5t-9.5 43.5h-84v20h78q-13 44 -27 86.5t-14 92.5q0 68 22 112t63.5 66t99.5 22q68 0 112 -28.5t69 -77.5l-18 -10q-25 45 -63.5 70.5t-98.5 25.5q-79 0 -121.5 -44t-42.5 -136q0 -49 14.5 -92t27.5 -87h196v-20
h-191q6 -21 9.5 -43t3.5 -47q0 -67 -22.5 -118t-66.5 -77v-6h369v-20z" />
    <glyph glyph-name="currency" unicode="&#xa4;" horiz-adv-x="550" 
d="M275 129q-34 0 -61 8.5t-50 24.5l-91 -115l-18 13l92 117q-27 27 -41 70.5t-14 101.5q0 59 14 102t41 70l-92 117l18 13l91 -115q23 17 50 25t61 8t61.5 -8t49.5 -25l91 115l18 -13l-92 -117q27 -27 41 -70t14 -102q0 -58 -14 -101.5t-41 -70.5l92 -117l-18 -13l-91 115
q-22 -16 -49.5 -24.5t-61.5 -8.5zM275 148q77 0 118.5 49t41.5 133v38q0 84 -41.5 133t-118.5 49q-76 0 -118 -49t-42 -133v-38q0 -84 42 -133t118 -49z" />
    <glyph glyph-name="yen" unicode="&#xa5;" horiz-adv-x="523" 
d="M448 168h-176v-168h-22v168h-176v18h176v142h-176v18h164l-194 352h24l190 -344h6l190 344h24l-194 -352h164v-18h-176v-142h176v-18z" />
    <glyph glyph-name="brokenbar" unicode="&#xa6;" horiz-adv-x="216" 
d="M118 401h-20v359h20v-359zM118 -138h-20v359h20v-359z" />
    <glyph glyph-name="section" unicode="&#xa7;" horiz-adv-x="508" 
d="M399 -13q0 -52 -21 -83t-56.5 -44.5t-79.5 -13.5q-52 0 -84.5 15.5t-54.5 38.5l13 15q20 -21 49.5 -35.5t77.5 -14.5q63 0 99 28t36 94q0 37 -15 61.5t-40.5 40t-55.5 26.5l-60 22q-45 17 -74 36t-42.5 48.5t-13.5 75.5q0 56 27 93t72 53v6q-31 20 -49 50t-18 70
q0 53 21 83.5t57 44t79 13.5q53 0 85 -15.5t54 -38.5l-13 -15q-20 21 -49 35.5t-78 14.5q-63 0 -99 -28t-36 -94q0 -37 15.5 -61.5t41 -40t54.5 -26.5l60 -22q45 -16 74 -35.5t42.5 -49t13.5 -75.5q0 -56 -26.5 -92.5t-72.5 -53.5v-6q32 -19 49.5 -49t17.5 -71zM410 258
q0 40 -11.5 66t-37 43.5t-68.5 33.5l-59 22q-11 5 -20.5 8.5t-20.5 8.5q-43 -19 -69 -53.5t-26 -88.5q0 -60 26.5 -90t90.5 -53l60 -22q11 -4 20.5 -8t20.5 -9q43 20 68.5 54t25.5 88z" />
    <glyph glyph-name="dieresis" unicode="&#xa8;" 
d="M195 642q-13 0 -18 6.5t-5 14.5v7q0 8 5 14.5t18 6.5t18 -6.5t5 -14.5v-7q0 -8 -5 -14.5t-18 -6.5zM345 642q-13 0 -18 6.5t-5 14.5v7q0 8 5 14.5t18 6.5t18 -6.5t5 -14.5v-7q0 -8 -5 -14.5t-18 -6.5z" />
    <glyph glyph-name="copyright" unicode="&#xa9;" horiz-adv-x="640" 
d="M320 -12q-91 0 -156.5 42.5t-101 123.5t-35.5 195q0 115 35.5 195.5t101 123t156.5 42.5t156.5 -42.5t101 -123t35.5 -195.5q0 -114 -35.5 -195t-101 -123.5t-156.5 -42.5zM320 6q85 0 145 39.5t92.5 109.5t32.5 161v66q0 92 -32.5 161.5t-92.5 109t-145 39.5
q-84 0 -144.5 -39.5t-93 -109t-32.5 -161.5v-66q0 -91 32.5 -161t93 -109.5t144.5 -39.5zM318 149q-65 0 -101 48.5t-36 148.5t36 148.5t101 48.5q49 0 75.5 -22.5t36.5 -55.5l-16 -5q-10 31 -32.5 48.5t-63.5 17.5q-55 0 -85 -41t-30 -125v-28q0 -84 30 -125t85 -41
q40 0 64.5 18t36.5 49l15 -7q-12 -33 -41 -55t-75 -22z" />
    <glyph glyph-name="ordfeminine" unicode="&#xaa;" horiz-adv-x="319" 
d="M297 383v-17h-44q-9 0 -13 4t-4 13v41l10 -10h-15q-10 -22 -32 -38t-65 -16q-48 0 -73 22.5t-25 64.5q0 46 25.5 70.5t89.5 24.5h85v56q0 45 -21 67t-65 22q-33 0 -55.5 -13t-34.5 -43l-15 8q12 30 37 47.5t68 17.5q53 0 79 -27t26 -76v-218h42zM236 526h-86
q-51 0 -72 -17.5t-21 -50.5v-21q0 -31 21 -45.5t57 -14.5q42 0 71.5 20t29.5 63v66z" />
    <glyph glyph-name="guillemotleft" unicode="&#xab;" horiz-adv-x="426" 
d="M229 131l-10 -15l-188 168v20l187 168l10 -15l-172 -161v-4zM392 131l-10 -15l-188 168v20l187 168l10 -15l-172 -161v-4z" />
    <glyph glyph-name="logicalnot" unicode="&#xac;" 
d="M484 104h-21v192h-407v19h428v-211z" />
    <glyph glyph-name="uni00AD" unicode="&#xad;" horiz-adv-x="0" 
 />
    <glyph glyph-name="registered" unicode="&#xae;" horiz-adv-x="420" 
d="M210 298q-52 0 -92.5 24t-63.5 70t-23 112t23 112t63.5 70t92.5 24q53 0 93 -24t63 -70t23 -112t-23 -112t-63 -70t-93 -24zM210 314q47 0 83 21t56 59t20 90v40q0 52 -20 90t-56 59t-83 21t-83 -21t-56 -59t-20 -90v-40q0 -52 20 -90t56 -59t83 -21zM166 488v-91h-16
v212h74q29 0 43 -12t14 -50q0 -31 -11 -44t-32 -14l49 -92h-19l-46 91h-56zM166 503h57q22 0 31.5 8t9.5 29v17q0 21 -9.5 29t-31.5 8h-57v-91z" />
    <glyph glyph-name="macron" unicode="&#xaf;" 
d="M157 658v18h226v-18h-226z" />
    <glyph glyph-name="degree" unicode="&#xb0;" horiz-adv-x="419" 
d="M210 396q-43 0 -76.5 18.5t-53 54t-19.5 84.5q0 50 19.5 85t53 53.5t76.5 18.5t76.5 -18.5t53 -54t19.5 -84.5t-19.5 -84.5t-53 -54t-76.5 -18.5zM210 415q39 0 67.5 16.5t44.5 47.5t16 75q0 42 -16 73t-44.5 47.5t-67.5 16.5q-38 0 -67 -16.5t-45 -47.5t-16 -74t16 -74
t45 -47.5t67 -16.5z" />
    <glyph glyph-name="plusminus" unicode="&#xb1;" 
d="M281 137h-21v212h-204v19h204v212h21v-212h203v-19h-203v-212zM483 0h-427v19h427v-19z" />
    <glyph glyph-name="twosuperior" unicode="&#xb2;" horiz-adv-x="320" 
d="M274 346v-17h-230v20l128 117q37 33 54.5 62t17.5 56v26q0 33 -20.5 55t-63.5 22q-48 0 -69.5 -21.5t-32.5 -56.5l-16 5q11 37 37 63.5t81 26.5q50 0 77 -27t27 -78q0 -43 -19.5 -75t-61.5 -70l-119 -108h210z" />
    <glyph glyph-name="threesuperior" unicode="&#xb3;" horiz-adv-x="320" 
d="M107 529h41q50 0 70 19t20 53v20q0 30 -20 48t-61 18q-38 0 -57.5 -12t-33.5 -34l-14 10q14 23 38.5 38t66.5 15q49 0 75 -23.5t26 -71.5q0 -37 -20 -59.5t-52 -26.5v-4q38 -1 58 -25.5t20 -62.5q0 -54 -28.5 -81t-83.5 -27q-45 0 -69.5 16.5t-40.5 39.5l14 11
q16 -22 36 -36t60 -14q47 0 69.5 21t22.5 59v20q0 35 -20 53.5t-70 18.5h-47v17z" />
    <glyph glyph-name="acute" unicode="&#xb4;" 
d="M358 739l-103 -152l-15 10l99 154z" />
    <glyph glyph-name="mu" unicode="&#xb5;" horiz-adv-x="510" 
d="M115 -200h-21v706h21v-352q0 -69 33.5 -108t94.5 -39q41 0 75.5 16.5t55.5 48t21 75.5v359h21v-506h-21v76h-6q-13 -37 -52 -62.5t-95 -25.5q-46 0 -79.5 23t-46.5 59h-6l5 -124v-146z" />
    <glyph glyph-name="paragraph" unicode="&#xb6;" horiz-adv-x="534" 
d="M225 -149v479q-53 0 -93.5 20t-63 61t-22.5 103q0 63 22.5 103.5t63 60.5t93.5 20h221v-18h-62v-829h-21v829h-116v-829h-22z" />
    <glyph glyph-name="periodcentered" unicode="&#xb7;" horiz-adv-x="270" 
d="M135 278q-13 0 -19.5 6t-6.5 18v8q0 12 6.5 18t19.5 6t19.5 -6t6.5 -18v-8q0 -12 -6.5 -18t-19.5 -6z" />
    <glyph glyph-name="cedilla" unicode="&#xb8;" 
d="M279 -202q-26 0 -45.5 9.5t-27.5 22.5l12 12q10 -13 24.5 -19.5t36.5 -6.5q26 0 40.5 13.5t14.5 35.5q0 23 -14.5 36t-40.5 13h-37l20 88h17l-17 -80h4q5 3 11 4.5t13 1.5q28 0 46 -15.5t18 -47.5q0 -19 -8.5 -34.5t-25 -24t-41.5 -8.5z" />
    <glyph glyph-name="onesuperior" unicode="&#xb9;" horiz-adv-x="320" 
d="M286 329h-239v17h115v337h-4l-111 -93l-11 12l114 96h31v-352h105v-17z" />
    <glyph glyph-name="ordmasculine" unicode="&#xba;" horiz-adv-x="331" 
d="M165 360q-61 0 -92.5 43.5t-31.5 128.5q0 86 31.5 129t92.5 43q62 0 93 -43t31 -129q0 -85 -31 -128.5t-93 -43.5zM165 377q50 0 76.5 34t26.5 95v52q0 62 -26.5 95.5t-76.5 33.5q-49 0 -76 -33.5t-27 -95.5v-52q0 -61 27 -95t76 -34z" />
    <glyph glyph-name="guillemotright" unicode="&#xbb;" horiz-adv-x="426" 
d="M35 131l172 161v4l-173 161l10 15l188 -168v-20l-187 -168zM198 131l172 161v4l-173 161l10 15l188 -168v-20l-187 -168z" />
    <glyph glyph-name="onequarter" unicode="&#xbc;" horiz-adv-x="725" 
d="M286 329h-239v17h115v337h-4l-111 -93l-11 12l114 96h31v-352h105v-17zM194 0h-22l404 698h22zM636 0h-18v89h-191v19l179 261h30v-263h59v-17h-59v-89zM618 106v246h-4l-168 -246h172z" />
    <glyph glyph-name="onehalf" unicode="&#xbd;" horiz-adv-x="760" 
d="M286 329h-239v17h115v337h-4l-111 -93l-11 12l114 96h31v-352h105v-17zM194 0h-22l404 698h22zM714 17v-17h-230v20l128 117q37 33 54.5 62t17.5 56v26q0 33 -20.5 55t-63.5 22q-48 0 -69.5 -21.5t-32.5 -56.5l-16 5q11 37 37 63.5t81 26.5q50 0 77 -27t27 -78
q0 -43 -19.5 -75t-61.5 -70l-119 -108h210z" />
    <glyph glyph-name="threequarters" unicode="&#xbe;" horiz-adv-x="715" 
d="M107 529h41q50 0 70 19t20 53v20q0 30 -20 48t-61 18q-38 0 -57.5 -12t-33.5 -34l-14 10q14 23 38.5 38t66.5 15q49 0 75 -23.5t26 -71.5q0 -37 -20 -59.5t-52 -26.5v-4q38 -1 58 -25.5t20 -62.5q0 -54 -28.5 -81t-83.5 -27q-45 0 -69.5 16.5t-40.5 39.5l14 11
q16 -22 36 -36t60 -14q47 0 69.5 21t22.5 59v20q0 35 -20 53.5t-70 18.5h-47v17zM184 0h-22l404 698h22zM626 0h-18v89h-191v19l179 261h30v-263h59v-17h-59v-89zM608 106v246h-4l-168 -246h172z" />
    <glyph glyph-name="questiondown" unicode="&#xbf;" horiz-adv-x="411" 
d="M201 -204q-53 0 -91 20t-57.5 60t-19.5 98q0 63 20.5 105t61 65.5t99.5 30.5v155h22v-173q-91 -4 -135.5 -46.5t-44.5 -115.5v-38q0 -66 37 -104t108 -38q69 0 106 34t53 99l20 -5q-12 -47 -34.5 -80t-58 -50t-86.5 -17zM225 455q-13 0 -19.5 6t-6.5 18v8q0 12 6.5 18
t19.5 6t19.5 -6t6.5 -18v-8q0 -12 -6.5 -18t-19.5 -6z" />
    <glyph glyph-name="Agrave" unicode="&#xc0;" horiz-adv-x="542" 
d="M515 0h-24l-76 234h-288l-76 -234h-24l226 698h36zM408 253l-87 274l-48 151h-4l-48 -151l-87 -274h274zM286 767l-103 152l19 12l99 -154z" />
    <glyph glyph-name="Aacute" unicode="&#xc1;" horiz-adv-x="542" 
d="M515 0h-24l-76 234h-288l-76 -234h-24l226 698h36zM408 253l-87 274l-48 151h-4l-48 -151l-87 -274h274zM359 919l-103 -152l-15 10l99 154z" />
    <glyph glyph-name="Acircumflex" unicode="&#xc2;" horiz-adv-x="542" 
d="M515 0h-24l-76 234h-288l-76 -234h-24l226 698h36zM408 253l-87 274l-48 151h-4l-48 -151l-87 -274h274zM259 923h24l100 -133l-14 -11l-98 127l-98 -127l-14 11z" />
    <glyph glyph-name="Atilde" unicode="&#xc3;" horiz-adv-x="542" 
d="M515 0h-24l-76 234h-288l-76 -234h-24l226 698h36zM408 253l-87 274l-48 151h-4l-48 -151l-87 -274h274zM335 808q-16 0 -31 7t-38 23q-19 14 -33 20t-27 6q-16 0 -30 -8t-28 -25l-12 13q17 20 34 29t36 9q16 0 31.5 -6.5t37.5 -23.5q20 -14 33.5 -20t26.5 -6
q17 0 30.5 8.5t27.5 24.5l12 -13q-16 -20 -33 -29t-37 -9z" />
    <glyph glyph-name="Adieresis" unicode="&#xc4;" horiz-adv-x="542" 
d="M515 0h-24l-76 234h-288l-76 -234h-24l226 698h36zM408 253l-87 274l-48 151h-4l-48 -151l-87 -274h274zM196 819q-13 0 -18 6.5t-5 14.5v7q0 8 5 14.5t18 6.5t18 -6.5t5 -14.5v-7q0 -8 -5 -14.5t-18 -6.5zM346 819q-13 0 -18 6.5t-5 14.5v7q0 8 5 14.5t18 6.5t18 -6.5
t5 -14.5v-7q0 -8 -5 -14.5t-18 -6.5z" />
    <glyph glyph-name="Aring" unicode="&#xc5;" horiz-adv-x="542" 
d="M515 0h-24l-76 234h-288l-76 -234h-24l226 698h36zM408 253l-87 274l-48 151h-4l-48 -151l-87 -274h274zM271 769q-26 0 -45.5 11.5t-30 32t-10.5 47.5t10.5 47.5t30 32t45.5 11.5t45.5 -11.5t30 -32t10.5 -47.5t-10.5 -47.5t-30 -32t-45.5 -11.5zM271 787
q31 0 48.5 18.5t17.5 49.5v10q0 31 -17.5 49.5t-48.5 18.5t-48.5 -18.5t-17.5 -49.5v-10q0 -31 17.5 -49.5t48.5 -18.5z" />
    <glyph glyph-name="AE" unicode="&#xc6;" horiz-adv-x="777" 
d="M368 0v234h-227l-115 -234h-24l344 698h366v-20h-322v-314h311v-20h-311v-324h322v-20h-344zM368 678h-8l-209 -425h217v425z" />
    <glyph glyph-name="Ccedilla" unicode="&#xc7;" horiz-adv-x="549" 
d="M300 690q-99 0 -156 -72t-57 -230v-78q0 -158 57 -230t156 -72q77 0 118.5 34.5t62.5 101.5l19 -8q-22 -70 -69.5 -109t-128.5 -39l-14 -66h4q5 3 11 4.5t13 1.5q28 0 46 -15.5t18 -47.5q0 -19 -8.5 -34.5t-25 -24t-41.5 -8.5q-26 0 -45.5 9.5t-27.5 22.5l12 12
q10 -13 24.5 -19.5t36.5 -6.5q26 0 40.5 13.5t14.5 35.5q0 23 -14.5 36t-40.5 13h-37l17 74q-67 3 -117 37.5t-77.5 112.5t-27.5 211q0 138 29.5 217t83 111.5t124.5 32.5q80 0 125.5 -37t70.5 -102l-19 -9q-22 63 -64 95.5t-113 32.5z" />
    <glyph glyph-name="Egrave" unicode="&#xc8;" horiz-adv-x="506" 
d="M441 0h-344v698h344v-20h-322v-314h311v-20h-311v-324h322v-20zM284 767l-103 152l19 12l99 -154z" />
    <glyph glyph-name="Eacute" unicode="&#xc9;" horiz-adv-x="506" 
d="M441 0h-344v698h344v-20h-322v-314h311v-20h-311v-324h322v-20zM357 919l-103 -152l-15 10l99 154z" />
    <glyph glyph-name="Ecircumflex" unicode="&#xca;" horiz-adv-x="506" 
d="M441 0h-344v698h344v-20h-322v-314h311v-20h-311v-324h322v-20zM257 923h24l100 -133l-14 -11l-98 127l-98 -127l-14 11z" />
    <glyph glyph-name="Edieresis" unicode="&#xcb;" horiz-adv-x="506" 
d="M441 0h-344v698h344v-20h-322v-314h311v-20h-311v-324h322v-20zM194 819q-13 0 -18 6.5t-5 14.5v7q0 8 5 14.5t18 6.5t18 -6.5t5 -14.5v-7q0 -8 -5 -14.5t-18 -6.5zM344 819q-13 0 -18 6.5t-5 14.5v7q0 8 5 14.5t18 6.5t18 -6.5t5 -14.5v-7q0 -8 -5 -14.5t-18 -6.5z" />
    <glyph glyph-name="Igrave" unicode="&#xcc;" horiz-adv-x="336" 
d="M275 0h-214v19h96v660h-96v19h214v-19h-96v-660h96v-19zM182 767l-103 152l19 12l99 -154z" />
    <glyph glyph-name="Iacute" unicode="&#xcd;" horiz-adv-x="336" 
d="M275 0h-214v19h96v660h-96v19h214v-19h-96v-660h96v-19zM255 919l-103 -152l-15 10l99 154z" />
    <glyph glyph-name="Icircumflex" unicode="&#xce;" horiz-adv-x="336" 
d="M275 0h-214v19h96v660h-96v19h214v-19h-96v-660h96v-19zM155 923h24l100 -133l-14 -11l-98 127l-98 -127l-14 11z" />
    <glyph glyph-name="Idieresis" unicode="&#xcf;" horiz-adv-x="336" 
d="M275 0h-214v19h96v660h-96v19h214v-19h-96v-660h96v-19zM92 819q-13 0 -18 6.5t-5 14.5v7q0 8 5 14.5t18 6.5t18 -6.5t5 -14.5v-7q0 -8 -5 -14.5t-18 -6.5zM242 819q-13 0 -18 6.5t-5 14.5v7q0 8 5 14.5t18 6.5t18 -6.5t5 -14.5v-7q0 -8 -5 -14.5t-18 -6.5z" />
    <glyph glyph-name="Eth" unicode="&#xd0;" horiz-adv-x="594" 
d="M97 0v355h-72v18h72v325h193q81 0 134.5 -37t80 -114t26.5 -198q0 -120 -26.5 -197.5t-80 -114.5t-134.5 -37h-193zM119 20h172q75 0 122.5 36t70.5 101t23 153v78q0 88 -23 153t-70.5 101t-122.5 36h-172v-305h156v-18h-156v-335z" />
    <glyph glyph-name="Ntilde" unicode="&#xd1;" horiz-adv-x="623" 
d="M489 0l-274 508l-92 170h-4v-170v-508h-22v698h38l274 -508l92 -170h4v170v508h22v-698h-38zM376 808q-16 0 -31 7t-38 23q-19 14 -33 20t-27 6q-16 0 -30 -8t-28 -25l-12 13q17 20 34 29t36 9q16 0 31.5 -6.5t37.5 -23.5q20 -14 33.5 -20t26.5 -6q17 0 30.5 8.5
t27.5 24.5l12 -13q-16 -20 -33 -29t-37 -9z" />
    <glyph glyph-name="Ograve" unicode="&#xd2;" horiz-adv-x="614" 
d="M307 -12q-74 0 -129 33t-85 111.5t-30 216.5t30 217t85 111.5t129 32.5t129 -32.5t85 -111.5t30 -217t-30 -216.5t-85 -111.5t-129 -33zM307 8q69 0 118 31.5t75.5 98.5t26.5 172v78q0 106 -26.5 172.5t-75.5 98t-118 31.5t-118 -31.5t-75.5 -98t-26.5 -172.5v-78
q0 -105 26.5 -172t75.5 -98.5t118 -31.5zM322 767l-103 152l19 12l99 -154z" />
    <glyph glyph-name="Oacute" unicode="&#xd3;" horiz-adv-x="614" 
d="M307 -12q-74 0 -129 33t-85 111.5t-30 216.5t30 217t85 111.5t129 32.5t129 -32.5t85 -111.5t30 -217t-30 -216.5t-85 -111.5t-129 -33zM307 8q69 0 118 31.5t75.5 98.5t26.5 172v78q0 106 -26.5 172.5t-75.5 98t-118 31.5t-118 -31.5t-75.5 -98t-26.5 -172.5v-78
q0 -105 26.5 -172t75.5 -98.5t118 -31.5zM395 919l-103 -152l-15 10l99 154z" />
    <glyph glyph-name="Ocircumflex" unicode="&#xd4;" horiz-adv-x="614" 
d="M307 -12q-74 0 -129 33t-85 111.5t-30 216.5t30 217t85 111.5t129 32.5t129 -32.5t85 -111.5t30 -217t-30 -216.5t-85 -111.5t-129 -33zM307 8q69 0 118 31.5t75.5 98.5t26.5 172v78q0 106 -26.5 172.5t-75.5 98t-118 31.5t-118 -31.5t-75.5 -98t-26.5 -172.5v-78
q0 -105 26.5 -172t75.5 -98.5t118 -31.5zM295 923h24l100 -133l-14 -11l-98 127l-98 -127l-14 11z" />
    <glyph glyph-name="Otilde" unicode="&#xd5;" horiz-adv-x="614" 
d="M307 -12q-74 0 -129 33t-85 111.5t-30 216.5t30 217t85 111.5t129 32.5t129 -32.5t85 -111.5t30 -217t-30 -216.5t-85 -111.5t-129 -33zM307 8q69 0 118 31.5t75.5 98.5t26.5 172v78q0 106 -26.5 172.5t-75.5 98t-118 31.5t-118 -31.5t-75.5 -98t-26.5 -172.5v-78
q0 -105 26.5 -172t75.5 -98.5t118 -31.5zM371 808q-16 0 -31 7t-38 23q-19 14 -33 20t-27 6q-16 0 -30 -8t-28 -25l-12 13q17 20 34 29t36 9q16 0 31.5 -6.5t37.5 -23.5q20 -14 33.5 -20t26.5 -6q17 0 30.5 8.5t27.5 24.5l12 -13q-16 -20 -33 -29t-37 -9z" />
    <glyph glyph-name="Odieresis" unicode="&#xd6;" horiz-adv-x="614" 
d="M307 -12q-74 0 -129 33t-85 111.5t-30 216.5t30 217t85 111.5t129 32.5t129 -32.5t85 -111.5t30 -217t-30 -216.5t-85 -111.5t-129 -33zM307 8q69 0 118 31.5t75.5 98.5t26.5 172v78q0 106 -26.5 172.5t-75.5 98t-118 31.5t-118 -31.5t-75.5 -98t-26.5 -172.5v-78
q0 -105 26.5 -172t75.5 -98.5t118 -31.5zM232 819q-13 0 -18 6.5t-5 14.5v7q0 8 5 14.5t18 6.5t18 -6.5t5 -14.5v-7q0 -8 -5 -14.5t-18 -6.5zM382 819q-13 0 -18 6.5t-5 14.5v7q0 8 5 14.5t18 6.5t18 -6.5t5 -14.5v-7q0 -8 -5 -14.5t-18 -6.5z" />
    <glyph glyph-name="multiply" unicode="&#xd7;" 
d="M449 113l-179 179l-179 -179l-14 13l180 180l-180 179l13 14l180 -180l180 180l13 -14l-179 -179l179 -180z" />
    <glyph glyph-name="Oslash" unicode="&#xd8;" horiz-adv-x="613" 
d="M307 -12q-52 0 -95.5 16t-75.5 53l-56 -89l-17 11l60 95q-29 43 -44.5 110t-15.5 165q0 138 30 217t85 111.5t129 32.5q53 0 96.5 -15.5t74.5 -53.5l56 89l17 -11l-60 -95q29 -43 44.5 -110t15.5 -165q0 -138 -30 -216.5t-85 -111.5t-129 -33zM307 690q-69 0 -118 -31.5
t-75.5 -98t-26.5 -172.5v-78q0 -67 11.5 -121t35.5 -92h3l173 275l156 250q-28 35 -68.5 51.5t-90.5 16.5zM307 8q69 0 118 31.5t75.5 98.5t26.5 172v78q0 67 -11.5 121t-35.5 92h-3l-167 -267l-162 -258q29 -34 69.5 -51t89.5 -17z" />
    <glyph glyph-name="Ugrave" unicode="&#xd9;" horiz-adv-x="588" 
d="M90 698h22v-450q0 -87 16.5 -140t56.5 -76.5t109 -23.5q70 0 109.5 23.5t56 76.5t16.5 140v450h22v-448q0 -96 -19.5 -153.5t-64 -83t-120.5 -25.5t-120.5 25.5t-64 83t-19.5 153.5v448zM308 767l-103 152l19 12l99 -154z" />
    <glyph glyph-name="Uacute" unicode="&#xda;" horiz-adv-x="588" 
d="M90 698h22v-450q0 -87 16.5 -140t56.5 -76.5t109 -23.5q70 0 109.5 23.5t56 76.5t16.5 140v450h22v-448q0 -96 -19.5 -153.5t-64 -83t-120.5 -25.5t-120.5 25.5t-64 83t-19.5 153.5v448zM381 919l-103 -152l-15 10l99 154z" />
    <glyph glyph-name="Ucircumflex" unicode="&#xdb;" horiz-adv-x="588" 
d="M90 698h22v-450q0 -87 16.5 -140t56.5 -76.5t109 -23.5q70 0 109.5 23.5t56 76.5t16.5 140v450h22v-448q0 -96 -19.5 -153.5t-64 -83t-120.5 -25.5t-120.5 25.5t-64 83t-19.5 153.5v448zM281 923h24l100 -133l-14 -11l-98 127l-98 -127l-14 11z" />
    <glyph glyph-name="Udieresis" unicode="&#xdc;" horiz-adv-x="588" 
d="M90 698h22v-450q0 -87 16.5 -140t56.5 -76.5t109 -23.5q70 0 109.5 23.5t56 76.5t16.5 140v450h22v-448q0 -96 -19.5 -153.5t-64 -83t-120.5 -25.5t-120.5 25.5t-64 83t-19.5 153.5v448zM218 819q-13 0 -18 6.5t-5 14.5v7q0 8 5 14.5t18 6.5t18 -6.5t5 -14.5v-7
q0 -8 -5 -14.5t-18 -6.5zM368 819q-13 0 -18 6.5t-5 14.5v7q0 8 5 14.5t18 6.5t18 -6.5t5 -14.5v-7q0 -8 -5 -14.5t-18 -6.5z" />
    <glyph glyph-name="Yacute" unicode="&#xdd;" horiz-adv-x="493" 
d="M257 0h-22v294l-216 404h24l200 -374h6l200 374h24l-216 -404v-294zM334 919l-103 -152l-15 10l99 154z" />
    <glyph glyph-name="Thorn" unicode="&#xde;" horiz-adv-x="535" 
d="M119 0h-22v698h22v-156h225q51 0 85 -21.5t50.5 -63.5t16.5 -103t-16.5 -103t-50.5 -63.5t-85 -21.5h-225v-166zM119 522v-336h225q44 0 72.5 18.5t42 50.5t13.5 70v58q0 39 -13.5 70.5t-42 50t-72.5 18.5h-225z" />
    <glyph glyph-name="germandbls" unicode="&#xdf;" horiz-adv-x="580" 
d="M537 124q0 -64 -37 -100t-109 -36q-58 0 -99.5 20t-72.5 69l17 12q31 -46 66.5 -64t88.5 -18q65 0 95 31t30 86q0 49 -23 76t-73 41l-39 11q-39 11 -63.5 26t-36.5 39t-12 62q0 65 46 96t137 31v35q0 100 -38 146t-118 46q-79 0 -117.5 -46t-38.5 -146v-541h-21v487h-85
v19h85v35q0 70 19.5 117t58.5 70.5t99 23.5t99.5 -23.5t58.5 -70.5t19 -117v-54h-21q-54 0 -90 -11.5t-54 -35t-18 -60.5q0 -49 21 -71t74 -37l39 -11q59 -16 86 -46t27 -91z" />
    <glyph glyph-name="agrave" unicode="&#xe0;" horiz-adv-x="468" 
d="M449 0h-73q-9 0 -14 2t-7 7t-2 14v65l10 -10h-16q-14 -40 -50.5 -65t-94.5 -25q-69 0 -108.5 35t-39.5 108q0 49 19 80.5t54.5 47t84.5 15.5h141v85q0 77 -33.5 108.5t-97.5 31.5q-50 0 -83.5 -21t-51.5 -74l-17 8q18 52 54 79t98 27q76 0 114 -38t38 -118v-343h75v-19z
M353 256h-141q-58 0 -96.5 -27.5t-38.5 -77.5v-39q0 -49 36 -77t89 -28q42 0 76 15.5t54.5 47t20.5 78.5v108zM239 587l-103 152l19 12l99 -154z" />
    <glyph glyph-name="aacute" unicode="&#xe1;" horiz-adv-x="468" 
d="M449 0h-73q-9 0 -14 2t-7 7t-2 14v65l10 -10h-16q-14 -40 -50.5 -65t-94.5 -25q-69 0 -108.5 35t-39.5 108q0 49 19 80.5t54.5 47t84.5 15.5h141v85q0 77 -33.5 108.5t-97.5 31.5q-50 0 -83.5 -21t-51.5 -74l-17 8q18 52 54 79t98 27q76 0 114 -38t38 -118v-343h75v-19z
M353 256h-141q-58 0 -96.5 -27.5t-38.5 -77.5v-39q0 -49 36 -77t89 -28q42 0 76 15.5t54.5 47t20.5 78.5v108zM312 739l-103 -152l-15 10l99 154z" />
    <glyph glyph-name="acircumflex" unicode="&#xe2;" horiz-adv-x="468" 
d="M449 0h-73q-9 0 -14 2t-7 7t-2 14v65l10 -10h-16q-14 -40 -50.5 -65t-94.5 -25q-69 0 -108.5 35t-39.5 108q0 49 19 80.5t54.5 47t84.5 15.5h141v85q0 77 -33.5 108.5t-97.5 31.5q-50 0 -83.5 -21t-51.5 -74l-17 8q18 52 54 79t98 27q76 0 114 -38t38 -118v-343h75v-19z
M353 256h-141q-58 0 -96.5 -27.5t-38.5 -77.5v-39q0 -49 36 -77t89 -28q42 0 76 15.5t54.5 47t20.5 78.5v108zM212 743h24l100 -133l-14 -11l-98 127l-98 -127l-14 11z" />
    <glyph glyph-name="atilde" unicode="&#xe3;" horiz-adv-x="468" 
d="M449 0h-73q-9 0 -14 2t-7 7t-2 14v65l10 -10h-16q-14 -40 -50.5 -65t-94.5 -25q-69 0 -108.5 35t-39.5 108q0 49 19 80.5t54.5 47t84.5 15.5h141v85q0 77 -33.5 108.5t-97.5 31.5q-50 0 -83.5 -21t-51.5 -74l-17 8q18 52 54 79t98 27q76 0 114 -38t38 -118v-343h75v-19z
M353 256h-141q-58 0 -96.5 -27.5t-38.5 -77.5v-39q0 -49 36 -77t89 -28q42 0 76 15.5t54.5 47t20.5 78.5v108zM288 628q-16 0 -31 7t-38 23q-19 14 -33 20t-27 6q-16 0 -30 -8t-28 -25l-12 13q17 20 34 29t36 9q16 0 31.5 -6.5t37.5 -23.5q20 -14 33.5 -20t26.5 -6
q17 0 30.5 8.5t27.5 24.5l12 -13q-16 -20 -33 -29t-37 -9z" />
    <glyph glyph-name="adieresis" unicode="&#xe4;" horiz-adv-x="468" 
d="M449 0h-73q-9 0 -14 2t-7 7t-2 14v65l10 -10h-16q-14 -40 -50.5 -65t-94.5 -25q-69 0 -108.5 35t-39.5 108q0 49 19 80.5t54.5 47t84.5 15.5h141v85q0 77 -33.5 108.5t-97.5 31.5q-50 0 -83.5 -21t-51.5 -74l-17 8q18 52 54 79t98 27q76 0 114 -38t38 -118v-343h75v-19z
M353 256h-141q-58 0 -96.5 -27.5t-38.5 -77.5v-39q0 -49 36 -77t89 -28q42 0 76 15.5t54.5 47t20.5 78.5v108zM149 642q-13 0 -18 6.5t-5 14.5v7q0 8 5 14.5t18 6.5t18 -6.5t5 -14.5v-7q0 -8 -5 -14.5t-18 -6.5zM299 642q-13 0 -18 6.5t-5 14.5v7q0 8 5 14.5t18 6.5t18 -6.5
t5 -14.5v-7q0 -8 -5 -14.5t-18 -6.5z" />
    <glyph glyph-name="aring" unicode="&#xe5;" horiz-adv-x="468" 
d="M449 0h-73q-9 0 -14 2t-7 7t-2 14v65l10 -10h-16q-14 -40 -50.5 -65t-94.5 -25q-69 0 -108.5 35t-39.5 108q0 49 19 80.5t54.5 47t84.5 15.5h141v85q0 77 -33.5 108.5t-97.5 31.5q-50 0 -83.5 -21t-51.5 -74l-17 8q18 52 54 79t98 27q76 0 114 -38t38 -118v-343h75v-19z
M353 256h-141q-58 0 -96.5 -27.5t-38.5 -77.5v-39q0 -49 36 -77t89 -28q42 0 76 15.5t54.5 47t20.5 78.5v108zM224 589q-26 0 -45.5 11.5t-30 32t-10.5 47.5t10.5 47.5t30 32t45.5 11.5t45.5 -11.5t30 -32t10.5 -47.5t-10.5 -47.5t-30 -32t-45.5 -11.5zM224 607
q31 0 48.5 18.5t17.5 49.5v10q0 31 -17.5 49.5t-48.5 18.5t-48.5 -18.5t-17.5 -49.5v-10q0 -31 17.5 -49.5t48.5 -18.5z" />
    <glyph glyph-name="ae" unicode="&#xe6;" horiz-adv-x="784" 
d="M359 256h-147q-58 0 -96.5 -27.5t-38.5 -77.5v-39q0 -49 36 -77t89 -28q47 0 82.5 25.5t55 73t19.5 113.5v37zM381 274h327v13q0 66 -17.5 113.5t-53 73t-89.5 25.5q-53 0 -90.5 -25.5t-57 -73t-19.5 -113.5v-13zM548 7q66 0 103.5 30.5t56.5 91.5l17 -7
q-19 -67 -61 -100.5t-116 -33.5q-46 0 -80.5 16.5t-58.5 50.5t-36 86h-6q-12 -52 -36 -86t-56.5 -50.5t-72.5 -16.5q-69 0 -108.5 35t-39.5 108q0 49 19 80.5t54.5 47t84.5 15.5h147v13q0 95 -36 153.5t-106 58.5q-49 0 -80.5 -21t-49.5 -74l-17 8q18 52 51 79t94 27
q42 0 72 -17t50 -51t30 -85h6q12 53 37.5 86.5t61 50t76.5 16.5q61 0 101.5 -28.5t61 -84.5t20.5 -139v-10h-350v-37q0 -99 43.5 -155.5t123.5 -56.5z" />
    <glyph glyph-name="ccedilla" unicode="&#xe7;" horiz-adv-x="439" 
d="M243 518q56 0 94 -24.5t58 -71.5l-18 -9q-21 45 -52.5 65.5t-81.5 20.5q-80 0 -123 -57t-43 -155v-68q0 -97 43 -154.5t123 -57.5q54 0 87.5 22.5t55.5 63.5l16 -11q-22 -41 -57.5 -66.5t-93.5 -27.5l-14 -66h4q5 3 11 4.5t13 1.5q28 0 46 -15.5t18 -47.5
q0 -19 -8.5 -34.5t-25 -24t-41.5 -8.5q-26 0 -45.5 9.5t-27.5 22.5l12 12q10 -13 24.5 -19.5t36.5 -6.5q26 0 40.5 13.5t14.5 35.5q0 23 -14.5 36t-40.5 13h-37l17 74q-86 3 -133 67t-47 198q0 138 49 201.5t140 63.5z" />
    <glyph glyph-name="egrave" unicode="&#xe8;" horiz-adv-x="480" 
d="M244 -12q-60 0 -102.5 28t-65 86.5t-22.5 150.5t22.5 150.5t65 86.5t102.5 28q61 0 101.5 -28.5t61 -84.5t20.5 -139v-10h-350v-37q0 -99 43.5 -155.5t123.5 -56.5q66 0 103.5 30.5t56.5 91.5l17 -7q-19 -67 -61 -100.5t-116 -33.5zM244 499q-53 0 -90.5 -25.5t-57 -73
t-19.5 -113.5v-13h327v13q0 66 -17.5 113.5t-53 73t-89.5 25.5zM257 587l-103 152l19 12l99 -154z" />
    <glyph glyph-name="eacute" unicode="&#xe9;" horiz-adv-x="480" 
d="M244 -12q-60 0 -102.5 28t-65 86.5t-22.5 150.5t22.5 150.5t65 86.5t102.5 28q61 0 101.5 -28.5t61 -84.5t20.5 -139v-10h-350v-37q0 -99 43.5 -155.5t123.5 -56.5q66 0 103.5 30.5t56.5 91.5l17 -7q-19 -67 -61 -100.5t-116 -33.5zM244 499q-53 0 -90.5 -25.5t-57 -73
t-19.5 -113.5v-13h327v13q0 66 -17.5 113.5t-53 73t-89.5 25.5zM330 739l-103 -152l-15 10l99 154z" />
    <glyph glyph-name="ecircumflex" unicode="&#xea;" horiz-adv-x="480" 
d="M244 -12q-60 0 -102.5 28t-65 86.5t-22.5 150.5t22.5 150.5t65 86.5t102.5 28q61 0 101.5 -28.5t61 -84.5t20.5 -139v-10h-350v-37q0 -99 43.5 -155.5t123.5 -56.5q66 0 103.5 30.5t56.5 91.5l17 -7q-19 -67 -61 -100.5t-116 -33.5zM244 499q-53 0 -90.5 -25.5t-57 -73
t-19.5 -113.5v-13h327v13q0 66 -17.5 113.5t-53 73t-89.5 25.5zM230 743h24l100 -133l-14 -11l-98 127l-98 -127l-14 11z" />
    <glyph glyph-name="edieresis" unicode="&#xeb;" horiz-adv-x="480" 
d="M244 -12q-60 0 -102.5 28t-65 86.5t-22.5 150.5t22.5 150.5t65 86.5t102.5 28q61 0 101.5 -28.5t61 -84.5t20.5 -139v-10h-350v-37q0 -99 43.5 -155.5t123.5 -56.5q66 0 103.5 30.5t56.5 91.5l17 -7q-19 -67 -61 -100.5t-116 -33.5zM244 499q-53 0 -90.5 -25.5t-57 -73
t-19.5 -113.5v-13h327v13q0 66 -17.5 113.5t-53 73t-89.5 25.5zM167 642q-13 0 -18 6.5t-5 14.5v7q0 8 5 14.5t18 6.5t18 -6.5t5 -14.5v-7q0 -8 -5 -14.5t-18 -6.5zM317 642q-13 0 -18 6.5t-5 14.5v7q0 8 5 14.5t18 6.5t18 -6.5t5 -14.5v-7q0 -8 -5 -14.5t-18 -6.5z" />
    <glyph glyph-name="igrave" unicode="&#xec;" horiz-adv-x="209" 
d="M115 0h-21v506h21v-506zM119 587l-103 152l19 12l99 -154z" />
    <glyph glyph-name="iacute" unicode="&#xed;" horiz-adv-x="209" 
d="M115 0h-21v506h21v-506zM192 739l-103 -152l-15 10l99 154z" />
    <glyph glyph-name="icircumflex" unicode="&#xee;" horiz-adv-x="209" 
d="M115 0h-21v506h21v-506zM92 743h24l100 -133l-14 -11l-98 127l-98 -127l-14 11z" />
    <glyph glyph-name="idieresis" unicode="&#xef;" horiz-adv-x="209" 
d="M115 0h-21v506h21v-506zM29 642q-13 0 -18 6.5t-5 14.5v7q0 8 5 14.5t18 6.5t18 -6.5t5 -14.5v-7q0 -8 -5 -14.5t-18 -6.5zM179 642q-13 0 -18 6.5t-5 14.5v7q0 8 5 14.5t18 6.5t18 -6.5t5 -14.5v-7q0 -8 -5 -14.5t-18 -6.5z" />
    <glyph glyph-name="eth" unicode="&#xf0;" horiz-adv-x="490" 
d="M349 752l11 -13l-97 -78q43 -42 82 -101.5t63.5 -137.5t24.5 -178q0 -85 -21.5 -142t-63.5 -85.5t-105 -28.5q-62 0 -104.5 28.5t-64 85.5t-21.5 142q0 86 21.5 142.5t64 85t104.5 28.5q52 0 85.5 -20.5t53.5 -58.5h6q-22 69 -57 125.5t-82 102.5l-96 -77l-11 13l94 76
q-22 22 -48 41.5t-55 37.5h34q19 -13 40.5 -29.5t43.5 -37.5zM243 7q55 0 92 24t56 70t19 112v62q0 66 -19 112t-56 70t-92 24q-54 0 -91.5 -24t-56.5 -70t-19 -112v-62q0 -66 19 -112t56.5 -70t91.5 -24z" />
    <glyph glyph-name="ntilde" unicode="&#xf1;" horiz-adv-x="501" 
d="M115 0h-21v506h21v-76h6q13 38 52.5 63t94.5 25q71 0 109.5 -43.5t38.5 -122.5v-352h-21v352q0 69 -33 108t-95 39q-40 0 -75 -16.5t-56 -48t-21 -75.5v-359zM320 628q-16 0 -31 7t-38 23q-19 14 -33 20t-27 6q-16 0 -30 -8t-28 -25l-12 13q17 20 34 29t36 9
q16 0 31.5 -6.5t37.5 -23.5q20 -14 33.5 -20t26.5 -6q17 0 30.5 8.5t27.5 24.5l12 -13q-16 -20 -33 -29t-37 -9z" />
    <glyph glyph-name="ograve" unicode="&#xf2;" horiz-adv-x="488" 
d="M244 -12q-60 0 -102.5 28t-65 86.5t-22.5 150.5t22.5 150.5t65 86.5t102.5 28q61 0 103 -28t64.5 -86.5t22.5 -150.5t-22.5 -150.5t-64.5 -86.5t-103 -28zM244 7q80 0 123.5 56.5t43.5 155.5v68q0 99 -43.5 155.5t-123.5 56.5t-123.5 -56.5t-43.5 -155.5v-68
q0 -99 43.5 -155.5t123.5 -56.5zM259 587l-103 152l19 12l99 -154z" />
    <glyph glyph-name="oacute" unicode="&#xf3;" horiz-adv-x="488" 
d="M244 -12q-60 0 -102.5 28t-65 86.5t-22.5 150.5t22.5 150.5t65 86.5t102.5 28q61 0 103 -28t64.5 -86.5t22.5 -150.5t-22.5 -150.5t-64.5 -86.5t-103 -28zM244 7q80 0 123.5 56.5t43.5 155.5v68q0 99 -43.5 155.5t-123.5 56.5t-123.5 -56.5t-43.5 -155.5v-68
q0 -99 43.5 -155.5t123.5 -56.5zM332 739l-103 -152l-15 10l99 154z" />
    <glyph glyph-name="ocircumflex" unicode="&#xf4;" horiz-adv-x="488" 
d="M244 -12q-60 0 -102.5 28t-65 86.5t-22.5 150.5t22.5 150.5t65 86.5t102.5 28q61 0 103 -28t64.5 -86.5t22.5 -150.5t-22.5 -150.5t-64.5 -86.5t-103 -28zM244 7q80 0 123.5 56.5t43.5 155.5v68q0 99 -43.5 155.5t-123.5 56.5t-123.5 -56.5t-43.5 -155.5v-68
q0 -99 43.5 -155.5t123.5 -56.5zM232 743h24l100 -133l-14 -11l-98 127l-98 -127l-14 11z" />
    <glyph glyph-name="otilde" unicode="&#xf5;" horiz-adv-x="488" 
d="M244 -12q-60 0 -102.5 28t-65 86.5t-22.5 150.5t22.5 150.5t65 86.5t102.5 28q61 0 103 -28t64.5 -86.5t22.5 -150.5t-22.5 -150.5t-64.5 -86.5t-103 -28zM244 7q80 0 123.5 56.5t43.5 155.5v68q0 99 -43.5 155.5t-123.5 56.5t-123.5 -56.5t-43.5 -155.5v-68
q0 -99 43.5 -155.5t123.5 -56.5zM308 628q-16 0 -31 7t-38 23q-19 14 -33 20t-27 6q-16 0 -30 -8t-28 -25l-12 13q17 20 34 29t36 9q16 0 31.5 -6.5t37.5 -23.5q20 -14 33.5 -20t26.5 -6q17 0 30.5 8.5t27.5 24.5l12 -13q-16 -20 -33 -29t-37 -9z" />
    <glyph glyph-name="odieresis" unicode="&#xf6;" horiz-adv-x="488" 
d="M244 -12q-60 0 -102.5 28t-65 86.5t-22.5 150.5t22.5 150.5t65 86.5t102.5 28q61 0 103 -28t64.5 -86.5t22.5 -150.5t-22.5 -150.5t-64.5 -86.5t-103 -28zM244 7q80 0 123.5 56.5t43.5 155.5v68q0 99 -43.5 155.5t-123.5 56.5t-123.5 -56.5t-43.5 -155.5v-68
q0 -99 43.5 -155.5t123.5 -56.5zM169 642q-13 0 -18 6.5t-5 14.5v7q0 8 5 14.5t18 6.5t18 -6.5t5 -14.5v-7q0 -8 -5 -14.5t-18 -6.5zM319 642q-13 0 -18 6.5t-5 14.5v7q0 8 5 14.5t18 6.5t18 -6.5t5 -14.5v-7q0 -8 -5 -14.5t-18 -6.5z" />
    <glyph glyph-name="divide" unicode="&#xf7;" 
d="M484 296h-428v19h428v-19zM270 82q-16 0 -24 7t-8 20v8q0 13 8 20t24 7t24 -7t8 -20v-8q0 -13 -8 -20t-24 -7zM270 467q-16 0 -24 7t-8 20v8q0 13 8 20t24 7t24 -7t8 -20v-8q0 -13 -8 -20t-24 -7z" />
    <glyph glyph-name="oslash" unicode="&#xf8;" horiz-adv-x="488" 
d="M50 -31l-14 10l60 83q-20 33 -31 80t-11 111q0 92 22.5 150.5t65 86.5t102.5 28q44 0 78.5 -14.5t58.5 -45.5l57 79l14 -10l-60 -83q20 -33 31 -80t11 -111q0 -92 -22.5 -150.5t-64.5 -86.5t-103 -28q-44 0 -78.5 14.5t-58.5 44.5zM244 7q80 0 123.5 56.5t43.5 155.5v68
q0 28 -3.5 52t-10 45.5t-16.5 38.5h-4l-131 -182l-126 -176q22 -29 53 -43.5t71 -14.5zM244 499q-80 0 -123.5 -56.5t-43.5 -155.5v-68q0 -27 3.5 -51.5t10 -45.5t16.5 -39h4l135 188l123 170q-22 29 -53 43.5t-72 14.5z" />
    <glyph glyph-name="ugrave" unicode="&#xf9;" horiz-adv-x="501" 
d="M395 0v76h-6q-13 -37 -52 -62.5t-95 -25.5q-72 0 -110 43t-38 123v352h21v-352q0 -69 33.5 -108t94.5 -39q41 0 75.5 16.5t55.5 48t21 75.5v359h21v-506h-21zM261 587l-103 152l19 12l99 -154z" />
    <glyph glyph-name="uacute" unicode="&#xfa;" horiz-adv-x="501" 
d="M395 0v76h-6q-13 -37 -52 -62.5t-95 -25.5q-72 0 -110 43t-38 123v352h21v-352q0 -69 33.5 -108t94.5 -39q41 0 75.5 16.5t55.5 48t21 75.5v359h21v-506h-21zM334 739l-103 -152l-15 10l99 154z" />
    <glyph glyph-name="ucircumflex" unicode="&#xfb;" horiz-adv-x="501" 
d="M395 0v76h-6q-13 -37 -52 -62.5t-95 -25.5q-72 0 -110 43t-38 123v352h21v-352q0 -69 33.5 -108t94.5 -39q41 0 75.5 16.5t55.5 48t21 75.5v359h21v-506h-21zM234 743h24l100 -133l-14 -11l-98 127l-98 -127l-14 11z" />
    <glyph glyph-name="udieresis" unicode="&#xfc;" horiz-adv-x="501" 
d="M395 0v76h-6q-13 -37 -52 -62.5t-95 -25.5q-72 0 -110 43t-38 123v352h21v-352q0 -69 33.5 -108t94.5 -39q41 0 75.5 16.5t55.5 48t21 75.5v359h21v-506h-21zM171 642q-13 0 -18 6.5t-5 14.5v7q0 8 5 14.5t18 6.5t18 -6.5t5 -14.5v-7q0 -8 -5 -14.5t-18 -6.5zM321 642
q-13 0 -18 6.5t-5 14.5v7q0 8 5 14.5t18 6.5t18 -6.5t5 -14.5v-7q0 -8 -5 -14.5t-18 -6.5z" />
    <glyph glyph-name="yacute" unicode="&#xfd;" horiz-adv-x="408" 
d="M259 184l105 322h22l-224 -687q-2 -7 -5.5 -11t-8 -6t-12.5 -2h-84v19h89l52 162l-171 525h22l105 -322l53 -165h4zM294 739l-103 -152l-15 10l99 154z" />
    <glyph glyph-name="thorn" unicode="&#xfe;" horiz-adv-x="509" 
d="M94 -200v940h21v-310h6q14 40 51.5 64t92.5 24q61 0 103 -28t64.5 -86.5t22.5 -150.5t-22.5 -150.5t-64.5 -86.5t-103 -28q-55 0 -92.5 25t-51.5 65h-6v-278h-21zM265 7q80 0 123.5 56.5t43.5 155.5v68q0 99 -43.5 155.5t-123.5 56.5q-43 0 -77 -16.5t-53.5 -48
t-19.5 -75.5v-212q0 -44 19.5 -75.5t53.5 -48t77 -16.5z" />
    <glyph glyph-name="ydieresis" unicode="&#xff;" horiz-adv-x="408" 
d="M259 184l105 322h22l-224 -687q-2 -7 -5.5 -11t-8 -6t-12.5 -2h-84v19h89l52 162l-171 525h22l105 -322l53 -165h4zM131 642q-13 0 -18 6.5t-5 14.5v7q0 8 5 14.5t18 6.5t18 -6.5t5 -14.5v-7q0 -8 -5 -14.5t-18 -6.5zM281 642q-13 0 -18 6.5t-5 14.5v7q0 8 5 14.5t18 6.5
t18 -6.5t5 -14.5v-7q0 -8 -5 -14.5t-18 -6.5z" />
    <glyph glyph-name="Amacron" unicode="&#x100;" horiz-adv-x="542" 
d="M515 0h-24l-76 234h-288l-76 -234h-24l226 698h36zM408 253l-87 274l-48 151h-4l-48 -151l-87 -274h274zM158 838v18h226v-18h-226z" />
    <glyph glyph-name="amacron" unicode="&#x101;" horiz-adv-x="468" 
d="M449 0h-73q-9 0 -14 2t-7 7t-2 14v65l10 -10h-16q-14 -40 -50.5 -65t-94.5 -25q-69 0 -108.5 35t-39.5 108q0 49 19 80.5t54.5 47t84.5 15.5h141v85q0 77 -33.5 108.5t-97.5 31.5q-50 0 -83.5 -21t-51.5 -74l-17 8q18 52 54 79t98 27q76 0 114 -38t38 -118v-343h75v-19z
M353 256h-141q-58 0 -96.5 -27.5t-38.5 -77.5v-39q0 -49 36 -77t89 -28q42 0 76 15.5t54.5 47t20.5 78.5v108zM111 658v18h226v-18h-226z" />
    <glyph glyph-name="Abreve" unicode="&#x102;" horiz-adv-x="542" 
d="M515 0h-24l-76 234h-288l-76 -234h-24l226 698h36zM408 253l-87 274l-48 151h-4l-48 -151l-87 -274h274zM271 786q-21 0 -36.5 6t-28 19.5t-22 36t-18.5 55.5l16 7l9 -27q14 -43 32 -60.5t48 -17.5t48 17.5t32 60.5l9 27l16 -7q-12 -44 -25.5 -70t-32.5 -36.5t-47 -10.5z
" />
    <glyph glyph-name="abreve" unicode="&#x103;" horiz-adv-x="468" 
d="M449 0h-73q-9 0 -14 2t-7 7t-2 14v65l10 -10h-16q-14 -40 -50.5 -65t-94.5 -25q-69 0 -108.5 35t-39.5 108q0 49 19 80.5t54.5 47t84.5 15.5h141v85q0 77 -33.5 108.5t-97.5 31.5q-50 0 -83.5 -21t-51.5 -74l-17 8q18 52 54 79t98 27q76 0 114 -38t38 -118v-343h75v-19z
M353 256h-141q-58 0 -96.5 -27.5t-38.5 -77.5v-39q0 -49 36 -77t89 -28q42 0 76 15.5t54.5 47t20.5 78.5v108zM224 606q-21 0 -36.5 6t-28 19.5t-22 36t-18.5 55.5l16 7l9 -27q14 -43 32 -60.5t48 -17.5t48 17.5t32 60.5l9 27l16 -7q-9 -33 -18.5 -55.5t-22 -36t-28 -19.5
t-36.5 -6z" />
    <glyph glyph-name="Aogonek" unicode="&#x104;" horiz-adv-x="542" 
d="M27 0l226 698h36l226 -698q-38 -28 -61.5 -51t-34 -43t-10.5 -41q0 -25 14.5 -37t37.5 -12q21 0 34 8t20 17l13 -11q-8 -13 -25.5 -22.5t-42.5 -9.5q-21 0 -37 7.5t-25 21.5t-9 35t11 43t35.5 45.5t63.5 48.5v-7h-5l-79 242h-288l-76 -234h-24zM408 253l-87 274l-48 151
h-4l-48 -151l-87 -274h274z" />
    <glyph glyph-name="aogonek" unicode="&#x105;" horiz-adv-x="468" 
d="M449 19v-19q-38 -27 -61.5 -49.5t-34 -42.5t-10.5 -42q0 -26 14.5 -38t37.5 -12q21 0 34 8t20 17l13 -11q-8 -13 -25.5 -22.5t-42.5 -9.5q-21 0 -37 7.5t-25 22t-9 35.5q0 35 26.5 67.5t78.5 65.5v14l10 -10h-62q-9 0 -14 2t-7 7t-2 14v65l10 -10h-16q-14 -40 -50.5 -65
t-94.5 -25q-69 0 -108.5 35t-39.5 108q0 49 19 80.5t54.5 47t84.5 15.5h141v85q0 77 -33.5 108.5t-97.5 31.5q-50 0 -83.5 -21t-51.5 -74l-17 8q18 52 54 79t98 27q76 0 114 -38t38 -118v-343h75zM353 256h-141q-58 0 -96.5 -27.5t-38.5 -77.5v-39q0 -49 36 -77t89 -28
q42 0 76 15.5t54.5 47t20.5 78.5v108z" />
    <glyph glyph-name="Cacute" unicode="&#x106;" horiz-adv-x="549" 
d="M300 -12q-71 0 -124.5 33t-83 111.5t-29.5 216.5t29.5 217t83 111.5t124.5 32.5q80 0 125.5 -37t70.5 -102l-19 -9q-22 63 -64 95.5t-113 32.5q-99 0 -156 -72t-57 -230v-78q0 -158 57 -230t156 -72q77 0 118.5 34.5t62.5 101.5l19 -8q-22 -70 -69.5 -109t-130.5 -39z
M384 919l-103 -152l-15 10l99 154z" />
    <glyph glyph-name="cacute" unicode="&#x107;" horiz-adv-x="439" 
d="M243 -12q-91 0 -140 63.5t-49 201.5t49 201.5t140 63.5q56 0 94 -24.5t58 -71.5l-18 -9q-21 45 -52.5 65.5t-81.5 20.5q-80 0 -123 -57t-43 -155v-68q0 -97 43 -154.5t123 -57.5q54 0 87.5 22.5t55.5 63.5l16 -11q-22 -43 -59.5 -68.5t-99.5 -25.5zM331 739l-103 -152
l-15 10l99 154z" />
    <glyph glyph-name="Ccircumflex" unicode="&#x108;" horiz-adv-x="549" 
d="M300 -12q-71 0 -124.5 33t-83 111.5t-29.5 216.5t29.5 217t83 111.5t124.5 32.5q80 0 125.5 -37t70.5 -102l-19 -9q-22 63 -64 95.5t-113 32.5q-99 0 -156 -72t-57 -230v-78q0 -158 57 -230t156 -72q77 0 118.5 34.5t62.5 101.5l19 -8q-22 -70 -69.5 -109t-130.5 -39z
M284 923h24l100 -133l-14 -11l-98 127l-98 -127l-14 11z" />
    <glyph glyph-name="ccircumflex" unicode="&#x109;" horiz-adv-x="439" 
d="M243 -12q-91 0 -140 63.5t-49 201.5t49 201.5t140 63.5q56 0 94 -24.5t58 -71.5l-18 -9q-21 45 -52.5 65.5t-81.5 20.5q-80 0 -123 -57t-43 -155v-68q0 -97 43 -154.5t123 -57.5q54 0 87.5 22.5t55.5 63.5l16 -11q-22 -43 -59.5 -68.5t-99.5 -25.5zM231 743h24l100 -133
l-14 -11l-98 127l-98 -127l-14 11z" />
    <glyph glyph-name="Cdotaccent" unicode="&#x10a;" horiz-adv-x="549" 
d="M300 -12q-71 0 -124.5 33t-83 111.5t-29.5 216.5t29.5 217t83 111.5t124.5 32.5q80 0 125.5 -37t70.5 -102l-19 -9q-22 63 -64 95.5t-113 32.5q-99 0 -156 -72t-57 -230v-78q0 -158 57 -230t156 -72q77 0 118.5 34.5t62.5 101.5l19 -8q-22 -70 -69.5 -109t-130.5 -39z
M296 822q-13 0 -18 6.5t-5 14.5v7q0 8 5 14.5t18 6.5t18 -6.5t5 -14.5v-7q0 -8 -5 -14.5t-18 -6.5z" />
    <glyph glyph-name="cdotaccent" unicode="&#x10b;" horiz-adv-x="439" 
d="M243 -12q-91 0 -140 63.5t-49 201.5t49 201.5t140 63.5q56 0 94 -24.5t58 -71.5l-18 -9q-21 45 -52.5 65.5t-81.5 20.5q-80 0 -123 -57t-43 -155v-68q0 -97 43 -154.5t123 -57.5q54 0 87.5 22.5t55.5 63.5l16 -11q-22 -43 -59.5 -68.5t-99.5 -25.5zM243 642
q-13 0 -18 6.5t-5 14.5v7q0 8 5 14.5t18 6.5t18 -6.5t5 -14.5v-7q0 -8 -5 -14.5t-18 -6.5z" />
    <glyph glyph-name="Ccaron" unicode="&#x10c;" horiz-adv-x="549" 
d="M300 -12q-71 0 -124.5 33t-83 111.5t-29.5 216.5t29.5 217t83 111.5t124.5 32.5q80 0 125.5 -37t70.5 -102l-19 -9q-22 63 -64 95.5t-113 32.5q-99 0 -156 -72t-57 -230v-78q0 -158 57 -230t156 -72q77 0 118.5 34.5t62.5 101.5l19 -8q-22 -70 -69.5 -109t-130.5 -39z
M308 783h-24l-100 133l14 11l98 -127l98 127l14 -11z" />
    <glyph glyph-name="ccaron" unicode="&#x10d;" horiz-adv-x="439" 
d="M243 -12q-91 0 -140 63.5t-49 201.5t49 201.5t140 63.5q56 0 94 -24.5t58 -71.5l-18 -9q-21 45 -52.5 65.5t-81.5 20.5q-80 0 -123 -57t-43 -155v-68q0 -97 43 -154.5t123 -57.5q54 0 87.5 22.5t55.5 63.5l16 -11q-22 -43 -59.5 -68.5t-99.5 -25.5zM255 603h-24l-100 133
l14 11l98 -127l98 127l14 -11z" />
    <glyph glyph-name="Dcaron" unicode="&#x10e;" horiz-adv-x="594" 
d="M97 0v698h193q81 0 134.5 -37t80 -114t26.5 -198q0 -120 -26.5 -197.5t-80 -114.5t-134.5 -37h-193zM119 20h172q75 0 122.5 36t70.5 101t23 153v78q0 88 -23 153t-70.5 101t-122.5 36h-172v-658zM281 783h-24l-100 133l14 11l98 -127l98 127l14 -11z" />
    <glyph glyph-name="dcaron" unicode="&#x10f;" horiz-adv-x="509" 
d="M394 0v78h-6q-14 -40 -51 -65t-93 -25q-60 0 -102.5 28t-65 86.5t-22.5 150.5t22.5 150.5t65 86.5t102.5 28q56 0 93 -24t51 -64h6v310h21v-740h-21zM244 7q43 0 77 16.5t53.5 48t19.5 75.5v212q0 44 -19.5 75.5t-53.5 48t-77 16.5q-80 0 -123.5 -56.5t-43.5 -155.5v-68
q0 -99 43.5 -155.5t123.5 -56.5zM534 740l-24 -176h-17l16 176h25z" />
    <glyph glyph-name="Dcroat" unicode="&#x110;" horiz-adv-x="594" 
d="M97 0v355h-72v18h72v325h193q81 0 134.5 -37t80 -114t26.5 -198q0 -120 -26.5 -197.5t-80 -114.5t-134.5 -37h-193zM119 20h172q75 0 122.5 36t70.5 101t23 153v78q0 88 -23 153t-70.5 101t-122.5 36h-172v-305h156v-18h-156v-335z" />
    <glyph glyph-name="dcroat" unicode="&#x111;" horiz-adv-x="512" 
d="M394 0v78h-6q-14 -40 -51 -65t-93 -25q-60 0 -102.5 28t-65 86.5t-22.5 150.5t22.5 150.5t65 86.5t102.5 28q56 0 93 -24t51 -64h6v199h-150v18h150v93h21v-93h65v-18h-65v-629h-21zM244 7q43 0 77 16.5t53.5 48t19.5 75.5v212q0 44 -19.5 75.5t-53.5 48t-77 16.5
q-80 0 -123.5 -56.5t-43.5 -155.5v-68q0 -99 43.5 -155.5t123.5 -56.5z" />
    <glyph glyph-name="Emacron" unicode="&#x112;" horiz-adv-x="506" 
d="M441 0h-344v698h344v-20h-322v-314h311v-20h-311v-324h322v-20zM156 838v18h226v-18h-226z" />
    <glyph glyph-name="emacron" unicode="&#x113;" horiz-adv-x="480" 
d="M244 -12q-60 0 -102.5 28t-65 86.5t-22.5 150.5t22.5 150.5t65 86.5t102.5 28q61 0 101.5 -28.5t61 -84.5t20.5 -139v-10h-350v-37q0 -99 43.5 -155.5t123.5 -56.5q66 0 103.5 30.5t56.5 91.5l17 -7q-19 -67 -61 -100.5t-116 -33.5zM244 499q-53 0 -90.5 -25.5t-57 -73
t-19.5 -113.5v-13h327v13q0 66 -17.5 113.5t-53 73t-89.5 25.5zM129 658v18h226v-18h-226z" />
    <glyph glyph-name="Ebreve" unicode="&#x114;" horiz-adv-x="506" 
d="M441 0h-344v698h344v-20h-322v-314h311v-20h-311v-324h322v-20zM269 786q-21 0 -36.5 6t-28 19.5t-22 36t-18.5 55.5l16 7l9 -27q14 -43 32 -60.5t48 -17.5t48 17.5t32 60.5l9 27l16 -7q-12 -44 -25.5 -70t-32.5 -36.5t-47 -10.5z" />
    <glyph glyph-name="ebreve" unicode="&#x115;" horiz-adv-x="480" 
d="M244 -12q-60 0 -102.5 28t-65 86.5t-22.5 150.5t22.5 150.5t65 86.5t102.5 28q61 0 101.5 -28.5t61 -84.5t20.5 -139v-10h-350v-37q0 -99 43.5 -155.5t123.5 -56.5q66 0 103.5 30.5t56.5 91.5l17 -7q-19 -67 -61 -100.5t-116 -33.5zM244 499q-53 0 -90.5 -25.5t-57 -73
t-19.5 -113.5v-13h327v13q0 66 -17.5 113.5t-53 73t-89.5 25.5zM242 606q-21 0 -36.5 6t-28 19.5t-22 36t-18.5 55.5l16 7l9 -27q14 -43 32 -60.5t48 -17.5t48 17.5t32 60.5l9 27l16 -7q-9 -33 -18.5 -55.5t-22 -36t-28 -19.5t-36.5 -6z" />
    <glyph glyph-name="Edotaccent" unicode="&#x116;" horiz-adv-x="506" 
d="M441 0h-344v698h344v-20h-322v-314h311v-20h-311v-324h322v-20zM269 822q-13 0 -18 6.5t-5 14.5v7q0 8 5 14.5t18 6.5t18 -6.5t5 -14.5v-7q0 -8 -5 -14.5t-18 -6.5z" />
    <glyph glyph-name="edotaccent" unicode="&#x117;" horiz-adv-x="480" 
d="M244 -12q-60 0 -102.5 28t-65 86.5t-22.5 150.5t22.5 150.5t65 86.5t102.5 28q61 0 101.5 -28.5t61 -84.5t20.5 -139v-10h-350v-37q0 -99 43.5 -155.5t123.5 -56.5q66 0 103.5 30.5t56.5 91.5l17 -7q-19 -67 -61 -100.5t-116 -33.5zM244 499q-53 0 -90.5 -25.5t-57 -73
t-19.5 -113.5v-13h327v13q0 66 -17.5 113.5t-53 73t-89.5 25.5zM242 642q-13 0 -18 6.5t-5 14.5v7q0 8 5 14.5t18 6.5t18 -6.5t5 -14.5v-7q0 -8 -5 -14.5t-18 -6.5z" />
    <glyph glyph-name="Eogonek" unicode="&#x118;" horiz-adv-x="506" 
d="M97 0v698h344v-20h-322v-314h311v-20h-311v-324h322v-20q-38 -28 -61.5 -50.5t-34 -42.5t-10.5 -41q0 -26 14.5 -38t37.5 -12q21 0 34 8t20 17l13 -11q-8 -13 -25.5 -22.5t-42.5 -9.5q-21 0 -37 7.5t-25 22t-9 35.5q0 34 26 66t79 67v4h-323z" />
    <glyph glyph-name="eogonek" unicode="&#x119;" horiz-adv-x="480" 
d="M283 -202q-21 0 -37 7t-25 21t-9 33q0 23 10.5 44t33.5 43.5t61 49.5l-1 3q-15 -5 -33 -8t-39 -3q-60 0 -102.5 28t-65 86.5t-22.5 150.5t22.5 150.5t65 86.5t102.5 28q61 0 101.5 -28.5t61 -84.5t20.5 -139v-10h-350v-37q0 -99 43.5 -155.5t123.5 -56.5q66 0 103.5 30.5
t56.5 91.5l17 -7q-10 -33 -25 -58t-36 -42q-37 -31 -62 -54t-39.5 -41t-20.5 -33.5t-6 -30.5q0 -24 14.5 -35.5t37.5 -11.5q21 0 34 8t20 17l13 -11q-8 -13 -25.5 -22.5t-42.5 -9.5zM77 274h327v13q0 66 -17.5 113.5t-53 73t-89.5 25.5q-53 0 -90.5 -25.5t-57 -73
t-19.5 -113.5v-13z" />
    <glyph glyph-name="Ecaron" unicode="&#x11a;" horiz-adv-x="506" 
d="M441 0h-344v698h344v-20h-322v-314h311v-20h-311v-324h322v-20zM281 783h-24l-100 133l14 11l98 -127l98 127l14 -11z" />
    <glyph glyph-name="ecaron" unicode="&#x11b;" horiz-adv-x="480" 
d="M244 -12q-60 0 -102.5 28t-65 86.5t-22.5 150.5t22.5 150.5t65 86.5t102.5 28q61 0 101.5 -28.5t61 -84.5t20.5 -139v-10h-350v-37q0 -99 43.5 -155.5t123.5 -56.5q66 0 103.5 30.5t56.5 91.5l17 -7q-19 -67 -61 -100.5t-116 -33.5zM244 499q-53 0 -90.5 -25.5t-57 -73
t-19.5 -113.5v-13h327v13q0 66 -17.5 113.5t-53 73t-89.5 25.5zM254 603h-24l-100 133l14 11l98 -127l98 127l14 -11z" />
    <glyph glyph-name="Gcircumflex" unicode="&#x11c;" horiz-adv-x="600" 
d="M507 0v114h-6q-19 -59 -66.5 -92.5t-127.5 -33.5q-74 0 -129 33t-85 111.5t-30 216.5t30 217t85 111.5t129 32.5q85 0 135.5 -37t75.5 -102l-19 -9q-24 61 -70.5 94.5t-121.5 33.5q-69 0 -118 -31.5t-75.5 -98t-26.5 -172.5v-78q0 -105 26.5 -172t75.5 -98.5t118 -31.5
q66 0 110.5 25t67 72t22.5 112v95h-158v20h180v-332h-22zM295 923h24l100 -133l-14 -11l-98 127l-98 -127l-14 11z" />
    <glyph glyph-name="gcircumflex" unicode="&#x11d;" horiz-adv-x="474" 
d="M452 -64q0 -53 -23.5 -85.5t-71.5 -47.5t-121 -15q-69 0 -111 15.5t-61 45t-19 71.5q0 50 23.5 76.5t64.5 38.5v6q-23 6 -35 25t-12 44q0 32 22.5 54.5t53.5 24.5v6q-39 17 -60.5 56t-21.5 98q0 56 19 93.5t54.5 56.5t83.5 19q19 0 36 -3t32 -9h146v-19h-122v-4
q29 -8 47 -43t18 -91t-19 -93.5t-54 -56.5t-84 -19q-14 0 -27 1.5t-25 4.5q-39 -10 -59 -28t-20 -47q0 -28 17.5 -43t60.5 -15h122q78 0 112 -30t34 -87zM237 199q65 0 99.5 36t34.5 91v46q0 56 -34.5 91.5t-99.5 35.5t-99.5 -35.5t-34.5 -91.5v-46q0 -55 34.5 -91t99.5 -36
zM430 -64q0 49 -27 73t-99 24h-143q-41 -12 -68 -36.5t-27 -77.5q0 -54 38 -83t108 -29h49q82 0 125.5 31t43.5 98zM226 743h24l100 -133l-14 -11l-98 127l-98 -127l-14 11z" />
    <glyph glyph-name="Gbreve" unicode="&#x11e;" horiz-adv-x="600" 
d="M507 0v114h-6q-19 -59 -66.5 -92.5t-127.5 -33.5q-74 0 -129 33t-85 111.5t-30 216.5t30 217t85 111.5t129 32.5q85 0 135.5 -37t75.5 -102l-19 -9q-24 61 -70.5 94.5t-121.5 33.5q-69 0 -118 -31.5t-75.5 -98t-26.5 -172.5v-78q0 -105 26.5 -172t75.5 -98.5t118 -31.5
q66 0 110.5 25t67 72t22.5 112v95h-158v20h180v-332h-22zM307 786q-21 0 -36.5 6t-28 19.5t-22 36t-18.5 55.5l16 7l9 -27q14 -43 32 -60.5t48 -17.5t48 17.5t32 60.5l9 27l16 -7q-12 -44 -25.5 -70t-32.5 -36.5t-47 -10.5z" />
    <glyph glyph-name="gbreve" unicode="&#x11f;" horiz-adv-x="474" 
d="M452 -64q0 -53 -23.5 -85.5t-71.5 -47.5t-121 -15q-69 0 -111 15.5t-61 45t-19 71.5q0 50 23.5 76.5t64.5 38.5v6q-23 6 -35 25t-12 44q0 32 22.5 54.5t53.5 24.5v6q-39 17 -60.5 56t-21.5 98q0 56 19 93.5t54.5 56.5t83.5 19q19 0 36 -3t32 -9h146v-19h-122v-4
q29 -8 47 -43t18 -91t-19 -93.5t-54 -56.5t-84 -19q-14 0 -27 1.5t-25 4.5q-39 -10 -59 -28t-20 -47q0 -28 17.5 -43t60.5 -15h122q78 0 112 -30t34 -87zM237 199q65 0 99.5 36t34.5 91v46q0 56 -34.5 91.5t-99.5 35.5t-99.5 -35.5t-34.5 -91.5v-46q0 -55 34.5 -91t99.5 -36
zM430 -64q0 49 -27 73t-99 24h-143q-41 -12 -68 -36.5t-27 -77.5q0 -54 38 -83t108 -29h49q82 0 125.5 31t43.5 98zM238 606q-21 0 -36.5 6t-28 19.5t-22 36t-18.5 55.5l16 7l9 -27q14 -43 32 -60.5t48 -17.5t48 17.5t32 60.5l9 27l16 -7q-9 -33 -18.5 -55.5t-22 -36
t-28 -19.5t-36.5 -6z" />
    <glyph glyph-name="Gdotaccent" unicode="&#x120;" horiz-adv-x="600" 
d="M507 0v114h-6q-19 -59 -66.5 -92.5t-127.5 -33.5q-74 0 -129 33t-85 111.5t-30 216.5t30 217t85 111.5t129 32.5q85 0 135.5 -37t75.5 -102l-19 -9q-24 61 -70.5 94.5t-121.5 33.5q-69 0 -118 -31.5t-75.5 -98t-26.5 -172.5v-78q0 -105 26.5 -172t75.5 -98.5t118 -31.5
q66 0 110.5 25t67 72t22.5 112v95h-158v20h180v-332h-22zM307 822q-13 0 -18 6.5t-5 14.5v7q0 8 5 14.5t18 6.5t18 -6.5t5 -14.5v-7q0 -8 -5 -14.5t-18 -6.5z" />
    <glyph glyph-name="gdotaccent" unicode="&#x121;" horiz-adv-x="474" 
d="M452 -64q0 -53 -23.5 -85.5t-71.5 -47.5t-121 -15q-69 0 -111 15.5t-61 45t-19 71.5q0 50 23.5 76.5t64.5 38.5v6q-23 6 -35 25t-12 44q0 32 22.5 54.5t53.5 24.5v6q-39 17 -60.5 56t-21.5 98q0 56 19 93.5t54.5 56.5t83.5 19q19 0 36 -3t32 -9h146v-19h-122v-4
q29 -8 47 -43t18 -91t-19 -93.5t-54 -56.5t-84 -19q-14 0 -27 1.5t-25 4.5q-39 -10 -59 -28t-20 -47q0 -28 17.5 -43t60.5 -15h122q78 0 112 -30t34 -87zM237 199q65 0 99.5 36t34.5 91v46q0 56 -34.5 91.5t-99.5 35.5t-99.5 -35.5t-34.5 -91.5v-46q0 -55 34.5 -91t99.5 -36
zM430 -64q0 49 -27 73t-99 24h-143q-41 -12 -68 -36.5t-27 -77.5q0 -54 38 -83t108 -29h49q82 0 125.5 31t43.5 98zM238 642q-13 0 -18 6.5t-5 14.5v7q0 8 5 14.5t18 6.5t18 -6.5t5 -14.5v-7q0 -8 -5 -14.5t-18 -6.5z" />
    <glyph glyph-name="Gcommaaccent" unicode="&#x122;" horiz-adv-x="600" 
d="M507 0v114h-6q-19 -59 -66.5 -92.5t-127.5 -33.5q-74 0 -129 33t-85 111.5t-30 216.5t30 217t85 111.5t129 32.5q85 0 135.5 -37t75.5 -102l-19 -9q-24 61 -70.5 94.5t-121.5 33.5q-69 0 -118 -31.5t-75.5 -98t-26.5 -172.5v-78q0 -105 26.5 -172t75.5 -98.5t118 -31.5
q66 0 110.5 25t67 72t22.5 112v95h-158v20h180v-332h-22zM307 -66q12 0 17 -6t5 -16v-11q0 -25 -12.5 -58t-32.5 -55h-18q22 24 32.5 52t12.5 44q-16 0 -22 6t-6 14v8q0 10 5.5 16t18.5 6z" />
    <glyph glyph-name="gcommaaccent" unicode="&#x123;" horiz-adv-x="474" 
d="M452 -64q0 -53 -23.5 -85.5t-71.5 -47.5t-121 -15q-69 0 -111 15.5t-61 45t-19 71.5q0 50 23.5 76.5t64.5 38.5v6q-23 6 -35 25t-12 44q0 32 22.5 54.5t53.5 24.5v6q-39 17 -60.5 56t-21.5 98q0 56 19 93.5t54.5 56.5t83.5 19q19 0 36 -3t32 -9h146v-19h-122v-4
q29 -8 47 -43t18 -91t-19 -93.5t-54 -56.5t-84 -19q-14 0 -27 1.5t-25 4.5q-39 -10 -59 -28t-20 -47q0 -28 17.5 -43t60.5 -15h122q78 0 112 -30t34 -87zM237 199q65 0 99.5 36t34.5 91v46q0 56 -34.5 91.5t-99.5 35.5t-99.5 -35.5t-34.5 -91.5v-46q0 -55 34.5 -91t99.5 -36
zM430 -64q0 49 -27 73t-99 24h-143q-41 -12 -68 -36.5t-27 -77.5q0 -54 38 -83t108 -29h49q82 0 125.5 31t43.5 98zM237 599q-12 0 -17 6t-5 16v11q0 26 13 58.5t32 54.5h18q-22 -24 -32.5 -51.5t-12.5 -44.5q17 0 22.5 -6t5.5 -14v-8q0 -10 -5 -16t-19 -6z" />
    <glyph glyph-name="Hcircumflex" unicode="&#x124;" horiz-adv-x="624" 
d="M505 0v344h-386v-344h-22v698h22v-334h386v334h22v-698h-22zM300 923h24l100 -133l-14 -11l-98 127l-98 -127l-14 11z" />
    <glyph glyph-name="hcircumflex" unicode="&#x125;" horiz-adv-x="501" 
d="M94 0v740h21v-310h6q13 38 52.5 63t94.5 25q71 0 109.5 -43.5t38.5 -122.5v-352h-21v352q0 69 -33 108t-95 39q-40 0 -75 -16.5t-56 -48t-21 -75.5v-359h-21zM92 901h24l100 -133l-14 -11l-98 127l-98 -127l-14 11z" />
    <glyph glyph-name="Hbar" unicode="&#x126;" horiz-adv-x="624" 
d="M507 0v344h-386v-344h-22v537h-72v18h72v143h22v-143h386v143h22v-143h74v-18h-74v-537h-22zM121 364h386v173h-386v-173z" />
    <glyph glyph-name="hbar" unicode="&#x127;" horiz-adv-x="503" 
d="M115 0h-21v629h-65v18h65v93h21v-93h150v-18h-150v-199h6q13 38 52.5 63t94.5 25q71 0 109.5 -43.5t38.5 -122.5v-352h-21v352q0 69 -33 108t-95 39q-40 0 -75 -16.5t-56 -48t-21 -75.5v-359z" />
    <glyph glyph-name="Itilde" unicode="&#x128;" horiz-adv-x="336" 
d="M275 0h-214v19h96v660h-96v19h214v-19h-96v-660h96v-19zM231 808q-16 0 -31 7t-38 23q-19 14 -33 20t-27 6q-16 0 -30 -8t-28 -25l-12 13q17 20 34 29t36 9q16 0 31.5 -6.5t37.5 -23.5q20 -14 33.5 -20t26.5 -6q17 0 30.5 8.5t27.5 24.5l12 -13q-16 -20 -33 -29t-37 -9z
" />
    <glyph glyph-name="itilde" unicode="&#x129;" horiz-adv-x="209" 
d="M115 0h-21v506h21v-506zM168 628q-16 0 -31 7t-38 23q-19 14 -33 20t-27 6q-16 0 -30 -8t-28 -25l-12 13q17 20 34 29t36 9q16 0 31.5 -6.5t37.5 -23.5q20 -14 33.5 -20t26.5 -6q17 0 30.5 8.5t27.5 24.5l12 -13q-16 -20 -33 -29t-37 -9z" />
    <glyph glyph-name="Imacron" unicode="&#x12a;" horiz-adv-x="336" 
d="M275 0h-214v19h96v660h-96v19h214v-19h-96v-660h96v-19zM54 838v18h226v-18h-226z" />
    <glyph glyph-name="imacron" unicode="&#x12b;" horiz-adv-x="209" 
d="M115 0h-21v506h21v-506zM-9 658v18h226v-18h-226z" />
    <glyph glyph-name="Ibreve" unicode="&#x12c;" horiz-adv-x="336" 
d="M275 0h-214v19h96v660h-96v19h214v-19h-96v-660h96v-19zM167 786q-21 0 -36.5 6t-28 19.5t-22 36t-18.5 55.5l16 7l9 -27q14 -43 32 -60.5t48 -17.5t48 17.5t32 60.5l9 27l16 -7q-12 -44 -25.5 -70t-32.5 -36.5t-47 -10.5z" />
    <glyph glyph-name="ibreve" unicode="&#x12d;" horiz-adv-x="209" 
d="M115 0h-21v506h21v-506zM104 606q-21 0 -36.5 6t-28 19.5t-22 36t-18.5 55.5l16 7l9 -27q14 -43 32 -60.5t48 -17.5t48 17.5t32 60.5l9 27l16 -7q-9 -33 -18.5 -55.5t-22 -36t-28 -19.5t-36.5 -6z" />
    <glyph glyph-name="Iogonek" unicode="&#x12e;" horiz-adv-x="336" 
d="M61 0v19h96v660h-96v19h214v-19h-96v-660h96v-19q-38 -28 -61.5 -50.5t-34 -43.5t-10.5 -43q0 -24 14.5 -35.5t37.5 -11.5q21 0 34 8t20 17l13 -11q-8 -13 -25.5 -22.5t-42.5 -9.5q-21 0 -37 7t-25 21t-9 34q0 36 26.5 69t78.5 67v4h-193z" />
    <glyph glyph-name="iogonek" unicode="&#x12f;" horiz-adv-x="209" 
d="M94 506h21v-506q-38 -28 -61.5 -50.5t-34 -43t-10.5 -42.5q0 -25 14.5 -36.5t37.5 -11.5q21 0 34 8t20 17l13 -11q-8 -13 -25.5 -22.5t-42.5 -9.5q-21 0 -37 7t-25 21.5t-9 34.5q0 19 8.5 39.5t32.5 45t70 54.5v-9h-6v515zM105 673q-12 0 -17 6t-5 14v9q0 8 5 14t17 6
t16.5 -6t4.5 -14v-9q0 -8 -4.5 -14t-16.5 -6z" />
    <glyph glyph-name="Idotaccent" unicode="&#x130;" horiz-adv-x="336" 
d="M275 0h-214v19h96v660h-96v19h214v-19h-96v-660h96v-19zM167 822q-13 0 -18 6.5t-5 14.5v7q0 8 5 14.5t18 6.5t18 -6.5t5 -14.5v-7q0 -8 -5 -14.5t-18 -6.5z" />
    <glyph glyph-name="dotlessi" unicode="&#x131;" horiz-adv-x="209" 
d="M115 0h-21v506h21v-506z" />
    <glyph glyph-name="IJ" unicode="&#x132;" horiz-adv-x="568" 
d="M281 -12q-82 0 -130 38.5t-65 105.5l19 6q17 -62 60 -96t116 -34q88 0 132 47t44 132v491h-176v20h198v-511q0 -65 -24 -109.5t-68 -67t-106 -22.5zM90 290v408h22v-408h-22z" />
    <glyph glyph-name="ij" unicode="&#x133;" horiz-adv-x="418" 
d="M105 673q-12 0 -17 6t-5 14v9q0 8 5 14t17 6t16.5 -6t4.5 -14v-9q0 -8 -4.5 -14t-16.5 -6zM94 0v506h21v-506h-21zM303 -181v687h21v-679q0 -15 -6 -21t-21 -6h-71v19h77zM314 673q-12 0 -17 6t-5 14v9q0 8 5 14t17 6t16.5 -6t4.5 -14v-9q0 -8 -4.5 -14t-16.5 -6z" />
    <glyph glyph-name="Jcircumflex" unicode="&#x134;" horiz-adv-x="419" 
d="M86 698h244v-533q0 -58 -19 -97.5t-53.5 -59.5t-83.5 -20q-64 0 -101.5 33t-51.5 89l19 6q14 -51 46.5 -79.5t87.5 -28.5q67 0 100.5 41t33.5 116v513h-222v20zM198 923h24l100 -133l-14 -11l-98 127l-98 -127l-14 11z" />
    <glyph glyph-name="jcircumflex" unicode="&#x135;" horiz-adv-x="209" 
d="M17 -200v19h77v687h21v-679q0 -15 -6 -21t-21 -6h-71zM92 743h24l100 -133l-14 -11l-98 127l-98 -127l-14 11z" />
    <glyph glyph-name="Kcommaaccent" unicode="&#x136;" horiz-adv-x="517" 
d="M473 0l-235 388l-119 -151v-237h-22v698h22v-261v-164h4l130 164l216 261h26l-243 -294l247 -404h-26zM284 -66q12 0 17 -6t5 -16v-11q0 -25 -12.5 -58t-32.5 -55h-18q22 24 32.5 52t12.5 44q-16 0 -22 6t-6 14v8q0 10 5.5 16t18.5 6z" />
    <glyph glyph-name="kcommaaccent" unicode="&#x137;" horiz-adv-x="442" 
d="M94 0v740h21v-441v-77h4l70 77l186 207h26l-192 -215l216 -291h-26l-205 277l-79 -87v-190h-21zM245 -66q12 0 17 -6t5 -16v-11q0 -25 -12.5 -58t-32.5 -55h-18q22 24 32.5 52t12.5 44q-16 0 -22 6t-6 14v8q0 10 5.5 16t18.5 6z" />
    <glyph glyph-name="kgreenlandic" unicode="&#x138;" horiz-adv-x="442" 
d="M399 0l-205 277l-79 -87v-190h-21v506h21v-207v-77h4l70 77l186 207h26l-192 -215l216 -291h-26z" />
    <glyph glyph-name="Lacute" unicode="&#x139;" horiz-adv-x="428" 
d="M410 0h-313v698h22v-678h291v-20zM196 919l-103 -152l-15 10l99 154z" />
    <glyph glyph-name="lacute" unicode="&#x13a;" horiz-adv-x="227" 
d="M191 0h-70q-15 0 -21 6t-6 21v713h21v-721h76v-19zM192 939l-103 -152l-15 10l99 154z" />
    <glyph glyph-name="Lcommaaccent" unicode="&#x13b;" horiz-adv-x="428" 
d="M410 0h-313v698h22v-678h291v-20zM264 -66q12 0 17 -6t5 -16v-11q0 -25 -12.5 -58t-32.5 -55h-18q22 24 32.5 52t12.5 44q-16 0 -22 6t-6 14v8q0 10 5.5 16t18.5 6z" />
    <glyph glyph-name="lcommaaccent" unicode="&#x13c;" horiz-adv-x="227" 
d="M191 0h-70q-15 0 -21 6t-6 21v713h21v-721h76v-19zM147 -66q12 0 17 -6t5 -16v-11q0 -25 -12.5 -58t-32.5 -55h-18q22 24 32.5 52t12.5 44q-16 0 -22 6t-6 14v8q0 10 5.5 16t18.5 6z" />
    <glyph glyph-name="Lcaron" unicode="&#x13d;" horiz-adv-x="428" 
d="M410 0h-313v698h22v-678h291v-20zM249 740l-24 -176h-17l16 176h25z" />
    <glyph glyph-name="lcaron" unicode="&#x13e;" horiz-adv-x="227" 
d="M191 0h-70q-15 0 -21 6t-6 21v713h21v-721h76v-19zM234 740l-24 -176h-17l16 176h25z" />
    <glyph glyph-name="Ldot" unicode="&#x13f;" horiz-adv-x="428" 
d="M410 0h-313v698h22v-678h291v-20zM324 270q-13 0 -18 6.5t-5 14.5v7q0 8 5 14.5t18 6.5t18 -6.5t5 -14.5v-7q0 -8 -5 -14.5t-18 -6.5z" />
    <glyph glyph-name="ldot" unicode="&#x140;" horiz-adv-x="242" 
d="M191 0h-70q-15 0 -21 6t-6 21v713h21v-721h76v-19zM227 239q-13 0 -18 6.5t-5 14.5v7q0 8 5 14.5t18 6.5t18 -6.5t5 -14.5v-7q0 -8 -5 -14.5t-18 -6.5z" />
    <glyph glyph-name="Lslash" unicode="&#x141;" horiz-adv-x="428" 
d="M412 20v-20h-313v303l-84 -30v19l84 30v376h22v-369l184 65v-19l-184 -65v-290h291z" />
    <glyph glyph-name="lslash" unicode="&#x142;" horiz-adv-x="232" 
d="M191 19v-19h-70q-15 0 -21 6t-6 21v324l-65 -23v19l65 23v370h21v-362l85 30v-19l-85 -30v-340h76z" />
    <glyph glyph-name="Nacute" unicode="&#x143;" horiz-adv-x="623" 
d="M489 0l-274 508l-92 170h-4v-170v-508h-22v698h38l274 -508l92 -170h4v170v508h22v-698h-38zM400 919l-103 -152l-15 10l99 154z" />
    <glyph glyph-name="nacute" unicode="&#x144;" horiz-adv-x="501" 
d="M115 0h-21v506h21v-76h6q13 38 52.5 63t94.5 25q71 0 109.5 -43.5t38.5 -122.5v-352h-21v352q0 69 -33 108t-95 39q-40 0 -75 -16.5t-56 -48t-21 -75.5v-359zM344 739l-103 -152l-15 10l99 154z" />
    <glyph glyph-name="Ncommaaccent" unicode="&#x145;" horiz-adv-x="623" 
d="M489 0l-274 508l-92 170h-4v-170v-508h-22v698h38l274 -508l92 -170h4v170v508h22v-698h-38zM313 -66q12 0 17 -6t5 -16v-11q0 -25 -12.5 -58t-32.5 -55h-18q22 24 32.5 52t12.5 44q-16 0 -22 6t-6 14v8q0 10 5.5 16t18.5 6z" />
    <glyph glyph-name="ncommaaccent" unicode="&#x146;" horiz-adv-x="501" 
d="M115 0h-21v506h21v-76h6q13 38 52.5 63t94.5 25q71 0 109.5 -43.5t38.5 -122.5v-352h-21v352q0 69 -33 108t-95 39q-40 0 -75 -16.5t-56 -48t-21 -75.5v-359zM256 -66q12 0 17 -6t5 -16v-11q0 -25 -12.5 -58t-32.5 -55h-18q22 24 32.5 52t12.5 44q-16 0 -22 6t-6 14v8
q0 10 5.5 16t18.5 6z" />
    <glyph glyph-name="Ncaron" unicode="&#x147;" horiz-adv-x="623" 
d="M489 0l-274 508l-92 170h-4v-170v-508h-22v698h38l274 -508l92 -170h4v170v508h22v-698h-38zM324 783h-24l-100 133l14 11l98 -127l98 127l14 -11z" />
    <glyph glyph-name="ncaron" unicode="&#x148;" horiz-adv-x="501" 
d="M115 0h-21v506h21v-76h6q13 38 52.5 63t94.5 25q71 0 109.5 -43.5t38.5 -122.5v-352h-21v352q0 69 -33 108t-95 39q-40 0 -75 -16.5t-56 -48t-21 -75.5v-359zM268 603h-24l-100 133l14 11l98 -127l98 127l14 -11z" />
    <glyph glyph-name="napostrophe" unicode="&#x149;" horiz-adv-x="719" 
d="M109 741q13 0 19.5 -6t6.5 -18v-8q0 -47 -21 -92t-50 -74h-19q32 35 47.5 73t16.5 69q-13 0 -19.5 6t-6.5 18v8q0 12 6.5 18t19.5 6zM333 0h-21v506h21v-76h6q13 38 52.5 63t94.5 25q71 0 109.5 -43.5t38.5 -122.5v-352h-21v352q0 69 -33 108t-95 39q-40 0 -75 -16.5
t-56 -48t-21 -75.5v-359z" />
    <glyph glyph-name="Eng" unicode="&#x14a;" horiz-adv-x="623" 
d="M119 0h-22v698h38l274 -508l92 -170h4v170v508h22v-871q0 -15 -6 -21t-21 -6h-71v19h76v181h-16l-274 508l-92 170h-4v-170v-508z" />
    <glyph glyph-name="eng" unicode="&#x14b;" horiz-adv-x="501" 
d="M318 -200v19h77v533q0 69 -33 108t-95 39q-40 0 -75 -16.5t-56 -48t-21 -75.5v-359h-21v506h21v-76h6q13 38 52.5 63t94.5 25q71 0 109.5 -43.5t38.5 -122.5v-525q0 -15 -6 -21t-21 -6h-71z" />
    <glyph glyph-name="Omacron" unicode="&#x14c;" horiz-adv-x="614" 
d="M307 -12q-74 0 -129 33t-85 111.5t-30 216.5t30 217t85 111.5t129 32.5t129 -32.5t85 -111.5t30 -217t-30 -216.5t-85 -111.5t-129 -33zM307 8q69 0 118 31.5t75.5 98.5t26.5 172v78q0 106 -26.5 172.5t-75.5 98t-118 31.5t-118 -31.5t-75.5 -98t-26.5 -172.5v-78
q0 -105 26.5 -172t75.5 -98.5t118 -31.5zM194 838v18h226v-18h-226z" />
    <glyph glyph-name="omacron" unicode="&#x14d;" horiz-adv-x="488" 
d="M244 -12q-60 0 -102.5 28t-65 86.5t-22.5 150.5t22.5 150.5t65 86.5t102.5 28q61 0 103 -28t64.5 -86.5t22.5 -150.5t-22.5 -150.5t-64.5 -86.5t-103 -28zM244 7q80 0 123.5 56.5t43.5 155.5v68q0 99 -43.5 155.5t-123.5 56.5t-123.5 -56.5t-43.5 -155.5v-68
q0 -99 43.5 -155.5t123.5 -56.5zM131 658v18h226v-18h-226z" />
    <glyph glyph-name="Obreve" unicode="&#x14e;" horiz-adv-x="614" 
d="M307 -12q-74 0 -129 33t-85 111.5t-30 216.5t30 217t85 111.5t129 32.5t129 -32.5t85 -111.5t30 -217t-30 -216.5t-85 -111.5t-129 -33zM307 8q69 0 118 31.5t75.5 98.5t26.5 172v78q0 106 -26.5 172.5t-75.5 98t-118 31.5t-118 -31.5t-75.5 -98t-26.5 -172.5v-78
q0 -105 26.5 -172t75.5 -98.5t118 -31.5zM307 786q-21 0 -36.5 6t-28 19.5t-22 36t-18.5 55.5l16 7l9 -27q14 -43 32 -60.5t48 -17.5t48 17.5t32 60.5l9 27l16 -7q-12 -44 -25.5 -70t-32.5 -36.5t-47 -10.5z" />
    <glyph glyph-name="obreve" unicode="&#x14f;" horiz-adv-x="488" 
d="M244 -12q-60 0 -102.5 28t-65 86.5t-22.5 150.5t22.5 150.5t65 86.5t102.5 28q61 0 103 -28t64.5 -86.5t22.5 -150.5t-22.5 -150.5t-64.5 -86.5t-103 -28zM244 7q80 0 123.5 56.5t43.5 155.5v68q0 99 -43.5 155.5t-123.5 56.5t-123.5 -56.5t-43.5 -155.5v-68
q0 -99 43.5 -155.5t123.5 -56.5zM244 606q-21 0 -36.5 6t-28 19.5t-22 36t-18.5 55.5l16 7l9 -27q14 -43 32 -60.5t48 -17.5t48 17.5t32 60.5l9 27l16 -7q-9 -33 -18.5 -55.5t-22 -36t-28 -19.5t-36.5 -6z" />
    <glyph glyph-name="Ohungarumlaut" unicode="&#x150;" horiz-adv-x="614" 
d="M307 -12q-74 0 -129 33t-85 111.5t-30 216.5t30 217t85 111.5t129 32.5t129 -32.5t85 -111.5t30 -217t-30 -216.5t-85 -111.5t-129 -33zM307 8q69 0 118 31.5t75.5 98.5t26.5 172v78q0 106 -26.5 172.5t-75.5 98t-118 31.5t-118 -31.5t-75.5 -98t-26.5 -172.5v-78
q0 -105 26.5 -172t75.5 -98.5t118 -31.5zM339 919l-103 -152l-15 10l99 154zM483 919l-103 -152l-15 10l99 154z" />
    <glyph glyph-name="ohungarumlaut" unicode="&#x151;" horiz-adv-x="488" 
d="M244 -12q-60 0 -102.5 28t-65 86.5t-22.5 150.5t22.5 150.5t65 86.5t102.5 28q61 0 103 -28t64.5 -86.5t22.5 -150.5t-22.5 -150.5t-64.5 -86.5t-103 -28zM244 7q80 0 123.5 56.5t43.5 155.5v68q0 99 -43.5 155.5t-123.5 56.5t-123.5 -56.5t-43.5 -155.5v-68
q0 -99 43.5 -155.5t123.5 -56.5zM276 739l-103 -152l-15 10l99 154zM420 739l-103 -152l-15 10l99 154z" />
    <glyph glyph-name="OE" unicode="&#x152;" horiz-adv-x="872" 
d="M807 0h-344q-22 -4 -56 -8t-72 -4q-82 0 -143.5 33t-95 111.5t-33.5 216.5t33.5 217t95 111.5t143.5 32.5q38 0 72 -3.5t56 -8.5h344v-20h-322v-314h311v-20h-311v-324h322v-20zM335 8q41 0 74 4.5t54 9.5v654q-21 5 -54.5 9.5t-73.5 4.5q-115 0 -181.5 -72t-66.5 -230
v-78q0 -158 66.5 -230t181.5 -72z" />
    <glyph glyph-name="oe" unicode="&#x153;" horiz-adv-x="836" 
d="M244 7q80 0 123.5 56.5t43.5 155.5v68q0 99 -43.5 155.5t-123.5 56.5t-123.5 -56.5t-43.5 -155.5v-68q0 -99 43.5 -155.5t123.5 -56.5zM434 275h327v12q0 66 -17.5 113.5t-53 73t-89.5 25.5q-53 0 -90.5 -25.5t-57 -73t-19.5 -113.5v-12zM601 -12q-45 0 -80.5 16.5
t-59.5 50.5t-36 86h-6q-18 -79 -62 -116t-113 -37q-60 0 -102.5 28t-65 86.5t-22.5 150.5t22.5 150.5t65 86.5t102.5 28q69 0 113 -37t62 -116h6q18 79 63 116t113 37q61 0 101.5 -28.5t61 -84.5t20.5 -139v-10h-350v-37q0 -99 43.5 -155.5t123.5 -56.5q66 0 103.5 30.5
t56.5 91.5l17 -7q-19 -67 -61 -100.5t-116 -33.5z" />
    <glyph glyph-name="Racute" unicode="&#x154;" horiz-adv-x="567" 
d="M119 322v-322h-22v698h236q56 0 92 -21.5t53.5 -63.5t17.5 -103q0 -91 -39.5 -139.5t-120.5 -48.5l173 -322h-24l-171 322h-195zM119 342h216q45 0 75.5 16.5t46 48t15.5 74.5v58q0 44 -15.5 75t-46 47.5t-75.5 16.5h-216v-336zM362 919l-103 -152l-15 10l99 154z" />
    <glyph glyph-name="racute" unicode="&#x155;" horiz-adv-x="308" 
d="M115 0h-21v506h21v-88h6q10 27 29 47t46 30.5t61 10.5h39v-19h-39q-38 0 -70.5 -17.5t-52 -49t-19.5 -72.5v-348zM287 739l-103 -152l-15 10l99 154z" />
    <glyph glyph-name="Rcommaaccent" unicode="&#x156;" horiz-adv-x="567" 
d="M119 322v-322h-22v698h236q56 0 92 -21.5t53.5 -63.5t17.5 -103q0 -91 -39.5 -139.5t-120.5 -48.5l173 -322h-24l-171 322h-195zM119 342h216q45 0 75.5 16.5t46 48t15.5 74.5v58q0 44 -15.5 75t-46 47.5t-75.5 16.5h-216v-336zM276 -66q12 0 17 -6t5 -16v-11
q0 -25 -12.5 -58t-32.5 -55h-18q22 24 32.5 52t12.5 44q-16 0 -22 6t-6 14v8q0 10 5.5 16t18.5 6z" />
    <glyph glyph-name="rcommaaccent" unicode="&#x157;" horiz-adv-x="308" 
d="M115 0h-21v506h21v-88h6q10 27 29 47t46 30.5t61 10.5h39v-19h-39q-38 0 -70.5 -17.5t-52 -49t-19.5 -72.5v-348zM106 -66q12 0 17 -6t5 -16v-11q0 -25 -12.5 -58t-32.5 -55h-18q22 24 32.5 52t12.5 44q-16 0 -22 6t-6 14v8q0 10 5.5 16t18.5 6z" />
    <glyph glyph-name="Rcaron" unicode="&#x158;" horiz-adv-x="567" 
d="M119 322v-322h-22v698h236q56 0 92 -21.5t53.5 -63.5t17.5 -103q0 -91 -39.5 -139.5t-120.5 -48.5l173 -322h-24l-171 322h-195zM119 342h216q45 0 75.5 16.5t46 48t15.5 74.5v58q0 44 -15.5 75t-46 47.5t-75.5 16.5h-216v-336zM286 783h-24l-100 133l14 11l98 -127
l98 127l14 -11z" />
    <glyph glyph-name="rcaron" unicode="&#x159;" horiz-adv-x="308" 
d="M115 0h-21v506h21v-88h6q10 27 29 47t46 30.5t61 10.5h39v-19h-39q-38 0 -70.5 -17.5t-52 -49t-19.5 -72.5v-348zM211 603h-24l-100 133l14 11l98 -127l98 127l14 -11z" />
    <glyph glyph-name="Sacute" unicode="&#x15a;" horiz-adv-x="494" 
d="M247 -12q-79 0 -126.5 32t-82.5 82l18 13q34 -49 76.5 -78t114.5 -29q84 0 128.5 40.5t44.5 125.5q0 47 -16 79.5t-48 54t-81 32.5l-63 15q-55 13 -90.5 34.5t-52 56.5t-16.5 87q0 62 24 101t67.5 57.5t102.5 18.5q73 0 115 -25.5t69 -68.5l-18 -13q-28 44 -64.5 65.5
t-101.5 21.5q-79 0 -125.5 -37.5t-46.5 -119.5q0 -47 14.5 -77.5t46.5 -49t82 -30.5l63 -15q56 -13 91.5 -36.5t52.5 -59.5t17 -89q0 -65 -23 -107t-66.5 -61.5t-105.5 -19.5zM330 919l-103 -152l-15 10l99 154z" />
    <glyph glyph-name="sacute" unicode="&#x15b;" horiz-adv-x="417" 
d="M208 -12q-54 0 -93 21t-71 70l17 12q31 -47 64.5 -65.5t82.5 -18.5q64 0 99 29t35 89q0 56 -27 83t-85 37l-41 7q-42 7 -71.5 23t-44.5 43.5t-15 70.5q0 64 41.5 96.5t106.5 32.5q39 0 67 -9.5t47.5 -25.5t34.5 -36l-16 -14q-21 29 -50 47.5t-82 18.5q-57 0 -92 -27
t-35 -82t27 -81.5t86 -36.5l41 -7q63 -10 96.5 -41.5t33.5 -97.5q0 -46 -19 -76.5t-54 -46t-83 -15.5zM289 739l-103 -152l-15 10l99 154z" />
    <glyph glyph-name="Scircumflex" unicode="&#x15c;" horiz-adv-x="494" 
d="M247 -12q-79 0 -126.5 32t-82.5 82l18 13q34 -49 76.5 -78t114.5 -29q84 0 128.5 40.5t44.5 125.5q0 47 -16 79.5t-48 54t-81 32.5l-63 15q-55 13 -90.5 34.5t-52 56.5t-16.5 87q0 62 24 101t67.5 57.5t102.5 18.5q73 0 115 -25.5t69 -68.5l-18 -13q-28 44 -64.5 65.5
t-101.5 21.5q-79 0 -125.5 -37.5t-46.5 -119.5q0 -47 14.5 -77.5t46.5 -49t82 -30.5l63 -15q56 -13 91.5 -36.5t52.5 -59.5t17 -89q0 -65 -23 -107t-66.5 -61.5t-105.5 -19.5zM230 923h24l100 -133l-14 -11l-98 127l-98 -127l-14 11z" />
    <glyph glyph-name="scircumflex" unicode="&#x15d;" horiz-adv-x="417" 
d="M208 -12q-54 0 -93 21t-71 70l17 12q31 -47 64.5 -65.5t82.5 -18.5q64 0 99 29t35 89q0 56 -27 83t-85 37l-41 7q-42 7 -71.5 23t-44.5 43.5t-15 70.5q0 64 41.5 96.5t106.5 32.5q39 0 67 -9.5t47.5 -25.5t34.5 -36l-16 -14q-21 29 -50 47.5t-82 18.5q-57 0 -92 -27
t-35 -82t27 -81.5t86 -36.5l41 -7q63 -10 96.5 -41.5t33.5 -97.5q0 -46 -19 -76.5t-54 -46t-83 -15.5zM189 743h24l100 -133l-14 -11l-98 127l-98 -127l-14 11z" />
    <glyph glyph-name="Scedilla" unicode="&#x15e;" horiz-adv-x="494" 
d="M247 690q-79 0 -125.5 -37.5t-46.5 -119.5q0 -47 14.5 -77.5t46.5 -49t82 -30.5l63 -15q56 -13 91.5 -36.5t52.5 -59.5t17 -89q0 -98 -50 -143t-139 -45l-14 -66h4q5 3 11 4.5t13 1.5q28 0 46 -15.5t18 -47.5q0 -19 -8.5 -34.5t-25 -24t-41.5 -8.5q-26 0 -45.5 9.5
t-27.5 22.5l12 12q10 -13 24.5 -19.5t36.5 -6.5q26 0 40.5 13.5t14.5 35.5q0 23 -14.5 36t-40.5 13h-37l17 74q-73 2 -119 33.5t-79 80.5l18 13q34 -49 76.5 -78t114.5 -29q84 0 128.5 40.5t44.5 125.5q0 47 -16 79.5t-48 54t-81 32.5l-63 15q-55 13 -90.5 34.5t-52 56.5
t-16.5 87q0 62 24 101t67.5 57.5t102.5 18.5q73 0 115 -25.5t69 -68.5l-18 -13q-28 44 -64.5 65.5t-101.5 21.5z" />
    <glyph glyph-name="scedilla" unicode="&#x15f;" horiz-adv-x="417" 
d="M222 -202q-26 0 -45.5 9.5t-27.5 22.5l12 12q10 -13 24.5 -19.5t36.5 -6.5q26 0 40.5 13.5t14.5 35.5q0 23 -14.5 36t-40.5 13h-37l17 74q-52 1 -89.5 22t-68.5 69l17 12q31 -47 64.5 -65.5t82.5 -18.5q64 0 99 29t35 89q0 56 -27 83t-85 37l-41 7q-42 7 -71.5 23
t-44.5 43.5t-15 70.5q0 64 41.5 96.5t106.5 32.5q39 0 67 -9.5t47.5 -25.5t34.5 -36l-16 -14q-21 29 -50 47.5t-82 18.5q-57 0 -92 -27t-35 -82t27 -81.5t86 -36.5l41 -7q63 -10 96.5 -41.5t33.5 -97.5t-39 -100.5t-106 -37.5l-14 -66h4q5 3 11 4.5t13 1.5q28 0 46 -15.5
t18 -47.5q0 -19 -8.5 -34.5t-25 -24t-41.5 -8.5z" />
    <glyph glyph-name="Scaron" unicode="&#x160;" horiz-adv-x="494" 
d="M247 -12q-79 0 -126.5 32t-82.5 82l18 13q34 -49 76.5 -78t114.5 -29q84 0 128.5 40.5t44.5 125.5q0 47 -16 79.5t-48 54t-81 32.5l-63 15q-55 13 -90.5 34.5t-52 56.5t-16.5 87q0 62 24 101t67.5 57.5t102.5 18.5q73 0 115 -25.5t69 -68.5l-18 -13q-28 44 -64.5 65.5
t-101.5 21.5q-79 0 -125.5 -37.5t-46.5 -119.5q0 -47 14.5 -77.5t46.5 -49t82 -30.5l63 -15q56 -13 91.5 -36.5t52.5 -59.5t17 -89q0 -65 -23 -107t-66.5 -61.5t-105.5 -19.5zM254 783h-24l-100 133l14 11l98 -127l98 127l14 -11z" />
    <glyph glyph-name="scaron" unicode="&#x161;" horiz-adv-x="417" 
d="M208 -12q-54 0 -93 21t-71 70l17 12q31 -47 64.5 -65.5t82.5 -18.5q64 0 99 29t35 89q0 56 -27 83t-85 37l-41 7q-42 7 -71.5 23t-44.5 43.5t-15 70.5q0 64 41.5 96.5t106.5 32.5q39 0 67 -9.5t47.5 -25.5t34.5 -36l-16 -14q-21 29 -50 47.5t-82 18.5q-57 0 -92 -27
t-35 -82t27 -81.5t86 -36.5l41 -7q63 -10 96.5 -41.5t33.5 -97.5q0 -46 -19 -76.5t-54 -46t-83 -15.5zM213 603h-24l-100 133l14 11l98 -127l98 127l14 -11z" />
    <glyph glyph-name="uni0162" unicode="&#x162;" horiz-adv-x="504" 
d="M261 -202q-26 0 -45.5 9.5t-27.5 22.5l12 12q10 -13 24.5 -19.5t36.5 -6.5q26 0 40.5 13.5t14.5 35.5q0 23 -14.5 36t-40.5 13h-37l19 86h-2v678h-226v20h474v-20h-226v-678h-3l-16 -78h4q5 3 11 4.5t13 1.5q28 0 46 -15.5t18 -47.5q0 -19 -8.5 -34.5t-25 -24t-41.5 -8.5
z" />
    <glyph glyph-name="uni0163" unicode="&#x163;" horiz-adv-x="280" 
d="M181 -202q-26 0 -45.5 9.5t-27.5 22.5l12 12q10 -13 24.5 -19.5t36.5 -6.5q26 0 40.5 13.5t14.5 35.5q0 23 -14.5 36t-40.5 13h-37l22 100l8 -14h-35q-15 0 -21 6t-6 21v460h-85v19h64q13 0 17 5.5t4 18.5v120h21v-144h105v-19h-105v-468h100v-19h-53l-16 -78h4
q5 3 11 4.5t13 1.5q28 0 46 -15.5t18 -47.5q0 -19 -8.5 -34.5t-25 -24t-41.5 -8.5z" />
    <glyph glyph-name="Tcaron" unicode="&#x164;" horiz-adv-x="504" 
d="M489 678h-226v-678h-22v678h-226v20h474v-20zM264 783h-24l-100 133l14 11l98 -127l98 127l14 -11z" />
    <glyph glyph-name="tcaron" unicode="&#x165;" horiz-adv-x="280" 
d="M233 0h-94q-15 0 -21 6t-6 21v460h-85v19h64q13 0 17 5.5t4 18.5v120h21v-144h105v-19h-105v-468h100v-19zM252 740l-24 -176h-17l16 176h25z" />
    <glyph glyph-name="Tbar" unicode="&#x166;" horiz-adv-x="504" 
d="M429 365h-166v-365h-22v365h-166v18h166v295h-226v20h474v-20h-226v-295h166v-18z" />
    <glyph glyph-name="tbar" unicode="&#x167;" horiz-adv-x="286" 
d="M233 19v-19h-94q-15 0 -21 6t-6 21v253h-60v19h60v188h-85v19h64q13 0 17 5.5t4 18.5v120h21v-144h105v-19h-105v-188h90v-19h-90v-261h100z" />
    <glyph glyph-name="Utilde" unicode="&#x168;" horiz-adv-x="588" 
d="M90 698h22v-450q0 -87 16.5 -140t56.5 -76.5t109 -23.5q70 0 109.5 23.5t56 76.5t16.5 140v450h22v-448q0 -96 -19.5 -153.5t-64 -83t-120.5 -25.5t-120.5 25.5t-64 83t-19.5 153.5v448zM357 808q-16 0 -31 7t-38 23q-19 14 -33 20t-27 6q-16 0 -30 -8t-28 -25l-12 13
q17 20 34 29t36 9q16 0 31.5 -6.5t37.5 -23.5q20 -14 33.5 -20t26.5 -6q17 0 30.5 8.5t27.5 24.5l12 -13q-16 -20 -33 -29t-37 -9z" />
    <glyph glyph-name="utilde" unicode="&#x169;" horiz-adv-x="501" 
d="M395 0v76h-6q-13 -37 -52 -62.5t-95 -25.5q-72 0 -110 43t-38 123v352h21v-352q0 -69 33.5 -108t94.5 -39q41 0 75.5 16.5t55.5 48t21 75.5v359h21v-506h-21zM310 628q-16 0 -31 7t-38 23q-19 14 -33 20t-27 6q-16 0 -30 -8t-28 -25l-12 13q17 20 34 29t36 9
q16 0 31.5 -6.5t37.5 -23.5q20 -14 33.5 -20t26.5 -6q17 0 30.5 8.5t27.5 24.5l12 -13q-16 -20 -33 -29t-37 -9z" />
    <glyph glyph-name="Umacron" unicode="&#x16a;" horiz-adv-x="588" 
d="M90 698h22v-450q0 -87 16.5 -140t56.5 -76.5t109 -23.5q70 0 109.5 23.5t56 76.5t16.5 140v450h22v-448q0 -96 -19.5 -153.5t-64 -83t-120.5 -25.5t-120.5 25.5t-64 83t-19.5 153.5v448zM180 838v18h226v-18h-226z" />
    <glyph glyph-name="umacron" unicode="&#x16b;" horiz-adv-x="501" 
d="M395 0v76h-6q-13 -37 -52 -62.5t-95 -25.5q-72 0 -110 43t-38 123v352h21v-352q0 -69 33.5 -108t94.5 -39q41 0 75.5 16.5t55.5 48t21 75.5v359h21v-506h-21zM133 658v18h226v-18h-226z" />
    <glyph glyph-name="Ubreve" unicode="&#x16c;" horiz-adv-x="588" 
d="M90 698h22v-450q0 -87 16.5 -140t56.5 -76.5t109 -23.5q70 0 109.5 23.5t56 76.5t16.5 140v450h22v-448q0 -96 -19.5 -153.5t-64 -83t-120.5 -25.5t-120.5 25.5t-64 83t-19.5 153.5v448zM293 786q-21 0 -36.5 6t-28 19.5t-22 36t-18.5 55.5l16 7l9 -27q14 -43 32 -60.5
t48 -17.5t48 17.5t32 60.5l9 27l16 -7q-12 -44 -25.5 -70t-32.5 -36.5t-47 -10.5z" />
    <glyph glyph-name="ubreve" unicode="&#x16d;" horiz-adv-x="501" 
d="M395 0v76h-6q-13 -37 -52 -62.5t-95 -25.5q-72 0 -110 43t-38 123v352h21v-352q0 -69 33.5 -108t94.5 -39q41 0 75.5 16.5t55.5 48t21 75.5v359h21v-506h-21zM246 606q-21 0 -36.5 6t-28 19.5t-22 36t-18.5 55.5l16 7l9 -27q14 -43 32 -60.5t48 -17.5t48 17.5t32 60.5
l9 27l16 -7q-9 -33 -18.5 -55.5t-22 -36t-28 -19.5t-36.5 -6z" />
    <glyph glyph-name="Uring" unicode="&#x16e;" horiz-adv-x="588" 
d="M90 698h22v-450q0 -87 16.5 -140t56.5 -76.5t109 -23.5q70 0 109.5 23.5t56 76.5t16.5 140v450h22v-448q0 -96 -19.5 -153.5t-64 -83t-120.5 -25.5t-120.5 25.5t-64 83t-19.5 153.5v448zM293 769q-26 0 -45.5 11.5t-30 32t-10.5 47.5t10.5 47.5t30 32t45.5 11.5
t45.5 -11.5t30 -32t10.5 -47.5t-10.5 -47.5t-30 -32t-45.5 -11.5zM293 787q31 0 48.5 18.5t17.5 49.5v10q0 31 -17.5 49.5t-48.5 18.5t-48.5 -18.5t-17.5 -49.5v-10q0 -31 17.5 -49.5t48.5 -18.5z" />
    <glyph glyph-name="uring" unicode="&#x16f;" horiz-adv-x="501" 
d="M395 0v76h-6q-13 -37 -52 -62.5t-95 -25.5q-72 0 -110 43t-38 123v352h21v-352q0 -69 33.5 -108t94.5 -39q41 0 75.5 16.5t55.5 48t21 75.5v359h21v-506h-21zM246 589q-26 0 -45.5 11.5t-30 32t-10.5 47.5t10.5 47.5t30 32t45.5 11.5t45.5 -11.5t30 -32t10.5 -47.5
t-10.5 -47.5t-30 -32t-45.5 -11.5zM246 607q31 0 48.5 18.5t17.5 49.5v10q0 31 -17.5 49.5t-48.5 18.5t-48.5 -18.5t-17.5 -49.5v-10q0 -31 17.5 -49.5t48.5 -18.5z" />
    <glyph glyph-name="Uhungarumlaut" unicode="&#x170;" horiz-adv-x="588" 
d="M90 698h22v-450q0 -87 16.5 -140t56.5 -76.5t109 -23.5q70 0 109.5 23.5t56 76.5t16.5 140v450h22v-448q0 -96 -19.5 -153.5t-64 -83t-120.5 -25.5t-120.5 25.5t-64 83t-19.5 153.5v448zM325 919l-103 -152l-15 10l99 154zM469 919l-103 -152l-15 10l99 154z" />
    <glyph glyph-name="uhungarumlaut" unicode="&#x171;" horiz-adv-x="501" 
d="M395 0v76h-6q-13 -37 -52 -62.5t-95 -25.5q-72 0 -110 43t-38 123v352h21v-352q0 -69 33.5 -108t94.5 -39q41 0 75.5 16.5t55.5 48t21 75.5v359h21v-506h-21zM278 739l-103 -152l-15 10l99 154zM422 739l-103 -152l-15 10l99 154z" />
    <glyph glyph-name="Uogonek" unicode="&#x172;" horiz-adv-x="588" 
d="M90 698h22v-450q0 -87 16.5 -140t56.5 -76.5t109 -23.5q70 0 109.5 23.5t56 76.5t16.5 140v450h22v-448q0 -62 -8 -107.5t-25 -76.5t-46 -50q-50 -33 -78.5 -60t-40.5 -49.5t-12 -44.5q0 -23 14.5 -34.5t37.5 -11.5q21 0 34 8t20 17l13 -11q-8 -13 -25.5 -22.5
t-42.5 -9.5q-32 0 -51.5 16t-19.5 47q0 23 10.5 44t34.5 43t62 47v3q-18 -5 -37.5 -7.5t-43.5 -2.5q-76 0 -120.5 25.5t-64 83t-19.5 153.5v448z" />
    <glyph glyph-name="uogonek" unicode="&#x173;" horiz-adv-x="501" 
d="M416 506v-506q-38 -28 -61.5 -51t-34 -43.5t-10.5 -41.5q0 -25 14.5 -36.5t37.5 -11.5q21 0 34 8t20 17l13 -11q-8 -13 -25.5 -22.5t-42.5 -9.5q-21 0 -37 7t-25 21.5t-9 34.5q0 32 26.5 66t84.5 73v-6h-6v82h-6q-13 -37 -52 -62.5t-95 -25.5q-72 0 -110 43t-38 123v352
h21v-352q0 -69 33.5 -108t94.5 -39q41 0 75.5 16.5t55.5 48t21 75.5v359h21z" />
    <glyph glyph-name="Wcircumflex" unicode="&#x174;" horiz-adv-x="785" 
d="M226 0h-36l-163 698h24l105 -461l50 -217h4l53 217l111 461h36l113 -461l53 -217h4l50 217l105 461h24l-163 -698h-36l-113 461l-53 217h-4l-52 -217zM378 923h24l100 -133l-14 -11l-98 127l-98 -127l-14 11z" />
    <glyph glyph-name="wcircumflex" unicode="&#x175;" horiz-adv-x="654" 
d="M165 0l-134 506h22l85 -322l43 -164h4l42 164l82 322h36l83 -322l42 -164h4l43 164l85 322h22l-134 -506h-36l-83 322l-42 164h-4l-42 -164l-82 -322h-36zM315 743h24l100 -133l-14 -11l-98 127l-98 -127l-14 11z" />
    <glyph glyph-name="Ycircumflex" unicode="&#x176;" horiz-adv-x="493" 
d="M257 0h-22v294l-216 404h24l200 -374h6l200 374h24l-216 -404v-294zM234 923h24l100 -133l-14 -11l-98 127l-98 -127l-14 11z" />
    <glyph glyph-name="ycircumflex" unicode="&#x177;" horiz-adv-x="408" 
d="M259 184l105 322h22l-224 -687q-2 -7 -5.5 -11t-8 -6t-12.5 -2h-84v19h89l52 162l-171 525h22l105 -322l53 -165h4zM194 743h24l100 -133l-14 -11l-98 127l-98 -127l-14 11z" />
    <glyph glyph-name="Ydieresis" unicode="&#x178;" horiz-adv-x="493" 
d="M257 0h-22v294l-216 404h24l200 -374h6l200 374h24l-216 -404v-294zM171 819q-13 0 -18 6.5t-5 14.5v7q0 8 5 14.5t18 6.5t18 -6.5t5 -14.5v-7q0 -8 -5 -14.5t-18 -6.5zM321 819q-13 0 -18 6.5t-5 14.5v7q0 8 5 14.5t18 6.5t18 -6.5t5 -14.5v-7q0 -8 -5 -14.5t-18 -6.5z
" />
    <glyph glyph-name="Zacute" unicode="&#x179;" horiz-adv-x="500" 
d="M475 20v-20h-440v22l396 656h-376v20h400v-22l-396 -656h416zM342 919l-103 -152l-15 10l99 154z" />
    <glyph glyph-name="zacute" unicode="&#x17a;" horiz-adv-x="377" 
d="M358 0h-333v21l303 466h-295v19h317v-21l-302 -466h310v-19zM277 739l-103 -152l-15 10l99 154z" />
    <glyph glyph-name="Zdotaccent" unicode="&#x17b;" horiz-adv-x="500" 
d="M475 20v-20h-440v22l396 656h-376v20h400v-22l-396 -656h416zM254 822q-13 0 -18 6.5t-5 14.5v7q0 8 5 14.5t18 6.5t18 -6.5t5 -14.5v-7q0 -8 -5 -14.5t-18 -6.5z" />
    <glyph glyph-name="zdotaccent" unicode="&#x17c;" horiz-adv-x="377" 
d="M358 0h-333v21l303 466h-295v19h317v-21l-302 -466h310v-19zM189 642q-13 0 -18 6.5t-5 14.5v7q0 8 5 14.5t18 6.5t18 -6.5t5 -14.5v-7q0 -8 -5 -14.5t-18 -6.5z" />
    <glyph glyph-name="Zcaron" unicode="&#x17d;" horiz-adv-x="500" 
d="M475 20v-20h-440v22l396 656h-376v20h400v-22l-396 -656h416zM266 783h-24l-100 133l14 11l98 -127l98 127l14 -11z" />
    <glyph glyph-name="zcaron" unicode="&#x17e;" horiz-adv-x="377" 
d="M358 0h-333v21l303 466h-295v19h317v-21l-302 -466h310v-19zM201 603h-24l-100 133l14 11l98 -127l98 127l14 -11z" />
    <glyph glyph-name="uni017F" unicode="&#x17f;" horiz-adv-x="225" 
d="M110 0v487h-85v19h85v207q0 15 6 21t21 6h99v-19h-105v-721h-21z" />
    <glyph glyph-name="uni018F" unicode="&#x18f;" horiz-adv-x="614" 
d="M63 351h464v37q0 158 -58.5 230t-161.5 72q-78 0 -131 -41t-75 -130l-20 5q17 70 49 110.5t77 58t100 17.5q74 0 129 -32.5t85 -111.5t30 -217t-30 -216.5t-85 -111.5t-129 -33t-129 33t-85 111.5t-30 216.5v2zM87 331v-21q0 -105 26.5 -172t75.5 -98.5t118 -31.5
t118 31.5t75.5 98.5t26.5 172v21h-440z" />
    <glyph glyph-name="florin" unicode="&#x192;" horiz-adv-x="439" 
d="M-3 -134l2 19h159l38 426h-155l2 19h155l31 348q1 10 6.5 15t18.5 5h163l-2 -19h-165l-31 -349h187l-2 -19h-187l-38 -425q-1 -10 -6 -15t-19 -5h-157z" />
    <glyph glyph-name="Ohorn" unicode="&#x1a0;" horiz-adv-x="614" 
d="M529 809h20v-105q0 -15 -4.5 -19.5t-19.5 -4.5h-107v-4q40 -13 69.5 -50t46.5 -104t17 -173q0 -138 -30 -216.5t-85 -111.5t-129 -33t-129 33t-85 111.5t-30 216.5t30 217t85 111.5t129 32.5q23 0 44.5 -2.5t40.5 -9.5h137v111zM307 8q69 0 118 31.5t75.5 98.5t26.5 172
v78q0 106 -26.5 172.5t-75.5 98t-118 31.5t-118 -31.5t-75.5 -98t-26.5 -172.5v-78q0 -105 26.5 -172t75.5 -98.5t118 -31.5z" />
    <glyph glyph-name="ohorn" unicode="&#x1a1;" horiz-adv-x="487" 
d="M406 617h20v-105q0 -15 -4.5 -19.5t-19.5 -4.5h-65v-4q32 -10 53.5 -40t32.5 -78t11 -113q0 -92 -22.5 -150.5t-64.5 -86.5t-103 -28q-60 0 -102.5 28t-65 86.5t-22.5 150.5t22.5 150.5t65 86.5t102.5 28q20 0 37.5 -3t33.5 -9h91v111zM244 7q80 0 123.5 56.5t43.5 155.5
v68q0 99 -43.5 155.5t-123.5 56.5t-123.5 -56.5t-43.5 -155.5v-68q0 -99 43.5 -155.5t123.5 -56.5z" />
    <glyph glyph-name="Uhorn" unicode="&#x1af;" horiz-adv-x="588" 
d="M90 698h22v-450q0 -87 16.5 -140t56.5 -76.5t110 -23.5q69 0 108.5 23.5t56 76.5t16.5 140v450h72v111h20v-105q0 -10 -2 -15t-7 -7t-15 -2h-56l10 10v-440q0 -96 -19.5 -153.5t-64 -83t-120.5 -25.5t-120.5 25.5t-64 83t-19.5 153.5v448z" />
    <glyph glyph-name="uhorn" unicode="&#x1b0;" horiz-adv-x="501" 
d="M416 0h-21v76h-6q-13 -37 -52 -62.5t-95 -25.5q-72 0 -110 43t-38 123v352h21v-352q0 -69 33.5 -108t94.5 -39q41 0 75.5 16.5t55.5 48t21 75.5v359h72v111h20v-105q0 -10 -2 -15t-7 -7t-15 -2h-57l10 10v-498z" />
    <glyph glyph-name="uni01CD" unicode="&#x1cd;" horiz-adv-x="542" 
d="M515 0h-24l-76 234h-288l-76 -234h-24l226 698h36zM408 253l-87 274l-48 151h-4l-48 -151l-87 -274h274zM283 783h-24l-100 133l14 11l98 -127l98 127l14 -11z" />
    <glyph glyph-name="uni01CE" unicode="&#x1ce;" horiz-adv-x="468" 
d="M449 0h-73q-9 0 -14 2t-7 7t-2 14v65l10 -10h-16q-14 -40 -50.5 -65t-94.5 -25q-69 0 -108.5 35t-39.5 108q0 49 19 80.5t54.5 47t84.5 15.5h141v85q0 77 -33.5 108.5t-97.5 31.5q-50 0 -83.5 -21t-51.5 -74l-17 8q18 52 54 79t98 27q76 0 114 -38t38 -118v-343h75v-19z
M353 256h-141q-58 0 -96.5 -27.5t-38.5 -77.5v-39q0 -49 36 -77t89 -28q42 0 76 15.5t54.5 47t20.5 78.5v108zM236 603h-24l-100 133l14 11l98 -127l98 127l14 -11z" />
    <glyph glyph-name="uni01CF" unicode="&#x1cf;" horiz-adv-x="336" 
d="M275 0h-214v19h96v660h-96v19h214v-19h-96v-660h96v-19zM179 783h-24l-100 133l14 11l98 -127l98 127l14 -11z" />
    <glyph glyph-name="uni01D0" unicode="&#x1d0;" horiz-adv-x="209" 
d="M115 0h-21v506h21v-506zM116 603h-24l-100 133l14 11l98 -127l98 127l14 -11z" />
    <glyph glyph-name="uni01D1" unicode="&#x1d1;" horiz-adv-x="614" 
d="M307 -12q-74 0 -129 33t-85 111.5t-30 216.5t30 217t85 111.5t129 32.5t129 -32.5t85 -111.5t30 -217t-30 -216.5t-85 -111.5t-129 -33zM307 8q69 0 118 31.5t75.5 98.5t26.5 172v78q0 106 -26.5 172.5t-75.5 98t-118 31.5t-118 -31.5t-75.5 -98t-26.5 -172.5v-78
q0 -105 26.5 -172t75.5 -98.5t118 -31.5zM319 783h-24l-100 133l14 11l98 -127l98 127l14 -11z" />
    <glyph glyph-name="uni01D2" unicode="&#x1d2;" horiz-adv-x="488" 
d="M244 -12q-60 0 -102.5 28t-65 86.5t-22.5 150.5t22.5 150.5t65 86.5t102.5 28q61 0 103 -28t64.5 -86.5t22.5 -150.5t-22.5 -150.5t-64.5 -86.5t-103 -28zM244 7q80 0 123.5 56.5t43.5 155.5v68q0 99 -43.5 155.5t-123.5 56.5t-123.5 -56.5t-43.5 -155.5v-68
q0 -99 43.5 -155.5t123.5 -56.5zM256 603h-24l-100 133l14 11l98 -127l98 127l14 -11z" />
    <glyph glyph-name="uni01D3" unicode="&#x1d3;" horiz-adv-x="588" 
d="M90 698h22v-450q0 -87 16.5 -140t56.5 -76.5t109 -23.5q70 0 109.5 23.5t56 76.5t16.5 140v450h22v-448q0 -96 -19.5 -153.5t-64 -83t-120.5 -25.5t-120.5 25.5t-64 83t-19.5 153.5v448zM305 783h-24l-100 133l14 11l98 -127l98 127l14 -11z" />
    <glyph glyph-name="uni01D4" unicode="&#x1d4;" horiz-adv-x="501" 
d="M395 0v76h-6q-13 -37 -52 -62.5t-95 -25.5q-72 0 -110 43t-38 123v352h21v-352q0 -69 33.5 -108t94.5 -39q41 0 75.5 16.5t55.5 48t21 75.5v359h21v-506h-21zM258 603h-24l-100 133l14 11l98 -127l98 127l14 -11z" />
    <glyph glyph-name="uni01D5" unicode="&#x1d5;" horiz-adv-x="588" 
d="M90 698h22v-450q0 -87 16.5 -140t56.5 -76.5t109 -23.5q70 0 109.5 23.5t56 76.5t16.5 140v450h22v-448q0 -96 -19.5 -153.5t-64 -83t-120.5 -25.5t-120.5 25.5t-64 83t-19.5 153.5v448zM185 958v18h216v-18h-216zM211 814q-13 0 -18 6.5t-5 14.5v7q0 8 5 14.5t18 6.5
t18 -6.5t5 -14.5v-7q0 -8 -5 -14.5t-18 -6.5zM375 814q-13 0 -18 6.5t-5 14.5v7q0 8 5 14.5t18 6.5t18 -6.5t5 -14.5v-7q0 -8 -5 -14.5t-18 -6.5z" />
    <glyph glyph-name="uni01D6" unicode="&#x1d6;" horiz-adv-x="501" 
d="M395 0v76h-6q-13 -37 -52 -62.5t-95 -25.5q-72 0 -110 43t-38 123v352h21v-352q0 -69 33.5 -108t94.5 -39q41 0 75.5 16.5t55.5 48t21 75.5v359h21v-506h-21zM138 778v18h216v-18h-216zM164 634q-13 0 -18 6.5t-5 14.5v7q0 8 5 14.5t18 6.5t18 -6.5t5 -14.5v-7
q0 -8 -5 -14.5t-18 -6.5zM328 634q-13 0 -18 6.5t-5 14.5v7q0 8 5 14.5t18 6.5t18 -6.5t5 -14.5v-7q0 -8 -5 -14.5t-18 -6.5z" />
    <glyph glyph-name="uni01D7" unicode="&#x1d7;" horiz-adv-x="588" 
d="M90 698h22v-450q0 -87 16.5 -140t56.5 -76.5t109 -23.5q70 0 109.5 23.5t56 76.5t16.5 140v450h22v-448q0 -96 -19.5 -153.5t-64 -83t-120.5 -25.5t-120.5 25.5t-64 83t-19.5 153.5v448zM404 1029l-103 -152l-15 10l99 154zM211 814q-13 0 -18 6.5t-5 14.5v7q0 8 5 14.5
t18 6.5t18 -6.5t5 -14.5v-7q0 -8 -5 -14.5t-18 -6.5zM375 814q-13 0 -18 6.5t-5 14.5v7q0 8 5 14.5t18 6.5t18 -6.5t5 -14.5v-7q0 -8 -5 -14.5t-18 -6.5z" />
    <glyph glyph-name="uni01D8" unicode="&#x1d8;" horiz-adv-x="501" 
d="M395 0v76h-6q-13 -37 -52 -62.5t-95 -25.5q-72 0 -110 43t-38 123v352h21v-352q0 -69 33.5 -108t94.5 -39q41 0 75.5 16.5t55.5 48t21 75.5v359h21v-506h-21zM357 849l-103 -152l-15 10l99 154zM164 634q-13 0 -18 6.5t-5 14.5v7q0 8 5 14.5t18 6.5t18 -6.5t5 -14.5v-7
q0 -8 -5 -14.5t-18 -6.5zM328 634q-13 0 -18 6.5t-5 14.5v7q0 8 5 14.5t18 6.5t18 -6.5t5 -14.5v-7q0 -8 -5 -14.5t-18 -6.5z" />
    <glyph glyph-name="uni01D9" unicode="&#x1d9;" horiz-adv-x="588" 
d="M90 698h22v-450q0 -87 16.5 -140t56.5 -76.5t109 -23.5q70 0 109.5 23.5t56 76.5t16.5 140v450h22v-448q0 -96 -19.5 -153.5t-64 -83t-120.5 -25.5t-120.5 25.5t-64 83t-19.5 153.5v448zM305 884h-24l-115 133l14 11l113 -127l113 127l14 -11zM211 814q-13 0 -18 6.5
t-5 14.5v7q0 8 5 14.5t18 6.5t18 -6.5t5 -14.5v-7q0 -8 -5 -14.5t-18 -6.5zM375 814q-13 0 -18 6.5t-5 14.5v7q0 8 5 14.5t18 6.5t18 -6.5t5 -14.5v-7q0 -8 -5 -14.5t-18 -6.5z" />
    <glyph glyph-name="uni01DA" unicode="&#x1da;" horiz-adv-x="501" 
d="M395 0v76h-6q-13 -37 -52 -62.5t-95 -25.5q-72 0 -110 43t-38 123v352h21v-352q0 -69 33.5 -108t94.5 -39q41 0 75.5 16.5t55.5 48t21 75.5v359h21v-506h-21zM258 704h-24l-115 133l14 11l113 -127l113 127l14 -11zM164 634q-13 0 -18 6.5t-5 14.5v7q0 8 5 14.5t18 6.5
t18 -6.5t5 -14.5v-7q0 -8 -5 -14.5t-18 -6.5zM328 634q-13 0 -18 6.5t-5 14.5v7q0 8 5 14.5t18 6.5t18 -6.5t5 -14.5v-7q0 -8 -5 -14.5t-18 -6.5z" />
    <glyph glyph-name="uni01DB" unicode="&#x1db;" horiz-adv-x="588" 
d="M90 698h22v-450q0 -87 16.5 -140t56.5 -76.5t109 -23.5q70 0 109.5 23.5t56 76.5t16.5 140v450h22v-448q0 -96 -19.5 -153.5t-64 -83t-120.5 -25.5t-120.5 25.5t-64 83t-19.5 153.5v448zM286 877l-103 152l19 12l99 -154zM211 814q-13 0 -18 6.5t-5 14.5v7q0 8 5 14.5
t18 6.5t18 -6.5t5 -14.5v-7q0 -8 -5 -14.5t-18 -6.5zM375 814q-13 0 -18 6.5t-5 14.5v7q0 8 5 14.5t18 6.5t18 -6.5t5 -14.5v-7q0 -8 -5 -14.5t-18 -6.5z" />
    <glyph glyph-name="uni01DC" unicode="&#x1dc;" horiz-adv-x="501" 
d="M395 0v76h-6q-13 -37 -52 -62.5t-95 -25.5q-72 0 -110 43t-38 123v352h21v-352q0 -69 33.5 -108t94.5 -39q41 0 75.5 16.5t55.5 48t21 75.5v359h21v-506h-21zM239 697l-103 152l19 12l99 -154zM164 634q-13 0 -18 6.5t-5 14.5v7q0 8 5 14.5t18 6.5t18 -6.5t5 -14.5v-7
q0 -8 -5 -14.5t-18 -6.5zM328 634q-13 0 -18 6.5t-5 14.5v7q0 8 5 14.5t18 6.5t18 -6.5t5 -14.5v-7q0 -8 -5 -14.5t-18 -6.5z" />
    <glyph glyph-name="Aringacute" unicode="&#x1fa;" horiz-adv-x="542" 
d="M515 0h-24l-76 234h-288l-76 -234h-24l226 698h36zM408 253l-87 274l-48 151h-4l-48 -151l-87 -274h274zM354 1077l-83 -98l-14 10l79 102zM271 769q-39 0 -62.5 25.5t-23.5 65.5q0 41 23.5 66t62.5 25t62.5 -25t23.5 -66q0 -40 -23.5 -65.5t-62.5 -25.5zM271 787
q31 0 48.5 18.5t17.5 49.5v10q0 31 -17.5 49.5t-48.5 18.5t-48.5 -18.5t-17.5 -49.5v-10q0 -31 17.5 -49.5t48.5 -18.5z" />
    <glyph glyph-name="aringacute" unicode="&#x1fb;" horiz-adv-x="468" 
d="M449 0h-73q-9 0 -14 2t-7 7t-2 14v65l10 -10h-16q-14 -40 -50.5 -65t-94.5 -25q-69 0 -108.5 35t-39.5 108q0 49 19 80.5t54.5 47t84.5 15.5h141v85q0 77 -33.5 108.5t-97.5 31.5q-50 0 -83.5 -21t-51.5 -74l-17 8q18 52 54 79t98 27q76 0 114 -38t38 -118v-343h75v-19z
M353 256h-141q-58 0 -96.5 -27.5t-38.5 -77.5v-39q0 -49 36 -77t89 -28q42 0 76 15.5t54.5 47t20.5 78.5v108zM307 897l-83 -98l-14 10l79 102zM224 589q-39 0 -62.5 25.5t-23.5 65.5q0 41 23.5 66t62.5 25t62.5 -25t23.5 -66q0 -40 -23.5 -65.5t-62.5 -25.5zM224 607
q31 0 48.5 18.5t17.5 49.5v10q0 31 -17.5 49.5t-48.5 18.5t-48.5 -18.5t-17.5 -49.5v-10q0 -31 17.5 -49.5t48.5 -18.5z" />
    <glyph glyph-name="AEacute" unicode="&#x1fc;" horiz-adv-x="777" 
d="M368 0v234h-227l-115 -234h-24l344 698h366v-20h-322v-314h311v-20h-311v-324h322v-20h-344zM368 678h-8l-209 -425h217v425zM629 919l-103 -152l-15 10l99 154z" />
    <glyph glyph-name="aeacute" unicode="&#x1fd;" horiz-adv-x="784" 
d="M359 256h-147q-58 0 -96.5 -27.5t-38.5 -77.5v-39q0 -49 36 -77t89 -28q47 0 82.5 25.5t55 73t19.5 113.5v37zM381 274h327v13q0 66 -17.5 113.5t-53 73t-89.5 25.5q-53 0 -90.5 -25.5t-57 -73t-19.5 -113.5v-13zM548 7q66 0 103.5 30.5t56.5 91.5l17 -7
q-19 -67 -61 -100.5t-116 -33.5q-46 0 -80.5 16.5t-58.5 50.5t-36 86h-6q-12 -52 -36 -86t-56.5 -50.5t-72.5 -16.5q-69 0 -108.5 35t-39.5 108q0 49 19 80.5t54.5 47t84.5 15.5h147v13q0 95 -36 153.5t-106 58.5q-49 0 -80.5 -21t-49.5 -74l-17 8q18 52 51 79t94 27
q42 0 72 -17t50 -51t30 -85h6q12 53 37.5 86.5t61 50t76.5 16.5q61 0 101.5 -28.5t61 -84.5t20.5 -139v-10h-350v-37q0 -99 43.5 -155.5t123.5 -56.5zM480 739l-103 -152l-15 10l99 154z" />
    <glyph glyph-name="Oslashacute" unicode="&#x1fe;" horiz-adv-x="613" 
d="M307 -12q-52 0 -95.5 16t-75.5 53l-56 -89l-17 11l60 95q-29 43 -44.5 110t-15.5 165q0 138 30 217t85 111.5t129 32.5q53 0 96.5 -15.5t74.5 -53.5l56 89l17 -11l-60 -95q29 -43 44.5 -110t15.5 -165q0 -138 -30 -216.5t-85 -111.5t-129 -33zM307 690q-69 0 -118 -31.5
t-75.5 -98t-26.5 -172.5v-78q0 -67 11.5 -121t35.5 -92h3l173 275l156 250q-28 35 -68.5 51.5t-90.5 16.5zM307 8q69 0 118 31.5t75.5 98.5t26.5 172v78q0 67 -11.5 121t-35.5 92h-3l-167 -267l-162 -258q29 -34 69.5 -51t89.5 -17zM395 919l-103 -152l-15 10l99 154z" />
    <glyph glyph-name="oslashacute" unicode="&#x1ff;" horiz-adv-x="488" 
d="M50 -31l-14 10l60 83q-20 33 -31 80t-11 111q0 92 22.5 150.5t65 86.5t102.5 28q44 0 78.5 -14.5t58.5 -45.5l57 79l14 -10l-60 -83q20 -33 31 -80t11 -111q0 -92 -22.5 -150.5t-64.5 -86.5t-103 -28q-44 0 -78.5 14.5t-58.5 44.5zM244 7q80 0 123.5 56.5t43.5 155.5v68
q0 28 -3.5 52t-10 45.5t-16.5 38.5h-4l-131 -182l-126 -176q22 -29 53 -43.5t71 -14.5zM244 499q-80 0 -123.5 -56.5t-43.5 -155.5v-68q0 -27 3.5 -51.5t10 -45.5t16.5 -39h4l135 188l123 170q-22 29 -53 43.5t-72 14.5zM332 739l-103 -152l-15 10l99 154z" />
    <glyph glyph-name="Scommaaccent" unicode="&#x218;" horiz-adv-x="494" 
d="M247 -12q-79 0 -126.5 32t-82.5 82l18 13q34 -49 76.5 -78t114.5 -29q84 0 128.5 40.5t44.5 125.5q0 47 -16 79.5t-48 54t-81 32.5l-63 15q-55 13 -90.5 34.5t-52 56.5t-16.5 87q0 62 24 101t67.5 57.5t102.5 18.5q73 0 115 -25.5t69 -68.5l-18 -13q-28 44 -64.5 65.5
t-101.5 21.5q-79 0 -125.5 -37.5t-46.5 -119.5q0 -47 14.5 -77.5t46.5 -49t82 -30.5l63 -15q56 -13 91.5 -36.5t52.5 -59.5t17 -89q0 -65 -23 -107t-66.5 -61.5t-105.5 -19.5zM248 -66q12 0 17 -6t5 -16v-11q0 -25 -12.5 -58t-32.5 -55h-18q22 24 32.5 52t12.5 44
q-16 0 -22 6t-6 14v8q0 10 5.5 16t18.5 6z" />
    <glyph glyph-name="scommaaccent" unicode="&#x219;" horiz-adv-x="417" 
d="M208 -12q-54 0 -93 21t-71 70l17 12q31 -47 64.5 -65.5t82.5 -18.5q64 0 99 29t35 89q0 56 -27 83t-85 37l-41 7q-42 7 -71.5 23t-44.5 43.5t-15 70.5q0 64 41.5 96.5t106.5 32.5q39 0 67 -9.5t47.5 -25.5t34.5 -36l-16 -14q-21 29 -50 47.5t-82 18.5q-57 0 -92 -27
t-35 -82t27 -81.5t86 -36.5l41 -7q63 -10 96.5 -41.5t33.5 -97.5q0 -46 -19 -76.5t-54 -46t-83 -15.5zM214 -66q12 0 17 -6t5 -16v-11q0 -25 -12.5 -58t-32.5 -55h-18q22 24 32.5 52t12.5 44q-16 0 -22 6t-6 14v8q0 10 5.5 16t18.5 6z" />
    <glyph glyph-name="uni021A" unicode="&#x21a;" horiz-adv-x="504" 
d="M489 678h-226v-678h-22v678h-226v20h474v-20zM253 -66q12 0 17 -6t5 -16v-11q0 -25 -12.5 -58t-32.5 -55h-18q22 24 32.5 52t12.5 44q-16 0 -22 6t-6 14v8q0 10 5.5 16t18.5 6z" />
    <glyph glyph-name="uni021B" unicode="&#x21b;" horiz-adv-x="280" 
d="M233 0h-94q-15 0 -21 6t-6 21v460h-85v19h64q13 0 17 5.5t4 18.5v120h21v-144h105v-19h-105v-468h100v-19zM173 -66q12 0 17 -6t5 -16v-11q0 -25 -12.5 -58t-32.5 -55h-18q22 24 32.5 52t12.5 44q-16 0 -22 6t-6 14v8q0 10 5.5 16t18.5 6z" />
    <glyph glyph-name="uni0237" unicode="&#x237;" horiz-adv-x="209" 
d="M17 -200v19h77v687h21v-679q0 -15 -6 -21t-21 -6h-71z" />
    <glyph glyph-name="uni0259" unicode="&#x259;" horiz-adv-x="480" 
d="M53 250h350v37q0 99 -43.5 155.5t-123.5 56.5q-66 0 -103 -30.5t-57 -91.5l-17 7q20 67 62 100.5t115 33.5q61 0 103 -28t64.5 -86.5t22.5 -150.5t-22.5 -150.5t-64.5 -86.5t-103 -28q-60 0 -101 28.5t-61.5 85t-20.5 138.5v10zM76 232v-13q0 -66 17.5 -113.5t53.5 -73
t89 -25.5q54 0 91 25.5t56.5 73t19.5 113.5v13h-327z" />
    <glyph glyph-name="uni02BB" unicode="&#x2bb;" 
d="M269 599q-12 0 -17 6t-5 16v11q0 26 13 58.5t32 54.5h18q-22 -24 -32.5 -51.5t-12.5 -44.5q17 0 22.5 -6t5.5 -14v-8q0 -10 -5 -16t-19 -6z" />
    <glyph glyph-name="uni02BC" unicode="&#x2bc;" 
d="M311 740l-24 -176h-17l16 176h25z" />
    <glyph glyph-name="circumflex" unicode="&#x2c6;" 
d="M258 743h24l100 -133l-14 -11l-98 127l-98 -127l-14 11z" />
    <glyph glyph-name="caron" unicode="&#x2c7;" 
d="M282 603h-24l-100 133l14 11l98 -127l98 127l14 -11z" />
    <glyph glyph-name="breve" unicode="&#x2d8;" 
d="M270 606q-21 0 -36.5 6t-28 19.5t-22 36t-18.5 55.5l16 7l9 -27q14 -43 32 -60.5t48 -17.5t48 17.5t32 60.5l9 27l16 -7q-9 -33 -18.5 -55.5t-22 -36t-28 -19.5t-36.5 -6z" />
    <glyph glyph-name="dotaccent" unicode="&#x2d9;" 
d="M270 642q-13 0 -18 6.5t-5 14.5v7q0 8 5 14.5t18 6.5t18 -6.5t5 -14.5v-7q0 -8 -5 -14.5t-18 -6.5z" />
    <glyph glyph-name="ring" unicode="&#x2da;" 
d="M270 589q-26 0 -45.5 11.5t-30 32t-10.5 47.5t10.5 47.5t30 32t45.5 11.5t45.5 -11.5t30 -32t10.5 -47.5t-10.5 -47.5t-30 -32t-45.5 -11.5zM270 607q31 0 48.5 18.5t17.5 49.5v10q0 31 -17.5 49.5t-48.5 18.5t-48.5 -18.5t-17.5 -49.5v-10q0 -31 17.5 -49.5t48.5 -18.5z
" />
    <glyph glyph-name="ogonek" unicode="&#x2db;" 
d="M215 -202q-21 0 -37 7.5t-25 22t-9 35.5q0 37 26.5 69.5t78.5 63.5v10l12 4l9 -10q-38 -25 -61.5 -47t-34 -42.5t-10.5 -44.5q0 -26 14.5 -38t37.5 -12q21 0 34 8t20 17l13 -11q-8 -13 -25.5 -22.5t-42.5 -9.5z" />
    <glyph glyph-name="tilde" unicode="&#x2dc;" 
d="M334 628q-16 0 -31 7t-38 23q-19 14 -33 20t-27 6q-16 0 -30 -8t-28 -25l-12 13q17 20 34 29t36 9q16 0 31.5 -6.5t37.5 -23.5q20 -14 33.5 -20t26.5 -6q17 0 30.5 8.5t27.5 24.5l12 -13q-16 -20 -33 -29t-37 -9z" />
    <glyph glyph-name="hungarumlaut" unicode="&#x2dd;" 
d="M302 739l-103 -152l-15 10l99 154zM446 739l-103 -152l-15 10l99 154z" />
    <glyph glyph-name="uni0300" unicode="&#x300;" horiz-adv-x="0" 
d="M15 587l-103 152l19 12l99 -154z" />
    <glyph glyph-name="uni0301" unicode="&#x301;" horiz-adv-x="0" 
d="M88 739l-103 -152l-15 10l99 154z" />
    <glyph glyph-name="uni0302" unicode="&#x302;" horiz-adv-x="0" 
d="M-12 743h24l100 -133l-14 -11l-98 127l-98 -127l-14 11z" />
    <glyph glyph-name="uni0303" unicode="&#x303;" horiz-adv-x="0" 
d="M64 628q-16 0 -31 7t-38 23q-19 14 -33 20t-27 6q-16 0 -30 -8t-28 -25l-12 13q17 20 34 29t36 9q16 0 31.5 -6.5t37.5 -23.5q20 -14 33.5 -20t26.5 -6q17 0 30.5 8.5t27.5 24.5l12 -13q-16 -20 -33 -29t-37 -9z" />
    <glyph glyph-name="uni0304" unicode="&#x304;" horiz-adv-x="0" 
d="M-113 658v18h226v-18h-226z" />
    <glyph glyph-name="uni0306" unicode="&#x306;" horiz-adv-x="0" 
d="M0 606q-21 0 -36.5 6t-28 19.5t-22 36t-18.5 55.5l16 7l9 -27q14 -43 32 -60.5t48 -17.5t48 17.5t32 60.5l9 27l16 -7q-9 -33 -18.5 -55.5t-22 -36t-28 -19.5t-36.5 -6z" />
    <glyph glyph-name="uni0307" unicode="&#x307;" horiz-adv-x="0" 
d="M0 642q-13 0 -18 6.5t-5 14.5v7q0 8 5 14.5t18 6.5t18 -6.5t5 -14.5v-7q0 -8 -5 -14.5t-18 -6.5z" />
    <glyph glyph-name="uni0308" unicode="&#x308;" horiz-adv-x="0" 
d="M-75 642q-13 0 -18 6.5t-5 14.5v7q0 8 5 14.5t18 6.5t18 -6.5t5 -14.5v-7q0 -8 -5 -14.5t-18 -6.5zM75 642q-13 0 -18 6.5t-5 14.5v7q0 8 5 14.5t18 6.5t18 -6.5t5 -14.5v-7q0 -8 -5 -14.5t-18 -6.5z" />
    <glyph glyph-name="uni0309" unicode="&#x309;" horiz-adv-x="0" 
d="M-68 719v18h123q13 0 18 -4t5 -14q0 -6 -4 -14t-18 -31l-51 -89l-15 8l69 126h-127z" />
    <glyph glyph-name="uni030A" unicode="&#x30a;" horiz-adv-x="0" 
d="M0 589q-26 0 -45.5 11.5t-30 32t-10.5 47.5t10.5 47.5t30 32t45.5 11.5t45.5 -11.5t30 -32t10.5 -47.5t-10.5 -47.5t-30 -32t-45.5 -11.5zM0 607q31 0 48.5 18.5t17.5 49.5v10q0 31 -17.5 49.5t-48.5 18.5t-48.5 -18.5t-17.5 -49.5v-10q0 -31 17.5 -49.5t48.5 -18.5z" />
    <glyph glyph-name="uni030B" unicode="&#x30b;" horiz-adv-x="0" 
d="M32 739l-103 -152l-15 10l99 154zM176 739l-103 -152l-15 10l99 154z" />
    <glyph glyph-name="uni030C" unicode="&#x30c;" horiz-adv-x="0" 
d="M12 603h-24l-100 133l14 11l98 -127l98 127l14 -11z" />
    <glyph glyph-name="uni0312" unicode="&#x312;" horiz-adv-x="0" 
d="M-1 599q-12 0 -17 6t-5 16v11q0 26 13 58.5t32 54.5h18q-22 -24 -32.5 -51.5t-12.5 -44.5q17 0 22.5 -6t5.5 -14v-8q0 -10 -5 -16t-19 -6z" />
    <glyph glyph-name="uni0315" unicode="&#x315;" horiz-adv-x="0" 
d="M95 740l-24 -176h-17l16 176h25z" />
    <glyph glyph-name="uni031B" unicode="&#x31b;" horiz-adv-x="0" 
d="M25 615v-103q0 -15 -4.5 -19.5t-19.5 -4.5h-68v18h72v109h20z" />
    <glyph glyph-name="uni0323" unicode="&#x323;" horiz-adv-x="0" 
d="M0 -134q-13 0 -18 6.5t-5 14.5v7q0 8 5 14.5t18 6.5t18 -6.5t5 -14.5v-7q0 -8 -5 -14.5t-18 -6.5z" />
    <glyph glyph-name="uni0326" unicode="&#x326;" horiz-adv-x="0" 
d="M1 -66q12 0 17 -6t5 -16v-11q0 -25 -12.5 -58t-32.5 -55h-18q22 24 32.5 52t12.5 44q-16 0 -22 6t-6 14v8q0 10 5.5 16t18.5 6z" />
    <glyph glyph-name="uni0327" unicode="&#x327;" horiz-adv-x="0" 
d="M9 -202q-26 0 -45.5 9.5t-27.5 22.5l12 12q10 -13 24.5 -19.5t36.5 -6.5q26 0 40.5 13.5t14.5 35.5q0 23 -14.5 36t-40.5 13h-37l20 88h17l-17 -80h4q5 3 11 4.5t13 1.5q28 0 46 -15.5t18 -47.5q0 -19 -8.5 -34.5t-25 -24t-41.5 -8.5z" />
    <glyph glyph-name="uni0328" unicode="&#x328;" horiz-adv-x="0" 
d="M-55 -202q-21 0 -37 7.5t-25 22t-9 35.5q0 37 26.5 69.5t78.5 63.5v10l12 4l9 -10q-38 -25 -61.5 -47t-34 -42.5t-10.5 -44.5q0 -26 14.5 -38t37.5 -12q21 0 34 8t20 17l13 -11q-8 -13 -25.5 -22.5t-42.5 -9.5z" />
    <glyph glyph-name="uni037E" unicode="&#x37e;" horiz-adv-x="234" 
d="M117 51q13 0 19.5 -6t6.5 -18v-8q0 -47 -21 -92t-50 -74h-19q32 35 47.5 73t16.5 69q-13 0 -19.5 6t-6.5 18v8q0 12 6.5 18t19.5 6zM117 438q-13 0 -19.5 6t-6.5 18v8q0 12 6.5 18t19.5 6t19.5 -6t6.5 -18v-8q0 -12 -6.5 -18t-19.5 -6z" />
    <glyph glyph-name="tonos" unicode="&#x384;" 
d="M340 743l-65 -156l-16 6l60 158z" />
    <glyph glyph-name="dieresistonos" unicode="&#x385;" horiz-adv-x="541" 
d="M346 642q-13 0 -18 6.5t-5 14.5v7q0 8 5 14.5t18 6.5t18 -6.5t5 -14.5v-7q0 -8 -5 -14.5t-18 -6.5zM196 642q-13 0 -18 6.5t-5 14.5v7q0 8 5 14.5t18 6.5t18 -6.5t5 -14.5v-7q0 -8 -5 -14.5t-18 -6.5zM313 743l-65 -156l-16 6l60 158z" />
    <glyph glyph-name="Alphatonos" unicode="&#x386;" horiz-adv-x="542" 
d="M515 0h-24l-76 234h-288l-76 -234h-24l226 698h36zM408 253l-87 274l-48 151h-4l-48 -151l-87 -274h274zM150 743l-65 -156l-16 6l60 158z" />
    <glyph glyph-name="anoteleia" unicode="&#x387;" horiz-adv-x="218" 
d="M109 438q-13 0 -19.5 6t-6.5 18v8q0 12 6.5 18t19.5 6t19.5 -6t6.5 -18v-8q0 -12 -6.5 -18t-19.5 -6z" />
    <glyph glyph-name="Epsilontonos" unicode="&#x388;" horiz-adv-x="529" 
d="M464 0h-344v698h344v-20h-322v-314h311v-20h-311v-324h322v-20zM61 743l-65 -156l-16 6l60 158z" />
    <glyph glyph-name="Etatonos" unicode="&#x389;" horiz-adv-x="647" 
d="M528 0v344h-386v-344h-22v698h22v-334h386v334h22v-698h-22zM61 743l-65 -156l-16 6l60 158z" />
    <glyph glyph-name="Iotatonos" unicode="&#x38a;" horiz-adv-x="388" 
d="M327 0h-214v19h96v660h-96v19h214v-19h-96v-660h96v-19zM61 743l-65 -156l-16 6l60 158z" />
    <glyph glyph-name="Omicrontonos" unicode="&#x38c;" horiz-adv-x="605" 
d="M298 -12q-74 0 -129 33t-85 111.5t-30 216.5t30 217t85 111.5t129 32.5t129 -32.5t85 -111.5t30 -217t-30 -216.5t-85 -111.5t-129 -33zM298 8q69 0 118 31.5t75.5 98.5t26.5 172v78q0 106 -26.5 172.5t-75.5 98t-118 31.5t-118 -31.5t-75.5 -98t-26.5 -172.5v-78
q0 -105 26.5 -172t75.5 -98.5t118 -31.5zM61 743l-65 -156l-16 6l60 158z" />
    <glyph glyph-name="Upsilontonos" unicode="&#x38e;" horiz-adv-x="574" 
d="M338 0h-22v294l-216 404h24l200 -374h6l200 374h24l-216 -404v-294zM61 743l-65 -156l-16 6l60 158z" />
    <glyph glyph-name="Omegatonos" unicode="&#x38f;" horiz-adv-x="617" 
d="M61 743l-65 -156l-16 6l60 158zM53 0v20h160v17q-34 14 -64 39t-53 66t-36 99.5t-13 137.5q0 83 16.5 145t48 103t77.5 62t105 21t105 -21t77.5 -62t48 -103t16.5 -145q0 -79 -13 -137.5t-36 -99.5t-53 -66t-64 -39v-17h160v-20h-180v47q36 15 66 38.5t51.5 58t33 83.5
t11.5 116v72q0 95 -29.5 156t-80 90t-113.5 29q-62 0 -113 -29t-80.5 -90t-29.5 -156v-72q0 -67 11.5 -116t33 -83.5t51.5 -58t66 -38.5v-47h-180z" />
    <glyph glyph-name="iotadieresistonos" unicode="&#x390;" horiz-adv-x="242" 
d="M215 19v-19h-94q-15 0 -21 6t-6 21v479h21v-487h100zM193 642q-13 0 -18 6.5t-5 14.5v7q0 8 5 14.5t18 6.5t18 -6.5t5 -14.5v-7q0 -8 -5 -14.5t-18 -6.5zM43 642q-13 0 -18 6.5t-5 14.5v7q0 8 5 14.5t18 6.5t18 -6.5t5 -14.5v-7q0 -8 -5 -14.5t-18 -6.5zM160 743
l-65 -156l-16 6l60 158z" />
    <glyph glyph-name="Alpha" unicode="&#x391;" horiz-adv-x="542" 
d="M515 0h-24l-76 234h-288l-76 -234h-24l226 698h36zM408 253l-87 274l-48 151h-4l-48 -151l-87 -274h274z" />
    <glyph glyph-name="Beta" unicode="&#x392;" horiz-adv-x="555" 
d="M97 0v698h231q65 0 102.5 -39.5t37.5 -130.5q0 -48 -11.5 -80t-32 -49.5t-48.5 -25.5v-6q29 -4 51.5 -17t37.5 -35.5t23 -53.5t8 -72q0 -62 -17.5 -104.5t-51.5 -63.5t-84 -21h-246zM119 358v-338h224q46 0 74 19.5t41.5 52t13.5 72.5v50q0 40 -14 72.5t-43 52t-75 19.5
h-221zM119 678v-300h206q41 0 67.5 16.5t39 45t12.5 63.5v50q0 36 -12 64t-37.5 44.5t-66.5 16.5h-209z" />
    <glyph glyph-name="Gamma" unicode="&#x393;" horiz-adv-x="456" 
d="M97 0v698h320v-20h-298v-678h-22z" />
    <glyph glyph-name="uni0394" unicode="&#x394;" horiz-adv-x="542" 
d="M35 0v19l219 679h32l220 -679v-19h-471zM483 20l-141 441l-70 217h-4l-69 -217l-141 -441h425z" />
    <glyph glyph-name="Epsilon" unicode="&#x395;" horiz-adv-x="506" 
d="M441 0h-344v698h344v-20h-322v-314h311v-20h-311v-324h322v-20z" />
    <glyph glyph-name="Zeta" unicode="&#x396;" horiz-adv-x="500" 
d="M475 20v-20h-440v22l396 656h-376v20h400v-22l-396 -656h416z" />
    <glyph glyph-name="Eta" unicode="&#x397;" horiz-adv-x="624" 
d="M505 0v344h-386v-344h-22v698h22v-334h386v334h22v-698h-22z" />
    <glyph glyph-name="Theta" unicode="&#x398;" horiz-adv-x="614" 
d="M307 -12q-74 0 -129 33t-85 111.5t-30 216.5t30 217t85 111.5t129 32.5t129 -32.5t85 -111.5t30 -217t-30 -216.5t-85 -111.5t-129 -33zM307 8q69 0 118 31.5t75.5 98.5t26.5 172v78q0 106 -26.5 172.5t-75.5 98t-118 31.5t-118 -31.5t-75.5 -98t-26.5 -172.5v-78
q0 -105 26.5 -172t75.5 -98.5t118 -31.5zM452 344h-290v20h290v-20z" />
    <glyph glyph-name="Iota" unicode="&#x399;" horiz-adv-x="336" 
d="M275 0h-214v19h96v660h-96v19h214v-19h-96v-660h96v-19z" />
    <glyph glyph-name="Kappa" unicode="&#x39a;" horiz-adv-x="517" 
d="M473 0l-235 388l-119 -151v-237h-22v698h22v-261v-164h4l130 164l216 261h26l-243 -294l247 -404h-26z" />
    <glyph glyph-name="Lambda" unicode="&#x39b;" horiz-adv-x="532" 
d="M248 698h36l221 -698h-24l-116 371l-97 307h-4l-97 -307l-116 -371h-24z" />
    <glyph glyph-name="Mu" unicode="&#x39c;" horiz-adv-x="718" 
d="M97 0v698h37l139 -260l85 -160h2l85 160l139 260h37v-698h-22v508v170h-4l-91 -170l-145 -272l-145 272l-91 169h-4v-169v-508h-22z" />
    <glyph glyph-name="Nu" unicode="&#x39d;" horiz-adv-x="623" 
d="M489 0l-274 508l-92 170h-4v-170v-508h-22v698h38l274 -508l92 -170h4v170v508h22v-698h-38z" />
    <glyph glyph-name="Xi" unicode="&#x39e;" horiz-adv-x="502" 
d="M65 678v20h372v-20h-372zM86 344v20h330v-20h-330zM65 0v20h372v-20h-372z" />
    <glyph glyph-name="Omicron" unicode="&#x39f;" horiz-adv-x="614" 
d="M307 -12q-74 0 -129 33t-85 111.5t-30 216.5t30 217t85 111.5t129 32.5t129 -32.5t85 -111.5t30 -217t-30 -216.5t-85 -111.5t-129 -33zM307 8q69 0 118 31.5t75.5 98.5t26.5 172v78q0 106 -26.5 172.5t-75.5 98t-118 31.5t-118 -31.5t-75.5 -98t-26.5 -172.5v-78
q0 -105 26.5 -172t75.5 -98.5t118 -31.5z" />
    <glyph glyph-name="Pi" unicode="&#x3a0;" horiz-adv-x="612" 
d="M97 0v698h418v-698h-22v678h-374v-678h-22z" />
    <glyph glyph-name="Rho" unicode="&#x3a1;" horiz-adv-x="535" 
d="M119 0h-22v698h247q51 0 85 -21.5t50.5 -63.5t16.5 -103t-16.5 -103t-50.5 -63.5t-85 -21.5h-225v-322zM119 678v-336h225q44 0 72.5 18.5t42 50.5t13.5 70v58q0 39 -13.5 70.5t-42 50t-72.5 18.5h-225z" />
    <glyph glyph-name="Sigma" unicode="&#x3a3;" horiz-adv-x="515" 
d="M454 0h-409v22l247 332l-242 322v22h404v-20h-380l244 -324l-249 -334h385v-20z" />
    <glyph glyph-name="Tau" unicode="&#x3a4;" horiz-adv-x="504" 
d="M489 678h-226v-678h-22v678h-226v20h474v-20z" />
    <glyph glyph-name="Upsilon" unicode="&#x3a5;" horiz-adv-x="493" 
d="M257 0h-22v294l-216 404h24l200 -374h6l200 374h24l-216 -404v-294z" />
    <glyph glyph-name="Phi" unicode="&#x3a6;" horiz-adv-x="744" 
d="M361 -29v66h-32q-89 0 -149 37.5t-90.5 108.5t-30.5 171t30.5 171t90.5 108.5t149 37.5h32v54h22v-54h32q89 0 149 -37.5t90.5 -108.5t30.5 -171t-30.5 -171t-90.5 -108.5t-149 -37.5h-32v-66h-22zM361 57v594h-32q-84 0 -138.5 -35.5t-81 -94.5t-26.5 -129v-76
q0 -70 26.5 -129t81 -94.5t138.5 -35.5h32zM383 57h32q85 0 139 35.5t80.5 94.5t26.5 129v76q0 70 -26.5 129t-80.5 94.5t-139 35.5h-32v-594z" />
    <glyph glyph-name="Chi" unicode="&#x3a7;" horiz-adv-x="504" 
d="M25 0l214 354l-206 344h26l190 -319h6l190 319h26l-205 -341l213 -357h-26l-197 332h-6l-199 -332h-26z" />
    <glyph glyph-name="Psi" unicode="&#x3a8;" horiz-adv-x="678" 
d="M328 0v208q-81 0 -138 24t-87.5 79t-30.5 149v238h22v-240q0 -84 27 -134.5t79.5 -73t127.5 -22.5v470h22v-470q76 0 128 22.5t79 73t27 134.5v240h22v-238q0 -94 -30 -149t-87.5 -79t-138.5 -24v-208h-22z" />
    <glyph glyph-name="uni03A9" unicode="&#x3a9;" horiz-adv-x="646" 
d="M82 0v20h160v17q-34 14 -64 39t-53 66t-36 99.5t-13 137.5q0 83 16.5 145t48 103t77.5 62t105 21t105 -21t77.5 -62t48 -103t16.5 -145q0 -79 -13 -137.5t-36 -99.5t-53 -66t-64 -39v-17h160v-20h-180v47q36 15 66 38.5t51.5 58t33 83.5t11.5 116v72q0 95 -29.5 156
t-80 90t-113.5 29q-62 0 -113 -29t-80.5 -90t-29.5 -156v-72q0 -67 11.5 -116t33 -83.5t51.5 -58t66 -38.5v-47h-180z" />
    <glyph glyph-name="Iotadieresis" unicode="&#x3aa;" horiz-adv-x="336" 
d="M275 0h-214v19h96v660h-96v19h214v-19h-96v-660h96v-19zM92 819q-13 0 -18 6.5t-5 14.5v7q0 8 5 14.5t18 6.5t18 -6.5t5 -14.5v-7q0 -8 -5 -14.5t-18 -6.5zM242 819q-13 0 -18 6.5t-5 14.5v7q0 8 5 14.5t18 6.5t18 -6.5t5 -14.5v-7q0 -8 -5 -14.5t-18 -6.5z" />
    <glyph glyph-name="Upsilondieresis" unicode="&#x3ab;" horiz-adv-x="493" 
d="M257 0h-22v294l-216 404h24l200 -374h6l200 374h24l-216 -404v-294zM171 819q-13 0 -18 6.5t-5 14.5v7q0 8 5 14.5t18 6.5t18 -6.5t5 -14.5v-7q0 -8 -5 -14.5t-18 -6.5zM321 819q-13 0 -18 6.5t-5 14.5v7q0 8 5 14.5t18 6.5t18 -6.5t5 -14.5v-7q0 -8 -5 -14.5t-18 -6.5z
" />
    <glyph glyph-name="alphatonos" unicode="&#x3ac;" horiz-adv-x="573" 
d="M535 19v-19h-53q-13 0 -20 6.5t-12 28.5l-36 191h-4q-23 -98 -49.5 -149.5t-59 -70t-77.5 -18.5q-50 0 -88.5 28t-60 86.5t-21.5 150.5t21.5 150.5t60 86.5t88.5 28q51 0 87 -21t60 -72.5t39 -144.5h4l19 66l48 160h22l-79 -249l52 -238h59zM224 7q41 0 68.5 16
t47.5 53.5t39 103.5l21 73l-21 88q-14 59 -35 93.5t-50.5 49.5t-69.5 15q-65 0 -106 -56.5t-41 -155.5v-68q0 -99 41 -155.5t106 -56.5zM295 743l-65 -156l-16 6l60 158z" />
    <glyph glyph-name="epsilontonos" unicode="&#x3ad;" horiz-adv-x="472" 
d="M409 93l16 -11q-22 -43 -64 -68.5t-120 -25.5q-86 0 -127 35.5t-41 105.5q0 57 29 90t77 39v6q-42 12 -65.5 40.5t-23.5 80.5q0 69 41.5 101t120.5 32q46 0 76.5 -9.5t51 -25.5t35.5 -38l-16 -14q-14 21 -32 36t-45 23.5t-69 8.5q-71 0 -105.5 -26.5t-34.5 -73.5v-28
q0 -41 32.5 -71t84.5 -30h109v-19h-110q-61 0 -97 -29t-36 -76v-37q0 -48 39 -75t106 -27q68 0 107 21.5t61 64.5zM316 743l-65 -156l-16 6l60 158z" />
    <glyph glyph-name="etatonos" unicode="&#x3ae;" horiz-adv-x="510" 
d="M124 0h-21v487h-76v19h70q15 0 21 -6t6 -21v-58l-10 9h16q13 38 52.5 63t94.5 25q71 0 109.5 -43.5t38.5 -122.5v-552h-21v552q0 69 -33 108t-95 39q-40 0 -75 -16.5t-56 -48t-21 -75.5v-359zM325 743l-65 -156l-16 6l60 158z" />
    <glyph glyph-name="iotatonos" unicode="&#x3af;" horiz-adv-x="242" 
d="M215 19v-19h-94q-15 0 -21 6t-6 21v479h21v-487h100zM180 743l-65 -156l-16 6l60 158z" />
    <glyph glyph-name="upsilondieresistonos" unicode="&#x3b0;" horiz-adv-x="492" 
d="M106 506v-313q0 -71 16 -111.5t47 -57.5t77 -17t77 17t47 57.5t16 111.5v313h21v-299q0 -83 -17.5 -131t-53 -68t-90.5 -20t-90.5 20t-53 68t-17.5 131v299h21zM327 642q-13 0 -18 6.5t-5 14.5v7q0 8 5 14.5t18 6.5t18 -6.5t5 -14.5v-7q0 -8 -5 -14.5t-18 -6.5zM177 642
q-13 0 -18 6.5t-5 14.5v7q0 8 5 14.5t18 6.5t18 -6.5t5 -14.5v-7q0 -8 -5 -14.5t-18 -6.5zM294 743l-65 -156l-16 6l60 158z" />
    <glyph glyph-name="alpha" unicode="&#x3b1;" horiz-adv-x="573" 
d="M535 19v-19h-53q-13 0 -20 6.5t-12 28.5l-36 191h-4q-23 -98 -49.5 -149.5t-59 -70t-77.5 -18.5q-50 0 -88.5 28t-60 86.5t-21.5 150.5t21.5 150.5t60 86.5t88.5 28q51 0 87 -21t60 -72.5t39 -144.5h4l19 66l48 160h22l-79 -249l52 -238h59zM224 7q41 0 68.5 16
t47.5 53.5t39 103.5l21 73l-21 88q-14 59 -35 93.5t-50.5 49.5t-69.5 15q-65 0 -106 -56.5t-41 -155.5v-68q0 -99 41 -155.5t106 -56.5z" />
    <glyph glyph-name="beta" unicode="&#x3b2;" horiz-adv-x="513" 
d="M94 -200v731q0 111 40.5 166t126.5 55q48 0 84 -19.5t56 -59t20 -99.5q0 -48 -13.5 -82t-37 -54t-55.5 -28v-6q46 -8 77 -31.5t47 -65t16 -105.5q0 -66 -21.5 -114t-62.5 -74t-99 -26q-59 0 -98 25t-53 65h-6v-278h-21zM190 396v19h81q39 0 68 18.5t44.5 50t15.5 70.5v40
q0 42 -17 73.5t-48 48.5t-73 17q-75 0 -110.5 -48t-35.5 -146v-392q0 -44 20.5 -75.5t56 -48t81.5 -16.5q51 0 86.5 24t54 61.5t18.5 77.5v64q0 72 -42.5 117t-117.5 45h-82z" />
    <glyph glyph-name="gamma" unicode="&#x3b3;" horiz-adv-x="424" 
d="M209 -200v200l-156 487h-49v19h44q12 0 18 -4t9 -14l117 -367l26 -86h4l28 86l131 385h21l-172 -506v-200h-21z" />
    <glyph glyph-name="delta" unicode="&#x3b4;" horiz-adv-x="488" 
d="M313 493q-82 0 -134.5 -31.5t-77 -80.5t-24.5 -104v-68q0 -60 19.5 -105.5t57 -71t90.5 -25.5t90.5 25.5t57 69.5t19.5 101v56q0 37 -6.5 69t-23.5 65.5t-49 74t-83 93.5l-152 158v21h308v-19h-238l-49 7v-5l144 -149q53 -54 86.5 -96t52 -79t26 -76t7.5 -87
q0 -82 -22.5 -137.5t-65 -83t-102.5 -27.5t-102.5 28t-65 84.5t-22.5 142.5q0 83 28.5 141t82.5 89.5t128 32.5v10z" />
    <glyph glyph-name="epsilon" unicode="&#x3b5;" horiz-adv-x="472" 
d="M409 93l16 -11q-22 -43 -64 -68.5t-120 -25.5q-86 0 -127 35.5t-41 105.5q0 57 29 90t77 39v6q-42 12 -65.5 40.5t-23.5 80.5q0 69 41.5 101t120.5 32q46 0 76.5 -9.5t51 -25.5t35.5 -38l-16 -14q-14 21 -32 36t-45 23.5t-69 8.5q-71 0 -105.5 -26.5t-34.5 -73.5v-28
q0 -41 32.5 -71t84.5 -30h109v-19h-110q-61 0 -97 -29t-36 -76v-37q0 -48 39 -75t106 -27q68 0 107 21.5t61 64.5z" />
    <glyph glyph-name="zeta" unicode="&#x3b6;" horiz-adv-x="385" 
d="M65 721v19h299v-21l-200 -272q-50 -68 -69.5 -115.5t-19.5 -88.5v-32q0 -46 16.5 -80t56.5 -59.5t109 -45.5l63 -18q11 -3 16.5 -8t5.5 -14q0 -3 -0.5 -7t-2.5 -10l-30 -129l-19 5l33 142l-70 20q-75 22 -119 50t-63 69t-19 101q0 33 7.5 65t28.5 72t62 95l195 264v5
l-49 -7h-231z" />
    <glyph glyph-name="eta" unicode="&#x3b7;" horiz-adv-x="510" 
d="M124 0h-21v487h-76v19h70q15 0 21 -6t6 -21v-58l-10 9h16q13 38 52.5 63t94.5 25q71 0 109.5 -43.5t38.5 -122.5v-552h-21v552q0 69 -33 108t-95 39q-40 0 -75 -16.5t-56 -48t-21 -75.5v-359z" />
    <glyph glyph-name="theta" unicode="&#x3b8;" horiz-adv-x="496" 
d="M86 404v-24h324v24q0 125 -19 196.5t-55 102t-88 30.5q-51 0 -87.5 -30.5t-55.5 -102t-19 -196.5zM248 752q44 0 78.5 -18t58 -60.5t36 -116.5t12.5 -187t-12.5 -187t-36 -117t-58 -60.5t-78.5 -17.5t-78.5 18t-58 60.5t-36 117t-12.5 186.5q0 113 12.5 187t36 117
t58 60.5t78.5 17.5zM248 7q52 0 88 30.5t55 102.5t19 196v25h-324v-25q0 -124 19 -196t55.5 -102.5t87.5 -30.5z" />
    <glyph glyph-name="iota" unicode="&#x3b9;" horiz-adv-x="242" 
d="M215 19v-19h-94q-15 0 -21 6t-6 21v479h21v-487h100z" />
    <glyph glyph-name="kappa" unicode="&#x3ba;" horiz-adv-x="443" 
d="M404 0l-213 276l-76 -86v-190h-21v506h21v-284h4l66 75l177 200q5 5 10 7t12 2h42v-19h-48l-173 -196l225 -291h-26z" />
    <glyph glyph-name="lambda" unicode="&#x3bb;" horiz-adv-x="422" 
d="M188 509l-66 212h-60v19h54q12 0 18 -4t9 -14l219 -703h49v-19h-43q-12 0 -18 4t-9 14l-87 279l-54 180h-4l-60 -180l-100 -297h-21z" />
    <glyph glyph-name="uni03BC" unicode="&#x3bc;" horiz-adv-x="519" 
d="M115 -200h-21v706h21v-352q0 -69 33.5 -108t94.5 -39q41 0 75.5 16.5t55.5 48t21 75.5v359h21v-487h76v-19h-70q-15 0 -21 6t-6 21v66l13 -17h-19q-13 -37 -52 -62.5t-95 -25.5q-48 0 -80 19.5t-49 58.5h-3l5 -110v-156z" />
    <glyph glyph-name="nu" unicode="&#x3bd;" horiz-adv-x="424" 
d="M237 0h-34l-150 487h-49v19h44q12 0 18 -4t9 -14l80 -260l63 -209h4l68 209l91 278h21z" />
    <glyph glyph-name="xi" unicode="&#x3be;" horiz-adv-x="414" 
d="M370 721h-106q-50 0 -83.5 -20.5t-50 -52.5t-16.5 -66v-30q0 -64 36.5 -100.5t96.5 -36.5h71v-19h-70q-55 0 -92 -22t-56 -56.5t-19 -74.5v-32q0 -44 16 -78t57.5 -59.5t117.5 -47.5l63 -18q11 -3 16.5 -8t5.5 -14q0 -3 -0.5 -7t-2.5 -10l-30 -129l-19 5l33 142l-70 20
q-79 23 -125 51t-65.5 69t-19.5 100q0 68 35.5 117t103.5 59v5q-52 14 -79 52.5t-27 106.5q0 55 25.5 96t76.5 53v5h-122v19h299v-19z" />
    <glyph glyph-name="omicron" unicode="&#x3bf;" horiz-adv-x="488" 
d="M244 -12q-60 0 -102.5 28t-65 86.5t-22.5 150.5t22.5 150.5t65 86.5t102.5 28q61 0 103 -28t64.5 -86.5t22.5 -150.5t-22.5 -150.5t-64.5 -86.5t-103 -28zM244 7q80 0 123.5 56.5t43.5 155.5v68q0 99 -43.5 155.5t-123.5 56.5t-123.5 -56.5t-43.5 -155.5v-68
q0 -99 43.5 -155.5t123.5 -56.5z" />
    <glyph glyph-name="pi" unicode="&#x3c0;" horiz-adv-x="503" 
d="M390 487v-468h86v-19h-80q-15 0 -21 6t-6 21v460h-244v-487h-21v487h-86v19h458v-19h-86z" />
    <glyph glyph-name="rho" unicode="&#x3c1;" horiz-adv-x="483" 
d="M68 -200v453q0 92 20.5 150.5t60.5 86.5t100 28q89 0 134.5 -63.5t45.5 -201.5t-48.5 -201.5t-139.5 -63.5q-55 0 -93.5 25t-52.5 65h-6v-278h-21zM241 7q80 0 122.5 56.5t42.5 155.5v68q0 99 -39 155.5t-118 56.5t-119.5 -59t-40.5 -175v-118q0 -44 20 -75.5t54.5 -48
t77.5 -16.5z" />
    <glyph glyph-name="sigma1" unicode="&#x3c2;" horiz-adv-x="439" 
d="M313 -155l33 142l-70 20q-73 21 -122.5 51.5t-74.5 81.5t-25 133t22 136.5t64.5 81.5t102.5 27q56 0 94 -24.5t58 -71.5l-18 -9q-21 45 -52.5 65.5t-81.5 20.5q-53 0 -90.5 -24.5t-56.5 -69.5t-19 -106v-52q0 -88 49.5 -139.5t153.5 -81.5l63 -18q11 -3 16.5 -8t5.5 -14
q0 -3 -0.5 -7t-2.5 -10l-30 -129z" />
    <glyph glyph-name="sigma" unicode="&#x3c3;" horiz-adv-x="496" 
d="M472 487h-139v-5q53 -34 77 -88.5t24 -146.5q0 -89 -22.5 -146.5t-64.5 -85t-103 -27.5q-60 0 -102.5 27.5t-65 85t-22.5 146.5q0 87 23.5 144.5t67 86t104.5 28.5h223v-19zM307 487h-58q-82 0 -127 -57t-45 -149v-68q0 -94 43.5 -150t123.5 -56t123.5 56t43.5 150v68
q0 60 -22.5 113.5t-81.5 92.5z" />
    <glyph glyph-name="tau" unicode="&#x3c4;" horiz-adv-x="434" 
d="M324 0h-99q-15 0 -21 6t-6 21v460h-167v19h369v-19h-181v-468h105v-19z" />
    <glyph glyph-name="upsilon" unicode="&#x3c5;" horiz-adv-x="492" 
d="M106 506v-313q0 -71 16 -111.5t47 -57.5t77 -17t77 17t47 57.5t16 111.5v313h21v-299q0 -83 -17.5 -131t-53 -68t-90.5 -20t-90.5 20t-53 68t-17.5 131v299h21z" />
    <glyph glyph-name="phi" unicode="&#x3c6;" horiz-adv-x="611" 
d="M284 -200v188q-78 0 -129 28t-76 87.5t-25 153.5q0 104 27.5 166t84.5 95l11 -17q-51 -27 -75.5 -84.5t-24.5 -125.5v-68q0 -70 22.5 -118t68.5 -73t116 -25v276q0 125 32 180t102 55q47 0 76.5 -24.5t43.5 -79.5t14 -147q0 -102 -26.5 -163t-81.5 -88.5t-139 -27.5v-188
h-21zM305 293v-286q116 0 170 56t54 170v68q0 104 -24.5 151t-86.5 47q-61 0 -87 -51t-26 -155z" />
    <glyph glyph-name="chi" unicode="&#x3c7;" horiz-adv-x="412" 
d="M9 506h44q11 0 18 -4t11 -15l121 -306h4l155 325h22l-167 -343l135 -344h50v-19h-44q-11 0 -17.5 4t-11.5 15l-124 326h-4l-159 -345h-22l171 363l-132 324h-50v19z" />
    <glyph glyph-name="psi" unicode="&#x3c8;" horiz-adv-x="625" 
d="M302 -200v188q-76 0 -124 20t-70.5 68t-22.5 131v299h21v-313q0 -72 21.5 -112.5t65 -57t109.5 -16.5v703h21v-703q66 0 109.5 16.5t65 57t21.5 112.5v313h21v-299q0 -83 -22.5 -131t-70 -68t-124.5 -20v-188h-21z" />
    <glyph glyph-name="omega" unicode="&#x3c9;" horiz-adv-x="631" 
d="M326 349v-136q0 -80 14.5 -125t40 -63t57.5 -18q56 0 83.5 46.5t27.5 151.5v68q0 85 -24.5 143t-75.5 85l11 17q38 -22 63 -57t37 -89t12 -133q0 -93 -14.5 -148t-44 -79t-74.5 -24q-52 0 -83.5 34.5t-37.5 106.5h-5q-6 -72 -37 -106.5t-84 -34.5q-45 0 -74.5 24t-44 79
t-14.5 148q0 79 12 133t37 89t63 57l11 -17q-51 -27 -75.5 -85t-24.5 -143v-68q0 -105 27.5 -151.5t83.5 -46.5q33 0 58 18t39.5 63t14.5 125v136h21z" />
    <glyph glyph-name="iotadieresis" unicode="&#x3ca;" horiz-adv-x="242" 
d="M215 19v-19h-94q-15 0 -21 6t-6 21v479h21v-487h100zM37 642q-13 0 -18 6.5t-5 14.5v7q0 8 5 14.5t18 6.5t18 -6.5t5 -14.5v-7q0 -8 -5 -14.5t-18 -6.5zM187 642q-13 0 -18 6.5t-5 14.5v7q0 8 5 14.5t18 6.5t18 -6.5t5 -14.5v-7q0 -8 -5 -14.5t-18 -6.5z" />
    <glyph glyph-name="upsilondieresis" unicode="&#x3cb;" horiz-adv-x="492" 
d="M106 506v-313q0 -71 16 -111.5t47 -57.5t77 -17t77 17t47 57.5t16 111.5v313h21v-299q0 -83 -17.5 -131t-53 -68t-90.5 -20t-90.5 20t-53 68t-17.5 131v299h21zM171 642q-13 0 -18 6.5t-5 14.5v7q0 8 5 14.5t18 6.5t18 -6.5t5 -14.5v-7q0 -8 -5 -14.5t-18 -6.5zM321 642
q-13 0 -18 6.5t-5 14.5v7q0 8 5 14.5t18 6.5t18 -6.5t5 -14.5v-7q0 -8 -5 -14.5t-18 -6.5z" />
    <glyph glyph-name="omicrontonos" unicode="&#x3cc;" horiz-adv-x="488" 
d="M244 -12q-60 0 -102.5 28t-65 86.5t-22.5 150.5t22.5 150.5t65 86.5t102.5 28q61 0 103 -28t64.5 -86.5t22.5 -150.5t-22.5 -150.5t-64.5 -86.5t-103 -28zM244 7q80 0 123.5 56.5t43.5 155.5v68q0 99 -43.5 155.5t-123.5 56.5t-123.5 -56.5t-43.5 -155.5v-68
q0 -99 43.5 -155.5t123.5 -56.5zM312 743l-65 -156l-16 6l60 158z" />
    <glyph glyph-name="upsilontonos" unicode="&#x3cd;" horiz-adv-x="492" 
d="M106 506v-313q0 -71 16 -111.5t47 -57.5t77 -17t77 17t47 57.5t16 111.5v313h21v-299q0 -83 -17.5 -131t-53 -68t-90.5 -20t-90.5 20t-53 68t-17.5 131v299h21zM314 743l-65 -156l-16 6l60 158z" />
    <glyph glyph-name="omegatonos" unicode="&#x3ce;" horiz-adv-x="631" 
d="M326 349v-136q0 -80 14.5 -125t40 -63t57.5 -18q56 0 83.5 46.5t27.5 151.5v68q0 85 -24.5 143t-75.5 85l11 17q38 -22 63 -57t37 -89t12 -133q0 -93 -14.5 -148t-44 -79t-74.5 -24q-52 0 -83.5 34.5t-37.5 106.5h-5q-6 -72 -37 -106.5t-84 -34.5q-45 0 -74.5 24t-44 79
t-14.5 148q0 79 12 133t37 89t63 57l11 -17q-51 -27 -75.5 -85t-24.5 -143v-68q0 -105 27.5 -151.5t83.5 -46.5q33 0 58 18t39.5 63t14.5 125v136h21zM383 743l-65 -156l-16 6l60 158z" />
    <glyph glyph-name="uni0400" unicode="&#x400;" horiz-adv-x="506" 
d="M441 0h-344v698h344v-20h-322v-314h311v-20h-311v-324h322v-20zM284 767l-103 152l19 12l99 -154z" />
    <glyph glyph-name="uni0401" unicode="&#x401;" horiz-adv-x="506" 
d="M441 0h-344v698h344v-20h-322v-314h311v-20h-311v-324h322v-20zM194 819q-13 0 -18 6.5t-5 14.5v7q0 8 5 14.5t18 6.5t18 -6.5t5 -14.5v-7q0 -8 -5 -14.5t-18 -6.5zM344 819q-13 0 -18 6.5t-5 14.5v7q0 8 5 14.5t18 6.5t18 -6.5t5 -14.5v-7q0 -8 -5 -14.5t-18 -6.5z" />
    <glyph glyph-name="uni0402" unicode="&#x402;" horiz-adv-x="695" 
d="M464 -164v20h76q33 11 52.5 51.5t19.5 122.5v183q0 101 -47.5 144.5t-140.5 43.5q-52 0 -92 -7.5t-69 -21.5v-372h-22v678h-226v20h474v-20h-226v-285h5q29 13 67.5 20.5t90.5 7.5q107 0 157.5 -50.5t50.5 -157.5v-183q0 -72 -14.5 -114.5t-40 -61t-59.5 -18.5h-56z" />
    <glyph glyph-name="uni0403" unicode="&#x403;" horiz-adv-x="456" 
d="M97 0v698h320v-20h-298v-678h-22zM345 919l-103 -152l-15 10l99 154z" />
    <glyph glyph-name="uni0404" unicode="&#x404;" horiz-adv-x="549" 
d="M300 -12q-71 0 -124.5 33t-83 111.5t-29.5 216.5t29.5 217t83 111.5t124.5 32.5q53 0 90.5 -16.5t63.5 -47.5t42 -75l-19 -9q-22 63 -64 95.5t-113 32.5q-66 0 -113.5 -31.5t-73.5 -98t-26 -172.5v-28l-7 4h317v-20h-319l9 5v-39q0 -158 57 -230t156 -72q77 0 118.5 34.5
t62.5 101.5l19 -8q-22 -70 -69.5 -109t-130.5 -39z" />
    <glyph glyph-name="uni0405" unicode="&#x405;" horiz-adv-x="494" 
d="M247 -12q-79 0 -126.5 32t-82.5 82l18 13q34 -49 76.5 -78t114.5 -29q84 0 128.5 40.5t44.5 125.5q0 47 -16 79.5t-48 54t-81 32.5l-63 15q-55 13 -90.5 34.5t-52 56.5t-16.5 87q0 62 24 101t67.5 57.5t102.5 18.5q73 0 115 -25.5t69 -68.5l-18 -13q-28 44 -64.5 65.5
t-101.5 21.5q-79 0 -125.5 -37.5t-46.5 -119.5q0 -47 14.5 -77.5t46.5 -49t82 -30.5l63 -15q56 -13 91.5 -36.5t52.5 -59.5t17 -89q0 -65 -23 -107t-66.5 -61.5t-105.5 -19.5z" />
    <glyph glyph-name="uni0406" unicode="&#x406;" horiz-adv-x="336" 
d="M275 0h-214v19h96v660h-96v19h214v-19h-96v-660h96v-19z" />
    <glyph glyph-name="uni0407" unicode="&#x407;" horiz-adv-x="336" 
d="M275 0h-214v19h96v660h-96v19h214v-19h-96v-660h96v-19zM92 819q-13 0 -18 6.5t-5 14.5v7q0 8 5 14.5t18 6.5t18 -6.5t5 -14.5v-7q0 -8 -5 -14.5t-18 -6.5zM242 819q-13 0 -18 6.5t-5 14.5v7q0 8 5 14.5t18 6.5t18 -6.5t5 -14.5v-7q0 -8 -5 -14.5t-18 -6.5z" />
    <glyph glyph-name="uni0408" unicode="&#x408;" horiz-adv-x="419" 
d="M86 698h244v-533q0 -58 -19 -97.5t-53.5 -59.5t-83.5 -20q-64 0 -101.5 33t-51.5 89l19 6q14 -51 46.5 -79.5t87.5 -28.5q67 0 100.5 41t33.5 116v513h-222v20z" />
    <glyph glyph-name="uni0409" unicode="&#x409;" horiz-adv-x="881" 
d="M7 0v20h57q21 23 38 56.5t29 84t18.5 122t6.5 170.5v245h312v-300h201q53 0 88 -22.5t52.5 -66.5t17.5 -110q0 -65 -17.5 -109.5t-52.5 -67t-88 -22.5h-223v678h-268v-225q0 -94 -6.5 -166.5t-18.5 -125t-29 -88.5t-38 -57q-9 -9 -17 -12.5t-22 -3.5h-40zM468 20h201
q46 0 75.5 19.5t44 53.5t14.5 77v58q0 43 -14.5 77t-44 53.5t-75.5 19.5h-201v-358z" />
    <glyph glyph-name="uni040A" unicode="&#x40a;" horiz-adv-x="931" 
d="M97 0v698h22v-320h364v320h22v-320h220q51 0 84.5 -21.5t50.5 -63.5t17 -104q0 -61 -17 -103.5t-50.5 -64t-84.5 -21.5h-242v358h-364v-358h-22zM505 20h220q44 0 72.5 19t42 50.5t13.5 70.5v58q0 39 -13.5 71t-42 50.5t-72.5 18.5h-220v-338z" />
    <glyph glyph-name="uni040B" unicode="&#x40b;" horiz-adv-x="704" 
d="M241 0v678h-226v20h474v-20h-226v-285h5q29 13 69.5 20.5t93.5 7.5q110 0 161 -50.5t51 -157.5v-213h-22v213q0 101 -48.5 144.5t-143.5 43.5q-54 0 -95.5 -7.5t-70.5 -21.5v-372h-22z" />
    <glyph glyph-name="uni040C" unicode="&#x40c;" horiz-adv-x="557" 
d="M97 0v698h22v-334h144l168 319q5 8 10.5 11.5t14.5 3.5h50v-20h-54l-158 -300q-6 -12 -11 -16t-16 -6v-5q11 -1 17 -5t11 -14l169 -312h53v-20h-51q-9 0 -14.5 3.5t-10.5 11.5l-178 329h-144v-344h-22zM364 919l-103 -152l-15 10l99 154z" />
    <glyph glyph-name="uni040D" unicode="&#x40d;" horiz-adv-x="624" 
d="M97 0v698h21v-593l-4 -75h4l37 75l353 593h19v-698h-21v593l4 75h-4l-37 -75l-353 -593h-19zM325 767l-103 152l19 12l99 -154z" />
    <glyph glyph-name="uni040E" unicode="&#x40e;" horiz-adv-x="517" 
d="M142 0v20h82l46 127l-243 551h24l195 -445l32 -74h4l26 74l158 445h24l-245 -680q-2 -7 -6 -11t-9 -5.5t-12 -1.5h-76zM258 764q-34 0 -56 19.5t-39 67.5l-10 29l19 8l22 -64q12 -22 27 -32t37 -10q23 0 37.5 10t26.5 32l22 64l19 -8l-10 -29q-16 -48 -38 -67.5
t-57 -19.5z" />
    <glyph glyph-name="uni040F" unicode="&#x40f;" horiz-adv-x="612" 
d="M295 -150v150h-198v698h22v-678h374v678h22v-698h-198v-150h-22z" />
    <glyph glyph-name="uni0410" unicode="&#x410;" horiz-adv-x="542" 
d="M515 0h-24l-76 234h-288l-76 -234h-24l226 698h36zM408 253l-87 274l-48 151h-4l-48 -151l-87 -274h274z" />
    <glyph glyph-name="uni0411" unicode="&#x411;" horiz-adv-x="546" 
d="M97 0v698h342v-20h-320v-280h211q53 0 88 -22.5t52.5 -66.5t17.5 -110q0 -65 -17.5 -109.5t-52.5 -67t-88 -22.5h-233zM119 20h211q46 0 75.5 19.5t44 53.5t14.5 77v58q0 43 -14.5 77t-44 53.5t-75.5 19.5h-211v-358z" />
    <glyph glyph-name="uni0412" unicode="&#x412;" horiz-adv-x="555" 
d="M97 0v698h231q65 0 102.5 -39.5t37.5 -130.5q0 -48 -11.5 -80t-32 -49.5t-48.5 -25.5v-6q29 -4 51.5 -17t37.5 -35.5t23 -53.5t8 -72q0 -62 -17.5 -104.5t-51.5 -63.5t-84 -21h-246zM119 358v-338h224q46 0 74 19.5t41.5 52t13.5 72.5v50q0 40 -14 72.5t-43 52t-75 19.5
h-221zM119 678v-300h206q41 0 67.5 16.5t39 45t12.5 63.5v50q0 36 -12 64t-37.5 44.5t-66.5 16.5h-209z" />
    <glyph glyph-name="uni0413" unicode="&#x413;" horiz-adv-x="456" 
d="M97 0v698h320v-20h-298v-678h-22z" />
    <glyph glyph-name="uni0414" unicode="&#x414;" horiz-adv-x="602" 
d="M9 -150v170h64q28 46 46 114t26.5 150t8.5 169v245h324v-678h80v-170h-22v150h-505v-150h-22zM101 20h355v658h-280v-225q0 -86 -8.5 -167t-25 -149t-41.5 -114v-3z" />
    <glyph glyph-name="uni0415" unicode="&#x415;" horiz-adv-x="506" 
d="M441 0h-344v698h344v-20h-322v-314h311v-20h-311v-324h322v-20z" />
    <glyph glyph-name="uni0416" unicode="&#x416;" horiz-adv-x="816" 
d="M40 0v20h53l151 312q5 10 11 14t16 5v5q-10 2 -15.5 6.5t-10.5 15.5l-141 300h-54v20h50q9 0 15 -3.5t10 -11.5l150 -319h122v334h22v-334h122l150 319q4 8 10 11.5t15 3.5h50v-20h-54l-141 -300q-5 -11 -10 -15.5t-16 -6.5v-5q11 -1 17 -5t10 -14l151 -312h53v-20h-51
q-9 0 -15 3.5t-10 11.5l-159 329h-122v-344h-22v344h-122l-159 -329q-4 -8 -10 -11.5t-15 -3.5h-51z" />
    <glyph glyph-name="uni0417" unicode="&#x417;" horiz-adv-x="515" 
d="M254 -12q-77 0 -126.5 27t-78.5 80l18 11q28 -52 73.5 -75t113.5 -23q56 0 95.5 18t61 53.5t21.5 85.5v36q0 70 -46 106.5t-125 36.5h-106v20h104q47 0 84 18.5t58 52.5t21 82v32q0 68 -42.5 104.5t-119.5 36.5q-74 0 -113 -26.5t-58 -72.5l-18 8q18 50 63.5 80.5
t125.5 30.5q90 0 138 -44.5t48 -130.5q0 -85 -37 -125t-93 -53v-6q42 -5 73.5 -24t49 -53.5t17.5 -87.5q0 -65 -23.5 -109.5t-68.5 -66.5t-110 -22z" />
    <glyph glyph-name="uni0418" unicode="&#x418;" horiz-adv-x="624" 
d="M97 0v698h21v-593l-4 -75h4l37 75l353 593h19v-698h-21v593l4 75h-4l-37 -75l-353 -593h-19z" />
    <glyph glyph-name="uni0419" unicode="&#x419;" horiz-adv-x="624" 
d="M97 0v698h21v-593l-4 -75h4l37 75l353 593h19v-698h-21v593l4 75h-4l-37 -75l-353 -593h-19zM310 764q-34 0 -56 19.5t-39 67.5l-10 29l19 8l22 -64q12 -22 27 -32t37 -10q23 0 37.5 10t26.5 32l22 64l19 -8l-10 -29q-16 -48 -38 -67.5t-57 -19.5z" />
    <glyph glyph-name="uni041A" unicode="&#x41a;" horiz-adv-x="557" 
d="M97 0v698h22v-334h144l168 319q5 8 10.5 11.5t14.5 3.5h50v-20h-54l-158 -300q-6 -12 -11 -16t-16 -6v-5q11 -1 17 -5t11 -14l169 -312h53v-20h-51q-9 0 -14.5 3.5t-10.5 11.5l-178 329h-144v-344h-22z" />
    <glyph glyph-name="uni041B" unicode="&#x41b;" horiz-adv-x="577" 
d="M7 0v20h57q21 23 38 56.5t29 84t18.5 122t6.5 170.5v245h324v-698h-22v678h-280v-225q0 -94 -6.5 -166.5t-18.5 -125t-29 -88.5t-38 -57q-9 -9 -17 -12.5t-22 -3.5h-40z" />
    <glyph glyph-name="uni041C" unicode="&#x41c;" horiz-adv-x="718" 
d="M97 0v698h37l139 -260l85 -160h2l85 160l139 260h37v-698h-22v508v170h-4l-91 -170l-145 -272l-145 272l-91 169h-4v-169v-508h-22z" />
    <glyph glyph-name="uni041D" unicode="&#x41d;" horiz-adv-x="624" 
d="M505 0v344h-386v-344h-22v698h22v-334h386v334h22v-698h-22z" />
    <glyph glyph-name="uni041E" unicode="&#x41e;" horiz-adv-x="614" 
d="M307 -12q-74 0 -129 33t-85 111.5t-30 216.5t30 217t85 111.5t129 32.5t129 -32.5t85 -111.5t30 -217t-30 -216.5t-85 -111.5t-129 -33zM307 8q69 0 118 31.5t75.5 98.5t26.5 172v78q0 106 -26.5 172.5t-75.5 98t-118 31.5t-118 -31.5t-75.5 -98t-26.5 -172.5v-78
q0 -105 26.5 -172t75.5 -98.5t118 -31.5z" />
    <glyph glyph-name="uni041F" unicode="&#x41f;" horiz-adv-x="612" 
d="M97 0v698h418v-698h-22v678h-374v-678h-22z" />
    <glyph glyph-name="uni0420" unicode="&#x420;" horiz-adv-x="535" 
d="M119 0h-22v698h247q51 0 85 -21.5t50.5 -63.5t16.5 -103t-16.5 -103t-50.5 -63.5t-85 -21.5h-225v-322zM119 678v-336h225q44 0 72.5 18.5t42 50.5t13.5 70v58q0 39 -13.5 70.5t-42 50t-72.5 18.5h-225z" />
    <glyph glyph-name="uni0421" unicode="&#x421;" horiz-adv-x="549" 
d="M300 -12q-71 0 -124.5 33t-83 111.5t-29.5 216.5t29.5 217t83 111.5t124.5 32.5q80 0 125.5 -37t70.5 -102l-19 -9q-22 63 -64 95.5t-113 32.5q-99 0 -156 -72t-57 -230v-78q0 -158 57 -230t156 -72q77 0 118.5 34.5t62.5 101.5l19 -8q-22 -70 -69.5 -109t-130.5 -39z
" />
    <glyph glyph-name="uni0422" unicode="&#x422;" horiz-adv-x="504" 
d="M489 678h-226v-678h-22v678h-226v20h474v-20z" />
    <glyph glyph-name="uni0423" unicode="&#x423;" horiz-adv-x="517" 
d="M142 0v20h82l46 127l-243 551h24l195 -445l32 -74h4l26 74l158 445h24l-245 -680q-2 -7 -6 -11t-9 -5.5t-12 -1.5h-76z" />
    <glyph glyph-name="uni0424" unicode="&#x424;" horiz-adv-x="734" 
d="M356 -29v90h-55q-77 0 -132.5 36.5t-85 101t-29.5 149.5t29.5 149.5t85 101t132.5 36.5h55v90h22v-90h55q78 0 133 -36.5t84.5 -101t29.5 -149.5t-29.5 -149.5t-84.5 -101t-133 -36.5h-55v-90h-22zM301 81h55v534h-55q-55 0 -97 -19.5t-70 -53t-42 -74t-14 -82.5v-76
q0 -42 14 -82.5t42 -74t70 -53t97 -19.5zM378 81h55q56 0 97.5 19.5t69.5 53t42 74t14 82.5v76q0 42 -14 82.5t-42 74t-69.5 53t-97.5 19.5h-55v-534z" />
    <glyph glyph-name="uni0425" unicode="&#x425;" horiz-adv-x="504" 
d="M25 0l214 354l-206 344h26l190 -319h6l190 319h26l-205 -341l213 -357h-26l-197 332h-6l-199 -332h-26z" />
    <glyph glyph-name="uni0426" unicode="&#x426;" horiz-adv-x="639" 
d="M573 -150v150h-476v698h22v-678h374v678h22v-678h80v-170h-22z" />
    <glyph glyph-name="uni0427" unicode="&#x427;" horiz-adv-x="560" 
d="M441 0v305h-5q-28 -13 -69 -20.5t-94 -7.5q-109 0 -160.5 51t-51.5 157v213h22v-213q0 -100 48.5 -144t143.5 -44q54 0 95.5 8t70.5 21v372h22v-698h-22z" />
    <glyph glyph-name="uni0428" unicode="&#x428;" horiz-adv-x="816" 
d="M97 0v698h22v-678h278v678h22v-678h278v678h22v-698h-622z" />
    <glyph glyph-name="uni0429" unicode="&#x429;" horiz-adv-x="843" 
d="M777 -150v150h-680v698h22v-678h278v678h22v-678h278v678h22v-678h80v-170h-22z" />
    <glyph glyph-name="uni042A" unicode="&#x42a;" horiz-adv-x="663" 
d="M210 0v678h-195v20h217v-300h219q53 0 88 -22.5t52.5 -66.5t17.5 -110q0 -65 -17.5 -109.5t-52.5 -67t-88 -22.5h-241zM232 20h219q46 0 75.5 19.5t44 53.5t14.5 77v58q0 43 -14.5 77t-44 53.5t-75.5 19.5h-219v-358z" />
    <glyph glyph-name="uni042B" unicode="&#x42b;" horiz-adv-x="742" 
d="M97 0v698h22v-300h211q53 0 88 -22.5t52.5 -66.5t17.5 -110q0 -65 -17.5 -109.5t-52.5 -67t-88 -22.5h-233zM119 20h211q46 0 75.5 19.5t44 53.5t14.5 77v58q0 43 -14.5 77t-44 53.5t-75.5 19.5h-211v-358zM623 0v698h22v-698h-22z" />
    <glyph glyph-name="uni042C" unicode="&#x42c;" horiz-adv-x="550" 
d="M97 0v698h22v-300h219q53 0 88 -22.5t52.5 -66.5t17.5 -110q0 -65 -17.5 -109.5t-52.5 -67t-88 -22.5h-241zM119 20h219q46 0 75.5 19.5t44 53.5t14.5 77v58q0 43 -14.5 77t-44 53.5t-75.5 19.5h-219v-358z" />
    <glyph glyph-name="uni042D" unicode="&#x42d;" horiz-adv-x="549" 
d="M152 344v20h317l-7 -4v28q0 158 -57 230t-156 72q-70 0 -112 -32.5t-65 -95.5l-19 9q17 44 42.5 75t63 47.5t90.5 16.5q72 0 125 -32.5t82.5 -111.5t29.5 -217t-29.5 -216.5t-82.5 -111.5t-125 -33q-82 0 -129.5 39t-70.5 109l19 8q21 -67 63 -101.5t118 -34.5
q99 0 156 72t57 230v39l9 -5h-319z" />
    <glyph glyph-name="uni042E" unicode="&#x42e;" horiz-adv-x="817" 
d="M514 -12q-73 0 -127 32.5t-83.5 110.5t-29.5 213h-155v-344h-22v698h22v-334h155q2 132 32 207.5t83 107t125 31.5q73 0 127 -32.5t83.5 -111.5t29.5 -217t-29.5 -216.5t-83.5 -111.5t-127 -33zM514 8q101 0 158.5 72t57.5 230v78q0 158 -57.5 230t-158.5 72t-158.5 -72
t-57.5 -230v-78q0 -158 57.5 -230t158.5 -72z" />
    <glyph glyph-name="uni042F" unicode="&#x42f;" horiz-adv-x="568" 
d="M32 0v20h53l128 275q5 11 11 16t14 6v10l8 -5h-22q-76 0 -114 48.5t-38 139.5q0 61 17 103t50.5 63.5t84.5 21.5h247v-698h-22v322h-198l-143 -307q-4 -8 -10 -11.5t-15 -3.5h-51zM224 342h225v336h-225q-44 0 -72.5 -18.5t-42 -50t-13.5 -70.5v-58q0 -38 13.5 -70
t42 -50.5t72.5 -18.5z" />
    <glyph glyph-name="uni0430" unicode="&#x430;" horiz-adv-x="468" 
d="M449 0h-73q-9 0 -14 2t-7 7t-2 14v65l10 -10h-16q-14 -40 -50.5 -65t-94.5 -25q-69 0 -108.5 35t-39.5 108q0 49 19 80.5t54.5 47t84.5 15.5h141v85q0 77 -33.5 108.5t-97.5 31.5q-50 0 -83.5 -21t-51.5 -74l-17 8q18 52 54 79t98 27q76 0 114 -38t38 -118v-343h75v-19z
M353 256h-141q-58 0 -96.5 -27.5t-38.5 -77.5v-39q0 -49 36 -77t89 -28q42 0 76 15.5t54.5 47t20.5 78.5v108z" />
    <glyph glyph-name="uni0431" unicode="&#x431;" horiz-adv-x="491" 
d="M247 -12q-65 0 -108 30.5t-64 93.5q-10 31 -14 67.5t-4 82.5q0 135 11 224t36.5 141.5t69 77t108.5 29.5l122 10v-19l-122 -10q-60 -5 -97 -27t-58 -62.5t-31 -100.5t-15 -141h6q21 69 63 95.5t97 26.5q61 0 103 -27t64.5 -84t22.5 -148q0 -90 -22.5 -147.5t-64.5 -84.5
t-103 -27zM247 7q80 0 123.5 54.5t43.5 151.5v68q0 97 -43.5 151.5t-123.5 54.5t-123.5 -56.5t-43.5 -149.5v-68q0 -97 43.5 -151.5t123.5 -54.5z" />
    <glyph glyph-name="uni0432" unicode="&#x432;" horiz-adv-x="495" 
d="M94 0v506h204q48 0 76 -29t28 -95q0 -55 -19.5 -82.5t-55.5 -36.5v-4q48 -6 71.5 -35.5t23.5 -88.5q0 -45 -12.5 -75t-37 -45t-59.5 -15h-219zM115 19h197q45 0 66 28.5t21 70.5v34q0 45 -25 71.5t-76 26.5h-183v-231zM115 269h178q44 0 65 26t21 66v36q0 39 -19.5 64.5
t-64.5 25.5h-180v-218z" />
    <glyph glyph-name="uni0433" unicode="&#x433;" horiz-adv-x="397" 
d="M94 0v506h268v-19h-247v-487h-21z" />
    <glyph glyph-name="uni0434" unicode="&#x434;" horiz-adv-x="496" 
d="M5 -140v159h47q26 43 41.5 89.5t22.5 103.5t7 131v163h265v-487h68v-159h-21v140h-409v-140h-21zM74 19h293v468h-223v-144q0 -112 -17.5 -189t-52.5 -135z" />
    <glyph glyph-name="uni0435" unicode="&#x435;" horiz-adv-x="480" 
d="M244 -12q-60 0 -102.5 28t-65 86.5t-22.5 150.5t22.5 150.5t65 86.5t102.5 28q61 0 101.5 -28.5t61 -84.5t20.5 -139v-10h-350v-37q0 -99 43.5 -155.5t123.5 -56.5q66 0 103.5 30.5t56.5 91.5l17 -7q-19 -67 -61 -100.5t-116 -33.5zM244 499q-53 0 -90.5 -25.5t-57 -73
t-19.5 -113.5v-13h327v13q0 66 -17.5 113.5t-53 73t-89.5 25.5z" />
    <glyph glyph-name="uni0436" unicode="&#x436;" horiz-adv-x="667" 
d="M38 0v19h52l100 216q8 17 14 22t15 6v5q-10 2 -15.5 7.5t-13.5 21.5l-94 190h-51v19h46q9 0 15 -3.5t10 -11.5l107 -216h100v231h21v-231h100l107 216q5 8 10.5 11.5t14.5 3.5h46v-19h-51l-94 -190q-8 -16 -13.5 -21.5t-15.5 -7.5v-5q9 -1 15 -6t14 -22l100 -216h52v-19
h-49q-9 0 -14.5 3.5t-9.5 11.5l-112 241h-100v-256h-21v256h-100l-112 -241q-4 -8 -9.5 -11.5t-14.5 -3.5h-49z" />
    <glyph glyph-name="uni0437" unicode="&#x437;" horiz-adv-x="443" 
d="M212 -12q-67 0 -104.5 25.5t-60.5 68.5l16 11q23 -43 57.5 -64.5t91.5 -21.5q59 0 97 30.5t38 80.5v28q0 50 -32 77.5t-90 27.5h-95v19h94q51 0 81.5 30t30.5 73v26q0 47 -34 73.5t-92 26.5q-54 0 -85.5 -20.5t-52.5 -65.5l-18 9q20 47 58 71.5t98 24.5q69 0 109 -33.5
t40 -98.5q0 -53 -25.5 -84.5t-68.5 -37.5v-5q48 -4 76.5 -34.5t28.5 -92.5q0 -67 -43 -105.5t-115 -38.5z" />
    <glyph glyph-name="uni0438" unicode="&#x438;" horiz-adv-x="518" 
d="M94 0v506h21v-405l-4 -69h4l35 64l255 410h19v-506h-21v405l4 69h-4l-35 -64l-255 -410h-19z" />
    <glyph glyph-name="uni0439" unicode="&#x439;" horiz-adv-x="518" 
d="M94 0v506h21v-405l-4 -69h4l35 64l255 410h19v-506h-21v405l4 69h-4l-35 -64l-255 -410h-19zM259 606q-34 0 -56 19.5t-39 67.5l-10 29l19 8l22 -64q12 -22 27 -32t37 -10q23 0 37.5 10t26.5 32l22 64l19 -8l-10 -29q-16 -48 -38 -67.5t-57 -19.5z" />
    <glyph glyph-name="uni043A" unicode="&#x43a;" horiz-adv-x="470" 
d="M94 0v506h21v-231h110l128 216q5 8 10.5 11.5t14.5 3.5h47v-19h-51l-112 -189q-10 -18 -16.5 -23t-16.5 -7v-5q11 -1 17.5 -7t15.5 -23l118 -214h52v-19h-49q-9 0 -14.5 3.5t-10.5 11.5l-133 241h-110v-256h-21z" />
    <glyph glyph-name="uni043B" unicode="&#x43b;" horiz-adv-x="486" 
d="M4 0v19h51q23 23 39 61.5t24.5 102t8.5 160.5v163h265v-506h-21v487h-223v-144q0 -96 -9 -161.5t-25 -106t-39 -63.5q-7 -7 -15 -9.5t-18 -2.5h-38z" />
    <glyph glyph-name="uni043C" unicode="&#x43c;" horiz-adv-x="614" 
d="M94 0v506h33l147 -264l32 -60h3l32 60l146 264h33v-506h-21v419v61h-5l-32 -60l-155 -282l-155 282l-32 60h-5v-61v-419h-21z" />
    <glyph glyph-name="uni043D" unicode="&#x43d;" horiz-adv-x="518" 
d="M94 0v506h21v-231h288v231h21v-506h-21v256h-288v-256h-21z" />
    <glyph glyph-name="uni043E" unicode="&#x43e;" horiz-adv-x="488" 
d="M244 -12q-60 0 -102.5 28t-65 86.5t-22.5 150.5t22.5 150.5t65 86.5t102.5 28q61 0 103 -28t64.5 -86.5t22.5 -150.5t-22.5 -150.5t-64.5 -86.5t-103 -28zM244 7q80 0 123.5 56.5t43.5 155.5v68q0 99 -43.5 155.5t-123.5 56.5t-123.5 -56.5t-43.5 -155.5v-68
q0 -99 43.5 -155.5t123.5 -56.5z" />
    <glyph glyph-name="uni043F" unicode="&#x43f;" horiz-adv-x="510" 
d="M94 0v506h322v-506h-21v487h-280v-487h-21z" />
    <glyph glyph-name="uni0440" unicode="&#x440;" horiz-adv-x="509" 
d="M94 -200v706h21v-76h6q14 40 51.5 64t92.5 24q61 0 103 -28t64.5 -86.5t22.5 -150.5t-22.5 -150.5t-64.5 -86.5t-103 -28q-55 0 -92.5 25t-51.5 65h-6v-278h-21zM265 7q80 0 123.5 56.5t43.5 155.5v68q0 99 -43.5 155.5t-123.5 56.5q-43 0 -77 -16.5t-53.5 -48
t-19.5 -75.5v-212q0 -44 19.5 -75.5t53.5 -48t77 -16.5z" />
    <glyph glyph-name="uni0441" unicode="&#x441;" horiz-adv-x="439" 
d="M243 -12q-91 0 -140 63.5t-49 201.5t49 201.5t140 63.5q56 0 94 -24.5t58 -71.5l-18 -9q-21 45 -52.5 65.5t-81.5 20.5q-80 0 -123 -57t-43 -155v-68q0 -97 43 -154.5t123 -57.5q54 0 87.5 22.5t55.5 63.5l16 -11q-22 -43 -59.5 -68.5t-99.5 -25.5z" />
    <glyph glyph-name="uni0442" unicode="&#x442;" horiz-adv-x="431" 
d="M205 0v487h-174v19h369v-19h-174v-487h-21z" />
    <glyph glyph-name="uni0443" unicode="&#x443;" horiz-adv-x="408" 
d="M259 184l105 322h22l-224 -687q-2 -7 -5.5 -11t-8 -6t-12.5 -2h-84v19h89l52 162l-171 525h22l105 -322l53 -165h4z" />
    <glyph glyph-name="uni0444" unicode="&#x444;" horiz-adv-x="657" 
d="M318 -200v268h-6q-13 -37 -41.5 -58.5t-66.5 -21.5q-51 0 -83.5 27t-47.5 85.5t-15 152.5t15 152.5t47.5 85.5t83.5 27q38 0 66.5 -21t41.5 -59h6v272h21v-272h6q14 38 42.5 59t65.5 21q52 0 84 -27t47 -85.5t15 -152.5t-15 -152.5t-47 -85.5t-84 -27q-37 0 -65.5 21.5
t-42.5 58.5h-6v-268h-21zM204 7q35 0 60.5 19.5t39.5 46.5t14 50v260q0 23 -14 50t-39.5 46.5t-60.5 19.5q-65 0 -94 -55t-29 -157v-68q0 -102 29 -157t94 -55zM453 7q65 0 94 55t29 157v68q0 102 -29 157t-94 55q-35 0 -60.5 -19.5t-39.5 -46.5t-14 -50v-260q0 -23 14 -50
t39.5 -46.5t60.5 -19.5z" />
    <glyph glyph-name="uni0445" unicode="&#x445;" horiz-adv-x="424" 
d="M30 0l169 255l-164 251h24l150 -232h6l151 232h24l-165 -251l169 -255h-24l-155 236h-6l-155 -236h-24z" />
    <glyph glyph-name="uni0446" unicode="&#x446;" horiz-adv-x="524" 
d="M463 -140v140h-369v506h21v-487h280v487h21v-487h68v-159h-21z" />
    <glyph glyph-name="uni0447" unicode="&#x447;" horiz-adv-x="470" 
d="M355 0v278h-6q-13 -36 -52 -59.5t-93 -23.5q-72 0 -111 37t-39 110v164h21v-164q0 -66 34.5 -97t95.5 -31q69 0 109.5 38.5t40.5 96.5v157h21v-506h-21z" />
    <glyph glyph-name="uni0448" unicode="&#x448;" horiz-adv-x="701" 
d="M94 0v506h21v-487h226v487h21v-487h224v487h21v-506h-513z" />
    <glyph glyph-name="uni0449" unicode="&#x449;" horiz-adv-x="715" 
d="M654 -140v140h-560v506h21v-487h225v487h21v-487h225v487h21v-487h68v-159h-21z" />
    <glyph glyph-name="uni044A" unicode="&#x44a;" horiz-adv-x="536" 
d="M173 0v487h-142v19h163v-213h174q39 0 65 -16.5t39.5 -49t13.5 -80.5q0 -47 -13.5 -80t-39.5 -50t-65 -17h-195zM194 19h174q48 0 71.5 31.5t23.5 74.5v43q0 44 -23.5 75t-71.5 31h-174v-255z" />
    <glyph glyph-name="uni044B" unicode="&#x44b;" horiz-adv-x="607" 
d="M94 0v506h21v-213h158q39 0 65 -16.5t39.5 -49t13.5 -80.5q0 -47 -13.5 -80t-39.5 -50t-65 -17h-179zM115 19h158q48 0 71.5 31.5t23.5 74.5v43q0 44 -23.5 75t-71.5 31h-158v-255zM492 0v506h21v-506h-21z" />
    <glyph glyph-name="uni044C" unicode="&#x44c;" horiz-adv-x="457" 
d="M94 0v506h21v-213h174q39 0 65 -16.5t39.5 -49t13.5 -80.5q0 -47 -13.5 -80t-39.5 -50t-65 -17h-195zM115 19h174q48 0 71.5 31.5t23.5 74.5v43q0 44 -23.5 75t-71.5 31h-174v-255z" />
    <glyph glyph-name="uni044D" unicode="&#x44d;" horiz-adv-x="449" 
d="M134 246v19h238v22q0 98 -43 155t-123 57q-50 0 -81.5 -20.5t-52.5 -65.5l-18 9q20 47 58 71.5t94 24.5q91 0 140 -63.5t49 -201.5t-49 -201.5t-140 -63.5q-61 0 -98.5 25.5t-60.5 68.5l16 11q22 -41 55.5 -63.5t87.5 -22.5q80 0 123 57.5t43 154.5v27h-238z" />
    <glyph glyph-name="uni044E" unicode="&#x44e;" horiz-adv-x="664" 
d="M425 -12q-89 0 -137 64t-48 204h-125v-256h-21v506h21v-231h125q4 121 50 182t135 61q60 0 101 -28t62.5 -86.5t21.5 -150.5t-21.5 -150.5t-62.5 -86.5t-101 -28zM425 7q79 0 120.5 56.5t41.5 155.5v68q0 99 -41.5 155.5t-120.5 56.5t-120.5 -56.5t-41.5 -155.5v-68
q0 -99 41.5 -155.5t120.5 -56.5z" />
    <glyph glyph-name="uni044F" unicode="&#x44f;" horiz-adv-x="467" 
d="M33 0v19h52l81 165q7 14 13 19.5t14 6.5v5q-70 2 -101.5 36.5t-31.5 107.5q0 48 13 80.5t39.5 49.5t65.5 17h195v-506h-21v213h-149l-97 -198q-4 -9 -9.5 -12t-14.5 -3h-49zM178 232h174v255h-174q-48 0 -71.5 -31t-23.5 -75v-43q0 -43 23.5 -74.5t71.5 -31.5z" />
    <glyph glyph-name="uni0450" unicode="&#x450;" horiz-adv-x="480" 
d="M244 -12q-60 0 -102.5 28t-65 86.5t-22.5 150.5t22.5 150.5t65 86.5t102.5 28q61 0 101.5 -28.5t61 -84.5t20.5 -139v-10h-350v-37q0 -99 43.5 -155.5t123.5 -56.5q66 0 103.5 30.5t56.5 91.5l17 -7q-19 -67 -61 -100.5t-116 -33.5zM244 499q-53 0 -90.5 -25.5t-57 -73
t-19.5 -113.5v-13h327v13q0 66 -17.5 113.5t-53 73t-89.5 25.5zM257 587l-103 152l19 12l99 -154z" />
    <glyph glyph-name="uni0451" unicode="&#x451;" horiz-adv-x="480" 
d="M244 -12q-60 0 -102.5 28t-65 86.5t-22.5 150.5t22.5 150.5t65 86.5t102.5 28q61 0 101.5 -28.5t61 -84.5t20.5 -139v-10h-350v-37q0 -99 43.5 -155.5t123.5 -56.5q66 0 103.5 30.5t56.5 91.5l17 -7q-19 -67 -61 -100.5t-116 -33.5zM244 499q-53 0 -90.5 -25.5t-57 -73
t-19.5 -113.5v-13h327v13q0 66 -17.5 113.5t-53 73t-89.5 25.5zM167 642q-13 0 -18 6.5t-5 14.5v7q0 8 5 14.5t18 6.5t18 -6.5t5 -14.5v-7q0 -8 -5 -14.5t-18 -6.5zM317 642q-13 0 -18 6.5t-5 14.5v7q0 8 5 14.5t18 6.5t18 -6.5t5 -14.5v-7q0 -8 -5 -14.5t-18 -6.5z" />
    <glyph glyph-name="uni0452" unicode="&#x452;" horiz-adv-x="503" 
d="M318 -200v19h77v533q0 69 -33 108t-95 39q-40 0 -75 -16.5t-56 -48t-21 -75.5v-359h-21v629h-65v18h65v93h21v-93h150v-18h-150v-199h6q13 38 52.5 63t94.5 25q71 0 109.5 -43.5t38.5 -122.5v-525q0 -15 -6 -21t-21 -6h-71z" />
    <glyph glyph-name="uni0453" unicode="&#x453;" horiz-adv-x="397" 
d="M94 0v506h268v-19h-247v-487h-21zM317 739l-103 -152l-15 10l99 154z" />
    <glyph glyph-name="uni0454" unicode="&#x454;" horiz-adv-x="449" 
d="M243 -12q-91 0 -140 63.5t-49 201.5t49 201.5t140 63.5q56 0 94 -24.5t58 -71.5l-18 -9q-21 45 -52.5 65.5t-81.5 20.5q-80 0 -123 -57t-43 -155v-22h238v-19h-238v-27q0 -97 43 -154.5t123 -57.5q54 0 87.5 22.5t55.5 63.5l16 -11q-22 -43 -59.5 -68.5t-99.5 -25.5z" />
    <glyph glyph-name="uni0455" unicode="&#x455;" horiz-adv-x="417" 
d="M208 -12q-54 0 -93 21t-71 70l17 12q31 -47 64.5 -65.5t82.5 -18.5q64 0 99 29t35 89q0 56 -27 83t-85 37l-41 7q-42 7 -71.5 23t-44.5 43.5t-15 70.5q0 64 41.5 96.5t106.5 32.5q39 0 67 -9.5t47.5 -25.5t34.5 -36l-16 -14q-21 29 -50 47.5t-82 18.5q-57 0 -92 -27
t-35 -82t27 -81.5t86 -36.5l41 -7q63 -10 96.5 -41.5t33.5 -97.5q0 -46 -19 -76.5t-54 -46t-83 -15.5z" />
    <glyph glyph-name="uni0456" unicode="&#x456;" horiz-adv-x="209" 
d="M105 673q-12 0 -17 6t-5 14v9q0 8 5 14t17 6t16.5 -6t4.5 -14v-9q0 -8 -4.5 -14t-16.5 -6zM94 0v506h21v-506h-21z" />
    <glyph glyph-name="uni0457" unicode="&#x457;" horiz-adv-x="209" 
d="M115 0h-21v506h21v-506zM29 642q-13 0 -18 6.5t-5 14.5v7q0 8 5 14.5t18 6.5t18 -6.5t5 -14.5v-7q0 -8 -5 -14.5t-18 -6.5zM179 642q-13 0 -18 6.5t-5 14.5v7q0 8 5 14.5t18 6.5t18 -6.5t5 -14.5v-7q0 -8 -5 -14.5t-18 -6.5z" />
    <glyph glyph-name="uni0458" unicode="&#x458;" horiz-adv-x="209" 
d="M94 -181v687h21v-679q0 -15 -6 -21t-21 -6h-71v19h77zM105 673q-12 0 -17 6t-5 14v9q0 8 5 14t17 6t16.5 -6t4.5 -14v-9q0 -8 -4.5 -14t-16.5 -6z" />
    <glyph glyph-name="uni0459" unicode="&#x459;" horiz-adv-x="689" 
d="M4 0v19h51q23 23 39 61.5t24.5 102t8.5 160.5v163h236v-213h157q40 0 66 -16.5t39.5 -48.5t13.5 -80t-13.5 -81t-39.5 -50t-66 -17h-178v487h-194v-144q0 -96 -9 -161.5t-25 -106t-39 -63.5q-7 -7 -15 -9.5t-18 -2.5h-38zM363 19h159q47 0 70.5 31.5t23.5 74.5v43
q0 43 -23.5 74.5t-70.5 31.5h-159v-255z" />
    <glyph glyph-name="uni045A" unicode="&#x45a;" horiz-adv-x="725" 
d="M94 0v506h21v-222h263v222h21v-222h161q38 0 63.5 -16t38.5 -47.5t13 -77.5t-13 -78t-38.5 -48.5t-63.5 -16.5h-182v265h-263v-265h-21zM399 19h162q46 0 68.5 30.5t22.5 71.5v42q0 41 -22.5 71.5t-68.5 30.5h-162v-246z" />
    <glyph glyph-name="uni045B" unicode="&#x45b;" horiz-adv-x="503" 
d="M115 0h-21v629h-65v18h65v93h21v-93h150v-18h-150v-199h6q13 38 52.5 63t94.5 25q71 0 109.5 -43.5t38.5 -122.5v-352h-21v352q0 69 -33 108t-95 39q-40 0 -75 -16.5t-56 -48t-21 -75.5v-359z" />
    <glyph glyph-name="uni045C" unicode="&#x45c;" horiz-adv-x="470" 
d="M94 0v506h21v-231h110l128 216q5 8 10.5 11.5t14.5 3.5h47v-19h-51l-112 -189q-10 -18 -16.5 -23t-16.5 -7v-5q11 -1 17.5 -7t15.5 -23l118 -214h52v-19h-49q-9 0 -14.5 3.5t-10.5 11.5l-133 241h-110v-256h-21zM331 739l-103 -152l-15 10l99 154z" />
    <glyph glyph-name="uni045D" unicode="&#x45d;" horiz-adv-x="518" 
d="M94 0v506h21v-405l-4 -69h4l35 64l255 410h19v-506h-21v405l4 69h-4l-35 -64l-255 -410h-19zM274 587l-103 152l19 12l99 -154z" />
    <glyph glyph-name="uni045E" unicode="&#x45e;" horiz-adv-x="408" 
d="M259 184l105 322h22l-224 -687q-2 -7 -5.5 -11t-8 -6t-12.5 -2h-84v19h89l52 162l-171 525h22l105 -322l53 -165h4zM206 606q-34 0 -56 19.5t-39 67.5l-10 29l19 8l22 -64q12 -22 27 -32t37 -10q23 0 37.5 10t26.5 32l22 64l19 -8l-10 -29q-16 -48 -38 -67.5t-57 -19.5z
" />
    <glyph glyph-name="uni045F" unicode="&#x45f;" horiz-adv-x="511" 
d="M245 -140v140h-151v506h21v-487h281v487h21v-506h-151v-140h-21z" />
    <glyph glyph-name="uni0462" unicode="&#x462;" horiz-adv-x="580" 
d="M127 0v564h-101v20h101v114h22v-114h206v-20h-206v-166h219q53 0 88 -22.5t52.5 -66.5t17.5 -110q0 -65 -17.5 -109.5t-52.5 -67t-88 -22.5h-241zM149 20h219q46 0 75.5 19.5t44 53.5t14.5 77v58q0 43 -14.5 77t-44 53.5t-75.5 19.5h-219v-358z" />
    <glyph glyph-name="uni0463" unicode="&#x463;" horiz-adv-x="475" 
d="M112 0v487h-85v19h85v204h21v-204h155v-19h-155v-194h174q39 0 65 -16.5t39.5 -49t13.5 -80.5q0 -47 -13.5 -80t-39.5 -50t-65 -17h-195zM133 19h174q48 0 71.5 31.5t23.5 74.5v43q0 44 -23.5 75t-71.5 31h-174v-255z" />
    <glyph glyph-name="uni046A" unicode="&#x46a;" horiz-adv-x="734" 
d="M27 0l170 334q8 16 15 21.5t15 6.5v5l-165 312v19h610v-19l-165 -312v-5q9 -1 16 -7t14 -21l170 -334h-25l-178 351h-126v-351h-22v351h-126l-178 -351h-25zM249 370h236l161 304v5h-557v-5z" />
    <glyph glyph-name="uni046B" unicode="&#x46b;" horiz-adv-x="589" 
d="M27 0l121 219q13 23 18.5 30.5t13.5 9.5v5l-137 223v19h503v-19l-137 -223v-5q8 -2 13.5 -9.5t18.5 -30.5l121 -219h-24l-139 251h-94v-251h-21v251h-94l-139 -251h-24zM200 270h189l130 212v5h-449v-5z" />
    <glyph glyph-name="uni0472" unicode="&#x472;" horiz-adv-x="614" 
d="M307 -12q-74 0 -129 33t-85 111.5t-30 216.5t30 217t85 111.5t129 32.5t129 -32.5t85 -111.5t30 -217t-30 -216.5t-85 -111.5t-129 -33zM307 8q69 0 118 31.5t75.5 98.5t26.5 172v41l15 9q-16 -23 -44.5 -39.5t-67.5 -16.5q-29 0 -57.5 9t-69.5 30q-39 20 -66.5 28.5
t-53.5 8.5q-34 0 -60.5 -14.5t-45.5 -39.5l10 23v-39q0 -105 26.5 -172t75.5 -98.5t118 -31.5zM307 690q-69 0 -118 -31.5t-75.5 -98t-26.5 -172.5v-33l-15 -11q16 23 44.5 39.5t67.5 16.5q29 0 57.5 -9t69.5 -30q39 -19 66.5 -28t53.5 -9q35 0 61 14.5t45 39.5l-10 -21v31
q0 106 -26.5 172.5t-75.5 98t-118 31.5z" />
    <glyph glyph-name="uni0473" unicode="&#x473;" horiz-adv-x="488" 
d="M244 -12q-60 0 -102.5 28t-65 86.5t-22.5 150.5t22.5 150.5t65 86.5t102.5 28q61 0 103 -28t64.5 -86.5t22.5 -150.5t-22.5 -150.5t-64.5 -86.5t-103 -28zM244 7q80 0 123.5 56.5t43.5 155.5v28q-15 -16 -31.5 -25.5t-41.5 -9.5q-22 0 -43 9t-56 30q-33 20 -51 28t-38 8
q-23 0 -39.5 -9t-33.5 -29v-30q0 -99 43.5 -155.5t123.5 -56.5zM77 287v-15q15 17 31.5 26t41.5 9q23 0 43.5 -9t55.5 -30q33 -19 51.5 -27.5t37.5 -8.5q23 0 39.5 9.5t33.5 28.5v17q0 99 -43.5 155.5t-123.5 56.5t-123.5 -56.5t-43.5 -155.5z" />
    <glyph glyph-name="uni0474" unicode="&#x474;" horiz-adv-x="558" 
d="M277 0h-38l-212 698h24l116 -382l89 -296h4l81 296l98 358q4 14 10.5 19t18.5 5h81v-20h-85z" />
    <glyph glyph-name="uni0475" unicode="&#x475;" horiz-adv-x="432" 
d="M221 0h-34l-165 506h22l105 -322l53 -165h4l45 165l85 302q3 11 9 15.5t18 4.5h62v-19h-68z" />
    <glyph glyph-name="uni0490" unicode="&#x490;" horiz-adv-x="456" 
d="M97 0v698h298v150h22v-170h-298v-678h-22z" />
    <glyph glyph-name="uni0491" unicode="&#x491;" horiz-adv-x="397" 
d="M94 0v506h248v140h20v-159h-247v-487h-21z" />
    <glyph glyph-name="uni0492" unicode="&#x492;" horiz-adv-x="474" 
d="M115 0v365h-92v19h92v314h320v-20h-298v-294h197v-19h-197v-365h-22z" />
    <glyph glyph-name="uni0493" unicode="&#x493;" horiz-adv-x="405" 
d="M102 0v257h-75v18h75v231h268v-19h-247v-212h167v-18h-167v-257h-21z" />
    <glyph glyph-name="uni0494" unicode="&#x494;" horiz-adv-x="551" 
d="M320 -164v20h76q33 11 52.5 51.5t19.5 122.5v146q0 101 -47.5 144.5t-140.5 43.5q-52 0 -92 -7.5t-69 -21.5v-335h-22v698h302v-20h-280v-322h5q29 13 67.5 20.5t90.5 7.5q107 0 157.5 -50.5t50.5 -157.5v-146q0 -72 -14.5 -114.5t-40 -61t-59.5 -18.5h-56z" />
    <glyph glyph-name="uni0495" unicode="&#x495;" horiz-adv-x="474" 
d="M282 -200v19h79q17 17 25.5 46.5t8.5 80.5v183q0 67 -34 97.5t-96 30.5q-69 0 -109.5 -38.5t-40.5 -96.5v-122h-21v506h268v-19h-247v-294h6q14 36 52.5 59.5t92.5 23.5q72 0 111 -37t39 -110v-187q0 -79 -20 -110.5t-47 -31.5h-67z" />
    <glyph glyph-name="uni0496" unicode="&#x496;" horiz-adv-x="825" 
d="M766 -150v160l10 -10h-51q-9 0 -15 3.5t-10 11.5l-159 329h-122v-344h-22v344h-122l-159 -329q-4 -8 -10 -11.5t-15 -3.5h-51v20h53l151 312q5 10 11 14t16 5v5q-10 2 -15.5 6.5t-10.5 15.5l-141 300h-54v20h50q9 0 15 -3.5t10 -11.5l150 -319h122v334h22v-334h122
l150 319q4 8 10 11.5t15 3.5h50v-20h-54l-141 -300q-5 -11 -10 -15.5t-16 -6.5v-5q11 -1 17 -5t10 -14l151 -312h65v-170h-22z" />
    <glyph glyph-name="uni0497" unicode="&#x497;" horiz-adv-x="673" 
d="M617 -140v151l12 -11h-49q-9 0 -14.5 3.5t-9.5 11.5l-112 241h-100v-256h-21v256h-100l-112 -241q-4 -8 -9.5 -11.5t-14.5 -3.5h-49v19h52l100 216q8 17 14 22t15 6v5q-10 2 -15.5 7.5t-13.5 21.5l-94 190h-51v19h46q9 0 15 -3.5t10 -11.5l107 -216h100v231h21v-231h100
l107 216q5 8 10.5 11.5t14.5 3.5h46v-19h-51l-94 -190q-8 -16 -13.5 -21.5t-15.5 -7.5v-5q9 -1 15 -6t14 -22l100 -216h61v-159h-21z" />
    <glyph glyph-name="uni0498" unicode="&#x498;" horiz-adv-x="515" 
d="M240 -150v138q-67 2 -114.5 28t-76.5 79l18 11q28 -52 73.5 -75t113.5 -23q56 0 95.5 18t61 53.5t21.5 85.5v36q0 70 -46 106.5t-125 36.5h-106v20h104q47 0 84 18.5t58 52.5t21 82v32q0 68 -42.5 104.5t-119.5 36.5q-74 0 -113 -26.5t-58 -72.5l-18 8q18 50 63.5 80.5
t125.5 30.5q90 0 138 -44.5t48 -130.5q0 -85 -37 -125t-93 -53v-6q42 -5 73.5 -24t49 -53.5t17.5 -87.5q0 -98 -50.5 -147t-143.5 -51v-138h-22z" />
    <glyph glyph-name="uni0499" unicode="&#x499;" horiz-adv-x="443" 
d="M199 -140v128q-58 3 -93.5 27t-58.5 67l16 11q23 -43 57.5 -64.5t91.5 -21.5q59 0 97 30.5t38 80.5v28q0 50 -32 77.5t-90 27.5h-95v19h94q51 0 81.5 30t30.5 73v26q0 47 -34 73.5t-92 26.5q-54 0 -85.5 -20.5t-52.5 -65.5l-18 9q20 47 58 71.5t98 24.5q69 0 109 -33.5
t40 -98.5q0 -53 -25.5 -84.5t-68.5 -37.5v-5q48 -4 76.5 -34.5t28.5 -92.5q0 -64 -39.5 -102.5t-110.5 -41.5v-128h-21z" />
    <glyph glyph-name="uni049A" unicode="&#x49a;" horiz-adv-x="566" 
d="M507 -150v160l11 -10h-52q-9 0 -14.5 3.5t-10.5 11.5l-178 329h-144v-344h-22v698h22v-334h144l168 319q5 8 10.5 11.5t14.5 3.5h50v-20h-54l-158 -300q-6 -12 -11 -16t-16 -6v-5q11 -1 17 -5t11 -14l169 -312h65v-170h-22z" />
    <glyph glyph-name="uni049B" unicode="&#x49b;" horiz-adv-x="476" 
d="M420 -140v151l12 -11h-49q-9 0 -14.5 3.5t-10.5 11.5l-133 241h-110v-256h-21v506h21v-231h110l128 216q5 8 10.5 11.5t14.5 3.5h47v-19h-51l-112 -189q-10 -18 -16.5 -23t-16.5 -7v-5q11 -1 17.5 -7t15.5 -23l118 -214h61v-159h-21z" />
    <glyph glyph-name="uni049C" unicode="&#x49c;" horiz-adv-x="567" 
d="M97 0v698h22v-334h74v173h22v-173h58l168 319q5 8 10.5 11.5t14.5 3.5h50v-20h-54l-158 -300q-6 -12 -11 -16t-16 -6v-5q11 -1 17 -5t11 -14l169 -312h53v-20h-51q-9 0 -14.5 3.5t-10.5 11.5l-178 329h-58v-171h-22v171h-74v-344h-22z" />
    <glyph glyph-name="uni049D" unicode="&#x49d;" horiz-adv-x="488" 
d="M94 0v506h21v-231h59v130h20v-130h49l128 216q5 8 10.5 11.5t14.5 3.5h47v-19h-51l-112 -189q-10 -18 -16.5 -23t-16.5 -7v-5q11 -1 17.5 -7t15.5 -23l118 -214h52v-19h-49q-9 0 -14.5 3.5t-10.5 11.5l-133 241h-49v-131h-20v131h-59v-256h-21z" />
    <glyph glyph-name="uni049E" unicode="&#x49e;" horiz-adv-x="578" 
d="M118 0v575h-92v19h92v104h22v-104h157v-19h-157v-211h144l168 319q5 8 10.5 11.5t14.5 3.5h50v-20h-54l-158 -300q-6 -12 -11 -16t-16 -6v-5q11 -1 17 -5t11 -14l169 -312h53v-20h-51q-9 0 -14.5 3.5t-10.5 11.5l-178 329h-144v-344h-22z" />
    <glyph glyph-name="uni049F" unicode="&#x49f;" horiz-adv-x="470" 
d="M94 0v573h-65v18h65v149h21v-149h150v-18h-150v-298h110l128 216q5 8 10.5 11.5t14.5 3.5h47v-19h-51l-112 -189q-10 -18 -16.5 -23t-16.5 -7v-5q11 -1 17.5 -7t15.5 -23l118 -214h52v-19h-49q-9 0 -14.5 3.5t-10.5 11.5l-133 241h-110v-256h-21z" />
    <glyph glyph-name="uni04A0" unicode="&#x4a0;" horiz-adv-x="670" 
d="M210 0v678h-195v20h217v-334h144l168 319q5 8 10.5 11.5t14.5 3.5h50v-20h-54l-158 -300q-6 -12 -11 -16t-16 -6v-5q11 -1 17 -5t11 -14l169 -312h53v-20h-51q-9 0 -14.5 3.5t-10.5 11.5l-178 329h-144v-344h-22z" />
    <glyph glyph-name="uni04A1" unicode="&#x4a1;" horiz-adv-x="549" 
d="M173 0v487h-142v19h163v-231h110l128 216q5 8 10.5 11.5t14.5 3.5h47v-19h-51l-112 -189q-10 -18 -16.5 -23t-16.5 -7v-5q11 -1 17.5 -7t15.5 -23l118 -214h52v-19h-49q-9 0 -14.5 3.5t-10.5 11.5l-133 241h-110v-256h-21z" />
    <glyph glyph-name="uni04A2" unicode="&#x4a2;" horiz-adv-x="651" 
d="M585 -150v150h-80v344h-386v-344h-22v698h22v-334h386v334h22v-678h80v-170h-22z" />
    <glyph glyph-name="uni04A3" unicode="&#x4a3;" horiz-adv-x="532" 
d="M471 -140v140h-68v256h-288v-256h-21v506h21v-231h288v231h21v-487h68v-159h-21z" />
    <glyph glyph-name="uni04A4" unicode="&#x4a4;" horiz-adv-x="842" 
d="M97 0v698h22v-334h364v334h320v-20h-298v-678h-22v344h-364v-344h-22z" />
    <glyph glyph-name="uni04A5" unicode="&#x4a5;" horiz-adv-x="681" 
d="M94 0v506h21v-231h263v231h268v-19h-247v-487h-21v256h-263v-256h-21z" />
    <glyph glyph-name="uni04A6" unicode="&#x4a6;" horiz-adv-x="912" 
d="M681 -164v20h76q33 11 52.5 51.5t19.5 122.5v146q0 101 -46 144.5t-136 43.5q-51 0 -87 -7.5t-63 -21.5v-335h-22v678h-356v-678h-22v698h400v-342h5q26 13 61.5 20.5t85.5 7.5q104 0 153 -50.5t49 -157.5v-146q0 -72 -14.5 -114.5t-40 -61t-59.5 -18.5h-56z" />
    <glyph glyph-name="uni04A7" unicode="&#x4a7;" horiz-adv-x="741" 
d="M549 -200v19h79q17 17 25.5 46.5t8.5 80.5v183q0 67 -31 97.5t-90 30.5q-66 0 -104 -38.5t-38 -96.5v-122h-21v487h-263v-487h-21v506h305v-313h6q14 36 50 59.5t87 23.5q69 0 105 -37t36 -110v-187q0 -79 -20 -110.5t-47 -31.5h-67z" />
    <glyph glyph-name="uni04A8" unicode="&#x4a8;" horiz-adv-x="772" 
d="M723 -12v-20h-37q-50 0 -91 12t-82 40q-35 -17 -70.5 -24.5t-74.5 -7.5q-93 0 -161.5 38.5t-106 119.5t-37.5 209q0 135 29.5 212.5t83 110t124.5 32.5q17 0 31 -2t23 -5l-5 -20q-7 3 -20.5 5t-28.5 2q-66 0 -113.5 -31.5t-73.5 -96.5t-26 -168v-78q0 -101 35.5 -169.5
t99 -103.5t146.5 -35q40 0 70 6t55 18q-80 52 -123 134t-43 206q0 109 23.5 170t66 86.5t99.5 25.5q56 0 98 -25.5t65.5 -86.5t23.5 -170q0 -124 -43.5 -206t-125.5 -135q36 -22 71.5 -32.5t80.5 -10.5h37zM351 407v-66q0 -95 42.5 -172t121.5 -127q80 50 122 127t42 172v66
q0 119 -44 173t-119 54q-77 0 -121 -54t-44 -173z" />
    <glyph glyph-name="uni04A9" unicode="&#x4a9;" horiz-adv-x="620" 
d="M578 -12v-19h-31q-37 0 -69 9.5t-72 31.5q-25 -10 -53.5 -16t-61.5 -6q-70 0 -123.5 28.5t-83.5 88.5t-30 152q0 90 22 147.5t64.5 85.5t102.5 28q9 0 18 -1t16 -3l-2 -19q-6 2 -15.5 3t-16.5 1q-80 0 -123 -57t-43 -155v-62q0 -66 26.5 -115t75 -76t112.5 -27
q27 0 52.5 4t42.5 11q-57 38 -91 96.5t-34 155.5q0 108 38.5 157.5t109.5 49.5t109.5 -49.5t38.5 -157.5q0 -97 -34.5 -156t-95.5 -97q36 -19 62.5 -26t57.5 -7h31zM284 302v-56q0 -72 34 -126t89 -89q59 35 93 89t34 126v56q0 74 -32 117t-93 43t-93 -43t-32 -117z" />
    <glyph glyph-name="uni04AA" unicode="&#x4aa;" horiz-adv-x="549" 
d="M300 -12q-71 0 -124.5 33t-83 111.5t-29.5 216.5t29.5 217t83 111.5t124.5 32.5q80 0 125.5 -37t70.5 -102l-19 -9q-22 63 -64 95.5t-113 32.5q-99 0 -156 -72t-57 -230v-78q0 -158 57 -230t156 -72q77 0 118.5 34.5t62.5 101.5l19 -8q-22 -70 -69.5 -109t-130.5 -39z
M305 -202q-26 0 -45.5 9.5t-27.5 22.5l12 12q10 -13 24.5 -19.5t36.5 -6.5q26 0 40.5 13.5t14.5 35.5q0 23 -14.5 36t-40.5 13h-37l20 88h17l-17 -80h4q5 3 11 4.5t13 1.5q28 0 46 -15.5t18 -47.5q0 -19 -8.5 -34.5t-25 -24t-41.5 -8.5z" />
    <glyph glyph-name="uni04AB" unicode="&#x4ab;" horiz-adv-x="439" 
d="M243 -12q-91 0 -140 63.5t-49 201.5t49 201.5t140 63.5q56 0 94 -24.5t58 -71.5l-18 -9q-21 45 -52.5 65.5t-81.5 20.5q-80 0 -123 -57t-43 -155v-68q0 -97 43 -154.5t123 -57.5q54 0 87.5 22.5t55.5 63.5l16 -11q-22 -43 -59.5 -68.5t-99.5 -25.5zM253 -202
q-26 0 -45.5 9.5t-27.5 22.5l12 12q10 -13 24.5 -19.5t36.5 -6.5q26 0 40.5 13.5t14.5 35.5q0 23 -14.5 36t-40.5 13h-37l20 88h17l-17 -80h4q5 3 11 4.5t13 1.5q28 0 46 -15.5t18 -47.5q0 -19 -8.5 -34.5t-25 -24t-41.5 -8.5z" />
    <glyph glyph-name="uni04AC" unicode="&#x4ac;" horiz-adv-x="504" 
d="M489 678h-226v-658h80v-170h-22v150h-80v678h-226v20h474v-20z" />
    <glyph glyph-name="uni04AD" unicode="&#x4ad;" horiz-adv-x="431" 
d="M205 0v487h-174v19h369v-19h-174v-468h68v-159h-21v140h-68z" />
    <glyph glyph-name="uni04AE" unicode="&#x4ae;" horiz-adv-x="493" 
d="M257 0h-22v294l-216 404h24l200 -374h6l200 374h24l-216 -404v-294z" />
    <glyph glyph-name="uni04AF" unicode="&#x4af;" horiz-adv-x="407" 
d="M193 -200v200l-171 506h22l131 -390l27 -84h3l27 84l131 390h22l-171 -506v-200h-21z" />
    <glyph glyph-name="uni04B0" unicode="&#x4b0;" horiz-adv-x="493" 
d="M235 0v274h-162v20h162l-216 404h24l200 -374h6l200 374h24l-216 -404h162v-20h-162v-274h-22z" />
    <glyph glyph-name="uni04B1" unicode="&#x4b1;" horiz-adv-x="407" 
d="M193 -200v181h-117v19h117l-171 506h22l131 -390l27 -84h3l27 84l131 390h22l-171 -506h117v-19h-117v-181h-21z" />
    <glyph glyph-name="uni04B2" unicode="&#x4b2;" horiz-adv-x="533" 
d="M509 -150v150h-56l-197 332h-6l-199 -332h-26l214 354l-206 344h26l190 -319h6l190 319h26l-205 -341l201 -337h64v-170h-22z" />
    <glyph glyph-name="uni04B3" unicode="&#x4b3;" horiz-adv-x="441" 
d="M420 -140v140h-50l-155 236h-6l-155 -236h-24l169 255l-164 251h24l150 -232h6l151 232h24l-165 -251l156 -236h60v-159h-21z" />
    <glyph glyph-name="uni04B4" unicode="&#x4b4;" horiz-adv-x="791" 
d="M725 -150v150h-484v678h-226v20h474v-20h-226v-658h382v678h22v-678h80v-170h-22z" />
    <glyph glyph-name="uni04B5" unicode="&#x4b5;" horiz-adv-x="645" 
d="M584 -140v140h-379v487h-174v19h368v-19h-173v-468h290v487h21v-487h68v-159h-21z" />
    <glyph glyph-name="uni04B6" unicode="&#x4b6;" horiz-adv-x="587" 
d="M521 -150v150h-80v305h-5q-28 -13 -69 -20.5t-94 -7.5q-109 0 -160.5 51t-51.5 157v213h22v-213q0 -100 48.5 -144t143.5 -44q54 0 95.5 8t70.5 21v372h22v-678h80v-170h-22z" />
    <glyph glyph-name="uni04B7" unicode="&#x4b7;" horiz-adv-x="484" 
d="M423 -140v140h-68v278h-6q-13 -36 -52 -59.5t-93 -23.5q-72 0 -111 37t-39 110v164h21v-164q0 -66 34.5 -97t95.5 -31q69 0 109.5 38.5t40.5 96.5v157h21v-487h68v-159h-21z" />
    <glyph glyph-name="uni04B8" unicode="&#x4b8;" horiz-adv-x="560" 
d="M441 0v305h-5q-28 -13 -68.5 -20.5t-90.5 -7.5v-159h-20v159q-97 5 -146.5 53.5t-49.5 154.5v213h22v-213q0 -100 46 -141.5t128 -46.5v185h20v-185q53 0 94 8t70 21v372h22v-698h-22z" />
    <glyph glyph-name="uni04B9" unicode="&#x4b9;" horiz-adv-x="470" 
d="M355 0v278h-6q-13 -36 -48 -57t-77 -26v-102h-20v102q-72 0 -111 37t-39 110v164h21v-164q0 -67 34 -97.5t95 -30.5v159h20v-159q55 5 93 41t38 94v157h21v-506h-21z" />
    <glyph glyph-name="uni04BA" unicode="&#x4ba;" horiz-adv-x="560" 
d="M97 0v698h22v-305h5q29 13 69.5 20.5t93.5 7.5q110 0 161 -50.5t51 -157.5v-213h-22v213q0 101 -48.5 144.5t-143.5 43.5q-54 0 -95.5 -7.5t-70.5 -21.5v-372h-22z" />
    <glyph glyph-name="uni04BB" unicode="&#x4bb;" horiz-adv-x="501" 
d="M94 0v740h21v-310h6q13 38 52.5 63t94.5 25q71 0 109.5 -43.5t38.5 -122.5v-352h-21v352q0 69 -33 108t-95 39q-40 0 -75 -16.5t-56 -48t-21 -75.5v-359h-21z" />
    <glyph glyph-name="uni04BC" unicode="&#x4bc;" horiz-adv-x="681" 
d="M631 349v-2h-476l12 7v-44q0 -105 26.5 -172t76 -98.5t117.5 -31.5q78 0 131 41.5t75 129.5l20 -5q-17 -69 -49 -110t-77 -58.5t-100 -17.5q-74 0 -129 32.5t-85 111t-30 215.5h-75q-15 0 -20.5 5.5t-5.5 20.5v108h20v-114h81q2 129 32 204t84 107t128 32t129 -32.5
t85 -111.5t30 -217zM387 690q-68 0 -117.5 -31.5t-76 -98t-26.5 -172.5v-28l-9 7h458l-9 -7v28q0 106 -26.5 172.5t-75.5 98t-118 31.5z" />
    <glyph glyph-name="uni04BD" unicode="&#x4bd;" horiz-adv-x="535" 
d="M299 -12q-60 0 -102.5 28t-65 87.5t-22.5 152.5h-59q-15 0 -21 6t-6 21v93h20v-101h66q5 122 52 182.5t138 60.5q61 0 101.5 -28.5t61 -84.5t20.5 -139v-10h-350v-37q0 -99 43.5 -155.5t123.5 -56.5q66 0 103.5 30.5t56.5 91.5l17 -7q-19 -67 -61 -100.5t-116 -33.5z
M299 499q-54 0 -91 -25.5t-56.5 -73t-19.5 -113.5v-12l327 -1v13q0 66 -17.5 113.5t-53 73t-89.5 25.5z" />
    <glyph glyph-name="uni04BE" unicode="&#x4be;" horiz-adv-x="681" 
d="M631 349v-2h-476l12 7v-44q0 -105 26.5 -172t76 -98.5t117.5 -31.5q78 0 131 41.5t75 129.5l20 -5q-17 -69 -48.5 -109t-72.5 -57t-89 -20v-138h-21v138q-71 1 -125 33.5t-84 110.5t-30 215h-75q-15 0 -20.5 5.5t-5.5 20.5v108h20v-114h81q2 129 32 204t84 107t128 32
t129 -32.5t85 -111.5t30 -217zM387 690q-68 0 -117.5 -31.5t-76 -98t-26.5 -172.5v-26l-9 5h458l-9 -7v28q0 106 -26.5 172.5t-75.5 98t-118 31.5z" />
    <glyph glyph-name="uni04BF" unicode="&#x4bf;" horiz-adv-x="535" 
d="M311 -12v-128h-21v128q-84 3 -132.5 65.5t-48.5 202.5h-59q-15 0 -21 6t-6 21v93h20v-101h66q5 122 52 182.5t138 60.5q61 0 101.5 -28.5t61 -84.5t20.5 -139v-10h-350v-37q0 -99 43.5 -155.5t123.5 -56.5q66 0 103.5 30.5t56.5 91.5l17 -7q-19 -67 -59.5 -99t-105.5 -35
zM299 499q-54 0 -91 -25.5t-56.5 -73t-19.5 -113.5v-12l327 -1v13q0 66 -17.5 113.5t-53 73t-89.5 25.5z" />
    <glyph glyph-name="uni04C0" unicode="&#x4c0;" horiz-adv-x="336" 
d="M275 0h-214v19h96v660h-96v19h214v-19h-96v-660h96v-19z" />
    <glyph glyph-name="uni04C1" unicode="&#x4c1;" horiz-adv-x="816" 
d="M40 0v20h53l151 312q5 10 11 14t16 5v5q-10 2 -15.5 6.5t-10.5 15.5l-141 300h-54v20h50q9 0 15 -3.5t10 -11.5l150 -319h122v334h22v-334h122l150 319q4 8 10 11.5t15 3.5h50v-20h-54l-141 -300q-5 -11 -10 -15.5t-16 -6.5v-5q11 -1 17 -5t10 -14l151 -312h53v-20h-51
q-9 0 -15 3.5t-10 11.5l-159 329h-122v-344h-22v344h-122l-159 -329q-4 -8 -10 -11.5t-15 -3.5h-51zM408 764q-34 0 -56 19.5t-39 67.5l-10 29l19 8l22 -64q12 -22 27 -32t37 -10q23 0 37.5 10t26.5 32l22 64l19 -8l-10 -29q-16 -48 -38 -67.5t-57 -19.5z" />
    <glyph glyph-name="uni04C2" unicode="&#x4c2;" horiz-adv-x="667" 
d="M38 0v19h52l100 216q8 17 14 22t15 6v5q-10 2 -15.5 7.5t-13.5 21.5l-94 190h-51v19h46q9 0 15 -3.5t10 -11.5l107 -216h100v231h21v-231h100l107 216q5 8 10.5 11.5t14.5 3.5h46v-19h-51l-94 -190q-8 -16 -13.5 -21.5t-15.5 -7.5v-5q9 -1 15 -6t14 -22l100 -216h52v-19
h-49q-9 0 -14.5 3.5t-9.5 11.5l-112 241h-100v-256h-21v256h-100l-112 -241q-4 -8 -9.5 -11.5t-14.5 -3.5h-49zM333 606q-34 0 -56 19.5t-39 67.5l-10 29l19 8l22 -64q12 -22 27 -32t37 -10q23 0 37.5 10t26.5 32l22 64l19 -8l-10 -29q-16 -48 -38 -67.5t-57 -19.5z" />
    <glyph glyph-name="uni04CF" unicode="&#x4cf;" horiz-adv-x="209" 
d="M94 0v740h21v-740h-21z" />
    <glyph glyph-name="uni04D0" unicode="&#x4d0;" horiz-adv-x="542" 
d="M515 0h-24l-76 234h-288l-76 -234h-24l226 698h36zM408 253l-87 274l-48 151h-4l-48 -151l-87 -274h274zM271 764q-34 0 -56 19.5t-39 67.5l-10 29l19 8l22 -64q12 -22 27 -32t37 -10q23 0 37.5 10t26.5 32l22 64l19 -8l-10 -29q-16 -48 -38 -67.5t-57 -19.5z" />
    <glyph glyph-name="uni04D1" unicode="&#x4d1;" horiz-adv-x="468" 
d="M449 0h-73q-9 0 -14 2t-7 7t-2 14v65l10 -10h-16q-14 -40 -50.5 -65t-94.5 -25q-69 0 -108.5 35t-39.5 108q0 49 19 80.5t54.5 47t84.5 15.5h141v85q0 77 -33.5 108.5t-97.5 31.5q-50 0 -83.5 -21t-51.5 -74l-17 8q18 52 54 79t98 27q76 0 114 -38t38 -118v-343h75v-19z
M353 256h-141q-58 0 -96.5 -27.5t-38.5 -77.5v-39q0 -49 36 -77t89 -28q42 0 76 15.5t54.5 47t20.5 78.5v108zM224 606q-34 0 -56 19.5t-39 67.5l-10 29l19 8l22 -64q12 -22 27 -32t37 -10q23 0 37.5 10t26.5 32l22 64l19 -8l-10 -29q-16 -48 -38 -67.5t-57 -19.5z" />
    <glyph glyph-name="uni04D2" unicode="&#x4d2;" horiz-adv-x="542" 
d="M515 0h-24l-76 234h-288l-76 -234h-24l226 698h36zM408 253l-87 274l-48 151h-4l-48 -151l-87 -274h274zM196 819q-13 0 -18 6.5t-5 14.5v7q0 8 5 14.5t18 6.5t18 -6.5t5 -14.5v-7q0 -8 -5 -14.5t-18 -6.5zM346 819q-13 0 -18 6.5t-5 14.5v7q0 8 5 14.5t18 6.5t18 -6.5
t5 -14.5v-7q0 -8 -5 -14.5t-18 -6.5z" />
    <glyph glyph-name="uni04D3" unicode="&#x4d3;" horiz-adv-x="468" 
d="M449 0h-73q-9 0 -14 2t-7 7t-2 14v65l10 -10h-16q-14 -40 -50.5 -65t-94.5 -25q-69 0 -108.5 35t-39.5 108q0 49 19 80.5t54.5 47t84.5 15.5h141v85q0 77 -33.5 108.5t-97.5 31.5q-50 0 -83.5 -21t-51.5 -74l-17 8q18 52 54 79t98 27q76 0 114 -38t38 -118v-343h75v-19z
M353 256h-141q-58 0 -96.5 -27.5t-38.5 -77.5v-39q0 -49 36 -77t89 -28q42 0 76 15.5t54.5 47t20.5 78.5v108zM149 642q-13 0 -18 6.5t-5 14.5v7q0 8 5 14.5t18 6.5t18 -6.5t5 -14.5v-7q0 -8 -5 -14.5t-18 -6.5zM299 642q-13 0 -18 6.5t-5 14.5v7q0 8 5 14.5t18 6.5t18 -6.5
t5 -14.5v-7q0 -8 -5 -14.5t-18 -6.5z" />
    <glyph glyph-name="uni04D4" unicode="&#x4d4;" horiz-adv-x="777" 
d="M368 0v234h-227l-115 -234h-24l344 698h366v-20h-322v-314h311v-20h-311v-324h322v-20h-344zM368 678h-8l-209 -425h217v425z" />
    <glyph glyph-name="uni04D5" unicode="&#x4d5;" horiz-adv-x="784" 
d="M359 256h-147q-58 0 -96.5 -27.5t-38.5 -77.5v-39q0 -49 36 -77t89 -28q47 0 82.5 25.5t55 73t19.5 113.5v37zM381 274h327v13q0 66 -17.5 113.5t-53 73t-89.5 25.5q-53 0 -90.5 -25.5t-57 -73t-19.5 -113.5v-13zM548 7q66 0 103.5 30.5t56.5 91.5l17 -7
q-19 -67 -61 -100.5t-116 -33.5q-46 0 -80.5 16.5t-58.5 50.5t-36 86h-6q-12 -52 -36 -86t-56.5 -50.5t-72.5 -16.5q-69 0 -108.5 35t-39.5 108q0 49 19 80.5t54.5 47t84.5 15.5h147v13q0 95 -36 153.5t-106 58.5q-49 0 -80.5 -21t-49.5 -74l-17 8q18 52 51 79t94 27
q42 0 72 -17t50 -51t30 -85h6q12 53 37.5 86.5t61 50t76.5 16.5q61 0 101.5 -28.5t61 -84.5t20.5 -139v-10h-350v-37q0 -99 43.5 -155.5t123.5 -56.5z" />
    <glyph glyph-name="uni04D6" unicode="&#x4d6;" horiz-adv-x="506" 
d="M441 0h-344v698h344v-20h-322v-314h311v-20h-311v-324h322v-20zM269 764q-34 0 -56 19.5t-39 67.5l-10 29l19 8l22 -64q12 -22 27 -32t37 -10q23 0 37.5 10t26.5 32l22 64l19 -8l-10 -29q-16 -48 -38 -67.5t-57 -19.5z" />
    <glyph glyph-name="uni04D7" unicode="&#x4d7;" horiz-adv-x="480" 
d="M244 -12q-60 0 -102.5 28t-65 86.5t-22.5 150.5t22.5 150.5t65 86.5t102.5 28q61 0 101.5 -28.5t61 -84.5t20.5 -139v-10h-350v-37q0 -99 43.5 -155.5t123.5 -56.5q66 0 103.5 30.5t56.5 91.5l17 -7q-19 -67 -61 -100.5t-116 -33.5zM244 499q-53 0 -90.5 -25.5t-57 -73
t-19.5 -113.5v-13h327v13q0 66 -17.5 113.5t-53 73t-89.5 25.5zM242 606q-34 0 -56 19.5t-39 67.5l-10 29l19 8l22 -64q12 -22 27 -32t37 -10q23 0 37.5 10t26.5 32l22 64l19 -8l-10 -29q-16 -48 -38 -67.5t-57 -19.5z" />
    <glyph glyph-name="uni04D8" unicode="&#x4d8;" horiz-adv-x="614" 
d="M63 351h464v37q0 158 -58.5 230t-161.5 72q-78 0 -131 -41t-75 -130l-20 5q17 70 49 110.5t77 58t100 17.5q74 0 129 -32.5t85 -111.5t30 -217t-30 -216.5t-85 -111.5t-129 -33t-129 33t-85 111.5t-30 216.5v2zM87 331v-21q0 -105 26.5 -172t75.5 -98.5t118 -31.5
t118 31.5t75.5 98.5t26.5 172v21h-440z" />
    <glyph glyph-name="uni04D9" unicode="&#x4d9;" horiz-adv-x="480" 
d="M53 250h350v37q0 99 -43.5 155.5t-123.5 56.5q-66 0 -103 -30.5t-57 -91.5l-17 7q20 67 62 100.5t115 33.5q61 0 103 -28t64.5 -86.5t22.5 -150.5t-22.5 -150.5t-64.5 -86.5t-103 -28q-60 0 -101 28.5t-61.5 85t-20.5 138.5v10zM76 232v-13q0 -66 17.5 -113.5t53.5 -73
t89 -25.5q54 0 91 25.5t56.5 73t19.5 113.5v13h-327z" />
    <glyph glyph-name="uni04DC" unicode="&#x4dc;" horiz-adv-x="816" 
d="M40 0v20h53l151 312q5 10 11 14t16 5v5q-10 2 -15.5 6.5t-10.5 15.5l-141 300h-54v20h50q9 0 15 -3.5t10 -11.5l150 -319h122v334h22v-334h122l150 319q4 8 10 11.5t15 3.5h50v-20h-54l-141 -300q-5 -11 -10 -15.5t-16 -6.5v-5q11 -1 17 -5t10 -14l151 -312h53v-20h-51
q-9 0 -15 3.5t-10 11.5l-159 329h-122v-344h-22v344h-122l-159 -329q-4 -8 -10 -11.5t-15 -3.5h-51zM333 819q-13 0 -18 6.5t-5 14.5v7q0 8 5 14.5t18 6.5t18 -6.5t5 -14.5v-7q0 -8 -5 -14.5t-18 -6.5zM483 819q-13 0 -18 6.5t-5 14.5v7q0 8 5 14.5t18 6.5t18 -6.5t5 -14.5
v-7q0 -8 -5 -14.5t-18 -6.5z" />
    <glyph glyph-name="uni04DD" unicode="&#x4dd;" horiz-adv-x="667" 
d="M38 0v19h52l100 216q8 17 14 22t15 6v5q-10 2 -15.5 7.5t-13.5 21.5l-94 190h-51v19h46q9 0 15 -3.5t10 -11.5l107 -216h100v231h21v-231h100l107 216q5 8 10.5 11.5t14.5 3.5h46v-19h-51l-94 -190q-8 -16 -13.5 -21.5t-15.5 -7.5v-5q9 -1 15 -6t14 -22l100 -216h52v-19
h-49q-9 0 -14.5 3.5t-9.5 11.5l-112 241h-100v-256h-21v256h-100l-112 -241q-4 -8 -9.5 -11.5t-14.5 -3.5h-49zM258 642q-13 0 -18 6.5t-5 14.5v7q0 8 5 14.5t18 6.5t18 -6.5t5 -14.5v-7q0 -8 -5 -14.5t-18 -6.5zM408 642q-13 0 -18 6.5t-5 14.5v7q0 8 5 14.5t18 6.5
t18 -6.5t5 -14.5v-7q0 -8 -5 -14.5t-18 -6.5z" />
    <glyph glyph-name="uni04DE" unicode="&#x4de;" horiz-adv-x="515" 
d="M254 -12q-77 0 -126.5 27t-78.5 80l18 11q28 -52 73.5 -75t113.5 -23q56 0 95.5 18t61 53.5t21.5 85.5v36q0 70 -46 106.5t-125 36.5h-106v20h104q47 0 84 18.5t58 52.5t21 82v32q0 68 -42.5 104.5t-119.5 36.5q-74 0 -113 -26.5t-58 -72.5l-18 8q18 50 63.5 80.5
t125.5 30.5q90 0 138 -44.5t48 -130.5q0 -85 -37 -125t-93 -53v-6q42 -5 73.5 -24t49 -53.5t17.5 -87.5q0 -65 -23.5 -109.5t-68.5 -66.5t-110 -22zM184 819q-13 0 -18 6.5t-5 14.5v7q0 8 5 14.5t18 6.5t18 -6.5t5 -14.5v-7q0 -8 -5 -14.5t-18 -6.5zM334 819q-13 0 -18 6.5
t-5 14.5v7q0 8 5 14.5t18 6.5t18 -6.5t5 -14.5v-7q0 -8 -5 -14.5t-18 -6.5z" />
    <glyph glyph-name="uni04DF" unicode="&#x4df;" horiz-adv-x="443" 
d="M212 -12q-67 0 -104.5 25.5t-60.5 68.5l16 11q23 -43 57.5 -64.5t91.5 -21.5q59 0 97 30.5t38 80.5v28q0 50 -32 77.5t-90 27.5h-95v19h94q51 0 81.5 30t30.5 73v26q0 47 -34 73.5t-92 26.5q-54 0 -85.5 -20.5t-52.5 -65.5l-18 9q20 47 58 71.5t98 24.5q69 0 109 -33.5
t40 -98.5q0 -53 -25.5 -84.5t-68.5 -37.5v-5q48 -4 76.5 -34.5t28.5 -92.5q0 -67 -43 -105.5t-115 -38.5zM135 642q-13 0 -18 6.5t-5 14.5v7q0 8 5 14.5t18 6.5t18 -6.5t5 -14.5v-7q0 -8 -5 -14.5t-18 -6.5zM285 642q-13 0 -18 6.5t-5 14.5v7q0 8 5 14.5t18 6.5t18 -6.5
t5 -14.5v-7q0 -8 -5 -14.5t-18 -6.5z" />
    <glyph glyph-name="uni04E0" unicode="&#x4e0;" horiz-adv-x="515" 
d="M251 -12q-76 0 -125 30t-77 86l18 12q28 -57 74 -82.5t112 -25.5q50 0 89 20t61.5 57t22.5 86v37q0 51 -19 88.5t-57 58.5t-95 21h-98v20l253 280v5l-69 -3h-271v20h366v-21l-249 -276v-17l-15 12h85q69 0 111 -27t61.5 -73.5t19.5 -103.5q0 -71 -27 -116t-71.5 -66.5
t-99.5 -21.5z" />
    <glyph glyph-name="uni04E1" unicode="&#x4e1;" horiz-adv-x="446" 
d="M216 -200q-63 0 -105.5 27t-68.5 79l16 11q26 -51 65 -74.5t93 -23.5q46 0 80 20.5t52.5 55.5t18.5 78v50q0 74 -39.5 115t-109.5 41h-78v19l214 288v4l-61 -3h-232v19h317v-19l-212 -285v-15l-14 11h70q56 0 93.5 -24t56 -68.5t18.5 -105.5q0 -65 -22.5 -110
t-61.5 -67.5t-90 -22.5z" />
    <glyph glyph-name="uni04E2" unicode="&#x4e2;" horiz-adv-x="624" 
d="M97 0v698h21v-593l-4 -75h4l37 75l353 593h19v-698h-21v593l4 75h-4l-37 -75l-353 -593h-19zM197 838v18h226v-18h-226z" />
    <glyph glyph-name="uni04E3" unicode="&#x4e3;" horiz-adv-x="518" 
d="M94 0v506h21v-405l-4 -69h4l35 64l255 410h19v-506h-21v405l4 69h-4l-35 -64l-255 -410h-19zM146 658v18h226v-18h-226z" />
    <glyph glyph-name="uni04E4" unicode="&#x4e4;" horiz-adv-x="624" 
d="M97 0v698h21v-593l-4 -75h4l37 75l353 593h19v-698h-21v593l4 75h-4l-37 -75l-353 -593h-19zM235 819q-13 0 -18 6.5t-5 14.5v7q0 8 5 14.5t18 6.5t18 -6.5t5 -14.5v-7q0 -8 -5 -14.5t-18 -6.5zM385 819q-13 0 -18 6.5t-5 14.5v7q0 8 5 14.5t18 6.5t18 -6.5t5 -14.5v-7
q0 -8 -5 -14.5t-18 -6.5z" />
    <glyph glyph-name="uni04E5" unicode="&#x4e5;" horiz-adv-x="518" 
d="M94 0v506h21v-405l-4 -69h4l35 64l255 410h19v-506h-21v405l4 69h-4l-35 -64l-255 -410h-19zM184 642q-13 0 -18 6.5t-5 14.5v7q0 8 5 14.5t18 6.5t18 -6.5t5 -14.5v-7q0 -8 -5 -14.5t-18 -6.5zM334 642q-13 0 -18 6.5t-5 14.5v7q0 8 5 14.5t18 6.5t18 -6.5t5 -14.5v-7
q0 -8 -5 -14.5t-18 -6.5z" />
    <glyph glyph-name="uni04E6" unicode="&#x4e6;" horiz-adv-x="614" 
d="M307 -12q-74 0 -129 33t-85 111.5t-30 216.5t30 217t85 111.5t129 32.5t129 -32.5t85 -111.5t30 -217t-30 -216.5t-85 -111.5t-129 -33zM307 8q69 0 118 31.5t75.5 98.5t26.5 172v78q0 106 -26.5 172.5t-75.5 98t-118 31.5t-118 -31.5t-75.5 -98t-26.5 -172.5v-78
q0 -105 26.5 -172t75.5 -98.5t118 -31.5zM232 819q-13 0 -18 6.5t-5 14.5v7q0 8 5 14.5t18 6.5t18 -6.5t5 -14.5v-7q0 -8 -5 -14.5t-18 -6.5zM382 819q-13 0 -18 6.5t-5 14.5v7q0 8 5 14.5t18 6.5t18 -6.5t5 -14.5v-7q0 -8 -5 -14.5t-18 -6.5z" />
    <glyph glyph-name="uni04E7" unicode="&#x4e7;" horiz-adv-x="488" 
d="M244 -12q-60 0 -102.5 28t-65 86.5t-22.5 150.5t22.5 150.5t65 86.5t102.5 28q61 0 103 -28t64.5 -86.5t22.5 -150.5t-22.5 -150.5t-64.5 -86.5t-103 -28zM244 7q80 0 123.5 56.5t43.5 155.5v68q0 99 -43.5 155.5t-123.5 56.5t-123.5 -56.5t-43.5 -155.5v-68
q0 -99 43.5 -155.5t123.5 -56.5zM169 642q-13 0 -18 6.5t-5 14.5v7q0 8 5 14.5t18 6.5t18 -6.5t5 -14.5v-7q0 -8 -5 -14.5t-18 -6.5zM319 642q-13 0 -18 6.5t-5 14.5v7q0 8 5 14.5t18 6.5t18 -6.5t5 -14.5v-7q0 -8 -5 -14.5t-18 -6.5z" />
    <glyph glyph-name="uni04E8" unicode="&#x4e8;" horiz-adv-x="614" 
d="M307 -12q-74 0 -129 33t-85 111.5t-30 216.5t30 217t85 111.5t129 32.5t129 -32.5t85 -111.5t30 -217t-30 -216.5t-85 -111.5t-129 -33zM307 8q69 0 118 31.5t75.5 98.5t26.5 172v41l13 -7h-465l12 8v-42q0 -105 26.5 -172t75.5 -98.5t118 -31.5zM307 690
q-69 0 -118 -31.5t-75.5 -98t-26.5 -172.5v-30l-9 6h463l-14 -9v33q0 106 -26.5 172.5t-75.5 98t-118 31.5z" />
    <glyph glyph-name="uni04E9" unicode="&#x4e9;" horiz-adv-x="488" 
d="M244 -12q-60 0 -102.5 28t-65 86.5t-22.5 150.5t22.5 150.5t65 86.5t102.5 28q61 0 103 -28t64.5 -86.5t22.5 -150.5t-22.5 -150.5t-64.5 -86.5t-103 -28zM244 7q80 0 123.5 56.5t43.5 155.5v30h-334v-30q0 -99 43.5 -155.5t123.5 -56.5zM77 287v-19h334v19
q0 99 -43.5 155.5t-123.5 56.5t-123.5 -56.5t-43.5 -155.5z" />
    <glyph glyph-name="uni04EE" unicode="&#x4ee;" horiz-adv-x="517" 
d="M142 0v20h82l46 127l-243 551h24l195 -445l32 -74h4l26 74l158 445h24l-245 -680q-2 -7 -6 -11t-9 -5.5t-12 -1.5h-76zM145 838v18h226v-18h-226z" />
    <glyph glyph-name="uni04EF" unicode="&#x4ef;" horiz-adv-x="408" 
d="M259 184l105 322h22l-224 -687q-2 -7 -5.5 -11t-8 -6t-12.5 -2h-84v19h89l52 162l-171 525h22l105 -322l53 -165h4zM93 658v18h226v-18h-226z" />
    <glyph glyph-name="uni04F0" unicode="&#x4f0;" horiz-adv-x="517" 
d="M142 0v20h82l46 127l-243 551h24l195 -445l32 -74h4l26 74l158 445h24l-245 -680q-2 -7 -6 -11t-9 -5.5t-12 -1.5h-76zM183 819q-13 0 -18 6.5t-5 14.5v7q0 8 5 14.5t18 6.5t18 -6.5t5 -14.5v-7q0 -8 -5 -14.5t-18 -6.5zM333 819q-13 0 -18 6.5t-5 14.5v7q0 8 5 14.5
t18 6.5t18 -6.5t5 -14.5v-7q0 -8 -5 -14.5t-18 -6.5z" />
    <glyph glyph-name="uni04F1" unicode="&#x4f1;" horiz-adv-x="408" 
d="M259 184l105 322h22l-224 -687q-2 -7 -5.5 -11t-8 -6t-12.5 -2h-84v19h89l52 162l-171 525h22l105 -322l53 -165h4zM131 642q-13 0 -18 6.5t-5 14.5v7q0 8 5 14.5t18 6.5t18 -6.5t5 -14.5v-7q0 -8 -5 -14.5t-18 -6.5zM281 642q-13 0 -18 6.5t-5 14.5v7q0 8 5 14.5t18 6.5
t18 -6.5t5 -14.5v-7q0 -8 -5 -14.5t-18 -6.5z" />
    <glyph glyph-name="uni04F2" unicode="&#x4f2;" horiz-adv-x="517" 
d="M142 0v20h82l46 127l-243 551h24l195 -445l32 -74h4l26 74l158 445h24l-245 -680q-2 -7 -6 -11t-9 -5.5t-12 -1.5h-76zM290 919l-103 -152l-15 10l99 154zM434 919l-103 -152l-15 10l99 154z" />
    <glyph glyph-name="uni04F3" unicode="&#x4f3;" horiz-adv-x="408" 
d="M259 184l105 322h22l-224 -687q-2 -7 -5.5 -11t-8 -6t-12.5 -2h-84v19h89l52 162l-171 525h22l105 -322l53 -165h4zM238 739l-103 -152l-15 10l99 154zM382 739l-103 -152l-15 10l99 154z" />
    <glyph glyph-name="uni04F4" unicode="&#x4f4;" horiz-adv-x="560" 
d="M441 0v305h-5q-28 -13 -69 -20.5t-94 -7.5q-109 0 -160.5 51t-51.5 157v213h22v-213q0 -100 48.5 -144t143.5 -44q54 0 95.5 8t70.5 21v372h22v-698h-22zM187 819q-13 0 -18 6.5t-5 14.5v7q0 8 5 14.5t18 6.5t18 -6.5t5 -14.5v-7q0 -8 -5 -14.5t-18 -6.5zM337 819
q-13 0 -18 6.5t-5 14.5v7q0 8 5 14.5t18 6.5t18 -6.5t5 -14.5v-7q0 -8 -5 -14.5t-18 -6.5z" />
    <glyph glyph-name="uni04F5" unicode="&#x4f5;" horiz-adv-x="470" 
d="M355 0v278h-6q-13 -36 -52 -59.5t-93 -23.5q-72 0 -111 37t-39 110v164h21v-164q0 -66 34.5 -97t95.5 -31q69 0 109.5 38.5t40.5 96.5v157h21v-506h-21zM140 642q-13 0 -18 6.5t-5 14.5v7q0 8 5 14.5t18 6.5t18 -6.5t5 -14.5v-7q0 -8 -5 -14.5t-18 -6.5zM290 642
q-13 0 -18 6.5t-5 14.5v7q0 8 5 14.5t18 6.5t18 -6.5t5 -14.5v-7q0 -8 -5 -14.5t-18 -6.5z" />
    <glyph glyph-name="uni04F6" unicode="&#x4f6;" horiz-adv-x="456" 
d="M97 0v698h320v-20h-298v-658h80v-170h-22v150h-80z" />
    <glyph glyph-name="uni04F7" unicode="&#x4f7;" horiz-adv-x="397" 
d="M94 0v506h268v-19h-247v-468h68v-159h-21v140h-68z" />
    <glyph glyph-name="uni04F8" unicode="&#x4f8;" horiz-adv-x="742" 
d="M97 0v698h22v-300h211q53 0 88 -22.5t52.5 -66.5t17.5 -110q0 -65 -17.5 -109.5t-52.5 -67t-88 -22.5h-233zM119 20h211q46 0 75.5 19.5t44 53.5t14.5 77v58q0 43 -14.5 77t-44 53.5t-75.5 19.5h-211v-358zM623 0v698h22v-698h-22zM296 819q-13 0 -18 6.5t-5 14.5v7
q0 8 5 14.5t18 6.5t18 -6.5t5 -14.5v-7q0 -8 -5 -14.5t-18 -6.5zM446 819q-13 0 -18 6.5t-5 14.5v7q0 8 5 14.5t18 6.5t18 -6.5t5 -14.5v-7q0 -8 -5 -14.5t-18 -6.5z" />
    <glyph glyph-name="uni04F9" unicode="&#x4f9;" horiz-adv-x="607" 
d="M94 0v506h21v-213h158q39 0 65 -16.5t39.5 -49t13.5 -80.5q0 -47 -13.5 -80t-39.5 -50t-65 -17h-179zM115 19h158q48 0 71.5 31.5t23.5 74.5v43q0 44 -23.5 75t-71.5 31h-158v-255zM492 0v506h21v-506h-21zM229 642q-13 0 -18 6.5t-5 14.5v7q0 8 5 14.5t18 6.5t18 -6.5
t5 -14.5v-7q0 -8 -5 -14.5t-18 -6.5zM379 642q-13 0 -18 6.5t-5 14.5v7q0 8 5 14.5t18 6.5t18 -6.5t5 -14.5v-7q0 -8 -5 -14.5t-18 -6.5z" />
    <glyph glyph-name="uni0524" unicode="&#x524;" horiz-adv-x="639" 
d="M97 0v698h418v-678h80v-170h-22v150h-80v678h-374v-678h-22z" />
    <glyph glyph-name="uni0525" unicode="&#x525;" horiz-adv-x="524" 
d="M94 0v506h322v-487h68v-159h-21v140h-68v487h-280v-487h-21z" />
    <glyph glyph-name="uni0E3F" unicode="&#xe3f;" horiz-adv-x="546" 
d="M277 20v-102h-20v102h-160v657h160v103h20v-103h40q73 0 107.5 -42t34.5 -119q0 -70 -26 -103.5t-69 -41.5v-6q38 -5 65.5 -22.5t42.5 -52.5t15 -91q0 -58 -17.5 -98t-52.5 -60.5t-86 -20.5h-54zM119 376h138v281h-138v-281zM277 657v-281h39q56 0 87.5 30.5t31.5 83.5
v53q0 53 -31.5 83.5t-87.5 30.5h-39zM119 40h138v316h-138v-316zM277 356v-316h52q41 0 71 16t46.5 45.5t16.5 70.5v52q0 41 -16.5 70.5t-46.5 45.5t-71 16h-52z" />
    <glyph glyph-name="Wgrave" unicode="&#x1e80;" horiz-adv-x="785" 
d="M226 0h-36l-163 698h24l105 -461l50 -217h4l53 217l111 461h36l113 -461l53 -217h4l50 217l105 461h24l-163 -698h-36l-113 461l-53 217h-4l-52 -217zM405 767l-103 152l19 12l99 -154z" />
    <glyph glyph-name="wgrave" unicode="&#x1e81;" horiz-adv-x="654" 
d="M165 0l-134 506h22l85 -322l43 -164h4l42 164l82 322h36l83 -322l42 -164h4l43 164l85 322h22l-134 -506h-36l-83 322l-42 164h-4l-42 -164l-82 -322h-36zM342 587l-103 152l19 12l99 -154z" />
    <glyph glyph-name="Wacute" unicode="&#x1e82;" horiz-adv-x="785" 
d="M226 0h-36l-163 698h24l105 -461l50 -217h4l53 217l111 461h36l113 -461l53 -217h4l50 217l105 461h24l-163 -698h-36l-113 461l-53 217h-4l-52 -217zM478 919l-103 -152l-15 10l99 154z" />
    <glyph glyph-name="wacute" unicode="&#x1e83;" horiz-adv-x="654" 
d="M165 0l-134 506h22l85 -322l43 -164h4l42 164l82 322h36l83 -322l42 -164h4l43 164l85 322h22l-134 -506h-36l-83 322l-42 164h-4l-42 -164l-82 -322h-36zM415 739l-103 -152l-15 10l99 154z" />
    <glyph glyph-name="Wdieresis" unicode="&#x1e84;" horiz-adv-x="785" 
d="M226 0h-36l-163 698h24l105 -461l50 -217h4l53 217l111 461h36l113 -461l53 -217h4l50 217l105 461h24l-163 -698h-36l-113 461l-53 217h-4l-52 -217zM315 819q-13 0 -18 6.5t-5 14.5v7q0 8 5 14.5t18 6.5t18 -6.5t5 -14.5v-7q0 -8 -5 -14.5t-18 -6.5zM465 819
q-13 0 -18 6.5t-5 14.5v7q0 8 5 14.5t18 6.5t18 -6.5t5 -14.5v-7q0 -8 -5 -14.5t-18 -6.5z" />
    <glyph glyph-name="wdieresis" unicode="&#x1e85;" horiz-adv-x="654" 
d="M165 0l-134 506h22l85 -322l43 -164h4l42 164l82 322h36l83 -322l42 -164h4l43 164l85 322h22l-134 -506h-36l-83 322l-42 164h-4l-42 -164l-82 -322h-36zM252 642q-13 0 -18 6.5t-5 14.5v7q0 8 5 14.5t18 6.5t18 -6.5t5 -14.5v-7q0 -8 -5 -14.5t-18 -6.5zM402 642
q-13 0 -18 6.5t-5 14.5v7q0 8 5 14.5t18 6.5t18 -6.5t5 -14.5v-7q0 -8 -5 -14.5t-18 -6.5z" />
    <glyph glyph-name="uni1E9E" unicode="&#x1e9e;" horiz-adv-x="613" 
d="M563 192q0 -68 -20 -113.5t-59.5 -68t-97.5 -22.5q-68 0 -105.5 25.5t-64.5 65.5l18 13q17 -25 36 -44t46.5 -29.5t69.5 -10.5q65 0 109 37.5t44 113.5v62q0 75 -45 116.5t-146 41.5h-25v20l176 279h-380v-678h-22v698h425v-22l-175 -275v-4q55 0 95.5 -12t67.5 -37
t40 -63.5t13 -92.5z" />
    <glyph glyph-name="uni1EA0" unicode="&#x1ea0;" horiz-adv-x="542" 
d="M515 0h-24l-76 234h-288l-76 -234h-24l226 698h36zM408 253l-87 274l-48 151h-4l-48 -151l-87 -274h274zM271 -134q-13 0 -18 6.5t-5 14.5v7q0 8 5 14.5t18 6.5t18 -6.5t5 -14.5v-7q0 -8 -5 -14.5t-18 -6.5z" />
    </font>
</defs>
</svg>
