<?xml version="1.0" standalone="no"?>
<!DOCTYPE svg PUBLIC "-//W3C//DTD SVG 1.1//EN" "http://www.w3.org/Graphics/SVG/1.1/DTD/svg11.dtd" >
<svg xmlns="http://www.w3.org/2000/svg" xmlns:xlink="http://www.w3.org/1999/xlink" version="1.1">
<metadata>
Created by FontForge 20201107 at Fri Jan 10 15:39:06 2025
 By 
Copyright 2019 IBM Corp. All rights reserved.
</metadata>
<defs>
<font id="IBMPlexSansCondensed-ExtraLight" horiz-adv-x="540" >
  <font-face 
    font-family="IBM Plex Sans Condensed ExtraLight"
    font-weight="250"
    font-stretch="condensed"
    units-per-em="1000"
    panose-1="2 11 5 3 5 2 3 0 2 3"
    ascent="800"
    descent="-200"
    x-height="508"
    cap-height="698"
    bbox="-215 -220 1081 1099"
    underline-thickness="26"
    underline-position="-176"
    unicode-range="U+0020-FFFD"
  />
<missing-glyph horiz-adv-x="424" 
d="M32 0v780h360v-780h-360zM58 26h308v728h-308v-728z" />
    <glyph glyph-name="fi" unicode="fi" horiz-adv-x="480" 
d="M108 0v478h-81v30h81v188q0 24 10 34t34 10h93v-30h-103v-202h248v-508h-34v478h-214v-478h-34zM374 665q-15 0 -21.5 7.5t-6.5 17.5v11q0 11 6.5 18t21.5 7t21 -7t6 -18v-11q0 -10 -6 -17.5t-21 -7.5z" />
    <glyph glyph-name=".notdef" horiz-adv-x="424" 
d="M32 0v780h360v-780h-360zM58 26h308v728h-308v-728z" />
    <glyph glyph-name=".null" horiz-adv-x="0" 
 />
    <glyph glyph-name="nonmarkingreturn" horiz-adv-x="333" 
 />
    <glyph glyph-name="space" unicode=" " horiz-adv-x="212" 
 />
    <glyph glyph-name="exclam" unicode="!" horiz-adv-x="235" 
d="M127 178h-19l-9 256v264h37v-264zM118 -7q-17 0 -25.5 8t-8.5 23v10q0 15 8.5 22.5t25.5 7.5q16 0 24.5 -7.5t8.5 -22.5v-10q0 -15 -8.5 -23t-24.5 -8z" />
    <glyph glyph-name="quotedbl" unicode="&#x22;" horiz-adv-x="348" 
d="M117 484h-31v256h31v-256zM261 484h-31v256h31v-256z" />
    <glyph glyph-name="numbersign" unicode="#" horiz-adv-x="641" 
d="M346 0l34 217h-161l-33 -217h-30l33 217h-129v25h134l32 214h-131v25h136l33 217h30l-34 -217h161l33 217h30l-34 -217h129v-25h-134l-32 -214h131v-25h-135l-33 -217h-30zM223 242h161l32 214h-160z" />
    <glyph glyph-name="dollar" unicode="$" horiz-adv-x="504" 
d="M271 -82h-30v92v8v662v8v92h30v-92v-8v-662v-8v-92zM256 -1q-57 0 -97.5 15t-69.5 41t-50 56l26 22q20 -29 44.5 -52.5t59 -37t83.5 -13.5q58 0 95 18t54.5 53t17.5 84q0 45 -13.5 76t-46.5 51t-89 29l-25 5q-71 13 -112 37t-58 60t-17 84q0 57 22.5 95t67 57.5
t108.5 19.5q74 0 118.5 -28t69.5 -68l-26 -20q-23 37 -60.5 61t-100.5 24q-85 0 -125 -35.5t-40 -103.5q0 -47 16.5 -77t50 -46.5t84.5 -26.5l25 -5q74 -13 114 -38.5t55.5 -62.5t15.5 -85q0 -61 -22.5 -103t-66 -64t-108.5 -22z" />
    <glyph glyph-name="percent" unicode="%" horiz-adv-x="805" 
d="M201 0h-34l436 698h34zM196 323q-42 0 -71.5 20t-45 62.5t-15.5 111.5t15.5 111.5t45 62t71.5 19.5t71.5 -19.5t45 -62t15.5 -111.5t-15.5 -111.5t-45 -62.5t-71.5 -20zM196 348q32 0 54 15t34 46.5t12 80.5v53q0 50 -12 81.5t-34 46t-54 14.5q-31 0 -53.5 -14.5
t-34.5 -46t-12 -81.5v-53q0 -49 12 -80.5t34.5 -46.5t53.5 -15zM608 -12q-42 0 -71.5 19.5t-45 62.5t-15.5 111q0 70 15.5 112t45 62t71.5 20t71.5 -20t45 -62t15.5 -112q0 -68 -15.5 -111t-45 -62.5t-71.5 -19.5zM608 13q32 0 54.5 14.5t34 46.5t11.5 81v53
q0 49 -11.5 80.5t-34 46.5t-54.5 15t-54 -15t-33.5 -46.5t-11.5 -80.5v-53q0 -49 11.5 -81t33.5 -46.5t54 -14.5z" />
    <glyph glyph-name="ampersand" unicode="&#x26;" horiz-adv-x="614" 
d="M538 0l-96 113h-7q-13 -35 -37 -63.5t-61 -45t-88 -16.5q-59 0 -100.5 21t-63.5 61.5t-22 96.5q0 57 19.5 94.5t52.5 64t75 47.5q-41 47 -67.5 93t-26.5 96q0 49 18 81.5t52 49.5t81 17q48 0 81.5 -17t52 -49.5t18.5 -81.5q0 -39 -20 -73.5t-56 -64t-86 -56.5l183 -210
q16 41 23 91.5t7 105.5h105v-31h-76q-2 -52 -11.5 -100t-25.5 -88l120 -136h-44zM267 681q-55 0 -85.5 -29t-30.5 -79v-22q0 -24 12.5 -52.5t32.5 -57t41 -54.5q44 23 77 49t51.5 55t18.5 61v21q0 34 -14 57.5t-40 37t-63 13.5zM251 19q47 0 78.5 13t54 37.5t41.5 58.5
l-198 226q-36 -20 -65 -43t-46 -54t-17 -77v-25q0 -64 41.5 -100t110.5 -36z" />
    <glyph glyph-name="quotesingle" unicode="'" horiz-adv-x="203" 
d="M117 484h-31v256h31v-256z" />
    <glyph glyph-name="parenleft" unicode="(" horiz-adv-x="300" 
d="M88 311q0 108 23.5 193.5t61.5 149.5t80 106h36q-45 -45 -83.5 -108t-61 -139.5t-22.5 -164.5v-74q0 -87 22.5 -164t61 -140t83.5 -108h-36q-42 43 -80 106.5t-61.5 149.5t-23.5 193z" />
    <glyph glyph-name="parenright" unicode=")" horiz-adv-x="300" 
d="M212 311q0 -107 -23.5 -193t-61.5 -149.5t-81 -106.5h-36q46 45 84.5 108t61 140t22.5 164v74q0 88 -22.5 164.5t-61 139.5t-84.5 108h36q43 -42 81 -106t61.5 -149.5t23.5 -193.5z" />
    <glyph glyph-name="asterisk" unicode="*" horiz-adv-x="349" 
d="M158 747h32l-4 -147l3 -3l139 50l9 -29l-141 -43l-1 -3l90 -118l-26 -19l-83 123h-4l-82 -123l-26 19l90 118l-2 3l-141 43l10 29l138 -50l4 3z" />
    <glyph glyph-name="plus" unicode="+" 
d="M287 86h-33v205h-197v29h197v205h33v-205h196v-29h-196v-205z" />
    <glyph glyph-name="comma" unicode="," horiz-adv-x="225" 
d="M113 64q16 0 24.5 -7.5t8.5 -22.5v-10q0 -45 -21.5 -91t-52.5 -76h-29q30 34 46 69.5t19 67.5q-15 1 -22 8.5t-7 21.5v10q0 15 8.5 22.5t25.5 7.5z" />
    <glyph glyph-name="hyphen" unicode="-" horiz-adv-x="360" 
d="M289 287h-218v35h218v-35z" />
    <glyph glyph-name="period" unicode="." horiz-adv-x="225" 
d="M113 -7q-17 0 -25.5 8t-8.5 23v10q0 15 8.5 22.5t25.5 7.5q16 0 24.5 -7.5t8.5 -22.5v-10q0 -15 -8.5 -23t-24.5 -8z" />
    <glyph glyph-name="slash" unicode="/" horiz-adv-x="299" 
d="M41 -151h-30l220 891h31z" />
    <glyph glyph-name="zero" unicode="0" 
d="M270 -12q-66 0 -113 33.5t-71.5 112t-24.5 215.5t24.5 215.5t71.5 112t113 33.5q67 0 113.5 -33.5t71 -112t24.5 -215.5t-24.5 -215.5t-71 -112t-113.5 -33.5zM270 20q57 0 95 30t57 90.5t19 152.5v112q0 93 -19 153t-57 90t-95 30q-56 0 -94.5 -30t-57.5 -90t-19 -153
v-112q0 -92 19 -152.5t57.5 -90.5t94.5 -30z" />
    <glyph glyph-name="one" unicode="1" 
d="M491 0h-408v32h191v640h-4l-182 -156l-21 23l185 159h57v-666h182v-32z" />
    <glyph glyph-name="two" unicode="2" 
d="M472 32v-32h-397v36l236 260q45 50 69.5 98.5t24.5 99.5v38q0 65 -34.5 105.5t-106.5 40.5q-69 0 -104.5 -34.5t-51.5 -95.5l-32 10q11 45 34.5 79t62 53.5t92.5 19.5q60 0 99.5 -22t59 -65.5t19.5 -107.5q0 -48 -12 -87.5t-36.5 -76t-62.5 -78.5l-217 -241h357z" />
    <glyph glyph-name="three" unicode="3" 
d="M167 382h80q67 0 107 37t40 98v28q0 64 -38 98.5t-100 34.5q-61 0 -95 -26t-54 -70l-27 17q14 32 37 57t58 39.5t82 14.5q53 0 92.5 -19.5t61 -58t21.5 -96.5q0 -76 -36 -116.5t-91 -49.5v-7q41 -4 72.5 -24.5t50 -58t18.5 -94.5q0 -66 -23.5 -109.5t-67 -66
t-104.5 -22.5q-47 0 -84 12.5t-63.5 37.5t-47.5 59l28 19q28 -47 65.5 -71.5t101.5 -24.5q72 0 114 40t42 111v28q0 71 -42 111t-114 40h-84v32z" />
    <glyph glyph-name="four" unicode="4" 
d="M395 0h-34v155h-321v32l300 511h55v-513h101v-30h-101v-155zM354 668l-280 -483h287v483h-7z" />
    <glyph glyph-name="five" unicode="5" 
d="M438 698v-32h-288l-20 -323h7q14 26 34 42.5t47 24.5t61 8q59 0 99 -23.5t61.5 -70t21.5 -117.5t-23 -120t-67 -74t-105 -25q-46 0 -82 12t-62.5 36.5t-46.5 59.5l28 19q27 -48 64.5 -71.5t98.5 -23.5q75 0 116 46t41 122v34q0 77 -38.5 120.5t-111.5 43.5
q-54 0 -84.5 -17t-57.5 -52l-33 4l23 377h317z" />
    <glyph glyph-name="six" unicode="6" 
d="M270 -12q-59 0 -103.5 24.5t-69 77t-24.5 135.5q0 81 17 151t48.5 128.5t76 107t99.5 86.5h48q-72 -52 -123.5 -109t-82 -123.5t-43.5 -148.5h6q12 34 33 57.5t52.5 35.5t72.5 12q59 0 101.5 -25t65.5 -72.5t23 -117.5t-23.5 -119t-67.5 -74.5t-106 -25.5zM270 20
q52 0 87 21.5t53.5 59t18.5 87.5v34q0 50 -18.5 87.5t-53.5 59t-87 21.5q-51 0 -86.5 -21.5t-54 -59t-18.5 -87.5v-34q0 -50 18.5 -87.5t54 -59t86.5 -21.5z" />
    <glyph glyph-name="seven" unicode="7" 
d="M204 0h-39l263 666h-327v-157h-34v189h398v-32z" />
    <glyph glyph-name="eight" unicode="8" 
d="M270 -12q-66 0 -112.5 22.5t-71 66t-25.5 105.5q0 82 40.5 127t102.5 54v7q-52 9 -87 51t-35 114q0 87 50 131t138 44t138 -44t50 -131q0 -72 -35 -114t-87 -51v-7q62 -9 102.5 -54t40.5 -127q0 -62 -24.5 -105.5t-71 -66t-113.5 -22.5zM270 20q80 0 125.5 40.5
t45.5 108.5v32q0 69 -45.5 109.5t-125.5 40.5t-125.5 -40.5t-45.5 -109.5v-32q0 -68 45.5 -108.5t125.5 -40.5zM270 382q70 0 110 35.5t40 97.5v30q0 62 -40 97.5t-110 35.5t-110 -35.5t-40 -97.5v-30q0 -62 40 -97.5t110 -35.5z" />
    <glyph glyph-name="nine" unicode="9" 
d="M467 473q0 -81 -17 -151t-48.5 -128.5t-76 -107t-99.5 -86.5h-48q73 52 124 109t82 123.5t43 148.5h-6q-11 -34 -32.5 -57t-52.5 -35.5t-73 -12.5q-59 0 -101.5 25t-65.5 73t-23 117q0 71 23.5 119.5t67.5 74t106 25.5q59 0 103.5 -24.5t69 -76.5t24.5 -136zM270 308
q52 0 87 21.5t53.5 59.5t18.5 87v34q0 50 -18.5 88t-53.5 59t-87 21q-51 0 -86.5 -21t-54 -59t-18.5 -88v-34q0 -49 18.5 -87t54 -59.5t86.5 -21.5z" />
    <glyph glyph-name="colon" unicode=":" horiz-adv-x="240" 
d="M120 -7q-17 0 -25.5 8t-8.5 23v10q0 15 8.5 22.5t25.5 7.5q16 0 24.5 -7.5t8.5 -22.5v-10q0 -15 -8.5 -23t-24.5 -8zM120 430q-17 0 -25.5 8t-8.5 23v10q0 15 8.5 22.5t25.5 7.5q16 0 24.5 -7.5t8.5 -22.5v-10q0 -15 -8.5 -23t-24.5 -8z" />
    <glyph glyph-name="semicolon" unicode=";" horiz-adv-x="240" 
d="M120 64q16 0 24.5 -7.5t8.5 -22.5v-10q0 -45 -21.5 -91t-52.5 -76h-29q30 34 46 69.5t19 67.5q-15 1 -22 8.5t-7 21.5v10q0 15 8.5 22.5t25.5 7.5zM120 430q-17 0 -25.5 8t-8.5 23v10q0 15 8.5 22.5t25.5 7.5q16 0 24.5 -7.5t8.5 -22.5v-10q0 -15 -8.5 -23t-24.5 -8z" />
    <glyph glyph-name="less" unicode="&#x3c;" 
d="M462 26l-384 254v36l384 254v-37l-350 -232v-7l350 -231v-37z" />
    <glyph glyph-name="equal" unicode="=" 
d="M483 382h-426v30h426v-30zM483 199h-426v30h426v-30z" />
    <glyph glyph-name="greater" unicode="&#x3e;" 
d="M78 26v37l350 231v7l-350 232v37l384 -254v-36z" />
    <glyph glyph-name="question" unicode="?" horiz-adv-x="416" 
d="M207 183h-34v171q87 5 130.5 45t43.5 111v35q0 63 -35 98.5t-100 35.5q-64 0 -99.5 -33t-51.5 -96l-31 10q12 48 35.5 81.5t60 51t86.5 17.5q55 0 93.5 -20t58.5 -60t20 -100q0 -62 -20 -104t-59.5 -65.5t-97.5 -32.5v-145zM190 -7q-17 0 -25.5 8t-8.5 23v10
q0 15 8.5 22.5t25.5 7.5t25.5 -7.5t8.5 -22.5v-10q0 -15 -8.5 -23t-25.5 -8z" />
    <glyph glyph-name="at" unicode="@" horiz-adv-x="795" 
d="M609 -94v-26h-211q-101 0 -177.5 47t-118.5 140t-42 230q0 131 42.5 223.5t119.5 141t179 48.5q75 0 136 -24t105.5 -72.5t68.5 -119.5t24 -166q0 -74 -14.5 -132.5t-45 -93t-78.5 -34.5q-39 0 -63 20t-28 56h-6q-10 -31 -39 -53.5t-73 -22.5q-49 0 -84 24t-53 73
t-18 124t18 124t53 72.5t84 23.5q44 0 73 -22t39 -54h6v67h33v-329q0 -36 16 -56t45 -20q48 0 75.5 54t27.5 151v59q0 99 -38 171.5t-105.5 113t-158.5 40.5q-71 0 -127.5 -26t-97 -73t-62 -111.5t-21.5 -141.5v-68q0 -79 21.5 -144.5t61 -113.5t96 -74t126.5 -26h211z
M392 97q34 0 60 15t40 42.5t14 63.5v142q0 36 -14 63t-40 42t-60 15q-63 0 -93 -45t-30 -122v-49q0 -76 30 -121.5t93 -45.5z" />
    <glyph glyph-name="A" unicode="A" horiz-adv-x="551" 
d="M525 0h-38l-72 228h-279l-73 -228h-37l224 698h51zM405 258l-85 272l-42 136h-6l-42 -136l-85 -272h260z" />
    <glyph glyph-name="B" unicode="B" horiz-adv-x="563" 
d="M94 0v698h238q69 0 107.5 -40.5t38.5 -131.5q0 -50 -12.5 -82t-34 -48.5t-48.5 -22.5v-7q26 -3 48.5 -15t38.5 -33.5t25.5 -52.5t9.5 -73q0 -62 -18 -105.5t-52.5 -65t-84.5 -21.5h-256zM129 350v-318h216q42 0 68.5 17.5t39.5 48t13 69.5v49q0 39 -13 69t-40.5 47.5
t-70.5 17.5h-213zM129 666v-284h199q38 0 63 15t37 41.5t12 61.5v49q0 35 -12 61t-36 41t-62 15h-201z" />
    <glyph glyph-name="C" unicode="C" horiz-adv-x="552" 
d="M301 -12q-73 0 -127 34.5t-84 113t-30 213.5t30 214t84 113t127 34q82 0 129 -37t73 -104l-30 -16q-21 61 -61.5 93t-110.5 32q-94 0 -148 -68.5t-54 -212.5v-96q0 -144 54 -212.5t148 -68.5q75 0 115.5 34t60.5 99l30 -16q-24 -71 -73 -110t-133 -39z" />
    <glyph glyph-name="D" unicode="D" horiz-adv-x="597" 
d="M94 0v698h199q81 0 135 -37t81.5 -114t27.5 -198q0 -120 -27.5 -197.5t-81.5 -114.5t-135 -37h-199zM129 32h165q69 0 114 33t67.5 93t22.5 143v96q0 83 -22.5 143t-67.5 93t-114 33h-165v-634z" />
    <glyph glyph-name="E" unicode="E" horiz-adv-x="511" 
d="M448 0h-354v698h354v-32h-319v-296h306v-32h-306v-306h319v-32z" />
    <glyph glyph-name="F" unicode="F" horiz-adv-x="487" 
d="M129 0h-35v698h346v-32h-311v-296h295v-32h-295v-338z" />
    <glyph glyph-name="G" unicode="G" horiz-adv-x="606" 
d="M503 0v110h-7q-17 -56 -63.5 -89t-125.5 -33q-75 0 -130.5 34.5t-86 113t-30.5 213.5t30.5 214t86.5 113t133 34q86 0 138 -37.5t78 -103.5l-30 -16q-23 59 -68.5 92t-117.5 33q-66 0 -113 -30t-72.5 -92t-25.5 -159v-96q0 -96 25.5 -158.5t72.5 -92.5t113 -30
q61 0 104 23.5t65.5 67.5t22.5 105v90h-153v32h188v-338h-34z" />
    <glyph glyph-name="H" unicode="H" horiz-adv-x="627" 
d="M498 0v338h-369v-338h-35v698h35v-328h369v328h35v-698h-35z" />
    <glyph glyph-name="I" unicode="I" horiz-adv-x="342" 
d="M283 0h-224v30h94v638h-94v30h224v-30h-94v-638h94v-30z" />
    <glyph glyph-name="J" unicode="J" horiz-adv-x="429" 
d="M87 698h256v-534q0 -57 -20 -96.5t-56 -59.5t-86 -20q-68 0 -107 35t-53 95l32 8q13 -49 43.5 -77.5t84.5 -28.5q62 0 94 38t32 109v499h-220v32z" />
    <glyph glyph-name="K" unicode="K" horiz-adv-x="530" 
d="M469 0l-227 378l-113 -142v-236h-35v698h35v-254l-1 -160h5l124 160l206 254h42l-240 -295l246 -403h-42z" />
    <glyph glyph-name="L" unicode="L" horiz-adv-x="434" 
d="M414 0h-320v698h35v-666h285v-32z" />
    <glyph glyph-name="M" unicode="M" horiz-adv-x="721" 
d="M93 0v698h54l136 -263l76 -152h3l76 152l136 263h53v-698h-35v501l2 158h-6l-81 -158l-147 -280l-146 280l-82 157h-5l2 -157v-501h-36z" />
    <glyph glyph-name="N" unicode="N" horiz-adv-x="626" 
d="M481 0l-264 495l-84 164h-6l2 -164v-495h-35v698h52l264 -495l85 -164h5l-2 164v495h36v-698h-53z" />
    <glyph glyph-name="O" unicode="O" horiz-adv-x="620" 
d="M310 -12q-77 0 -133 34.5t-86.5 113t-30.5 213.5t30.5 214t86.5 113t133 34q76 0 132.5 -34t86.5 -113t30 -214t-30 -213.5t-86.5 -113t-132.5 -34.5zM310 20q66 0 113 30t72.5 92.5t25.5 158.5v96q0 97 -25.5 159t-72.5 92t-113 30t-113 -30t-72.5 -92t-25.5 -159v-96
q0 -96 25.5 -158.5t72.5 -92.5t113 -30z" />
    <glyph glyph-name="P" unicode="P" horiz-adv-x="538" 
d="M129 0h-35v698h249q52 0 87.5 -21.5t52.5 -64t17 -105.5q0 -62 -17 -104.5t-52.5 -64t-87.5 -21.5h-214v-317zM129 666v-317h214q40 0 66.5 16.5t39 46t12.5 65.5v60q0 38 -12.5 67t-39 45.5t-66.5 16.5h-214z" />
    <glyph glyph-name="Q" unicode="Q" horiz-adv-x="620" 
d="M423 -119v-31h-89q-21 0 -30 9.5t-9 28.5v100q-72 4 -124.5 39.5t-81.5 113t-29 208.5q0 135 30.5 214t86.5 113t133 34q76 0 132.5 -34t86.5 -113t30 -214q0 -129 -28 -207t-79 -113.5t-122 -39.5v-108h93zM310 20q66 0 113 30t72.5 92.5t25.5 158.5v96q0 97 -25.5 159
t-72.5 92t-113 30t-113 -30t-72.5 -92t-25.5 -159v-96q0 -96 25.5 -158.5t72.5 -92.5t113 -30z" />
    <glyph glyph-name="R" unicode="R" horiz-adv-x="570" 
d="M129 317v-317h-35v698h241q56 0 92.5 -21.5t54.5 -64t18 -105.5q0 -89 -37.5 -137.5t-113.5 -51.5l165 -318h-40l-161 317h-184zM129 348h207q41 0 69 15t42 44.5t14 69.5v60q0 42 -14 70.5t-42 43.5t-69 15h-207v-318z" />
    <glyph glyph-name="S" unicode="S" horiz-adv-x="501" 
d="M250 -12q-78 0 -127.5 32t-84.5 83l27 21q34 -48 76 -76t109 -28q81 0 123.5 38.5t42.5 119.5q0 44 -15 74.5t-45.5 51t-77.5 30.5l-61 15q-56 13 -92.5 35.5t-53.5 58t-17 87.5q0 62 24.5 102t69 59t104.5 19q73 0 117 -26t73 -72l-28 -20q-28 43 -64 64.5t-99 21.5
q-75 0 -118.5 -35t-43.5 -113q0 -43 14 -72t44.5 -46.5t78.5 -28.5l60 -15q58 -14 94.5 -37.5t53.5 -60.5t17 -91q0 -65 -23.5 -107.5t-68.5 -63t-109 -20.5z" />
    <glyph glyph-name="T" unicode="T" horiz-adv-x="507" 
d="M490 666h-219v-666h-35v666h-220v32h474v-32z" />
    <glyph glyph-name="U" unicode="U" horiz-adv-x="593" 
d="M87 698h36v-450q0 -82 16 -132t54 -73t104 -23t104 23t53.5 73t15.5 132v450h36v-445q0 -95 -20 -153.5t-66 -85t-123 -26.5q-78 0 -124 26.5t-66 85t-20 153.5v445z" />
    <glyph glyph-name="V" unicode="V" horiz-adv-x="522" 
d="M288 0h-53l-210 698h38l138 -459l58 -207h6l58 207l136 459h38z" />
    <glyph glyph-name="W" unicode="W" horiz-adv-x="790" 
d="M237 0h-51l-161 698h38l102 -459l45 -205h5l46 205l108 459h53l108 -459l47 -205h5l44 205l103 459h37l-162 -698h-51l-109 459l-46 207h-6l-45 -207z" />
    <glyph glyph-name="X" unicode="X" horiz-adv-x="516" 
d="M24 0l212 354l-204 344h42l181 -308h7l182 308h40l-204 -341l212 -357h-42l-188 322h-7l-190 -322h-41z" />
    <glyph glyph-name="Y" unicode="Y" horiz-adv-x="503" 
d="M269 0h-36v290l-216 408h40l191 -364h7l190 364h40l-216 -408v-290z" />
    <glyph glyph-name="Z" unicode="Z" horiz-adv-x="506" 
d="M479 32v-32h-444v34l387 632h-368v32h407v-34l-388 -632h406z" />
    <glyph glyph-name="bracketleft" unicode="[" horiz-adv-x="275" 
d="M215 -138h-121v898h121v-28h-90v-842h90v-28z" />
    <glyph glyph-name="backslash" unicode="\" horiz-adv-x="299" 
d="M288 -151h-30l-220 891h30z" />
    <glyph glyph-name="bracketright" unicode="]" horiz-adv-x="275" 
d="M59 760h122v-898h-122v28h91v842h-91v28z" />
    <glyph glyph-name="asciicircum" unicode="^" 
d="M484 330l-28 -14l-183 349h-6l-183 -349l-28 14l195 368h38z" />
    <glyph glyph-name="underscore" unicode="_" horiz-adv-x="511" 
d="M484 -146h-457v29h457v-29z" />
    <glyph glyph-name="grave" unicode="`" 
d="M280 587l-102 153l31 18l94 -158z" />
    <glyph glyph-name="a" unicode="a" horiz-adv-x="472" 
d="M451 0h-69q-12 0 -20 3.5t-11.5 11.5t-3.5 20v54l10 -10h-17q-14 -41 -50 -66t-91 -25q-71 0 -110 36t-39 109q0 48 19.5 80.5t57 49t90.5 16.5h130v78q0 72 -31.5 102.5t-93.5 30.5q-49 0 -81 -20.5t-50 -69.5l-24 16q18 49 56 76.5t100 27.5q78 0 118 -39t40 -120v-331
h70v-30zM347 251h-130q-59 0 -94.5 -25.5t-35.5 -72.5v-37q0 -46 33 -72t83 -26q41 0 73 15.5t51.5 45t19.5 71.5v101z" />
    <glyph glyph-name="b" unicode="b" horiz-adv-x="513" 
d="M90 0v740h34v-310h7q14 43 50.5 66.5t89.5 23.5q62 0 103.5 -29t64 -88t22.5 -149t-22.5 -149t-64 -88t-103.5 -29q-53 0 -89.5 24.5t-50.5 66.5h-7v-79h-34zM266 19q76 0 117 52.5t41 144.5v76q0 93 -41 145.5t-117 52.5q-40 0 -72.5 -15.5t-51 -45t-18.5 -69.5v-211
q0 -41 18.5 -70t51 -44.5t72.5 -15.5z" />
    <glyph glyph-name="c" unicode="c" horiz-adv-x="443" 
d="M244 -12q-92 0 -142.5 63.5t-50.5 202.5q0 140 50.5 203t142.5 63q60 0 99 -26.5t59 -74.5l-28 -15q-19 44 -50 65t-80 21q-76 0 -116 -52.5t-40 -145.5v-76q0 -92 40 -144.5t116 -52.5q53 0 85.5 22.5t53.5 63.5l26 -17q-22 -46 -62 -73t-103 -27z" />
    <glyph glyph-name="d" unicode="d" horiz-adv-x="513" 
d="M389 0v79h-7q-14 -42 -50.5 -66.5t-90.5 -24.5q-60 0 -102.5 29t-64.5 88t-22 149t22 149t64.5 88t102.5 29q54 0 90.5 -23.5t50.5 -66.5h7v310h34v-740h-34zM247 19q40 0 72 15.5t51 44.5t19 70v211q0 40 -19 69.5t-51 45t-72 15.5q-76 0 -117 -52.5t-41 -145.5v-76
q0 -92 41 -144.5t117 -52.5z" />
    <glyph glyph-name="e" unicode="e" horiz-adv-x="484" 
d="M246 -12q-60 0 -104 28t-67.5 86.5t-23.5 151.5t23.5 152t67.5 86.5t104 27.5q61 0 102.5 -28t63 -85t21.5 -143v-12h-345v-36q0 -94 41 -146t117 -52q63 0 99 29t55 86l26 -15q-20 -63 -63.5 -96.5t-116.5 -33.5zM246 491q-50 0 -85.5 -23.5t-54 -68t-18.5 -107.5v-13
h308v13q0 63 -16.5 107.5t-49.5 68t-84 23.5z" />
    <glyph glyph-name="f" unicode="f" horiz-adv-x="267" 
d="M108 0v478h-83v30h83v188q0 24 10 34t34 10h93v-30h-103v-202h103v-30h-103v-478h-34z" />
    <glyph glyph-name="g" unicode="g" horiz-adv-x="475" 
d="M456 -63q0 -53 -23.5 -86t-72 -48t-122.5 -15q-71 0 -113.5 15.5t-62 44.5t-19.5 71q0 48 23 74t62 37v7q-22 8 -34 26.5t-12 43.5q0 32 21.5 54.5t55.5 25.5v7q-40 18 -61.5 57t-21.5 98q0 57 19.5 95t56.5 57t86 19q29 0 53 -6.5t43 -19.5v42q0 17 7 23.5t23 6.5h89
v-30h-97v-59q21 -22 32 -54t11 -74q0 -56 -19.5 -94.5t-55.5 -57.5t-86 -19q-14 0 -27 1.5t-25 4.5q-36 -9 -54.5 -27t-18.5 -44t16.5 -40t56.5 -14h120q80 0 115 -31t35 -91zM423 -64q0 46 -26 68.5t-93 22.5h-146q-36 -12 -59 -35t-23 -69q0 -51 34.5 -78.5t100.5 -27.5
h53q77 0 118 28.5t41 90.5zM238 207q60 0 92.5 33.5t32.5 86.5v44q0 55 -32.5 87.5t-92.5 32.5q-61 0 -93.5 -32.5t-32.5 -87.5v-44q0 -53 32.5 -86.5t93.5 -33.5z" />
    <glyph glyph-name="h" unicode="h" horiz-adv-x="504" 
d="M90 0v740h34v-310h7q13 41 50.5 65.5t92.5 24.5q71 0 109.5 -44t38.5 -128v-348h-34v347q0 67 -31 105t-91 38q-38 0 -70.5 -16t-52 -45.5t-19.5 -71.5v-357h-34z" />
    <glyph glyph-name="i" unicode="i" horiz-adv-x="213" 
d="M107 665q-15 0 -21.5 7.5t-6.5 17.5v11q0 11 6.5 18t21.5 7t21 -7t6 -18v-11q0 -10 -6 -17.5t-21 -7.5zM90 0v508h34v-508h-34z" />
    <glyph glyph-name="j" unicode="j" horiz-adv-x="213" 
d="M90 -170v678h34v-664q0 -24 -10.5 -34t-33.5 -10h-67v30h77zM107 665q-15 0 -21.5 7.5t-6.5 17.5v11q0 11 6.5 18t21.5 7t21 -7t6 -18v-11q0 -10 -6 -17.5t-21 -7.5z" />
    <glyph glyph-name="k" unicode="k" horiz-adv-x="450" 
d="M90 0v740h34v-427l-2 -82h5l71 81l172 196h42l-187 -212l209 -296h-42l-192 274l-76 -85v-189h-34z" />
    <glyph glyph-name="l" unicode="l" horiz-adv-x="232" 
d="M197 0h-68q-21 0 -30 9t-9 30v701h34v-710h73v-30z" />
    <glyph glyph-name="m" unicode="m" horiz-adv-x="790" 
d="M124 0h-34v508h34v-78h7q13 41 48.5 65.5t89.5 24.5q51 0 87 -26t49 -75h7q13 49 54.5 75t94.5 26q69 0 108 -44t39 -128v-348h-34v347q0 67 -31.5 105t-89.5 38q-37 0 -68.5 -16t-50 -45.5t-18.5 -71.5v-357h-34v347q0 67 -31.5 105t-89.5 38q-37 0 -68.5 -16t-50 -45.5
t-18.5 -71.5v-357z" />
    <glyph glyph-name="n" unicode="n" horiz-adv-x="504" 
d="M124 0h-34v508h34v-78h7q13 41 50.5 65.5t92.5 24.5q71 0 109.5 -44t38.5 -128v-348h-34v347q0 67 -31 105t-91 38q-38 0 -70.5 -16t-52 -45.5t-19.5 -71.5v-357z" />
    <glyph glyph-name="o" unicode="o" horiz-adv-x="492" 
d="M246 -12q-60 0 -104 28t-67.5 86.5t-23.5 151.5t23.5 152t67.5 86.5t104 27.5q61 0 104 -27.5t67 -86.5t24 -152t-24 -151.5t-67 -86.5t-104 -28zM246 19q76 0 117 51.5t41 145.5v76q0 94 -41 146t-117 52t-117 -52t-41 -146v-76q0 -94 41 -145.5t117 -51.5z" />
    <glyph glyph-name="p" unicode="p" horiz-adv-x="513" 
d="M90 -200v708h34v-78h7q14 43 50.5 66.5t89.5 23.5q62 0 103.5 -29t64 -88t22.5 -149t-22.5 -149t-64 -88t-103.5 -29q-53 0 -89.5 24.5t-50.5 66.5h-7v-279h-34zM266 19q76 0 117 52.5t41 144.5v76q0 93 -41 145.5t-117 52.5q-40 0 -72.5 -15.5t-51 -45t-18.5 -69.5v-211
q0 -41 18.5 -70t51 -44.5t72.5 -15.5z" />
    <glyph glyph-name="q" unicode="q" horiz-adv-x="513" 
d="M389 -200v279h-7q-14 -42 -50.5 -66.5t-90.5 -24.5q-60 0 -102.5 29t-64.5 88t-22 149t22 149t64.5 88t102.5 29q54 0 90.5 -23.5t50.5 -66.5h7v78h34v-708h-34zM247 19q40 0 72 15.5t51 44.5t19 70v211q0 40 -19 69.5t-51 45t-72 15.5q-76 0 -117 -52.5t-41 -145.5v-76
q0 -92 41 -144.5t117 -52.5z" />
    <glyph glyph-name="r" unicode="r" horiz-adv-x="314" 
d="M124 0h-34v508h34v-90h7q9 28 28 48.5t45.5 31t60.5 10.5h36v-32h-42q-37 0 -68 -16t-49 -45t-18 -68v-347z" />
    <glyph glyph-name="s" unicode="s" horiz-adv-x="422" 
d="M211 -12q-57 0 -97.5 22t-72.5 71l26 19q30 -45 63 -63.5t81 -18.5q59 0 92 27.5t33 82.5q0 51 -24.5 76.5t-79.5 35.5l-41 7q-44 7 -74 23.5t-45.5 44.5t-15.5 71q0 68 42.5 101t109.5 33q39 0 67.5 -9.5t49 -26t36.5 -37.5l-24 -21q-19 27 -48 45.5t-80 18.5
q-55 0 -87 -25.5t-32 -76.5t25.5 -75.5t80.5 -34.5l41 -7q67 -11 100 -43t33 -97q0 -47 -19 -78.5t-55 -48t-85 -16.5z" />
    <glyph glyph-name="t" unicode="t" horiz-adv-x="289" 
d="M242 0h-93q-21 0 -30 9t-9 30v439h-83v30h59q16 0 20.5 7t4.5 23v114h33v-144h103v-30h-103v-448h98v-30z" />
    <glyph glyph-name="u" unicode="u" horiz-adv-x="504" 
d="M387 0v78h-7q-13 -39 -50.5 -64.5t-92.5 -25.5q-72 0 -110 44t-38 128v348h34v-347q0 -67 31.5 -104.5t90.5 -37.5q39 0 71 15.5t51.5 45.5t19.5 71v357h34v-508h-34z" />
    <glyph glyph-name="v" unicode="v" horiz-adv-x="417" 
d="M232 0h-47l-164 508h34l99 -307l52 -171h5l52 171l99 307h34z" />
    <glyph glyph-name="w" unicode="w" horiz-adv-x="664" 
d="M162 0l-132 508h34l77 -298l43 -179h6l44 179l75 298h48l76 -298l44 -179h5l44 179l76 298h34l-132 -508h-50l-78 305l-40 170h-6l-41 -170l-77 -305h-50z" />
    <glyph glyph-name="x" unicode="x" horiz-adv-x="432" 
d="M27 0l170 257l-164 251h39l141 -221h7l143 221h38l-164 -250l168 -258h-38l-147 228h-7l-148 -228h-38z" />
    <glyph glyph-name="y" unicode="y" horiz-adv-x="418" 
d="M263 201l99 307h34l-219 -677q-3 -12 -8.5 -18.5t-13 -9.5t-19.5 -3h-78v30h87l47 149l-171 529h34l99 -307l52 -171h5z" />
    <glyph glyph-name="z" unicode="z" horiz-adv-x="387" 
d="M366 0h-340v30l294 448h-286v30h324v-29l-293 -449h301v-30z" />
    <glyph glyph-name="braceleft" unicode="{" horiz-adv-x="291" 
d="M232 -138h-90q-18 0 -25.5 7t-7.5 26v313q0 42 -19.5 59t-61.5 17v54q42 0 61.5 17t19.5 59v313q0 19 7.5 26t25.5 7h90v-28h-92v-318q0 -30 -9.5 -51.5t-28.5 -32.5t-49 -11v-16q30 0 49 -11t28.5 -32.5t9.5 -51.5v-318h92v-28z" />
    <glyph glyph-name="bar" unicode="|" horiz-adv-x="233" 
d="M132 -138h-31v898h31v-898z" />
    <glyph glyph-name="braceright" unicode="}" horiz-adv-x="291" 
d="M59 760h90q18 0 25.5 -7t7.5 -26v-313q0 -42 19.5 -59t61.5 -17v-54q-42 0 -61.5 -17t-19.5 -59v-313q0 -19 -7.5 -26t-25.5 -7h-90v28h92v318q0 30 9.5 51.5t29 32.5t47.5 11v16q-28 0 -47.5 11t-29 32.5t-9.5 51.5v318h-92v28z" />
    <glyph glyph-name="asciitilde" unicode="~" 
d="M380 252q-27 0 -52.5 9t-64.5 29q-35 18 -58 27t-47 9q-27 0 -45.5 -8.5t-38.5 -30.5l-18 20q22 26 46 38t58 12q28 0 53 -9t64 -29q35 -18 58 -27.5t47 -9.5q27 0 45.5 9.5t38.5 29.5l18 -20q-22 -25 -46 -37t-58 -12z" />
    <glyph glyph-name="uni00A0" unicode="&#xa0;" horiz-adv-x="212" 
 />
    <glyph glyph-name="exclamdown" unicode="&#xa1;" horiz-adv-x="235" 
d="M136 -190h-37v265l9 256h19l9 -256v-265zM118 444q-17 0 -25.5 8t-8.5 23v10q0 15 8.5 22.5t25.5 7.5q16 0 24.5 -7.5t8.5 -22.5v-10q0 -15 -8.5 -23t-24.5 -8z" />
    <glyph glyph-name="cent" unicode="&#xa2;" horiz-adv-x="452" 
d="M255 -114h-30v102q-83 7 -128.5 70.5t-45.5 195.5t45.5 196t128.5 70v102h30v-102q55 -2 92 -29t55 -72l-28 -15q-19 43 -47.5 63.5t-72.5 21.5v-470q48 3 79 25t50 61l26 -17q-22 -45 -59.5 -71.5t-94.5 -28.5v-102zM88 216q0 -86 35 -138t102 -58v469q-67 -6 -102 -58
t-35 -139v-76z" />
    <glyph glyph-name="sterling" unicode="&#xa3;" horiz-adv-x="525" 
d="M463 0h-388v41q37 26 58.5 69.5t21.5 112.5q0 22 -3 42.5t-9 39.5h-83v31h75q-12 41 -25 82t-13 89q0 68 22.5 113t65 67.5t102.5 22.5q69 0 113 -28t70 -78l-28 -17q-24 43 -60.5 67t-94.5 24q-74 0 -113.5 -41.5t-39.5 -130.5q0 -48 12.5 -88.5t24.5 -81.5h194v-31
h-186q5 -19 8 -38.5t3 -41.5q0 -67 -23.5 -115.5t-66.5 -70.5v-7h363v-32z" />
    <glyph glyph-name="currency" unicode="&#xa4;" horiz-adv-x="549" 
d="M274 127q-32 0 -58 7.5t-49 22.5l-85 -116l-29 18l88 119q-27 28 -41 71t-14 100t14 100t41 71l-88 119l29 18l85 -116q23 16 49 23t58 7t59 -7t48 -23l86 116l28 -18l-88 -119q27 -28 41 -71t14 -100t-14 -100t-41 -71l88 -119l-28 -18l-86 116q-21 -15 -48 -22.5
t-59 -7.5zM274 157q72 0 111.5 45t39.5 125v44q0 80 -39.5 125t-111.5 45q-70 0 -110 -45t-40 -125v-44q0 -80 40 -125t110 -45z" />
    <glyph glyph-name="yen" unicode="&#xa5;" horiz-adv-x="528" 
d="M453 163h-171v-163h-36v163h-172v29h172v131h-172v29h154l-187 346h40l180 -336h7l179 336h40l-187 -346h153v-29h-171v-131h171v-29z" />
    <glyph glyph-name="brokenbar" unicode="&#xa6;" horiz-adv-x="233" 
d="M132 402h-31v358h31v-358zM132 -138h-31v358h31v-358z" />
    <glyph glyph-name="section" unicode="&#xa7;" horiz-adv-x="512" 
d="M406 -9q0 -52 -21.5 -84t-58 -46.5t-82.5 -14.5q-50 0 -84 14.5t-58 39.5l20 24q20 -21 49 -34.5t74 -13.5q59 0 93.5 26.5t34.5 88.5q0 34 -14.5 57t-38.5 38t-54 25l-60 22q-46 17 -75.5 37t-42.5 49t-13 72q0 54 26.5 91.5t71.5 53.5v7q-30 20 -48.5 50.5t-18.5 71.5
q0 53 21.5 84.5t58.5 46t82 14.5q51 0 85 -14.5t58 -39.5l-20 -24q-21 21 -49.5 34.5t-74.5 13.5q-59 0 -93 -26.5t-34 -88.5q0 -34 14.5 -57t38.5 -38t53 -26l60 -21q47 -16 76 -36.5t42.5 -49.5t13.5 -73q0 -53 -26.5 -90t-72.5 -54v-7q32 -19 49.5 -49.5t17.5 -72.5z
M404 259q0 38 -10.5 62.5t-35.5 41.5t-67 32l-59 21q-10 4 -19 7.5t-19 8.5q-39 -20 -62.5 -53t-23.5 -82q0 -56 25.5 -85.5t88.5 -51.5l59 -20q10 -4 19 -7.5t19 -8.5q39 21 62 53t23 82z" />
    <glyph glyph-name="dieresis" unicode="&#xa8;" 
d="M192 637q-15 0 -22 7.5t-7 17.5v10q0 10 7 17.5t22 7.5q16 0 23 -7.5t7 -17.5v-10q0 -10 -7 -17.5t-23 -7.5zM348 637q-16 0 -23 7.5t-7 17.5v10q0 10 7 17.5t23 7.5q15 0 22 -7.5t7 -17.5v-10q0 -10 -7 -17.5t-22 -7.5z" />
    <glyph glyph-name="copyright" unicode="&#xa9;" horiz-adv-x="654" 
d="M327 -12q-90 0 -156.5 42t-103 123t-36.5 196q0 116 36.5 196.5t103 122.5t156.5 42t156.5 -42t103 -122.5t36.5 -196.5q0 -115 -36.5 -196t-103 -123t-156.5 -42zM327 15q82 0 140.5 38t90.5 105.5t32 155.5v70q0 88 -32 155.5t-90.5 105.5t-140.5 38q-81 0 -140 -38
t-91 -105.5t-32 -155.5v-70q0 -88 32 -155.5t91 -105.5t140 -38zM327 151q-68 0 -104.5 48.5t-36.5 147.5q0 98 36.5 147t104.5 49q49 0 76 -22.5t39 -56.5l-25 -11q-10 29 -31 46t-59 17q-51 0 -79 -37.5t-28 -112.5v-39q0 -75 28 -112t79 -37q38 0 60.5 17.5t35.5 46.5
l23 -13q-13 -34 -42.5 -56t-76.5 -22z" />
    <glyph glyph-name="ordfeminine" unicode="&#xaa;" horiz-adv-x="329" 
d="M304 390v-26h-42q-13 0 -19.5 6t-6.5 20v34l10 -10h-16q-10 -24 -32.5 -40t-63.5 -16q-48 0 -73 23.5t-25 65.5q0 48 27.5 72.5t92.5 24.5h80v51q0 44 -20 65t-62 21q-33 0 -55 -13.5t-33 -41.5l-21 14q13 29 39 47t71 18q54 0 81.5 -27.5t27.5 -79.5v-208h40zM236 522
h-81q-48 0 -68.5 -16t-20.5 -47v-20q0 -29 19 -43t53 -14q41 0 69.5 19.5t28.5 59.5v61z" />
    <glyph glyph-name="guillemotleft" unicode="&#xab;" horiz-adv-x="435" 
d="M229 136l-13 -24l-185 164v32l184 164l14 -24l-160 -154v-5zM398 136l-13 -24l-185 164v32l184 164l14 -24l-160 -154v-5z" />
    <glyph glyph-name="logicalnot" unicode="&#xac;" 
d="M483 98h-33v193h-393v29h426v-222z" />
    <glyph glyph-name="uni00AD" unicode="&#xad;" horiz-adv-x="0" 
 />
    <glyph glyph-name="registered" unicode="&#xae;" horiz-adv-x="422" 
d="M211 298q-52 0 -93 24t-64 70t-23 112t23 112t64 70t93 24q53 0 93.5 -24t63.5 -70t23 -112t-23 -112t-63.5 -70t-93.5 -24zM211 319q46 0 81 20.5t54 57.5t19 86v42q0 49 -19 86t-54 57.5t-81 20.5t-81 -20.5t-54 -57.5t-19 -86v-42q0 -49 19 -86t54 -57.5t81 -20.5z
M169 486v-88h-21v211h77q29 0 43 -13t14 -49q0 -30 -10 -43.5t-30 -15.5l47 -90h-24l-45 88h-51zM169 505h55q20 0 28 7.5t8 25.5v19q0 18 -8 25.5t-28 7.5h-55v-85z" />
    <glyph glyph-name="macron" unicode="&#xaf;" 
d="M154 654v28h232v-28h-232z" />
    <glyph glyph-name="degree" unicode="&#xb0;" horiz-adv-x="420" 
d="M210 393q-43 0 -77 19t-54 54.5t-20 85.5t20 85t54 54t77 19q44 0 78 -18.5t54 -54.5t20 -85q0 -50 -20 -85.5t-54 -54.5t-78 -19zM211 422q36 0 62.5 15.5t41.5 44.5t15 70q0 40 -15 69t-41.5 45t-62.5 16t-63 -16t-42 -44.5t-15 -70.5q0 -40 15 -69t42 -44.5t63 -15.5z
" />
    <glyph glyph-name="plusminus" unicode="&#xb1;" 
d="M287 145h-33v204h-197v30h197v205h33v-205h196v-30h-196v-204zM482 0h-425v30h425v-30z" />
    <glyph glyph-name="twosuperior" unicode="&#xb2;" horiz-adv-x="320" 
d="M277 353v-24h-234v28l125 114q34 31 51 58.5t17 53.5v26q0 30 -18.5 50t-58.5 20q-45 0 -65 -20.5t-30 -52.5l-24 8q11 37 37.5 63.5t82.5 26.5q52 0 79 -27.5t27 -78.5q0 -43 -20.5 -75t-61.5 -69l-111 -101h204z" />
    <glyph glyph-name="threesuperior" unicode="&#xb3;" horiz-adv-x="320" 
d="M108 533h40q46 0 65 17.5t19 48.5v20q0 28 -19 44.5t-56 16.5t-55.5 -12t-31.5 -34l-20 15q14 24 38.5 39.5t68.5 15.5q49 0 77 -23t28 -72q0 -37 -20.5 -59t-51.5 -27v-4q37 -2 57.5 -25.5t20.5 -62.5q0 -54 -30 -81t-86 -27q-47 0 -72 17.5t-41 40.5l21 16
q15 -22 34 -36t58 -14q43 0 64.5 19.5t21.5 54.5v21q0 33 -19.5 49.5t-65.5 16.5h-45v25z" />
    <glyph glyph-name="acute" unicode="&#xb4;" 
d="M362 740l-102 -153l-23 13l94 158z" />
    <glyph glyph-name="mu" unicode="&#xb5;" horiz-adv-x="512" 
d="M124 -200h-34v708h34v-347q0 -67 31.5 -104.5t90.5 -37.5q39 0 71 15.5t51.5 45.5t19.5 71v357h34v-508h-34v78h-7q-13 -39 -49.5 -64.5t-89.5 -25.5q-42 0 -74 21t-44 54h-6l6 -114v-149z" />
    <glyph glyph-name="paragraph" unicode="&#xb6;" horiz-adv-x="547" 
d="M224 -149v472q-53 0 -93 21.5t-62.5 63.5t-22.5 102q0 63 22 104.5t62.5 62.5t93.5 21h239v-29h-62v-818h-33v818h-111v-818h-33z" />
    <glyph glyph-name="periodcentered" unicode="&#xb7;" horiz-adv-x="276" 
d="M138 270q-17 0 -25.5 8t-8.5 23v9q0 16 8.5 23.5t25.5 7.5t25.5 -7.5t8.5 -23.5v-9q0 -15 -8.5 -23t-25.5 -8z" />
    <glyph glyph-name="cedilla" unicode="&#xb8;" 
d="M279 -203q-28 0 -48.5 10.5t-28.5 23.5l17 18q10 -12 24.5 -19t35.5 -7q25 0 38.5 12t13.5 33q0 22 -13.5 34t-38.5 12h-40l20 90h24l-17 -80h5q5 4 11.5 6t15.5 2q28 0 45.5 -16t17.5 -48q0 -22 -10 -38t-28 -24.5t-44 -8.5z" />
    <glyph glyph-name="onesuperior" unicode="&#xb9;" horiz-adv-x="320" 
d="M287 329h-240v24h111v322h-4l-103 -88l-16 17l108 94h44v-345h100v-24z" />
    <glyph glyph-name="ordmasculine" unicode="&#xba;" horiz-adv-x="338" 
d="M169 358q-63 0 -95.5 43.5t-32.5 130.5t32.5 130t95.5 43q62 0 95 -43t33 -130t-33 -130.5t-95 -43.5zM169 382q47 0 71.5 31.5t24.5 88.5v59q0 58 -24.5 89t-71.5 31t-72 -31t-25 -89v-59q0 -57 25 -88.5t72 -31.5z" />
    <glyph glyph-name="guillemotright" unicode="&#xbb;" horiz-adv-x="435" 
d="M37 136l160 153v5l-161 154l14 24l184 -164v-32l-183 -164zM206 136l160 153v5l-161 154l14 24l184 -164v-32l-183 -164z" />
    <glyph glyph-name="onequarter" unicode="&#xbc;" horiz-adv-x="727" 
d="M287 329h-240v24h111v322h-4l-103 -88l-16 17l108 94h44v-345h100v-24zM194 0h-31l413 698h31zM642 0h-27v85h-186v26l170 258h43v-260h57v-24h-57v-85zM615 109v234h-4l-155 -234h159z" />
    <glyph glyph-name="onehalf" unicode="&#xbd;" horiz-adv-x="760" 
d="M287 329h-240v24h111v322h-4l-103 -88l-16 17l108 94h44v-345h100v-24zM194 0h-31l413 698h31zM717 24v-24h-234v28l125 114q34 31 51 58.5t17 53.5v26q0 30 -18.5 50t-58.5 20q-45 0 -65 -20.5t-30 -52.5l-24 8q11 37 37.5 63.5t82.5 26.5q52 0 79 -27.5t27 -78.5
q0 -43 -20.5 -75t-61.5 -69l-111 -101h204z" />
    <glyph glyph-name="threequarters" unicode="&#xbe;" horiz-adv-x="717" 
d="M108 533h40q46 0 65 17.5t19 48.5v20q0 28 -19 44.5t-56 16.5t-55.5 -12t-31.5 -34l-20 15q14 24 38.5 39.5t68.5 15.5q49 0 77 -23t28 -72q0 -37 -20.5 -59t-51.5 -27v-4q37 -2 57.5 -25.5t20.5 -62.5q0 -54 -30 -81t-86 -27q-47 0 -72 17.5t-41 40.5l21 16
q15 -22 34 -36t58 -14q43 0 64.5 19.5t21.5 54.5v21q0 33 -19.5 49.5t-65.5 16.5h-45v25zM184 0h-31l413 698h31zM632 0h-27v85h-186v26l170 258h43v-260h57v-24h-57v-85zM605 109v234h-4l-155 -234h159z" />
    <glyph glyph-name="questiondown" unicode="&#xbf;" horiz-adv-x="414" 
d="M205 -202q-54 0 -93 21t-59 61.5t-20 98.5q0 63 21.5 105t61.5 65.5t94 31.5v144h34v-171q-86 -4 -130 -45t-44 -112v-33q0 -62 35 -98.5t100 -36.5t100.5 34t50.5 96l31 -10q-11 -47 -34 -80.5t-59.5 -52t-88.5 -18.5zM227 444q-16 0 -24.5 8t-8.5 23v10q0 15 8.5 22.5
t24.5 7.5q17 0 25.5 -7.5t8.5 -22.5v-10q0 -15 -8.5 -23t-25.5 -8z" />
    <glyph glyph-name="Agrave" unicode="&#xc0;" horiz-adv-x="551" 
d="M525 0h-38l-72 228h-279l-73 -228h-37l224 698h51zM405 258l-85 272l-42 136h-6l-42 -136l-85 -272h260zM286 764l-102 154l31 17l94 -157z" />
    <glyph glyph-name="Aacute" unicode="&#xc1;" horiz-adv-x="551" 
d="M525 0h-38l-72 228h-279l-73 -228h-37l224 698h51zM405 258l-85 272l-42 136h-6l-42 -136l-85 -272h260zM368 918l-102 -154l-23 14l94 157z" />
    <glyph glyph-name="Acircumflex" unicode="&#xc2;" horiz-adv-x="551" 
d="M525 0h-38l-72 228h-279l-73 -228h-37l224 698h51zM405 258l-85 272l-42 136h-6l-42 -136l-85 -272h260zM256 926h40l100 -136l-20 -15l-100 125l-100 -125l-20 15z" />
    <glyph glyph-name="Atilde" unicode="&#xc3;" horiz-adv-x="551" 
d="M525 0h-38l-72 228h-279l-73 -228h-37l224 698h51zM405 258l-85 272l-42 136h-6l-42 -136l-85 -272h260zM341 802q-16 0 -31.5 7t-38.5 22q-20 14 -34 20t-27 6q-16 0 -29.5 -8t-27.5 -24l-16 19q17 22 35 32t39 10q16 0 31.5 -6.5t38.5 -23.5q20 -13 34 -19t26 -6
q17 0 30 8t27 24l16 -19q-16 -22 -34 -32t-39 -10z" />
    <glyph glyph-name="Adieresis" unicode="&#xc4;" horiz-adv-x="551" 
d="M525 0h-38l-72 228h-279l-73 -228h-37l224 698h51zM405 258l-85 272l-42 136h-6l-42 -136l-85 -272h260zM198 813q-15 0 -22 7.5t-7 17.5v10q0 10 7 17.5t22 7.5q16 0 23 -7.5t7 -17.5v-10q0 -10 -7 -17.5t-23 -7.5zM354 813q-16 0 -23 7.5t-7 17.5v10q0 10 7 17.5
t23 7.5q15 0 22 -7.5t7 -17.5v-10q0 -10 -7 -17.5t-22 -7.5z" />
    <glyph glyph-name="Aring" unicode="&#xc5;" horiz-adv-x="551" 
d="M525 0h-38l-72 228h-279l-73 -228h-37l224 698h51zM405 258l-85 272l-42 136h-6l-42 -136l-85 -272h260zM276 764q-28 0 -48.5 12t-32 34t-11.5 50q0 29 11.5 50.5t32 34t48.5 12.5t48.5 -12.5t32 -34t11.5 -50.5q0 -28 -11.5 -50t-32 -34t-48.5 -12zM276 788
q30 0 46.5 17.5t16.5 46.5v16q0 30 -16.5 47t-46.5 17t-46.5 -17t-16.5 -47v-16q0 -29 16.5 -46.5t46.5 -17.5z" />
    <glyph glyph-name="AE" unicode="&#xc6;" horiz-adv-x="787" 
d="M370 0v228h-220l-110 -228h-38l339 698h383v-32h-318v-296h305v-32h-305v-306h318v-32h-354zM370 666h-9l-197 -408h206v408z" />
    <glyph glyph-name="Ccedilla" unicode="&#xc7;" horiz-adv-x="552" 
d="M301 678q-94 0 -148 -68.5t-54 -212.5v-96q0 -144 54 -212.5t148 -68.5q75 0 115.5 34t60.5 99l30 -16q-23 -70 -71.5 -109t-128.5 -40l-13 -64h5q5 4 11.5 6t15.5 2q28 0 45.5 -16t17.5 -48q0 -22 -10 -38t-28 -24.5t-44 -8.5q-28 0 -48.5 10.5t-28.5 23.5l17 18
q10 -12 24.5 -19t35.5 -7q25 0 38.5 12t13.5 33q0 22 -13.5 34t-38.5 12h-40l17 74q-68 4 -118.5 40t-78 114t-27.5 207q0 135 30 214t84 113t127 34q82 0 129 -37t73 -104l-30 -16q-21 61 -61.5 93t-110.5 32z" />
    <glyph glyph-name="Egrave" unicode="&#xc8;" horiz-adv-x="511" 
d="M448 0h-354v698h354v-32h-319v-296h306v-32h-306v-306h319v-32zM280 764l-102 154l31 17l94 -157z" />
    <glyph glyph-name="Eacute" unicode="&#xc9;" horiz-adv-x="511" 
d="M448 0h-354v698h354v-32h-319v-296h306v-32h-306v-306h319v-32zM362 918l-102 -154l-23 14l94 157z" />
    <glyph glyph-name="Ecircumflex" unicode="&#xca;" horiz-adv-x="511" 
d="M448 0h-354v698h354v-32h-319v-296h306v-32h-306v-306h319v-32zM250 926h40l100 -136l-20 -15l-100 125l-100 -125l-20 15z" />
    <glyph glyph-name="Edieresis" unicode="&#xcb;" horiz-adv-x="511" 
d="M448 0h-354v698h354v-32h-319v-296h306v-32h-306v-306h319v-32zM192 813q-15 0 -22 7.5t-7 17.5v10q0 10 7 17.5t22 7.5q16 0 23 -7.5t7 -17.5v-10q0 -10 -7 -17.5t-23 -7.5zM348 813q-16 0 -23 7.5t-7 17.5v10q0 10 7 17.5t23 7.5q15 0 22 -7.5t7 -17.5v-10
q0 -10 -7 -17.5t-22 -7.5z" />
    <glyph glyph-name="Igrave" unicode="&#xcc;" horiz-adv-x="342" 
d="M283 0h-224v30h94v638h-94v30h224v-30h-94v-638h94v-30zM180 764l-102 154l31 17l94 -157z" />
    <glyph glyph-name="Iacute" unicode="&#xcd;" horiz-adv-x="342" 
d="M283 0h-224v30h94v638h-94v30h224v-30h-94v-638h94v-30zM262 918l-102 -154l-23 14l94 157z" />
    <glyph glyph-name="Icircumflex" unicode="&#xce;" horiz-adv-x="342" 
d="M283 0h-224v30h94v638h-94v30h224v-30h-94v-638h94v-30zM150 926h40l100 -136l-20 -15l-100 125l-100 -125l-20 15z" />
    <glyph glyph-name="Idieresis" unicode="&#xcf;" horiz-adv-x="342" 
d="M283 0h-224v30h94v638h-94v30h224v-30h-94v-638h94v-30zM92 813q-15 0 -22 7.5t-7 17.5v10q0 10 7 17.5t22 7.5q16 0 23 -7.5t7 -17.5v-10q0 -10 -7 -17.5t-23 -7.5zM248 813q-16 0 -23 7.5t-7 17.5v10q0 10 7 17.5t23 7.5q15 0 22 -7.5t7 -17.5v-10q0 -10 -7 -17.5
t-22 -7.5z" />
    <glyph glyph-name="Eth" unicode="&#xd0;" horiz-adv-x="598" 
d="M94 0v351h-70v27h70v320h199q82 0 136 -37t81 -114t27 -198q0 -120 -27 -197.5t-81 -114.5t-136 -37h-199zM130 32h164q69 0 114.5 33t68 93t22.5 143v96q0 83 -22.5 143t-68 93t-114.5 33h-164v-288h149v-27h-149v-319z" />
    <glyph glyph-name="Ntilde" unicode="&#xd1;" horiz-adv-x="626" 
d="M481 0l-264 495l-84 164h-6l2 -164v-495h-35v698h52l264 -495l85 -164h5l-2 164v495h36v-698h-53zM378 802q-16 0 -31.5 7t-38.5 22q-20 14 -34 20t-27 6q-16 0 -29.5 -8t-27.5 -24l-16 19q17 22 35 32t39 10q16 0 31.5 -6.5t38.5 -23.5q20 -13 34 -19t26 -6q17 0 30 8
t27 24l16 -19q-16 -22 -34 -32t-39 -10z" />
    <glyph glyph-name="Ograve" unicode="&#xd2;" horiz-adv-x="620" 
d="M310 -12q-77 0 -133 34.5t-86.5 113t-30.5 213.5t30.5 214t86.5 113t133 34q76 0 132.5 -34t86.5 -113t30 -214t-30 -213.5t-86.5 -113t-132.5 -34.5zM310 20q66 0 113 30t72.5 92.5t25.5 158.5v96q0 97 -25.5 159t-72.5 92t-113 30t-113 -30t-72.5 -92t-25.5 -159v-96
q0 -96 25.5 -158.5t72.5 -92.5t113 -30zM320 764l-102 154l31 17l94 -157z" />
    <glyph glyph-name="Oacute" unicode="&#xd3;" horiz-adv-x="620" 
d="M310 -12q-77 0 -133 34.5t-86.5 113t-30.5 213.5t30.5 214t86.5 113t133 34q76 0 132.5 -34t86.5 -113t30 -214t-30 -213.5t-86.5 -113t-132.5 -34.5zM310 20q66 0 113 30t72.5 92.5t25.5 158.5v96q0 97 -25.5 159t-72.5 92t-113 30t-113 -30t-72.5 -92t-25.5 -159v-96
q0 -96 25.5 -158.5t72.5 -92.5t113 -30zM402 918l-102 -154l-23 14l94 157z" />
    <glyph glyph-name="Ocircumflex" unicode="&#xd4;" horiz-adv-x="620" 
d="M310 -12q-77 0 -133 34.5t-86.5 113t-30.5 213.5t30.5 214t86.5 113t133 34q76 0 132.5 -34t86.5 -113t30 -214t-30 -213.5t-86.5 -113t-132.5 -34.5zM310 20q66 0 113 30t72.5 92.5t25.5 158.5v96q0 97 -25.5 159t-72.5 92t-113 30t-113 -30t-72.5 -92t-25.5 -159v-96
q0 -96 25.5 -158.5t72.5 -92.5t113 -30zM290 926h40l100 -136l-20 -15l-100 125l-100 -125l-20 15z" />
    <glyph glyph-name="Otilde" unicode="&#xd5;" horiz-adv-x="620" 
d="M310 -12q-77 0 -133 34.5t-86.5 113t-30.5 213.5t30.5 214t86.5 113t133 34q76 0 132.5 -34t86.5 -113t30 -214t-30 -213.5t-86.5 -113t-132.5 -34.5zM310 20q66 0 113 30t72.5 92.5t25.5 158.5v96q0 97 -25.5 159t-72.5 92t-113 30t-113 -30t-72.5 -92t-25.5 -159v-96
q0 -96 25.5 -158.5t72.5 -92.5t113 -30zM375 802q-16 0 -31.5 7t-38.5 22q-20 14 -34 20t-27 6q-16 0 -29.5 -8t-27.5 -24l-16 19q17 22 35 32t39 10q16 0 31.5 -6.5t38.5 -23.5q20 -13 34 -19t26 -6q17 0 30 8t27 24l16 -19q-16 -22 -34 -32t-39 -10z" />
    <glyph glyph-name="Odieresis" unicode="&#xd6;" horiz-adv-x="620" 
d="M310 -12q-77 0 -133 34.5t-86.5 113t-30.5 213.5t30.5 214t86.5 113t133 34q76 0 132.5 -34t86.5 -113t30 -214t-30 -213.5t-86.5 -113t-132.5 -34.5zM310 20q66 0 113 30t72.5 92.5t25.5 158.5v96q0 97 -25.5 159t-72.5 92t-113 30t-113 -30t-72.5 -92t-25.5 -159v-96
q0 -96 25.5 -158.5t72.5 -92.5t113 -30zM232 813q-15 0 -22 7.5t-7 17.5v10q0 10 7 17.5t22 7.5q16 0 23 -7.5t7 -17.5v-10q0 -10 -7 -17.5t-23 -7.5zM388 813q-16 0 -23 7.5t-7 17.5v10q0 10 7 17.5t23 7.5q15 0 22 -7.5t7 -17.5v-10q0 -10 -7 -17.5t-22 -7.5z" />
    <glyph glyph-name="multiply" unicode="&#xd7;" 
d="M441 113l-171 171l-171 -171l-21 21l171 172l-171 171l20 21l172 -172l172 172l20 -21l-171 -171l171 -172z" />
    <glyph glyph-name="Oslash" unicode="&#xd8;" horiz-adv-x="619" 
d="M310 -12q-51 0 -93.5 15t-74.5 49l-55 -87l-25 17l59 94q-29 44 -45 110.5t-16 162.5q0 135 30.5 214t86.5 113t133 34q51 0 94 -14.5t74 -49.5l54 87l26 -17l-59 -94q29 -44 44.5 -110.5t15.5 -162.5q0 -135 -30 -213.5t-86.5 -113t-132.5 -34.5zM310 678
q-66 0 -113 -30t-72.5 -92t-25.5 -159v-103q0 -57 10 -104.5t29 -79.5h5l169 271l147 235q-26 32 -64 47t-85 15zM310 20q66 0 113 30t72.5 92.5t25.5 158.5v103q0 57 -10 104.5t-30 79.5h-4l-165 -265l-152 -241q28 -31 66 -46.5t84 -15.5z" />
    <glyph glyph-name="Ugrave" unicode="&#xd9;" horiz-adv-x="593" 
d="M87 698h36v-450q0 -82 16 -132t54 -73t104 -23t104 23t53.5 73t15.5 132v450h36v-445q0 -95 -20 -153.5t-66 -85t-123 -26.5q-78 0 -124 26.5t-66 85t-20 153.5v445zM306 764l-102 154l31 17l94 -157z" />
    <glyph glyph-name="Uacute" unicode="&#xda;" horiz-adv-x="593" 
d="M87 698h36v-450q0 -82 16 -132t54 -73t104 -23t104 23t53.5 73t15.5 132v450h36v-445q0 -95 -20 -153.5t-66 -85t-123 -26.5q-78 0 -124 26.5t-66 85t-20 153.5v445zM388 918l-102 -154l-23 14l94 157z" />
    <glyph glyph-name="Ucircumflex" unicode="&#xdb;" horiz-adv-x="593" 
d="M87 698h36v-450q0 -82 16 -132t54 -73t104 -23t104 23t53.5 73t15.5 132v450h36v-445q0 -95 -20 -153.5t-66 -85t-123 -26.5q-78 0 -124 26.5t-66 85t-20 153.5v445zM276 926h40l100 -136l-20 -15l-100 125l-100 -125l-20 15z" />
    <glyph glyph-name="Udieresis" unicode="&#xdc;" horiz-adv-x="593" 
d="M87 698h36v-450q0 -82 16 -132t54 -73t104 -23t104 23t53.5 73t15.5 132v450h36v-445q0 -95 -20 -153.5t-66 -85t-123 -26.5q-78 0 -124 26.5t-66 85t-20 153.5v445zM218 813q-15 0 -22 7.5t-7 17.5v10q0 10 7 17.5t22 7.5q16 0 23 -7.5t7 -17.5v-10q0 -10 -7 -17.5
t-23 -7.5zM374 813q-16 0 -23 7.5t-7 17.5v10q0 10 7 17.5t23 7.5q15 0 22 -7.5t7 -17.5v-10q0 -10 -7 -17.5t-22 -7.5z" />
    <glyph glyph-name="Yacute" unicode="&#xdd;" horiz-adv-x="503" 
d="M269 0h-36v290l-216 408h40l191 -364h7l190 364h40l-216 -408v-290zM343 918l-102 -154l-23 14l94 157z" />
    <glyph glyph-name="Thorn" unicode="&#xde;" horiz-adv-x="538" 
d="M129 0h-35v698h35v-153h214q52 0 87.5 -21.5t52.5 -64t17 -105.5q0 -62 -17 -104.5t-52.5 -64t-87.5 -21.5h-214v-164zM129 513v-318h214q40 0 66.5 17t39 46.5t12.5 65.5v60q0 38 -12.5 67t-39 45.5t-66.5 16.5h-214z" />
    <glyph glyph-name="germandbls" unicode="&#xdf;" horiz-adv-x="580" 
d="M542 129q0 -66 -38.5 -103.5t-112.5 -37.5q-58 0 -98.5 20.5t-70.5 67.5l25 19q29 -42 62.5 -59.5t82.5 -17.5q61 0 88.5 29t27.5 81q0 45 -21 70t-67 38l-36 11q-41 11 -66.5 27t-38 41t-12.5 64q0 65 45 98t133 33v30q0 95 -35.5 138.5t-112.5 43.5t-112.5 -43.5
t-35.5 -138.5v-540h-34v478h-83v30h83v33q0 69 20 116t60 71t101 24q62 0 102.5 -24t60 -71t19.5 -116v-60h-33q-48 0 -80 -11t-48.5 -33t-16.5 -57q0 -45 20.5 -66t69.5 -36l36 -10q61 -17 88.5 -47.5t27.5 -91.5z" />
    <glyph glyph-name="agrave" unicode="&#xe0;" horiz-adv-x="472" 
d="M451 0h-69q-12 0 -20 3.5t-11.5 11.5t-3.5 20v54l10 -10h-17q-14 -41 -50 -66t-91 -25q-71 0 -110 36t-39 109q0 48 19.5 80.5t57 49t90.5 16.5h130v78q0 72 -31.5 102.5t-93.5 30.5q-49 0 -81 -20.5t-50 -69.5l-24 16q18 49 56 76.5t100 27.5q78 0 118 -39t40 -120v-331
h70v-30zM347 251h-130q-59 0 -94.5 -25.5t-35.5 -72.5v-37q0 -46 33 -72t83 -26q41 0 73 15.5t51.5 45t19.5 71.5v101zM235 587l-102 153l31 18l94 -158z" />
    <glyph glyph-name="aacute" unicode="&#xe1;" horiz-adv-x="472" 
d="M451 0h-69q-12 0 -20 3.5t-11.5 11.5t-3.5 20v54l10 -10h-17q-14 -41 -50 -66t-91 -25q-71 0 -110 36t-39 109q0 48 19.5 80.5t57 49t90.5 16.5h130v78q0 72 -31.5 102.5t-93.5 30.5q-49 0 -81 -20.5t-50 -69.5l-24 16q18 49 56 76.5t100 27.5q78 0 118 -39t40 -120v-331
h70v-30zM347 251h-130q-59 0 -94.5 -25.5t-35.5 -72.5v-37q0 -46 33 -72t83 -26q41 0 73 15.5t51.5 45t19.5 71.5v101zM317 740l-102 -153l-23 13l94 158z" />
    <glyph glyph-name="acircumflex" unicode="&#xe2;" horiz-adv-x="472" 
d="M451 0h-69q-12 0 -20 3.5t-11.5 11.5t-3.5 20v54l10 -10h-17q-14 -41 -50 -66t-91 -25q-71 0 -110 36t-39 109q0 48 19.5 80.5t57 49t90.5 16.5h130v78q0 72 -31.5 102.5t-93.5 30.5q-49 0 -81 -20.5t-50 -69.5l-24 16q18 49 56 76.5t100 27.5q78 0 118 -39t40 -120v-331
h70v-30zM347 251h-130q-59 0 -94.5 -25.5t-35.5 -72.5v-37q0 -46 33 -72t83 -26q41 0 73 15.5t51.5 45t19.5 71.5v101zM205 748h40l100 -135l-20 -16l-100 125l-100 -125l-20 16z" />
    <glyph glyph-name="atilde" unicode="&#xe3;" horiz-adv-x="472" 
d="M451 0h-69q-12 0 -20 3.5t-11.5 11.5t-3.5 20v54l10 -10h-17q-14 -41 -50 -66t-91 -25q-71 0 -110 36t-39 109q0 48 19.5 80.5t57 49t90.5 16.5h130v78q0 72 -31.5 102.5t-93.5 30.5q-49 0 -81 -20.5t-50 -69.5l-24 16q18 49 56 76.5t100 27.5q78 0 118 -39t40 -120v-331
h70v-30zM347 251h-130q-59 0 -94.5 -25.5t-35.5 -72.5v-37q0 -46 33 -72t83 -26q41 0 73 15.5t51.5 45t19.5 71.5v101zM290 624q-16 0 -31.5 7t-38.5 23q-20 14 -34 19.5t-27 5.5q-16 0 -29.5 -7.5t-27.5 -24.5l-16 19q17 22 35 32t39 10q16 0 31.5 -6.5t38.5 -22.5
q20 -14 34 -20t26 -6q17 0 30 8t27 24l16 -19q-16 -21 -34 -31.5t-39 -10.5z" />
    <glyph glyph-name="adieresis" unicode="&#xe4;" horiz-adv-x="472" 
d="M451 0h-69q-12 0 -20 3.5t-11.5 11.5t-3.5 20v54l10 -10h-17q-14 -41 -50 -66t-91 -25q-71 0 -110 36t-39 109q0 48 19.5 80.5t57 49t90.5 16.5h130v78q0 72 -31.5 102.5t-93.5 30.5q-49 0 -81 -20.5t-50 -69.5l-24 16q18 49 56 76.5t100 27.5q78 0 118 -39t40 -120v-331
h70v-30zM347 251h-130q-59 0 -94.5 -25.5t-35.5 -72.5v-37q0 -46 33 -72t83 -26q41 0 73 15.5t51.5 45t19.5 71.5v101zM147 637q-15 0 -22 7.5t-7 17.5v10q0 10 7 17.5t22 7.5q16 0 23 -7.5t7 -17.5v-10q0 -10 -7 -17.5t-23 -7.5zM303 637q-16 0 -23 7.5t-7 17.5v10
q0 10 7 17.5t23 7.5q15 0 22 -7.5t7 -17.5v-10q0 -10 -7 -17.5t-22 -7.5z" />
    <glyph glyph-name="aring" unicode="&#xe5;" horiz-adv-x="472" 
d="M451 0h-69q-12 0 -20 3.5t-11.5 11.5t-3.5 20v54l10 -10h-17q-14 -41 -50 -66t-91 -25q-71 0 -110 36t-39 109q0 48 19.5 80.5t57 49t90.5 16.5h130v78q0 72 -31.5 102.5t-93.5 30.5q-49 0 -81 -20.5t-50 -69.5l-24 16q18 49 56 76.5t100 27.5q78 0 118 -39t40 -120v-331
h70v-30zM347 251h-130q-59 0 -94.5 -25.5t-35.5 -72.5v-37q0 -46 33 -72t83 -26q41 0 73 15.5t51.5 45t19.5 71.5v101zM225 586q-28 0 -48.5 12.5t-32 34t-11.5 50.5q0 28 11.5 50t32 34t48.5 12t48.5 -12t32 -34t11.5 -50q0 -29 -11.5 -50.5t-32 -34t-48.5 -12.5zM225 611
q30 0 46.5 17t16.5 47v15q0 30 -16.5 47t-46.5 17t-46.5 -17t-16.5 -47v-15q0 -30 16.5 -47t46.5 -17z" />
    <glyph glyph-name="ae" unicode="&#xe6;" horiz-adv-x="784" 
d="M353 252h-136q-59 0 -94.5 -26t-35.5 -73v-37q0 -46 33 -72t83 -26q44 0 78 23t53 65t19 99v47zM388 279h308v13q0 63 -16.5 107.5t-49.5 68t-84 23.5q-50 0 -85.5 -23.5t-54 -68t-18.5 -107.5v-13zM546 18q63 0 99 29t55 86l26 -15q-20 -63 -63.5 -96.5t-116.5 -33.5
q-45 0 -79 16.5t-58 48.5t-35 80h-7q-11 -48 -35.5 -80t-58 -48.5t-74.5 -16.5q-71 0 -110 36t-39 109q0 49 19.5 81t57 48.5t90.5 16.5h136v22q0 86 -34 137.5t-101 51.5q-48 0 -78.5 -20.5t-48.5 -69.5l-24 16q18 49 54 76.5t96 27.5q42 0 72 -16.5t50 -48.5t29 -79h7
q11 48 36 80t59.5 48t75.5 16q61 0 102.5 -28t63 -85t21.5 -143v-12h-345v-36q0 -94 41 -146t117 -52z" />
    <glyph glyph-name="ccedilla" unicode="&#xe7;" horiz-adv-x="443" 
d="M244 520q60 0 99 -26.5t59 -74.5l-28 -15q-19 44 -50 65t-80 21q-76 0 -116 -52.5t-40 -145.5v-76q0 -92 40 -144.5t116 -52.5q53 0 85.5 22.5t53.5 63.5l26 -17q-22 -43 -59 -70t-95 -30l-13 -64h5q5 4 11.5 6t15.5 2q28 0 45 -16t17 -48q0 -22 -9.5 -38t-28 -24.5
t-43.5 -8.5q-29 0 -49 10.5t-29 23.5l18 18q10 -12 24 -19t36 -7q25 0 38.5 12t13.5 33q0 22 -13.5 34t-38.5 12h-40l16 74q-85 4 -132.5 68t-47.5 198q0 140 50.5 203t142.5 63z" />
    <glyph glyph-name="egrave" unicode="&#xe8;" horiz-adv-x="484" 
d="M246 -12q-60 0 -104 28t-67.5 86.5t-23.5 151.5t23.5 152t67.5 86.5t104 27.5q61 0 102.5 -28t63 -85t21.5 -143v-12h-345v-36q0 -94 41 -146t117 -52q63 0 99 29t55 86l26 -15q-20 -63 -63.5 -96.5t-116.5 -33.5zM246 491q-50 0 -85.5 -23.5t-54 -68t-18.5 -107.5v-13
h308v13q0 63 -16.5 107.5t-49.5 68t-84 23.5zM254 587l-102 153l31 18l94 -158z" />
    <glyph glyph-name="eacute" unicode="&#xe9;" horiz-adv-x="484" 
d="M246 -12q-60 0 -104 28t-67.5 86.5t-23.5 151.5t23.5 152t67.5 86.5t104 27.5q61 0 102.5 -28t63 -85t21.5 -143v-12h-345v-36q0 -94 41 -146t117 -52q63 0 99 29t55 86l26 -15q-20 -63 -63.5 -96.5t-116.5 -33.5zM246 491q-50 0 -85.5 -23.5t-54 -68t-18.5 -107.5v-13
h308v13q0 63 -16.5 107.5t-49.5 68t-84 23.5zM336 740l-102 -153l-23 13l94 158z" />
    <glyph glyph-name="ecircumflex" unicode="&#xea;" horiz-adv-x="484" 
d="M246 -12q-60 0 -104 28t-67.5 86.5t-23.5 151.5t23.5 152t67.5 86.5t104 27.5q61 0 102.5 -28t63 -85t21.5 -143v-12h-345v-36q0 -94 41 -146t117 -52q63 0 99 29t55 86l26 -15q-20 -63 -63.5 -96.5t-116.5 -33.5zM246 491q-50 0 -85.5 -23.5t-54 -68t-18.5 -107.5v-13
h308v13q0 63 -16.5 107.5t-49.5 68t-84 23.5zM224 748h40l100 -135l-20 -16l-100 125l-100 -125l-20 16z" />
    <glyph glyph-name="edieresis" unicode="&#xeb;" horiz-adv-x="484" 
d="M246 -12q-60 0 -104 28t-67.5 86.5t-23.5 151.5t23.5 152t67.5 86.5t104 27.5q61 0 102.5 -28t63 -85t21.5 -143v-12h-345v-36q0 -94 41 -146t117 -52q63 0 99 29t55 86l26 -15q-20 -63 -63.5 -96.5t-116.5 -33.5zM246 491q-50 0 -85.5 -23.5t-54 -68t-18.5 -107.5v-13
h308v13q0 63 -16.5 107.5t-49.5 68t-84 23.5zM166 637q-15 0 -22 7.5t-7 17.5v10q0 10 7 17.5t22 7.5q16 0 23 -7.5t7 -17.5v-10q0 -10 -7 -17.5t-23 -7.5zM322 637q-16 0 -23 7.5t-7 17.5v10q0 10 7 17.5t23 7.5q15 0 22 -7.5t7 -17.5v-10q0 -10 -7 -17.5t-22 -7.5z" />
    <glyph glyph-name="igrave" unicode="&#xec;" horiz-adv-x="213" 
d="M124 0h-34v508h34v-508zM116 587l-102 153l31 18l94 -158z" />
    <glyph glyph-name="iacute" unicode="&#xed;" horiz-adv-x="213" 
d="M124 0h-34v508h34v-508zM198 740l-102 -153l-23 13l94 158z" />
    <glyph glyph-name="icircumflex" unicode="&#xee;" horiz-adv-x="213" 
d="M124 0h-34v508h34v-508zM86 748h40l97 -135l-20 -16l-97 125l-97 -125l-20 16z" />
    <glyph glyph-name="idieresis" unicode="&#xef;" horiz-adv-x="213" 
d="M124 0h-34v508h34v-508zM29 637q-15 0 -22 7.5t-7 17.5v10q0 10 7 17.5t22 7.5q16 0 23 -7.5t7 -17.5v-10q0 -10 -7 -17.5t-23 -7.5zM183 637q-16 0 -23 7.5t-7 17.5v10q0 10 7 17.5t23 7.5q15 0 22 -7.5t7 -17.5v-10q0 -10 -7 -17.5t-22 -7.5z" />
    <glyph glyph-name="eth" unicode="&#xf0;" horiz-adv-x="493" 
d="M349 752l16 -19l-91 -72q43 -42 80.5 -101.5t61 -136t23.5 -173.5q0 -88 -22.5 -146.5t-65.5 -87t-106 -28.5q-64 0 -107 28.5t-65.5 86t-22.5 141.5q0 86 22 142.5t65 85.5t105 29q50 0 82.5 -21t51.5 -60h7q-19 65 -53 120.5t-80 101.5l-92 -72l-15 19l89 70
q-24 23 -51 43t-56 38h53q18 -12 38 -27t40 -35zM245 19q51 0 86 21.5t53 64.5t18 106v67q0 63 -18 106t-53 64.5t-86 21.5t-86.5 -21.5t-53.5 -64.5t-18 -106v-67q0 -63 18 -106t53.5 -64.5t86.5 -21.5z" />
    <glyph glyph-name="ntilde" unicode="&#xf1;" horiz-adv-x="504" 
d="M124 0h-34v508h34v-78h7q13 41 50.5 65.5t92.5 24.5q71 0 109.5 -44t38.5 -128v-348h-34v347q0 67 -31 105t-91 38q-38 0 -70.5 -16t-52 -45.5t-19.5 -71.5v-357zM322 624q-16 0 -31.5 7t-38.5 23q-20 14 -34 19.5t-27 5.5q-16 0 -29.5 -7.5t-27.5 -24.5l-16 19
q17 22 35 32t39 10q16 0 31.5 -6.5t38.5 -22.5q20 -14 34 -20t26 -6q17 0 30 8t27 24l16 -19q-16 -21 -34 -31.5t-39 -10.5z" />
    <glyph glyph-name="ograve" unicode="&#xf2;" horiz-adv-x="492" 
d="M246 -12q-60 0 -104 28t-67.5 86.5t-23.5 151.5t23.5 152t67.5 86.5t104 27.5q61 0 104 -27.5t67 -86.5t24 -152t-24 -151.5t-67 -86.5t-104 -28zM246 19q76 0 117 51.5t41 145.5v76q0 94 -41 146t-117 52t-117 -52t-41 -146v-76q0 -94 41 -145.5t117 -51.5zM256 587
l-102 153l31 18l94 -158z" />
    <glyph glyph-name="oacute" unicode="&#xf3;" horiz-adv-x="492" 
d="M246 -12q-60 0 -104 28t-67.5 86.5t-23.5 151.5t23.5 152t67.5 86.5t104 27.5q61 0 104 -27.5t67 -86.5t24 -152t-24 -151.5t-67 -86.5t-104 -28zM246 19q76 0 117 51.5t41 145.5v76q0 94 -41 146t-117 52t-117 -52t-41 -146v-76q0 -94 41 -145.5t117 -51.5zM338 740
l-102 -153l-23 13l94 158z" />
    <glyph glyph-name="ocircumflex" unicode="&#xf4;" horiz-adv-x="492" 
d="M246 -12q-60 0 -104 28t-67.5 86.5t-23.5 151.5t23.5 152t67.5 86.5t104 27.5q61 0 104 -27.5t67 -86.5t24 -152t-24 -151.5t-67 -86.5t-104 -28zM246 19q76 0 117 51.5t41 145.5v76q0 94 -41 146t-117 52t-117 -52t-41 -146v-76q0 -94 41 -145.5t117 -51.5zM226 748h40
l100 -135l-20 -16l-100 125l-100 -125l-20 16z" />
    <glyph glyph-name="otilde" unicode="&#xf5;" horiz-adv-x="492" 
d="M246 -12q-60 0 -104 28t-67.5 86.5t-23.5 151.5t23.5 152t67.5 86.5t104 27.5q61 0 104 -27.5t67 -86.5t24 -152t-24 -151.5t-67 -86.5t-104 -28zM246 19q76 0 117 51.5t41 145.5v76q0 94 -41 146t-117 52t-117 -52t-41 -146v-76q0 -94 41 -145.5t117 -51.5zM311 624
q-16 0 -31.5 7t-38.5 23q-20 14 -34 19.5t-27 5.5q-16 0 -29.5 -7.5t-27.5 -24.5l-16 19q17 22 35 32t39 10q16 0 31.5 -6.5t38.5 -22.5q20 -14 34 -20t26 -6q17 0 30 8t27 24l16 -19q-16 -21 -34 -31.5t-39 -10.5z" />
    <glyph glyph-name="odieresis" unicode="&#xf6;" horiz-adv-x="492" 
d="M246 -12q-60 0 -104 28t-67.5 86.5t-23.5 151.5t23.5 152t67.5 86.5t104 27.5q61 0 104 -27.5t67 -86.5t24 -152t-24 -151.5t-67 -86.5t-104 -28zM246 19q76 0 117 51.5t41 145.5v76q0 94 -41 146t-117 52t-117 -52t-41 -146v-76q0 -94 41 -145.5t117 -51.5zM168 637
q-15 0 -22 7.5t-7 17.5v10q0 10 7 17.5t22 7.5q16 0 23 -7.5t7 -17.5v-10q0 -10 -7 -17.5t-23 -7.5zM324 637q-16 0 -23 7.5t-7 17.5v10q0 10 7 17.5t23 7.5q15 0 22 -7.5t7 -17.5v-10q0 -10 -7 -17.5t-22 -7.5z" />
    <glyph glyph-name="divide" unicode="&#xf7;" 
d="M483 291h-426v29h426v-29zM270 77q-20 0 -29 8t-9 23v11q0 15 9 23t29 8t29 -8t9 -23v-11q0 -14 -9 -22.5t-29 -8.5zM270 460q-20 0 -29 8.5t-9 23.5v11q0 14 9 22.5t29 8.5t29 -8.5t9 -22.5v-12q0 -14 -9 -22.5t-29 -8.5z" />
    <glyph glyph-name="oslash" unicode="&#xf8;" horiz-adv-x="492" 
d="M54 -32l-21 15l60 82q-20 33 -31 79.5t-11 109.5q0 93 23.5 152t67.5 86.5t104 27.5q42 0 76.5 -13.5t59.5 -42.5l55 77l21 -16l-59 -82q20 -32 31 -79t11 -110q0 -93 -24 -151.5t-67 -86.5t-104 -28q-43 0 -77 13.5t-59 42.5zM246 19q76 0 117 51.5t41 145.5v74
q0 26 -2.5 47t-7.5 40.5t-13 36.5h-5l-113 -158l-134 -185q21 -26 50 -39t67 -13zM246 490q-76 0 -117 -52t-41 -146v-74q0 -25 2.5 -46.5t7.5 -40t12 -37.5h5l117 163l131 181q-20 26 -49.5 39t-67.5 13z" />
    <glyph glyph-name="ugrave" unicode="&#xf9;" horiz-adv-x="504" 
d="M387 0v78h-7q-13 -39 -50.5 -64.5t-92.5 -25.5q-72 0 -110 44t-38 128v348h34v-347q0 -67 31.5 -104.5t90.5 -37.5q39 0 71 15.5t51.5 45.5t19.5 71v357h34v-508h-34zM258 587l-102 153l31 18l94 -158z" />
    <glyph glyph-name="uacute" unicode="&#xfa;" horiz-adv-x="504" 
d="M387 0v78h-7q-13 -39 -50.5 -64.5t-92.5 -25.5q-72 0 -110 44t-38 128v348h34v-347q0 -67 31.5 -104.5t90.5 -37.5q39 0 71 15.5t51.5 45.5t19.5 71v357h34v-508h-34zM340 740l-102 -153l-23 13l94 158z" />
    <glyph glyph-name="ucircumflex" unicode="&#xfb;" horiz-adv-x="504" 
d="M387 0v78h-7q-13 -39 -50.5 -64.5t-92.5 -25.5q-72 0 -110 44t-38 128v348h34v-347q0 -67 31.5 -104.5t90.5 -37.5q39 0 71 15.5t51.5 45.5t19.5 71v357h34v-508h-34zM228 748h40l100 -135l-20 -16l-100 125l-100 -125l-20 16z" />
    <glyph glyph-name="udieresis" unicode="&#xfc;" horiz-adv-x="504" 
d="M387 0v78h-7q-13 -39 -50.5 -64.5t-92.5 -25.5q-72 0 -110 44t-38 128v348h34v-347q0 -67 31.5 -104.5t90.5 -37.5q39 0 71 15.5t51.5 45.5t19.5 71v357h34v-508h-34zM170 637q-15 0 -22 7.5t-7 17.5v10q0 10 7 17.5t22 7.5q16 0 23 -7.5t7 -17.5v-10q0 -10 -7 -17.5
t-23 -7.5zM326 637q-16 0 -23 7.5t-7 17.5v10q0 10 7 17.5t23 7.5q15 0 22 -7.5t7 -17.5v-10q0 -10 -7 -17.5t-22 -7.5z" />
    <glyph glyph-name="yacute" unicode="&#xfd;" horiz-adv-x="418" 
d="M263 201l99 307h34l-219 -677q-3 -12 -8.5 -18.5t-13 -9.5t-19.5 -3h-78v30h87l47 149l-171 529h34l99 -307l52 -171h5zM303 740l-102 -153l-23 13l94 158z" />
    <glyph glyph-name="thorn" unicode="&#xfe;" horiz-adv-x="513" 
d="M90 -200v940h34v-310h7q14 43 50.5 66.5t89.5 23.5q62 0 103.5 -29t64 -88t22.5 -149t-22.5 -149t-64 -88t-103.5 -29q-53 0 -89.5 24.5t-50.5 66.5h-7v-279h-34zM266 19q76 0 117 52.5t41 144.5v76q0 93 -41 145.5t-117 52.5q-40 0 -72.5 -15.5t-51 -45t-18.5 -69.5
v-211q0 -41 18.5 -70t51 -44.5t72.5 -15.5z" />
    <glyph glyph-name="ydieresis" unicode="&#xff;" horiz-adv-x="418" 
d="M263 201l99 307h34l-219 -677q-3 -12 -8.5 -18.5t-13 -9.5t-19.5 -3h-78v30h87l47 149l-171 529h34l99 -307l52 -171h5zM133 637q-15 0 -22 7.5t-7 17.5v10q0 10 7 17.5t22 7.5q16 0 23 -7.5t7 -17.5v-10q0 -10 -7 -17.5t-23 -7.5zM289 637q-16 0 -23 7.5t-7 17.5v10
q0 10 7 17.5t23 7.5q15 0 22 -7.5t7 -17.5v-10q0 -10 -7 -17.5t-22 -7.5z" />
    <glyph glyph-name="Amacron" unicode="&#x100;" horiz-adv-x="551" 
d="M525 0h-38l-72 228h-279l-73 -228h-37l224 698h51zM405 258l-85 272l-42 136h-6l-42 -136l-85 -272h260zM160 831v29h232v-29h-232z" />
    <glyph glyph-name="amacron" unicode="&#x101;" horiz-adv-x="472" 
d="M451 0h-69q-12 0 -20 3.5t-11.5 11.5t-3.5 20v54l10 -10h-17q-14 -41 -50 -66t-91 -25q-71 0 -110 36t-39 109q0 48 19.5 80.5t57 49t90.5 16.5h130v78q0 72 -31.5 102.5t-93.5 30.5q-49 0 -81 -20.5t-50 -69.5l-24 16q18 49 56 76.5t100 27.5q78 0 118 -39t40 -120v-331
h70v-30zM347 251h-130q-59 0 -94.5 -25.5t-35.5 -72.5v-37q0 -46 33 -72t83 -26q41 0 73 15.5t51.5 45t19.5 71.5v101zM109 654v28h232v-28h-232z" />
    <glyph glyph-name="Abreve" unicode="&#x102;" horiz-adv-x="551" 
d="M525 0h-38l-72 228h-279l-73 -228h-37l224 698h51zM405 258l-85 272l-42 136h-6l-42 -136l-85 -272h260zM276 781q-22 0 -39 6.5t-30.5 20.5t-24 36.5t-20.5 55.5l23 11l11 -29q14 -39 32 -55.5t48 -16.5t48 16.5t32 55.5l11 29l23 -11q-13 -43 -28 -69.5t-35.5 -38
t-50.5 -11.5z" />
    <glyph glyph-name="abreve" unicode="&#x103;" horiz-adv-x="472" 
d="M451 0h-69q-12 0 -20 3.5t-11.5 11.5t-3.5 20v54l10 -10h-17q-14 -41 -50 -66t-91 -25q-71 0 -110 36t-39 109q0 48 19.5 80.5t57 49t90.5 16.5h130v78q0 72 -31.5 102.5t-93.5 30.5q-49 0 -81 -20.5t-50 -69.5l-24 16q18 49 56 76.5t100 27.5q78 0 118 -39t40 -120v-331
h70v-30zM347 251h-130q-59 0 -94.5 -25.5t-35.5 -72.5v-37q0 -46 33 -72t83 -26q41 0 73 15.5t51.5 45t19.5 71.5v101zM225 604q-22 0 -39 6t-30.5 20t-24 37t-20.5 56l23 10l11 -28q14 -40 32 -56t48 -16t48 16t32 56l11 28l23 -10q-10 -33 -20.5 -56t-24 -37t-30.5 -20
t-39 -6z" />
    <glyph glyph-name="Aogonek" unicode="&#x104;" horiz-adv-x="551" 
d="M26 0l224 698h51l224 -698q-37 -28 -60 -50t-33 -41.5t-10 -39.5q0 -23 13 -34.5t35 -11.5q19 0 31.5 7.5t20.5 16.5l18 -17q-9 -13 -27.5 -23t-44.5 -10q-23 0 -40 7.5t-27 22t-10 35.5q0 22 11.5 44t36 45t62.5 46v-3h-11l-75 234h-279l-73 -228h-37zM405 258l-85 272
l-42 136h-6l-42 -136l-85 -272h260z" />
    <glyph glyph-name="aogonek" unicode="&#x105;" horiz-adv-x="472" 
d="M451 30v-30q-38 -27 -60.5 -48.5t-33 -41t-10.5 -41.5q0 -24 13.5 -35t34.5 -11q20 0 32.5 7.5t19.5 16.5l18 -17q-8 -13 -27 -23t-44 -10q-23 0 -40 7.5t-27 22t-10 36.5q0 36 27.5 68.5t78.5 63.5l-5 19l19 -14h-55q-12 0 -20 3.5t-11.5 11.5t-3.5 20v54l10 -10h-17
q-14 -41 -50 -66t-91 -25q-71 0 -110 36t-39 109q0 48 19.5 80.5t57 49t90.5 16.5h130v78q0 72 -31.5 102.5t-93.5 30.5q-49 0 -81 -20.5t-50 -69.5l-24 16q18 49 56 76.5t100 27.5q78 0 118 -39t40 -120v-331h70zM347 251h-130q-59 0 -94.5 -25.5t-35.5 -72.5v-37
q0 -46 33 -72t83 -26q41 0 73 15.5t51.5 45t19.5 71.5v101z" />
    <glyph glyph-name="Cacute" unicode="&#x106;" horiz-adv-x="552" 
d="M301 -12q-73 0 -127 34.5t-84 113t-30 213.5t30 214t84 113t127 34q82 0 129 -37t73 -104l-30 -16q-21 61 -61.5 93t-110.5 32q-94 0 -148 -68.5t-54 -212.5v-96q0 -144 54 -212.5t148 -68.5q75 0 115.5 34t60.5 99l30 -16q-24 -71 -73 -110t-133 -39zM390 918l-102 -154
l-23 14l94 157z" />
    <glyph glyph-name="cacute" unicode="&#x107;" horiz-adv-x="443" 
d="M244 -12q-92 0 -142.5 63.5t-50.5 202.5q0 140 50.5 203t142.5 63q60 0 99 -26.5t59 -74.5l-28 -15q-19 44 -50 65t-80 21q-76 0 -116 -52.5t-40 -145.5v-76q0 -92 40 -144.5t116 -52.5q53 0 85.5 22.5t53.5 63.5l26 -17q-22 -46 -62 -73t-103 -27zM336 740l-102 -153
l-23 13l94 158z" />
    <glyph glyph-name="Ccircumflex" unicode="&#x108;" horiz-adv-x="552" 
d="M301 -12q-73 0 -127 34.5t-84 113t-30 213.5t30 214t84 113t127 34q82 0 129 -37t73 -104l-30 -16q-21 61 -61.5 93t-110.5 32q-94 0 -148 -68.5t-54 -212.5v-96q0 -144 54 -212.5t148 -68.5q75 0 115.5 34t60.5 99l30 -16q-24 -71 -73 -110t-133 -39zM278 926h40
l100 -136l-20 -15l-100 125l-100 -125l-20 15z" />
    <glyph glyph-name="ccircumflex" unicode="&#x109;" horiz-adv-x="443" 
d="M244 -12q-92 0 -142.5 63.5t-50.5 202.5q0 140 50.5 203t142.5 63q60 0 99 -26.5t59 -74.5l-28 -15q-19 44 -50 65t-80 21q-76 0 -116 -52.5t-40 -145.5v-76q0 -92 40 -144.5t116 -52.5q53 0 85.5 22.5t53.5 63.5l26 -17q-22 -46 -62 -73t-103 -27zM224 748h40l100 -135
l-20 -16l-100 125l-100 -125l-20 16z" />
    <glyph glyph-name="Cdotaccent" unicode="&#x10a;" horiz-adv-x="552" 
d="M301 -12q-73 0 -127 34.5t-84 113t-30 213.5t30 214t84 113t127 34q82 0 129 -37t73 -104l-30 -16q-21 61 -61.5 93t-110.5 32q-94 0 -148 -68.5t-54 -212.5v-96q0 -144 54 -212.5t148 -68.5q75 0 115.5 34t60.5 99l30 -16q-24 -71 -73 -110t-133 -39zM298 815
q-16 0 -22.5 7.5t-6.5 17.5v10q0 11 6.5 18t22.5 7t22.5 -7t6.5 -18v-10q0 -10 -6.5 -17.5t-22.5 -7.5z" />
    <glyph glyph-name="cdotaccent" unicode="&#x10b;" horiz-adv-x="443" 
d="M244 -12q-92 0 -142.5 63.5t-50.5 202.5q0 140 50.5 203t142.5 63q60 0 99 -26.5t59 -74.5l-28 -15q-19 44 -50 65t-80 21q-76 0 -116 -52.5t-40 -145.5v-76q0 -92 40 -144.5t116 -52.5q53 0 85.5 22.5t53.5 63.5l26 -17q-22 -46 -62 -73t-103 -27zM244 636
q-16 0 -22.5 7.5t-6.5 18.5v9q0 11 6.5 18.5t22.5 7.5t22.5 -7.5t6.5 -18.5v-9q0 -11 -6.5 -18.5t-22.5 -7.5z" />
    <glyph glyph-name="Ccaron" unicode="&#x10c;" horiz-adv-x="552" 
d="M301 -12q-73 0 -127 34.5t-84 113t-30 213.5t30 214t84 113t127 34q82 0 129 -37t73 -104l-30 -16q-21 61 -61.5 93t-110.5 32q-94 0 -148 -68.5t-54 -212.5v-96q0 -144 54 -212.5t148 -68.5q75 0 115.5 34t60.5 99l30 -16q-24 -71 -73 -110t-133 -39zM318 780h-40
l-100 135l20 16l100 -125l100 125l20 -16z" />
    <glyph glyph-name="ccaron" unicode="&#x10d;" horiz-adv-x="443" 
d="M244 -12q-92 0 -142.5 63.5t-50.5 202.5q0 140 50.5 203t142.5 63q60 0 99 -26.5t59 -74.5l-28 -15q-19 44 -50 65t-80 21q-76 0 -116 -52.5t-40 -145.5v-76q0 -92 40 -144.5t116 -52.5q53 0 85.5 22.5t53.5 63.5l26 -17q-22 -46 -62 -73t-103 -27zM264 602h-40l-100 136
l20 15l100 -125l100 125l20 -15z" />
    <glyph glyph-name="Dcaron" unicode="&#x10e;" horiz-adv-x="597" 
d="M94 0v698h199q81 0 135 -37t81.5 -114t27.5 -198q0 -120 -27.5 -197.5t-81.5 -114.5t-135 -37h-199zM129 32h165q69 0 114 33t67.5 93t22.5 143v96q0 83 -22.5 143t-67.5 93t-114 33h-165v-634zM291 780h-40l-100 135l20 16l100 -125l100 125l20 -16z" />
    <glyph glyph-name="dcaron" unicode="&#x10f;" horiz-adv-x="515" 
d="M389 0v79h-7q-14 -42 -50.5 -66.5t-90.5 -24.5q-60 0 -102.5 29t-64.5 88t-22 149t22 149t64.5 88t102.5 29q54 0 90.5 -23.5t50.5 -66.5h7v310h34v-740h-34zM247 19q40 0 72 15.5t51 44.5t19 70v211q0 40 -19 69.5t-51 45t-72 15.5q-76 0 -117 -52.5t-41 -145.5v-76
q0 -92 41 -144.5t117 -52.5zM550 740l-30 -178h-25l15 178h40z" />
    <glyph glyph-name="Dcroat" unicode="&#x110;" horiz-adv-x="598" 
d="M94 0v351h-70v27h70v320h199q82 0 136 -37t81 -114t27 -198q0 -120 -27 -197.5t-81 -114.5t-136 -37h-199zM130 32h164q69 0 114.5 33t68 93t22.5 143v96q0 83 -22.5 143t-68 93t-114.5 33h-164v-288h149v-27h-149v-319z" />
    <glyph glyph-name="dcroat" unicode="&#x111;" horiz-adv-x="515" 
d="M389 0v79h-7q-14 -42 -50.5 -66.5t-90.5 -24.5q-60 0 -102.5 29t-64.5 88t-22 149t22 149t64.5 88t102.5 29q54 0 90.5 -23.5t50.5 -66.5h7v195h-147v27h147v88h34v-88h64v-27h-64v-625h-34zM247 19q40 0 72 15.5t51 44.5t19 70v211q0 40 -19 69.5t-51 45t-72 15.5
q-76 0 -117 -52.5t-41 -145.5v-76q0 -92 41 -144.5t117 -52.5z" />
    <glyph glyph-name="Emacron" unicode="&#x112;" horiz-adv-x="511" 
d="M448 0h-354v698h354v-32h-319v-296h306v-32h-306v-306h319v-32zM154 831v29h232v-29h-232z" />
    <glyph glyph-name="emacron" unicode="&#x113;" horiz-adv-x="484" 
d="M246 -12q-60 0 -104 28t-67.5 86.5t-23.5 151.5t23.5 152t67.5 86.5t104 27.5q61 0 102.5 -28t63 -85t21.5 -143v-12h-345v-36q0 -94 41 -146t117 -52q63 0 99 29t55 86l26 -15q-20 -63 -63.5 -96.5t-116.5 -33.5zM246 491q-50 0 -85.5 -23.5t-54 -68t-18.5 -107.5v-13
h308v13q0 63 -16.5 107.5t-49.5 68t-84 23.5zM128 654v28h232v-28h-232z" />
    <glyph glyph-name="Ebreve" unicode="&#x114;" horiz-adv-x="511" 
d="M448 0h-354v698h354v-32h-319v-296h306v-32h-306v-306h319v-32zM270 781q-22 0 -39 6.5t-30.5 20.5t-24 36.5t-20.5 55.5l23 11l11 -29q14 -39 32 -55.5t48 -16.5t48 16.5t32 55.5l11 29l23 -11q-13 -43 -28 -69.5t-35.5 -38t-50.5 -11.5z" />
    <glyph glyph-name="ebreve" unicode="&#x115;" horiz-adv-x="484" 
d="M246 -12q-60 0 -104 28t-67.5 86.5t-23.5 151.5t23.5 152t67.5 86.5t104 27.5q61 0 102.5 -28t63 -85t21.5 -143v-12h-345v-36q0 -94 41 -146t117 -52q63 0 99 29t55 86l26 -15q-20 -63 -63.5 -96.5t-116.5 -33.5zM246 491q-50 0 -85.5 -23.5t-54 -68t-18.5 -107.5v-13
h308v13q0 63 -16.5 107.5t-49.5 68t-84 23.5zM244 604q-22 0 -39 6t-30.5 20t-24 37t-20.5 56l23 10l11 -28q14 -40 32 -56t48 -16t48 16t32 56l11 28l23 -10q-10 -33 -20.5 -56t-24 -37t-30.5 -20t-39 -6z" />
    <glyph glyph-name="Edotaccent" unicode="&#x116;" horiz-adv-x="511" 
d="M448 0h-354v698h354v-32h-319v-296h306v-32h-306v-306h319v-32zM270 815q-16 0 -22.5 7.5t-6.5 17.5v10q0 11 6.5 18t22.5 7t22.5 -7t6.5 -18v-10q0 -10 -6.5 -17.5t-22.5 -7.5z" />
    <glyph glyph-name="edotaccent" unicode="&#x117;" horiz-adv-x="484" 
d="M246 -12q-60 0 -104 28t-67.5 86.5t-23.5 151.5t23.5 152t67.5 86.5t104 27.5q61 0 102.5 -28t63 -85t21.5 -143v-12h-345v-36q0 -94 41 -146t117 -52q63 0 99 29t55 86l26 -15q-20 -63 -63.5 -96.5t-116.5 -33.5zM246 491q-50 0 -85.5 -23.5t-54 -68t-18.5 -107.5v-13
h308v13q0 63 -16.5 107.5t-49.5 68t-84 23.5zM244 636q-16 0 -22.5 7.5t-6.5 18.5v9q0 11 6.5 18.5t22.5 7.5t22.5 -7.5t6.5 -18.5v-9q0 -11 -6.5 -18.5t-22.5 -7.5z" />
    <glyph glyph-name="Eogonek" unicode="&#x118;" horiz-adv-x="511" 
d="M94 0v698h354v-32h-319v-296h306v-32h-306v-306h319v-32q-38 -28 -61 -49.5t-33 -41t-10 -40.5q0 -23 13.5 -34.5t34.5 -11.5q20 0 32.5 7.5t19.5 16.5l18 -17q-8 -13 -27 -23t-45 -10q-22 0 -39.5 7.5t-27 22.5t-9.5 36q0 34 26.5 66t79.5 66v5h-326z" />
    <glyph glyph-name="eogonek" unicode="&#x119;" horiz-adv-x="484" 
d="M288 -203q-22 0 -39.5 7t-27 21.5t-9.5 34.5q0 24 11 45t34 42.5t59 46.5l-2 4q-14 -5 -31 -7.5t-37 -2.5q-60 0 -104 28t-67.5 86.5t-23.5 151.5t23.5 152t67.5 86.5t104 27.5q61 0 102.5 -28t63 -85t21.5 -143v-12h-345v-36q0 -94 41 -146t117 -52q63 0 99 29t55 86
l26 -15q-10 -29 -24 -52t-34 -40q-37 -32 -62 -56t-39 -41.5t-19.5 -32.5t-5.5 -29q0 -23 13.5 -33.5t34.5 -10.5q19 0 32 7.5t20 16.5l18 -17q-8 -13 -27 -23t-45 -10zM88 279h308v13q0 63 -16.5 107.5t-49.5 68t-84 23.5q-50 0 -85.5 -23.5t-54 -68t-18.5 -107.5v-13z" />
    <glyph glyph-name="Ecaron" unicode="&#x11a;" horiz-adv-x="511" 
d="M448 0h-354v698h354v-32h-319v-296h306v-32h-306v-306h319v-32zM290 780h-40l-100 135l20 16l100 -125l100 125l20 -16z" />
    <glyph glyph-name="ecaron" unicode="&#x11b;" horiz-adv-x="484" 
d="M246 -12q-60 0 -104 28t-67.5 86.5t-23.5 151.5t23.5 152t67.5 86.5t104 27.5q61 0 102.5 -28t63 -85t21.5 -143v-12h-345v-36q0 -94 41 -146t117 -52q63 0 99 29t55 86l26 -15q-20 -63 -63.5 -96.5t-116.5 -33.5zM246 491q-50 0 -85.5 -23.5t-54 -68t-18.5 -107.5v-13
h308v13q0 63 -16.5 107.5t-49.5 68t-84 23.5zM264 602h-40l-100 136l20 15l100 -125l100 125l20 -15z" />
    <glyph glyph-name="Gcircumflex" unicode="&#x11c;" horiz-adv-x="606" 
d="M503 0v110h-7q-17 -56 -63.5 -89t-125.5 -33q-75 0 -130.5 34.5t-86 113t-30.5 213.5t30.5 214t86.5 113t133 34q86 0 138 -37.5t78 -103.5l-30 -16q-23 59 -68.5 92t-117.5 33q-66 0 -113 -30t-72.5 -92t-25.5 -159v-96q0 -96 25.5 -158.5t72.5 -92.5t113 -30
q61 0 104 23.5t65.5 67.5t22.5 105v90h-153v32h188v-338h-34zM290 926h40l100 -136l-20 -15l-100 125l-100 -125l-20 15z" />
    <glyph glyph-name="gcircumflex" unicode="&#x11d;" horiz-adv-x="475" 
d="M456 -63q0 -53 -23.5 -86t-72 -48t-122.5 -15q-71 0 -113.5 15.5t-62 44.5t-19.5 71q0 48 23 74t62 37v7q-22 8 -34 26.5t-12 43.5q0 32 21.5 54.5t55.5 25.5v7q-40 18 -61.5 57t-21.5 98q0 57 19.5 95t56.5 57t86 19q19 0 36.5 -3t32.5 -9h145v-29h-119v-5
q30 -8 48 -40.5t18 -84.5q0 -56 -19.5 -94.5t-55.5 -57.5t-86 -19q-14 0 -27 1.5t-25 4.5q-36 -9 -54.5 -27t-18.5 -44t16.5 -40t56.5 -14h120q80 0 115 -31t35 -91zM238 207q60 0 92.5 33.5t32.5 86.5v44q0 55 -32.5 87.5t-92.5 32.5q-61 0 -93.5 -32.5t-32.5 -87.5v-44
q0 -53 32.5 -86.5t93.5 -33.5zM423 -64q0 46 -26 68.5t-93 22.5h-146q-36 -12 -59 -35t-23 -69q0 -51 34.5 -78.5t100.5 -27.5h53q77 0 118 28.5t41 90.5zM218 748h40l100 -135l-20 -16l-100 125l-100 -125l-20 16z" />
    <glyph glyph-name="Gbreve" unicode="&#x11e;" horiz-adv-x="606" 
d="M503 0v110h-7q-17 -56 -63.5 -89t-125.5 -33q-75 0 -130.5 34.5t-86 113t-30.5 213.5t30.5 214t86.5 113t133 34q86 0 138 -37.5t78 -103.5l-30 -16q-23 59 -68.5 92t-117.5 33q-66 0 -113 -30t-72.5 -92t-25.5 -159v-96q0 -96 25.5 -158.5t72.5 -92.5t113 -30
q61 0 104 23.5t65.5 67.5t22.5 105v90h-153v32h188v-338h-34zM310 781q-22 0 -39 6.5t-30.5 20.5t-24 36.5t-20.5 55.5l23 11l11 -29q14 -39 32 -55.5t48 -16.5t48 16.5t32 55.5l11 29l23 -11q-13 -43 -28 -69.5t-35.5 -38t-50.5 -11.5z" />
    <glyph glyph-name="gbreve" unicode="&#x11f;" horiz-adv-x="475" 
d="M456 -63q0 -53 -23.5 -86t-72 -48t-122.5 -15q-71 0 -113.5 15.5t-62 44.5t-19.5 71q0 48 23 74t62 37v7q-22 8 -34 26.5t-12 43.5q0 32 21.5 54.5t55.5 25.5v7q-40 18 -61.5 57t-21.5 98q0 57 19.5 95t56.5 57t86 19q19 0 36.5 -3t32.5 -9h145v-29h-119v-5
q30 -8 48 -40.5t18 -84.5q0 -56 -19.5 -94.5t-55.5 -57.5t-86 -19q-14 0 -27 1.5t-25 4.5q-36 -9 -54.5 -27t-18.5 -44t16.5 -40t56.5 -14h120q80 0 115 -31t35 -91zM238 207q60 0 92.5 33.5t32.5 86.5v44q0 55 -32.5 87.5t-92.5 32.5q-61 0 -93.5 -32.5t-32.5 -87.5v-44
q0 -53 32.5 -86.5t93.5 -33.5zM423 -64q0 46 -26 68.5t-93 22.5h-146q-36 -12 -59 -35t-23 -69q0 -51 34.5 -78.5t100.5 -27.5h53q77 0 118 28.5t41 90.5zM238 604q-22 0 -39 6t-30.5 20t-24 37t-20.5 56l23 10l11 -28q14 -40 32 -56t48 -16t48 16t32 56l11 28l23 -10
q-10 -33 -20.5 -56t-24 -37t-30.5 -20t-39 -6z" />
    <glyph glyph-name="Gdotaccent" unicode="&#x120;" horiz-adv-x="606" 
d="M503 0v110h-7q-17 -56 -63.5 -89t-125.5 -33q-75 0 -130.5 34.5t-86 113t-30.5 213.5t30.5 214t86.5 113t133 34q86 0 138 -37.5t78 -103.5l-30 -16q-23 59 -68.5 92t-117.5 33q-66 0 -113 -30t-72.5 -92t-25.5 -159v-96q0 -96 25.5 -158.5t72.5 -92.5t113 -30
q61 0 104 23.5t65.5 67.5t22.5 105v90h-153v32h188v-338h-34zM310 815q-16 0 -22.5 7.5t-6.5 17.5v10q0 11 6.5 18t22.5 7t22.5 -7t6.5 -18v-10q0 -10 -6.5 -17.5t-22.5 -7.5z" />
    <glyph glyph-name="gdotaccent" unicode="&#x121;" horiz-adv-x="475" 
d="M456 -63q0 -53 -23.5 -86t-72 -48t-122.5 -15q-71 0 -113.5 15.5t-62 44.5t-19.5 71q0 48 23 74t62 37v7q-22 8 -34 26.5t-12 43.5q0 32 21.5 54.5t55.5 25.5v7q-40 18 -61.5 57t-21.5 98q0 57 19.5 95t56.5 57t86 19q19 0 36.5 -3t32.5 -9h145v-29h-119v-5
q30 -8 48 -40.5t18 -84.5q0 -56 -19.5 -94.5t-55.5 -57.5t-86 -19q-14 0 -27 1.5t-25 4.5q-36 -9 -54.5 -27t-18.5 -44t16.5 -40t56.5 -14h120q80 0 115 -31t35 -91zM238 207q60 0 92.5 33.5t32.5 86.5v44q0 55 -32.5 87.5t-92.5 32.5q-61 0 -93.5 -32.5t-32.5 -87.5v-44
q0 -53 32.5 -86.5t93.5 -33.5zM423 -64q0 46 -26 68.5t-93 22.5h-146q-36 -12 -59 -35t-23 -69q0 -51 34.5 -78.5t100.5 -27.5h53q77 0 118 28.5t41 90.5zM238 636q-16 0 -22.5 7.5t-6.5 18.5v9q0 11 6.5 18.5t22.5 7.5t22.5 -7.5t6.5 -18.5v-9q0 -11 -6.5 -18.5t-22.5 -7.5
z" />
    <glyph glyph-name="Gcommaaccent" unicode="&#x122;" horiz-adv-x="606" 
d="M503 0v110h-7q-17 -56 -63.5 -89t-125.5 -33q-75 0 -130.5 34.5t-86 113t-30.5 213.5t30.5 214t86.5 113t133 34q86 0 138 -37.5t78 -103.5l-30 -16q-23 59 -68.5 92t-117.5 33q-66 0 -113 -30t-72.5 -92t-25.5 -159v-96q0 -96 25.5 -158.5t72.5 -92.5t113 -30
q61 0 104 23.5t65.5 67.5t22.5 105v90h-153v32h188v-338h-34zM309 -66q15 0 21.5 -7.5t6.5 -19.5v-12q0 -28 -13.5 -60.5t-33.5 -54.5h-27q22 24 33 49.5t13 42.5q-16 1 -23 8t-7 17v10q0 12 7 19.5t23 7.5z" />
    <glyph glyph-name="gcommaaccent" unicode="&#x123;" horiz-adv-x="475" 
d="M456 -63q0 -53 -23.5 -86t-72 -48t-122.5 -15q-71 0 -113.5 15.5t-62 44.5t-19.5 71q0 48 23 74t62 37v7q-22 8 -34 26.5t-12 43.5q0 32 21.5 54.5t55.5 25.5v7q-40 18 -61.5 57t-21.5 98q0 57 19.5 95t56.5 57t86 19q19 0 36.5 -3t32.5 -9h145v-29h-119v-5
q30 -8 48 -40.5t18 -84.5q0 -56 -19.5 -94.5t-55.5 -57.5t-86 -19q-14 0 -27 1.5t-25 4.5q-36 -9 -54.5 -27t-18.5 -44t16.5 -40t56.5 -14h120q80 0 115 -31t35 -91zM238 207q60 0 92.5 33.5t32.5 86.5v44q0 55 -32.5 87.5t-92.5 32.5q-61 0 -93.5 -32.5t-32.5 -87.5v-44
q0 -53 32.5 -86.5t93.5 -33.5zM423 -64q0 46 -26 68.5t-93 22.5h-146q-36 -12 -59 -35t-23 -69q0 -51 34.5 -78.5t100.5 -27.5h53q77 0 118 28.5t41 90.5zM237 598q-15 0 -21.5 7t-6.5 20v12q0 28 14 60.5t33 54.5h27q-22 -24 -33 -49t-13 -44q17 0 23.5 -7t6.5 -17v-10
q0 -13 -6.5 -20t-23.5 -7z" />
    <glyph glyph-name="Hcircumflex" unicode="&#x124;" horiz-adv-x="627" 
d="M498 0v338h-369v-338h-35v698h35v-328h369v328h35v-698h-35zM294 926h40l100 -136l-20 -15l-100 125l-100 -125l-20 15z" />
    <glyph glyph-name="hcircumflex" unicode="&#x125;" horiz-adv-x="504" 
d="M90 0v740h34v-310h7q13 41 50.5 65.5t92.5 24.5q71 0 109.5 -44t38.5 -128v-348h-34v347q0 67 -31 105t-91 38q-38 0 -70.5 -16t-52 -45.5t-19.5 -71.5v-357h-34zM87 906h40l100 -135l-20 -16l-100 125l-100 -125l-20 16z" />
    <glyph glyph-name="Hbar" unicode="&#x126;" horiz-adv-x="629" 
d="M500 0v338h-368v-338h-36v533h-70v28h70v137h36v-137h368v137h36v-137h71v-28h-71v-533h-36zM132 370h368v163h-368v-163z" />
    <glyph glyph-name="hbar" unicode="&#x127;" horiz-adv-x="505" 
d="M124 0h-34v625h-64v27h64v88h34v-88h146v-27h-146v-195h7q13 41 50.5 65.5t92.5 24.5q71 0 109.5 -44t38.5 -128v-348h-34v347q0 67 -31 105t-91 38q-38 0 -70.5 -16t-52 -45.5t-19.5 -71.5v-357z" />
    <glyph glyph-name="Itilde" unicode="&#x128;" horiz-adv-x="342" 
d="M283 0h-224v30h94v638h-94v30h224v-30h-94v-638h94v-30zM235 802q-16 0 -31.5 7t-38.5 22q-20 14 -34 20t-27 6q-16 0 -29.5 -8t-27.5 -24l-16 19q17 22 35 32t39 10q16 0 31.5 -6.5t38.5 -23.5q20 -13 34 -19t26 -6q17 0 30 8t27 24l16 -19q-16 -22 -34 -32t-39 -10z
" />
    <glyph glyph-name="itilde" unicode="&#x129;" horiz-adv-x="213" 
d="M124 0h-34v508h34v-508zM168 626q-17 0 -32 7t-35 21q-19 13 -32 18.5t-26 5.5q-15 0 -29 -7.5t-27 -23.5l-16 19q16 21 34 31t38 10q17 0 32.5 -6.5t34.5 -21.5q20 -13 32.5 -19t25.5 -6q17 0 30 8t27 24l16 -19q-16 -21 -34 -31t-39 -10z" />
    <glyph glyph-name="Imacron" unicode="&#x12a;" horiz-adv-x="342" 
d="M283 0h-224v30h94v638h-94v30h224v-30h-94v-638h94v-30zM54 831v29h232v-29h-232z" />
    <glyph glyph-name="imacron" unicode="&#x12b;" horiz-adv-x="213" 
d="M124 0h-34v508h34v-508zM-9 654v28h230v-28h-230z" />
    <glyph glyph-name="Ibreve" unicode="&#x12c;" horiz-adv-x="342" 
d="M283 0h-224v30h94v638h-94v30h224v-30h-94v-638h94v-30zM170 781q-22 0 -39 6.5t-30.5 20.5t-24 36.5t-20.5 55.5l23 11l11 -29q14 -39 32 -55.5t48 -16.5t48 16.5t32 55.5l11 29l23 -11q-13 -43 -28 -69.5t-35.5 -38t-50.5 -11.5z" />
    <glyph glyph-name="ibreve" unicode="&#x12d;" horiz-adv-x="213" 
d="M124 0h-34v508h34v-508zM106 604q-22 0 -38.5 6t-29.5 19.5t-23 36.5t-19 57l22 10l10 -29q13 -38 31 -54.5t47 -16.5t47 16.5t31 54.5l10 29l22 -10q-9 -34 -19 -57t-23 -36.5t-29.5 -19.5t-38.5 -6z" />
    <glyph glyph-name="Iogonek" unicode="&#x12e;" horiz-adv-x="342" 
d="M59 0v30h94v638h-94v30h224v-30h-94v-638h94v-30q-37 -28 -60 -49.5t-33.5 -42t-10.5 -41.5q0 -22 13.5 -33t35.5 -11q19 0 31.5 7.5t19.5 16.5l19 -17q-9 -13 -27.5 -23t-44.5 -10q-23 0 -40.5 7.5t-27 21.5t-9.5 34q0 36 27 69t79 66v5h-196z" />
    <glyph glyph-name="iogonek" unicode="&#x12f;" horiz-adv-x="213" 
d="M90 508h34v-508q-38 -28 -61 -49.5t-33 -41.5t-10 -41q0 -23 13.5 -34t34.5 -11q20 0 32.5 7.5t19.5 16.5l18 -17q-8 -13 -26.5 -23t-44.5 -10q-24 0 -41 7.5t-26.5 22t-9.5 34.5t9.5 41t33.5 44.5t68 51.5l-1 -5h-10v515zM107 665q-15 0 -21.5 7.5t-6.5 17.5v11
q0 11 6.5 18t21.5 7t21 -7t6 -18v-11q0 -10 -6 -17.5t-21 -7.5z" />
    <glyph glyph-name="Idotaccent" unicode="&#x130;" horiz-adv-x="342" 
d="M283 0h-224v30h94v638h-94v30h224v-30h-94v-638h94v-30zM170 815q-16 0 -22.5 7.5t-6.5 17.5v10q0 11 6.5 18t22.5 7t22.5 -7t6.5 -18v-10q0 -10 -6.5 -17.5t-22.5 -7.5z" />
    <glyph glyph-name="dotlessi" unicode="&#x131;" horiz-adv-x="213" 
d="M124 0h-34v508h34v-508z" />
    <glyph glyph-name="IJ" unicode="&#x132;" horiz-adv-x="571" 
d="M284 -12q-85 0 -134 40t-65 109l32 9q15 -59 55 -92.5t112 -33.5q81 0 123 44.5t42 126.5v475h-166v32h202v-510q0 -65 -25 -109.5t-69.5 -67.5t-106.5 -23zM87 290v408h36v-408h-36z" />
    <glyph glyph-name="ij" unicode="&#x133;" horiz-adv-x="427" 
d="M107 665q-15 0 -21.5 7.5t-6.5 17.5v11q0 11 6.5 18t21.5 7t21 -7t6 -18v-11q0 -10 -6 -17.5t-21 -7.5zM90 0v508h34v-508h-34zM303 -170v678h34v-664q0 -24 -10.5 -34t-33.5 -10h-67v30h77zM320 665q-15 0 -21.5 7.5t-6.5 17.5v11q0 11 6.5 18t21.5 7t21 -7t6 -18v-11
q0 -10 -6 -17.5t-21 -7.5z" />
    <glyph glyph-name="Jcircumflex" unicode="&#x134;" horiz-adv-x="429" 
d="M87 698h256v-534q0 -57 -20 -96.5t-56 -59.5t-86 -20q-68 0 -107 35t-53 95l32 8q13 -49 43.5 -77.5t84.5 -28.5q62 0 94 38t32 109v499h-220v32zM197 926h40l100 -136l-20 -15l-100 125l-100 -125l-20 15z" />
    <glyph glyph-name="jcircumflex" unicode="&#x135;" horiz-adv-x="213" 
d="M13 -200v30h77v678h34v-664q0 -24 -10.5 -34t-33.5 -10h-67zM86 748h40l97 -135l-20 -16l-97 125l-97 -125l-20 16z" />
    <glyph glyph-name="Kcommaaccent" unicode="&#x136;" horiz-adv-x="530" 
d="M469 0l-227 378l-113 -142v-236h-35v698h35v-254l-1 -160h5l124 160l206 254h42l-240 -295l246 -403h-42zM289 -66q15 0 21.5 -7.5t6.5 -19.5v-12q0 -28 -13.5 -60.5t-33.5 -54.5h-27q22 24 33 49.5t13 42.5q-16 1 -23 8t-7 17v10q0 12 7 19.5t23 7.5z" />
    <glyph glyph-name="kcommaaccent" unicode="&#x137;" horiz-adv-x="450" 
d="M90 0v740h34v-427l-2 -82h5l71 81l172 196h42l-187 -212l209 -296h-42l-192 274l-76 -85v-189h-34zM250 -66q15 0 21.5 -7.5t6.5 -19.5v-12q0 -28 -13.5 -60.5t-33.5 -54.5h-27q22 24 33 49.5t13 42.5q-16 1 -23 8t-7 17v10q0 12 7 19.5t23 7.5z" />
    <glyph glyph-name="kgreenlandic" unicode="&#x138;" horiz-adv-x="450" 
d="M392 0l-192 274l-76 -85v-189h-34v508h34v-195l-2 -82h5l71 81l172 196h42l-187 -212l209 -296h-42z" />
    <glyph glyph-name="Lacute" unicode="&#x139;" horiz-adv-x="434" 
d="M414 0h-320v698h35v-666h285v-32zM204 918l-102 -154l-23 14l94 157z" />
    <glyph glyph-name="lacute" unicode="&#x13a;" horiz-adv-x="232" 
d="M197 0h-68q-21 0 -30 9t-9 30v701h34v-710h73v-30zM198 940l-102 -153l-23 13l94 158z" />
    <glyph glyph-name="Lcommaaccent" unicode="&#x13b;" horiz-adv-x="434" 
d="M414 0h-320v698h35v-666h285v-32zM265 -66q15 0 21.5 -7.5t6.5 -19.5v-12q0 -28 -13.5 -60.5t-33.5 -54.5h-27q22 24 33 49.5t13 42.5q-16 1 -23 8t-7 17v10q0 12 7 19.5t23 7.5z" />
    <glyph glyph-name="lcommaaccent" unicode="&#x13c;" horiz-adv-x="232" 
d="M197 0h-68q-21 0 -30 9t-9 30v701h34v-710h73v-30zM147 -66q15 0 21.5 -7.5t6.5 -19.5v-12q0 -28 -13.5 -60.5t-33.5 -54.5h-27q22 24 33 49.5t13 42.5q-16 1 -23 8t-7 17v10q0 12 7 19.5t23 7.5z" />
    <glyph glyph-name="Lcaron" unicode="&#x13d;" horiz-adv-x="434" 
d="M414 0h-320v698h35v-666h285v-32zM269 740l-30 -178h-25l15 178h40z" />
    <glyph glyph-name="lcaron" unicode="&#x13e;" horiz-adv-x="232" 
d="M197 0h-68q-21 0 -30 9t-9 30v701h34v-710h73v-30zM251 740l-30 -178h-25l15 178h40z" />
    <glyph glyph-name="Ldot" unicode="&#x13f;" horiz-adv-x="434" 
d="M414 0h-320v698h35v-666h285v-32zM330 275q-16 0 -22.5 7.5t-6.5 18.5v9q0 11 6.5 18.5t22.5 7.5t22.5 -7.5t6.5 -18.5v-9q0 -11 -6.5 -18.5t-22.5 -7.5z" />
    <glyph glyph-name="ldot" unicode="&#x140;" horiz-adv-x="262" 
d="M197 0h-68q-21 0 -30 9t-9 30v701h34v-710h73v-30zM239 243q-16 0 -22.5 7.5t-6.5 18.5v9q0 11 6.5 18.5t22.5 7.5t22.5 -7.5t6.5 -18.5v-9q0 -11 -6.5 -18.5t-22.5 -7.5z" />
    <glyph glyph-name="Lslash" unicode="&#x141;" horiz-adv-x="436" 
d="M418 32v-32h-321v295l-85 -30v29l85 31v373h36v-360l178 64v-31l-178 -63v-276h285z" />
    <glyph glyph-name="lslash" unicode="&#x142;" horiz-adv-x="237" 
d="M197 30v-30h-68q-21 0 -30 9t-9 30v306l-64 -23v30l64 23v365h34v-353l85 31v-30l-85 -30v-328h73z" />
    <glyph glyph-name="Nacute" unicode="&#x143;" horiz-adv-x="626" 
d="M481 0l-264 495l-84 164h-6l2 -164v-495h-35v698h52l264 -495l85 -164h5l-2 164v495h36v-698h-53zM405 918l-102 -154l-23 14l94 157z" />
    <glyph glyph-name="nacute" unicode="&#x144;" horiz-adv-x="504" 
d="M124 0h-34v508h34v-78h7q13 41 50.5 65.5t92.5 24.5q71 0 109.5 -44t38.5 -128v-348h-34v347q0 67 -31 105t-91 38q-38 0 -70.5 -16t-52 -45.5t-19.5 -71.5v-357zM349 740l-102 -153l-23 13l94 158z" />
    <glyph glyph-name="Ncommaaccent" unicode="&#x145;" horiz-adv-x="626" 
d="M481 0l-264 495l-84 164h-6l2 -164v-495h-35v698h52l264 -495l85 -164h5l-2 164v495h36v-698h-53zM314 -66q15 0 21.5 -7.5t6.5 -19.5v-12q0 -28 -13.5 -60.5t-33.5 -54.5h-27q22 24 33 49.5t13 42.5q-16 1 -23 8t-7 17v10q0 12 7 19.5t23 7.5z" />
    <glyph glyph-name="ncommaaccent" unicode="&#x146;" horiz-adv-x="504" 
d="M124 0h-34v508h34v-78h7q13 41 50.5 65.5t92.5 24.5q71 0 109.5 -44t38.5 -128v-348h-34v347q0 67 -31 105t-91 38q-38 0 -70.5 -16t-52 -45.5t-19.5 -71.5v-357zM257 -66q15 0 21.5 -7.5t6.5 -19.5v-12q0 -28 -13.5 -60.5t-33.5 -54.5h-27q22 24 33 49.5t13 42.5
q-16 1 -23 8t-7 17v10q0 12 7 19.5t23 7.5z" />
    <glyph glyph-name="Ncaron" unicode="&#x147;" horiz-adv-x="626" 
d="M481 0l-264 495l-84 164h-6l2 -164v-495h-35v698h52l264 -495l85 -164h5l-2 164v495h36v-698h-53zM333 780h-40l-100 135l20 16l100 -125l100 125l20 -16z" />
    <glyph glyph-name="ncaron" unicode="&#x148;" horiz-adv-x="504" 
d="M124 0h-34v508h34v-78h7q13 41 50.5 65.5t92.5 24.5q71 0 109.5 -44t38.5 -128v-348h-34v347q0 67 -31 105t-91 38q-38 0 -70.5 -16t-52 -45.5t-19.5 -71.5v-357zM277 602h-40l-100 136l20 15l100 -125l100 125l20 -15z" />
    <glyph glyph-name="napostrophe" unicode="&#x149;" horiz-adv-x="729" 
d="M113 742q16 0 24.5 -7.5t8.5 -22.5v-10q0 -45 -21.5 -91t-52.5 -77h-29q30 35 46 70.5t19 67.5q-15 1 -22 8.5t-7 21.5v10q0 15 8.5 22.5t25.5 7.5zM349 0h-34v508h34v-78h7q13 41 50.5 65.5t92.5 24.5q71 0 109.5 -44t38.5 -128v-348h-34v347q0 67 -31 105t-91 38
q-38 0 -70.5 -16t-52 -45.5t-19.5 -71.5v-357z" />
    <glyph glyph-name="Eng" unicode="&#x14a;" horiz-adv-x="626" 
d="M129 0h-35v698h52l264 -495l85 -164h5l-2 164v495h36v-854q0 -24 -10.5 -34t-33.5 -10h-67v31h75v169h-17l-264 495l-84 164h-6l2 -164v-495z" />
    <glyph glyph-name="eng" unicode="&#x14b;" horiz-adv-x="504" 
d="M311 -200v30h77v517q0 67 -31 105t-91 38q-38 0 -70.5 -16t-52 -45.5t-19.5 -71.5v-357h-34v508h34v-78h7q13 41 50.5 65.5t92.5 24.5q71 0 109.5 -44t38.5 -128v-504q0 -24 -10 -34t-34 -10h-67z" />
    <glyph glyph-name="Omacron" unicode="&#x14c;" horiz-adv-x="620" 
d="M310 -12q-77 0 -133 34.5t-86.5 113t-30.5 213.5t30.5 214t86.5 113t133 34q76 0 132.5 -34t86.5 -113t30 -214t-30 -213.5t-86.5 -113t-132.5 -34.5zM310 20q66 0 113 30t72.5 92.5t25.5 158.5v96q0 97 -25.5 159t-72.5 92t-113 30t-113 -30t-72.5 -92t-25.5 -159v-96
q0 -96 25.5 -158.5t72.5 -92.5t113 -30zM194 831v29h232v-29h-232z" />
    <glyph glyph-name="omacron" unicode="&#x14d;" horiz-adv-x="492" 
d="M246 -12q-60 0 -104 28t-67.5 86.5t-23.5 151.5t23.5 152t67.5 86.5t104 27.5q61 0 104 -27.5t67 -86.5t24 -152t-24 -151.5t-67 -86.5t-104 -28zM246 19q76 0 117 51.5t41 145.5v76q0 94 -41 146t-117 52t-117 -52t-41 -146v-76q0 -94 41 -145.5t117 -51.5zM130 654v28
h232v-28h-232z" />
    <glyph glyph-name="Obreve" unicode="&#x14e;" horiz-adv-x="620" 
d="M310 -12q-77 0 -133 34.5t-86.5 113t-30.5 213.5t30.5 214t86.5 113t133 34q76 0 132.5 -34t86.5 -113t30 -214t-30 -213.5t-86.5 -113t-132.5 -34.5zM310 20q66 0 113 30t72.5 92.5t25.5 158.5v96q0 97 -25.5 159t-72.5 92t-113 30t-113 -30t-72.5 -92t-25.5 -159v-96
q0 -96 25.5 -158.5t72.5 -92.5t113 -30zM310 781q-22 0 -39 6.5t-30.5 20.5t-24 36.5t-20.5 55.5l23 11l11 -29q14 -39 32 -55.5t48 -16.5t48 16.5t32 55.5l11 29l23 -11q-13 -43 -28 -69.5t-35.5 -38t-50.5 -11.5z" />
    <glyph glyph-name="obreve" unicode="&#x14f;" horiz-adv-x="492" 
d="M246 -12q-60 0 -104 28t-67.5 86.5t-23.5 151.5t23.5 152t67.5 86.5t104 27.5q61 0 104 -27.5t67 -86.5t24 -152t-24 -151.5t-67 -86.5t-104 -28zM246 19q76 0 117 51.5t41 145.5v76q0 94 -41 146t-117 52t-117 -52t-41 -146v-76q0 -94 41 -145.5t117 -51.5zM246 604
q-22 0 -39 6t-30.5 20t-24 37t-20.5 56l23 10l11 -28q14 -40 32 -56t48 -16t48 16t32 56l11 28l23 -10q-10 -33 -20.5 -56t-24 -37t-30.5 -20t-39 -6z" />
    <glyph glyph-name="Ohungarumlaut" unicode="&#x150;" horiz-adv-x="620" 
d="M310 -12q-77 0 -133 34.5t-86.5 113t-30.5 213.5t30.5 214t86.5 113t133 34q76 0 132.5 -34t86.5 -113t30 -214t-30 -213.5t-86.5 -113t-132.5 -34.5zM310 20q66 0 113 30t72.5 92.5t25.5 158.5v96q0 97 -25.5 159t-72.5 92t-113 30t-113 -30t-72.5 -92t-25.5 -159v-96
q0 -96 25.5 -158.5t72.5 -92.5t113 -30zM342 918l-102 -154l-22 14l94 157zM486 918l-101 -154l-22 14l93 157z" />
    <glyph glyph-name="ohungarumlaut" unicode="&#x151;" horiz-adv-x="492" 
d="M246 -12q-60 0 -104 28t-67.5 86.5t-23.5 151.5t23.5 152t67.5 86.5t104 27.5q61 0 104 -27.5t67 -86.5t24 -152t-24 -151.5t-67 -86.5t-104 -28zM246 19q76 0 117 51.5t41 145.5v76q0 94 -41 146t-117 52t-117 -52t-41 -146v-76q0 -94 41 -145.5t117 -51.5zM278 740
l-102 -153l-22 13l94 158zM422 740l-101 -153l-22 13l93 158z" />
    <glyph glyph-name="OE" unicode="&#x152;" horiz-adv-x="875" 
d="M812 0h-354q-23 -4 -56 -8t-66 -4q-84 0 -146.5 34.5t-96 113t-33.5 213.5t33.5 214t96 113t146.5 34q33 0 66 -3.5t56 -8.5h354v-32h-318v-296h305v-32h-305v-306h318v-32zM336 20q38 0 69.5 4.5t52.5 10.5v628q-21 6 -53 10.5t-69 4.5q-111 0 -174 -68.5t-63 -212.5
v-96q0 -144 63 -212.5t174 -68.5z" />
    <glyph glyph-name="oe" unicode="&#x153;" horiz-adv-x="836" 
d="M246 19q76 0 117 51.5t41 145.5v76q0 94 -41 146t-117 52t-117 -52t-41 -146v-76q0 -94 41 -145.5t117 -51.5zM441 280h309v12q0 63 -16.5 107.5t-50 68t-84.5 23.5q-50 0 -85.5 -23.5t-54 -68t-18.5 -107.5v-12zM599 -12q-44 0 -79.5 16.5t-59 48.5t-35.5 80h-6
q-17 -73 -61.5 -109t-111.5 -36q-60 0 -104 28t-67.5 86.5t-23.5 151.5t23.5 152t67.5 86.5t104 27.5q67 0 111.5 -36t61.5 -108h6q17 72 62 108t112 36q61 0 102.5 -28t63 -85t21.5 -143v-12h-345v-36q0 -94 41.5 -146t116.5 -52q63 0 99.5 29t55.5 86l25 -15
q-20 -63 -63 -96.5t-117 -33.5z" />
    <glyph glyph-name="Racute" unicode="&#x154;" horiz-adv-x="570" 
d="M129 317v-317h-35v698h241q56 0 92.5 -21.5t54.5 -64t18 -105.5q0 -89 -37.5 -137.5t-113.5 -51.5l165 -318h-40l-161 317h-184zM129 348h207q41 0 69 15t42 44.5t14 69.5v60q0 42 -14 70.5t-42 43.5t-69 15h-207v-318zM367 918l-102 -154l-23 14l94 157z" />
    <glyph glyph-name="racute" unicode="&#x155;" horiz-adv-x="314" 
d="M124 0h-34v508h34v-90h7q9 28 28 48.5t45.5 31t60.5 10.5h36v-32h-42q-37 0 -68 -16t-49 -45t-18 -68v-347zM291 740l-102 -153l-23 13l94 158z" />
    <glyph glyph-name="Rcommaaccent" unicode="&#x156;" horiz-adv-x="570" 
d="M129 317v-317h-35v698h241q56 0 92.5 -21.5t54.5 -64t18 -105.5q0 -89 -37.5 -137.5t-113.5 -51.5l165 -318h-40l-161 317h-184zM129 348h207q41 0 69 15t42 44.5t14 69.5v60q0 42 -14 70.5t-42 43.5t-69 15h-207v-318zM280 -66q15 0 21.5 -7.5t6.5 -19.5v-12
q0 -28 -13.5 -60.5t-33.5 -54.5h-27q22 24 33 49.5t13 42.5q-16 1 -23 8t-7 17v10q0 12 7 19.5t23 7.5z" />
    <glyph glyph-name="rcommaaccent" unicode="&#x157;" horiz-adv-x="314" 
d="M124 0h-34v508h34v-90h7q9 28 28 48.5t45.5 31t60.5 10.5h36v-32h-42q-37 0 -68 -16t-49 -45t-18 -68v-347zM108 -66q15 0 21.5 -7.5t6.5 -19.5v-12q0 -28 -13.5 -60.5t-33.5 -54.5h-27q22 24 33 49.5t13 42.5q-16 1 -23 8t-7 17v10q0 12 7 19.5t23 7.5z" />
    <glyph glyph-name="Rcaron" unicode="&#x158;" horiz-adv-x="570" 
d="M129 317v-317h-35v698h241q56 0 92.5 -21.5t54.5 -64t18 -105.5q0 -89 -37.5 -137.5t-113.5 -51.5l165 -318h-40l-161 317h-184zM129 348h207q41 0 69 15t42 44.5t14 69.5v60q0 42 -14 70.5t-42 43.5t-69 15h-207v-318zM295 780h-40l-100 135l20 16l100 -125l100 125
l20 -16z" />
    <glyph glyph-name="rcaron" unicode="&#x159;" horiz-adv-x="314" 
d="M124 0h-34v508h34v-90h7q9 28 28 48.5t45.5 31t60.5 10.5h36v-32h-42q-37 0 -68 -16t-49 -45t-18 -68v-347zM219 602h-40l-100 136l20 15l100 -125l100 125l20 -15z" />
    <glyph glyph-name="Sacute" unicode="&#x15a;" horiz-adv-x="501" 
d="M250 -12q-78 0 -127.5 32t-84.5 83l27 21q34 -48 76 -76t109 -28q81 0 123.5 38.5t42.5 119.5q0 44 -15 74.5t-45.5 51t-77.5 30.5l-61 15q-56 13 -92.5 35.5t-53.5 58t-17 87.5q0 62 24.5 102t69 59t104.5 19q73 0 117 -26t73 -72l-28 -20q-28 43 -64 64.5t-99 21.5
q-75 0 -118.5 -35t-43.5 -113q0 -43 14 -72t44.5 -46.5t78.5 -28.5l60 -15q58 -14 94.5 -37.5t53.5 -60.5t17 -91q0 -65 -23.5 -107.5t-68.5 -63t-109 -20.5zM338 918l-102 -154l-23 14l94 157z" />
    <glyph glyph-name="sacute" unicode="&#x15b;" horiz-adv-x="422" 
d="M211 -12q-57 0 -97.5 22t-72.5 71l26 19q30 -45 63 -63.5t81 -18.5q59 0 92 27.5t33 82.5q0 51 -24.5 76.5t-79.5 35.5l-41 7q-44 7 -74 23.5t-45.5 44.5t-15.5 71q0 68 42.5 101t109.5 33q39 0 67.5 -9.5t49 -26t36.5 -37.5l-24 -21q-19 27 -48 45.5t-80 18.5
q-55 0 -87 -25.5t-32 -76.5t25.5 -75.5t80.5 -34.5l41 -7q67 -11 100 -43t33 -97q0 -47 -19 -78.5t-55 -48t-85 -16.5zM296 740l-102 -153l-23 13l94 158z" />
    <glyph glyph-name="Scircumflex" unicode="&#x15c;" horiz-adv-x="501" 
d="M250 -12q-78 0 -127.5 32t-84.5 83l27 21q34 -48 76 -76t109 -28q81 0 123.5 38.5t42.5 119.5q0 44 -15 74.5t-45.5 51t-77.5 30.5l-61 15q-56 13 -92.5 35.5t-53.5 58t-17 87.5q0 62 24.5 102t69 59t104.5 19q73 0 117 -26t73 -72l-28 -20q-28 43 -64 64.5t-99 21.5
q-75 0 -118.5 -35t-43.5 -113q0 -43 14 -72t44.5 -46.5t78.5 -28.5l60 -15q58 -14 94.5 -37.5t53.5 -60.5t17 -91q0 -65 -23.5 -107.5t-68.5 -63t-109 -20.5zM226 926h40l100 -136l-20 -15l-100 125l-100 -125l-20 15z" />
    <glyph glyph-name="scircumflex" unicode="&#x15d;" horiz-adv-x="422" 
d="M211 -12q-57 0 -97.5 22t-72.5 71l26 19q30 -45 63 -63.5t81 -18.5q59 0 92 27.5t33 82.5q0 51 -24.5 76.5t-79.5 35.5l-41 7q-44 7 -74 23.5t-45.5 44.5t-15.5 71q0 68 42.5 101t109.5 33q39 0 67.5 -9.5t49 -26t36.5 -37.5l-24 -21q-19 27 -48 45.5t-80 18.5
q-55 0 -87 -25.5t-32 -76.5t25.5 -75.5t80.5 -34.5l41 -7q67 -11 100 -43t33 -97q0 -47 -19 -78.5t-55 -48t-85 -16.5zM184 748h40l100 -135l-20 -16l-100 125l-100 -125l-20 16z" />
    <glyph glyph-name="Scedilla" unicode="&#x15e;" horiz-adv-x="501" 
d="M251 678q-75 0 -118.5 -35t-43.5 -113q0 -43 14 -72t44.5 -46.5t78.5 -28.5l60 -15q58 -14 94.5 -37.5t53.5 -60.5t17 -91q0 -97 -50.5 -143.5t-140.5 -47.5l-14 -64h5q5 4 11.5 6t15.5 2q28 0 45.5 -16t17.5 -48q0 -22 -10 -38t-28 -24.5t-44 -8.5q-28 0 -48 10.5
t-29 23.5l17 18q10 -12 24.5 -19t35.5 -7q25 0 38.5 12t13.5 33q0 22 -13.5 34t-38.5 12h-40l17 74q-71 3 -118 34.5t-80 80.5l27 21q34 -48 76 -76t109 -28q81 0 123.5 38.5t42.5 119.5q0 44 -15 74.5t-45.5 51t-77.5 30.5l-61 15q-56 13 -92.5 35.5t-53.5 58t-17 87.5
q0 62 24.5 102t69 59t104.5 19q73 0 117 -26t73 -72l-28 -20q-28 43 -64 64.5t-99 21.5z" />
    <glyph glyph-name="scedilla" unicode="&#x15f;" horiz-adv-x="422" 
d="M223 -203q-28 0 -48.5 10.5t-28.5 23.5l17 18q10 -12 24.5 -19t35.5 -7q25 0 38.5 12t13.5 33q0 22 -13.5 34t-38.5 12h-40l17 74q-53 2 -91 24.5t-68 68.5l26 19q30 -45 63 -63.5t81 -18.5q59 0 92 27.5t33 82.5q0 51 -24.5 76.5t-79.5 35.5l-41 7q-44 7 -74 23.5
t-45.5 44.5t-15.5 71q0 68 42.5 101t109.5 33q39 0 67.5 -9.5t49 -26t36.5 -37.5l-24 -21q-19 27 -48 45.5t-80 18.5q-55 0 -87 -25.5t-32 -76.5t25.5 -75.5t80.5 -34.5l41 -7q67 -11 100 -43t33 -97q0 -67 -39 -103t-108 -40l-13 -64h5q5 4 11.5 6t15.5 2q28 0 45.5 -16
t17.5 -48q0 -22 -10 -38t-28 -24.5t-44 -8.5z" />
    <glyph glyph-name="Scaron" unicode="&#x160;" horiz-adv-x="501" 
d="M250 -12q-78 0 -127.5 32t-84.5 83l27 21q34 -48 76 -76t109 -28q81 0 123.5 38.5t42.5 119.5q0 44 -15 74.5t-45.5 51t-77.5 30.5l-61 15q-56 13 -92.5 35.5t-53.5 58t-17 87.5q0 62 24.5 102t69 59t104.5 19q73 0 117 -26t73 -72l-28 -20q-28 43 -64 64.5t-99 21.5
q-75 0 -118.5 -35t-43.5 -113q0 -43 14 -72t44.5 -46.5t78.5 -28.5l60 -15q58 -14 94.5 -37.5t53.5 -60.5t17 -91q0 -65 -23.5 -107.5t-68.5 -63t-109 -20.5zM266 780h-40l-100 135l20 16l100 -125l100 125l20 -16z" />
    <glyph glyph-name="scaron" unicode="&#x161;" horiz-adv-x="422" 
d="M211 -12q-57 0 -97.5 22t-72.5 71l26 19q30 -45 63 -63.5t81 -18.5q59 0 92 27.5t33 82.5q0 51 -24.5 76.5t-79.5 35.5l-41 7q-44 7 -74 23.5t-45.5 44.5t-15.5 71q0 68 42.5 101t109.5 33q39 0 67.5 -9.5t49 -26t36.5 -37.5l-24 -21q-19 27 -48 45.5t-80 18.5
q-55 0 -87 -25.5t-32 -76.5t25.5 -75.5t80.5 -34.5l41 -7q67 -11 100 -43t33 -97q0 -47 -19 -78.5t-55 -48t-85 -16.5zM224 602h-40l-100 136l20 15l100 -125l100 125l20 -15z" />
    <glyph glyph-name="uni0162" unicode="&#x162;" horiz-adv-x="507" 
d="M263 -203q-29 0 -49 10.5t-29 23.5l18 18q10 -12 24 -19t36 -7q24 0 38 12t14 33q0 22 -14 34t-38 12h-40l18 86h-5v666h-220v32h474v-32h-219v-666h-6l-15 -76h5q5 4 11.5 6t14.5 2q28 0 45.5 -16t17.5 -48q0 -22 -10 -38t-28 -24.5t-43 -8.5z" />
    <glyph glyph-name="uni0163" unicode="&#x163;" horiz-adv-x="289" 
d="M186 -203q-28 0 -48.5 10.5t-28.5 23.5l17 18q10 -12 24.5 -19t35.5 -7q25 0 38.5 12t13.5 33q0 22 -13.5 34t-38.5 12h-40l22 104l10 -18h-29q-21 0 -30 9t-9 30v439h-83v30h59q16 0 20.5 7t4.5 23v114h33v-144h103v-30h-103v-448h98v-30h-53l-16 -76h5q5 4 11.5 6
t15.5 2q28 0 45.5 -16t17.5 -48q0 -22 -10 -38t-28 -24.5t-44 -8.5z" />
    <glyph glyph-name="Tcaron" unicode="&#x164;" horiz-adv-x="507" 
d="M490 666h-219v-666h-35v666h-220v32h474v-32zM273 780h-40l-100 135l20 16l100 -125l100 125l20 -16z" />
    <glyph glyph-name="tcaron" unicode="&#x165;" horiz-adv-x="289" 
d="M242 0h-93q-21 0 -30 9t-9 30v439h-83v30h59q16 0 20.5 7t4.5 23v114h33v-144h103v-30h-103v-448h98v-30zM271 743l-30 -178h-25l15 178h40z" />
    <glyph glyph-name="Tbar" unicode="&#x166;" horiz-adv-x="507" 
d="M432 360h-161v-360h-35v360h-161v27h161v279h-220v32h474v-32h-219v-279h161v-27z" />
    <glyph glyph-name="tbar" unicode="&#x167;" horiz-adv-x="295" 
d="M242 30v-30h-93q-21 0 -30 9t-9 30v235h-59v27h59v177h-83v30h59q16 0 20.5 7t4.5 23v114h33v-144h103v-30h-103v-177h88v-27h-88v-244h98z" />
    <glyph glyph-name="Utilde" unicode="&#x168;" horiz-adv-x="593" 
d="M87 698h36v-450q0 -82 16 -132t54 -73t104 -23t104 23t53.5 73t15.5 132v450h36v-445q0 -95 -20 -153.5t-66 -85t-123 -26.5q-78 0 -124 26.5t-66 85t-20 153.5v445zM361 802q-16 0 -31.5 7t-38.5 22q-20 14 -34 20t-27 6q-16 0 -29.5 -8t-27.5 -24l-16 19q17 22 35 32
t39 10q16 0 31.5 -6.5t38.5 -23.5q20 -13 34 -19t26 -6q17 0 30 8t27 24l16 -19q-16 -22 -34 -32t-39 -10z" />
    <glyph glyph-name="utilde" unicode="&#x169;" horiz-adv-x="504" 
d="M387 0v78h-7q-13 -39 -50.5 -64.5t-92.5 -25.5q-72 0 -110 44t-38 128v348h34v-347q0 -67 31.5 -104.5t90.5 -37.5q39 0 71 15.5t51.5 45.5t19.5 71v357h34v-508h-34zM313 624q-16 0 -31.5 7t-38.5 23q-20 14 -34 19.5t-27 5.5q-16 0 -29.5 -7.5t-27.5 -24.5l-16 19
q17 22 35 32t39 10q16 0 31.5 -6.5t38.5 -22.5q20 -14 34 -20t26 -6q17 0 30 8t27 24l16 -19q-16 -21 -34 -31.5t-39 -10.5z" />
    <glyph glyph-name="Umacron" unicode="&#x16a;" horiz-adv-x="593" 
d="M87 698h36v-450q0 -82 16 -132t54 -73t104 -23t104 23t53.5 73t15.5 132v450h36v-445q0 -95 -20 -153.5t-66 -85t-123 -26.5q-78 0 -124 26.5t-66 85t-20 153.5v445zM180 831v29h232v-29h-232z" />
    <glyph glyph-name="umacron" unicode="&#x16b;" horiz-adv-x="504" 
d="M387 0v78h-7q-13 -39 -50.5 -64.5t-92.5 -25.5q-72 0 -110 44t-38 128v348h34v-347q0 -67 31.5 -104.5t90.5 -37.5q39 0 71 15.5t51.5 45.5t19.5 71v357h34v-508h-34zM132 654v28h232v-28h-232z" />
    <glyph glyph-name="Ubreve" unicode="&#x16c;" horiz-adv-x="593" 
d="M87 698h36v-450q0 -82 16 -132t54 -73t104 -23t104 23t53.5 73t15.5 132v450h36v-445q0 -95 -20 -153.5t-66 -85t-123 -26.5q-78 0 -124 26.5t-66 85t-20 153.5v445zM296 781q-22 0 -39 6.5t-30.5 20.5t-24 36.5t-20.5 55.5l23 11l11 -29q14 -39 32 -55.5t48 -16.5
t48 16.5t32 55.5l11 29l23 -11q-13 -43 -28 -69.5t-35.5 -38t-50.5 -11.5z" />
    <glyph glyph-name="ubreve" unicode="&#x16d;" horiz-adv-x="504" 
d="M387 0v78h-7q-13 -39 -50.5 -64.5t-92.5 -25.5q-72 0 -110 44t-38 128v348h34v-347q0 -67 31.5 -104.5t90.5 -37.5q39 0 71 15.5t51.5 45.5t19.5 71v357h34v-508h-34zM248 604q-22 0 -39 6t-30.5 20t-24 37t-20.5 56l23 10l11 -28q14 -40 32 -56t48 -16t48 16t32 56
l11 28l23 -10q-10 -33 -20.5 -56t-24 -37t-30.5 -20t-39 -6z" />
    <glyph glyph-name="Uring" unicode="&#x16e;" horiz-adv-x="593" 
d="M87 698h36v-450q0 -82 16 -132t54 -73t104 -23t104 23t53.5 73t15.5 132v450h36v-445q0 -95 -20 -153.5t-66 -85t-123 -26.5q-78 0 -124 26.5t-66 85t-20 153.5v445zM296 764q-28 0 -48.5 12t-32 34t-11.5 50q0 29 11.5 50.5t32 34t48.5 12.5t48.5 -12.5t32 -34
t11.5 -50.5q0 -28 -11.5 -50t-32 -34t-48.5 -12zM296 788q30 0 46.5 17.5t16.5 46.5v16q0 30 -16.5 47t-46.5 17t-46.5 -17t-16.5 -47v-16q0 -29 16.5 -46.5t46.5 -17.5z" />
    <glyph glyph-name="uring" unicode="&#x16f;" horiz-adv-x="504" 
d="M387 0v78h-7q-13 -39 -50.5 -64.5t-92.5 -25.5q-72 0 -110 44t-38 128v348h34v-347q0 -67 31.5 -104.5t90.5 -37.5q39 0 71 15.5t51.5 45.5t19.5 71v357h34v-508h-34zM248 586q-28 0 -48.5 12.5t-32 34t-11.5 50.5q0 28 11.5 50t32 34t48.5 12t48.5 -12t32 -34t11.5 -50
q0 -29 -11.5 -50.5t-32 -34t-48.5 -12.5zM248 611q30 0 46.5 17t16.5 47v15q0 30 -16.5 47t-46.5 17t-46.5 -17t-16.5 -47v-15q0 -30 16.5 -47t46.5 -17z" />
    <glyph glyph-name="Uhungarumlaut" unicode="&#x170;" horiz-adv-x="593" 
d="M87 698h36v-450q0 -82 16 -132t54 -73t104 -23t104 23t53.5 73t15.5 132v450h36v-445q0 -95 -20 -153.5t-66 -85t-123 -26.5q-78 0 -124 26.5t-66 85t-20 153.5v445zM328 918l-102 -154l-22 14l94 157zM472 918l-101 -154l-22 14l93 157z" />
    <glyph glyph-name="uhungarumlaut" unicode="&#x171;" horiz-adv-x="504" 
d="M387 0v78h-7q-13 -39 -50.5 -64.5t-92.5 -25.5q-72 0 -110 44t-38 128v348h34v-347q0 -67 31.5 -104.5t90.5 -37.5q39 0 71 15.5t51.5 45.5t19.5 71v357h34v-508h-34zM280 740l-102 -153l-22 13l94 158zM424 740l-101 -153l-22 13l93 158z" />
    <glyph glyph-name="Uogonek" unicode="&#x172;" horiz-adv-x="593" 
d="M87 698h36v-450q0 -82 16 -132t54 -73t104 -23t104 23t53.5 73t15.5 132v450h36v-445q0 -60 -7.5 -104.5t-24 -75.5t-44.5 -52q-50 -38 -77.5 -65.5t-38 -48.5t-10.5 -41q0 -21 13 -32t35 -11q19 0 31.5 7.5t20.5 16.5l18 -17q-9 -13 -27.5 -23t-44.5 -10q-35 0 -56 16.5
t-21 47.5q0 23 10 43t33.5 42t62.5 48l-1 4q-18 -5 -37.5 -7.5t-43.5 -2.5q-78 0 -124 26.5t-66 85t-20 153.5v445z" />
    <glyph glyph-name="uogonek" unicode="&#x173;" horiz-adv-x="504" 
d="M421 508v-508q-37 -27 -60 -49.5t-33.5 -42t-10.5 -40.5q0 -24 13.5 -34.5t35.5 -10.5q19 0 31.5 7.5t19.5 16.5l19 -17q-9 -13 -27.5 -23t-44.5 -10q-23 0 -40 7t-27 22t-10 35q0 35 28 68t83 69v-3h-11v83h-7q-13 -39 -50.5 -64.5t-92.5 -25.5q-72 0 -110 44t-38 128
v348h34v-347q0 -67 31.5 -104.5t90.5 -37.5q39 0 71 15.5t51.5 45.5t19.5 71v357h34z" />
    <glyph glyph-name="Wcircumflex" unicode="&#x174;" horiz-adv-x="790" 
d="M237 0h-51l-161 698h38l102 -459l45 -205h5l46 205l108 459h53l108 -459l47 -205h5l44 205l103 459h37l-162 -698h-51l-109 459l-46 207h-6l-45 -207zM373 926h40l100 -136l-20 -15l-100 125l-100 -125l-20 15z" />
    <glyph glyph-name="wcircumflex" unicode="&#x175;" horiz-adv-x="664" 
d="M162 0l-132 508h34l77 -298l43 -179h6l44 179l75 298h48l76 -298l44 -179h5l44 179l76 298h34l-132 -508h-50l-78 305l-40 170h-6l-41 -170l-77 -305h-50zM313 748h40l100 -135l-20 -16l-100 125l-100 -125l-20 16z" />
    <glyph glyph-name="Ycircumflex" unicode="&#x176;" horiz-adv-x="503" 
d="M269 0h-36v290l-216 408h40l191 -364h7l190 364h40l-216 -408v-290zM231 926h40l100 -136l-20 -15l-100 125l-100 -125l-20 15z" />
    <glyph glyph-name="ycircumflex" unicode="&#x177;" horiz-adv-x="418" 
d="M263 201l99 307h34l-219 -677q-3 -12 -8.5 -18.5t-13 -9.5t-19.5 -3h-78v30h87l47 149l-171 529h34l99 -307l52 -171h5zM191 748h40l100 -135l-20 -16l-100 125l-100 -125l-20 16z" />
    <glyph glyph-name="Ydieresis" unicode="&#x178;" horiz-adv-x="503" 
d="M269 0h-36v290l-216 408h40l191 -364h7l190 364h40l-216 -408v-290zM173 813q-15 0 -22 7.5t-7 17.5v10q0 10 7 17.5t22 7.5q16 0 23 -7.5t7 -17.5v-10q0 -10 -7 -17.5t-23 -7.5zM329 813q-16 0 -23 7.5t-7 17.5v10q0 10 7 17.5t23 7.5q15 0 22 -7.5t7 -17.5v-10
q0 -10 -7 -17.5t-22 -7.5z" />
    <glyph glyph-name="Zacute" unicode="&#x179;" horiz-adv-x="506" 
d="M479 32v-32h-444v34l387 632h-368v32h407v-34l-388 -632h406zM349 918l-102 -154l-23 14l94 157z" />
    <glyph glyph-name="zacute" unicode="&#x17a;" horiz-adv-x="387" 
d="M366 0h-340v30l294 448h-286v30h324v-29l-293 -449h301v-30zM286 740l-102 -153l-23 13l94 158z" />
    <glyph glyph-name="Zdotaccent" unicode="&#x17b;" horiz-adv-x="506" 
d="M479 32v-32h-444v34l387 632h-368v32h407v-34l-388 -632h406zM257 815q-16 0 -22.5 7.5t-6.5 17.5v10q0 11 6.5 18t22.5 7t22.5 -7t6.5 -18v-10q0 -10 -6.5 -17.5t-22.5 -7.5z" />
    <glyph glyph-name="zdotaccent" unicode="&#x17c;" horiz-adv-x="387" 
d="M366 0h-340v30l294 448h-286v30h324v-29l-293 -449h301v-30zM194 636q-16 0 -22.5 7.5t-6.5 18.5v9q0 11 6.5 18.5t22.5 7.5t22.5 -7.5t6.5 -18.5v-9q0 -11 -6.5 -18.5t-22.5 -7.5z" />
    <glyph glyph-name="Zcaron" unicode="&#x17d;" horiz-adv-x="506" 
d="M479 32v-32h-444v34l387 632h-368v32h407v-34l-388 -632h406zM277 780h-40l-100 135l20 16l100 -125l100 125l20 -16z" />
    <glyph glyph-name="zcaron" unicode="&#x17e;" horiz-adv-x="387" 
d="M366 0h-340v30l294 448h-286v30h324v-29l-293 -449h301v-30zM214 602h-40l-100 136l20 15l100 -125l100 125l20 -15z" />
    <glyph glyph-name="uni017F" unicode="&#x17f;" horiz-adv-x="232" 
d="M108 0v478h-83v30h83v188q0 24 10 34t34 10h93v-30h-103v-710h-34z" />
    <glyph glyph-name="uni018F" unicode="&#x18f;" horiz-adv-x="620" 
d="M60 355h461v42q0 144 -56 212.5t-155 68.5q-76 0 -126.5 -40t-71.5 -123l-32 11q17 66 49 106t77.5 59t103.5 19q76 0 132.5 -34t86.5 -113t30 -214t-30 -213.5t-86.5 -113t-132.5 -34.5q-77 0 -133 34.5t-86.5 113t-30.5 213.5v6zM98 325v-24q0 -96 25.5 -158.5
t73 -92.5t113.5 -30t113 30t72.5 92.5t25.5 158.5v24h-423z" />
    <glyph glyph-name="florin" unicode="&#x192;" horiz-adv-x="438" 
d="M-3 -134l4 30h151l37 413h-148l3 31h148l28 321q2 20 11.5 28.5t32.5 8.5h153l-4 -30h-158l-29 -328h178l-3 -31h-178l-36 -406q-2 -20 -11 -28.5t-33 -8.5h-146z" />
    <glyph glyph-name="Ohorn" unicode="&#x1a0;" horiz-adv-x="620" 
d="M528 809h31v-104q0 -20 -6.5 -26.5t-26.5 -6.5h-104v-5q43 -13 73.5 -49.5t47 -101.5t16.5 -167q0 -135 -30 -213.5t-86.5 -113t-132.5 -34.5q-77 0 -133 34.5t-86.5 113t-30.5 213.5t30.5 214t86.5 113t133 34q23 0 44.5 -2.5t40.5 -9.5h133v111zM310 20q66 0 113 30
t72.5 92.5t25.5 158.5v96q0 97 -25.5 159t-72.5 92t-113 30t-113 -30t-72.5 -92t-25.5 -159v-96q0 -96 25.5 -158.5t72.5 -92.5t113 -30z" />
    <glyph glyph-name="ohorn" unicode="&#x1a1;" horiz-adv-x="491" 
d="M405 620h31v-105q0 -20 -6 -26t-26 -6h-63v-5q33 -10 55 -39t33.5 -75.5t11.5 -109.5q0 -93 -24 -151.5t-67 -86.5t-104 -28q-60 0 -104 28t-67.5 86.5t-23.5 151.5t23.5 152t67.5 86.5t104 27.5q20 0 38 -3t34 -9h87v112zM246 19q76 0 117 51.5t41 145.5v76
q0 94 -41 146t-117 52t-117 -52t-41 -146v-76q0 -94 41 -145.5t117 -51.5z" />
    <glyph glyph-name="Uhorn" unicode="&#x1af;" horiz-adv-x="595" 
d="M87 698h36v-450q0 -82 16 -132t54 -73t104 -23t104 23t53.5 73t15.5 132v450h75v111h31v-104q0 -14 -2.5 -20.5t-9.5 -9.5t-20 -3h-53l15 15v-434q0 -96 -20 -154t-66 -84.5t-123 -26.5q-78 0 -123.5 26.5t-66 84.5t-20.5 154v445z" />
    <glyph glyph-name="uhorn" unicode="&#x1b0;" horiz-adv-x="505" 
d="M421 0h-34v78h-7q-13 -39 -50.5 -64.5t-92.5 -25.5q-72 0 -110 44t-38 128v348h34v-347q0 -67 31.5 -104.5t90.5 -37.5q39 0 71 15.5t51.5 45.5t19.5 71v357h75v112h31v-105q0 -13 -3 -20t-10 -9.5t-20 -2.5h-54l15 14v-497z" />
    <glyph glyph-name="uni01CD" unicode="&#x1cd;" horiz-adv-x="551" 
d="M525 0h-38l-72 228h-279l-73 -228h-37l224 698h51zM405 258l-85 272l-42 136h-6l-42 -136l-85 -272h260zM296 780h-40l-100 135l20 16l100 -125l100 125l20 -16z" />
    <glyph glyph-name="uni01CE" unicode="&#x1ce;" horiz-adv-x="472" 
d="M451 0h-69q-12 0 -20 3.5t-11.5 11.5t-3.5 20v54l10 -10h-17q-14 -41 -50 -66t-91 -25q-71 0 -110 36t-39 109q0 48 19.5 80.5t57 49t90.5 16.5h130v78q0 72 -31.5 102.5t-93.5 30.5q-49 0 -81 -20.5t-50 -69.5l-24 16q18 49 56 76.5t100 27.5q78 0 118 -39t40 -120v-331
h70v-30zM347 251h-130q-59 0 -94.5 -25.5t-35.5 -72.5v-37q0 -46 33 -72t83 -26q41 0 73 15.5t51.5 45t19.5 71.5v101zM245 602h-40l-100 136l20 15l100 -125l100 125l20 -15z" />
    <glyph glyph-name="uni01CF" unicode="&#x1cf;" horiz-adv-x="342" 
d="M283 0h-224v30h94v638h-94v30h224v-30h-94v-638h94v-30zM190 780h-40l-100 135l20 16l100 -125l100 125l20 -16z" />
    <glyph glyph-name="uni01D0" unicode="&#x1d0;" horiz-adv-x="213" 
d="M124 0h-34v508h34v-508zM126 602h-40l-97 136l20 15l97 -125l97 125l20 -15z" />
    <glyph glyph-name="uni01D1" unicode="&#x1d1;" horiz-adv-x="620" 
d="M310 -12q-77 0 -133 34.5t-86.5 113t-30.5 213.5t30.5 214t86.5 113t133 34q76 0 132.5 -34t86.5 -113t30 -214t-30 -213.5t-86.5 -113t-132.5 -34.5zM310 20q66 0 113 30t72.5 92.5t25.5 158.5v96q0 97 -25.5 159t-72.5 92t-113 30t-113 -30t-72.5 -92t-25.5 -159v-96
q0 -96 25.5 -158.5t72.5 -92.5t113 -30zM330 780h-40l-100 135l20 16l100 -125l100 125l20 -16z" />
    <glyph glyph-name="uni01D2" unicode="&#x1d2;" horiz-adv-x="492" 
d="M246 -12q-60 0 -104 28t-67.5 86.5t-23.5 151.5t23.5 152t67.5 86.5t104 27.5q61 0 104 -27.5t67 -86.5t24 -152t-24 -151.5t-67 -86.5t-104 -28zM246 19q76 0 117 51.5t41 145.5v76q0 94 -41 146t-117 52t-117 -52t-41 -146v-76q0 -94 41 -145.5t117 -51.5zM266 602h-40
l-100 136l20 15l100 -125l100 125l20 -15z" />
    <glyph glyph-name="uni01D3" unicode="&#x1d3;" horiz-adv-x="593" 
d="M87 698h36v-450q0 -82 16 -132t54 -73t104 -23t104 23t53.5 73t15.5 132v450h36v-445q0 -95 -20 -153.5t-66 -85t-123 -26.5q-78 0 -124 26.5t-66 85t-20 153.5v445zM316 780h-40l-100 135l20 16l100 -125l100 125l20 -16z" />
    <glyph glyph-name="uni01D4" unicode="&#x1d4;" horiz-adv-x="504" 
d="M387 0v78h-7q-13 -39 -50.5 -64.5t-92.5 -25.5q-72 0 -110 44t-38 128v348h34v-347q0 -67 31.5 -104.5t90.5 -37.5q39 0 71 15.5t51.5 45.5t19.5 71v357h34v-508h-34zM268 602h-40l-100 136l20 15l100 -125l100 125l20 -15z" />
    <glyph glyph-name="uni01D5" unicode="&#x1d5;" horiz-adv-x="593" 
d="M87 698h36v-450q0 -82 16 -132t54 -73t104 -23t104 23t53.5 73t15.5 132v450h36v-445q0 -95 -20 -153.5t-66 -85t-123 -26.5q-78 0 -124 26.5t-66 85t-20 153.5v445zM184 949v28h224v-28h-224zM212 803q-16 0 -22.5 7.5t-6.5 17.5v10q0 11 6.5 18t22.5 7t22.5 -7t6.5 -18
v-10q0 -10 -6.5 -17.5t-22.5 -7.5zM380 803q-16 0 -22.5 7.5t-6.5 17.5v10q0 11 6.5 18t22.5 7t22.5 -7t6.5 -18v-10q0 -10 -6.5 -17.5t-22.5 -7.5z" />
    <glyph glyph-name="uni01D6" unicode="&#x1d6;" horiz-adv-x="504" 
d="M387 0v78h-7q-13 -39 -50.5 -64.5t-92.5 -25.5q-72 0 -110 44t-38 128v348h34v-347q0 -67 31.5 -104.5t90.5 -37.5q39 0 71 15.5t51.5 45.5t19.5 71v357h34v-508h-34zM136 771v29h224v-29h-224zM164 625q-16 0 -22.5 7.5t-6.5 18.5v10q0 10 6.5 17.5t22.5 7.5t22.5 -7.5
t6.5 -17.5v-10q0 -11 -6.5 -18.5t-22.5 -7.5zM332 625q-16 0 -22.5 7.5t-6.5 18.5v10q0 10 6.5 17.5t22.5 7.5t22.5 -7.5t6.5 -17.5v-10q0 -11 -6.5 -18.5t-22.5 -7.5z" />
    <glyph glyph-name="uni01D7" unicode="&#x1d7;" horiz-adv-x="593" 
d="M87 698h36v-450q0 -82 16 -132t54 -73t104 -23t104 23t53.5 73t15.5 132v450h36v-445q0 -95 -20 -153.5t-66 -85t-123 -26.5q-78 0 -124 26.5t-66 85t-20 153.5v445zM407 1028l-102 -153l-23 13l94 158zM212 803q-16 0 -22.5 7.5t-6.5 17.5v10q0 11 6.5 18t22.5 7
t22.5 -7t6.5 -18v-10q0 -10 -6.5 -17.5t-22.5 -7.5zM380 803q-16 0 -22.5 7.5t-6.5 17.5v10q0 11 6.5 18t22.5 7t22.5 -7t6.5 -18v-10q0 -10 -6.5 -17.5t-22.5 -7.5z" />
    <glyph glyph-name="uni01D8" unicode="&#x1d8;" horiz-adv-x="504" 
d="M387 0v78h-7q-13 -39 -50.5 -64.5t-92.5 -25.5q-72 0 -110 44t-38 128v348h34v-347q0 -67 31.5 -104.5t90.5 -37.5q39 0 71 15.5t51.5 45.5t19.5 71v357h34v-508h-34zM359 851l-102 -154l-23 14l94 157zM164 625q-16 0 -22.5 7.5t-6.5 18.5v10q0 10 6.5 17.5t22.5 7.5
t22.5 -7.5t6.5 -17.5v-10q0 -11 -6.5 -18.5t-22.5 -7.5zM332 625q-16 0 -22.5 7.5t-6.5 18.5v10q0 10 6.5 17.5t22.5 7.5t22.5 -7.5t6.5 -17.5v-10q0 -11 -6.5 -18.5t-22.5 -7.5z" />
    <glyph glyph-name="uni01D9" unicode="&#x1d9;" horiz-adv-x="593" 
d="M87 698h36v-450q0 -82 16 -132t54 -73t104 -23t104 23t53.5 73t15.5 132v450h36v-445q0 -95 -20 -153.5t-66 -85t-123 -26.5q-78 0 -124 26.5t-66 85t-20 153.5v445zM316 886h-40l-112 134l20 15l112 -122l112 122l20 -15zM212 803q-16 0 -22.5 7.5t-6.5 17.5v10
q0 11 6.5 18t22.5 7t22.5 -7t6.5 -18v-10q0 -10 -6.5 -17.5t-22.5 -7.5zM380 803q-16 0 -22.5 7.5t-6.5 17.5v10q0 11 6.5 18t22.5 7t22.5 -7t6.5 -18v-10q0 -10 -6.5 -17.5t-22.5 -7.5z" />
    <glyph glyph-name="uni01DA" unicode="&#x1da;" horiz-adv-x="504" 
d="M387 0v78h-7q-13 -39 -50.5 -64.5t-92.5 -25.5q-72 0 -110 44t-38 128v348h34v-347q0 -67 31.5 -104.5t90.5 -37.5q39 0 71 15.5t51.5 45.5t19.5 71v357h34v-508h-34zM268 709h-40l-112 133l20 16l112 -123l112 123l20 -16zM164 625q-16 0 -22.5 7.5t-6.5 18.5v10
q0 10 6.5 17.5t22.5 7.5t22.5 -7.5t6.5 -17.5v-10q0 -11 -6.5 -18.5t-22.5 -7.5zM332 625q-16 0 -22.5 7.5t-6.5 18.5v10q0 10 6.5 17.5t22.5 7.5t22.5 -7.5t6.5 -17.5v-10q0 -11 -6.5 -18.5t-22.5 -7.5z" />
    <glyph glyph-name="uni01DB" unicode="&#x1db;" horiz-adv-x="593" 
d="M87 698h36v-450q0 -82 16 -132t54 -73t104 -23t104 23t53.5 73t15.5 132v450h36v-445q0 -95 -20 -153.5t-66 -85t-123 -26.5q-78 0 -124 26.5t-66 85t-20 153.5v445zM287 875l-101 153l31 18l93 -158zM212 803q-16 0 -22.5 7.5t-6.5 17.5v10q0 11 6.5 18t22.5 7t22.5 -7
t6.5 -18v-10q0 -10 -6.5 -17.5t-22.5 -7.5zM380 803q-16 0 -22.5 7.5t-6.5 17.5v10q0 11 6.5 18t22.5 7t22.5 -7t6.5 -18v-10q0 -10 -6.5 -17.5t-22.5 -7.5z" />
    <glyph glyph-name="uni01DC" unicode="&#x1dc;" horiz-adv-x="504" 
d="M387 0v78h-7q-13 -39 -50.5 -64.5t-92.5 -25.5q-72 0 -110 44t-38 128v348h34v-347q0 -67 31.5 -104.5t90.5 -37.5q39 0 71 15.5t51.5 45.5t19.5 71v357h34v-508h-34zM239 697l-101 154l31 17l93 -157zM164 625q-16 0 -22.5 7.5t-6.5 18.5v10q0 10 6.5 17.5t22.5 7.5
t22.5 -7.5t6.5 -17.5v-10q0 -11 -6.5 -18.5t-22.5 -7.5zM332 625q-16 0 -22.5 7.5t-6.5 18.5v10q0 10 6.5 17.5t22.5 7.5t22.5 -7.5t6.5 -17.5v-10q0 -11 -6.5 -18.5t-22.5 -7.5z" />
    <glyph glyph-name="Aringacute" unicode="&#x1fa;" horiz-adv-x="551" 
d="M525 0h-38l-72 228h-279l-73 -228h-37l224 698h51zM405 258l-85 272l-42 136h-6l-42 -136l-85 -272h260zM362 1080l-84 -100l-20 14l78 105zM276 761q-42 0 -67 27.5t-25 69.5q0 43 25 70t67 27t67 -27t25 -70q0 -42 -25 -69.5t-67 -27.5zM276 786q30 0 46.5 17t16.5 47
v16q0 29 -16.5 46.5t-46.5 17.5t-46.5 -17.5t-16.5 -46.5v-16q0 -30 16.5 -47t46.5 -17z" />
    <glyph glyph-name="aringacute" unicode="&#x1fb;" horiz-adv-x="472" 
d="M451 0h-69q-12 0 -20 3.5t-11.5 11.5t-3.5 20v54l10 -10h-17q-14 -41 -50 -66t-91 -25q-71 0 -110 36t-39 109q0 48 19.5 80.5t57 49t90.5 16.5h130v78q0 72 -31.5 102.5t-93.5 30.5q-49 0 -81 -20.5t-50 -69.5l-24 16q18 49 56 76.5t100 27.5q78 0 118 -39t40 -120v-331
h70v-30zM347 251h-130q-59 0 -94.5 -25.5t-35.5 -72.5v-37q0 -46 33 -72t83 -26q41 0 73 15.5t51.5 45t19.5 71.5v101zM311 902l-84 -99l-20 13l78 106zM225 584q-42 0 -67 27t-25 69q0 43 25 70t67 27t67 -27t25 -70q0 -42 -25 -69t-67 -27zM225 608q30 0 46.5 17.5
t16.5 46.5v16q0 30 -16.5 47t-46.5 17t-46.5 -17t-16.5 -47v-16q0 -29 16.5 -46.5t46.5 -17.5z" />
    <glyph glyph-name="AEacute" unicode="&#x1fc;" horiz-adv-x="787" 
d="M370 0v228h-220l-110 -228h-38l339 698h383v-32h-318v-296h305v-32h-305v-306h318v-32h-354zM370 666h-9l-197 -408h206v408zM631 918l-102 -154l-23 14l94 157z" />
    <glyph glyph-name="aeacute" unicode="&#x1fd;" horiz-adv-x="784" 
d="M353 252h-136q-59 0 -94.5 -26t-35.5 -73v-37q0 -46 33 -72t83 -26q44 0 78 23t53 65t19 99v47zM388 279h308v13q0 63 -16.5 107.5t-49.5 68t-84 23.5q-50 0 -85.5 -23.5t-54 -68t-18.5 -107.5v-13zM546 18q63 0 99 29t55 86l26 -15q-20 -63 -63.5 -96.5t-116.5 -33.5
q-45 0 -79 16.5t-58 48.5t-35 80h-7q-11 -48 -35.5 -80t-58 -48.5t-74.5 -16.5q-71 0 -110 36t-39 109q0 49 19.5 81t57 48.5t90.5 16.5h136v22q0 86 -34 137.5t-101 51.5q-48 0 -78.5 -20.5t-48.5 -69.5l-24 16q18 49 54 76.5t96 27.5q42 0 72 -16.5t50 -48.5t29 -79h7
q11 48 36 80t59.5 48t75.5 16q61 0 102.5 -28t63 -85t21.5 -143v-12h-345v-36q0 -94 41 -146t117 -52zM481 740l-102 -153l-23 13l94 158z" />
    <glyph glyph-name="Oslashacute" unicode="&#x1fe;" horiz-adv-x="619" 
d="M310 -12q-51 0 -93.5 15t-74.5 49l-55 -87l-25 17l59 94q-29 44 -45 110.5t-16 162.5q0 135 30.5 214t86.5 113t133 34q51 0 94 -14.5t74 -49.5l54 87l26 -17l-59 -94q29 -44 44.5 -110.5t15.5 -162.5q0 -135 -30 -213.5t-86.5 -113t-132.5 -34.5zM310 678
q-66 0 -113 -30t-72.5 -92t-25.5 -159v-103q0 -57 10 -104.5t29 -79.5h5l169 271l147 235q-26 32 -64 47t-85 15zM310 20q66 0 113 30t72.5 92.5t25.5 158.5v103q0 57 -10 104.5t-30 79.5h-4l-165 -265l-152 -241q28 -31 66 -46.5t84 -15.5zM402 918l-102 -154l-23 14
l94 157z" />
    <glyph glyph-name="oslashacute" unicode="&#x1ff;" horiz-adv-x="492" 
d="M54 -32l-21 15l60 82q-20 33 -31 79.5t-11 109.5q0 93 23.5 152t67.5 86.5t104 27.5q42 0 76.5 -13.5t59.5 -42.5l55 77l21 -16l-59 -82q20 -32 31 -79t11 -110q0 -93 -24 -151.5t-67 -86.5t-104 -28q-43 0 -77 13.5t-59 42.5zM246 19q76 0 117 51.5t41 145.5v74
q0 26 -2.5 47t-7.5 40.5t-13 36.5h-5l-113 -158l-134 -185q21 -26 50 -39t67 -13zM246 490q-76 0 -117 -52t-41 -146v-74q0 -25 2.5 -46.5t7.5 -40t12 -37.5h5l117 163l131 181q-20 26 -49.5 39t-67.5 13zM338 740l-102 -153l-23 13l94 158z" />
    <glyph glyph-name="Scommaaccent" unicode="&#x218;" horiz-adv-x="501" 
d="M250 -12q-78 0 -127.5 32t-84.5 83l27 21q34 -48 76 -76t109 -28q81 0 123.5 38.5t42.5 119.5q0 44 -15 74.5t-45.5 51t-77.5 30.5l-61 15q-56 13 -92.5 35.5t-53.5 58t-17 87.5q0 62 24.5 102t69 59t104.5 19q73 0 117 -26t73 -72l-28 -20q-28 43 -64 64.5t-99 21.5
q-75 0 -118.5 -35t-43.5 -113q0 -43 14 -72t44.5 -46.5t78.5 -28.5l60 -15q58 -14 94.5 -37.5t53.5 -60.5t17 -91q0 -65 -23.5 -107.5t-68.5 -63t-109 -20.5zM251 -66q15 0 21.5 -7.5t6.5 -19.5v-12q0 -28 -13.5 -60.5t-33.5 -54.5h-27q22 24 33 49.5t13 42.5q-16 1 -23 8
t-7 17v10q0 12 7 19.5t23 7.5z" />
    <glyph glyph-name="scommaaccent" unicode="&#x219;" horiz-adv-x="422" 
d="M211 -12q-57 0 -97.5 22t-72.5 71l26 19q30 -45 63 -63.5t81 -18.5q59 0 92 27.5t33 82.5q0 51 -24.5 76.5t-79.5 35.5l-41 7q-44 7 -74 23.5t-45.5 44.5t-15.5 71q0 68 42.5 101t109.5 33q39 0 67.5 -9.5t49 -26t36.5 -37.5l-24 -21q-19 27 -48 45.5t-80 18.5
q-55 0 -87 -25.5t-32 -76.5t25.5 -75.5t80.5 -34.5l41 -7q67 -11 100 -43t33 -97q0 -47 -19 -78.5t-55 -48t-85 -16.5zM215 -66q15 0 21.5 -7.5t6.5 -19.5v-12q0 -28 -13.5 -60.5t-33.5 -54.5h-27q22 24 33 49.5t13 42.5q-16 1 -23 8t-7 17v10q0 12 7 19.5t23 7.5z" />
    <glyph glyph-name="uni021A" unicode="&#x21a;" horiz-adv-x="507" 
d="M490 666h-219v-666h-35v666h-220v32h474v-32zM254 -66q15 0 21.5 -7.5t6.5 -19.5v-12q0 -28 -13.5 -60.5t-33.5 -54.5h-27q22 24 33 49.5t13 42.5q-16 1 -23 8t-7 17v10q0 12 7 19.5t23 7.5z" />
    <glyph glyph-name="uni021B" unicode="&#x21b;" horiz-adv-x="289" 
d="M242 0h-93q-21 0 -30 9t-9 30v439h-83v30h59q16 0 20.5 7t4.5 23v114h33v-144h103v-30h-103v-448h98v-30zM178 -66q15 0 21.5 -7.5t6.5 -19.5v-12q0 -28 -13.5 -60.5t-33.5 -54.5h-27q22 24 33 49.5t13 42.5q-16 1 -23 8t-7 17v10q0 12 7 19.5t23 7.5z" />
    <glyph glyph-name="uni0237" unicode="&#x237;" horiz-adv-x="213" 
d="M13 -200v30h77v678h34v-664q0 -24 -10.5 -34t-33.5 -10h-67z" />
    <glyph glyph-name="uni0259" unicode="&#x259;" horiz-adv-x="484" 
d="M50 256h346v36q0 94 -41.5 146t-116.5 52q-63 0 -99 -28.5t-56 -85.5l-25 14q21 64 64 97t116 33q61 0 104 -27.5t67 -86.5t24 -152t-24 -151.5t-67 -86.5t-104 -28q-60 0 -102 28.5t-64 85.5t-22 142v12zM87 229v-13q0 -62 16.5 -106.5t50.5 -68t84 -23.5q51 0 86 23.5
t53.5 68t18.5 106.5v13h-309z" />
    <glyph glyph-name="uni02BB" unicode="&#x2bb;" 
d="M269 598q-15 0 -21.5 7t-6.5 20v12q0 28 14 60.5t33 54.5h27q-22 -24 -33 -49t-13 -44q17 0 23.5 -7t6.5 -17v-10q0 -13 -6.5 -20t-23.5 -7z" />
    <glyph glyph-name="uni02BC" unicode="&#x2bc;" 
d="M325 740l-30 -178h-25l15 178h40z" />
    <glyph glyph-name="circumflex" unicode="&#x2c6;" 
d="M250 748h40l100 -135l-20 -16l-100 125l-100 -125l-20 16z" />
    <glyph glyph-name="caron" unicode="&#x2c7;" 
d="M290 602h-40l-100 136l20 15l100 -125l100 125l20 -15z" />
    <glyph glyph-name="breve" unicode="&#x2d8;" 
d="M270 604q-22 0 -39 6t-30.5 20t-24 37t-20.5 56l23 10l11 -28q14 -40 32 -56t48 -16t48 16t32 56l11 28l23 -10q-10 -33 -20.5 -56t-24 -37t-30.5 -20t-39 -6z" />
    <glyph glyph-name="dotaccent" unicode="&#x2d9;" 
d="M270 636q-16 0 -22.5 7.5t-6.5 18.5v9q0 11 6.5 18.5t22.5 7.5t22.5 -7.5t6.5 -18.5v-9q0 -11 -6.5 -18.5t-22.5 -7.5z" />
    <glyph glyph-name="ring" unicode="&#x2da;" 
d="M270 586q-28 0 -48.5 12.5t-32 34t-11.5 50.5q0 28 11.5 50t32 34t48.5 12t48.5 -12t32 -34t11.5 -50q0 -29 -11.5 -50.5t-32 -34t-48.5 -12.5zM270 611q30 0 46.5 17t16.5 47v15q0 30 -16.5 47t-46.5 17t-46.5 -17t-16.5 -47v-15q0 -30 16.5 -47t46.5 -17z" />
    <glyph glyph-name="ogonek" unicode="&#x2db;" 
d="M213 -203q-23 0 -40 7.5t-27 22t-10 36.5q0 38 28 70t78 62v15l19 3l9 -13q-37 -25 -60 -46.5t-33.5 -41.5t-10.5 -43q0 -24 13.5 -35t35.5 -11q19 0 31.5 7.5t19.5 16.5l19 -17q-9 -13 -27.5 -23t-44.5 -10z" />
    <glyph glyph-name="tilde" unicode="&#x2dc;" 
d="M335 624q-16 0 -31.5 7t-38.5 23q-20 14 -34 19.5t-27 5.5q-16 0 -29.5 -7.5t-27.5 -24.5l-16 19q17 22 35 32t39 10q16 0 31.5 -6.5t38.5 -22.5q20 -14 34 -20t26 -6q17 0 30 8t27 24l16 -19q-16 -21 -34 -31.5t-39 -10.5z" />
    <glyph glyph-name="hungarumlaut" unicode="&#x2dd;" 
d="M302 740l-102 -153l-22 13l94 158zM446 740l-101 -153l-22 13l93 158z" />
    <glyph glyph-name="uni0300" unicode="&#x300;" horiz-adv-x="0" 
d="M10 587l-102 153l31 18l94 -158z" />
    <glyph glyph-name="uni0301" unicode="&#x301;" horiz-adv-x="0" 
d="M92 740l-102 -153l-23 13l94 158z" />
    <glyph glyph-name="uni0302" unicode="&#x302;" horiz-adv-x="0" 
d="M-20 748h40l100 -135l-20 -16l-100 125l-100 -125l-20 16z" />
    <glyph glyph-name="uni0303" unicode="&#x303;" horiz-adv-x="0" 
d="M65 624q-16 0 -31.5 7t-38.5 23q-20 14 -34 19.5t-27 5.5q-16 0 -29.5 -7.5t-27.5 -24.5l-16 19q17 22 35 32t39 10q16 0 31.5 -6.5t38.5 -22.5q20 -14 34 -20t26 -6q17 0 30 8t27 24l16 -19q-16 -21 -34 -31.5t-39 -10.5z" />
    <glyph glyph-name="uni0304" unicode="&#x304;" horiz-adv-x="0" 
d="M-116 654v28h232v-28h-232z" />
    <glyph glyph-name="uni0306" unicode="&#x306;" horiz-adv-x="0" 
d="M0 604q-22 0 -39 6t-30.5 20t-24 37t-20.5 56l23 10l11 -28q14 -40 32 -56t48 -16t48 16t32 56l11 28l23 -10q-10 -33 -20.5 -56t-24 -37t-30.5 -20t-39 -6z" />
    <glyph glyph-name="uni0307" unicode="&#x307;" horiz-adv-x="0" 
d="M0 636q-16 0 -22.5 7.5t-6.5 18.5v9q0 11 6.5 18.5t22.5 7.5t22.5 -7.5t6.5 -18.5v-9q0 -11 -6.5 -18.5t-22.5 -7.5z" />
    <glyph glyph-name="uni0308" unicode="&#x308;" horiz-adv-x="0" 
d="M-78 637q-15 0 -22 7.5t-7 17.5v10q0 10 7 17.5t22 7.5q16 0 23 -7.5t7 -17.5v-10q0 -10 -7 -17.5t-23 -7.5zM78 637q-16 0 -23 7.5t-7 17.5v10q0 10 7 17.5t23 7.5q15 0 22 -7.5t7 -17.5v-10q0 -10 -7 -17.5t-22 -7.5z" />
    <glyph glyph-name="uni0309" unicode="&#x309;" horiz-adv-x="0" 
d="M-70 715v29h119q17 0 24 -6t7 -20q0 -10 -5 -22t-20 -35l-46 -78l-22 12l65 120h-122z" />
    <glyph glyph-name="uni030A" unicode="&#x30a;" horiz-adv-x="0" 
d="M0 586q-28 0 -48.5 12.5t-32 34t-11.5 50.5q0 28 11.5 50t32 34t48.5 12t48.5 -12t32 -34t11.5 -50q0 -29 -11.5 -50.5t-32 -34t-48.5 -12.5zM0 611q30 0 46.5 17t16.5 47v15q0 30 -16.5 47t-46.5 17t-46.5 -17t-16.5 -47v-15q0 -30 16.5 -47t46.5 -17z" />
    <glyph glyph-name="uni030B" unicode="&#x30b;" horiz-adv-x="0" 
d="M32 740l-102 -153l-22 13l94 158zM176 740l-101 -153l-22 13l93 158z" />
    <glyph glyph-name="uni030C" unicode="&#x30c;" horiz-adv-x="0" 
d="M20 602h-40l-100 136l20 15l100 -125l100 125l20 -15z" />
    <glyph glyph-name="uni0312" unicode="&#x312;" horiz-adv-x="0" 
d="M-1 598q-15 0 -21.5 7t-6.5 20v12q0 28 14 60.5t33 54.5h27q-22 -24 -33 -49t-13 -44q17 0 23.5 -7t6.5 -17v-10q0 -13 -6.5 -20t-23.5 -7z" />
    <glyph glyph-name="uni0315" unicode="&#x315;" horiz-adv-x="0" 
d="M96 740l-30 -178h-25l15 178h40z" />
    <glyph glyph-name="uni031B" unicode="&#x31b;" horiz-adv-x="0" 
d="M36 618v-103q0 -20 -6 -26t-26 -6h-72v25h73v110h31z" />
    <glyph glyph-name="uni0323" unicode="&#x323;" horiz-adv-x="0" 
d="M0 -142q-16 0 -22.5 7.5t-6.5 18.5v10q0 10 6.5 17.5t22.5 7.5t22.5 -7.5t6.5 -17.5v-10q0 -11 -6.5 -18.5t-22.5 -7.5z" />
    <glyph glyph-name="uni0326" unicode="&#x326;" horiz-adv-x="0" 
d="M1 -66q15 0 21.5 -7.5t6.5 -19.5v-12q0 -28 -13.5 -60.5t-33.5 -54.5h-27q22 24 33 49.5t13 42.5q-16 1 -23 8t-7 17v10q0 12 7 19.5t23 7.5z" />
    <glyph glyph-name="uni0327" unicode="&#x327;" horiz-adv-x="0" 
d="M9 -203q-28 0 -48.5 10.5t-28.5 23.5l17 18q10 -12 24.5 -19t35.5 -7q25 0 38.5 12t13.5 33q0 22 -13.5 34t-38.5 12h-40l20 90h24l-17 -80h5q5 4 11.5 6t15.5 2q28 0 45.5 -16t17.5 -48q0 -22 -10 -38t-28 -24.5t-44 -8.5z" />
    <glyph glyph-name="uni0328" unicode="&#x328;" horiz-adv-x="0" 
d="M-57 -203q-23 0 -40 7.5t-27 22t-10 36.5q0 38 28 70t78 62v15l19 3l9 -13q-37 -25 -60 -46.5t-33.5 -41.5t-10.5 -43q0 -24 13.5 -35t35.5 -11q19 0 31.5 7.5t19.5 16.5l19 -17q-9 -13 -27.5 -23t-44.5 -10z" />
    <glyph glyph-name="uni037E" unicode="&#x37e;" horiz-adv-x="240" 
d="M120 64q16 0 24.5 -7.5t8.5 -22.5v-10q0 -45 -21.5 -91t-52.5 -76h-29q30 34 46 69.5t19 67.5q-15 1 -22 8.5t-7 21.5v10q0 15 8.5 22.5t25.5 7.5zM120 430q-17 0 -25.5 8t-8.5 23v10q0 15 8.5 22.5t25.5 7.5q16 0 24.5 -7.5t8.5 -22.5v-10q0 -15 -8.5 -23t-24.5 -8z" />
    <glyph glyph-name="tonos" unicode="&#x384;" 
d="M342 748l-61 -161l-25 6l53 165z" />
    <glyph glyph-name="dieresistonos" unicode="&#x385;" horiz-adv-x="541" 
d="M354 637q-15 0 -21.5 7.5t-6.5 17.5v10q0 10 6.5 17.5t21.5 7.5q14 0 21 -7.5t7 -17.5v-10q0 -10 -7 -17.5t-21 -7.5zM189 637q-15 0 -21.5 7.5t-6.5 17.5v10q0 10 6.5 17.5t21.5 7.5t21.5 -7.5t6.5 -17.5v-10q0 -10 -6.5 -17.5t-21.5 -7.5zM317 748l-61 -161l-24 6
l52 165z" />
    <glyph glyph-name="Alphatonos" unicode="&#x386;" horiz-adv-x="551" 
d="M525 0h-38l-72 228h-279l-73 -228h-37l224 698h51zM405 258l-85 272l-42 136h-6l-42 -136l-85 -272h260zM145 748l-61 -161l-25 6l53 165z" />
    <glyph glyph-name="anoteleia" unicode="&#x387;" horiz-adv-x="227" 
d="M114 430q-17 0 -25.5 8t-8.5 23v10q0 15 8.5 22.5t25.5 7.5q16 0 24.5 -7.5t8.5 -22.5v-10q0 -15 -8.5 -23t-24.5 -8z" />
    <glyph glyph-name="Epsilontonos" unicode="&#x388;" horiz-adv-x="535" 
d="M473 0h-354v698h354v-32h-319v-296h306v-32h-306v-306h319v-32zM66 748l-61 -161l-25 6l53 165z" />
    <glyph glyph-name="Etatonos" unicode="&#x389;" horiz-adv-x="652" 
d="M523 0v338h-369v-338h-35v698h35v-328h369v328h35v-698h-35zM66 748l-61 -161l-25 6l53 165z" />
    <glyph glyph-name="Iotatonos" unicode="&#x38a;" horiz-adv-x="396" 
d="M337 0h-224v30h94v638h-94v30h224v-30h-94v-638h94v-30zM66 748l-61 -161l-25 6l53 165z" />
    <glyph glyph-name="Omicrontonos" unicode="&#x38c;" horiz-adv-x="615" 
d="M305 -12q-77 0 -133 34.5t-86.5 113t-30.5 213.5t30.5 214t86.5 113t133 34q76 0 132.5 -34t86.5 -113t30 -214t-30 -213.5t-86.5 -113t-132.5 -34.5zM305 20q66 0 113 30t72.5 92.5t25.5 158.5v96q0 97 -25.5 159t-72.5 92t-113 30t-113 -30t-72.5 -92t-25.5 -159v-96
q0 -96 25.5 -158.5t72.5 -92.5t113 -30zM66 748l-61 -161l-25 6l53 165z" />
    <glyph glyph-name="Upsilontonos" unicode="&#x38e;" horiz-adv-x="585" 
d="M352 0h-36v290l-216 408h40l191 -364h7l190 364h40l-216 -408v-290zM66 748l-61 -161l-25 6l53 165z" />
    <glyph glyph-name="Omegatonos" unicode="&#x38f;" horiz-adv-x="625" 
d="M66 748l-61 -161l-25 6l53 165zM55 0v31h159v15q-32 14 -61.5 37.5t-52.5 63.5t-36 97t-13 136q0 80 16.5 141.5t48 103t78.5 63.5t109 22q61 0 108 -22t79 -63.5t48 -103t16 -141.5q0 -79 -13 -136t-35.5 -97t-52 -63.5t-61.5 -37.5v-15h159v-31h-187v60q32 13 60 35
t49 54t32 77.5t11 106.5v93q0 82 -27.5 138.5t-75.5 85t-110 28.5q-61 0 -109.5 -28.5t-76.5 -85t-28 -138.5v-93q0 -61 11.5 -106.5t32 -77.5t48.5 -54t61 -35v-60h-187z" />
    <glyph glyph-name="iotadieresistonos" unicode="&#x390;" horiz-adv-x="248" 
d="M223 30v-30h-94q-21 0 -30 9t-9 30v469h34v-478h99zM202 637q-15 0 -21.5 7.5t-6.5 17.5v10q0 10 6.5 17.5t21.5 7.5q14 0 21 -7.5t7 -17.5v-10q0 -10 -7 -17.5t-21 -7.5zM37 637q-15 0 -21.5 7.5t-6.5 17.5v10q0 10 6.5 17.5t21.5 7.5t21.5 -7.5t6.5 -17.5v-10
q0 -10 -6.5 -17.5t-21.5 -7.5zM165 748l-61 -161l-24 6l52 165z" />
    <glyph glyph-name="Alpha" unicode="&#x391;" horiz-adv-x="551" 
d="M525 0h-38l-72 228h-279l-73 -228h-37l224 698h51zM405 258l-85 272l-42 136h-6l-42 -136l-85 -272h260z" />
    <glyph glyph-name="Beta" unicode="&#x392;" horiz-adv-x="563" 
d="M94 0v698h238q69 0 107.5 -40.5t38.5 -131.5q0 -50 -12.5 -82t-34 -48.5t-48.5 -22.5v-7q26 -3 48.5 -15t38.5 -33.5t25.5 -52.5t9.5 -73q0 -62 -18 -105.5t-52.5 -65t-84.5 -21.5h-256zM129 350v-318h216q42 0 68.5 17.5t39.5 48t13 69.5v49q0 39 -13 69t-40.5 47.5
t-70.5 17.5h-213zM129 666v-284h199q38 0 63 15t37 41.5t12 61.5v49q0 35 -12 61t-36 41t-62 15h-201z" />
    <glyph glyph-name="Gamma" unicode="&#x393;" horiz-adv-x="457" 
d="M94 0v698h327v-32h-292v-666h-35z" />
    <glyph glyph-name="uni0394" unicode="&#x394;" horiz-adv-x="550" 
d="M37 0v31l215 667h46l215 -667v-31h-476zM476 32l-135 427l-64 207h-5l-63 -207l-135 -427h402z" />
    <glyph glyph-name="Epsilon" unicode="&#x395;" horiz-adv-x="511" 
d="M448 0h-354v698h354v-32h-319v-296h306v-32h-306v-306h319v-32z" />
    <glyph glyph-name="Zeta" unicode="&#x396;" horiz-adv-x="506" 
d="M479 32v-32h-444v34l387 632h-368v32h407v-34l-388 -632h406z" />
    <glyph glyph-name="Eta" unicode="&#x397;" horiz-adv-x="627" 
d="M498 0v338h-369v-338h-35v698h35v-328h369v328h35v-698h-35z" />
    <glyph glyph-name="Theta" unicode="&#x398;" horiz-adv-x="620" 
d="M310 -12q-77 0 -133 34.5t-86.5 113t-30.5 213.5t30.5 214t86.5 113t133 34q76 0 132.5 -34t86.5 -113t30 -214t-30 -213.5t-86.5 -113t-132.5 -34.5zM310 20q66 0 113 30t72.5 92.5t25.5 158.5v96q0 97 -25.5 159t-72.5 92t-113 30t-113 -30t-72.5 -92t-25.5 -159v-96
q0 -96 25.5 -158.5t72.5 -92.5t113 -30zM452 338h-284v32h284v-32z" />
    <glyph glyph-name="Iota" unicode="&#x399;" horiz-adv-x="342" 
d="M283 0h-224v30h94v638h-94v30h224v-30h-94v-638h94v-30z" />
    <glyph glyph-name="Kappa" unicode="&#x39a;" horiz-adv-x="530" 
d="M469 0l-227 378l-113 -142v-236h-35v698h35v-254l-1 -160h5l124 160l206 254h42l-240 -295l246 -403h-42z" />
    <glyph glyph-name="Lambda" unicode="&#x39b;" horiz-adv-x="537" 
d="M243 698h51l218 -698h-38l-119 390l-84 276h-5l-84 -276l-119 -390h-37z" />
    <glyph glyph-name="Mu" unicode="&#x39c;" horiz-adv-x="721" 
d="M93 0v698h54l136 -263l76 -152h3l76 152l136 263h53v-698h-35v501l2 158h-6l-81 -158l-147 -280l-146 280l-82 157h-5l2 -157v-501h-36z" />
    <glyph glyph-name="Nu" unicode="&#x39d;" horiz-adv-x="626" 
d="M481 0l-264 495l-84 164h-6l2 -164v-495h-35v698h52l264 -495l85 -164h5l-2 164v495h36v-698h-53z" />
    <glyph glyph-name="Xi" unicode="&#x39e;" horiz-adv-x="508" 
d="M63 666v32h382v-32h-382zM88 338v32h332v-32h-332zM63 0v32h382v-32h-382z" />
    <glyph glyph-name="Omicron" unicode="&#x39f;" horiz-adv-x="620" 
d="M310 -12q-77 0 -133 34.5t-86.5 113t-30.5 213.5t30.5 214t86.5 113t133 34q76 0 132.5 -34t86.5 -113t30 -214t-30 -213.5t-86.5 -113t-132.5 -34.5zM310 20q66 0 113 30t72.5 92.5t25.5 158.5v96q0 97 -25.5 159t-72.5 92t-113 30t-113 -30t-72.5 -92t-25.5 -159v-96
q0 -96 25.5 -158.5t72.5 -92.5t113 -30z" />
    <glyph glyph-name="Pi" unicode="&#x3a0;" horiz-adv-x="615" 
d="M94 0v698h427v-698h-35v666h-357v-666h-35z" />
    <glyph glyph-name="Rho" unicode="&#x3a1;" horiz-adv-x="538" 
d="M129 0h-35v698h249q52 0 87.5 -21.5t52.5 -64t17 -105.5q0 -62 -17 -104.5t-52.5 -64t-87.5 -21.5h-214v-317zM129 666v-317h214q40 0 66.5 16.5t39 46t12.5 65.5v60q0 38 -12.5 67t-39 45.5t-66.5 16.5h-214z" />
    <glyph glyph-name="Sigma" unicode="&#x3a3;" horiz-adv-x="515" 
d="M456 0h-413v34l241 320l-236 310v34h408v-32h-367l237 -312l-243 -322h373v-32z" />
    <glyph glyph-name="Tau" unicode="&#x3a4;" horiz-adv-x="507" 
d="M490 666h-219v-666h-35v666h-220v32h474v-32z" />
    <glyph glyph-name="Upsilon" unicode="&#x3a5;" horiz-adv-x="503" 
d="M269 0h-36v290l-216 408h40l191 -364h7l190 364h40l-216 -408v-290z" />
    <glyph glyph-name="Phi" unicode="&#x3a6;" horiz-adv-x="751" 
d="M357 -29v65h-27q-90 0 -150.5 38t-92 109.5t-31.5 170.5t31.5 170.5t92 109.5t150.5 38h27v53h36v-53h27q90 0 151 -38t92 -109.5t31 -170.5t-31 -170.5t-92 -109.5t-151 -38h-27v-65h-36zM358 67v574h-28q-79 0 -131 -33.5t-78 -90t-26 -124.5v-78q0 -68 26 -124.5
t78 -90t131 -33.5h28zM393 67h27q80 0 132 33.5t78 90t26 124.5v78q0 68 -26 124.5t-78 90t-132 33.5h-27v-574z" />
    <glyph glyph-name="Chi" unicode="&#x3a7;" horiz-adv-x="516" 
d="M24 0l212 354l-204 344h42l181 -308h7l182 308h40l-204 -341l212 -357h-42l-188 322h-7l-190 -322h-41z" />
    <glyph glyph-name="Psi" unicode="&#x3a8;" horiz-adv-x="685" 
d="M325 0v207q-80 0 -137 25t-88 81t-31 149v236h35v-237q0 -82 26.5 -131t75.5 -70.5t119 -21.5v460h35v-460q70 0 119.5 21.5t75.5 70.5t26 131v237h35v-236q0 -93 -30.5 -149t-88 -81t-137.5 -25v-207h-35z" />
    <glyph glyph-name="uni03A9" unicode="&#x3a9;" horiz-adv-x="646" 
d="M75 0v31h159v15q-32 14 -61.5 37.5t-52.5 63.5t-36 97t-13 136q0 80 16.5 141.5t48 103t78.5 63.5t109 22q61 0 108 -22t79 -63.5t48 -103t16 -141.5q0 -79 -13 -136t-35.5 -97t-52 -63.5t-61.5 -37.5v-15h159v-31h-187v60q32 13 60 35t49 54t32 77.5t11 106.5v93
q0 82 -27.5 138.5t-75.5 85t-110 28.5q-61 0 -109.5 -28.5t-76.5 -85t-28 -138.5v-93q0 -61 11.5 -106.5t32 -77.5t48.5 -54t61 -35v-60h-187z" />
    <glyph glyph-name="Iotadieresis" unicode="&#x3aa;" horiz-adv-x="342" 
d="M283 0h-224v30h94v638h-94v30h224v-30h-94v-638h94v-30zM92 813q-15 0 -22 7.5t-7 17.5v10q0 10 7 17.5t22 7.5q16 0 23 -7.5t7 -17.5v-10q0 -10 -7 -17.5t-23 -7.5zM248 813q-16 0 -23 7.5t-7 17.5v10q0 10 7 17.5t23 7.5q15 0 22 -7.5t7 -17.5v-10q0 -10 -7 -17.5
t-22 -7.5z" />
    <glyph glyph-name="Upsilondieresis" unicode="&#x3ab;" horiz-adv-x="503" 
d="M269 0h-36v290l-216 408h40l191 -364h7l190 364h40l-216 -408v-290zM173 813q-15 0 -22 7.5t-7 17.5v10q0 10 7 17.5t22 7.5q16 0 23 -7.5t7 -17.5v-10q0 -10 -7 -17.5t-23 -7.5zM329 813q-16 0 -23 7.5t-7 17.5v10q0 10 7 17.5t23 7.5q15 0 22 -7.5t7 -17.5v-10
q0 -10 -7 -17.5t-22 -7.5z" />
    <glyph glyph-name="alphatonos" unicode="&#x3ac;" horiz-adv-x="574" 
d="M538 30v-30h-51q-19 0 -29 9t-15 35l-30 173h-5q-20 -91 -45.5 -140.5t-58.5 -69t-79 -19.5q-51 0 -90 28t-61 86.5t-22 151.5t22 151.5t61 86.5t90 28q50 0 86 -21t59.5 -70.5t37.5 -136.5h5l20 76l43 140h36l-84 -250l54 -228h56zM226 19q37 0 62.5 14.5t44.5 49
t37 96.5l23 75l-23 87q-14 56 -33.5 88.5t-46.5 46.5t-64 14q-61 0 -99 -52t-38 -146v-76q0 -93 38 -145t99 -52zM299 748l-61 -161l-25 6l53 165z" />
    <glyph glyph-name="epsilontonos" unicode="&#x3ad;" horiz-adv-x="471" 
d="M405 104l24 -18q-23 -46 -67 -72t-121 -26q-88 0 -130.5 37t-42.5 106q0 56 29.5 88.5t78.5 39.5v7q-43 10 -67.5 38.5t-24.5 79.5q0 67 43 101.5t124 34.5q46 0 77.5 -10t54 -27.5t37.5 -41.5l-24 -21q-14 22 -32.5 37.5t-45.5 24t-66 8.5q-67 0 -99 -25.5t-32 -68.5
v-24q0 -39 30 -67t79 -28h109v-30h-110q-57 0 -90.5 -27t-33.5 -72v-32q0 -46 36.5 -71.5t101.5 -25.5q64 0 102 21.5t60 63.5zM316 748l-61 -161l-25 6l53 165z" />
    <glyph glyph-name="etatonos" unicode="&#x3ae;" horiz-adv-x="512" 
d="M132 0h-34v478h-71v30h66q21 0 30 -9t9 -30v-47l-10 8h17q13 41 50.5 65.5t92.5 24.5q70 0 109 -44t39 -128v-548h-34v547q0 67 -31 105t-91 38q-38 0 -70.5 -16t-52 -45.5t-19.5 -71.5v-357zM319 748l-61 -161l-25 6l53 165z" />
    <glyph glyph-name="iotatonos" unicode="&#x3af;" horiz-adv-x="248" 
d="M223 30v-30h-94q-21 0 -30 9t-9 30v469h34v-478h99zM182 748l-61 -161l-25 6l53 165z" />
    <glyph glyph-name="upsilondieresistonos" unicode="&#x3b0;" horiz-adv-x="498" 
d="M116 508v-309q0 -69 15 -108.5t44.5 -55.5t73.5 -16t73.5 16t44.5 55.5t15 108.5v309h34v-296q0 -84 -18.5 -133t-55.5 -70t-93 -21q-57 0 -93.5 21t-55 70t-18.5 133v296h34zM337 637q-15 0 -21.5 7.5t-6.5 17.5v10q0 10 6.5 17.5t21.5 7.5q14 0 21 -7.5t7 -17.5v-10
q0 -10 -7 -17.5t-21 -7.5zM172 637q-15 0 -21.5 7.5t-6.5 17.5v10q0 10 6.5 17.5t21.5 7.5t21.5 -7.5t6.5 -17.5v-10q0 -10 -6.5 -17.5t-21.5 -7.5zM300 748l-61 -161l-24 6l52 165z" />
    <glyph glyph-name="alpha" unicode="&#x3b1;" horiz-adv-x="574" 
d="M538 30v-30h-51q-19 0 -29 9t-15 35l-30 173h-5q-20 -91 -45.5 -140.5t-58.5 -69t-79 -19.5q-51 0 -90 28t-61 86.5t-22 151.5t22 151.5t61 86.5t90 28q50 0 86 -21t59.5 -70.5t37.5 -136.5h5l20 76l43 140h36l-84 -250l54 -228h56zM226 19q37 0 62.5 14.5t44.5 49
t37 96.5l23 75l-23 87q-14 56 -33.5 88.5t-46.5 46.5t-64 14q-61 0 -99 -52t-38 -146v-76q0 -93 38 -145t99 -52z" />
    <glyph glyph-name="beta" unicode="&#x3b2;" horiz-adv-x="517" 
d="M90 -200v732q0 109 42.5 164.5t129.5 55.5q50 0 87 -20t58 -59.5t20 -98.5q0 -49 -14.5 -83t-38.5 -54t-56 -27v-7q44 -7 76 -30t49.5 -64t17.5 -105q0 -66 -22 -114.5t-63.5 -75t-99.5 -26.5q-55 0 -92.5 23.5t-52.5 62.5h-7v-274h-34zM198 390v30h71q38 0 65.5 17.5
t42 47t14.5 67.5v39q0 40 -15.5 69.5t-44.5 45t-70 15.5q-70 0 -103.5 -44.5t-33.5 -136.5v-397q0 -40 19 -67.5t52.5 -42t76.5 -14.5q49 0 83 22t51.5 57.5t17.5 76.5v59q0 70 -41 113t-112 43h-73z" />
    <glyph glyph-name="gamma" unicode="&#x3b3;" horiz-adv-x="431" 
d="M205 -200v200l-152 478h-48v30h43q18 0 26.5 -5.5t12.5 -20.5l103 -329l30 -106h5l33 106l119 355h34l-172 -508v-200h-34z" />
    <glyph glyph-name="delta" unicode="&#x3b4;" horiz-adv-x="492" 
d="M307 493q-73 -1 -122 -31.5t-73 -79t-24 -105.5v-68q0 -58 18.5 -101t54 -66t85.5 -23t85.5 23t54 65t18.5 97v52q0 37 -6.5 69.5t-22.5 65.5t-46 71t-78 86l-153 155v37h310v-30h-224l-53 7v-6l141 -141q51 -51 84 -91.5t51.5 -77t26 -75t7.5 -85.5q0 -85 -24 -141.5
t-67.5 -84t-103.5 -27.5t-104 28t-67.5 84.5t-23.5 144.5q0 83 28.5 141.5t80.5 90t120 31.5v13z" />
    <glyph glyph-name="epsilon" unicode="&#x3b5;" horiz-adv-x="471" 
d="M405 104l24 -18q-23 -46 -67 -72t-121 -26q-88 0 -130.5 37t-42.5 106q0 56 29.5 88.5t78.5 39.5v7q-43 10 -67.5 38.5t-24.5 79.5q0 67 43 101.5t124 34.5q46 0 77.5 -10t54 -27.5t37.5 -41.5l-24 -21q-14 22 -32.5 37.5t-45.5 24t-66 8.5q-67 0 -99 -25.5t-32 -68.5
v-24q0 -39 30 -67t79 -28h109v-30h-110q-57 0 -90.5 -27t-33.5 -72v-32q0 -46 36.5 -71.5t101.5 -25.5q64 0 102 21.5t60 63.5z" />
    <glyph glyph-name="zeta" unicode="&#x3b6;" horiz-adv-x="385" 
d="M63 710v30h304v-30l-190 -260q-52 -71 -71.5 -119.5t-19.5 -89.5v-31q0 -43 15.5 -74.5t52 -55.5t98.5 -42l63 -18q16 -5 23.5 -12.5t7.5 -20.5q0 -4 -0.5 -9.5t-2.5 -13.5l-30 -124l-32 9l33 138l-68 20q-72 21 -115 49.5t-62.5 69.5t-19.5 99q0 34 8 67t30 74.5
t63 97.5l181 247v6l-52 -7h-216z" />
    <glyph glyph-name="eta" unicode="&#x3b7;" horiz-adv-x="512" 
d="M132 0h-34v478h-71v30h66q21 0 30 -9t9 -30v-47l-10 8h17q13 41 50.5 65.5t92.5 24.5q70 0 109 -44t39 -128v-548h-34v547q0 67 -31 105t-91 38q-38 0 -70.5 -16t-52 -45.5t-19.5 -71.5v-357z" />
    <glyph glyph-name="theta" unicode="&#x3b8;" horiz-adv-x="500" 
d="M97 423v-37h305v37q0 113 -17.5 178t-51 93t-83.5 28q-49 0 -83 -28t-52 -93t-18 -178zM250 752q45 0 80 -17.5t59.5 -60t37 -116.5t12.5 -188t-12.5 -188t-37 -116.5t-59.5 -60t-80 -17.5t-80 17.5t-59.5 60t-37.5 117t-13 187.5q0 114 13 188t37.5 116.5t59.5 60
t80 17.5zM250 18q50 0 83.5 28t51 93.5t17.5 177.5v38h-305v-38q0 -112 18 -177.5t52 -93.5t83 -28z" />
    <glyph glyph-name="iota" unicode="&#x3b9;" horiz-adv-x="248" 
d="M223 30v-30h-94q-21 0 -30 9t-9 30v469h34v-478h99z" />
    <glyph glyph-name="kappa" unicode="&#x3ba;" horiz-adv-x="451" 
d="M396 0l-200 270l-72 -84v-186h-34v508h34v-277h5l61 71l166 192q7 8 14 11t17 3h43v-30h-49l-161 -186l217 -292h-41z" />
    <glyph glyph-name="lambda" unicode="&#x3bb;" horiz-adv-x="430" 
d="M189 511l-61 199h-68v30h62q17 0 25.5 -5.5t13.5 -21.5l209 -683h51v-30h-45q-18 0 -26.5 6t-12.5 20l-80 262l-50 181h-6l-58 -181l-97 -288h-34z" />
    <glyph glyph-name="uni03BC" unicode="&#x3bc;" horiz-adv-x="520" 
d="M124 -200h-34v708h34v-347q0 -67 31.5 -104.5t90.5 -37.5q39 0 71 15.5t51.5 45.5t19.5 71v357h34v-478h70v-30h-65q-21 0 -30 9t-9 30v53l12 -14h-19q-13 -39 -49 -64.5t-89 -25.5q-46 0 -77 20.5t-47 61.5h-5l10 -119v-151z" />
    <glyph glyph-name="nu" unicode="&#x3bd;" horiz-adv-x="433" 
d="M247 0h-47l-147 478h-48v30h43q18 0 26.5 -5.5t12.5 -20.5l75 -247l59 -204h5l65 204l88 273h34z" />
    <glyph glyph-name="xi" unicode="&#x3be;" horiz-adv-x="413" 
d="M374 710h-107q-46 0 -78 -19.5t-48 -50.5t-16 -66v-29q0 -60 34.5 -94.5t91.5 -34.5h71v-30h-71q-53 0 -88 -20.5t-52.5 -53.5t-17.5 -73v-31q0 -40 15 -71.5t52.5 -55t104.5 -43.5l65 -18q16 -5 23.5 -12.5t7.5 -20.5q0 -4 -1 -9.5t-3 -13.5l-30 -124l-31 9l33 138
l-70 20q-75 22 -119.5 50t-64 69t-19.5 99q0 67 36 115.5t103 57.5v6q-53 14 -80 52.5t-27 103.5q0 53 25 92t74 51v7h-123v30h310v-30z" />
    <glyph glyph-name="omicron" unicode="&#x3bf;" horiz-adv-x="492" 
d="M246 -12q-60 0 -104 28t-67.5 86.5t-23.5 151.5t23.5 152t67.5 86.5t104 27.5q61 0 104 -27.5t67 -86.5t24 -152t-24 -151.5t-67 -86.5t-104 -28zM246 19q76 0 117 51.5t41 145.5v76q0 94 -41 146t-117 52t-117 -52t-41 -146v-76q0 -94 41 -145.5t117 -51.5z" />
    <glyph glyph-name="pi" unicode="&#x3c0;" horiz-adv-x="517" 
d="M404 478v-448h84v-30h-79q-21 0 -30 9t-9 30v439h-232v-478h-34v478h-84v30h468v-30h-84z" />
    <glyph glyph-name="rho" unicode="&#x3c1;" horiz-adv-x="487" 
d="M64 -200v467q0 85 21 141t62.5 84t102.5 28q92 0 138.5 -64.5t46.5 -200.5t-48.5 -201.5t-140.5 -65.5q-52 0 -89 23.5t-52 62.5h-7v-274h-34zM242 19q77 0 116.5 52t39.5 145v76q0 94 -37 146t-112 52q-74 0 -112.5 -54t-38.5 -160v-133q0 -40 19 -67.5t51.5 -42
t73.5 -14.5z" />
    <glyph glyph-name="sigma1" unicode="&#x3c2;" horiz-adv-x="438" 
d="M303 -151l34 138l-79 23q-68 20 -114 50.5t-69.5 80.5t-23.5 129q0 86 22.5 141.5t65.5 82t102 26.5q58 0 97.5 -26t59.5 -75l-29 -15q-19 44 -49.5 65t-78.5 21q-49 0 -83.5 -22.5t-52 -65t-17.5 -100.5v-58q0 -81 44 -129t138 -76l67 -19q17 -5 24.5 -12.5t7.5 -20.5
q0 -4 -1 -9.5t-3 -13.5l-30 -124z" />
    <glyph glyph-name="sigma" unicode="&#x3c3;" horiz-adv-x="503" 
d="M479 478h-135v-6q50 -32 73.5 -83.5t23.5 -140.5q0 -90 -24 -147.5t-67 -85t-104 -27.5q-60 0 -104 27.5t-67.5 85t-23.5 147.5q0 89 24 146.5t69 85.5t108 28h227v-30zM311 478h-59q-79 0 -121.5 -52.5t-42.5 -140.5v-74q0 -89 41 -140.5t117 -51.5t117 51.5t41 140.5
v74q0 57 -20.5 106.5t-72.5 86.5z" />
    <glyph glyph-name="tau" unicode="&#x3c4;" horiz-adv-x="434" 
d="M329 0h-99q-21 0 -30 9t-9 30v439h-163v30h372v-30h-175v-448h104v-30z" />
    <glyph glyph-name="upsilon" unicode="&#x3c5;" horiz-adv-x="498" 
d="M116 508v-309q0 -69 15 -108.5t44.5 -55.5t73.5 -16t73.5 16t44.5 55.5t15 108.5v309h34v-296q0 -84 -18.5 -133t-55.5 -70t-93 -21q-57 0 -93.5 21t-55 70t-18.5 133v296h34z" />
    <glyph glyph-name="phi" unicode="&#x3c6;" horiz-adv-x="620" 
d="M282 -200v188q-76 0 -127.5 29t-77 88t-25.5 150q0 105 29 168.5t88 96.5l19 -26q-51 -26 -75 -81.5t-24 -121.5v-69q0 -66 21.5 -111.5t64.5 -69t107 -23.5v265q0 126 34.5 181.5t105.5 55.5q49 0 80 -24.5t46.5 -79.5t15.5 -146q0 -101 -27 -163t-82 -90.5t-139 -28.5
v-188h-34zM316 297v-279q108 0 159.5 52.5t51.5 158.5v75q0 99 -24 142.5t-81 43.5q-56 0 -81 -46.5t-25 -146.5z" />
    <glyph glyph-name="chi" unicode="&#x3c7;" horiz-adv-x="421" 
d="M9 508h47q17 0 26 -5.5t14 -21.5l112 -285h5l146 312h36l-165 -343l130 -335h52v-30h-46q-17 0 -25.5 5.5t-15.5 22.5l-115 305h-5l-150 -333h-36l169 364l-126 314h-53v30z" />
    <glyph glyph-name="psi" unicode="&#x3c8;" horiz-adv-x="632" 
d="M299 -200v188q-75 0 -123 21.5t-71 71.5t-23 134v293h34v-309q0 -69 20 -108.5t60.5 -56t102.5 -16.5v692h34v-692q62 0 102.5 16.5t60.5 56t20 108.5v309h35v-293q0 -84 -23.5 -134t-71 -71.5t-123.5 -21.5v-188h-34z" />
    <glyph glyph-name="omega" unicode="&#x3c9;" horiz-adv-x="639" 
d="M336 349v-140q0 -74 13.5 -115.5t37.5 -58t55 -16.5q52 0 78 42.5t26 141.5v74q0 79 -24.5 135t-74.5 82l18 26q40 -22 66 -57.5t39 -90t13 -132.5q0 -92 -16 -147.5t-46.5 -80t-75.5 -24.5q-53 0 -84.5 34.5t-38.5 103.5h-6q-6 -69 -37 -103.5t-85 -34.5
q-45 0 -75.5 24.5t-46.5 80t-16 147.5q0 78 13 132.5t39 90t65 57.5l19 -26q-51 -26 -75 -81.5t-24 -135.5v-74q0 -99 26 -141.5t78 -42.5q32 0 55.5 16.5t36.5 58t13 115.5v140h34z" />
    <glyph glyph-name="iotadieresis" unicode="&#x3ca;" horiz-adv-x="248" 
d="M223 30v-30h-94q-21 0 -30 9t-9 30v469h34v-478h99zM36 637q-15 0 -22 7.5t-7 17.5v10q0 10 7 17.5t22 7.5q16 0 23 -7.5t7 -17.5v-10q0 -10 -7 -17.5t-23 -7.5zM192 637q-16 0 -23 7.5t-7 17.5v10q0 10 7 17.5t23 7.5q15 0 22 -7.5t7 -17.5v-10q0 -10 -7 -17.5t-22 -7.5
z" />
    <glyph glyph-name="upsilondieresis" unicode="&#x3cb;" horiz-adv-x="498" 
d="M116 508v-309q0 -69 15 -108.5t44.5 -55.5t73.5 -16t73.5 16t44.5 55.5t15 108.5v309h34v-296q0 -84 -18.5 -133t-55.5 -70t-93 -21q-57 0 -93.5 21t-55 70t-18.5 133v296h34zM171 637q-15 0 -22 7.5t-7 17.5v10q0 10 7 17.5t22 7.5q16 0 23 -7.5t7 -17.5v-10
q0 -10 -7 -17.5t-23 -7.5zM327 637q-16 0 -23 7.5t-7 17.5v10q0 10 7 17.5t23 7.5q15 0 22 -7.5t7 -17.5v-10q0 -10 -7 -17.5t-22 -7.5z" />
    <glyph glyph-name="omicrontonos" unicode="&#x3cc;" horiz-adv-x="492" 
d="M246 -12q-60 0 -104 28t-67.5 86.5t-23.5 151.5t23.5 152t67.5 86.5t104 27.5q61 0 104 -27.5t67 -86.5t24 -152t-24 -151.5t-67 -86.5t-104 -28zM246 19q76 0 117 51.5t41 145.5v76q0 94 -41 146t-117 52t-117 -52t-41 -146v-76q0 -94 41 -145.5t117 -51.5zM314 748
l-61 -161l-25 6l53 165z" />
    <glyph glyph-name="upsilontonos" unicode="&#x3cd;" horiz-adv-x="498" 
d="M116 508v-309q0 -69 15 -108.5t44.5 -55.5t73.5 -16t73.5 16t44.5 55.5t15 108.5v309h34v-296q0 -84 -18.5 -133t-55.5 -70t-93 -21q-57 0 -93.5 21t-55 70t-18.5 133v296h34zM317 748l-61 -161l-25 6l53 165z" />
    <glyph glyph-name="omegatonos" unicode="&#x3ce;" horiz-adv-x="639" 
d="M336 349v-140q0 -74 13.5 -115.5t37.5 -58t55 -16.5q52 0 78 42.5t26 141.5v74q0 79 -24.5 135t-74.5 82l18 26q40 -22 66 -57.5t39 -90t13 -132.5q0 -92 -16 -147.5t-46.5 -80t-75.5 -24.5q-53 0 -84.5 34.5t-38.5 103.5h-6q-6 -69 -37 -103.5t-85 -34.5
q-45 0 -75.5 24.5t-46.5 80t-16 147.5q0 78 13 132.5t39 90t65 57.5l19 -26q-51 -26 -75 -81.5t-24 -135.5v-74q0 -99 26 -141.5t78 -42.5q32 0 55.5 16.5t36.5 58t13 115.5v140h34zM387 748l-61 -161l-25 6l53 165z" />
    <glyph glyph-name="uni0400" unicode="&#x400;" horiz-adv-x="511" 
d="M448 0h-354v698h354v-32h-319v-296h306v-32h-306v-306h319v-32zM280 764l-102 154l31 17l94 -157z" />
    <glyph glyph-name="uni0401" unicode="&#x401;" horiz-adv-x="511" 
d="M448 0h-354v698h354v-32h-319v-296h306v-32h-306v-306h319v-32zM192 813q-15 0 -22 7.5t-7 17.5v10q0 10 7 17.5t22 7.5q16 0 23 -7.5t7 -17.5v-10q0 -10 -7 -17.5t-23 -7.5zM348 813q-16 0 -23 7.5t-7 17.5v10q0 10 7 17.5t23 7.5q15 0 22 -7.5t7 -17.5v-10
q0 -10 -7 -17.5t-22 -7.5z" />
    <glyph glyph-name="uni0402" unicode="&#x402;" horiz-adv-x="698" 
d="M461 -164v32h76q31 13 48.5 52.5t17.5 116.5v175q0 97 -45 138.5t-133 41.5q-48 0 -86.5 -7t-67.5 -21v-364h-35v666h-220v32h474v-32h-219v-269h6q29 13 66.5 20t84.5 7q108 0 159.5 -51.5t51.5 -160.5v-175q0 -74 -16 -118t-44 -63.5t-65 -19.5h-53z" />
    <glyph glyph-name="uni0403" unicode="&#x403;" horiz-adv-x="457" 
d="M94 0v698h327v-32h-292v-666h-35zM349 918l-102 -154l-23 14l94 157z" />
    <glyph glyph-name="uni0404" unicode="&#x404;" horiz-adv-x="554" 
d="M302 -12q-73 0 -127.5 34.5t-84.5 113t-30 213.5t30 214t84.5 113t127.5 34q55 0 93.5 -16.5t65.5 -48t44 -76.5l-29 -16q-22 61 -62.5 93t-111.5 32q-63 0 -108.5 -30t-70 -92t-24.5 -159v-35l-15 8h313v-32h-314l16 8v-45q0 -144 54 -212.5t149 -68.5q76 0 116.5 34
t61.5 99l29 -16q-23 -71 -72.5 -110t-134.5 -39z" />
    <glyph glyph-name="uni0405" unicode="&#x405;" horiz-adv-x="501" 
d="M250 -12q-78 0 -127.5 32t-84.5 83l27 21q34 -48 76 -76t109 -28q81 0 123.5 38.5t42.5 119.5q0 44 -15 74.5t-45.5 51t-77.5 30.5l-61 15q-56 13 -92.5 35.5t-53.5 58t-17 87.5q0 62 24.5 102t69 59t104.5 19q73 0 117 -26t73 -72l-28 -20q-28 43 -64 64.5t-99 21.5
q-75 0 -118.5 -35t-43.5 -113q0 -43 14 -72t44.5 -46.5t78.5 -28.5l60 -15q58 -14 94.5 -37.5t53.5 -60.5t17 -91q0 -65 -23.5 -107.5t-68.5 -63t-109 -20.5z" />
    <glyph glyph-name="uni0406" unicode="&#x406;" horiz-adv-x="342" 
d="M283 0h-224v30h94v638h-94v30h224v-30h-94v-638h94v-30z" />
    <glyph glyph-name="uni0407" unicode="&#x407;" horiz-adv-x="342" 
d="M283 0h-224v30h94v638h-94v30h224v-30h-94v-638h94v-30zM92 813q-15 0 -22 7.5t-7 17.5v10q0 10 7 17.5t22 7.5q16 0 23 -7.5t7 -17.5v-10q0 -10 -7 -17.5t-23 -7.5zM248 813q-16 0 -23 7.5t-7 17.5v10q0 10 7 17.5t23 7.5q15 0 22 -7.5t7 -17.5v-10q0 -10 -7 -17.5
t-22 -7.5z" />
    <glyph glyph-name="uni0408" unicode="&#x408;" horiz-adv-x="429" 
d="M87 698h256v-534q0 -57 -20 -96.5t-56 -59.5t-86 -20q-68 0 -107 35t-53 95l32 8q13 -49 43.5 -77.5t84.5 -28.5q62 0 94 38t32 109v499h-220v32z" />
    <glyph glyph-name="uni0409" unicode="&#x409;" horiz-adv-x="889" 
d="M8 0v32h58q21 22 37 54.5t27.5 81.5t17.5 120t6 170v240h326v-295h196q54 0 90 -23t54.5 -67.5t18.5 -111.5q0 -65 -18.5 -110t-54.5 -68t-90 -23h-232v666h-255v-209q0 -95 -6 -167.5t-17.5 -124.5t-28.5 -87.5t-38 -56.5q-11 -11 -22.5 -16t-30.5 -5h-38zM480 32h195
q43 0 70.5 18t41 49.5t13.5 71.5v60q0 41 -13.5 72.5t-41 49.5t-70.5 18h-195v-339z" />
    <glyph glyph-name="uni040A" unicode="&#x40a;" horiz-adv-x="931" 
d="M94 0v698h35v-318h348v318h35v-311h211q53 0 88 -22t52.5 -65t17.5 -106t-17.5 -106.5t-52.5 -65.5t-88 -22h-246v349h-348v-349h-35zM512 32h210q41 0 68 17.5t40 47t13 67.5v60q0 37 -13 67t-40 47.5t-68 17.5h-210v-324z" />
    <glyph glyph-name="uni040B" unicode="&#x40b;" horiz-adv-x="707" 
d="M236 0v666h-220v32h474v-32h-219v-269h6q29 13 68 20t88 7q111 0 163 -51.5t52 -160.5v-212h-36v212q0 97 -45.5 138.5t-136.5 41.5q-51 0 -90.5 -7t-68.5 -21v-364h-35z" />
    <glyph glyph-name="uni040C" unicode="&#x40c;" horiz-adv-x="566" 
d="M94 0v698h35v-329h138l158 301q8 15 17 21.5t24 6.5h48v-32h-54l-147 -280q-8 -15 -14.5 -21t-18.5 -8v-6q13 -2 21 -7.5t16 -21.5l156 -290h54v-32h-52q-13 0 -22 5.5t-17 20.5l-169 312h-138v-338h-35zM373 918l-102 -154l-23 14l94 157z" />
    <glyph glyph-name="uni040D" unicode="&#x40d;" horiz-adv-x="628" 
d="M94 0v698h34v-558l-5 -91h5l42 88l332 561h32v-698h-35v558l6 91h-5l-42 -88l-333 -561h-31zM322 764l-102 154l31 17l94 -157z" />
    <glyph glyph-name="uni040E" unicode="&#x40e;" horiz-adv-x="522" 
d="M139 0v32h84l43 119l-241 547h39l180 -414l35 -85h6l29 85l146 414h37l-239 -664q-4 -14 -10.5 -21t-15.5 -10t-23 -3h-70zM262 761q-37 0 -60.5 19.5t-40.5 65.5l-12 31l29 14l24 -69q12 -17 26.5 -25t33.5 -8q20 0 34 8t26 25l24 69l29 -14l-12 -31q-16 -46 -40 -65.5
t-61 -19.5z" />
    <glyph glyph-name="uni040F" unicode="&#x40f;" horiz-adv-x="615" 
d="M291 -150v150h-197v698h35v-666h357v666h35v-698h-196v-150h-34z" />
    <glyph glyph-name="uni0410" unicode="&#x410;" horiz-adv-x="551" 
d="M525 0h-38l-72 228h-279l-73 -228h-37l224 698h51zM405 258l-85 272l-42 136h-6l-42 -136l-85 -272h260z" />
    <glyph glyph-name="uni0411" unicode="&#x411;" horiz-adv-x="553" 
d="M94 0v698h353v-32h-318v-263h204q54 0 90.5 -23t54.5 -67.5t18 -111.5q0 -65 -18 -110t-54.5 -68t-90.5 -23h-239zM129 32h204q42 0 69.5 18t41.5 49.5t14 71.5v60q0 41 -14 72.5t-41.5 49.5t-69.5 18h-204v-339z" />
    <glyph glyph-name="uni0412" unicode="&#x412;" horiz-adv-x="563" 
d="M94 0v698h238q69 0 107.5 -40.5t38.5 -131.5q0 -50 -12.5 -82t-34 -48.5t-48.5 -22.5v-7q26 -3 48.5 -15t38.5 -33.5t25.5 -52.5t9.5 -73q0 -62 -18 -105.5t-52.5 -65t-84.5 -21.5h-256zM129 350v-318h216q42 0 68.5 17.5t39.5 48t13 69.5v49q0 39 -13 69t-40.5 47.5
t-70.5 17.5h-213zM129 666v-284h199q38 0 63 15t37 41.5t12 61.5v49q0 35 -12 61t-36 41t-62 15h-201z" />
    <glyph glyph-name="uni0413" unicode="&#x413;" horiz-adv-x="457" 
d="M94 0v698h327v-32h-292v-666h-35z" />
    <glyph glyph-name="uni0414" unicode="&#x414;" horiz-adv-x="615" 
d="M9 -150v182h65q27 45 45 110t26.5 146.5t8.5 174.5v235h339v-666h82v-182h-34v150h-498v-150h-34zM117 32h341v634h-269v-205q0 -91 -8.5 -171.5t-24 -145.5t-39.5 -109v-3z" />
    <glyph glyph-name="uni0415" unicode="&#x415;" horiz-adv-x="511" 
d="M448 0h-354v698h354v-32h-319v-296h306v-32h-306v-306h319v-32z" />
    <glyph glyph-name="uni0416" unicode="&#x416;" horiz-adv-x="832" 
d="M40 0v32h53l138 289q8 15 16 21.5t20 8.5v6q-11 2 -18.5 8.5t-14.5 22.5l-127 278h-56v32h49q15 0 24.5 -6.5t16.5 -21.5l138 -301h119v329h36v-329h119l138 301q7 15 16.5 21.5t23.5 6.5h49v-32h-55l-128 -278q-7 -16 -13.5 -22.5t-18.5 -8.5v-6q13 -2 21 -8.5t14 -21.5
l138 -289h54v-32h-53q-13 0 -22.5 6.5t-16.5 21.5l-147 310h-119v-338h-36v338h-119l-148 -310q-7 -15 -16 -21.5t-23 -6.5h-52z" />
    <glyph glyph-name="uni0417" unicode="&#x417;" horiz-adv-x="520" 
d="M254 -12q-77 0 -127.5 28.5t-81.5 82.5l28 19q28 -51 72 -74.5t109 -23.5q53 0 90.5 17t58 51t20.5 82v31q0 66 -42.5 102t-119.5 36h-103v31h101q45 0 80 17.5t54.5 50t19.5 78.5v29q0 65 -40 99t-114 34q-69 0 -106.5 -25t-58.5 -70l-27 16q21 51 67.5 81t124.5 30
q93 0 142.5 -45.5t49.5 -131.5q0 -81 -36.5 -121.5t-92.5 -53.5v-7q41 -4 72.5 -23t49.5 -53.5t18 -86.5q0 -64 -24.5 -109t-71 -68t-112.5 -23z" />
    <glyph glyph-name="uni0418" unicode="&#x418;" horiz-adv-x="627" 
d="M94 0v698h34v-558l-5 -91h5l42 88l332 561h32v-698h-35v558l6 91h-5l-42 -88l-333 -561h-31z" />
    <glyph glyph-name="uni0419" unicode="&#x419;" horiz-adv-x="628" 
d="M94 0v698h34v-558l-5 -91h5l42 88l332 561h32v-698h-35v558l6 91h-5l-42 -88l-333 -561h-31zM312 761q-37 0 -60.5 19.5t-40.5 65.5l-12 31l29 14l24 -69q12 -17 26.5 -25t33.5 -8q20 0 34 8t26 25l24 69l29 -14l-12 -31q-16 -46 -40 -65.5t-61 -19.5z" />
    <glyph glyph-name="uni041A" unicode="&#x41a;" horiz-adv-x="566" 
d="M94 0v698h35v-329h138l158 301q8 15 17 21.5t24 6.5h48v-32h-54l-147 -280q-8 -15 -14.5 -21t-18.5 -8v-6q13 -2 21 -7.5t16 -21.5l156 -290h54v-32h-52q-13 0 -22 5.5t-17 20.5l-169 312h-138v-338h-35z" />
    <glyph glyph-name="uni041B" unicode="&#x41b;" horiz-adv-x="587" 
d="M8 0v32h58q21 22 37 54.5t27.5 81.5t17.5 120t6 170v240h339v-698h-35v666h-269v-209q0 -95 -6 -167.5t-17.5 -124.5t-28.5 -87.5t-38 -56.5q-11 -11 -22.5 -16t-30.5 -5h-38z" />
    <glyph glyph-name="uni041C" unicode="&#x41c;" horiz-adv-x="721" 
d="M93 0v698h54l136 -263l76 -152h3l76 152l136 263h53v-698h-35v501l2 158h-6l-81 -158l-147 -280l-146 280l-82 157h-5l2 -157v-501h-36z" />
    <glyph glyph-name="uni041D" unicode="&#x41d;" horiz-adv-x="627" 
d="M498 0v338h-369v-338h-35v698h35v-328h369v328h35v-698h-35z" />
    <glyph glyph-name="uni041E" unicode="&#x41e;" horiz-adv-x="620" 
d="M310 -12q-77 0 -133 34.5t-86.5 113t-30.5 213.5t30.5 214t86.5 113t133 34q76 0 132.5 -34t86.5 -113t30 -214t-30 -213.5t-86.5 -113t-132.5 -34.5zM310 20q66 0 113 30t72.5 92.5t25.5 158.5v96q0 97 -25.5 159t-72.5 92t-113 30t-113 -30t-72.5 -92t-25.5 -159v-96
q0 -96 25.5 -158.5t72.5 -92.5t113 -30z" />
    <glyph glyph-name="uni041F" unicode="&#x41f;" horiz-adv-x="615" 
d="M94 0v698h427v-698h-35v666h-357v-666h-35z" />
    <glyph glyph-name="uni0420" unicode="&#x420;" horiz-adv-x="538" 
d="M129 0h-35v698h249q52 0 87.5 -21.5t52.5 -64t17 -105.5q0 -62 -17 -104.5t-52.5 -64t-87.5 -21.5h-214v-317zM129 666v-317h214q40 0 66.5 16.5t39 46t12.5 65.5v60q0 38 -12.5 67t-39 45.5t-66.5 16.5h-214z" />
    <glyph glyph-name="uni0421" unicode="&#x421;" horiz-adv-x="552" 
d="M301 -12q-73 0 -127 34.5t-84 113t-30 213.5t30 214t84 113t127 34q82 0 129 -37t73 -104l-30 -16q-21 61 -61.5 93t-110.5 32q-94 0 -148 -68.5t-54 -212.5v-96q0 -144 54 -212.5t148 -68.5q75 0 115.5 34t60.5 99l30 -16q-24 -71 -73 -110t-133 -39z" />
    <glyph glyph-name="uni0422" unicode="&#x422;" horiz-adv-x="507" 
d="M490 666h-219v-666h-35v666h-220v32h474v-32z" />
    <glyph glyph-name="uni0423" unicode="&#x423;" horiz-adv-x="522" 
d="M139 0v32h84l43 119l-241 547h39l180 -414l35 -85h6l29 85l146 414h37l-239 -664q-4 -14 -10.5 -21t-15.5 -10t-23 -3h-70z" />
    <glyph glyph-name="uni0424" unicode="&#x424;" horiz-adv-x="741" 
d="M353 -29v90h-47q-80 0 -137 36.5t-87 101t-30 149.5t30 149.5t87 101t137 36.5h47v90h35v-90h47q81 0 137.5 -36.5t86.5 -101t30 -149.5t-30 -149.5t-86.5 -101t-137.5 -36.5h-47v-90h-35zM306 92h47v512h-47q-53 0 -93.5 -18t-67.5 -49.5t-41 -70t-14 -79.5v-78
q0 -41 14 -79.5t41 -70t67.5 -49.5t93.5 -18zM388 92h47q54 0 93.5 18t67 49.5t41.5 70t14 79.5v78q0 41 -14 79.5t-41 70t-67 49.5t-94 18h-47v-512z" />
    <glyph glyph-name="uni0425" unicode="&#x425;" horiz-adv-x="516" 
d="M24 0l212 354l-204 344h42l181 -308h7l182 308h40l-204 -341l212 -357h-42l-188 322h-7l-190 -322h-41z" />
    <glyph glyph-name="uni0426" unicode="&#x426;" horiz-adv-x="643" 
d="M569 -150v150h-475v698h35v-666h357v666h35v-666h82v-182h-34z" />
    <glyph glyph-name="uni0427" unicode="&#x427;" horiz-adv-x="565" 
d="M436 0v299h-6q-28 -13 -67.5 -20t-88.5 -7q-110 0 -162.5 52t-52.5 160v214h36v-214q0 -96 45.5 -138t136.5 -42q51 0 90.5 7.5t68.5 20.5v366h36v-698h-36z" />
    <glyph glyph-name="uni0428" unicode="&#x428;" horiz-adv-x="828" 
d="M94 0v698h35v-666h267v666h36v-666h266v666h36v-698h-640z" />
    <glyph glyph-name="uni0429" unicode="&#x429;" horiz-adv-x="856" 
d="M782 -150v150h-688v698h35v-666h267v666h36v-666h266v666h36v-666h82v-182h-34z" />
    <glyph glyph-name="uni042A" unicode="&#x42a;" horiz-adv-x="665" 
d="M205 0v666h-189v32h225v-295h212q54 0 90 -23t54.5 -67.5t18.5 -111.5q0 -65 -18.5 -110t-54.5 -68t-90 -23h-248zM241 32h211q43 0 70.5 18t41 49.5t13.5 71.5v60q0 41 -13.5 72.5t-41 49.5t-70.5 18h-211v-339z" />
    <glyph glyph-name="uni042B" unicode="&#x42b;" horiz-adv-x="753" 
d="M94 0v698h35v-295h205q54 0 90 -23t54.5 -67.5t18.5 -111.5q0 -65 -18.5 -110t-54.5 -68t-90 -23h-240zM129 32h204q43 0 70.5 18t41 49.5t13.5 71.5v60q0 41 -13.5 72.5t-41 49.5t-70.5 18h-204v-339zM623 0v698h36v-698h-36z" />
    <glyph glyph-name="uni042C" unicode="&#x42c;" horiz-adv-x="554" 
d="M94 0v698h35v-295h213q54 0 90 -23t54.5 -67.5t18.5 -111.5q0 -65 -18.5 -110t-54.5 -68t-90 -23h-248zM129 32h212q43 0 70.5 18t41 49.5t13.5 71.5v60q0 41 -13.5 72.5t-41 49.5t-70.5 18h-212v-339z" />
    <glyph glyph-name="uni042D" unicode="&#x42d;" horiz-adv-x="554" 
d="M157 338v32h313l-15 -9v36q0 144 -54 212.5t-149 68.5q-69 0 -110.5 -32t-63.5 -93l-29 16q18 45 44.5 76.5t65.5 48t93 16.5q74 0 128 -34t84 -113t30 -213q0 -135 -30 -214t-84 -113.5t-128 -34.5q-84 0 -133 39t-74 111l29 15q22 -65 63.5 -99t114.5 -34
q95 0 149 68.5t54 212.5v46l17 -9h-315z" />
    <glyph glyph-name="uni042E" unicode="&#x42e;" horiz-adv-x="829" 
d="M524 -12q-74 0 -128.5 33.5t-84 110.5t-31.5 206h-151v-338h-35v698h35v-328h152q2 126 32 200.5t84 107t127 32.5q75 0 130 -34t85 -113t30 -214t-30 -214t-85 -113t-130 -34zM524 20q96 0 151 68.5t55 212.5v96q0 144 -55 212.5t-151 68.5q-95 0 -150 -68.5t-55 -212.5
v-96q0 -144 55 -212.5t150 -68.5z" />
    <glyph glyph-name="uni042F" unicode="&#x42f;" horiz-adv-x="570" 
d="M33 0v32h53l117 251q7 16 14.5 23t17.5 8v13l15 -6h-23q-79 0 -118 48.5t-39 137.5q0 62 18 105t53 64.5t87 21.5h249v-698h-36v317h-183l-134 -290q-7 -15 -16.5 -21t-22.5 -6h-52zM229 349h212v317h-212q-41 0 -67.5 -17t-39.5 -46.5t-13 -66.5v-57q0 -37 13 -66.5
t39.5 -46.5t67.5 -17z" />
    <glyph glyph-name="uni0430" unicode="&#x430;" horiz-adv-x="472" 
d="M451 0h-69q-12 0 -20 3.5t-11.5 11.5t-3.5 20v54l10 -10h-17q-14 -41 -50 -66t-91 -25q-71 0 -110 36t-39 109q0 48 19.5 80.5t57 49t90.5 16.5h130v78q0 72 -31.5 102.5t-93.5 30.5q-49 0 -81 -20.5t-50 -69.5l-24 16q18 49 56 76.5t100 27.5q78 0 118 -39t40 -120v-331
h70v-30zM347 251h-130q-59 0 -94.5 -25.5t-35.5 -72.5v-37q0 -46 33 -72t83 -26q41 0 73 15.5t51.5 45t19.5 71.5v101z" />
    <glyph glyph-name="uni0431" unicode="&#x431;" horiz-adv-x="495" 
d="M249 -12q-66 0 -109.5 30t-65.5 94q-11 33 -15.5 71.5t-4.5 89.5q0 129 12 215.5t39 138.5t71.5 77t109.5 30l124 11v-33l-126 -11q-56 -5 -91 -25t-55.5 -57.5t-30.5 -94t-15 -134.5h7q18 65 58.5 91.5t94.5 26.5q60 0 103 -26.5t66 -83.5t23 -150q0 -91 -23.5 -148.5
t-67 -84.5t-104.5 -27zM250 19q75 0 116 50t41 141v74q0 93 -41 143.5t-118 50.5q-76 0 -116.5 -51t-40.5 -136v-78q0 -93 41.5 -143.5t117.5 -50.5z" />
    <glyph glyph-name="uni0432" unicode="&#x432;" horiz-adv-x="497" 
d="M90 0v508h211q51 0 80 -30.5t29 -94.5q0 -53 -20.5 -80.5t-58.5 -35.5v-6q49 -5 73.5 -35t24.5 -86q0 -45 -13 -76.5t-38.5 -47.5t-61.5 -16h-226zM124 30h186q42 0 62 26t20 67v32q0 42 -23 67t-70 25h-175v-217zM124 276h169q40 0 60 24t20 62v33q0 37 -19 60.5
t-60 23.5h-170v-203z" />
    <glyph glyph-name="uni0433" unicode="&#x433;" horiz-adv-x="396" 
d="M90 0v508h274v-30h-240v-478h-34z" />
    <glyph glyph-name="uni0434" unicode="&#x434;" horiz-adv-x="507" 
d="M5 -140v170h49q24 41 39 87t22.5 103t7.5 128v160h277v-478h71v-170h-33v140h-400v-140h-33zM90 30h276v448h-210v-130q0 -110 -17 -186t-49 -132z" />
    <glyph glyph-name="uni0435" unicode="&#x435;" horiz-adv-x="484" 
d="M246 -12q-60 0 -104 28t-67.5 86.5t-23.5 151.5t23.5 152t67.5 86.5t104 27.5q61 0 102.5 -28t63 -85t21.5 -143v-12h-345v-36q0 -94 41 -146t117 -52q63 0 99 29t55 86l26 -15q-20 -63 -63.5 -96.5t-116.5 -33.5zM246 491q-50 0 -85.5 -23.5t-54 -68t-18.5 -107.5v-13
h308v13q0 63 -16.5 107.5t-49.5 68t-84 23.5z" />
    <glyph glyph-name="uni0436" unicode="&#x436;" horiz-adv-x="679" 
d="M40 0v30h52l89 199q8 19 16 26t19 8v6q-11 2 -18 8.5t-16 25.5l-84 175h-52v30h45q14 0 23 -6t15 -20l98 -202h95v228h34v-228h96l97 202q7 14 16 20t22 6h45v-30h-51l-85 -175q-9 -19 -15.5 -25.5t-18.5 -8.5v-6q11 -1 19 -8t17 -26l89 -199h52v-30h-50q-13 0 -22 6
t-15 21l-100 224h-96v-251h-34v251h-95l-100 -224q-7 -15 -16 -21t-22 -6h-49z" />
    <glyph glyph-name="uni0437" unicode="&#x437;" horiz-adv-x="445" 
d="M211 -12q-68 0 -106.5 26t-63.5 70l26 20q22 -42 56 -63.5t88 -21.5q58 0 93.5 28.5t35.5 75.5v24q0 48 -30 74t-84 26h-96v30h93q49 0 77.5 27.5t28.5 68.5v23q0 44 -31.5 69t-87.5 25q-53 0 -84 -21t-51 -63l-26 17q21 46 60.5 71.5t101.5 25.5q73 0 114 -34t41 -99
q0 -52 -24.5 -82.5t-68.5 -37.5v-6q49 -6 76.5 -36.5t27.5 -88.5q0 -68 -45 -108t-121 -40z" />
    <glyph glyph-name="uni0438" unicode="&#x438;" horiz-adv-x="521" 
d="M90 0v508h33v-378l-5 -81h5l40 74l237 385h32v-508h-34v378l6 82h-6l-39 -75l-238 -385h-31z" />
    <glyph glyph-name="uni0439" unicode="&#x439;" horiz-adv-x="521" 
d="M90 0v508h33v-378l-5 -81h5l40 74l237 385h32v-508h-34v378l6 82h-6l-39 -75l-238 -385h-31zM260 604q-37 0 -61 19.5t-41 65.5l-12 31l29 13l25 -68q12 -18 26.5 -26t33.5 -8q20 0 34 8t26 26l25 68l29 -13l-12 -31q-16 -46 -40.5 -65.5t-61.5 -19.5z" />
    <glyph glyph-name="uni043A" unicode="&#x43a;" horiz-adv-x="479" 
d="M90 0v508h34v-228h105l119 204q8 14 16.5 19t21.5 5h46v-30h-52l-102 -176q-11 -19 -18.5 -25t-18.5 -8v-6q12 -1 20.5 -8t18.5 -27l107 -198h52v-30h-50q-12 0 -21 5.5t-17 20.5l-122 225h-105v-251h-34z" />
    <glyph glyph-name="uni043B" unicode="&#x43b;" horiz-adv-x="492" 
d="M5 0v30h53q22 24 36.5 62t22.5 100.5t8 156.5v159h278v-508h-34v478h-211v-130q0 -97 -8.5 -162.5t-24.5 -106t-38 -62.5q-9 -10 -20 -13.5t-26 -3.5h-36z" />
    <glyph glyph-name="uni043C" unicode="&#x43c;" horiz-adv-x="618" 
d="M90 0v508h49l136 -249l32 -64h5l32 64l135 249h50v-508h-34v405l1 62h-6l-31 -60l-150 -276l-150 276l-30 60h-6v-62v-405h-33z" />
    <glyph glyph-name="uni043D" unicode="&#x43d;" horiz-adv-x="520" 
d="M90 0v508h34v-227h273v227h34v-508h-34v250h-273v-250h-34z" />
    <glyph glyph-name="uni043E" unicode="&#x43e;" horiz-adv-x="492" 
d="M246 -12q-60 0 -104 28t-67.5 86.5t-23.5 151.5t23.5 152t67.5 86.5t104 27.5q61 0 104 -27.5t67 -86.5t24 -152t-24 -151.5t-67 -86.5t-104 -28zM246 19q76 0 117 51.5t41 145.5v76q0 94 -41 146t-117 52t-117 -52t-41 -146v-76q0 -94 41 -145.5t117 -51.5z" />
    <glyph glyph-name="uni043F" unicode="&#x43f;" horiz-adv-x="512" 
d="M90 0v508h332v-508h-34v478h-264v-478h-34z" />
    <glyph glyph-name="uni0440" unicode="&#x440;" horiz-adv-x="513" 
d="M90 -200v708h34v-78h7q14 43 50.5 66.5t89.5 23.5q62 0 103.5 -29t64 -88t22.5 -149t-22.5 -149t-64 -88t-103.5 -29q-53 0 -89.5 24.5t-50.5 66.5h-7v-279h-34zM266 19q76 0 117 52.5t41 144.5v76q0 93 -41 145.5t-117 52.5q-40 0 -72.5 -15.5t-51 -45t-18.5 -69.5v-211
q0 -41 18.5 -70t51 -44.5t72.5 -15.5z" />
    <glyph glyph-name="uni0441" unicode="&#x441;" horiz-adv-x="443" 
d="M244 -12q-92 0 -142.5 63.5t-50.5 202.5q0 140 50.5 203t142.5 63q60 0 99 -26.5t59 -74.5l-28 -15q-19 44 -50 65t-80 21q-76 0 -116 -52.5t-40 -145.5v-76q0 -92 40 -144.5t116 -52.5q53 0 85.5 22.5t53.5 63.5l26 -17q-22 -46 -62 -73t-103 -27z" />
    <glyph glyph-name="uni0442" unicode="&#x442;" horiz-adv-x="430" 
d="M198 0v478h-170v30h374v-30h-170v-478h-34z" />
    <glyph glyph-name="uni0443" unicode="&#x443;" horiz-adv-x="418" 
d="M263 201l99 307h34l-219 -677q-3 -12 -8.5 -18.5t-13 -9.5t-19.5 -3h-78v30h87l47 149l-171 529h34l99 -307l52 -171h5z" />
    <glyph glyph-name="uni0444" unicode="&#x444;" horiz-adv-x="661" 
d="M314 -200v265h-7q-12 -36 -39.5 -56.5t-65.5 -20.5q-50 0 -82.5 26.5t-48.5 85.5t-16 154q0 96 16 154.5t48.5 85t82.5 26.5q38 0 65.5 -20t39.5 -57h7v267h34v-267h6q13 37 40.5 57t65.5 20q50 0 82.5 -26.5t48.5 -85t16 -154.5q0 -95 -16 -154t-48.5 -85.5t-82.5 -26.5
q-38 0 -65.5 20.5t-40.5 56.5h-6v-265h-34zM208 19q33 0 56.5 16.5t36.5 41t13 48.5v258q0 24 -13 48.5t-36.5 41.5t-56.5 17q-61 0 -88.5 -49.5t-27.5 -146.5v-80q0 -97 27.5 -146t88.5 -49zM454 19q60 0 88 49t28 146v80q0 97 -28 146.5t-88 49.5q-33 0 -57 -17
t-36.5 -41.5t-12.5 -48.5v-258q0 -24 12.5 -48.5t36.5 -41t57 -16.5z" />
    <glyph glyph-name="uni0445" unicode="&#x445;" horiz-adv-x="432" 
d="M27 0l170 257l-164 251h39l141 -221h7l143 221h38l-164 -250l168 -258h-38l-147 228h-7l-148 -228h-38z" />
    <glyph glyph-name="uni0446" unicode="&#x446;" horiz-adv-x="528" 
d="M460 -140v140h-370v508h34v-478h264v478h34v-478h71v-170h-33z" />
    <glyph glyph-name="uni0447" unicode="&#x447;" horiz-adv-x="474" 
d="M350 0v269h-8q-13 -34 -50 -56t-90 -22q-72 0 -111 37.5t-39 111.5v168h34v-166q0 -62 32 -91.5t90 -29.5q64 0 103 33.5t39 85.5v168h34v-508h-34z" />
    <glyph glyph-name="uni0448" unicode="&#x448;" horiz-adv-x="705" 
d="M90 0v508h34v-478h213v478h34v-478h211v478h34v-508h-526z" />
    <glyph glyph-name="uni0449" unicode="&#x449;" horiz-adv-x="722" 
d="M653 -140v140h-563v508h34v-478h212v478h34v-478h212v478h34v-478h70v-170h-33z" />
    <glyph glyph-name="uni044A" unicode="&#x44a;" 
d="M167 0v478h-139v30h173v-206h165q41 0 69 -17.5t43 -50.5t15 -83q0 -47 -15 -81t-42.5 -52t-69.5 -18h-199zM201 30h163q46 0 69 28.5t23 71.5v42q0 44 -23 72t-69 28h-163v-242z" />
    <glyph glyph-name="uni044B" unicode="&#x44b;" horiz-adv-x="619" 
d="M90 0v508h34v-206h150q42 0 69.5 -17.5t42.5 -51t15 -82.5q0 -47 -14.5 -81t-42.5 -52t-69 -18h-185zM124 30h148q46 0 69 28.5t23 71.5v42q0 44 -23 72t-69 28h-148v-242zM496 0v508h34v-508h-34z" />
    <glyph glyph-name="uni044C" unicode="&#x44c;" horiz-adv-x="463" 
d="M90 0v508h34v-206h165q41 0 69 -17.5t43 -51t15 -82.5q0 -47 -15 -81t-43 -52t-69 -18h-199zM124 30h162q47 0 70 28.5t23 71.5v42q0 44 -23 72t-70 28h-162v-242z" />
    <glyph glyph-name="uni044D" unicode="&#x44d;" horiz-adv-x="451" 
d="M135 242v30h228v20q0 93 -40 145.5t-116 52.5q-50 0 -81.5 -21t-51.5 -66l-27 16q20 49 60.5 75t99.5 26q93 0 143 -63t50 -203q0 -139 -50 -202.5t-143 -63.5q-64 0 -103 27.5t-61 72.5l27 16q19 -41 51.5 -63t85.5 -22q76 0 116 52.5t40 144.5v26h-228z" />
    <glyph glyph-name="uni044E" unicode="&#x44e;" horiz-adv-x="674" 
d="M433 -12q-89 0 -138.5 63.5t-50.5 199.5h-120v-251h-34v508h34v-228h120q5 119 52.5 179.5t136.5 60.5q60 0 102 -27.5t65 -86.5t23 -152t-23 -151.5t-65 -86.5t-102 -28zM433 19q74 0 113.5 51.5t39.5 145.5v76q0 94 -39.5 146t-113.5 52t-113.5 -52t-39.5 -146v-76
q0 -94 39.5 -145.5t113.5 -51.5z" />
    <glyph glyph-name="uni044F" unicode="&#x44f;" horiz-adv-x="475" 
d="M37 0v30h52l69 146q8 17 15.5 23.5t18.5 7.5v7q-69 2 -100.5 38t-31.5 107q0 48 14 81t42.5 50.5t69.5 17.5h199v-508h-34v210h-141l-86 -182q-6 -16 -15 -22t-23 -6h-49zM189 240h162v238h-162q-46 0 -69 -28t-23 -71v-41q0 -42 23 -70t69 -28z" />
    <glyph glyph-name="uni0450" unicode="&#x450;" horiz-adv-x="484" 
d="M246 -12q-60 0 -104 28t-67.5 86.5t-23.5 151.5t23.5 152t67.5 86.5t104 27.5q61 0 102.5 -28t63 -85t21.5 -143v-12h-345v-36q0 -94 41 -146t117 -52q63 0 99 29t55 86l26 -15q-20 -63 -63.5 -96.5t-116.5 -33.5zM246 491q-50 0 -85.5 -23.5t-54 -68t-18.5 -107.5v-13
h308v13q0 63 -16.5 107.5t-49.5 68t-84 23.5zM254 587l-102 153l31 18l94 -158z" />
    <glyph glyph-name="uni0451" unicode="&#x451;" horiz-adv-x="484" 
d="M246 -12q-60 0 -104 28t-67.5 86.5t-23.5 151.5t23.5 152t67.5 86.5t104 27.5q61 0 102.5 -28t63 -85t21.5 -143v-12h-345v-36q0 -94 41 -146t117 -52q63 0 99 29t55 86l26 -15q-20 -63 -63.5 -96.5t-116.5 -33.5zM246 491q-50 0 -85.5 -23.5t-54 -68t-18.5 -107.5v-13
h308v13q0 63 -16.5 107.5t-49.5 68t-84 23.5zM166 637q-15 0 -22 7.5t-7 17.5v10q0 10 7 17.5t22 7.5q16 0 23 -7.5t7 -17.5v-10q0 -10 -7 -17.5t-23 -7.5zM322 637q-16 0 -23 7.5t-7 17.5v10q0 10 7 17.5t23 7.5q15 0 22 -7.5t7 -17.5v-10q0 -10 -7 -17.5t-22 -7.5z" />
    <glyph glyph-name="uni0452" unicode="&#x452;" horiz-adv-x="505" 
d="M311 -200v30h77v517q0 67 -31.5 105t-91.5 38q-37 0 -70 -16t-52.5 -45.5t-19.5 -71.5v-357h-34v624h-63v28h63v88h34v-88h147v-28h-147v-194h7q14 41 51.5 65.5t92.5 24.5q70 0 109 -44t39 -128v-504q0 -24 -10.5 -34t-33.5 -10h-67z" />
    <glyph glyph-name="uni0453" unicode="&#x453;" horiz-adv-x="396" 
d="M90 0v508h274v-30h-240v-478h-34zM320 740l-102 -153l-23 13l94 158z" />
    <glyph glyph-name="uni0454" unicode="&#x454;" horiz-adv-x="451" 
d="M244 -12q-92 0 -142.5 63.5t-50.5 202.5q0 140 50.5 203t142.5 63q60 0 99.5 -26.5t59.5 -74.5l-28 -15q-19 44 -50 65t-81 21q-76 0 -116 -52.5t-40 -145.5v-20h228v-30h-228v-26q0 -92 40 -144.5t116 -52.5q53 0 86 22.5t54 63.5l26 -17q-22 -46 -62 -73t-104 -27z" />
    <glyph glyph-name="uni0455" unicode="&#x455;" horiz-adv-x="422" 
d="M211 -12q-57 0 -97.5 22t-72.5 71l26 19q30 -45 63 -63.5t81 -18.5q59 0 92 27.5t33 82.5q0 51 -24.5 76.5t-79.5 35.5l-41 7q-44 7 -74 23.5t-45.5 44.5t-15.5 71q0 68 42.5 101t109.5 33q39 0 67.5 -9.5t49 -26t36.5 -37.5l-24 -21q-19 27 -48 45.5t-80 18.5
q-55 0 -87 -25.5t-32 -76.5t25.5 -75.5t80.5 -34.5l41 -7q67 -11 100 -43t33 -97q0 -47 -19 -78.5t-55 -48t-85 -16.5z" />
    <glyph glyph-name="uni0456" unicode="&#x456;" horiz-adv-x="213" 
d="M107 665q-15 0 -21.5 7.5t-6.5 17.5v11q0 11 6.5 18t21.5 7t21 -7t6 -18v-11q0 -10 -6 -17.5t-21 -7.5zM90 0v508h34v-508h-34z" />
    <glyph glyph-name="uni0457" unicode="&#x457;" horiz-adv-x="213" 
d="M124 0h-34v508h34v-508zM28 637q-15 0 -22 7.5t-7 17.5v10q0 10 7 17.5t22 7.5q16 0 23 -7.5t7 -17.5v-10q0 -10 -7 -17.5t-23 -7.5zM184 637q-16 0 -23 7.5t-7 17.5v10q0 10 7 17.5t23 7.5q15 0 22 -7.5t7 -17.5v-10q0 -10 -7 -17.5t-22 -7.5z" />
    <glyph glyph-name="uni0458" unicode="&#x458;" horiz-adv-x="213" 
d="M90 -170v678h34v-664q0 -24 -10.5 -34t-33.5 -10h-67v30h77zM107 665q-15 0 -21.5 7.5t-6.5 17.5v11q0 11 6.5 18t21.5 7t21 -7t6 -18v-11q0 -10 -6 -17.5t-21 -7.5z" />
    <glyph glyph-name="uni0459" unicode="&#x459;" horiz-adv-x="702" 
d="M5 0v30h53q22 24 36.5 62t22.5 100.5t8 156.5v159h253v-206h149q43 0 70.5 -17.5t42.5 -50.5t15 -82q0 -48 -15 -82t-42.5 -52t-69.5 -18h-184v478h-186v-130q0 -97 -8.5 -162.5t-24.5 -106t-38 -62.5q-9 -10 -20 -13.5t-26 -3.5h-36zM378 30h148q46 0 69 28.5t23 71.5
v42q0 43 -23 71.5t-69 28.5h-148v-242z" />
    <glyph glyph-name="uni045A" unicode="&#x45a;" horiz-adv-x="734" 
d="M90 0v508h34v-220h251v220h34v-213h153q41 0 68 -17t41.5 -49.5t14.5 -80.5q0 -47 -14 -80t-41.5 -50.5t-68.5 -17.5h-187v257h-251v-257h-34zM409 30h151q45 0 67 28t22 69v41q0 41 -22 69t-67 28h-151v-235z" />
    <glyph glyph-name="uni045B" unicode="&#x45b;" horiz-adv-x="505" 
d="M124 0h-34v625h-64v27h64v88h34v-88h146v-27h-146v-195h7q13 41 50.5 65.5t92.5 24.5q71 0 109.5 -44t38.5 -128v-348h-34v347q0 67 -31 105t-91 38q-38 0 -70.5 -16t-52 -45.5t-19.5 -71.5v-357z" />
    <glyph glyph-name="uni045C" unicode="&#x45c;" horiz-adv-x="479" 
d="M90 0v508h34v-228h105l119 204q8 14 16.5 19t21.5 5h46v-30h-52l-102 -176q-11 -19 -18.5 -25t-18.5 -8v-6q12 -1 20.5 -8t18.5 -27l107 -198h52v-30h-50q-12 0 -21 5.5t-17 20.5l-122 225h-105v-251h-34zM337 740l-102 -153l-23 13l94 158z" />
    <glyph glyph-name="uni045D" unicode="&#x45d;" horiz-adv-x="521" 
d="M90 0v508h33v-378l-5 -81h5l40 74l237 385h32v-508h-34v378l6 82h-6l-39 -75l-238 -385h-31zM270 587l-102 153l31 18l94 -158z" />
    <glyph glyph-name="uni045E" unicode="&#x45e;" horiz-adv-x="418" 
d="M263 201l99 307h34l-219 -677q-3 -12 -8.5 -18.5t-13 -9.5t-19.5 -3h-78v30h87l47 149l-171 529h34l99 -307l52 -171h5zM211 604q-37 0 -61 19.5t-41 65.5l-12 31l29 13l25 -68q12 -18 26.5 -26t33.5 -8q20 0 34 8t26 26l25 68l29 -13l-12 -31q-16 -46 -40.5 -65.5
t-61.5 -19.5z" />
    <glyph glyph-name="uni045F" unicode="&#x45f;" horiz-adv-x="512" 
d="M240 -140v140h-150v508h34v-478h265v478h34v-508h-150v-140h-33z" />
    <glyph glyph-name="uni0462" unicode="&#x462;" horiz-adv-x="586" 
d="M126 0v558h-100v32h100v108h35v-108h199v-32h-199v-155h212q55 0 91 -23t54.5 -67.5t18.5 -111.5q0 -65 -18.5 -110t-54.5 -68t-91 -23h-247zM161 32h212q42 0 69.5 18t41.5 49.5t14 71.5v60q0 41 -14 72.5t-41.5 49.5t-69.5 18h-212v-339z" />
    <glyph glyph-name="uni0463" unicode="&#x463;" horiz-adv-x="482" 
d="M109 0v478h-83v30h83v202h34v-202h152v-30h-152v-176h166q41 0 68.5 -17.5t42.5 -51t15 -82.5q0 -47 -14.5 -81t-42.5 -52t-69 -18h-200zM143 30h163q46 0 69 28.5t23 71.5v42q0 44 -23 72t-69 28h-163v-242z" />
    <glyph glyph-name="uni046A" unicode="&#x46a;" horiz-adv-x="757" 
d="M25 0l161 322q10 20 19 27.5t20 9.5v7l-160 301v31h627v-31l-160 -301v-7q12 -2 21 -10t18 -27l161 -322h-40l-170 343h-126v-343h-36v343h-125l-171 -343h-39zM259 374h239l153 287v6h-544v-6z" />
    <glyph glyph-name="uni046B" unicode="&#x46b;" horiz-adv-x="602" 
d="M25 0l115 215q12 23 21 32.5t19 11.5v5l-133 214v30h509v-30l-134 -214v-5q11 -2 19.5 -11t20.5 -33l116 -215h-38l-132 245h-90v-245h-34v245h-90l-132 -245h-37zM211 275h180l124 198v5h-427v-5z" />
    <glyph glyph-name="uni0472" unicode="&#x472;" horiz-adv-x="620" 
d="M310 -12q-77 0 -133 34.5t-86.5 113t-30.5 213.5t30.5 214t86.5 113t133 34q76 0 132.5 -34t86.5 -113t30 -214t-30 -213.5t-86.5 -113t-132.5 -34.5zM310 20q66 0 113 30t72.5 92.5t25.5 158.5v48l15 6q-16 -22 -44 -38t-65 -16q-29 0 -56.5 8.5t-66.5 29.5
q-35 18 -61 26.5t-52 8.5q-33 0 -59 -14.5t-47 -42.5l14 28v-44q0 -96 25.5 -158.5t72.5 -92.5t113 -30zM310 678q-66 0 -113 -30t-72.5 -92t-25.5 -159v-40l-15 -7q16 22 44 38t65 16q29 0 56.5 -9t65.5 -29q36 -18 62 -26.5t52 -8.5q33 0 59 14.5t47 41.5l-14 -26v36
q0 97 -25.5 159t-72.5 92t-113 30z" />
    <glyph glyph-name="uni0473" unicode="&#x473;" horiz-adv-x="492" 
d="M246 -12q-60 0 -104 28t-67.5 86.5t-23.5 151.5t23.5 152t67.5 86.5t104 27.5q61 0 104 -27.5t67 -86.5t24 -152t-24 -151.5t-67 -86.5t-104 -28zM246 19q76 0 117 51.5t41 145.5v27q-13 -14 -30 -23t-40 -9q-22 0 -42 8.5t-52 27.5q-29 18 -46.5 25.5t-36.5 7.5
q-21 0 -37 -8t-33 -27v-29q0 -94 41.5 -145.5t117.5 -51.5zM87 292v-16q14 16 30.5 24.5t39.5 8.5t43 -8.5t52 -27.5q29 -17 47 -25t36 -8q21 0 37 8.5t32 26.5v17q0 94 -41 146t-117 52t-117.5 -52t-41.5 -146z" />
    <glyph glyph-name="uni0474" unicode="&#x474;" horiz-adv-x="572" 
d="M288 0h-53l-210 698h38l120 -398l76 -268h6l70 268l100 366q5 18 15 25t27 7h81v-32h-85z" />
    <glyph glyph-name="uni0475" unicode="&#x475;" horiz-adv-x="445" 
d="M232 0h-47l-164 508h34l99 -307l52 -171h5l45 171l77 278q4 16 13 22.5t26 6.5h62v-30h-68z" />
    <glyph glyph-name="uni0490" unicode="&#x490;" horiz-adv-x="457" 
d="M94 0v698h293v150h34v-182h-292v-666h-35z" />
    <glyph glyph-name="uni0491" unicode="&#x491;" horiz-adv-x="396" 
d="M90 0v508h242v140h32v-170h-240v-478h-34z" />
    <glyph glyph-name="uni0492" unicode="&#x492;" horiz-adv-x="475" 
d="M111 0v359h-91v28h91v311h328v-32h-292v-279h192v-28h-192v-359h-36z" />
    <glyph glyph-name="uni0493" unicode="&#x493;" horiz-adv-x="406" 
d="M100 0v251h-73v28h73v229h274v-30h-240v-199h161v-28h-161v-251h-34z" />
    <glyph glyph-name="uni0494" unicode="&#x494;" horiz-adv-x="556" 
d="M316 -164v32h77q31 13 49.5 54t18.5 120v129q0 99 -44.5 142t-132.5 43q-49 0 -87.5 -7t-67.5 -21v-328h-35v698h314v-32h-279v-305h7q29 13 66 20t84 7q109 0 160 -53t51 -164v-129q0 -74 -16 -119.5t-45 -66t-67 -20.5h-53z" />
    <glyph glyph-name="uni0495" unicode="&#x495;" horiz-adv-x="477" 
d="M277 -200v30h79q16 18 24 48t8 80v167q0 66 -31.5 95.5t-91.5 29.5q-64 0 -102.5 -33t-38.5 -86v-131h-34v508h274v-30h-240v-275h7q14 34 51 56t90 22q73 0 111.5 -38t38.5 -117v-173q0 -82 -23.5 -117.5t-59.5 -35.5h-62z" />
    <glyph glyph-name="uni0496" unicode="&#x496;" horiz-adv-x="840" 
d="M775 -150v163l13 -13h-49q-13 0 -22.5 6.5t-16.5 21.5l-147 310h-119v-338h-36v338h-119l-148 -310q-7 -15 -16 -21.5t-23 -6.5h-52v32h53l138 289q8 15 16 21.5t20 8.5v6q-11 2 -18.5 8.5t-14.5 22.5l-127 278h-56v32h49q15 0 24.5 -6.5t16.5 -21.5l138 -301h119v329h36
v-329h119l138 301q7 15 16.5 21.5t23.5 6.5h49v-32h-55l-128 -278q-7 -16 -13.5 -22.5t-18.5 -8.5v-6q13 -2 21 -8.5t14 -21.5l138 -289h71v-182h-34z" />
    <glyph glyph-name="uni0497" unicode="&#x497;" horiz-adv-x="685" 
d="M618 -140v159l21 -19h-50q-13 0 -22 6t-15 21l-100 224h-96v-251h-34v251h-95l-100 -224q-7 -15 -16 -21t-22 -6h-49v30h52l89 199q8 19 16 26t19 8v6q-11 2 -18 8.5t-16 25.5l-84 175h-52v30h45q14 0 23 -6t15 -20l98 -202h95v228h34v-228h96l97 202q7 14 16 20t22 6h45
v-30h-51l-85 -175q-9 -19 -15.5 -25.5t-18.5 -8.5v-6q11 -1 19 -8t17 -26l89 -199h64v-170h-33z" />
    <glyph glyph-name="uni0498" unicode="&#x498;" horiz-adv-x="520" 
d="M235 -150v138q-65 3 -112 30t-78 81l28 19q28 -51 72 -74.5t109 -23.5q53 0 90.5 17t58 51t20.5 82v31q0 66 -42.5 102t-119.5 36h-103v31h101q45 0 80 17.5t54.5 50t19.5 78.5v29q0 65 -40 99t-114 34q-69 0 -106.5 -25t-58.5 -70l-27 16q21 51 67.5 81t124.5 30
q93 0 142.5 -45.5t49.5 -131.5q0 -81 -36.5 -121.5t-92.5 -53.5v-7q41 -4 72.5 -23t49.5 -53.5t18 -86.5q0 -95 -51 -145.5t-142 -54.5v-138h-34z" />
    <glyph glyph-name="uni0499" unicode="&#x499;" horiz-adv-x="445" 
d="M193 -140v128q-57 4 -93 29t-59 67l26 20q22 -42 56 -63.5t88 -21.5q58 0 93.5 28.5t35.5 75.5v24q0 48 -30 74t-84 26h-96v30h93q49 0 77.5 27.5t28.5 68.5v23q0 44 -31.5 69t-87.5 25q-53 0 -84 -21t-51 -63l-26 17q21 46 60.5 71.5t101.5 25.5q73 0 114 -34t41 -99
q0 -52 -24.5 -82.5t-68.5 -37.5v-6q49 -6 76.5 -36.5t27.5 -88.5q0 -64 -39.5 -103.5t-111.5 -44.5v-128h-33z" />
    <glyph glyph-name="uni049A" unicode="&#x49a;" horiz-adv-x="575" 
d="M510 -150v168l17 -18h-52q-13 0 -22 5.5t-17 20.5l-169 312h-138v-338h-35v698h35v-329h138l158 301q8 15 17 21.5t24 6.5h48v-32h-54l-147 -280q-8 -15 -14.5 -21t-18.5 -8v-6q13 -2 21 -7.5t16 -21.5l156 -290h71v-182h-34z" />
    <glyph glyph-name="uni049B" unicode="&#x49b;" horiz-adv-x="485" 
d="M419 -140v159l20 -19h-50q-12 0 -21 5.5t-17 20.5l-122 225h-105v-251h-34v508h34v-228h105l119 204q8 14 16.5 19t21.5 5h46v-30h-52l-102 -176q-11 -19 -18.5 -25t-18.5 -8v-6q12 -1 20.5 -8t18.5 -27l107 -198h64v-170h-32z" />
    <glyph glyph-name="uni049C" unicode="&#x49c;" horiz-adv-x="581" 
d="M94 0v698h35v-329h70v169h31v-169h54l156 301q8 15 17 21.5t24 6.5h48v-32h-54l-145 -280q-8 -16 -14.5 -21.5t-18.5 -7.5v-6q13 -2 21 -7.5t15 -21.5l155 -290h54v-32h-53q-12 0 -21 5.5t-17 20.5l-167 312h-54v-167h-31v167h-70v-338h-35z" />
    <glyph glyph-name="uni049D" unicode="&#x49d;" horiz-adv-x="500" 
d="M90 0v508h34v-228h55v128h29v-128h45l116 204q8 14 16.5 19t21.5 5h46v-30h-52l-100 -176q-11 -19 -18.5 -25t-18.5 -8v-6q13 -1 21 -8t18 -27l105 -198h52v-30h-50q-12 0 -21 5.5t-17 20.5l-119 225h-45v-128h-29v128h-55v-251h-34z" />
    <glyph glyph-name="uni049E" unicode="&#x49e;" horiz-adv-x="591" 
d="M119 0v571h-93v28h93v99h35v-99h152v-28h-152v-202h138l158 301q8 15 17 21.5t23 6.5h49v-32h-54l-147 -280q-8 -15 -14.5 -21t-18.5 -8v-6q13 -2 21 -7.5t16 -21.5l156 -290h54v-32h-53q-12 0 -21 5.5t-18 20.5l-168 312h-138v-338h-35z" />
    <glyph glyph-name="uni049F" unicode="&#x49f;" horiz-adv-x="478" 
d="M89 0v569h-63v28h63v143h34v-143h147v-28h-147v-289h106l118 204q9 14 17.5 19t20.5 5h46v-30h-51l-103 -176q-11 -19 -18 -25t-19 -8v-6q13 -1 21 -8t19 -27l106 -198h53v-30h-50q-13 0 -22 5.5t-17 20.5l-121 225h-106v-251h-34z" />
    <glyph glyph-name="uni04A0" unicode="&#x4a0;" horiz-adv-x="678" 
d="M205 0v666h-189v32h225v-329h138l157 301q8 15 17.5 21.5t23.5 6.5h48v-32h-54l-147 -280q-8 -15 -14.5 -21t-18.5 -8v-6q13 -2 21 -7.5t16 -21.5l157 -290h53v-32h-52q-13 0 -22 5.5t-17 20.5l-168 312h-138v-338h-36z" />
    <glyph glyph-name="uni04A1" unicode="&#x4a1;" horiz-adv-x="556" 
d="M167 0v478h-139v30h173v-228h105l119 204q8 14 16.5 19t21.5 5h46v-30h-52l-102 -176q-11 -19 -18.5 -25t-18.5 -8v-6q13 -1 21 -8t18 -27l107 -198h52v-30h-50q-12 0 -21 5.5t-17 20.5l-122 225h-105v-251h-34z" />
    <glyph glyph-name="uni04A2" unicode="&#x4a2;" horiz-adv-x="655" 
d="M581 -150v150h-83v338h-369v-338h-35v698h35v-328h369v328h35v-666h82v-182h-34z" />
    <glyph glyph-name="uni04A3" unicode="&#x4a3;" horiz-adv-x="537" 
d="M468 -140v140h-71v250h-273v-250h-34v508h34v-227h273v227h34v-478h70v-170h-33z" />
    <glyph glyph-name="uni04A4" unicode="&#x4a4;" horiz-adv-x="839" 
d="M94 0v698h35v-328h348v328h326v-32h-291v-666h-35v338h-348v-338h-35z" />
    <glyph glyph-name="uni04A5" unicode="&#x4a5;" horiz-adv-x="681" 
d="M90 0v508h34v-227h251v227h274v-30h-240v-478h-34v250h-251v-250h-34z" />
    <glyph glyph-name="uni04A6" unicode="&#x4a6;" horiz-adv-x="913" 
d="M674 -164v32h76q31 13 50 54t19 120v129q0 99 -43.5 142t-127.5 43q-47 0 -82 -7t-62 -21v-328h-36v666h-339v-666h-35v698h410v-337h6q27 13 61 20t79 7q105 0 154.5 -53t49.5 -164v-129q0 -74 -16 -119.5t-44.5 -66t-67.5 -20.5h-52z" />
    <glyph glyph-name="uni04A7" unicode="&#x4a7;" horiz-adv-x="744" 
d="M543 -200v30h79q16 18 24.5 48t8.5 80v167q0 67 -29 96t-86 29q-61 0 -97.5 -33t-36.5 -86v-131h-34v478h-248v-478h-34v508h316v-305h7q14 34 48.5 56t84.5 22q70 0 106.5 -38t36.5 -117v-173q0 -82 -24 -117.5t-59 -35.5h-63z" />
    <glyph glyph-name="uni04A8" unicode="&#x4a8;" horiz-adv-x="776" 
d="M729 -3v-32h-40q-52 0 -95.5 13t-83.5 39q-32 -15 -66.5 -22t-71.5 -7q-97 0 -166.5 39.5t-107.5 121.5t-38 209q0 130 30 207.5t84 111t127 33.5q16 0 30 -2t23 -4l-6 -32q-8 2 -21 4t-26 2q-63 0 -108 -30t-69.5 -90.5t-24.5 -154.5v-90q0 -95 34 -160.5t95.5 -99
t143.5 -33.5q34 0 60.5 5t47.5 14q-73 49 -114 130.5t-41 201.5q0 106 24 167t67 87.5t102 26.5t102 -26.5t66.5 -87.5t23.5 -167q0 -120 -41.5 -202t-121.5 -134q33 -19 66.5 -28.5t75.5 -9.5h40zM363 411v-74q0 -91 39.5 -163.5t113.5 -120.5q75 45 115.5 119t40.5 165v74
q0 108 -41 158.5t-113 50.5q-73 0 -114 -50.5t-41 -158.5z" />
    <glyph glyph-name="uni04A9" unicode="&#x4a9;" horiz-adv-x="616" 
d="M580 -3v-31h-34q-38 0 -72 10t-73 32q-23 -9 -50.5 -14.5t-57.5 -5.5q-73 0 -127.5 29.5t-84.5 90.5t-30 152q0 89 22.5 146.5t65.5 85.5t103 28q9 0 18 -0.5t16 -2.5l-3 -30q-6 2 -15.5 3t-16.5 1q-73 0 -113.5 -53t-40.5 -146v-65q0 -64 25 -111t71.5 -73t109.5 -26
q22 0 43 3t35 9q-52 38 -82.5 95t-30.5 150q0 107 39.5 157t111.5 50q73 0 112 -50t39 -157q0 -93 -32.5 -152.5t-92.5 -96.5q32 -16 57 -22t54 -6h34zM294 302v-57q0 -68 30 -119t82 -85q55 32 86.5 84t31.5 120v57q0 70 -29.5 110t-85.5 40q-55 0 -85 -40t-30 -110z" />
    <glyph glyph-name="uni04AA" unicode="&#x4aa;" horiz-adv-x="552" 
d="M301 -12q-73 0 -127 34.5t-84 113t-30 213.5t30 214t84 113t127 34q82 0 129 -37t73 -104l-30 -16q-21 61 -61.5 93t-110.5 32q-94 0 -148 -68.5t-54 -212.5v-96q0 -144 54 -212.5t148 -68.5q75 0 115.5 34t60.5 99l30 -16q-24 -71 -73 -110t-133 -39zM307 -203
q-28 0 -48.5 10.5t-28.5 23.5l17 18q10 -12 24.5 -19t35.5 -7q25 0 38.5 12t13.5 33q0 22 -13.5 34t-38.5 12h-40l20 90h24l-17 -80h5q5 4 11.5 6t15.5 2q28 0 45.5 -16t17.5 -48q0 -22 -10 -38t-28 -24.5t-44 -8.5z" />
    <glyph glyph-name="uni04AB" unicode="&#x4ab;" horiz-adv-x="443" 
d="M244 -12q-92 0 -142.5 63.5t-50.5 202.5q0 140 50.5 203t142.5 63q60 0 99 -26.5t59 -74.5l-28 -15q-19 44 -50 65t-80 21q-76 0 -116 -52.5t-40 -145.5v-76q0 -92 40 -144.5t116 -52.5q53 0 85.5 22.5t53.5 63.5l26 -17q-22 -46 -62 -73t-103 -27zM254 -203
q-28 0 -48.5 10.5t-28.5 23.5l17 18q10 -12 24.5 -19t35.5 -7q25 0 38.5 12t13.5 33q0 22 -13.5 34t-38.5 12h-40l20 90h24l-17 -80h5q5 4 11.5 6t15.5 2q28 0 45.5 -16t17.5 -48q0 -22 -10 -38t-28 -24.5t-44 -8.5z" />
    <glyph glyph-name="uni04AC" unicode="&#x4ac;" horiz-adv-x="507" 
d="M490 666h-219v-634h82v-182h-34v150h-83v666h-220v32h474v-32z" />
    <glyph glyph-name="uni04AD" unicode="&#x4ad;" horiz-adv-x="430" 
d="M198 0v478h-170v30h374v-30h-170v-448h70v-170h-33v140h-71z" />
    <glyph glyph-name="uni04AE" unicode="&#x4ae;" horiz-adv-x="503" 
d="M269 0h-36v290l-216 408h40l191 -364h7l190 364h40l-216 -408v-290z" />
    <glyph glyph-name="uni04AF" unicode="&#x4af;" horiz-adv-x="416" 
d="M191 -200v200l-170 508h34l120 -360l31 -102h5l31 102l119 360h35l-171 -508v-200h-34z" />
    <glyph glyph-name="uni04B0" unicode="&#x4b0;" horiz-adv-x="503" 
d="M233 0v260h-158v30h158l-216 408h40l191 -364h7l190 364h40l-216 -408h158v-30h-158v-260h-36z" />
    <glyph glyph-name="uni04B1" unicode="&#x4b1;" horiz-adv-x="416" 
d="M191 -200v171h-115v29h115l-170 508h34l120 -360l31 -102h5l31 102l119 360h35l-171 -508h116v-29h-116v-171h-34z" />
    <glyph glyph-name="uni04B2" unicode="&#x4b2;" horiz-adv-x="545" 
d="M508 -150v150h-58l-188 322h-7l-190 -322h-41l212 354l-204 344h42l181 -308h7l182 308h41l-205 -341l193 -325h69v-182h-34z" />
    <glyph glyph-name="uni04B3" unicode="&#x4b3;" horiz-adv-x="451" 
d="M416 -140v140h-49l-147 228h-7l-148 -228h-38l170 257l-164 251h39l141 -221h7l143 221h38l-164 -251l148 -227h64v-170h-33z" />
    <glyph glyph-name="uni04B4" unicode="&#x4b4;" horiz-adv-x="789" 
d="M715 -150v150h-482v666h-217v32h470v-32h-217v-634h363v666h35v-666h82v-182h-34z" />
    <glyph glyph-name="uni04B5" unicode="&#x4b5;" horiz-adv-x="644" 
d="M575 -140v140h-379v478h-168v30h368v-30h-166v-448h274v478h34v-478h70v-170h-33z" />
    <glyph glyph-name="uni04B6" unicode="&#x4b6;" horiz-adv-x="594" 
d="M519 -150v150h-83v299h-6q-28 -13 -67.5 -20t-88.5 -7q-110 0 -162.5 52t-52.5 160v214h36v-214q0 -96 45.5 -138t136.5 -42q51 0 90.5 7.5t68.5 20.5v366h36v-666h81v-182h-34z" />
    <glyph glyph-name="uni04B7" unicode="&#x4b7;" horiz-adv-x="490" 
d="M422 -140v140h-72v269h-8q-13 -34 -50 -56t-90 -22q-72 0 -111 37.5t-39 111.5v168h34v-166q0 -62 32 -91.5t90 -29.5q64 0 103 33.5t39 85.5v168h34v-478h70v-170h-32z" />
    <glyph glyph-name="uni04B8" unicode="&#x4b8;" horiz-adv-x="565" 
d="M436 0v299h-6q-27 -12 -64 -19t-81 -8v-155h-30v155q-97 6 -146.5 55.5t-49.5 156.5v214h36v-214q0 -95 42 -134.5t118 -45.5v180h30v-180q48 0 85.5 7.5t65.5 20.5v366h36v-698h-36z" />
    <glyph glyph-name="uni04B9" unicode="&#x4b9;" horiz-adv-x="474" 
d="M350 0v268h-7q-13 -31 -43.5 -50.5t-67.5 -25.5v-100h-29v99q-73 0 -112 37.5t-39 111.5v168h34v-166q0 -62 30.5 -90.5t86.5 -29.5v155h29v-155q50 4 84 35.5t34 82.5v168h34v-508h-34z" />
    <glyph glyph-name="uni04BA" unicode="&#x4ba;" horiz-adv-x="565" 
d="M94 0v698h35v-299h7q29 13 67.5 20t87.5 7q111 0 163 -51.5t52 -160.5v-214h-35v214q0 97 -46 138.5t-137 41.5q-50 0 -90 -7t-69 -21v-366h-35z" />
    <glyph glyph-name="uni04BB" unicode="&#x4bb;" horiz-adv-x="504" 
d="M90 0v740h34v-310h7q13 41 50.5 65.5t92.5 24.5q71 0 109.5 -44t38.5 -128v-348h-34v347q0 67 -31 105t-91 38q-38 0 -70.5 -16t-52 -45.5t-19.5 -71.5v-357h-34z" />
    <glyph glyph-name="uni04BC" unicode="&#x4bc;" horiz-adv-x="691" 
d="M645 349v-6h-479l18 9v-51q0 -96 25.5 -158.5t73 -92.5t113.5 -30q76 0 126.5 40t71.5 123l32 -11q-17 -65 -49 -105.5t-78 -59.5t-103 -19q-77 0 -133 34t-86.5 111.5t-30.5 209.5h-75q-19 0 -26.5 8t-7.5 26v110h31v-114h78q3 123 33 197t85 107t131 33q77 0 133 -34
t86.5 -113t30.5 -214zM395 678q-65 0 -112.5 -30t-73 -92t-25.5 -159v-34l-16 10h452l-13 -13v37q0 97 -25.5 159t-72.5 92t-114 30z" />
    <glyph glyph-name="uni04BD" unicode="&#x4bd;" horiz-adv-x="549" 
d="M311 -12q-60 0 -103.5 27.5t-67 86.5t-24.5 150h-59q-19 0 -26.5 8.5t-7.5 26.5v97h31v-104h63q6 121 54.5 180.5t139.5 59.5q61 0 102.5 -28t63.5 -85t22 -143v-12h-346v-36q0 -94 41.5 -146t116.5 -52q63 0 99.5 29t55.5 86l25 -15q-20 -63 -63 -96.5t-117 -33.5z
M311 491q-51 0 -86 -23.5t-53.5 -68t-18.5 -107.5v-12l309 -1v13q0 63 -16.5 107.5t-50 68t-84.5 23.5z" />
    <glyph glyph-name="uni04BE" unicode="&#x4be;" horiz-adv-x="691" 
d="M645 349v-6h-479l18 9v-51q0 -96 25.5 -158.5t73 -92.5t113.5 -30q76 0 126.5 40t71.5 123l32 -11q-17 -65 -48 -104.5t-72 -57.5t-89 -22v-138h-33v138q-71 3 -124.5 36.5t-83.5 110.5t-30 208h-75q-19 0 -26.5 8t-7.5 26v110h31v-114h78q3 123 33 197t85 107t131 33
q77 0 133 -34t86.5 -113t30.5 -214zM395 678q-65 0 -112.5 -30t-73 -92t-25.5 -159v-32l-16 8h452l-13 -13v37q0 97 -25.5 159t-72.5 92t-114 30z" />
    <glyph glyph-name="uni04BF" unicode="&#x4bf;" horiz-adv-x="549" 
d="M329 -12v-128h-33v128q-81 5 -129.5 66.5t-50.5 197.5h-59q-19 0 -26.5 8.5t-7.5 26.5v97h31v-104h63q6 121 54.5 180.5t139.5 59.5q61 0 102.5 -28t63.5 -85t22 -143v-12h-346v-36q0 -94 41.5 -146t116.5 -52q63 0 99.5 29t55.5 86l25 -15q-20 -63 -60 -94t-102 -36z
M311 491q-51 0 -86 -23.5t-53.5 -68t-18.5 -107.5v-12l309 -1v13q0 63 -16.5 107.5t-50 68t-84.5 23.5z" />
    <glyph glyph-name="uni04C0" unicode="&#x4c0;" horiz-adv-x="342" 
d="M283 0h-224v30h94v638h-94v30h224v-30h-94v-638h94v-30z" />
    <glyph glyph-name="uni04C1" unicode="&#x4c1;" horiz-adv-x="832" 
d="M40 0v32h53l138 289q8 15 16 21.5t20 8.5v6q-11 2 -18.5 8.5t-14.5 22.5l-127 278h-56v32h49q15 0 24.5 -6.5t16.5 -21.5l138 -301h119v329h36v-329h119l138 301q7 15 16.5 21.5t23.5 6.5h49v-32h-55l-128 -278q-7 -16 -13.5 -22.5t-18.5 -8.5v-6q13 -2 21 -8.5t14 -21.5
l138 -289h54v-32h-53q-13 0 -22.5 6.5t-16.5 21.5l-147 310h-119v-338h-36v338h-119l-148 -310q-7 -15 -16 -21.5t-23 -6.5h-52zM416 761q-37 0 -60.5 19.5t-40.5 65.5l-12 31l29 14l24 -69q12 -17 26.5 -25t33.5 -8q20 0 34 8t26 25l24 69l29 -14l-12 -31
q-16 -46 -40 -65.5t-61 -19.5z" />
    <glyph glyph-name="uni04C2" unicode="&#x4c2;" horiz-adv-x="679" 
d="M40 0v30h52l89 199q8 19 16 26t19 8v6q-11 2 -18 8.5t-16 25.5l-84 175h-52v30h45q14 0 23 -6t15 -20l98 -202h95v228h34v-228h96l97 202q7 14 16 20t22 6h45v-30h-51l-85 -175q-9 -19 -15.5 -25.5t-18.5 -8.5v-6q11 -1 19 -8t17 -26l89 -199h52v-30h-50q-13 0 -22 6
t-15 21l-100 224h-96v-251h-34v251h-95l-100 -224q-7 -15 -16 -21t-22 -6h-49zM339 604q-37 0 -61 19.5t-41 65.5l-12 31l29 13l25 -68q12 -18 26.5 -26t33.5 -8q20 0 34 8t26 26l25 68l29 -13l-12 -31q-16 -46 -40.5 -65.5t-61.5 -19.5z" />
    <glyph glyph-name="uni04CF" unicode="&#x4cf;" horiz-adv-x="213" 
d="M90 0v740h34v-740h-34z" />
    <glyph glyph-name="uni04D0" unicode="&#x4d0;" horiz-adv-x="551" 
d="M525 0h-38l-72 228h-279l-73 -228h-37l224 698h51zM405 258l-85 272l-42 136h-6l-42 -136l-85 -272h260zM276 761q-37 0 -60.5 19.5t-40.5 65.5l-12 31l29 14l24 -69q12 -17 26.5 -25t33.5 -8q20 0 34 8t26 25l24 69l29 -14l-12 -31q-16 -46 -40 -65.5t-61 -19.5z" />
    <glyph glyph-name="uni04D1" unicode="&#x4d1;" horiz-adv-x="472" 
d="M451 0h-69q-12 0 -20 3.5t-11.5 11.5t-3.5 20v54l10 -10h-17q-14 -41 -50 -66t-91 -25q-71 0 -110 36t-39 109q0 48 19.5 80.5t57 49t90.5 16.5h130v78q0 72 -31.5 102.5t-93.5 30.5q-49 0 -81 -20.5t-50 -69.5l-24 16q18 49 56 76.5t100 27.5q78 0 118 -39t40 -120v-331
h70v-30zM347 251h-130q-59 0 -94.5 -25.5t-35.5 -72.5v-37q0 -46 33 -72t83 -26q41 0 73 15.5t51.5 45t19.5 71.5v101zM225 604q-37 0 -61 19.5t-41 65.5l-12 31l29 13l25 -68q12 -18 26.5 -26t33.5 -8q20 0 34 8t26 26l25 68l29 -13l-12 -31q-16 -46 -40.5 -65.5
t-61.5 -19.5z" />
    <glyph glyph-name="uni04D2" unicode="&#x4d2;" horiz-adv-x="551" 
d="M525 0h-38l-72 228h-279l-73 -228h-37l224 698h51zM405 258l-85 272l-42 136h-6l-42 -136l-85 -272h260zM198 813q-15 0 -22 7.5t-7 17.5v10q0 10 7 17.5t22 7.5q16 0 23 -7.5t7 -17.5v-10q0 -10 -7 -17.5t-23 -7.5zM354 813q-16 0 -23 7.5t-7 17.5v10q0 10 7 17.5
t23 7.5q15 0 22 -7.5t7 -17.5v-10q0 -10 -7 -17.5t-22 -7.5z" />
    <glyph glyph-name="uni04D3" unicode="&#x4d3;" horiz-adv-x="472" 
d="M451 0h-69q-12 0 -20 3.5t-11.5 11.5t-3.5 20v54l10 -10h-17q-14 -41 -50 -66t-91 -25q-71 0 -110 36t-39 109q0 48 19.5 80.5t57 49t90.5 16.5h130v78q0 72 -31.5 102.5t-93.5 30.5q-49 0 -81 -20.5t-50 -69.5l-24 16q18 49 56 76.5t100 27.5q78 0 118 -39t40 -120v-331
h70v-30zM347 251h-130q-59 0 -94.5 -25.5t-35.5 -72.5v-37q0 -46 33 -72t83 -26q41 0 73 15.5t51.5 45t19.5 71.5v101zM147 637q-15 0 -22 7.5t-7 17.5v10q0 10 7 17.5t22 7.5q16 0 23 -7.5t7 -17.5v-10q0 -10 -7 -17.5t-23 -7.5zM303 637q-16 0 -23 7.5t-7 17.5v10
q0 10 7 17.5t23 7.5q15 0 22 -7.5t7 -17.5v-10q0 -10 -7 -17.5t-22 -7.5z" />
    <glyph glyph-name="uni04D4" unicode="&#x4d4;" horiz-adv-x="787" 
d="M370 0v228h-220l-110 -228h-38l339 698h383v-32h-318v-296h305v-32h-305v-306h318v-32h-354zM370 666h-9l-197 -408h206v408z" />
    <glyph glyph-name="uni04D5" unicode="&#x4d5;" horiz-adv-x="784" 
d="M353 252h-136q-59 0 -94.5 -26t-35.5 -73v-37q0 -46 33 -72t83 -26q44 0 78 23t53 65t19 99v47zM388 279h308v13q0 63 -16.5 107.5t-49.5 68t-84 23.5q-50 0 -85.5 -23.5t-54 -68t-18.5 -107.5v-13zM546 18q63 0 99 29t55 86l26 -15q-20 -63 -63.5 -96.5t-116.5 -33.5
q-45 0 -79 16.5t-58 48.5t-35 80h-7q-11 -48 -35.5 -80t-58 -48.5t-74.5 -16.5q-71 0 -110 36t-39 109q0 49 19.5 81t57 48.5t90.5 16.5h136v22q0 86 -34 137.5t-101 51.5q-48 0 -78.5 -20.5t-48.5 -69.5l-24 16q18 49 54 76.5t96 27.5q42 0 72 -16.5t50 -48.5t29 -79h7
q11 48 36 80t59.5 48t75.5 16q61 0 102.5 -28t63 -85t21.5 -143v-12h-345v-36q0 -94 41 -146t117 -52z" />
    <glyph glyph-name="uni04D6" unicode="&#x4d6;" horiz-adv-x="511" 
d="M448 0h-354v698h354v-32h-319v-296h306v-32h-306v-306h319v-32zM270 761q-37 0 -60.5 19.5t-40.5 65.5l-12 31l29 14l24 -69q12 -17 26.5 -25t33.5 -8q20 0 34 8t26 25l24 69l29 -14l-12 -31q-16 -46 -40 -65.5t-61 -19.5z" />
    <glyph glyph-name="uni04D7" unicode="&#x4d7;" horiz-adv-x="484" 
d="M246 -12q-60 0 -104 28t-67.5 86.5t-23.5 151.5t23.5 152t67.5 86.5t104 27.5q61 0 102.5 -28t63 -85t21.5 -143v-12h-345v-36q0 -94 41 -146t117 -52q63 0 99 29t55 86l26 -15q-20 -63 -63.5 -96.5t-116.5 -33.5zM246 491q-50 0 -85.5 -23.5t-54 -68t-18.5 -107.5v-13
h308v13q0 63 -16.5 107.5t-49.5 68t-84 23.5zM244 604q-37 0 -61 19.5t-41 65.5l-12 31l29 13l25 -68q12 -18 26.5 -26t33.5 -8q20 0 34 8t26 26l25 68l29 -13l-12 -31q-16 -46 -40.5 -65.5t-61.5 -19.5z" />
    <glyph glyph-name="uni04D8" unicode="&#x4d8;" horiz-adv-x="620" 
d="M60 355h461v42q0 144 -56 212.5t-155 68.5q-76 0 -126.5 -40t-71.5 -123l-32 11q17 66 49 106t77.5 59t103.5 19q76 0 132.5 -34t86.5 -113t30 -214t-30 -213.5t-86.5 -113t-132.5 -34.5q-77 0 -133 34.5t-86.5 113t-30.5 213.5v6zM98 325v-24q0 -96 25.5 -158.5
t73 -92.5t113.5 -30t113 30t72.5 92.5t25.5 158.5v24h-423z" />
    <glyph glyph-name="uni04D9" unicode="&#x4d9;" horiz-adv-x="484" 
d="M50 256h346v36q0 94 -41.5 146t-116.5 52q-63 0 -99 -28.5t-56 -85.5l-25 14q21 64 64 97t116 33q61 0 104 -27.5t67 -86.5t24 -152t-24 -151.5t-67 -86.5t-104 -28q-60 0 -102 28.5t-64 85.5t-22 142v12zM87 229v-13q0 -62 16.5 -106.5t50.5 -68t84 -23.5q51 0 86 23.5
t53.5 68t18.5 106.5v13h-309z" />
    <glyph glyph-name="uni04DC" unicode="&#x4dc;" horiz-adv-x="832" 
d="M40 0v32h53l138 289q8 15 16 21.5t20 8.5v6q-11 2 -18.5 8.5t-14.5 22.5l-127 278h-56v32h49q15 0 24.5 -6.5t16.5 -21.5l138 -301h119v329h36v-329h119l138 301q7 15 16.5 21.5t23.5 6.5h49v-32h-55l-128 -278q-7 -16 -13.5 -22.5t-18.5 -8.5v-6q13 -2 21 -8.5t14 -21.5
l138 -289h54v-32h-53q-13 0 -22.5 6.5t-16.5 21.5l-147 310h-119v-338h-36v338h-119l-148 -310q-7 -15 -16 -21.5t-23 -6.5h-52zM338 813q-15 0 -22 7.5t-7 17.5v10q0 10 7 17.5t22 7.5q16 0 23 -7.5t7 -17.5v-10q0 -10 -7 -17.5t-23 -7.5zM494 813q-16 0 -23 7.5t-7 17.5
v10q0 10 7 17.5t23 7.5q15 0 22 -7.5t7 -17.5v-10q0 -10 -7 -17.5t-22 -7.5z" />
    <glyph glyph-name="uni04DD" unicode="&#x4dd;" horiz-adv-x="679" 
d="M40 0v30h52l89 199q8 19 16 26t19 8v6q-11 2 -18 8.5t-16 25.5l-84 175h-52v30h45q14 0 23 -6t15 -20l98 -202h95v228h34v-228h96l97 202q7 14 16 20t22 6h45v-30h-51l-85 -175q-9 -19 -15.5 -25.5t-18.5 -8.5v-6q11 -1 19 -8t17 -26l89 -199h52v-30h-50q-13 0 -22 6
t-15 21l-100 224h-96v-251h-34v251h-95l-100 -224q-7 -15 -16 -21t-22 -6h-49zM261 637q-15 0 -22 7.5t-7 17.5v10q0 10 7 17.5t22 7.5q16 0 23 -7.5t7 -17.5v-10q0 -10 -7 -17.5t-23 -7.5zM417 637q-16 0 -23 7.5t-7 17.5v10q0 10 7 17.5t23 7.5q15 0 22 -7.5t7 -17.5v-10
q0 -10 -7 -17.5t-22 -7.5z" />
    <glyph glyph-name="uni04DE" unicode="&#x4de;" horiz-adv-x="520" 
d="M254 -12q-77 0 -127.5 28.5t-81.5 82.5l28 19q28 -51 72 -74.5t109 -23.5q53 0 90.5 17t58 51t20.5 82v31q0 66 -42.5 102t-119.5 36h-103v31h101q45 0 80 17.5t54.5 50t19.5 78.5v29q0 65 -40 99t-114 34q-69 0 -106.5 -25t-58.5 -70l-27 16q21 51 67.5 81t124.5 30
q93 0 142.5 -45.5t49.5 -131.5q0 -81 -36.5 -121.5t-92.5 -53.5v-7q41 -4 72.5 -23t49.5 -53.5t18 -86.5q0 -64 -24.5 -109t-71 -68t-112.5 -23zM181 813q-15 0 -22 7.5t-7 17.5v10q0 10 7 17.5t22 7.5q16 0 23 -7.5t7 -17.5v-10q0 -10 -7 -17.5t-23 -7.5zM337 813
q-16 0 -23 7.5t-7 17.5v10q0 10 7 17.5t23 7.5q15 0 22 -7.5t7 -17.5v-10q0 -10 -7 -17.5t-22 -7.5z" />
    <glyph glyph-name="uni04DF" unicode="&#x4df;" horiz-adv-x="445" 
d="M211 -12q-68 0 -106.5 26t-63.5 70l26 20q22 -42 56 -63.5t88 -21.5q58 0 93.5 28.5t35.5 75.5v24q0 48 -30 74t-84 26h-96v30h93q49 0 77.5 27.5t28.5 68.5v23q0 44 -31.5 69t-87.5 25q-53 0 -84 -21t-51 -63l-26 17q21 46 60.5 71.5t101.5 25.5q73 0 114 -34t41 -99
q0 -52 -24.5 -82.5t-68.5 -37.5v-6q49 -6 76.5 -36.5t27.5 -88.5q0 -68 -45 -108t-121 -40zM133 637q-15 0 -22 7.5t-7 17.5v10q0 10 7 17.5t22 7.5q16 0 23 -7.5t7 -17.5v-10q0 -10 -7 -17.5t-23 -7.5zM289 637q-16 0 -23 7.5t-7 17.5v10q0 10 7 17.5t23 7.5q15 0 22 -7.5
t7 -17.5v-10q0 -10 -7 -17.5t-22 -7.5z" />
    <glyph glyph-name="uni04E0" unicode="&#x4e0;" horiz-adv-x="520" 
d="M251 -12q-76 0 -125.5 30.5t-80.5 87.5l28 20q28 -56 72.5 -81t107.5 -25q49 0 86 19t58 54t21 83v35q0 49 -18.5 84t-55 55t-90.5 20h-97v32l244 262v6l-74 -4h-257v32h370v-39l-235 -253v-21l-19 15h72q67 0 110.5 -25.5t65.5 -71.5t22 -106q0 -71 -27 -117.5t-73 -69
t-105 -22.5z" />
    <glyph glyph-name="uni04E1" unicode="&#x4e1;" horiz-adv-x="447" 
d="M212 -200q-63 0 -105.5 27t-69.5 79l26 19q24 -48 60.5 -71t88.5 -23q45 0 77 19t49 53t17 75v47q0 70 -38 109t-105 39h-77v29l203 275v5l-62 -4h-216v30h316v-30l-201 -271v-23l-18 18h61q57 0 96 -24t58.5 -68.5t19.5 -105.5q0 -65 -23 -111t-63 -69.5t-94 -23.5z" />
    <glyph glyph-name="uni04E2" unicode="&#x4e2;" horiz-adv-x="628" 
d="M94 0v698h34v-558l-5 -91h5l42 88l332 561h32v-698h-35v558l6 91h-5l-42 -88l-333 -561h-31zM196 831v29h232v-29h-232z" />
    <glyph glyph-name="uni04E3" unicode="&#x4e3;" horiz-adv-x="521" 
d="M90 0v508h33v-378l-5 -81h5l40 74l237 385h32v-508h-34v378l6 82h-6l-39 -75l-238 -385h-31zM144 654v28h232v-28h-232z" />
    <glyph glyph-name="uni04E4" unicode="&#x4e4;" horiz-adv-x="628" 
d="M94 0v698h34v-558l-5 -91h5l42 88l332 561h32v-698h-35v558l6 91h-5l-42 -88l-333 -561h-31zM234 813q-15 0 -22 7.5t-7 17.5v10q0 10 7 17.5t22 7.5q16 0 23 -7.5t7 -17.5v-10q0 -10 -7 -17.5t-23 -7.5zM390 813q-16 0 -23 7.5t-7 17.5v10q0 10 7 17.5t23 7.5
q15 0 22 -7.5t7 -17.5v-10q0 -10 -7 -17.5t-22 -7.5z" />
    <glyph glyph-name="uni04E5" unicode="&#x4e5;" horiz-adv-x="521" 
d="M90 0v508h33v-378l-5 -81h5l40 74l237 385h32v-508h-34v378l6 82h-6l-39 -75l-238 -385h-31zM182 637q-15 0 -22 7.5t-7 17.5v10q0 10 7 17.5t22 7.5q16 0 23 -7.5t7 -17.5v-10q0 -10 -7 -17.5t-23 -7.5zM338 637q-16 0 -23 7.5t-7 17.5v10q0 10 7 17.5t23 7.5
q15 0 22 -7.5t7 -17.5v-10q0 -10 -7 -17.5t-22 -7.5z" />
    <glyph glyph-name="uni04E6" unicode="&#x4e6;" horiz-adv-x="620" 
d="M310 -12q-77 0 -133 34.5t-86.5 113t-30.5 213.5t30.5 214t86.5 113t133 34q76 0 132.5 -34t86.5 -113t30 -214t-30 -213.5t-86.5 -113t-132.5 -34.5zM310 20q66 0 113 30t72.5 92.5t25.5 158.5v96q0 97 -25.5 159t-72.5 92t-113 30t-113 -30t-72.5 -92t-25.5 -159v-96
q0 -96 25.5 -158.5t72.5 -92.5t113 -30zM232 813q-15 0 -22 7.5t-7 17.5v10q0 10 7 17.5t22 7.5q16 0 23 -7.5t7 -17.5v-10q0 -10 -7 -17.5t-23 -7.5zM388 813q-16 0 -23 7.5t-7 17.5v10q0 10 7 17.5t23 7.5q15 0 22 -7.5t7 -17.5v-10q0 -10 -7 -17.5t-22 -7.5z" />
    <glyph glyph-name="uni04E7" unicode="&#x4e7;" horiz-adv-x="492" 
d="M246 -12q-60 0 -104 28t-67.5 86.5t-23.5 151.5t23.5 152t67.5 86.5t104 27.5q61 0 104 -27.5t67 -86.5t24 -152t-24 -151.5t-67 -86.5t-104 -28zM246 19q76 0 117 51.5t41 145.5v76q0 94 -41 146t-117 52t-117 -52t-41 -146v-76q0 -94 41 -145.5t117 -51.5zM168 637
q-15 0 -22 7.5t-7 17.5v10q0 10 7 17.5t22 7.5q16 0 23 -7.5t7 -17.5v-10q0 -10 -7 -17.5t-23 -7.5zM324 637q-16 0 -23 7.5t-7 17.5v10q0 10 7 17.5t23 7.5q15 0 22 -7.5t7 -17.5v-10q0 -10 -7 -17.5t-22 -7.5z" />
    <glyph glyph-name="uni04E8" unicode="&#x4e8;" horiz-adv-x="620" 
d="M310 -12q-77 0 -133 34.5t-86.5 113t-30.5 213.5t30.5 214t86.5 113t133 34q76 0 132.5 -34t86.5 -113t30 -214t-30 -213.5t-86.5 -113t-132.5 -34.5zM310 20q66 0 113 30t72.5 92.5t25.5 158.5v48l17 -12h-455l16 12v-48q0 -96 25.5 -158.5t72.5 -92.5t113 -30zM310 678
q-66 0 -113 -30t-72.5 -92t-25.5 -159v-36l-14 9h454l-18 -13v40q0 97 -25.5 159t-72.5 92t-113 30z" />
    <glyph glyph-name="uni04E9" unicode="&#x4e9;" horiz-adv-x="492" 
d="M246 -12q-60 0 -104 28t-67.5 86.5t-23.5 151.5t23.5 152t67.5 86.5t104 27.5q61 0 104 -27.5t67 -86.5t24 -152t-24 -151.5t-67 -86.5t-104 -28zM246 19q76 0 117 51.5t41 145.5v29h-316v-29q0 -94 41 -145.5t117 -51.5zM88 292v-18h316v18q0 94 -41 146t-117 52
t-117 -52t-41 -146z" />
    <glyph glyph-name="uni04EE" unicode="&#x4ee;" horiz-adv-x="522" 
d="M139 0v32h84l43 119l-241 547h39l180 -414l35 -85h6l29 85l146 414h37l-239 -664q-4 -14 -10.5 -21t-15.5 -10t-23 -3h-70zM146 831v29h232v-29h-232z" />
    <glyph glyph-name="uni04EF" unicode="&#x4ef;" horiz-adv-x="418" 
d="M263 201l99 307h34l-219 -677q-3 -12 -8.5 -18.5t-13 -9.5t-19.5 -3h-78v30h87l47 149l-171 529h34l99 -307l52 -171h5zM95 654v28h232v-28h-232z" />
    <glyph glyph-name="uni04F0" unicode="&#x4f0;" horiz-adv-x="522" 
d="M139 0v32h84l43 119l-241 547h39l180 -414l35 -85h6l29 85l146 414h37l-239 -664q-4 -14 -10.5 -21t-15.5 -10t-23 -3h-70zM184 813q-15 0 -22 7.5t-7 17.5v10q0 10 7 17.5t22 7.5q16 0 23 -7.5t7 -17.5v-10q0 -10 -7 -17.5t-23 -7.5zM340 813q-16 0 -23 7.5t-7 17.5v10
q0 10 7 17.5t23 7.5q15 0 22 -7.5t7 -17.5v-10q0 -10 -7 -17.5t-22 -7.5z" />
    <glyph glyph-name="uni04F1" unicode="&#x4f1;" horiz-adv-x="418" 
d="M263 201l99 307h34l-219 -677q-3 -12 -8.5 -18.5t-13 -9.5t-19.5 -3h-78v30h87l47 149l-171 529h34l99 -307l52 -171h5zM133 637q-15 0 -22 7.5t-7 17.5v10q0 10 7 17.5t22 7.5q16 0 23 -7.5t7 -17.5v-10q0 -10 -7 -17.5t-23 -7.5zM289 637q-16 0 -23 7.5t-7 17.5v10
q0 10 7 17.5t23 7.5q15 0 22 -7.5t7 -17.5v-10q0 -10 -7 -17.5t-22 -7.5z" />
    <glyph glyph-name="uni04F2" unicode="&#x4f2;" horiz-adv-x="522" 
d="M139 0v32h84l43 119l-241 547h39l180 -414l35 -85h6l29 85l146 414h37l-239 -664q-4 -14 -10.5 -21t-15.5 -10t-23 -3h-70zM294 918l-102 -154l-22 14l94 157zM438 918l-101 -154l-22 14l93 157z" />
    <glyph glyph-name="uni04F3" unicode="&#x4f3;" horiz-adv-x="418" 
d="M263 201l99 307h34l-219 -677q-3 -12 -8.5 -18.5t-13 -9.5t-19.5 -3h-78v30h87l47 149l-171 529h34l99 -307l52 -171h5zM243 740l-102 -153l-22 13l94 158zM387 740l-101 -153l-22 13l93 158z" />
    <glyph glyph-name="uni04F4" unicode="&#x4f4;" horiz-adv-x="565" 
d="M436 0v299h-6q-28 -13 -67.5 -20t-88.5 -7q-110 0 -162.5 52t-52.5 160v214h36v-214q0 -96 45.5 -138t136.5 -42q51 0 90.5 7.5t68.5 20.5v366h36v-698h-36zM187 813q-15 0 -22 7.5t-7 17.5v10q0 10 7 17.5t22 7.5q16 0 23 -7.5t7 -17.5v-10q0 -10 -7 -17.5t-23 -7.5z
M343 813q-16 0 -23 7.5t-7 17.5v10q0 10 7 17.5t23 7.5q15 0 22 -7.5t7 -17.5v-10q0 -10 -7 -17.5t-22 -7.5z" />
    <glyph glyph-name="uni04F5" unicode="&#x4f5;" horiz-adv-x="474" 
d="M350 0v269h-8q-13 -34 -50 -56t-90 -22q-72 0 -111 37.5t-39 111.5v168h34v-166q0 -62 32 -91.5t90 -29.5q64 0 103 33.5t39 85.5v168h34v-508h-34zM140 637q-15 0 -22 7.5t-7 17.5v10q0 10 7 17.5t22 7.5q16 0 23 -7.5t7 -17.5v-10q0 -10 -7 -17.5t-23 -7.5zM296 637
q-16 0 -23 7.5t-7 17.5v10q0 10 7 17.5t23 7.5q15 0 22 -7.5t7 -17.5v-10q0 -10 -7 -17.5t-22 -7.5z" />
    <glyph glyph-name="uni04F6" unicode="&#x4f6;" horiz-adv-x="457" 
d="M94 0v698h327v-32h-292v-634h82v-182h-34v150h-83z" />
    <glyph glyph-name="uni04F7" unicode="&#x4f7;" horiz-adv-x="396" 
d="M90 0v508h274v-30h-240v-448h70v-170h-33v140h-71z" />
    <glyph glyph-name="uni04F8" unicode="&#x4f8;" horiz-adv-x="753" 
d="M94 0v698h35v-295h205q54 0 90 -23t54.5 -67.5t18.5 -111.5q0 -65 -18.5 -110t-54.5 -68t-90 -23h-240zM129 32h204q43 0 70.5 18t41 49.5t13.5 71.5v60q0 41 -13.5 72.5t-41 49.5t-70.5 18h-204v-339zM623 0v698h36v-698h-36zM298 813q-15 0 -22 7.5t-7 17.5v10
q0 10 7 17.5t22 7.5q16 0 23 -7.5t7 -17.5v-10q0 -10 -7 -17.5t-23 -7.5zM454 813q-16 0 -23 7.5t-7 17.5v10q0 10 7 17.5t23 7.5q15 0 22 -7.5t7 -17.5v-10q0 -10 -7 -17.5t-22 -7.5z" />
    <glyph glyph-name="uni04F9" unicode="&#x4f9;" horiz-adv-x="619" 
d="M90 0v508h34v-206h150q42 0 69.5 -17.5t42.5 -51t15 -82.5q0 -47 -14.5 -81t-42.5 -52t-69 -18h-185zM124 30h148q46 0 69 28.5t23 71.5v42q0 44 -23 72t-69 28h-148v-242zM496 0v508h34v-508h-34zM232 637q-15 0 -22 7.5t-7 17.5v10q0 10 7 17.5t22 7.5q16 0 23 -7.5
t7 -17.5v-10q0 -10 -7 -17.5t-23 -7.5zM388 637q-16 0 -23 7.5t-7 17.5v10q0 10 7 17.5t23 7.5q15 0 22 -7.5t7 -17.5v-10q0 -10 -7 -17.5t-22 -7.5z" />
    <glyph glyph-name="uni0524" unicode="&#x524;" horiz-adv-x="643" 
d="M94 0v698h427v-666h82v-182h-34v150h-83v666h-357v-666h-35z" />
    <glyph glyph-name="uni0525" unicode="&#x525;" horiz-adv-x="528" 
d="M90 0v508h332v-478h71v-170h-33v140h-72v478h-264v-478h-34z" />
    <glyph glyph-name="uni0E3F" unicode="&#xe3f;" horiz-adv-x="554" 
d="M286 20v-102h-30v102h-162v657h162v103h30v-103h36q74 0 110.5 -42t36.5 -121q0 -70 -26.5 -103t-71.5 -41v-7q38 -4 66 -21t43.5 -51.5t15.5 -88.5q0 -59 -18 -99.5t-53.5 -61.5t-85.5 -21h-53zM129 380h128v266h-128v-266zM286 646v-266h35q53 0 82 28t29 79v52
q0 50 -29 78.5t-82 28.5h-35zM129 52h128v297h-128v-297zM286 349v-297h46q39 0 67 14.5t43.5 41.5t15.5 66v53q0 38 -15.5 65.5t-43.5 42t-67 14.5h-46z" />
    <glyph glyph-name="Wgrave" unicode="&#x1e80;" horiz-adv-x="790" 
d="M237 0h-51l-161 698h38l102 -459l45 -205h5l46 205l108 459h53l108 -459l47 -205h5l44 205l103 459h37l-162 -698h-51l-109 459l-46 207h-6l-45 -207zM403 764l-102 154l31 17l94 -157z" />
    <glyph glyph-name="wgrave" unicode="&#x1e81;" horiz-adv-x="664" 
d="M162 0l-132 508h34l77 -298l43 -179h6l44 179l75 298h48l76 -298l44 -179h5l44 179l76 298h34l-132 -508h-50l-78 305l-40 170h-6l-41 -170l-77 -305h-50zM343 587l-102 153l31 18l94 -158z" />
    <glyph glyph-name="Wacute" unicode="&#x1e82;" horiz-adv-x="790" 
d="M237 0h-51l-161 698h38l102 -459l45 -205h5l46 205l108 459h53l108 -459l47 -205h5l44 205l103 459h37l-162 -698h-51l-109 459l-46 207h-6l-45 -207zM485 918l-102 -154l-23 14l94 157z" />
    <glyph glyph-name="wacute" unicode="&#x1e83;" horiz-adv-x="664" 
d="M162 0l-132 508h34l77 -298l43 -179h6l44 179l75 298h48l76 -298l44 -179h5l44 179l76 298h34l-132 -508h-50l-78 305l-40 170h-6l-41 -170l-77 -305h-50zM425 740l-102 -153l-23 13l94 158z" />
    <glyph glyph-name="Wdieresis" unicode="&#x1e84;" horiz-adv-x="790" 
d="M237 0h-51l-161 698h38l102 -459l45 -205h5l46 205l108 459h53l108 -459l47 -205h5l44 205l103 459h37l-162 -698h-51l-109 459l-46 207h-6l-45 -207zM315 813q-15 0 -22 7.5t-7 17.5v10q0 10 7 17.5t22 7.5q16 0 23 -7.5t7 -17.5v-10q0 -10 -7 -17.5t-23 -7.5zM471 813
q-16 0 -23 7.5t-7 17.5v10q0 10 7 17.5t23 7.5q15 0 22 -7.5t7 -17.5v-10q0 -10 -7 -17.5t-22 -7.5z" />
    <glyph glyph-name="wdieresis" unicode="&#x1e85;" horiz-adv-x="664" 
d="M162 0l-132 508h34l77 -298l43 -179h6l44 179l75 298h48l76 -298l44 -179h5l44 179l76 298h34l-132 -508h-50l-78 305l-40 170h-6l-41 -170l-77 -305h-50zM255 637q-15 0 -22 7.5t-7 17.5v10q0 10 7 17.5t22 7.5q16 0 23 -7.5t7 -17.5v-10q0 -10 -7 -17.5t-23 -7.5z
M411 637q-16 0 -23 7.5t-7 17.5v10q0 10 7 17.5t23 7.5q15 0 22 -7.5t7 -17.5v-10q0 -10 -7 -17.5t-22 -7.5z" />
    </font>
</defs>
</svg>
